<?xml version="1.0" standalone="no"?>
<!DOCTYPE svg PUBLIC "-//W3C//DTD SVG 1.1//EN" "http://www.w3.org/Graphics/SVG/1.1/DTD/svg11.dtd" >
<svg>
<metadata>
Created by FontForge 20110222 at Thu Mar  1 08:22:42 2012
 By Stefan Warting
Copyright (c) 1998-2006 Senamirmir Project. All Right Reserved. Distributed under the terms of the GNU General Public License. As a special exception, if you create a document which uses this font, and embed this font or unaltered portions of this font into the document, this font does not by itself cause the resulting document to be covered by the GNU General Public License. This exception does not however invalidate any other reasons why the document might be covered by the GNU General Public License. If you modify this font, you may extend this exception to your version of the font, but you are not obligated to do so. If you do not wish to do so, delete this exception statement from your version.
</metadata>
<defs>
<font id="EthiopicWashRaSemiBoldSlant" horiz-adv-x="600" >
  <font-face 
    font-family="Ethiopic WashRa SemiBold Slant"
    font-weight="600"
    font-stretch="normal"
    units-per-em="1000"
    panose-1="0 0 5 0 0 0 0 2 0 4"
    ascent="800"
    descent="-200"
    x-height="453"
    cap-height="583"
    bbox="-72 -215 1146.57 833"
    underline-thickness="50"
    underline-position="-78"
    unicode-range="U+0020-2122"
  />
<missing-glyph horiz-adv-x="500" 
 />
    <glyph glyph-name=".notdef" horiz-adv-x="500" 
 />
    <glyph glyph-name=".null" horiz-adv-x="0" 
 />
    <glyph glyph-name="nonmarkingreturn" horiz-adv-x="500" 
 />
    <glyph glyph-name="visiblespace" unicode=" " horiz-adv-x="272" 
 />
    <glyph glyph-name="visiblespace" unicode="&#xa0;" horiz-adv-x="272" 
 />
    <glyph glyph-name="exclam" unicode="!" 
d="M476 591h-121l-60 -404h82zM327 141q-36 0 -65.5 -23t-36.5 -55q-6 -32 14 -55.5t58 -23.5q19 0 36 6.5t30.5 17t23 25t12.5 30.5t-1 30.5t-13.5 25t-24.5 16.5t-33 6z" />
    <glyph glyph-name="quotedbl" unicode="&#x22;" 
d="M255 583l-48 -311h109l71 311h-132zM439 583l-48 -311h109l71 311h-132z" />
    <glyph glyph-name="numbersign" unicode="#" 
d="M298 658l-47 -185h-106l-19 -98h100l-39 -156h-94l-19 -98h91l-52 -194h85l52 194h152l-49 -194h85l49 194h106l19 98h-100l37 156h98l19 98h-91l47 185h-85l-47 -185h-152l47 185h-87zM464 375l-38 -156h-153l40 156h151z" />
    <glyph glyph-name="dollar" unicode="$" 
d="M506 522q-11 23 -27.5 32.5t-34.5 13.5l21 104h-71l-21 -104q-28 -3 -57.5 -14.5t-55.5 -31t-45 -47.5t-26 -64q-8 -41 3 -68t31.5 -44.5t45 -26.5t44.5 -15l-30 -155q-27 2 -41 17t-19.5 35t-5 42t1.5 39h-80l-4.5 -63t-10.5 -72q-6 -31 -12 -51.5t-12 -40.5h81l19 54
q13 -20 26.5 -29.5t39.5 -17.5l-28 -146h71l28 146q54 8 89.5 26.5t57.5 41t32.5 45.5t13.5 41q8 42 -2.5 68.5t-31.5 43.5t-47.5 26t-51.5 16l30 156q20 -6 31.5 -20.5t16.5 -33t5 -41.5q0 -22 -2 -44l80 9q2 23 4.5 56t9.5 67q5 26 12 51t12 45h-74zM330 345
q-27 9 -46 23.5t-12 46.5q5 26 25.5 44.5t59.5 23.5zM380 239q34 -8 54 -22.5t14 -46.5q-4 -22 -16.5 -35t-27 -20t-28.5 -10t-22 -4z" />
    <glyph glyph-name="percent" unicode="%" 
d="M480 274q-36 0 -67 -13t-54 -33.5t-38.5 -46t-20.5 -51.5q-5 -27 0 -52.5t21 -46t41.5 -33t61.5 -12.5t67 13t54.5 33.5t38.5 46t20 51.5q5 25 0 50.5t-20.5 46.5t-41 34t-62.5 13zM467 206q37 0 52 -24t10 -52q-3 -13 -10 -26.5t-19 -24.5t-28 -18t-35 -7q-20 0 -33 7
t-20.5 18.5t-9 25t0.5 25.5q3 13 10 26.5t19 24.5t27.5 18t35.5 7zM296 634q-35 0 -65 -12t-54 -32.5t-40 -46.5t-21 -53q-5 -26 0 -51.5t20 -46t41 -33.5t63 -13t68 13t54 33.5t38 46t20 51.5q5 27 -0.5 53t-21.5 46t-42 32.5t-60 12.5zM283 566q36 0 52 -23.5t10 -52.5
q-6 -31 -31.5 -53.5t-60.5 -22.5q-36 0 -52 23t-10 53q6 29 30.5 52.5t61.5 23.5zM592 438l-461 -188l17 -55l461 188z" />
    <glyph glyph-name="ampersand" unicode="&#x26;" 
d="M475 309q0 -2 -3 -7t-4 -7q-7 -14 -11 -22.5t-8 -16t-9.5 -16.5t-14.5 -24l-62 132q-1 2 -4.5 8.5t-7 14t-6.5 14t-4 9.5q-2 2 -8 18t-3 32q2 8 12 20t37 12q17 0 40.5 -8.5t61.5 -40.5l87 103q-12 -2 -20 -3.5t-15 -1.5q-11 0 -21.5 3t-18.5 7q-2 2 -11.5 5.5t-11.5 5.5
q-17 8 -34 11.5t-37 3.5q-33 0 -62 -10.5t-51.5 -28.5t-37 -41t-19.5 -48q-6 -32 2 -58t23 -57q-44 -21 -70.5 -47t-41 -50t-20 -43t-6.5 -26q-5 -27 -1 -55t19 -51t42 -38t68 -15q27 0 48.5 5.5t39 13.5t30.5 17.5t23 17.5l24 -47h144l16 82h-79l-25 53q10 14 17 23.5
t13 18.5t11.5 20t14.5 27h63l16 85h-125zM350 118q-12 -11 -30 -23.5t-43 -12.5q-16 0 -27.5 7.5t-18 20t-8.5 28t1 30.5q4 20 18 41.5t46 38.5z" />
    <glyph glyph-name="quotesingle" unicode="'" 
d="M337 583l-38 -311h108l82 311h-152z" />
    <glyph glyph-name="parenleft" unicode="(" 
d="M527 666l-3 -4q-2 -2 -8 -8.5t-8 -8.5q-22 -26 -50 -66.5t-54.5 -88.5t-48 -100.5t-31.5 -102.5q-8 -43 -8.5 -91t6.5 -96.5t20.5 -95.5t32.5 -87q2 -4 2.5 -5.5t2.5 -4.5h92q-15 44 -28.5 89t-22 91.5t-10 96t9.5 103.5q10 54 31.5 104.5t48.5 97.5t57.5 91.5t60.5 85.5
h-92z" />
    <glyph glyph-name="parenright" unicode=")" 
d="M185 -93q12 15 23 28.5t22.5 28.5t23.5 32.5t27 40.5q36 58 65.5 123t41.5 127q4 24 7 62.5t-1 87.5t-17.5 106t-41.5 119q-3 0 -3 4h-93q15 -47 29 -92t22.5 -91t9.5 -94.5t-9 -101.5q-11 -54 -32 -104.5t-47.5 -97t-55.5 -88t-54 -76.5q-2 -2 -5 -7t-5 -7h93z" />
    <glyph glyph-name="asterisk" unicode="*" 
d="M359 583l-20 -136l-117 46l-53 -101l124 -35l-105 -106l73 -63l98 113l54 -113l97 63l-65 106l138 35l-12 101l-136 -46l32 136h-108z" />
    <glyph glyph-name="plus" unicode="+" 
d="M363 553l-38 -197h-202l-17 -88h202l-38 -197h88l38 197h202l17 88h-202l38 197h-88z" />
    <glyph glyph-name="comma" unicode="," 
d="M274 168l-141 -274h108l177 274h-144z" />
    <glyph glyph-name="glyph16" unicode="-" 
d="M256 345l-18 -92h222l18 92h-222z" />
    <glyph glyph-name="period" unicode="." 
d="M330 154q-17 0 -35 -6t-33.5 -17t-27 -26.5t-15.5 -35.5t1.5 -36t17 -27t27 -16.5t32.5 -5.5t35 6t33.5 17t26.5 26.5t15 35.5t-1.5 36t-17 27t-27 16.5t-31.5 5.5z" />
    <glyph glyph-name="slash" unicode="/" 
d="M591 724l-538 -822l70 -35l539 824z" />
    <glyph glyph-name="zero" unicode="0" 
d="M424 639q-45 0 -80 -15.5t-62.5 -41.5t-48 -60t-35.5 -70t-24.5 -72.5t-15.5 -66.5t-10 -66t-3.5 -72t7.5 -70.5t24.5 -60.5t46.5 -42t74 -16t80.5 16t63.5 42t48.5 60.5t35 70.5t24 72t15.5 66t10 66t3.5 72.5t-8 70t-25 60t-46.5 42t-74 15.5zM408 556q38 0 55.5 -26.5
t21.5 -64.5t-1 -79.5t-11 -72.5q-6 -28 -17 -69.5t-29.5 -80.5t-46.5 -66.5t-67 -27.5q-38 0 -55 26t-21 64t1 80t11 74q13 65 34.5 121.5t44.5 82.5q25 26 47 32.5t33 6.5z" />
    <glyph glyph-name="one" unicode="1" 
d="M191 544l20 -78l157 65l-87 -449h-168l-16 -82h421l16 82h-166l108 557h-54z" />
    <glyph glyph-name="two" unicode="2" 
d="M437 180l-19 -98h-198l114 88q60 46 102 81t70 65t44 59t23 65q8 41 -1 77.5t-31 63.5t-56 42.5t-76 15.5q-12 0 -33.5 -2.5t-50 -12t-62 -29.5t-69.5 -55l-17 -87h90q0 4 0.5 10t1.5 11q5 24 20 39t33.5 23.5t36.5 11.5t30 3q27 0 46.5 -8.5t31.5 -23.5t15.5 -34.5
t-0.5 -41.5q-5 -29 -20.5 -54.5t-52.5 -56.5t-83.5 -67.5t-92.5 -72t-85.5 -65t-61.5 -45.5l-16 -82h416l35 180h-84z" />
    <glyph glyph-name="three" unicode="3" 
d="M111 27q35 -16 70.5 -28.5t82.5 -12.5q44 0 85.5 14t76 40t58.5 62.5t33 82.5q9 48 -5 90t-52 66q9 8 21 19t24 26.5t22 36t16 48.5q7 39 -2.5 70t-31.5 53t-53 33.5t-65 11.5q-55 0 -103.5 -22.5t-102.5 -54.5l30 -72q31 17 53.5 29t40 19.5t32.5 10.5t32 3
q16 0 32 -4.5t28 -14.5t18 -26.5t2 -39.5q-7 -35 -26 -54.5t-43.5 -28.5t-49.5 -11t-44 -2l-16 -83q23 2 36 2h16q57 0 84.5 -27.5t17.5 -78.5q-6 -29 -21 -50.5t-35 -35.5t-43 -20.5t-45 -6.5q-47 0 -88.5 17.5t-71.5 34.5l-50 -80z" />
    <glyph glyph-name="four" unicode="4" 
d="M531 639h-121l-318 -394l-16 -80h276l-16 -83h-130l-16 -82h313l16 82h-96l16 83h96l17 85h-96zM181 250l246 310h2l-60 -310h-188z" />
    <glyph glyph-name="five" unicode="5" 
d="M233 625l-62 -324l40 -26q24 17 58 34.5t80 17.5q58 0 84.5 -37t16.5 -91q-4 -20 -14 -42t-29 -40.5t-48 -31t-70 -12.5q-25 0 -48 4.5t-42.5 11t-35.5 13.5t-28 13q0 1 -3 2t-5 2l-47 -81q29 -12 53 -21.5t46.5 -16.5t46 -10.5t51.5 -3.5q62 0 109 21t79.5 53.5
t51.5 70.5t25 71q9 43 1 81t-30 66.5t-58 44.5t-83 16q-36 0 -63 -7t-38 -11l29 147h279l16 86h-362z" />
    <glyph glyph-name="six" unicode="6" 
d="M625 636q-16 1 -36 2t-40 1q-14 0 -41.5 -1t-61.5 -8.5t-72 -23t-72 -44.5q-40 -34 -68.5 -74.5t-47.5 -81t-29.5 -76.5t-15.5 -61q-16 -82 -5 -136.5t36.5 -87.5t60 -46.5t67.5 -13.5q41 0 79 16t68.5 44t52.5 65t30 78q8 42 1 79.5t-27 66t-51.5 45t-71.5 16.5
q-5 0 -16 -0.5t-27.5 -4t-37 -11.5t-42.5 -22q25 73 62.5 112.5t76.5 58t74.5 21.5t58.5 3h25q21 0 53 -2zM225 219q18 30 38.5 47.5t40.5 27t36 12t25 2.5q22 0 37.5 -10t25 -26.5t12 -38.5t-1.5 -45q-11 -54 -46 -85t-76 -31q-18 0 -36.5 8t-32.5 25.5t-20.5 45.5t-1.5 68
z" />
    <glyph glyph-name="seven" unicode="7" 
d="M211 625l-33 -172h86l17 87h236l-299 -540h97l301 557l13 68h-418z" />
    <glyph glyph-name="eight" unicode="8" 
d="M236 320q-42 -26 -71.5 -66t-37.5 -82q-6 -32 0.5 -65t27.5 -60t56 -44t86 -17t93 17.5t73.5 44.5t51 60t25.5 65q3 17 2.5 36.5t-6.5 39t-17.5 38t-30.5 33.5q47 32 68.5 70.5t28.5 70.5q7 38 -2 70.5t-31 56.5t-55 37.5t-73 13.5q-41 0 -79 -14t-69 -38t-52.5 -56.5
t-28.5 -69.5q-2 -11 -3.5 -27t2 -35t13 -39.5t29.5 -39.5zM408 554q42 0 68.5 -24.5t17.5 -69.5q-4 -22 -16.5 -40.5t-29.5 -32t-37.5 -21t-40.5 -7.5q-21 0 -38 8t-29 21.5t-17.5 32t-1.5 39.5t16 38.5t29 30t37.5 19t41.5 6.5zM353 272q28 0 47.5 -9t31.5 -23.5
t16.5 -32.5t0.5 -37q-4 -20 -16.5 -38.5t-30.5 -32.5t-41 -22t-48 -8t-44.5 8.5t-32 22.5t-18 32t-1.5 38q3 18 14 36t28.5 33t41 24t52.5 9z" />
    <glyph glyph-name="nine" unicode="9" 
d="M65 -12q15 -1 35 -2t40 -1q14 0 41.5 1t61.5 8.5t71.5 23t72.5 44.5q40 34 68.5 74.5t47.5 81t29.5 76.5t15.5 61q16 82 5 136.5t-36.5 87.5t-60 46.5t-67.5 13.5q-41 0 -79 -16.5t-68.5 -44t-52 -64.5t-29.5 -78q-8 -42 -1 -79.5t27 -66t51 -45t72 -16.5q4 0 15.5 0.5
t28 4t36.5 11.5t42 22q-17 -49 -39.5 -82.5t-47.5 -55t-51.5 -33t-51 -17t-46 -6.5t-36.5 -1h-23q-17 0 -49 2zM465 405q-18 -30 -39 -47.5t-41 -27t-36 -12t-25 -2.5q-22 0 -37.5 10t-24.5 26.5t-12 38.5t2 45q11 54 45.5 85t75.5 31q18 0 36.5 -8t32.5 -25.5t21 -45.5
t2 -68z" />
    <glyph glyph-name="colon" unicode=":" 
d="M381 416q-18 0 -36.5 -6.5t-33.5 -17.5t-26 -26.5t-15 -34.5q-4 -20 1.5 -35.5t17 -26.5t27 -17t32.5 -6q16 0 34 6t33.5 17t27 26.5t15.5 35.5q4 19 -1 34.5t-16 27t-26.5 17.5t-33.5 6zM330 154q-16 0 -33.5 -5.5t-33.5 -16.5t-28 -26.5t-16 -36.5q-4 -20 1.5 -36
t17 -27t27 -16.5t32.5 -5.5t35 5.5t33.5 16.5t26.5 27t15 36q4 21 -1.5 36.5t-17 26.5t-27 16.5t-31.5 5.5z" />
    <glyph glyph-name="semicolon" unicode=";" 
d="M278 169l-139 -274h108l175 274h-144zM381 419q-18 0 -36 -6.5t-33 -17.5t-25.5 -26.5t-14.5 -34.5q-4 -20 1 -35.5t16 -26.5t26.5 -17t32.5 -6t35 6t33.5 17t27 26.5t15.5 35.5t-1 35.5t-16.5 26.5t-27 17t-33.5 6z" />
    <glyph glyph-name="less" unicode="&#x3c;" 
d="M624 556l-557 -237l464 -244l51 80l-316 163l380 159z" />
    <glyph glyph-name="equal" unicode="=" 
d="M140 444l-17 -88h492l17 88h-492zM106 269l-17 -88h492l17 88h-492z" />
    <glyph glyph-name="greater" unicode="&#x3e;" 
d="M177 556l-52 -79l317 -159l-379 -163l20 -80l559 244z" />
    <glyph glyph-name="question" unicode="?" 
d="M189 420h87l13 68l21 7q15 5 40.5 7.5t40.5 2.5q19 0 37 -5.5t31 -17t19 -28t2 -38.5q-6 -28 -22.5 -46t-39 -29.5t-48 -18.5t-49.5 -13q-6 -1 -14 -2.5t-14 -3.5q-2 0 -4.5 -1t-3.5 -1l-24 -122h86l11 56q22 6 54.5 17t64 31t57 51.5t34.5 79.5q7 35 0 67t-28 57
t-57 39.5t-86 14.5q-18 0 -34.5 -1.5t-34 -5t-38 -9t-45.5 -13.5q-16 -5 -20.5 -6.5l-10.5 -3.5zM295 142q-38 0 -67 -23.5t-35 -55.5t14 -55.5t57 -23.5q36 0 66 23t36 56q7 33 -14 56t-57 23z" />
    <glyph glyph-name="at" unicode="@" 
d="M540 126q-27 -13 -55 -25.5t-57 -22.5t-60 -16t-65 -6q-66 0 -100.5 26t-48.5 62.5t-13 75.5t6 65q7 33 24 75t48 79t77.5 62t112.5 25q39 0 73.5 -11t58 -34t33 -58.5t0.5 -84.5q-6 -29 -17 -54t-26 -43.5t-32 -29.5t-33 -11q-17 0 -24 10.5t-5 19.5q1 4 3.5 11.5
t5.5 14.5t6 12.5t4 7.5l78 169h-73l-9 -21q-8 10 -18 18t-31 8q-33 0 -65 -19.5t-59 -50t-46 -67.5t-26 -72q-6 -32 -1 -53.5t16 -34.5t25 -18.5t26 -5.5q4 0 13 1t22.5 5.5t30 13.5t36.5 26q9 -16 20.5 -25t22.5 -13t20.5 -4.5t12.5 -0.5q28 0 58 13t56 38t46.5 62.5
t30.5 87.5q12 60 1 108t-40.5 81.5t-75 51.5t-103.5 18q-49 0 -103 -15.5t-102.5 -51.5t-86.5 -95.5t-55 -148.5q-14 -70 -5 -124.5t37.5 -92t73.5 -57t103 -19.5q69 0 138.5 21.5t135.5 56.5zM292 199q-7 0 -10 5t-4.5 11.5t-1 13t0.5 9.5q4 22 17 47t28.5 46t32.5 35
t30 14q9 0 15 -10.5t2 -29.5q-4 -21 -16 -45.5t-28 -46t-33.5 -35.5t-32.5 -14z" />
    <glyph glyph-name="A" unicode="A" 
d="M213 583l-16 -82h129l-252 -419h-58l-16 -82h237l16 82h-89l58 98h225l20 -98h-88l-16 -82h237l16 82h-56l-106 501h-241zM431 262h-159l116 191z" />
    <glyph glyph-name="B" unicode="B" 
d="M147 583l-16 -82h81l-81 -419h-81l-16 -82h275q28 0 70.5 2.5t85 18.5t77.5 51t47 99q7 34 1.5 58.5t-17 40.5t-24.5 25t-22 14q23 15 37.5 32.5t22.5 33.5t11.5 29t4.5 19q8 37 -1 66.5t-29 50.5q-19 20 -50 31.5t-92 11.5h-284zM413 501q9 0 28 -1t37 -8t30 -22t7 -42
q-6 -31 -22.5 -48t-37 -25t-41.5 -9.5t-36 -1.5h-109l30 157h114zM354 262q18 0 45.5 -2t51.5 -11t39 -28.5t8 -54.5q-6 -29 -21 -45.5t-37.5 -25t-52 -11t-64.5 -2.5h-105l35 180h101z" />
    <glyph glyph-name="C" unicode="C" 
d="M588 178q-19 -15 -44.5 -33.5t-56.5 -35t-66.5 -28t-74.5 -11.5q-49 0 -81 19.5t-48.5 52t-19.5 73.5t5 84q10 52 33 92.5t54 67.5t67 41t72 14q45 0 68.5 -15t33.5 -37.5t10.5 -50t-0.5 -51.5l85 11q2 26 4 54t10 71q6 30 12.5 54t11.5 43h-83l-17 -56q-11 12 -23 23
t-27 20t-35 14.5t-47 5.5q-45 0 -95.5 -20t-96 -58t-80.5 -94.5t-49 -129.5q-13 -65 -5 -122t36 -100t75.5 -67.5t113.5 -24.5q54 0 102 15.5t87.5 36.5t69 43t44.5 35z" />
    <glyph glyph-name="D" unicode="D" 
d="M136 583l-16 -82h77l-81 -419h-77l-16 -82h258q14 0 37.5 1t51.5 6.5t58.5 18t59.5 35.5q19 15 38.5 37.5t37.5 52t32.5 67t23.5 83.5q3 14 5.5 37t2 50t-7.5 57t-24 58t-38 44t-46.5 24t-54 10t-60.5 2h-261zM382 501q53 0 84 -9t50 -47q13 -25 17 -60.5t-6 -84.5
q-12 -63 -37 -107.5t-54 -69.5q-18 -15 -37.5 -23.5t-38 -12.5t-35 -4.5t-28.5 -0.5h-94l81 419h98z" />
    <glyph glyph-name="E" unicode="E" 
d="M158 583l-16 -82h83l-81 -419h-83l-16 -82h508l42 217h-83l-31 -135h-250l36 184h118l-14 -71h83l44 225h-83l-14 -72h-118l29 153h241l-17 -134h83l37 216h-498z" />
    <glyph glyph-name="F" unicode="F" 
d="M175 583l-16 -82h76l-81 -419h-76l-16 -82h290l16 82h-127l36 184h118l-14 -71h83l44 225h-83l-14 -72h-118l29 153h240l-13 -133h81l35 215h-490z" />
    <glyph glyph-name="G" unicode="G" 
d="M565 593l-16 -55q-14 20 -31 32t-34 19t-33 9t-28 2q-54 0 -107.5 -23t-98.5 -64t-78 -98t-46 -126q-11 -57 -4.5 -111.5t33.5 -97.5t75.5 -69.5t122.5 -26.5q35 0 68 5.5t62.5 14t54.5 17.5t43 16l31 159h47l16 82h-278l-16 -82h144l-19 -99q-56 -20 -91.5 -23.5
t-43.5 -3.5q-50 0 -83 17t-52 46.5t-23 69.5t5 87q10 52 32.5 93.5t52.5 70.5t66.5 44.5t75.5 15.5q46 0 69.5 -16t33.5 -39.5t10 -50.5t-1 -48l86 11q0 19 1.5 47.5t10.5 76.5q6 31 12 55t11 43h-80z" />
    <glyph glyph-name="H" unicode="H" 
d="M141 583l-16 -82h73l-81 -419h-73l-16 -82h232l16 82h-72l35 178h224l-35 -178h-72l-16 -82h232l16 82h-73l81 419h73l16 82h-232l-16 -82h72l-31 -159h-224l31 159h72l16 82h-232z" />
    <glyph glyph-name="I" unicode="I" 
d="M201 583l-16 -82h169l-81 -419h-169l-16 -82h425l16 82h-169l81 419h169l16 82h-425z" />
    <glyph glyph-name="J" unicode="J" 
d="M302 583l-16 -82h190l-55 -284q-6 -31 -13 -57.5t-20.5 -46.5t-36 -31.5t-59.5 -11.5q-22 0 -47.5 5t-45.5 18q-23 14 -27 33.5t1 54.5l17 113h-86l-37 -245q67 -41 120 -53t91 -12q7 0 26 1.5t43 8t50 21t49 40.5q29 34 41.5 78t20.5 84l55 284h124l16 82h-401z" />
    <glyph glyph-name="K" unicode="K" 
d="M161 583l-16 -82h82l-81 -419h-82l-16 -82h251l16 82h-82l25 128l60 48q48 -32 76.5 -97t46.5 -161h157l16 82h-96q-10 35 -20.5 69t-25 64t-33.5 56.5t-47 46.5l220 183h55l16 82h-228l-16 -82h60l-220 -180l35 180h82l16 82h-251z" />
    <glyph glyph-name="L" unicode="L" 
d="M161 583l-16 -82h96l-81 -419h-96l-16 -82h504l67 280h-85l-51 -198h-236l81 419h120l16 82h-303z" />
    <glyph glyph-name="M" unicode="M" 
d="M350 289l-42 294h-192l-16 -82h64l-87 -419h-58l-16 -82h247l16 82h-105l74 356h12l39 -284h88l150 284h12l-64 -356h-105l-16 -82h247l16 82h-58l75 419h62l16 82h-192l-149 -294h-18z" />
    <glyph glyph-name="N" unicode="N" 
d="M118 583l-16 -82h78l-81 -419h-78l-16 -82h259l16 82h-101l67 346h18l154 -440h107l99 513h67l16 82h-247l-16 -82h100l-68 -351h-17l-150 433h-191z" />
    <glyph glyph-name="O" unicode="O" 
d="M89 291q-12 -64 -4 -120t35 -97.5t72 -65.5t105 -24q61 0 115 24t97.5 66t73.5 98t42 120q12 63 4 119t-34.5 98t-71.5 66.5t-106 24.5t-115.5 -24.5t-97.5 -66.5t-73 -98.5t-42 -119.5zM181 292q8 43 28 83.5t48.5 71t64.5 49t78 18.5q43 0 72 -19t45.5 -50t20 -71
t-4.5 -82q-9 -44 -28.5 -84.5t-48 -71t-64.5 -48.5t-78 -18q-41 0 -70.5 18t-46 49t-21 71t4.5 84z" />
    <glyph glyph-name="P" unicode="P" 
d="M194 583l-16 -82h77l-81 -419h-77l-16 -82h306l16 82h-142l25 131h35q44 0 74.5 1t54 4t43 9.5t42.5 18.5q19 10 36.5 26t32 35.5t24.5 42t15 44.5q9 50 -8.5 94t-54.5 67q-26 17 -59.5 22.5t-87.5 5.5h-239zM418 501q25 0 41.5 -1t28 -3.5t19 -5.5t14.5 -7
q17 -10 26.5 -33t3.5 -54q-6 -32 -24.5 -53.5t-31.5 -27.5q-10 -5 -20.5 -9t-28 -6.5t-43 -4t-65.5 -1.5h-36l40 206h76z" />
    <glyph glyph-name="Q" unicode="Q" 
d="M514 -3q-20 -14 -42 -24.5t-40 -10.5q-17 0 -41 9t-38 23h-13v2q11 0 33.5 5t50 17t57.5 33t58 53.5t50.5 78.5t34.5 108q14 73 3.5 130t-39.5 97t-73.5 61t-98.5 21q-53 0 -105 -20.5t-96.5 -59.5t-77.5 -95.5t-47 -129.5q-11 -54 -7 -110.5t35 -107.5
q19 -31 39.5 -44.5t41.5 -24.5q-15 -14 -25.5 -22t-19.5 -14.5t-19 -12t-24 -12.5l28 -72q1 1 4 2.5l5 2.5q22 12 38.5 20t30 13t25.5 7t27 2t28 -3t36 -14t41.5 -17.5t44.5 -6.5q38 0 67.5 14.5t57.5 31.5l10 6zM310 73q-33 0 -61.5 13t-47 40t-24.5 69t5 100
q13 66 40.5 108.5t59 67t63.5 34t54 9.5q18 0 46 -7.5t52 -31.5t36 -68t-2 -117q-10 -53 -28.5 -89.5t-41 -61t-46 -37.5t-45 -19.5t-37.5 -8t-23 -1.5z" />
    <glyph glyph-name="R" unicode="R" 
d="M148 583l-16 -82h78l-81 -419h-78l-16 -82h252l16 82h-87l32 167h51q12 0 20.5 -3t16 -11t16 -22.5t19.5 -38.5q0 -1 7 -16.5t16.5 -40t20.5 -55t19 -62.5h154l16 82h-94q-17 43 -29 71.5t-20.5 48t-15 32.5t-13.5 25q51 14 82 38t48 48.5t23 45t7 28.5q8 40 -3 77
t-37 57q-26 21 -58 25.5t-79 4.5h-267zM399 501q27 0 48 -3t34.5 -11.5t19 -24t0.5 -40.5q-7 -36 -28.5 -55t-47 -27t-50 -8.5t-37.5 -0.5h-74l33 170h102z" />
    <glyph glyph-name="S" unicode="S" 
d="M550 593l-19 -56q-5 6 -13.5 16.5t-22.5 21t-35.5 18t-51.5 7.5q-37 0 -76.5 -14t-74 -38.5t-59.5 -58.5t-32 -74q-7 -37 0 -63.5t23.5 -45t39.5 -30t47 -18t47.5 -9.5t40.5 -5q22 -2 43 -6t35.5 -13t21.5 -23.5t3 -37.5q-5 -26 -21 -44t-37.5 -29t-46 -16t-46.5 -5
q-36 0 -59 11t-35 30t-15.5 44t-0.5 53h-80q-2 -24 -8 -69t-15 -91q-5 -25 -8 -38.5t-8 -28.5h81l20 60q7 -10 16 -20t23 -18.5t34.5 -13.5t50.5 -5q44 0 85 14t74 38.5t55.5 57.5t30.5 72q10 49 -6 81t-39 49q-26 20 -58.5 25.5t-81.5 11.5q-16 2 -38 5.5t-41 12
t-30.5 24.5t-6.5 42q3 16 13.5 33t29 31t44.5 23.5t61 9.5q44 0 66.5 -16.5t31.5 -40.5t9 -51q0 -26 -1 -46l81 11q1 2 2 12t1 12q2 18 5.5 49t10.5 63q5 26 10 47.5t10 38.5h-80z" />
    <glyph glyph-name="T" unicode="T" 
d="M163 583l-70 -264l84 -12l50 194h127l-81 -419h-116l-16 -82h321l16 82h-118l81 419h127l-24 -194l88 12l32 264h-501z" />
    <glyph glyph-name="U" unicode="U" 
d="M128 583l-16 -82h69l-49 -255q-3 -16 -6.5 -38t-5 -46.5t1 -49t11.5 -44.5q12 -24 31 -40.5t41.5 -26t46.5 -13.5t45 -4q34 0 61 4t49.5 13.5t43 25.5t42.5 41q18 21 30.5 45.5t20.5 48.5t12.5 46t7.5 38l49 255h69l16 82h-254l-16 -82h98l-49 -255q-6 -32 -14.5 -63.5
t-26 -56.5t-46.5 -40.5t-76 -15.5t-70.5 15.5t-31 40.5t-3.5 56.5t10 63.5l49 255h98l16 82h-254z" />
    <glyph glyph-name="V" unicode="V" 
d="M327 124l-66 377h82l16 82h-246l-16 -82h72l90 -501h86l286 501h66l16 82h-245l-16 -82h90z" />
    <glyph glyph-name="W" unicode="W" 
d="M113 583l-16 -82h48l-37 -501h79l168 307h2l52 -307h79l162 501h47l16 82h-228l-16 -82h97l-95 -305h-2l-48 264h-60l-153 -264h-2l25 305h96l16 82h-230z" />
    <glyph glyph-name="X" unicode="X" 
d="M154 583l-16 -82h61l109 -196l-211 -223h-59l-16 -82h245l16 82h-82l146 155l80 -155h-68l-16 -82h235l16 82h-60l-123 223l186 196h59l16 82h-216l-16 -82h53l-120 -130l-68 130h59l16 82h-226z" />
    <glyph glyph-name="Y" unicode="Y" 
d="M134 583l-16 -82h70l114 -277l-28 -142h-116l-16 -82h316l16 82h-114l28 142l218 277h70l16 82h-227l-16 -82h60l-145 -185l-75 185h58l16 82h-229z" />
    <glyph glyph-name="Z" unicode="Z" 
d="M191 583l-43 -225h87l27 143h221l-397 -431l-14 -70h456l47 240h-87l-31 -158h-253l402 435l13 66h-428z" />
    <glyph glyph-name="bracketleft" unicode="[" 
d="M421 672l-149 -763h208l17 87h-121l114 587h121l18 89h-208z" />
    <glyph glyph-name="backslash" unicode="\" 
d="M290 727l-83 -34l216 -832l85 35z" />
    <glyph glyph-name="bracketright" unicode="]" 
d="M292 -91l149 763h-208l-18 -89h121l-114 -587h-121l-17 -87h208z" />
    <glyph glyph-name="asciicircum" unicode="^" 
d="M567 153l-90 430h-134l-250 -430h107l190 328l70 -328h107z" />
    <glyph glyph-name="underscore" unicode="_" 
d="M-63 -75l-9 -50h696l9 50h-696z" />
    <glyph glyph-name="grave" unicode="`" 
d="M280 638l149 -94h87l-86 98h-149z" />
    <glyph glyph-name="a" unicode="a" 
d="M535 307q15 77 -20.5 122t-131.5 45q-61 0 -115.5 -16.5t-104.5 -35.5l18 -80q15 6 36 14t45 15t50.5 12t52.5 5q37 0 55.5 -9t25 -22.5t5 -29t-4.5 -28.5q-26 3 -52 5.5t-60 2.5q-66 0 -113 -17t-78 -42.5t-47 -54t-20 -51.5q-6 -29 1 -57t25.5 -50t48 -35.5t69.5 -13.5
q30 0 56 6.5t48.5 15.5t40.5 20t32 20l-9 -48h173l16 82h-86zM419 162q-35 -32 -65 -50t-54 -27t-40.5 -11t-23.5 -2q-16 0 -30 5.5t-24 15t-15 22t-2 26.5q1 4 7 18t23 28.5t48.5 26t84.5 11.5q29 0 52.5 -3.5t49.5 -7.5z" />
    <glyph glyph-name="b" unicode="b" 
d="M124 638l-11 -85l78 4l-92 -475h-77l-16 -82h164l9 44q20 -19 40 -29.5t38.5 -16t34.5 -7t27 -1.5q52 0 98.5 20t84 52.5t62.5 74.5t33 86q9 48 -1 91t-36 74.5t-65.5 50t-88.5 18.5q-42 0 -81 -14t-77 -41l48 246zM214 224q6 29 22.5 55.5t40.5 47t53.5 32.5t60.5 12
q30 0 54 -11.5t39.5 -32t21 -47.5t-0.5 -57t-21.5 -56.5t-38 -46.5t-51 -32t-59.5 -12q-32 0 -57 12t-41.5 32.5t-22.5 47t0 56.5z" />
    <glyph glyph-name="c" unicode="c" 
d="M545 467l-20 -55q-32 32 -62.5 43.5t-68.5 11.5q-59 0 -109 -21t-87.5 -55.5t-61.5 -77.5t-33 -87q-10 -51 0 -94.5t36 -76t68 -51t96 -18.5q44 0 86 12t79 29t67 35.5t50 32.5l-34 68l-52.5 -31.5t-57 -29.5t-59 -21.5t-58.5 -8.5q-44 0 -71 14.5t-41.5 37.5t-18 50
t1.5 53q3 16 14 42t33.5 51t59 43t89.5 18q43 0 65.5 -10t32.5 -27t10.5 -39t-0.5 -45l86 11q1 17 3 38t8 50q5 27 12 53.5t13 46.5z" />
    <glyph glyph-name="d" unicode="d" 
d="M393 627l-26 -85l164 12l-29 -149q-28 26 -64.5 39t-73.5 13q-44 0 -88.5 -16.5t-83 -47.5t-66.5 -74t-38 -95q-9 -47 0.5 -89.5t34.5 -74.5t63.5 -51t88.5 -19q10 0 27 1.5t37.5 7t44 15.5t47.5 28l-8 -42h168l16 82h-81l110 566zM464 223q-6 -32 -23 -59t-40.5 -46.5
t-51.5 -30.5t-56 -11q-29 0 -52.5 11t-39 31t-21.5 47t0 60t23 60t40 46t51 29.5t56 10.5q36 0 60 -14t37.5 -35.5t17.5 -48t-1 -50.5z" />
    <glyph glyph-name="e" unicode="e" 
d="M564 144q-23 -12 -50.5 -25t-58.5 -23.5t-63 -17t-63 -6.5q-49 0 -76.5 14t-41 33.5t-16.5 40t-4 34.5h392q2 7 6.5 25.5t8.5 35.5q7 37 -0.5 74.5t-31.5 68t-65 50t-100 19.5q-58 0 -108 -20t-88.5 -53.5t-64.5 -77.5t-35 -92q-9 -47 -1.5 -90t33.5 -76t70 -52.5
t107 -19.5q59 0 129.5 21t145.5 60zM213 276q6 10 18 27.5t32 35t50 30t72 12.5q10 0 30 -2t40.5 -12t36 -31t18.5 -60h-297z" />
    <glyph glyph-name="f" unicode="f" 
d="M170 443l-16 -82h101l-54 -279h-101l-16 -82h394l16 82h-206l54 279h206l16 82h-206l7 34q4 20 7.5 35t12 25t24.5 15t44 5q17 0 52 -3t86 -14l52 86q-22 4 -67 10.5t-95 6.5q-62 0 -99 -15.5t-58.5 -40t-31 -53.5t-14.5 -56l-7 -35h-101z" />
    <glyph glyph-name="g" unicode="g" 
d="M486 453l-8 -43q-28 26 -63 36.5t-64 10.5q-44 0 -88.5 -17t-81.5 -47t-64 -71t-36 -90q-9 -45 0.5 -86t34 -71.5t62 -48.5t85.5 -18q29 0 52.5 5.5t42 13.5t31 16.5t20.5 13.5q-4 -20 -8 -37.5t-12.5 -32.5t-21.5 -27t-35 -19q-9 -3 -20 -5t-30.5 -3.5t-51 -2
t-82.5 -0.5l-16 -82h104q48 0 89.5 8t75 30t57.5 60.5t36 98.5l63 326h79l16 82h-166zM443 231q-5 -27 -20 -51.5t-36.5 -43.5t-48 -30.5t-56.5 -11.5q-28 0 -50.5 11t-37.5 29.5t-21 44t0 54.5q6 30 22.5 55.5t39 44t49.5 28.5t53 10t48 -10t37 -28.5t21 -44.5t0 -57z" />
    <glyph glyph-name="h" unicode="h" 
d="M135 634l-9 -84l91 6l-92 -474h-83l-16 -82h246l16 82h-76l45 231q34 22 59.5 35.5t44.5 20.5t32.5 9.5t23.5 2.5q20 0 32.5 -8.5t19 -22t7.5 -31t-3 -35.5l-39 -202h-84l-16 -82h252l16 82h-81l40 206q7 39 2 72t-22 57t-44.5 37t-64.5 13q-25 0 -47.5 -5.5t-42 -14
t-36.5 -18.5t-30 -18l46 237z" />
    <glyph glyph-name="i" unicode="i" 
d="M203 453l-16 -82h143l-56 -289h-170l-16 -82h424l16 82h-167l72 371h-230zM344 540h106l26 132h-106z" />
    <glyph glyph-name="j" unicode="j" 
d="M160 453l-16 -82h248l-60 -308q-4 -21 -10.5 -43t-20.5 -39.5t-39 -29t-66 -11.5q-37 0 -70 6.5t-62 12.5l-36 -84q30 -7 68 -14t83 -7q50 0 86.5 11.5t62.5 30.5t42.5 42t26 45.5t14.5 43t7 32.5l77 394h-335zM387 540h106l26 132h-106z" />
    <glyph glyph-name="k" unicode="k" 
d="M147 632l-8 -84l91 8l-92 -474h-80l-16 -82h167l36 187l38 25q7 -8 20.5 -24t29 -35.5t30.5 -38.5t24 -32h-37l-16 -82h239l16 82h-91q-50 75 -83 118t-53 63l181 108h66l16 82h-247l-16 -82h45v-2l-141 -78l69 357z" />
    <glyph glyph-name="l" unicode="l" 
d="M215 631l-8 -83l157 10l-92 -476h-168l-16 -82h423l16 82h-168l110 566z" />
    <glyph glyph-name="m" unicode="m" 
d="M88 453l-16 -82h57l-56 -289h-57l-16 -82h213l16 82h-69l50 256q20 17 40.5 30t41.5 13q16 0 23.5 -9.5t9 -24t-1 -31t-5.5 -30.5l-56 -286h146l16 82h-59l48 247q17 17 37.5 34.5t46.5 17.5q16 0 24 -7.5t9.5 -20.5t-1.5 -31t-7 -40l-55 -282h133l16 82h-46l39 200
q4 19 8 50.5t-2.5 61.5t-28 51.5t-68.5 21.5q-38 0 -67 -16.5t-48 -30.5q-2 4 -6.5 12t-13 15.5t-21.5 13.5t-32 6q-18 0 -33.5 -5t-29 -12.5t-24.5 -15.5t-18 -14l6 33h-143z" />
    <glyph glyph-name="n" unicode="n" 
d="M111 453l-16 -82h81l-56 -289h-83l-16 -82h246l16 82h-76l45 231q18 12 37.5 24t40 21.5t41 16t41.5 6.5q37 0 50.5 -28.5t5.5 -69.5l-39 -201h-84l-16 -82h252l16 82h-81l40 205q7 39 2 72t-21.5 57t-44.5 37.5t-65 13.5q-24 0 -46.5 -5.5t-42 -14t-36.5 -18t-31 -18.5
l8 42h-168z" />
    <glyph glyph-name="o" unicode="o" 
d="M86 230q-9 -47 -1 -91t34 -78t70.5 -54.5t107.5 -20.5q65 0 118 21t92 55.5t63.5 78.5t33.5 89q9 47 0.5 91t-34.5 78t-70.5 54.5t-107.5 20.5q-61 0 -113 -19.5t-91.5 -53t-66 -78t-35.5 -93.5zM178 230q6 31 22 59.5t41 50.5t59 35t75 13q42 0 71 -13.5t45.5 -36
t21.5 -51t-1 -57.5t-21.5 -57.5t-40.5 -51t-59.5 -36t-76.5 -13.5q-41 0 -70 13.5t-45.5 35.5t-21.5 50.5t1 58.5z" />
    <glyph glyph-name="p" unicode="p" 
d="M98 453l-16 -82h79l-86 -441h-79l-16 -82h310l16 82h-144l23 118q17 -17 36.5 -28t38.5 -17t36 -8t29 -2q43 0 88 17t84 48.5t67.5 75.5t39.5 98q9 45 0.5 87t-32.5 75t-63.5 53t-92.5 20q-7 0 -23 -1t-37 -5.5t-46.5 -15.5t-52.5 -30l7 38h-166zM217 234q6 30 22.5 56.5
t41 46.5t55 32t63.5 12q36 0 60.5 -13.5t38 -35t16.5 -48t-2 -52.5q-6 -33 -23 -61t-41 -48.5t-52 -32t-57 -11.5q-25 0 -49.5 10t-43 29.5t-27.5 48.5t-2 67z" />
    <glyph glyph-name="q" unicode="q" 
d="M679 453h-166l-7 -38q-19 19 -40.5 30t-41 15.5t-35 5.5t-22.5 1q-53 0 -100.5 -20t-84.5 -53t-61.5 -75t-33.5 -87q-11 -54 1 -98t39 -75.5t65.5 -48.5t81.5 -17q12 0 29.5 2t38.5 8t44.5 17t47.5 28l-23 -118h-144l-16 -82h310l16 82h-79l86 441h79zM474 234
q-7 -38 -27 -67t-46.5 -48.5t-55 -29.5t-53.5 -10q-29 0 -52.5 11.5t-39 32t-21.5 48.5t0 61q5 26 19 52.5t35.5 48t51 35t65.5 13.5q33 0 59 -12t42.5 -32t22.5 -46.5t0 -56.5z" />
    <glyph glyph-name="r" unicode="r" 
d="M159 453l-16 -82h111l-56 -289h-120l-16 -82h392l16 82h-185l36 187q4 3 24.5 21t48 38t58.5 36.5t55 16.5q26 0 38 -14.5t18 -28.5l102 68q-7 8 -16.5 18.5t-24 20t-35 16t-48.5 6.5q-32 0 -60 -8t-52.5 -21t-46 -28.5t-39.5 -30.5l14 74h-198z" />
    <glyph glyph-name="s" unicode="s" 
d="M509 476l-24 -56q-7 6 -17.5 14t-25.5 15.5t-35 12.5t-46 5q-28 0 -62 -8t-64.5 -25t-54 -43t-30.5 -63q-7 -35 6 -64t38 -46q11 -7 23.5 -12.5t29.5 -9t40 -6.5t56 -5q29 -2 51 -4t36.5 -6.5t21 -13t3.5 -23.5q-6 -32 -44.5 -49t-93.5 -17q-36 0 -58.5 8t-35.5 21.5
t-18 32t-5 38.5l-79 -9q1 -16 0.5 -32.5t-5.5 -45.5q-7 -32 -14.5 -54.5t-14.5 -40.5l77 -5l22 52q9 -8 19 -17t25 -16.5t35.5 -12.5t50.5 -5q44 0 83 11.5t69 32t50 47.5t26 59q5 22 -0.5 49t-28.5 47q-12 10 -26.5 16t-34 9.5t-44.5 5.5t-58 4q-20 1 -41.5 3.5t-39 8
t-27 16.5t-5.5 30q4 18 17 29t30 17t35.5 8t33.5 2q6 0 23.5 -1t36 -5.5t34 -15.5t18.5 -30l3 -23q1 -3 1.5 -7t1.5 -6l80 11q-1 15 -1 31q0 17 5 41q5 23 12 45.5t15 41.5z" />
    <glyph glyph-name="t" unicode="t" 
d="M272 583l-27 -140h-66l-16 -82h66l-32 -168q-5 -23 -8.5 -45t-3.5 -43q0 -20 5 -39t17 -35q18 -23 53.5 -34t68.5 -11q30 0 62.5 6.5t63.5 16.5t59 21t49 20l-18 79l-34 -13q-48 -18 -88 -31t-85 -13q-30 0 -44 9t-18 25.5t-0.5 38.5t8.5 48l32 168h228l16 82h-228
l27 140h-87z" />
    <glyph glyph-name="u" unicode="u" 
d="M110 453l-16 -82h78l-37 -192q-11 -56 -5.5 -86t19.5 -53q15 -25 47.5 -39.5t70.5 -14.5q23 0 60 9t80 36l-6 -31h165l16 82h-78l72 371h-169l-16 -82h82l-44 -225q-17 -14 -33 -27t-33.5 -23.5t-37 -17t-42.5 -6.5q-28 0 -42 11.5t-19.5 28t-4 35t4.5 32.5l53 274h-165z
" />
    <glyph glyph-name="v" unicode="v" 
d="M99 453l-16 -82h79l103 -371h71l247 371h78l16 82h-235l-16 -82h65l-164 -249l-66 249h67l16 82h-245z" />
    <glyph glyph-name="w" unicode="w" 
d="M88 453l-16 -82h46l30 -371h76l117 218h2l35 -218h79l173 371h42l16 82h-203l-16 -82h75l-97 -212h-2l-39 212h-61l-119 -212h-2l-14 212h74l16 82h-212z" />
    <glyph glyph-name="x" unicode="x" 
d="M118 453l-16 -82h68l115 -134l-182 -155h-72l-16 -82h231l16 82h-46l117 96l78 -96h-46l-16 -82h236l16 82h-68l-130 155l163 134h66l16 82h-223l-16 -82h45l-98 -75l-64 75h42l16 82h-232z" />
    <glyph glyph-name="y" unicode="y" 
d="M102 453l-16 -82h66l107 -324l-88 -113h-155l-16 -82h330l16 82h-75l336 437h63l16 82h-215l-16 -82h52l-179 -234l-77 234h54l16 82h-219z" />
    <glyph glyph-name="z" unicode="z" 
d="M189 453l-33 -169h87l17 87h187l-342 -299l-14 -72h418l34 174h-87l-18 -92h-200l346 304l13 67h-408z" />
    <glyph glyph-name="braceleft" unicode="{" 
d="M605 668q-14 0 -22 0.5t-15 0.5q-49 0 -83 -14t-56 -35t-34 -46t-16 -47q-2 -9 -2.5 -16.5t-1 -17t0 -22.5t0.5 -34v-7v-16q0 -9 -1 -19.5t-2 -18.5q-3 -14 -12 -22.5t-22 -13t-28 -6.5t-29 -3l-16 -85q11 -1 25 -2.5t25.5 -6t18.5 -12.5t4 -22q-3 -17 -10.5 -36
t-10.5 -27q-8 -21 -13.5 -34t-8.5 -22.5t-5.5 -18t-4.5 -18.5q-8 -43 8.5 -79.5t59.5 -50.5q26 -8 49 -9t54 1l17 84q-24 0 -44 1t-33.5 6t-19.5 16t-2 31q2 13 8.5 28t18.5 46q11 31 18.5 49t9.5 32q3 17 1.5 30.5t-5.5 24t-9.5 18t-9.5 13.5q13 11 31.5 31t25.5 54
q2 13 2 27q0 15 1 20l-1 35q0 19 0.5 31t0.5 19q0 8 0.5 13t1.5 11q4 20 13.5 30.5t24.5 16t35 6.5t46 1z" />
    <glyph glyph-name="bar" unicode="|" 
d="M480 673h-98l-167 -857h98z" />
    <glyph glyph-name="braceright" unicode="}" 
d="M446 331q-12 1 -25.5 3t-25 6.5t-18.5 12t-4 21.5q3 17 10.5 37t10.5 27q9 20 14 33t8.5 22.5t5.5 17.5t4 19q9 46 -9 81.5t-59 48.5q-25 8 -47.5 9t-55.5 0l-17 -86q25 0 45.5 -1t33.5 -6t18.5 -16t1.5 -30q-2 -8 -10 -30t-17 -47q-10 -25 -18 -47t-10 -31
q-3 -17 -1.5 -30.5t6 -24t9.5 -18t9 -12.5q-13 -11 -31.5 -31.5t-25.5 -55.5q-2 -13 -2 -27v-19v-31v-32q0 -15 -1 -27.5t-2 -19.5q-4 -20 -14 -31t-25 -16t-35.5 -6t-44.5 -1l-17 -84q29 -2 53.5 -1t53.5 9q16 5 34.5 15t35.5 26.5t30 39t19 52.5q2 9 3 16.5t1 16.5
q0 10 -0.5 23t-0.5 34q-1 15 -0.5 30.5t3.5 30.5t13 23.5t23 13t27.5 6t27.5 2.5z" />
    <glyph glyph-name="asciitilde" unicode="~" 
d="M544 412q-26 -33 -45 -52.5t-42 -19.5q-11 0 -25 6t-43 20q-24 12 -41 18t-28 9t-18 3.5t-12 0.5q-27 0 -49.5 -10.5t-41.5 -26t-34.5 -34.5t-27.5 -35q-1 -1 -2.5 -3t-2.5 -3l46 -69l10 13q23 32 41.5 49t40.5 17q5 0 14 -2.5t19.5 -6.5t21.5 -9t20 -9q19 -8 32 -14
t23 -9.5t18.5 -5t18.5 -1.5q25 0 47 10t40.5 25t33.5 32.5t28 33.5q0 1 2 3t2 3z" />
    <glyph glyph-name="quotesinglbase" unicode="&#x201a;" 
d="M274 168l-141 -274h108l177 274h-144z" />
    <glyph glyph-name="florin" unicode="&#x192;" 
d="M649 674q-16 3 -32 5t-39 2q-57 0 -110.5 -15t-89.5 -47q-32 -27 -47.5 -60.5t-22.5 -70.5l-8 -39h-104l-15 -78h104l-57 -295q-5 -27 -13.5 -44t-29.5 -26.5t-58.5 -12.5t-100.5 0l-27 -84q14 -2 31 -3t39 -1q37 0 76.5 6t73.5 24t59.5 50t35.5 84l59 302h170l15 78
h-170l7 34q3 16 9 35.5t21 37t43.5 29.5t76.5 12q24 0 40.5 -3t31.5 -6z" />
    <glyph glyph-name="quotedblbase" unicode="&#x201e;" 
d="M171 168l-140 -274h108l176 274h-144zM376 168l-140 -274h108l176 274h-144z" />
    <glyph glyph-name="ellipsis" unicode="&#x2026;" 
d="M198 69q4 21 -0.5 36.5t-14.5 26.5t-24 16.5t-29 5.5t-31.5 -5.5t-31 -16.5t-25 -27t-14.5 -36t0.5 -36t14.5 -27t24.5 -16.5t29.5 -5.5t31 5.5t30.5 16.5t25 26.5t14.5 36.5zM398 69q4 21 -0.5 37t-14.5 26.5t-24 16t-29 5.5t-31.5 -5.5t-30.5 -16.5t-25 -27t-15 -36
t1 -36t15 -27t24 -16.5t29 -5.5t31 5.5t30.5 16t25 26.5t14.5 37zM598 69q4 21 -0.5 36.5t-14.5 26.5t-24 16.5t-29 5.5t-31.5 -5.5t-30.5 -16.5t-25 -26.5t-15 -36.5t1 -36.5t15 -26.5t24 -16.5t29 -5.5t31 5.5t30.5 16.5t25 26.5t14.5 36.5z" />
    <glyph glyph-name="dagger" unicode="&#x2020;" 
d="M367 583l-28 -144h-139l-15 -81h139l-79 -406h92l79 406h139l15 81h-139l28 144h-92z" />
    <glyph glyph-name="daggerdbl" unicode="&#x2021;" 
d="M366 583l-31 -163h-138l-16 -81h138l-17 -88h-138l-16 -81h138l-42 -218h92l42 218h141l16 81h-141l17 88h141l16 81h-141l31 163h-92z" />
    <glyph glyph-name="circumflex" unicode="&#x2c6;" 
d="M382 652l-110 -85l47 -32l90 48l82 -48l58 32l-81 85h-86z" />
    <glyph glyph-name="perthousand" unicode="&#x2030;" 
d="M347 284q-7 0 -25 -5t-35 -19q-16 -14 -27.5 -32.5t-19 -38t-11.5 -36t-6 -25.5q-11 -54 -5 -85.5t18.5 -47t27.5 -19.5t23 -4q10 0 29.5 7t37.5 24q14 14 24 32.5t17 36.5t10.5 33.5t5.5 23.5q10 54 5 84.5t-17.5 46.5t-27.5 20t-24 4zM335 221q10 0 13.5 -11t3.5 -27
q0 -15 -2 -30.5t-4 -24.5t-6 -25t-10 -31t-13.5 -26t-17.5 -11q-11 0 -14 13t-2.5 29.5t2.5 31.5t3 20q0 3 3.5 17.5t9.5 31t14.5 30t19.5 13.5zM216 629q-8 0 -25.5 -5.5t-35.5 -19.5q-16 -13 -27 -32.5t-18.5 -39t-12 -36t-5.5 -23.5q-2 -9 -4 -25.5t-2 -35.5t4 -37.5
t15 -31.5q10 -13 25 -19.5t26 -6.5q10 0 29.5 7t38.5 24q14 13 24 31t16.5 36t10.5 34t6 25q10 51 5 81.5t-17 47t-27.5 21.5t-25.5 5zM204 566q10 0 14 -11t4 -27q0 -15 -2 -30.5t-4 -24.5t-6 -24.5t-10 -31t-14 -26.5t-18 -11t-14 11t-4 26t2.5 31t4.5 25t5.5 24.5t9.5 31
t14 26.5t18 11zM562 284q-8 0 -25.5 -5t-34.5 -19q-16 -14 -27.5 -32.5t-19 -37.5t-12 -36t-6.5 -26q-11 -54 -5.5 -85t18 -46.5t27.5 -20t24 -4.5q11 0 31 7t37 24q14 14 23.5 32t16.5 36t10.5 33.5t5.5 24.5q1 6 3.5 22t3 35.5t-3.5 39t-15 33.5q-12 14 -28 19.5t-23 5.5z
M549 221q10 0 14 -11t4 -27q0 -15 -2 -30.5t-4 -24.5t-6 -24.5t-10 -31t-14 -26.5t-18 -11t-13.5 11.5t-3.5 26.5t2 31t4 25q0 3 3.5 17.5t9.5 31t14.5 30t19.5 13.5zM506 443l-447 -200l20 -48l446 198z" />
    <glyph glyph-name="Scaron" unicode="&#x160;" 
d="M550 593l-19 -56q-5 6 -13.5 16.5t-22.5 21t-35.5 18t-51.5 7.5q-37 0 -76.5 -14t-74 -38.5t-59.5 -58.5t-32 -74q-7 -37 0 -63.5t23.5 -45t39.5 -30t47 -18t47.5 -9.5t40.5 -5q22 -2 43 -6t35.5 -13t21.5 -23.5t3 -37.5q-5 -26 -21 -44t-37.5 -29t-46 -16t-46.5 -5
q-36 0 -59 11t-35 30t-15.5 44t-0.5 53h-80q-2 -24 -8 -69t-15 -91q-5 -25 -8 -38.5t-8 -28.5h81l20 60q7 -10 16 -20t23 -18.5t34.5 -13.5t50.5 -5q44 0 85 14t74 38.5t55.5 57.5t30.5 72q10 49 -6 81t-39 49q-26 20 -58.5 25.5t-81.5 11.5q-16 2 -38 5.5t-41 12
t-30.5 24.5t-6.5 42q3 16 13.5 33t29 31t44.5 23.5t61 9.5q44 0 66.5 -16.5t31.5 -40.5t9 -51q0 -26 -1 -46l81 11q1 2 2 12t1 12q2 18 5.5 49t10.5 63q5 26 10 47.5t10 38.5h-80zM474 665l110 85l-47 32l-90 -48l-82 48l-57 -32l81 -85h85z" />
    <glyph glyph-name="guilsinglleft" unicode="&#x2039;" 
d="M403 18l71 64l-156 159l214 158l-42 64l-302 -222z" />
    <glyph glyph-name="OE" unicode="&#x152;" 
d="M703 583h-343q-61 0 -111.5 -27t-89.5 -69.5t-64.5 -95.5t-35.5 -105q-5 -26 -7.5 -56.5t1.5 -62t16 -62.5t35 -58q15 -18 30.5 -27.5t32.5 -14t36.5 -5t43.5 -0.5h351l42 218h-75l-32 -136h-138l35 182h33l-12 -63h77l41 213h-77l-12 -63h-33l29 150h136l-18 -134h71z
M316 124q-3 -17 -12.5 -27t-20 -15t-21 -6.5t-15.5 -1.5q-33 0 -55 16.5t-34 45t-14 66t6 79.5q9 49 29.5 90.5t46.5 71.5t55.5 46.5t57.5 16.5q19 0 29 -3.5t13.5 -9.5t2.5 -13.5t-2 -15.5z" />
    <glyph glyph-name="Zcaron" unicode="&#x17d;" 
d="M191 583l-43 -225h87l27 143h221l-397 -431l-14 -70h456l47 240h-87l-31 -158h-253l402 435l13 66h-428zM474 665l110 85l-47 32l-90 -48l-82 48l-57 -32l81 -85h85z" />
    <glyph glyph-name="quoteleft" unicode="&#x2018;" 
d="M357 309l139 274h-108l-175 -274h144z" />
    <glyph glyph-name="quoteright" unicode="&#x2019;" 
d="M354 583l-140 -274h108l176 274h-144z" />
    <glyph glyph-name="quotedblleft" unicode="&#x201c;" 
d="M491 309l139 274h-108l-176 -274h145zM285 309l140 274h-108l-176 -274h144z" />
    <glyph glyph-name="quotedblright" unicode="&#x201d;" 
d="M251 583l-139 -274h108l175 274h-144zM456 583l-139 -274h108l175 274h-144z" />
    <glyph glyph-name="bullet" unicode="&#x2022;" 
d="M376 395q47 0 73 -32t17 -79q-5 -23 -17.5 -43.5t-30.5 -35.5t-40.5 -24t-45.5 -9q-47 0 -72.5 32.5t-16.5 79.5q4 23 17 43.5t31 35.5t40 23.5t45 8.5z" />
    <glyph glyph-name="endash" unicode="&#x2013;" 
d="M143 345l-18 -92h448l18 92h-448z" />
    <glyph glyph-name="emdash" unicode="&#x2014;" 
d="M19 345l-18 -92h696l18 92h-696z" />
    <glyph glyph-name="tilde" unicode="&#x2dc;" 
d="M535 660q-14 -23 -26 -39t-29 -16q-8 0 -17 4t-23 17q-15 12 -32 22t-43 10q-28 0 -49 -11t-37 -26.5t-27.5 -34t-20.5 -33.5l65 -23q1 1 2.5 4t3.5 4q8 14 20 30t29 16q3 0 5.5 -0.5t6.5 -2.5t10 -6.5t16 -12.5q24 -20 40.5 -25t31.5 -5q31 0 54 11.5t39.5 28.5t27.5 35
t18 32z" />
    <glyph glyph-name="trademark" unicode="&#x2122;" 
d="M102 259h142l8 39q-26 0 -31.5 2t-3.5 14l44 226q19 0 29 -2t14 -8t3.5 -16.5t-3.5 -26.5h37q2 19 3.5 31t3 22t3 19.5t3.5 23.5h-236q-3 -14 -5 -23.5t-4 -19.5t-5.5 -22t-8.5 -31h37q3 16 6.5 26.5t10 16.5t17.5 8t29 2l-44 -226q-2 -12 -9 -14t-32 -2zM382 546
q22 0 25.5 -2.5t0.5 -18.5l-40 -207q-3 -14 -8.5 -17t-25.5 -3l-8 -39h97l8 39h-16q-11 1 -11.5 5.5t1.5 14.5l31 159h2l29 -218h21l110 218h2l-32 -163q-2 -11 -7.5 -13t-26.5 -3l-8 -39h122l8 39q-20 2 -24 3.5t-2 12.5l42 217q2 11 7 13t25 2l7 37h-95l-101 -191h-2
l-27 191h-97z" />
    <glyph glyph-name="scaron" unicode="&#x161;" 
d="M509 476l-24 -56q-7 6 -17.5 14t-25.5 15.5t-35 12.5t-46 5q-28 0 -62 -8t-64.5 -25t-54 -43t-30.5 -63q-7 -35 6 -64t38 -46q11 -7 23.5 -12.5t29.5 -9t40 -6.5t56 -5q29 -2 51 -4t36.5 -6.5t21 -13t3.5 -23.5q-6 -32 -44.5 -49t-93.5 -17q-36 0 -58.5 8t-35.5 21.5
t-18 32t-5 38.5l-79 -9q1 -16 0.5 -32.5t-5.5 -45.5q-7 -32 -14.5 -54.5t-14.5 -40.5l77 -5l22 52q9 -8 19 -17t25 -16.5t35.5 -12.5t50.5 -5q44 0 83 11.5t69 32t50 47.5t26 59q5 22 -0.5 49t-28.5 47q-12 10 -26.5 16t-34 9.5t-44.5 5.5t-58 4q-20 1 -41.5 3.5t-39 8
t-27 16.5t-5.5 30q4 18 17 29t30 17t35.5 8t33.5 2q6 0 23.5 -1t36 -5.5t34 -15.5t18.5 -30l3 -23q1 -3 1.5 -7t1.5 -6l80 11q-1 15 -1 31q0 17 5 41q5 23 12 45.5t15 41.5zM449 535l110 85l-47 32l-91 -48l-81 48l-57 -32l81 -85h85z" />
    <glyph glyph-name="guilsinglright" unicode="&#x203a;" 
d="M290 463l-70 -64l156 -159l-214 -158l41 -64l303 222z" />
    <glyph glyph-name="oe" unicode="&#x153;" 
d="M609 198q6 17 10 31t8 31q2 13 3.5 34t0 44.5t-8 48t-20 44t-35.5 32t-55 12.5q-24 0 -44 -7t-35.5 -16t-26.5 -18.5t-16 -14.5q-3 5 -9.5 14.5t-19 18.5t-33.5 16t-52 7q-53 0 -92.5 -22.5t-67 -59t-44.5 -81.5t-26 -90q-7 -38 -7.5 -67.5t2.5 -52t8.5 -37.5t9.5 -22
q4 -8 11 -17.5t20 -18.5t32.5 -15t49.5 -6q31 0 55 7t41 16.5t28 20t17 17.5l11 -16.5t20.5 -20.5t34 -17t51.5 -7q46 0 83.5 10t61.5 19l11 4l-15 81q-5 -2 -6 -2.5t-3 -0.5q-4 -2 -15 -5.5t-13 -4.5q-4 -2 -14 -4.5t-22.5 -4.5t-25.5 -4t-23 -2q-40 0 -54 34.5t-7 91.5
h221zM391 280q9 34 22.5 55.5t28.5 33.5t29 16t25 4t21.5 -5t17.5 -18t9 -34t-4 -52h-149zM137 227q15 78 45 120t78 42t59 -36t-6 -123q-6 -29 -14.5 -57.5t-22 -51t-33 -36t-47.5 -13.5q-25 0 -40 12t-21 33t-5 49t7 61z" />
    <glyph glyph-name="zcaron" unicode="&#x17e;" 
d="M189 453l-33 -169h87l17 87h187l-342 -299l-14 -72h418l34 174h-87l-18 -92h-200l346 304l13 67h-408zM449 535l110 85l-47 32l-91 -48l-81 48l-57 -32l81 -85h85z" />
    <glyph glyph-name="Ydieresis" unicode="&#x178;" 
d="M134 583l-16 -82h70l114 -277l-28 -142h-116l-16 -82h316l16 82h-114l28 142l218 277h70l16 82h-227l-16 -82h60l-145 -185l-75 185h58l16 82h-229zM307 663h96l22 115h-96zM455 663h96l22 115h-96z" />
    <glyph glyph-name="exclamdown" unicode="&#xa1;" 
d="M335 -132l59 403h-82l-98 -403h121zM362 317q19 0 36.5 6.5t31 17.5t22.5 25t12 30q6 32 -14 55t-58 23q-39 0 -67.5 -24t-34.5 -54t13 -54.5t59 -24.5z" />
    <glyph glyph-name="cent" unicode="&#xa2;" 
d="M423 411q21 0 32.5 -8t16 -22t4 -34.5t-1.5 -46.5l77 11q3 20 5.5 37t5.5 32q5 24 13 51.5t19 69.5l-71 6l-19 -54q-12 20 -25 31t-39 17l25 129h-71l-26 -135q-30 -6 -62.5 -22t-61.5 -41.5t-51 -61t-31 -80.5q-6 -33 -2.5 -66t19 -61t42.5 -48t68 -28l-28 -142h71
l28 142q67 11 114 34.5t78 43.5l-28 72q-3 -2 -11 -6t-17 -9.5t-17 -10t-11 -5.5q-19 -9 -32 -15t-23 -9t-18.5 -5t-17.5 -3zM306 174q-26 7 -39.5 22.5t-19 33.5t-5 35.5t2.5 26.5q1 9 7 24.5t18 33t32 34t50 25.5z" />
    <glyph glyph-name="sterling" unicode="&#xa3;" 
d="M154 367l-16 -84h107v-24t-4 -31q-7 -36 -23.5 -66.5t-35 -53.5t-36.5 -39t-28 -25l39 -69q38 20 67.5 32.5t55.5 12.5q14 0 25 -3.5t35 -13.5q23 -9 39.5 -12t30.5 -3q24 0 44 6t37.5 15t32 19.5t26.5 20.5q2 1 4 3t4 3l-40 65l-9 -7q-32 -22 -49 -31.5t-36 -9.5
q-8 0 -17.5 2.5t-27.5 10.5q-26 11 -42 15t-34 4q-11 0 -20.5 -2t-15.5 -4q23 31 37.5 65.5t21.5 69.5q4 19 4.5 29.5t1.5 20.5h218l16 84h-241q-5 33 -6.5 50.5t2.5 35.5q3 17 13.5 33.5t26.5 29.5t37.5 21t46.5 8q7 0 22 -1.5t30 -5.5t25 -10t9 -15l-3 -12l-4 -16t-4 -15
t-3 -8l77 -9q7 24 13.5 44t13.5 38t15 36.5t19 41.5l-81 4l-7 -14q-41 20 -68.5 24t-40.5 4q-34 0 -70 -12.5t-67.5 -36t-55 -56.5t-31.5 -74q-5 -26 -4 -46t3 -39h-79z" />
    <glyph glyph-name="currency" unicode="&#xa4;" 
d="M500 193q33 35 48 94q7 26 5.5 54.5t-13.5 53.5l97 80l-50 60l-96 -79l-19 11q-19 11 -40.5 14.5t-44.5 3.5q-29 0 -51 -8t-26 -10l-24 -11l-66 79l-74 -60l68 -81l-18 -23q-14 -20 -21 -41t-11 -43q-5 -27 -2.5 -46t4.5 -24l9 -24l-99 -81l50 -60l97 80
q18 -11 38.5 -20.5t58.5 -9.5q37 0 61.5 9.5t46.5 20.5l65 -80l74 60zM464 294q-4 -21 -15.5 -40.5t-28.5 -34t-38.5 -23.5t-45.5 -9q-25 0 -43 9t-29 23.5t-14.5 34t0.5 40.5q4 18 14 37t26.5 34.5t38.5 25t49 9.5q25 0 43.5 -9t29 -24t14 -34t-0.5 -39z" />
    <glyph glyph-name="yen" unicode="&#xa5;" 
d="M372 138h140l12 64h-140l10 48h140l12 64h-134l201 216h68l16 82h-227l-16 -82h64l-141 -159l-77 159h54l16 82h-229l-16 -82h69l122 -216h-137l-12 -64h142l-10 -48h-142l-12 -64h142l-11 -56h-115l-16 -82h316l16 82h-116z" />
    <glyph glyph-name="brokenbar" unicode="&#xa6;" 
d="M480 673h-98l-73 -375h98zM386 191h-98l-73 -375h98z" />
    <glyph glyph-name="section" unicode="&#xa7;" 
d="M595 583h-183q-14 0 -38.5 -1.5t-51 -12t-48.5 -32.5t-30 -62q-5 -30 -0.5 -45.5t12.5 -29.5q-5 0 -8 -0.5t-8 -5.5q-22 -19 -34.5 -30.5t-19.5 -21t-10.5 -19t-6.5 -24.5q-4 -20 -2 -36t9.5 -29.5t19.5 -26.5t29 -28l109 -101q20 -19 26.5 -31t3.5 -25
q-3 -17 -15.5 -19.5t-40.5 -2.5h-108l17 89h-83l-35 -180h191q15 0 39.5 1.5t49.5 11.5t45.5 32t28.5 62q4 17 3 23.5t-3 15.5q-5 16 -6.5 21t0.5 13q7 0 15.5 1.5t19.5 12.5q17 16 27.5 26.5t16 19t8.5 17t5 21.5q8 40 -9 67.5t-53 60.5l-114 104q-21 20 -26 31t-3 21
q3 18 15.5 21t41.5 3h102l-16 -83h85zM409 249q6 -5 13.5 -12.5t14.5 -15.5t11 -16t3 -14q-2 -11 -9 -17.5t-16 -11t-17.5 -6.5t-12.5 -3l-106 96q-14 12 -21 19.5t-10 12.5t-3 8q0 4 1 8q4 19 22.5 30.5t28.5 13.5z" />
    <glyph glyph-name="dieresis" unicode="&#xa8;" 
d="M282 533h96l22 115h-96zM430 533h96l22 115h-96z" />
    <glyph glyph-name="copyright" unicode="&#xa9;" 
d="M520 449q-20 8 -49 16.5t-67 8.5q-44 0 -79.5 -14t-62 -37.5t-44 -54.5t-23.5 -65q-7 -35 -2 -66t21.5 -54t44 -37t66.5 -14q7 0 25.5 1.5t42.5 10t49.5 27t45.5 52.5l-35 15q-4 -6 -11.5 -15t-18.5 -18t-27 -15.5t-36 -6.5q-39 0 -61.5 33.5t-10.5 97.5q11 57 42.5 85.5
t69.5 28.5q19 0 31 -8t17.5 -19.5t6.5 -25.5t0 -26h46zM303 13q60 0 117.5 23t105 62.5t81 93t45.5 114.5q12 60 -0.5 113.5t-44.5 93.5t-81 63t-110 23t-118.5 -23t-105 -63t-81 -93.5t-45.5 -113.5q-12 -62 1.5 -115t45.5 -93t81 -62.5t109 -22.5zM314 71q-48 0 -87 18.5
t-65 50t-36.5 74.5t-1.5 92q10 49 37 91.5t65 74.5t84.5 50.5t94.5 18.5t87.5 -18.5t65 -50.5t36 -74.5t0.5 -91.5q-9 -49 -36 -92t-65.5 -74.5t-84.5 -50t-94 -18.5z" />
    <glyph glyph-name="ordfeminine" unicode="&#xaa;" 
d="M301 520q35 14 56.5 20t40.5 6q25 0 33.5 -8t5.5 -27q-17 2 -28 2.5t-25 0.5q-54 0 -92 -24.5t-46 -64.5q-4 -18 0.5 -33.5t15 -27t26.5 -18t36 -6.5q40 0 85 26l-4 -19h98l11 53h-44l21 109q17 91 -81 91q-13 0 -25 -1.5t-25.5 -4.5t-30.5 -8.5t-39 -14.5zM423 437
q-27 -23 -47.5 -33t-40.5 -10q-15 0 -25.5 9t-8.5 21q4 17 25 27t53 10q11 0 21 -1t27 -3zM228 305l-10 -54h262l10 54h-262z" />
    <glyph glyph-name="guillemotleft" unicode="&#xab;" 
d="M304 18l71 64l-156 159l214 158l-42 64l-301 -222zM501 18l71 64l-156 159l214 158l-42 64l-301 -222z" />
    <glyph glyph-name="logicalnot" unicode="&#xac;" 
d="M167 462l-17 -88h366l-41 -211h88l58 299h-454z" />
    <glyph glyph-name="hyphen" unicode="&#xad;" 
d="M260 337h212l-15 -75h-212z" />
    <glyph glyph-name="registered" unicode="&#xae;" 
d="M244 432h16q13 0 15.5 -2.5t0.5 -14.5l-42 -212q-2 -12 -8.5 -14t-29.5 -2l-6 -34h142l6 34h-16t-10 1q-5 1 -5 4t2 16l16 79q16 0 20 -0.5t8 -3.5q5 -4 9 -15t11 -45q5 -23 10 -37t12 -21.5t17 -9.5t25 -2h46l6 34q-13 0 -16.5 0.5t-5.5 4.5q-5 5 -9.5 20t-8.5 30
q-5 17 -9 27.5t-7.5 17t-7 10.5t-7.5 7q24 9 39 21.5t23 25t10.5 22t3.5 12.5q6 31 -5 48t-29 24.5t-37.5 9t-29.5 1.5h-142zM349 414q2 10 4.5 13.5t13.5 3.5q8 0 18.5 -1t19.5 -5.5t13.5 -15.5t0.5 -30q-4 -20 -13 -31t-21 -16t-25.5 -6.5t-27.5 -1.5zM303 13
q60 0 117.5 23t105 62.5t81 93t45.5 114.5q12 60 -0.5 113.5t-44.5 93.5t-81 63t-110 23t-118.5 -23t-105 -63t-81 -93.5t-45.5 -113.5q-12 -62 1.5 -115t45.5 -93t81 -62.5t109 -22.5zM314 71q-48 0 -87 18.5t-65 50t-36.5 74.5t-1.5 92q10 49 37 91.5t65 74.5t84.5 50.5
t94.5 18.5t87.5 -18.5t65 -50.5t36 -74.5t0.5 -91.5q-9 -49 -36 -92t-65.5 -74.5t-84.5 -50t-94 -18.5z" />
    <glyph glyph-name="macron" unicode="&#xaf;" 
d="M252 635l-16 -85h342l16 85h-342z" />
    <glyph glyph-name="degree" unicode="&#xb0;" 
d="M238 483q-6 -33 0.5 -61.5t23.5 -50t43 -33.5t58 -12q33 0 63.5 12.5t56 33.5t43.5 49.5t24 61.5q6 32 -0.5 60.5t-24 49.5t-43.5 33.5t-58 12.5t-63 -12t-56 -33t-43 -49.5t-24 -61.5zM318 483q3 15 11.5 29t21 24.5t27.5 16.5t31 6q32 0 49.5 -22.5t11.5 -53.5
q-3 -16 -11.5 -30t-21 -24.5t-27.5 -16.5t-31 -6q-32 0 -49.5 22.5t-11.5 54.5z" />
    <glyph glyph-name="plusminus" unicode="&#xb1;" 
d="M373 601l-37 -188h-202l-17 -88h202l-36 -188h88l36 188h202l17 88h-202l37 188h-88zM76 111l-18 -88h492l18 88h-492z" />
    <glyph glyph-name="twosuperior" unicode="&#xb2;" 
d="M429 361l-11 -57h-109l62 48q40 31 67 52.5t38 34.5q33 37 40 77q5 25 -0.5 47.5t-19 39.5t-35 26.5t-47.5 9.5q-69 0 -133 -62l-11 -58h62v18q4 17 24.5 30t45.5 13q27 0 42.5 -18.5t10.5 -44.5q-2 -13 -6 -23t-14 -21t-27 -26t-46 -37q-12 -9 -28.5 -22t-35 -27.5
t-36.5 -28t-32 -23.5l-14 -10l-10 -53h257l22 115h-56z" />
    <glyph glyph-name="threesuperior" unicode="&#xb3;" 
d="M295 541l27 15q26 14 41 19t31 5q23 0 35.5 -13.5t7.5 -34.5q-4 -27 -29 -42q-11 -8 -23.5 -10t-43.5 -2l-11 -58l32 1q35 1 51 -15.5t10 -45.5q-5 -29 -28.5 -47t-55.5 -18q-21 0 -42.5 7t-55.5 25l-34 -53l25 -12q32 -16 51.5 -20t42.5 -4q29 0 55 9t47 25.5t35.5 39
t19.5 49.5q6 29 -2.5 53.5t-29.5 41.5q22 20 32 37t15 41q4 22 -1 41t-18 33.5t-32 22.5t-43 8q-14 0 -26.5 -2t-27 -7.5t-32.5 -15t-43 -24.5z" />
    <glyph glyph-name="acute" unicode="&#xb4;" 
d="M588 638l1 4h-149l-124 -98h87z" />
    <glyph glyph-name="mu" unicode="&#xb5;" 
d="M112 457l-15 -76h82l-102 -524h87l32 165q17 -14 37 -21.5t37 -11t29 -4t14 -0.5q30 0 53 15q14 9 25.5 15.5t20.5 6.5l-4 -22h170l15 76h-83l74 381h-169l-15 -76h82l-34 -173q-7 -37 -16 -57.5t-26 -38.5t-45 -29t-51 -11t-44 11t-33 31q-5 8 -7 16t-2 18q0 11 2 25
t6 35l49 249h-169z" />
    <glyph glyph-name="paragraph" unicode="&#xb6;" 
d="M579 534h53l9 49h-236q-40 0 -82 -3.5t-77 -22.5q-37 -21 -60 -56.5t-31 -73.5q-3 -15 -3.5 -34.5t4 -38.5t15 -36t29.5 -28q17 -10 34 -15t33 -6.5t30 -1.5t25 1l-58 -297h-65l-9 -50h143l119 613h50l-119 -613h130l9 50h-53zM331 313q-7 1 -15.5 3t-15 9t-9 21t2.5 39
l15 78q1 7 4.5 19t10.5 23.5t19 20t31 8.5z" />
    <glyph glyph-name="periodcentered" unicode="&#xb7;" 
d="M377 398q-17 0 -35 -6t-33.5 -17t-26.5 -26.5t-15 -35.5t1 -36t16.5 -27t27 -16.5t32.5 -5.5t35 6t34 17t27 26.5t15 35.5t-2 36t-17.5 27t-27 16.5t-31.5 5.5z" />
    <glyph glyph-name="cedilla" unicode="&#xb8;" 
d="M378 6h-73l-26 -84l13 -2q6 -1 16.5 -2t20 -3.5t15 -5t1.5 -6.5q-1 -1 -6 -2.5t-13 -1.5q-13 0 -30.5 2.5t-33.5 5.5t-28.5 6t-15.5 4l-25 -69q1 0 4 -1t5 -1q11 -3 44.5 -10t72.5 -7q33 0 54 9t33 21.5t17.5 25t6.5 19.5q4 21 -3 36t-17.5 24t-22 13.5t-16.5 4.5z" />
    <glyph glyph-name="onesuperior" unicode="&#xb9;" 
d="M279 580l12 -53l95 39l-51 -263h-102l-11 -57h261l11 57h-101l65 336h-36z" />
    <glyph glyph-name="ordmasculine" unicode="&#xba;" 
d="M253 470q-5 -29 0.5 -52.5t20.5 -41t38.5 -27t53.5 -9.5t57 9.5t49 27t37 41t20 52.5q11 57 -20.5 93.5t-91.5 36.5q-30 0 -57.5 -9.5t-49.5 -27t-36.5 -41.5t-20.5 -52zM311 470q7 34 33.5 55t61.5 21q36 0 54 -21t11 -55q-6 -34 -32.5 -55t-61.5 -21t-53.5 21t-12.5 55
zM228 306l-10 -55h262l10 55h-262z" />
    <glyph glyph-name="guillemotright" unicode="&#xbb;" 
d="M192 463l-70 -64l156 -159l-214 -158l41 -64l302 222zM389 463l-70 -64l156 -159l-214 -158l41 -64l302 222z" />
    <glyph glyph-name="onequarter" unicode="&#xbc;" 
d="M605 304h-62l-198 -248l-10 -52h155l-6 -28h-78l-10 -55h187l10 55h-52l6 28h52l11 57h-52zM501 61h-87l116 160h2zM117 595l14 -52l67 28l-50 -255h-75l-11 -57h199l11 57h-66l64 327h-36zM684 657l-659 -715l39 -36l661 718z" />
    <glyph glyph-name="onehalf" unicode="&#xbd;" 
d="M117 595l14 -52l67 28l-50 -255h-75l-11 -57h199l11 57h-66l64 327h-36zM664 657l-659 -715l39 -36l661 718zM548 34l-11 -56h-107l60 46q40 30 66 51t42 39t24 34t12 36q5 25 -0.5 47t-19.5 38t-35 25.5t-47 9.5q-69 0 -132 -60l-11 -58h61l1 10l1 11q3 15 24 27t44 12
q27 0 42.5 -17.5t10.5 -43.5q-2 -12 -6 -21.5t-14 -20.5t-27 -25.5t-46 -36.5q-12 -9 -29 -22.5t-35.5 -27t-35.5 -26.5t-29 -22l-14 -10l-10 -52h255l22 113h-56z" />
    <glyph glyph-name="threequarters" unicode="&#xbe;" 
d="M618 304h-62l-198 -248l-10 -52h155l-6 -28h-78l-10 -55h188l10 55h-53l6 28h53l11 57h-53zM514 61h-86l115 160h2zM145 547l26 14q25 14 40 19t30 5q24 0 36.5 -13t8.5 -33q-6 -27 -29 -41q-5 -4 -10 -6t-11 -3.5t-15 -2t-23 -0.5h-9l-11 -57h10l24 1q35 0 50.5 -15
t9.5 -44q-5 -28 -28 -45.5t-55 -17.5q-21 0 -42 6.5t-55 24.5l-33 -53l24 -11q32 -14 51.5 -19t42.5 -5q28 0 54 9t46.5 25t34.5 38t19 48q12 59 -32 93q38 32 47 76q8 44 -18.5 73.5t-75.5 29.5q-13 0 -25.5 -2t-27 -7.5t-32.5 -15t-42 -23.5zM701 657l-659 -715l39 -36
l660 718z" />
    <glyph glyph-name="questiondown" unicode="&#xbf;" 
d="M495 39h-87l-14 -68l-21 -7q-7 -2 -18 -4t-22.5 -3.5t-22.5 -2t-18 -0.5q-19 0 -37 5.5t-31 17t-19 28t-2 38.5q6 28 22.5 46t39 29.5t48 18.5t49.5 13q6 1 14 2.5t14 3.5q2 0 5 1t4 1l23 122h-86l-10 -56q-23 -6 -55.5 -17t-64 -31t-57 -51.5t-34.5 -79.5q-7 -35 0 -67
t28.5 -57t57 -39.5t85.5 -14.5q36 0 69 6t83 23q16 5 20.5 6.5l10.5 3.5zM389 317q38 0 66.5 23.5t34.5 55.5t-14 55.5t-57 23.5q-36 0 -65.5 -23t-36.5 -56t14.5 -56t57.5 -23z" />
    <glyph glyph-name="Agrave" unicode="&#xc0;" 
d="M213 583l-16 -82h129l-252 -419h-58l-16 -82h237l16 82h-89l58 98h225l20 -98h-88l-16 -82h237l16 82h-56l-106 501h-241zM431 262h-159l116 191zM305 768l149 -94h87l-86 98h-149z" />
    <glyph glyph-name="Aacute" unicode="&#xc1;" 
d="M213 583l-16 -82h129l-252 -419h-58l-16 -82h237l16 82h-89l58 98h225l20 -98h-88l-16 -82h237l16 82h-56l-106 501h-241zM431 262h-159l116 191zM613 768l1 4h-149l-124 -98h87z" />
    <glyph glyph-name="Acircumflex" unicode="&#xc2;" 
d="M213 583l-16 -82h129l-252 -419h-58l-16 -82h237l16 82h-89l58 98h225l20 -98h-88l-16 -82h237l16 82h-56l-106 501h-241zM431 262h-159l116 191zM407 782l-110 -85l47 -32l91 48l81 -48l58 32l-81 85h-86z" />
    <glyph glyph-name="Atilde" unicode="&#xc3;" 
d="M213 583l-16 -82h129l-252 -419h-58l-16 -82h237l16 82h-89l58 98h225l20 -98h-88l-16 -82h237l16 82h-56l-106 501h-241zM431 262h-159l116 191zM561 790q-14 -23 -26.5 -39t-29.5 -16q-8 0 -17 4t-23 17q-15 12 -32 22t-43 10q-28 0 -49 -11t-36.5 -26.5t-27 -34
t-20.5 -33.5l64 -23q1 1 3 4t3 4q8 14 20 30t29 16q6 0 12.5 -3t26.5 -19q23 -20 40 -25t32 -5q31 0 54 11.5t39 28.5t27 35t18 32z" />
    <glyph glyph-name="Adieresis" unicode="&#xc4;" 
d="M213 583l-16 -82h129l-252 -419h-58l-16 -82h237l16 82h-89l58 98h225l20 -98h-88l-16 -82h237l16 82h-56l-106 501h-241zM431 262h-159l116 191zM307 663h96l22 115h-96zM455 663h96l22 115h-96z" />
    <glyph glyph-name="Aring" unicode="&#xc5;" 
d="M213 583l-16 -82h129l-252 -419h-58l-16 -82h237l16 82h-89l58 98h225l20 -98h-88l-16 -82h237l16 82h-56l-106 501h-241zM431 262h-159l116 191zM532 734q7 37 -14 63t-58 26q-18 0 -35.5 -7t-32 -19t-24.5 -28.5t-13 -34.5q-4 -18 0 -34t13.5 -28t24.5 -19t33 -7
t35.5 7t32 19t24.5 28t14 34zM475 734q-3 -13 -14 -22.5t-25 -9.5q-13 0 -20.5 9.5t-4.5 22.5q2 14 13.5 23t24.5 9q14 0 21 -9t5 -23z" />
    <glyph glyph-name="AE" unicode="&#xc6;" 
d="M237 583l-16 -82h89l-235 -419h-57l-16 -82h211l16 82h-77l54 97h107l-35 -179h317l42 218h-71l-34 -136h-152l34 174h42l-13 -66h77l43 224h-77l-15 -81h-42l32 168h152l-18 -134h71l42 216h-471zM328 256h-86l128 230h2z" />
    <glyph glyph-name="Ccedilla" unicode="&#xc7;" 
d="M367 -14q44 7 80.5 19t68 28.5t60 37t57.5 43.5l-45 64q-20 -15 -45.5 -33.5t-56.5 -34.5t-66 -27t-74 -11q-49 0 -81 19.5t-48.5 51t-19.5 72.5t5 84q10 52 33 92.5t54 67.5t67 41t72 14q45 0 68.5 -15t33.5 -37.5t10.5 -50t-0.5 -51.5l85 11q2 26 4 54t10 71
q6 30 12.5 54t11.5 43h-83l-17 -56q-11 12 -23 23t-27 20t-35 14.5t-47 5.5q-45 0 -95.5 -20t-96 -58t-80.5 -94.5t-49 -129.5q-13 -66 -5 -121.5t33 -96t65 -65t91 -29.5l-19 -64q3 0 9 -1t13 -2t13 -2t8 -1q11 -2 19 -5.5t6 -11.5t-8 -10t-12 -2q-14 0 -31 2.5t-33 5.5
t-28.5 6t-18.5 4l-25 -69q25 -7 57 -13t68 -6q53 0 80 24t33 57q4 22 -0.5 37t-14 24.5t-21.5 14.5t-22 8v4z" />
    <glyph glyph-name="Egrave" unicode="&#xc8;" 
d="M158 583l-16 -82h83l-81 -419h-83l-16 -82h508l42 217h-83l-31 -135h-250l36 184h118l-14 -71h83l44 225h-83l-14 -72h-118l29 153h241l-17 -134h83l37 216h-498zM305 768l149 -94h87l-86 98h-149z" />
    <glyph glyph-name="Eacute" unicode="&#xc9;" 
d="M158 583l-16 -82h83l-81 -419h-83l-16 -82h508l42 217h-83l-31 -135h-250l36 184h118l-14 -71h83l44 225h-83l-14 -72h-118l29 153h241l-17 -134h83l37 216h-498zM613 768l1 4h-149l-124 -98h87z" />
    <glyph glyph-name="Ecircumflex" unicode="&#xca;" 
d="M158 583l-16 -82h83l-81 -419h-83l-16 -82h508l42 217h-83l-31 -135h-250l36 184h118l-14 -71h83l44 225h-83l-14 -72h-118l29 153h241l-17 -134h83l37 216h-498zM407 782l-110 -85l47 -32l91 48l81 -48l58 32l-81 85h-86z" />
    <glyph glyph-name="Edieresis" unicode="&#xcb;" 
d="M158 583l-16 -82h83l-81 -419h-83l-16 -82h508l42 217h-83l-31 -135h-250l36 184h118l-14 -71h83l44 225h-83l-14 -72h-118l29 153h241l-17 -134h83l37 216h-498zM307 663h96l22 115h-96zM455 663h96l22 115h-96z" />
    <glyph glyph-name="Igrave" unicode="&#xcc;" 
d="M201 583l-16 -82h169l-81 -419h-169l-16 -82h425l16 82h-169l81 419h169l16 82h-425zM305 768l149 -94h87l-86 98h-149z" />
    <glyph glyph-name="Iacute" unicode="&#xcd;" 
d="M201 583l-16 -82h169l-81 -419h-169l-16 -82h425l16 82h-169l81 419h169l16 82h-425zM613 768l1 4h-149l-124 -98h87z" />
    <glyph glyph-name="Icircumflex" unicode="&#xce;" 
d="M201 583l-16 -82h169l-81 -419h-169l-16 -82h425l16 82h-169l81 419h169l16 82h-425zM407 782l-110 -85l47 -32l91 48l81 -48l58 32l-81 85h-86z" />
    <glyph glyph-name="Idieresis" unicode="&#xcf;" 
d="M201 583l-16 -82h169l-81 -419h-169l-16 -82h425l16 82h-169l81 419h169l16 82h-425zM307 663h96l22 115h-96zM455 663h96l22 115h-96z" />
    <glyph glyph-name="Eth" unicode="&#xd0;" 
d="M136 583l-16 -82h77l-30 -158h-77l-17 -84h77l-34 -177h-77l-16 -82h258q14 0 37.5 1t51.5 6.5t58.5 18t59.5 35.5q19 15 38.5 37.5t37.5 52t32.5 67t23.5 83.5q3 14 5.5 37t2 50t-7.5 57t-24 58t-38 44t-46.5 24t-54 10t-60.5 2h-261zM382 501q53 0 84 -9t50 -47
q13 -25 17 -60.5t-6 -84.5q-12 -63 -37 -107.5t-54 -69.5q-18 -15 -37.5 -23.5t-38 -12.5t-35 -4.5t-28.5 -0.5h-94l34 177h146l17 84h-146l30 158h98z" />
    <glyph glyph-name="Ntilde" unicode="&#xd1;" 
d="M118 583l-16 -82h78l-81 -419h-78l-16 -82h259l16 82h-101l67 346h18l154 -440h107l99 513h67l16 82h-247l-16 -82h100l-68 -351h-17l-150 433h-191zM561 790q-14 -23 -26.5 -39t-29.5 -16q-8 0 -17 4t-23 17q-15 12 -32 22t-43 10q-28 0 -49 -11t-36.5 -26.5t-27 -34
t-20.5 -33.5l64 -23q1 1 3 4t3 4q8 14 20 30t29 16q6 0 12.5 -3t26.5 -19q23 -20 40 -25t32 -5q31 0 54 11.5t39 28.5t27 35t18 32z" />
    <glyph glyph-name="Ograve" unicode="&#xd2;" 
d="M89 291q-12 -64 -4 -120t35 -97.5t72 -65.5t105 -24q61 0 115 24t97.5 66t73.5 98t42 120q12 63 4 119t-34.5 98t-71.5 66.5t-106 24.5t-115.5 -24.5t-97.5 -66.5t-73 -98.5t-42 -119.5zM181 292q8 43 28 83.5t48.5 71t64.5 49t78 18.5q43 0 72 -19t45.5 -50t20 -71
t-4.5 -82q-9 -44 -28.5 -84.5t-48 -71t-64.5 -48.5t-78 -18q-41 0 -70.5 18t-46 49t-21 71t4.5 84zM305 768l149 -94h87l-86 98h-149z" />
    <glyph glyph-name="Oacute" unicode="&#xd3;" 
d="M89 291q-12 -64 -4 -120t35 -97.5t72 -65.5t105 -24q61 0 115 24t97.5 66t73.5 98t42 120q12 63 4 119t-34.5 98t-71.5 66.5t-106 24.5t-115.5 -24.5t-97.5 -66.5t-73 -98.5t-42 -119.5zM181 292q8 43 28 83.5t48.5 71t64.5 49t78 18.5q43 0 72 -19t45.5 -50t20 -71
t-4.5 -82q-9 -44 -28.5 -84.5t-48 -71t-64.5 -48.5t-78 -18q-41 0 -70.5 18t-46 49t-21 71t4.5 84zM613 768l1 4h-149l-124 -98h87z" />
    <glyph glyph-name="Ocircumflex" unicode="&#xd4;" 
d="M89 291q-12 -64 -4 -120t35 -97.5t72 -65.5t105 -24q61 0 115 24t97.5 66t73.5 98t42 120q12 63 4 119t-34.5 98t-71.5 66.5t-106 24.5t-115.5 -24.5t-97.5 -66.5t-73 -98.5t-42 -119.5zM181 292q8 43 28 83.5t48.5 71t64.5 49t78 18.5q43 0 72 -19t45.5 -50t20 -71
t-4.5 -82q-9 -44 -28.5 -84.5t-48 -71t-64.5 -48.5t-78 -18q-41 0 -70.5 18t-46 49t-21 71t4.5 84zM407 782l-110 -85l47 -32l91 48l81 -48l58 32l-81 85h-86z" />
    <glyph glyph-name="Otilde" unicode="&#xd5;" 
d="M89 291q-12 -64 -4 -120t35 -97.5t72 -65.5t105 -24q61 0 115 24t97.5 66t73.5 98t42 120q12 63 4 119t-34.5 98t-71.5 66.5t-106 24.5t-115.5 -24.5t-97.5 -66.5t-73 -98.5t-42 -119.5zM181 292q8 43 28 83.5t48.5 71t64.5 49t78 18.5q43 0 72 -19t45.5 -50t20 -71
t-4.5 -82q-9 -44 -28.5 -84.5t-48 -71t-64.5 -48.5t-78 -18q-41 0 -70.5 18t-46 49t-21 71t4.5 84zM561 790q-14 -23 -26.5 -39t-29.5 -16q-8 0 -17 4t-23 17q-15 12 -32 22t-43 10q-28 0 -49 -11t-36.5 -26.5t-27 -34t-20.5 -33.5l64 -23q1 1 3 4t3 4q8 14 20 30t29 16
q6 0 12.5 -3t26.5 -19q23 -20 40 -25t32 -5q31 0 54 11.5t39 28.5t27 35t18 32z" />
    <glyph glyph-name="Odieresis" unicode="&#xd6;" 
d="M89 291q-12 -64 -4 -120t35 -97.5t72 -65.5t105 -24q61 0 115 24t97.5 66t73.5 98t42 120q12 63 4 119t-34.5 98t-71.5 66.5t-106 24.5t-115.5 -24.5t-97.5 -66.5t-73 -98.5t-42 -119.5zM181 292q8 43 28 83.5t48.5 71t64.5 49t78 18.5q43 0 72 -19t45.5 -50t20 -71
t-4.5 -82q-9 -44 -28.5 -84.5t-48 -71t-64.5 -48.5t-78 -18q-41 0 -70.5 18t-46 49t-21 71t4.5 84zM307 663h96l22 115h-96zM455 663h96l22 115h-96z" />
    <glyph glyph-name="multiply" unicode="&#xd7;" 
d="M423 316l171 143l-50 62l-171 -143l-115 143l-74 -62l115 -143l-170 -143l50 -61l171 143l115 -143l74 61z" />
    <glyph glyph-name="Oslash" unicode="&#xd8;" 
d="M607 596l-45 -48q-6 6 -17 15t-28.5 17t-42 14t-58.5 6q-61 0 -115.5 -25t-97.5 -67t-72.5 -97.5t-41.5 -117.5q-2 -8 -5 -30t-3 -52q0 -29 7 -62t25 -63l-65 -66l55 -50l58 59q26 -24 61.5 -34.5t75.5 -10.5q60 0 113.5 23.5t97 65t73.5 98t43 121.5q7 37 7.5 67
t-3.5 54t-10.5 42t-12.5 33l57 60zM531 411q4 -15 9 -42t-5 -74q-10 -52 -32 -93.5t-52 -71t-65 -45t-71 -15.5q-29 0 -53 8.5t-35 19.5zM186 162q-10 28 -10.5 64t5.5 68q8 40 27 79.5t47.5 71t65 50.5t79.5 19q42 0 63 -13t31 -22z" />
    <glyph glyph-name="Ugrave" unicode="&#xd9;" 
d="M128 583l-16 -82h69l-49 -255q-3 -16 -6.5 -38t-5 -46.5t1 -49t11.5 -44.5q12 -24 31 -40.5t41.5 -26t46.5 -13.5t45 -4q34 0 61 4t49.5 13.5t43 25.5t42.5 41q18 21 30.5 45.5t20.5 48.5t12.5 46t7.5 38l49 255h69l16 82h-254l-16 -82h98l-49 -255q-6 -32 -14.5 -63.5
t-26 -56.5t-46.5 -40.5t-76 -15.5t-70.5 15.5t-31 40.5t-3.5 56.5t10 63.5l49 255h98l16 82h-254zM305 768l149 -94h87l-86 98h-149z" />
    <glyph glyph-name="Uacute" unicode="&#xda;" 
d="M128 583l-16 -82h69l-49 -255q-3 -16 -6.5 -38t-5 -46.5t1 -49t11.5 -44.5q12 -24 31 -40.5t41.5 -26t46.5 -13.5t45 -4q34 0 61 4t49.5 13.5t43 25.5t42.5 41q18 21 30.5 45.5t20.5 48.5t12.5 46t7.5 38l49 255h69l16 82h-254l-16 -82h98l-49 -255q-6 -32 -14.5 -63.5
t-26 -56.5t-46.5 -40.5t-76 -15.5t-70.5 15.5t-31 40.5t-3.5 56.5t10 63.5l49 255h98l16 82h-254zM613 768l1 4h-149l-124 -98h87z" />
    <glyph glyph-name="Ucircumflex" unicode="&#xdb;" 
d="M128 583l-16 -82h69l-49 -255q-3 -16 -6.5 -38t-5 -46.5t1 -49t11.5 -44.5q12 -24 31 -40.5t41.5 -26t46.5 -13.5t45 -4q34 0 61 4t49.5 13.5t43 25.5t42.5 41q18 21 30.5 45.5t20.5 48.5t12.5 46t7.5 38l49 255h69l16 82h-254l-16 -82h98l-49 -255q-6 -32 -14.5 -63.5
t-26 -56.5t-46.5 -40.5t-76 -15.5t-70.5 15.5t-31 40.5t-3.5 56.5t10 63.5l49 255h98l16 82h-254zM407 782l-110 -85l47 -32l91 48l81 -48l58 32l-81 85h-86z" />
    <glyph glyph-name="Udieresis" unicode="&#xdc;" 
d="M128 583l-16 -82h69l-49 -255q-3 -16 -6.5 -38t-5 -46.5t1 -49t11.5 -44.5q12 -24 31 -40.5t41.5 -26t46.5 -13.5t45 -4q34 0 61 4t49.5 13.5t43 25.5t42.5 41q18 21 30.5 45.5t20.5 48.5t12.5 46t7.5 38l49 255h69l16 82h-254l-16 -82h98l-49 -255q-6 -32 -14.5 -63.5
t-26 -56.5t-46.5 -40.5t-76 -15.5t-70.5 15.5t-31 40.5t-3.5 56.5t10 63.5l49 255h98l16 82h-254zM307 663h96l22 115h-96zM455 663h96l22 115h-96z" />
    <glyph glyph-name="Yacute" unicode="&#xdd;" 
d="M134 583l-16 -82h70l114 -277l-28 -142h-116l-16 -82h316l16 82h-114l28 142l218 277h70l16 82h-227l-16 -82h60l-145 -185l-75 185h58l16 82h-229zM613 768l1 4h-149l-124 -98h87z" />
    <glyph glyph-name="Thorn" unicode="&#xde;" 
d="M334 460l8 41h123l16 82h-287l-16 -82h77l-81 -419h-77l-16 -82h287l16 82h-123l9 46h35q51 0 85 1.5t57.5 4t39.5 7t31 10.5q43 17 69.5 57t35.5 84q8 42 1.5 71t-23 47.5t-40 28.5t-50 14.5t-53.5 5.5t-49 1h-75zM406 383q24 0 50 -1.5t47 -10t32.5 -27t5.5 -52.5
q-6 -30 -21.5 -47.5t-39.5 -26.5t-57 -11.5t-73 -2.5h-65l34 179h87z" />
    <glyph glyph-name="germandbls" unicode="&#xdf;" 
d="M69 82l-16 -82h161l87 448q4 19 11.5 38.5t20.5 34.5t32 24.5t45 9.5q34 0 47 -19t7 -51q-5 -28 -21 -45t-36.5 -26t-41.5 -12t-37 -4l-16 -82q86 -3 127.5 -35t28.5 -102q-2 -8 -6.5 -25.5t-15.5 -35.5t-29 -31.5t-45 -13.5q-34 0 -56 17.5t-40 39.5l-18 -95
q4 -6 11 -14.5t19 -16t30.5 -13t44.5 -5.5q39 0 72 14.5t57.5 40t41.5 60t25 75.5q5 25 4.5 52.5t-9.5 53t-28.5 48t-53.5 37.5q9 6 20.5 14.5t23.5 22.5t22.5 33.5t15.5 46.5q6 31 1.5 59.5t-20.5 50.5t-42.5 35.5t-63.5 13.5q-38 0 -73 -13.5t-63.5 -38.5t-49 -60
t-28.5 -78l-72 -371h-74z" />
    <glyph glyph-name="agrave" unicode="&#xe0;" 
d="M535 307q15 77 -20.5 122t-131.5 45q-61 0 -115.5 -16.5t-104.5 -35.5l18 -80q15 6 36 14t45 15t50.5 12t52.5 5q37 0 55.5 -9t25 -22.5t5 -29t-4.5 -28.5q-26 3 -52 5.5t-60 2.5q-66 0 -113 -17t-78 -42.5t-47 -54t-20 -51.5q-6 -29 1 -57t25.5 -50t48 -35.5t69.5 -13.5
q30 0 56 6.5t48.5 15.5t40.5 20t32 20l-9 -48h173l16 82h-86zM419 162q-35 -32 -65 -50t-54 -27t-40.5 -11t-23.5 -2q-16 0 -30 5.5t-24 15t-15 22t-2 26.5q1 4 7 18t23 28.5t48.5 26t84.5 11.5q29 0 52.5 -3.5t49.5 -7.5zM280 638l149 -94h87l-86 98h-149z" />
    <glyph glyph-name="aacute" unicode="&#xe1;" 
d="M535 307q15 77 -20.5 122t-131.5 45q-61 0 -115.5 -16.5t-104.5 -35.5l18 -80q15 6 36 14t45 15t50.5 12t52.5 5q37 0 55.5 -9t25 -22.5t5 -29t-4.5 -28.5q-26 3 -52 5.5t-60 2.5q-66 0 -113 -17t-78 -42.5t-47 -54t-20 -51.5q-6 -29 1 -57t25.5 -50t48 -35.5t69.5 -13.5
q30 0 56 6.5t48.5 15.5t40.5 20t32 20l-9 -48h173l16 82h-86zM419 162q-35 -32 -65 -50t-54 -27t-40.5 -11t-23.5 -2q-16 0 -30 5.5t-24 15t-15 22t-2 26.5q1 4 7 18t23 28.5t48.5 26t84.5 11.5q29 0 52.5 -3.5t49.5 -7.5zM588 638l1 4h-149l-124 -98h87z" />
    <glyph glyph-name="acircumflex" unicode="&#xe2;" 
d="M535 307q15 77 -20.5 122t-131.5 45q-61 0 -115.5 -16.5t-104.5 -35.5l18 -80q15 6 36 14t45 15t50.5 12t52.5 5q37 0 55.5 -9t25 -22.5t5 -29t-4.5 -28.5q-26 3 -52 5.5t-60 2.5q-66 0 -113 -17t-78 -42.5t-47 -54t-20 -51.5q-6 -29 1 -57t25.5 -50t48 -35.5t69.5 -13.5
q30 0 56 6.5t48.5 15.5t40.5 20t32 20l-9 -48h173l16 82h-86zM419 162q-35 -32 -65 -50t-54 -27t-40.5 -11t-23.5 -2q-16 0 -30 5.5t-24 15t-15 22t-2 26.5q1 4 7 18t23 28.5t48.5 26t84.5 11.5q29 0 52.5 -3.5t49.5 -7.5zM382 652l-110 -85l47 -32l90 48l82 -48l58 32
l-81 85h-86z" />
    <glyph glyph-name="atilde" unicode="&#xe3;" 
d="M535 307q15 77 -20.5 122t-131.5 45q-61 0 -115.5 -16.5t-104.5 -35.5l18 -80q15 6 36 14t45 15t50.5 12t52.5 5q37 0 55.5 -9t25 -22.5t5 -29t-4.5 -28.5q-26 3 -52 5.5t-60 2.5q-66 0 -113 -17t-78 -42.5t-47 -54t-20 -51.5q-6 -29 1 -57t25.5 -50t48 -35.5t69.5 -13.5
q30 0 56 6.5t48.5 15.5t40.5 20t32 20l-9 -48h173l16 82h-86zM419 162q-35 -32 -65 -50t-54 -27t-40.5 -11t-23.5 -2q-16 0 -30 5.5t-24 15t-15 22t-2 26.5q1 4 7 18t23 28.5t48.5 26t84.5 11.5q29 0 52.5 -3.5t49.5 -7.5zM535 660q-14 -23 -26 -39t-29 -16q-8 0 -17 4
t-23 17q-15 12 -32 22t-43 10q-28 0 -49 -11t-37 -26.5t-27.5 -34t-20.5 -33.5l65 -23q1 1 2.5 4t3.5 4q8 14 20 30t29 16q3 0 5.5 -0.5t6.5 -2.5t10 -6.5t16 -12.5q24 -20 40.5 -25t31.5 -5q31 0 54 11.5t39.5 28.5t27.5 35t18 32z" />
    <glyph glyph-name="adieresis" unicode="&#xe4;" 
d="M535 307q15 77 -20.5 122t-131.5 45q-61 0 -115.5 -16.5t-104.5 -35.5l18 -80q15 6 36 14t45 15t50.5 12t52.5 5q37 0 55.5 -9t25 -22.5t5 -29t-4.5 -28.5q-26 3 -52 5.5t-60 2.5q-66 0 -113 -17t-78 -42.5t-47 -54t-20 -51.5q-6 -29 1 -57t25.5 -50t48 -35.5t69.5 -13.5
q30 0 56 6.5t48.5 15.5t40.5 20t32 20l-9 -48h173l16 82h-86zM419 162q-35 -32 -65 -50t-54 -27t-40.5 -11t-23.5 -2q-16 0 -30 5.5t-24 15t-15 22t-2 26.5q1 4 7 18t23 28.5t48.5 26t84.5 11.5q29 0 52.5 -3.5t49.5 -7.5zM282 533h96l22 115h-96zM430 533h96l22 115h-96z
" />
    <glyph glyph-name="aring" unicode="&#xe5;" 
d="M535 307q15 77 -20.5 122t-131.5 45q-61 0 -115.5 -16.5t-104.5 -35.5l18 -80q15 6 36 14t45 15t50.5 12t52.5 5q37 0 55.5 -9t25 -22.5t5 -29t-4.5 -28.5q-26 3 -52 5.5t-60 2.5q-66 0 -113 -17t-78 -42.5t-47 -54t-20 -51.5q-6 -29 1 -57t25.5 -50t48 -35.5t69.5 -13.5
q30 0 56 6.5t48.5 15.5t40.5 20t32 20l-9 -48h173l16 82h-86zM419 162q-35 -32 -65 -50t-54 -27t-40.5 -11t-23.5 -2q-16 0 -30 5.5t-24 15t-15 22t-2 26.5q1 4 7 18t23 28.5t48.5 26t84.5 11.5q29 0 52.5 -3.5t49.5 -7.5zM506 604q7 37 -13.5 63t-57.5 26q-18 0 -35.5 -7
t-32 -19t-24.5 -28.5t-14 -34.5q-7 -37 13.5 -62.5t57.5 -25.5q18 0 36 7t32 19t24.5 28t13.5 34zM449 604q-2 -13 -13 -22.5t-25 -9.5q-13 0 -20.5 9.5t-5.5 22.5q3 14 14.5 23t24.5 9q14 0 21 -9t4 -23z" />
    <glyph glyph-name="ae" unicode="&#xe6;" 
d="M619 198q4 11 8.5 28.5t8.5 37.5q11 57 5 97t-23.5 65t-43.5 36.5t-55 11.5q-26 0 -47 -6.5t-37 -15.5t-27 -18t-16 -14q-5 10 -11.5 19.5t-17.5 17t-28 12.5t-43 5q-51 0 -94 -12.5t-78 -25.5l10 -81q45 16 79 24.5t62 8.5q34 0 39.5 -22t-5.5 -79q-18 2 -34.5 4
t-31.5 2q-45 0 -80.5 -16t-62 -40t-42.5 -52.5t-21 -54.5t-0.5 -51.5t18.5 -46t39 -33.5t61 -13q44 0 83.5 18.5t77.5 45.5q13 -23 29.5 -35.5t33.5 -19t32 -8t26 -1.5q46 0 84 10t67 19q2 1 5 2t5 2l-17 78q-24 -9 -52 -17t-65 -8q-33 0 -51 9.5t-26.5 26t-9.5 40t1 50.5
h245zM270 110q-30 -19 -55.5 -28.5t-52.5 -9.5q-14 0 -22.5 5t-13 13t-5 18t1.5 20q8 40 34 61.5t68 21.5q17 0 33 -1.5t31 -3.5zM390 280q4 12 10.5 30.5t18.5 36t31 29.5t49 12q25 0 37.5 -11.5t16.5 -28t2.5 -35t-3.5 -33.5h-162z" />
    <glyph glyph-name="ccedilla" unicode="&#xe7;" 
d="M355 -9q36 6 70.5 19t64.5 28.5t54.5 30.5t40.5 26l-34 68q-25 -15 -52.5 -31t-57 -29t-59 -21.5t-58.5 -8.5q-44 0 -71 15t-41.5 37.5t-17.5 50t2 53.5q3 16 14 42t33.5 51t58.5 43t89 18q43 0 65.5 -10t32.5 -27t10.5 -39t-0.5 -45l86 11q2 17 4 38t7 50q5 27 12 53.5
t14 46.5l-77 8l-20 -55q-32 32 -62.5 43.5t-68.5 11.5q-59 0 -109 -21t-87.5 -55.5t-61.5 -77.5t-33 -87q-8 -42 -1.5 -83t28 -74.5t59 -56t92.5 -27.5l-20 -65q3 0 9.5 -1t13.5 -2t12.5 -2t7.5 -1q11 -2 19 -5.5t6 -11.5t-8 -10t-12 -2q-14 0 -31 2.5t-33 5.5t-28.5 6
t-18.5 4l-25 -69q23 -6 55.5 -12.5t69.5 -6.5q51 0 78.5 23t34.5 58q8 38 -10 57t-47 27z" />
    <glyph glyph-name="egrave" unicode="&#xe8;" 
d="M564 144q-23 -12 -50.5 -25t-58.5 -23.5t-63 -17t-63 -6.5q-49 0 -76.5 14t-41 33.5t-16.5 40t-4 34.5h392q2 7 6.5 25.5t8.5 35.5q7 37 -0.5 74.5t-31.5 68t-65 50t-100 19.5q-58 0 -108 -20t-88.5 -53.5t-64.5 -77.5t-35 -92q-9 -47 -1.5 -90t33.5 -76t70 -52.5
t107 -19.5q59 0 129.5 21t145.5 60zM213 276q6 10 18 27.5t32 35t50 30t72 12.5q10 0 30 -2t40.5 -12t36 -31t18.5 -60h-297zM300 638l149 -94h87l-86 98h-149z" />
    <glyph glyph-name="eacute" unicode="&#xe9;" 
d="M564 144q-23 -12 -50.5 -25t-58.5 -23.5t-63 -17t-63 -6.5q-49 0 -76.5 14t-41 33.5t-16.5 40t-4 34.5h392q2 7 6.5 25.5t8.5 35.5q7 37 -0.5 74.5t-31.5 68t-65 50t-100 19.5q-58 0 -108 -20t-88.5 -53.5t-64.5 -77.5t-35 -92q-9 -47 -1.5 -90t33.5 -76t70 -52.5
t107 -19.5q59 0 129.5 21t145.5 60zM213 276q6 10 18 27.5t32 35t50 30t72 12.5q10 0 30 -2t40.5 -12t36 -31t18.5 -60h-297zM588 638l1 4h-149l-124 -98h87z" />
    <glyph glyph-name="ecircumflex" unicode="&#xea;" 
d="M564 144q-23 -12 -50.5 -25t-58.5 -23.5t-63 -17t-63 -6.5q-49 0 -76.5 14t-41 33.5t-16.5 40t-4 34.5h392q2 7 6.5 25.5t8.5 35.5q7 37 -0.5 74.5t-31.5 68t-65 50t-100 19.5q-58 0 -108 -20t-88.5 -53.5t-64.5 -77.5t-35 -92q-9 -47 -1.5 -90t33.5 -76t70 -52.5
t107 -19.5q59 0 129.5 21t145.5 60zM213 276q6 10 18 27.5t32 35t50 30t72 12.5q10 0 30 -2t40.5 -12t36 -31t18.5 -60h-297zM382 652l-110 -85l47 -32l90 48l82 -48l58 32l-81 85h-86z" />
    <glyph glyph-name="edieresis" unicode="&#xeb;" 
d="M564 144q-23 -12 -50.5 -25t-58.5 -23.5t-63 -17t-63 -6.5q-49 0 -76.5 14t-41 33.5t-16.5 40t-4 34.5h392q2 7 6.5 25.5t8.5 35.5q7 37 -0.5 74.5t-31.5 68t-65 50t-100 19.5q-58 0 -108 -20t-88.5 -53.5t-64.5 -77.5t-35 -92q-9 -47 -1.5 -90t33.5 -76t70 -52.5
t107 -19.5q59 0 129.5 21t145.5 60zM213 276q6 10 18 27.5t32 35t50 30t72 12.5q10 0 30 -2t40.5 -12t36 -31t18.5 -60h-297zM282 533h96l22 115h-96zM430 533h96l22 115h-96z" />
    <glyph glyph-name="igrave" unicode="&#xec;" 
d="M203 453l-16 -82h143l-56 -289h-170l-16 -82h424l16 82h-167l72 371h-230zM280 638l149 -94h87l-86 98h-149z" />
    <glyph glyph-name="iacute" unicode="&#xed;" 
d="M203 453l-16 -82h143l-56 -289h-170l-16 -82h424l16 82h-167l72 371h-230zM588 638l1 4h-149l-124 -98h87z" />
    <glyph glyph-name="icircumflex" unicode="&#xee;" 
d="M203 453l-16 -82h143l-56 -289h-170l-16 -82h424l16 82h-167l72 371h-230zM382 652l-110 -85l47 -32l90 48l82 -48l58 32l-81 85h-86z" />
    <glyph glyph-name="idieresis" unicode="&#xef;" 
d="M203 453l-16 -82h143l-56 -289h-170l-16 -82h424l16 82h-167l72 371h-230zM282 533h96l22 115h-96zM430 533h96l22 115h-96z" />
    <glyph glyph-name="eth" unicode="&#xf0;" 
d="M378 660q-42 23 -69.5 33t-44.5 15l-49 -67q35 -12 62.5 -24.5t38.5 -18.5l-66 -78l60 -38l68 83q5 -3 19.5 -13.5t33 -27t37.5 -38.5t34 -49l-2 -2q-5 4 -15 10t-24 12t-33.5 10t-44.5 4q-49 0 -97.5 -17t-89 -48.5t-70 -76.5t-40.5 -101q-9 -46 -1 -89.5t34 -77.5
t70 -54.5t108 -20.5q61 0 113 19.5t91.5 52.5t65.5 78t36 96q11 57 6.5 111.5t-20.5 103.5q-12 34 -27 58.5t-32.5 44t-37 35.5t-40.5 32l-14 10l51 58l-55 43zM175 228q6 31 22.5 60.5t42.5 52t60 36t76 13.5t71 -14t45.5 -37t21.5 -52t-1 -59t-21.5 -59t-41 -52t-60 -37
t-77.5 -14q-42 0 -71 13.5t-46 36t-22 52t1 60.5z" />
    <glyph glyph-name="ntilde" unicode="&#xf1;" 
d="M111 453l-16 -82h81l-56 -289h-83l-16 -82h246l16 82h-76l45 231q18 12 37.5 24t40 21.5t41 16t41.5 6.5q37 0 50.5 -28.5t5.5 -69.5l-39 -201h-84l-16 -82h252l16 82h-81l40 205q7 39 2 72t-21.5 57t-44.5 37.5t-65 13.5q-24 0 -46.5 -5.5t-42 -14t-36.5 -18t-31 -18.5
l8 42h-168zM535 660q-14 -23 -26 -39t-29 -16q-8 0 -17 4t-23 17q-15 12 -32 22t-43 10q-28 0 -49 -11t-37 -26.5t-27.5 -34t-20.5 -33.5l65 -23q1 1 2.5 4t3.5 4q8 14 20 30t29 16q3 0 5.5 -0.5t6.5 -2.5t10 -6.5t16 -12.5q24 -20 40.5 -25t31.5 -5q31 0 54 11.5t39.5 28.5
t27.5 35t18 32z" />
    <glyph glyph-name="ograve" unicode="&#xf2;" 
d="M86 230q-9 -47 -1 -91t34 -78t70.5 -54.5t107.5 -20.5q65 0 118 21t92 55.5t63.5 78.5t33.5 89q9 47 0.5 91t-34.5 78t-70.5 54.5t-107.5 20.5q-61 0 -113 -19.5t-91.5 -53t-66 -78t-35.5 -93.5zM178 230q6 31 22 59.5t41 50.5t59 35t75 13q42 0 71 -13.5t45.5 -36
t21.5 -51t-1 -57.5t-21.5 -57.5t-40.5 -51t-59.5 -36t-76.5 -13.5q-41 0 -70 13.5t-45.5 35.5t-21.5 50.5t1 58.5zM280 638l149 -94h87l-86 98h-149z" />
    <glyph glyph-name="oacute" unicode="&#xf3;" 
d="M86 230q-9 -47 -1 -91t34 -78t70.5 -54.5t107.5 -20.5q65 0 118 21t92 55.5t63.5 78.5t33.5 89q9 47 0.5 91t-34.5 78t-70.5 54.5t-107.5 20.5q-61 0 -113 -19.5t-91.5 -53t-66 -78t-35.5 -93.5zM178 230q6 31 22 59.5t41 50.5t59 35t75 13q42 0 71 -13.5t45.5 -36
t21.5 -51t-1 -57.5t-21.5 -57.5t-40.5 -51t-59.5 -36t-76.5 -13.5q-41 0 -70 13.5t-45.5 35.5t-21.5 50.5t1 58.5zM588 638l1 4h-149l-124 -98h87z" />
    <glyph glyph-name="ocircumflex" unicode="&#xf4;" 
d="M86 230q-9 -47 -1 -91t34 -78t70.5 -54.5t107.5 -20.5q65 0 118 21t92 55.5t63.5 78.5t33.5 89q9 47 0.5 91t-34.5 78t-70.5 54.5t-107.5 20.5q-61 0 -113 -19.5t-91.5 -53t-66 -78t-35.5 -93.5zM178 230q6 31 22 59.5t41 50.5t59 35t75 13q42 0 71 -13.5t45.5 -36
t21.5 -51t-1 -57.5t-21.5 -57.5t-40.5 -51t-59.5 -36t-76.5 -13.5q-41 0 -70 13.5t-45.5 35.5t-21.5 50.5t1 58.5zM382 652l-110 -85l47 -32l90 48l82 -48l58 32l-81 85h-86z" />
    <glyph glyph-name="otilde" unicode="&#xf5;" 
d="M86 230q-9 -47 -1 -91t34 -78t70.5 -54.5t107.5 -20.5q65 0 118 21t92 55.5t63.5 78.5t33.5 89q9 47 0.5 91t-34.5 78t-70.5 54.5t-107.5 20.5q-61 0 -113 -19.5t-91.5 -53t-66 -78t-35.5 -93.5zM178 230q6 31 22 59.5t41 50.5t59 35t75 13q42 0 71 -13.5t45.5 -36
t21.5 -51t-1 -57.5t-21.5 -57.5t-40.5 -51t-59.5 -36t-76.5 -13.5q-41 0 -70 13.5t-45.5 35.5t-21.5 50.5t1 58.5zM535 660q-14 -23 -26 -39t-29 -16q-8 0 -17 4t-23 17q-15 12 -32 22t-43 10q-28 0 -49 -11t-37 -26.5t-27.5 -34t-20.5 -33.5l65 -23q1 1 2.5 4t3.5 4
q8 14 20 30t29 16q3 0 5.5 -0.5t6.5 -2.5t10 -6.5t16 -12.5q24 -20 40.5 -25t31.5 -5q31 0 54 11.5t39.5 28.5t27.5 35t18 32z" />
    <glyph glyph-name="odieresis" unicode="&#xf6;" 
d="M86 230q-9 -47 -1 -91t34 -78t70.5 -54.5t107.5 -20.5q65 0 118 21t92 55.5t63.5 78.5t33.5 89q9 47 0.5 91t-34.5 78t-70.5 54.5t-107.5 20.5q-61 0 -113 -19.5t-91.5 -53t-66 -78t-35.5 -93.5zM178 230q6 31 22 59.5t41 50.5t59 35t75 13q42 0 71 -13.5t45.5 -36
t21.5 -51t-1 -57.5t-21.5 -57.5t-40.5 -51t-59.5 -36t-76.5 -13.5q-41 0 -70 13.5t-45.5 35.5t-21.5 50.5t1 58.5zM282 533h96l22 115h-96zM430 533h96l22 115h-96z" />
    <glyph glyph-name="divide" unicode="&#xf7;" 
d="M407 550q-28 0 -49 -19t-26 -44q-5 -24 8 -43.5t42 -19.5q28 0 49.5 19.5t26.5 43.5q5 26 -9.5 44.5t-41.5 18.5zM123 357l-17 -88h492l17 88h-492zM339 202q-27 0 -48.5 -18t-26.5 -44t9.5 -45t41.5 -19t48.5 19t26.5 45q5 25 -9.5 43.5t-41.5 18.5z" />
    <glyph glyph-name="oslash" unicode="&#xf8;" 
d="M157 27q30 -23 64 -32t76 -9q65 0 118 21t92 55.5t63.5 78.5t33.5 90q16 87 -22 152l51 42l-44 54l-54 -45q-34 25 -74.5 32.5t-69.5 7.5q-60 0 -112 -19.5t-91.5 -53t-66 -77.5t-35.5 -93q-3 -14 -4.5 -32t0.5 -39t8 -43t19 -43l-54 -47l43 -51zM504 317q3 -8 5.5 -16
t4.5 -17.5t1.5 -22t-3.5 -30.5q-6 -30 -22 -59t-41 -51t-59 -35.5t-75 -13.5q-35 0 -54 5.5t-27 12.5zM187 139q-7 15 -9.5 30t-2.5 27q0 13 1 22t2 13q6 30 22 58.5t41 50t58.5 35t74.5 13.5q37 0 55.5 -7t29.5 -14z" />
    <glyph glyph-name="ugrave" unicode="&#xf9;" 
d="M110 453l-16 -82h78l-37 -192q-11 -56 -5.5 -86t19.5 -53q15 -25 47.5 -39.5t70.5 -14.5q23 0 60 9t80 36l-6 -31h165l16 82h-78l72 371h-169l-16 -82h82l-44 -225q-17 -14 -33 -27t-33.5 -23.5t-37 -17t-42.5 -6.5q-28 0 -42 11.5t-19.5 28t-4 35t4.5 32.5l53 274h-165z
M280 638l149 -94h87l-86 98h-149z" />
    <glyph glyph-name="uacute" unicode="&#xfa;" 
d="M110 453l-16 -82h78l-37 -192q-11 -56 -5.5 -86t19.5 -53q15 -25 47.5 -39.5t70.5 -14.5q23 0 60 9t80 36l-6 -31h165l16 82h-78l72 371h-169l-16 -82h82l-44 -225q-17 -14 -33 -27t-33.5 -23.5t-37 -17t-42.5 -6.5q-28 0 -42 11.5t-19.5 28t-4 35t4.5 32.5l53 274h-165z
M588 638l1 4h-149l-124 -98h87z" />
    <glyph glyph-name="ucircumflex" unicode="&#xfb;" 
d="M110 453l-16 -82h78l-37 -192q-11 -56 -5.5 -86t19.5 -53q15 -25 47.5 -39.5t70.5 -14.5q23 0 60 9t80 36l-6 -31h165l16 82h-78l72 371h-169l-16 -82h82l-44 -225q-17 -14 -33 -27t-33.5 -23.5t-37 -17t-42.5 -6.5q-28 0 -42 11.5t-19.5 28t-4 35t4.5 32.5l53 274h-165z
M382 652l-110 -85l47 -32l90 48l82 -48l58 32l-81 85h-86z" />
    <glyph glyph-name="udieresis" unicode="&#xfc;" 
d="M110 453l-16 -82h78l-37 -192q-11 -56 -5.5 -86t19.5 -53q15 -25 47.5 -39.5t70.5 -14.5q23 0 60 9t80 36l-6 -31h165l16 82h-78l72 371h-169l-16 -82h82l-44 -225q-17 -14 -33 -27t-33.5 -23.5t-37 -17t-42.5 -6.5q-28 0 -42 11.5t-19.5 28t-4 35t4.5 32.5l53 274h-165z
M282 533h96l22 115h-96zM430 533h96l22 115h-96z" />
    <glyph glyph-name="yacute" unicode="&#xfd;" 
d="M102 453l-16 -82h66l107 -324l-88 -113h-155l-16 -82h330l16 82h-75l336 437h63l16 82h-215l-16 -82h52l-179 -234l-77 234h54l16 82h-219zM588 638l1 4h-149l-124 -98h87z" />
    <glyph glyph-name="thorn" unicode="&#xfe;" 
d="M120 621l-7 -84l81 5l-119 -612h-79l-16 -82h310l16 82h-144l23 118q17 -17 36.5 -28t38.5 -17t36 -8t29 -2q43 0 88 17t84 48.5t67.5 75.5t39.5 98q9 45 0.5 87t-32.5 75t-63.5 53t-92.5 20q-7 0 -23 -1t-37 -5.5t-46.5 -15.5t-52.5 -30l42 216zM217 234q6 30 22.5 56.5
t41 46.5t55 32t63.5 12q36 0 60.5 -13.5t38 -35t16.5 -48t-2 -52.5q-6 -33 -23 -61t-41 -48.5t-52 -32t-57 -11.5q-25 0 -49.5 10t-43 29.5t-27.5 48.5t-2 67z" />
    <glyph glyph-name="ydieresis" unicode="&#xff;" 
d="M102 453l-16 -82h66l107 -324l-88 -113h-155l-16 -82h330l16 82h-75l336 437h63l16 82h-215l-16 -82h52l-179 -234l-77 234h54l16 82h-219zM282 533h96l22 115h-96zM430 533h96l22 115h-96z" />
    <glyph glyph-name="uni1209" unicode="&#x1209;" horiz-adv-x="692" 
d="M694 265q-13 25 -17 40t0 32q1 6 3.5 13.5t7.5 18.5q2 6 3 8l2 4q2 7 -0.5 11t-6.5 8l-183 -41q-8 46 -21 87t-33 73q-6 9 -12.5 21.5t-11 27t-5 30t4.5 30.5l-125 -26q-6 -11 -7 -25t0 -28t3.5 -27t4.5 -23q-39 -26 -76.5 -73t-69 -104.5t-55 -120t-34.5 -119.5
q-5 -26 0 -50t18 -32l143 27q-11 5 -17.5 19.5t-4.5 29.5q6 42 20.5 87.5t34 88t43.5 79t50 60.5q4 -9 9 -26.5t8.5 -39t6.5 -46.5t5 -50q1 -27 1.5 -55.5t0.5 -53.5t-0.5 -44.5t-0.5 -28.5q0 -20 7.5 -33.5t18.5 -13.5l133 27q-7 7 -11.5 15t-6.5 20.5t-3 31t-1 45.5
q-2 48 -5 100t-11 103l46 12q-7 -62 10.5 -86t55.5 -24q16 0 33.5 5t44.5 16z" />
    <glyph glyph-name="uni120A" unicode="&#x120a;" horiz-adv-x="764" 
d="M712 -9q-14 17 -21 38.5t-3 46.5q2 14 7.5 27t13.5 28q-16 6 -42 5q-17 -2 -34.5 -7t-33 -15.5t-27.5 -26.5t-16 -38l-21 -4q-3 -1 -6 2.5t-5.5 14t-3.5 29t0 48.5q1 48 -2 100.5t-11.5 103t-22.5 96.5t-36 80q-6 9 -12 21.5t-10.5 27t-5 30t4.5 30.5l-126 -26
q-6 -11 -7 -25t0 -28t4 -27t5 -23q-39 -26 -76.5 -73t-69 -104.5t-55 -120t-34.5 -119.5q-5 -26 -0.5 -50t18.5 -32l142 27q-10 5 -16.5 19.5t-4.5 29.5q6 42 20 87.5t33.5 88t43.5 79t50 60.5q5 -9 9.5 -26.5t8.5 -39t7 -46.5t5 -50q1 -27 1 -56v-53t-0.5 -44.5t-0.5 -28.5
q0 -20 8 -33.5t19 -13.5l146 30q6 -64 67 -60q20 2 43 7.5t47 13.5z" />
    <glyph glyph-name="uni120B" unicode="&#x120b;" horiz-adv-x="567" 
d="M522 27q-7 7 -11.5 15t-6.5 20.5t-3 31t-1 45.5q-1 48 -3.5 99.5t-10 101.5t-21 96.5t-36.5 82.5q-6 9 -12 21.5t-10.5 27t-5.5 30t4 30.5l-125 -26q-6 -11 -7 -25t0 -28t3.5 -27t4.5 -23q-32 -21 -63.5 -58t-58.5 -82.5t-47.5 -96t-29.5 -98.5q-5 -25 0 -49t18 -32
l135 25q-10 6 -16.5 24.5t-3.5 34.5q6 30 19 69t29.5 74.5t35 60t35.5 26.5q7 -7 12.5 -25t9.5 -41.5t6 -50t2 -51.5q-2 -57 -2 -107q0 -49 1 -75q1 -21 8.5 -34t18.5 -13z" />
    <glyph glyph-name="uni120C" unicode="&#x120c;" horiz-adv-x="717" 
d="M689 113q11 55 -2 76q-7 11 -21.5 19t-40.5 5l-107 -12q-2 43 -6 87.5t-12 86t-20.5 78.5t-30.5 66q-6 9 -12.5 21.5t-11 27t-5 30t4.5 30.5l-125 -26q-6 -11 -7 -25t0 -28t3.5 -27t4.5 -23q-39 -26 -76.5 -73t-69 -104.5t-55 -120t-34.5 -119.5q-5 -26 0 -50t18 -32
l143 27q-11 5 -17.5 19.5t-4.5 29.5q6 42 20 87.5t34 88t44 79t49 60.5q9 -13 16 -46.5t11 -80t5 -103t-1 -114.5q-1 -20 7 -33.5t19 -13.5l98 18q12 0 29.5 -4t29.5 -4q44 0 79 30q36 30 44 73zM597 101q-5 -38 -18.5 -55.5t-42.5 -12.5q-11 12 -13.5 34.5t-2.5 71.5l-1 45
l36 4q24 3 37 -20t5 -67z" />
    <glyph glyph-name="uni120D" unicode="&#x120d;" horiz-adv-x="655" 
d="M610 27q-20 14 -25.5 46.5t-5.5 63.5q-3 142 -24 239.5t-66 144.5q-9 10 -18 23.5t-17 28t-14.5 29t-9.5 26.5q-34 -6 -67.5 -13t-68.5 -13q-2 -11 -2 -20q0 -8 3.5 -18.5t10 -24t17.5 -34.5l1 -4q-43 -32 -85 -83t-77.5 -111t-62 -125t-38.5 -125q-5 -24 3.5 -40.5
t24.5 -16.5h13t25 11q22 14 36 19.5t26.5 7t26.5 1.5q15 0 38 4q30 5 48.5 10t35.5 15q18 11 31.5 33t19.5 54q3 20 1.5 38t-7 31t-14.5 19t-21 2l-111 -39q17 36 37 70t40.5 62.5t41 49.5t38.5 32q7 -2 15.5 -25t15.5 -61.5t11 -89t4 -107.5q0 -50 6.5 -85t29.5 -52z
M278 137q-6 -35 -21 -57t-41 -22q-23 0 -23.5 19t7.5 42q9 26 18.5 46t13.5 21l31 10q7 2 10.5 -3.5t5 -15.5t1 -21t-1.5 -19z" />
    <glyph glyph-name="uni120E" unicode="&#x120e;" horiz-adv-x="799" 
d="M817 353q8 45 -7 72t-47 20q-22 -5 -56 -14.5t-71.5 -19.5t-73.5 -20t-61 -17q-15 85 -52 145q-6 9 -12.5 21.5t-11 27t-5 30t4.5 30.5l-125 -26q-6 -11 -7 -25t0 -28t3.5 -27t4.5 -23q-39 -26 -76.5 -73t-69 -104.5t-55 -120t-34.5 -119.5q-5 -26 0 -50t18 -32l143 27
q-11 5 -17.5 19.5t-4.5 29.5q6 42 20.5 87.5t34 88t43.5 79t50 60.5q4 -9 9 -26.5t8.5 -39t6.5 -46.5t5 -50q1 -27 1.5 -55.5t0.5 -53.5t-0.5 -44.5t-0.5 -28.5q0 -20 7.5 -33.5t18.5 -13.5l133 27q-7 7 -11.5 15t-6.5 20.5t-3 31t-1 45.5q-2 51 -4 106.5t-11 109.5l65 19
q-16 -81 -14 -117.5t34 -36.5q21 0 84 23q43 3 68.5 8.5t40 17.5t21.5 32t13 52zM651 328q2 32 11.5 55t32.5 28t31.5 -17t6.5 -53q-2 -32 -12.5 -57t-33.5 -28q-22 -4 -30 18t-6 54z" />
    <glyph glyph-name="uni1206" unicode="&#x1206;" horiz-adv-x="700" 
d="M750 517q-6 -32 -18 -59t-35.5 -48.5t-61.5 -37t-96 -24.5q-17 -91 -48 -157t-73.5 -108.5t-96.5 -62.5t-117 -20q-19 -4 -39 -4q-51 0 -75.5 32t-15.5 78q8 32 20.5 79l25 94t23 86.5t13.5 57.5q8 40 8 61q0 22 -12 43l136 46q17 -5 20.5 -28.5t-4.5 -61.5
q-7 -35 -19.5 -82.5t-26 -97t-26.5 -94.5t-21 -74q-10 -37 -11.5 -59.5t3 -35t13.5 -17t20 -4.5q29 0 55 29t48.5 78t41.5 114.5t34 139.5q16 80 19 124t-13 71l267 54q41 0 57 -27t5 -85zM629 457q2 8 2.5 19.5t2.5 27.5v41t-2.5 25t-8 12t-15.5 3q-7 0 -17 -2t-24 -5
l-24 -205q10 0 22.5 3t25 12t23 25.5t15.5 43.5z" />
    <glyph glyph-name="uni1218" unicode="&#x1218;" horiz-adv-x="869" 
d="M910 467q-9 -44 -20.5 -82t-28 -67t-40 -48.5t-55.5 -26.5h-29q-17 0 -28 -0.5t-20 -1.5t-18 -2.5l-21 -3.5q-29 -6 -51.5 -9t-53.5 -3q-14 0 -18 13t1 35q2 9 4.5 19t7.5 24l52 153q10 29 11.5 48t-8.5 19q-15 0 -27.5 -19t-27.5 -46l-15.5 -31t-26.5 -54t-32 -65
t-32.5 -62t-27.5 -46.5t-17 -18.5q-20 0 -36.5 -1.5t-33 -5t-33.5 -9t-37 -12.5q-47 -16 -69 -16q-24 0 -41 9t-27 24.5t-13 36t2 43.5q5 26 16.5 50t24.5 47q49 88 132 137t201 51l303 22q2 0 10 2q19 3 38 3q15 0 27 -2.5t20 -8.5q20 -11 30.5 -35t6.5 -60zM434 504
q2 10 -4.5 14.5t-17.5 4.5q-23 0 -58 -33.5t-66 -90.5q-8 -14 -16 -31.5t-15 -36t-13 -37t-9 -33.5q-7 -32 -4.5 -53.5t22.5 -21.5q8 0 19 8t15 19zM794 456q8 46 -0.5 69.5t-28.5 23.5q-11 0 -21 -9t-13 -18l-65 -208q-3 -10 -4.5 -20t0.5 -18t7.5 -13t16.5 -5
q17 0 33.5 18t30.5 46.5t25.5 63.5t18.5 70z" />
    <glyph glyph-name="uni1219" unicode="&#x1219;" horiz-adv-x="1090" 
d="M1106 340q-15 11 -20.5 37.5t0.5 55.5q2 11 5.5 20t7.5 17q-6 7 -33 6q-21 0 -41.5 -5t-37 -16t-28.5 -28t-18 -41l-51 -14l8 35q4 35 -6.5 59t-30.5 35q-14 11 -46 11q-10 0 -19 -0.5t-20 -2.5q-8 -2 -9 -2l-304 -23q-118 -2 -200.5 -50t-132.5 -137q-13 -23 -24.5 -47
t-16.5 -50q-5 -23 -2 -43.5t13 -36t27 -24.5t41 -9q11 0 28 4t41 12q20 7 37 12t33.5 8.5t33 5.5t36.5 2q5 0 17 18.5t27.5 46.5t32.5 62t32 64.5t26.5 54t15.5 31.5q15 27 27.5 46.5t27.5 19.5q10 0 8.5 -19t-11.5 -48l-52 -154q-5 -14 -7.5 -24.5t-4.5 -18.5
q-5 -22 -1 -35t18 -13q31 0 53.5 3t51.5 8q12 3 21 4.5t18.5 3t20.5 2t28 0.5q4 -1 14 -1h14q54 12 84.5 58t47.5 115l58 12q0 -52 51 -52q20 -1 45.5 5t65.5 20zM422 443l-146 -290q-5 -11 -16 -20t-19 -9q-20 0 -22 22t4 54q3 15 9 33.5t13 37t15 36t16 31.5
q31 57 66 90.5t58 33.5q11 0 17.5 -4.5t4.5 -14.5zM782 395q-7 -35 -18.5 -70t-25.5 -63t-30.5 -46t-33.5 -18q-22 0 -24 17.5t4 37.5l66 208q2 9 12 18t21 9q20 0 29 -23.5t0 -69.5z" />
    <glyph glyph-name="uni121A" unicode="&#x121a;" horiz-adv-x="953" 
d="M897 -32q-13 19 -19 43t-1 48q6 32 27 57q-14 7 -40 7q-18 0 -37 -4.5t-36 -14t-30 -24.5t-19 -36h-45q-10 0 -15 12.5t-1 30.5l141 339q12 29 20 53.5t11 42.5q11 52 -10.5 79t-84.5 27q-33 0 -81 -9q-17 1 -22 1h-8q-23 0 -57 -2.5t-82 -7.5q-48 -6 -83 -8.5t-58 -2.5
q-55 0 -96.5 -17t-70.5 -43t-45.5 -57t-22.5 -59q-8 -45 11 -78.5t66 -33.5q23 0 72 17q19 7 34.5 11t30.5 7t30 5t33 4q7 0 16.5 15t15.5 30l54 139q11 23 22.5 40t29.5 17q17 0 14.5 -17t-11.5 -40l-39 -108l-8 -22q-4 -19 -0.5 -32.5t17.5 -13.5h15q10 0 24 2
q17 1 27.5 1.5t18.5 0.5q23 0 39.5 -4.5t14.5 -18.5l-102 -235q-21 -45 -16.5 -77.5t32.5 -32.5q21 4 36.5 7.5t27.5 6t22 4.5t21 3q10 1 17 2t12.5 1.5t11.5 0.5h14q-5 -38 12.5 -59t53.5 -21q20 0 45 8.5t51 15.5zM387 538l-63 -164q-5 -10 -16.5 -17t-23.5 -9
q-22 0 -33.5 17.5t-6.5 44.5q2 14 8 31t14 36q25 49 53 75.5t48 26.5q12 0 19 -12t1 -29zM744 543q-5 -20 -16 -47t-18 -44q-13 -29 -28 -49.5t-35 -20.5q-23 0 -26.5 14.5t3.5 34.5l57 148q5 12 15 20.5t21 8.5q17 0 24.5 -19.5t2.5 -45.5z" />
    <glyph glyph-name="uni121B" unicode="&#x121b;" horiz-adv-x="816" 
d="M690 408l46 131q8 26 3 47.5t-22 21.5q-11 0 -25 -10.5t-19 -25.5l-49 -141q-6 -18 -1 -32.5t19 -18.5q14 -2 28.5 6.5t20.5 22.5zM720 24l-127 -24q-17 7 -21.5 33t6.5 57l88 249q2 7 0 13t-3 7q-8 6 -25.5 7t-32.5 1q-4 0 -16 -0.5t-25.5 -1.5t-26 -1.5t-17.5 -0.5
q-14 0 -19 13.5t2 32.5l47 130q8 23 7.5 40t-16.5 17q-19 0 -31.5 -16.5t-21.5 -40.5l-51 -139q-7 -18 -16 -31.5t-15 -13.5q-18 -2 -32.5 -4t-29 -5t-29.5 -7t-34 -11q-49 -17 -72 -17q-47 0 -66 33.5t-11 78.5q16 82 85 128.5t185 48.5q10 0 42.5 2.5t69.5 7.5
q19 2 33.5 3.5t28.5 3.5q18 1 39.5 3t45 4t46.5 3t43 1q74 0 100 -31.5t2 -101.5l-125 -360q-11 -34 -17 -64.5t10 -46.5zM382 539q8 25 2.5 32.5t-17.5 7.5q-20 0 -48 -26.5t-53 -75.5q-10 -18 -15 -35.5t-7 -31.5q-5 -27 7 -44.5t33 -17.5q12 2 24 8t15 16z" />
    <glyph glyph-name="uni121C" unicode="&#x121c;" horiz-adv-x="879" 
d="M857 145q4 22 -0.5 36t-15 21.5t-25.5 9.5t-32 0l-57 -6l94 221q23 55 31 93q10 49 -11.5 75.5t-84.5 26.5q-33 0 -81 -9q-17 1 -23 1h-8q-23 0 -56.5 -2.5t-80.5 -7.5q-48 -5 -83 -7.5t-58 -2.5q-55 0 -96.5 -16.5t-70 -41t-45 -54.5t-21.5 -57q-9 -44 11.5 -76
t67.5 -32q11 0 28.5 4t42.5 13q37 12 64.5 17t63.5 8q7 1 16 15t14 28l54 133q11 23 22 39.5t30 16.5q15 0 12.5 -16.5t-10.5 -39.5l-37 -103l-8 -21q-4 -19 -1.5 -32t16.5 -13q10 0 40 3q17 1 27 1h19q23 0 39.5 -4.5t14.5 -17.5l-104 -235q-11 -23 -15.5 -43.5t-3.5 -36
t8 -24.5t20 -9q16 3 26 4t19.5 2t19.5 1h27l10.5 -0.5t24.5 -0.5h30t24 2q25 1 43 8t31 22.5t21.5 41.5t16.5 65zM387 534l-63 -157q-4 -9 -15 -15.5t-24 -8.5q-21 0 -33 16.5t-7 42.5q3 14 8.5 30.5t13.5 33.5q25 48 52.5 74t47.5 26q11 0 18.5 -12.5t1.5 -29.5zM742 540
q-4 -19 -15 -45t-18 -42q-12 -29 -27 -48t-35 -19q-23 0 -27 13.5t3 32.5l56 144q5 11 15 18.5t21 7.5q17 0 24.5 -18t2.5 -44zM760 140q-2 -15 -6 -35t-12.5 -38.5t-20.5 -31.5t-28 -13q-18 0 -23.5 14.5t-2.5 26.5l53 128h5t9 -1q20 -3 25.5 -15t0.5 -35z" />
    <glyph glyph-name="uni121D" unicode="&#x121d;" horiz-adv-x="811" 
d="M854 479q-12 -61 -40.5 -95.5t-74.5 -34.5q-8 1 -14.5 1.5t-13.5 0.5q-17 0 -29 -2.5t-29 -8.5l-27 -9t-29 -4q-20 0 -35.5 3t-25 11.5t-12.5 23.5t2 40l35 141q5 21 3.5 36.5t-13.5 15.5q-16 0 -28.5 -19.5t-23.5 -46.5l-57 -182q-11 -28 -28 -52.5t-34 -39.5l-135 -137
q-10 -14 -17.5 -23t-9.5 -23q-2 -11 -1 -26.5t12 -23.5l-131 -25q-20 17 -8 70q2 12 16 35.5t37.5 53t55.5 62t71 62.5q-19 -7 -38.5 -9.5t-35.5 -2.5q-45 0 -64.5 25t-12.5 59q5 25 22 65.5t48 80t75.5 68.5t104.5 31h6q4 0 9 -1q19 0 35 0.5t31.5 2t31.5 3.5t36 5
q24 3 43.5 5t37 3t35.5 0.5t39 -1.5q27 5 53 8.5t60 3.5q22 0 39 -6t26.5 -22.5t10.5 -46t-8 -75.5zM386 538q7 18 4 30.5t-14 12.5q-10 0 -23 -12t-27.5 -33t-30 -49.5t-30.5 -60.5q-8 -18 -13 -33t-7 -26q-5 -27 -1.5 -46t25.5 -19q14 0 28 10.5t19 26.5zM741 482
q7 39 8.5 63.5t-2 38.5t-10.5 19t-16 5q-14 0 -29.5 -22.5t-23.5 -54.5l-26 -107q-5 -24 2.5 -42t24.5 -18q10 0 20 5t19 18t17.5 36t15.5 59z" />
    <glyph glyph-name="uni121E" unicode="&#x121e;" horiz-adv-x="823" 
d="M866 479q-13 -68 -46.5 -97t-84.5 -29q-18 2 -30.5 0t-36.5 -11q-17 -4 -32 -7.5t-33 -3.5q-21 0 -34.5 3t-20.5 12t-7.5 26t5.5 46l30 124q7 32 0.5 42.5t-24.5 10.5q-14 0 -29 -14t-21 -35l-124 -440q-3 -8 -5 -19.5t-1 -23.5t4 -22t11 -16l-131 -26q-14 10 -18 29
t2 38l68 232q-23 -7 -46 -9.5t-40 -2.5q-27 0 -46.5 8.5t-32.5 22t-17.5 30.5t-1.5 34q6 33 23.5 70t48.5 69t75.5 54.5t105.5 27.5q13 -1 18 -1h8q32 0 59.5 3t66.5 8q31 5 53 8t46 3h17t22 -1t21.5 -2t16.5 -2q15 2 26 4t20.5 3.5t20 2.5t24.5 1q55 0 71 -31q8 -15 8 -45
q0 -29 -9 -74zM381 535q6 19 2.5 31.5t-14.5 12.5q-13 0 -27.5 -10.5t-28 -29.5t-25.5 -44t-19 -54q-4 -9 -8.5 -28t-8.5 -37q-5 -29 6 -47.5t31 -18.5q11 2 18 7t11 16zM756 489q7 35 7.5 57t-3 34.5t-11.5 17t-18 4.5q-12 -2 -25 -17t-18 -34l-30 -125q-3 -15 -0.5 -25.5
t7.5 -17.5t12 -10t12 -3q18 0 36.5 29t30.5 90z" />
    <glyph glyph-name="uni1228" unicode="&#x1228;" horiz-adv-x="545" 
d="M496 5q-38 -12 -64 -19t-46 -7q-24 0 -37.5 12t-13.5 39q-29 0 -54.5 -5t-57.5 -13q-26 -6 -44 -9.5t-29 -3.5q-41 0 -63 37q-23 37 -11 96q5 29 22 55t42 53q24 26 51.5 53t66.5 63q43 39 72.5 68t52.5 54q29 35 33 55q5 28 2.5 41t-9.5 27l137 27q8 -8 11.5 -23
t0.5 -31q-16 -76 -65 -132q-21 -26 -51 -54.5t-62.5 -57t-64 -56t-54.5 -50.5q-7 -7 -16 -17.5t-17.5 -22.5t-15 -24.5t-8.5 -22.5q-8 -38 8 -65t59 -27q10 0 27 2.5t33 5.5q1 29 16 48t36.5 30.5t45.5 16t42 4.5h6q4 0 8 -1h6q-8 -14 -13 -36q-5 -28 -0.5 -59t18.5 -51z
" />
    <glyph glyph-name="uni1229" unicode="&#x1229;" horiz-adv-x="628" 
d="M605 141q-17 -8 -32.5 -13t-30.5 -5q-38 0 -63 23.5t-24 67.5l-58 -8l-43 -144q-3 -17 -3 -31q0 -13 11 -21l-130 -26q-21 0 -14 37q1 7 8.5 30.5t16 50.5t16.5 51.5t11 33.5l-97 -7q-16 0 -31 2t-26 10.5t-15.5 26t1.5 48.5q7 37 40 74q9 9 36.5 34t58 55.5t55.5 60
t28 46.5q5 21 4.5 37t-7.5 24l139 28q9 -3 12.5 -18.5t0.5 -32.5q-6 -35 -39 -72t-80 -85q-9 -9 -27 -28t-36.5 -41t-33.5 -44t-18 -38q-7 -34 12 -45t62 -5l286 42q10 -6 7 -16q0 -3 -6 -16l-6.5 -13t-2.5 -8q-3 -14 0.5 -29.5t17.5 -35.5z" />
    <glyph glyph-name="uni122A" unicode="&#x122a;" horiz-adv-x="526" 
d="M509 171q-5 -24 -17 -44t-30 -35t-40 -25.5t-45 -14.5l-227 -54q-40 0 -61 37q-25 37 -14 96q6 28 22 53.5t41 51.5q18 19 52.5 52.5t72 69.5t70.5 68.5t48 50.5q31 36 36 57q4 21 3 36.5t-10 31.5l133 26q12 -8 11.5 -23.5t-3.5 -31.5q-6 -31 -23.5 -69t-40.5 -63
q-23 -24 -51 -52t-58.5 -57.5t-60.5 -58t-55 -52.5q-9 -9 -18.5 -19.5t-18 -22t-15 -23.5t-8.5 -23q-7 -36 5.5 -62t47.5 -26q20 0 49 8q25 10 43 34t23 48q5 23 1 44t-14 27l134 27q11 -8 16.5 -25.5t1.5 -36.5z" />
    <glyph glyph-name="uni122B" unicode="&#x122b;" horiz-adv-x="659" 
d="M636 138q-38 -18 -67 -18q-41 0 -63.5 31.5t-18.5 84.5l-35 -8q-12 -4 -21 -17t-16 -30q-7 -19 -14 -51.5t-17 -79.5l-176 -43q-17 -4 -42 -4q-37 0 -59.5 10.5t-29.5 28.5q-6 19 -6.5 40t5.5 53q5 22 21 54t42 60l224 228q14 17 27 33.5t15 28.5t2.5 19.5t-1.5 14
t-5.5 12.5t-9.5 14l145 27q8 -7 10.5 -18t-2.5 -36q-8 -40 -30 -74t-42 -53l-212 -221q-21 -21 -35 -50.5t-19 -57.5q-7 -32 4 -56.5t40 -24.5q8 0 12.5 3t9.5 7q8 45 19.5 78t31.5 60q20 26 54.5 42t91.5 24l161 36q6 -7 4 -17q0 -2 -1.5 -6.5l-3.5 -10.5q-5 -10 -7.5 -18
t-3.5 -13q-4 -17 0 -37.5t18 -44.5z" />
    <glyph glyph-name="uni122C" unicode="&#x122c;" horiz-adv-x="601" 
d="M576 145q-5 -44 -36 -66.5t-94 -30.5q-15 -7 -31 -13t-31.5 -10t-28.5 -6.5t-20 -2.5q-20 0 -27 20l-139 -36q-33 1 -54 12t-31.5 28.5t-12 41t4.5 50.5q5 27 21.5 52.5t39.5 51.5l232 240q11 14 20.5 30t11.5 25q6 29 3 41t-11 26l137 27q13 -8 16.5 -25t0.5 -34
q-5 -24 -22.5 -57.5t-43.5 -59.5l-226 -230q-22 -23 -38 -51t-21 -53q-6 -31 2.5 -54.5t27.5 -24.5q16 1 40.5 7t40.5 12q-2 23 -2.5 42.5t2.5 37.5q6 29 40 52.5t80 29.5q10 1 25 6.5l30 11t29 10t24 4.5q18 0 32.5 -26.5t8.5 -77.5zM481 135q-1 22 -2 37t-5.5 23
t-13.5 9.5t-24 -2.5q-13 -4 -20.5 -12.5t-11 -19.5t-4.5 -24.5t-1 -27.5q3 -42 13 -52t29 -3q25 9 33.5 29.5t6.5 42.5z" />
    <glyph glyph-name="uni122D" unicode="&#x122d;" horiz-adv-x="567" 
d="M519 11q-41 -15 -65.5 -22t-44.5 -7q-25 0 -42 12.5t-19 40.5l-146 -31q-7 0 -16.5 -0.5t-21.5 -0.5q-29 0 -49 6.5t-30.5 25t-11 52t10.5 87.5l27 140q17 88 49 146t78.5 92.5t107 49t135.5 15.5l118 7q9 -4 7 -14q-1 -2 -2 -6t-3 -9q-5 -11 -7.5 -19t-4.5 -15
q-4 -20 -0.5 -38.5t15.5 -43.5q-13 -3 -27.5 -6t-41.5 -4q-20 0 -37.5 5.5t-29 19.5t-15.5 39t4 63q-48 -2 -82 -21t-58 -54.5t-40 -87.5t-29 -119l-23 -119q-17 -86 -8 -126t61 -29l70 14q1 22 12.5 42t30 34.5t43.5 23t52 8.5h29q-5 -8 -8.5 -17.5t-5.5 -20.5
q-5 -29 -0.5 -61.5t18.5 -51.5z" />
    <glyph glyph-name="uni122E" unicode="&#x122e;" horiz-adv-x="631" 
d="M682 521q6 33 4.5 53.5t-7.5 31.5t-16.5 15.5t-22.5 5.5q-17 2 -38 -0.5t-47 -2.5h-116q-128 0 -212.5 -75.5t-115.5 -237.5l-27 -140q-11 -54 -10.5 -87.5t11 -52t30 -25t48.5 -6.5q13 0 22 0.5t17 1.5l146 31q2 -28 19 -40.5t41 -12.5q20 0 45.5 7t66.5 21
q-14 20 -19 52.5t1 61.5q3 19 14 38h-29q-27 0 -52 -8.5t-43.5 -23.5t-30 -35t-12.5 -42l-71 -14q-52 -11 -61.5 29t7.5 126l23 119q16 84 31.5 139.5t33 88.5t39 46.5t50.5 13.5l-17 -89q-8 -41 -6.5 -64.5t10 -35.5t22 -15.5t29.5 -3.5q26 0 39.5 0.5t31.5 0.5
q24 0 45.5 1.5t39.5 6.5q13 5 26 11t24 19t20.5 34.5t16.5 56.5zM577 524q-8 -40 -16 -63t-16.5 -34t-16 -14t-14.5 -3q-8 0 -15 2.5t-10.5 14t-3 34t8.5 62.5q6 29 13 46t14.5 25.5t15 10.5t15.5 2q7 0 13.5 -2t11 -10.5t5.5 -25t-5 -45.5z" />
    <glyph glyph-name="uni1230" unicode="&#x1230;" horiz-adv-x="536" 
d="M491 25l-136 -25q-20 10 -22 29t3 45l62 312q10 52 3.5 83t-40.5 28q-19 -2 -36 -14.5t-33 -43.5t-31.5 -82.5t-30.5 -131.5l-22 -108q-7 -35 -7 -55q0 -19 23 -35l-137 -27q-17 8 -22.5 26.5t0.5 51.5l29 147q4 24 10.5 49t13.5 47.5t13.5 40t12.5 26.5q20 33 55.5 56.5
t94.5 49.5q12 43 15 59.5t5 21.5q3 17 -12 27l136 28q9 -4 14 -10t1 -28l-23 -87q31 -6 53 -13.5t35 -24t15.5 -46t-6.5 -80.5l-49 -231q-6 -34 -4 -53.5t17 -31.5z" />
    <glyph glyph-name="uni1231" unicode="&#x1231;" horiz-adv-x="723" 
d="M728 282q-13 20 -17.5 50t0.5 56q5 18 11 28q-6 6 -31 6q-44 -2 -78.5 -21t-43.5 -65l-45 -10l3 15q9 51 6.5 80.5t-15 46t-35 24t-52.5 13.5l23 87q4 22 -1.5 28t-14.5 10l-135 -28q14 -10 11 -27q-2 -5 -5 -21.5t-15 -59.5q-58 -26 -93.5 -49.5t-55.5 -56.5
q-6 -9 -13 -26.5t-14 -40t-13.5 -47.5t-10.5 -49l-29 -147q-6 -33 -0.5 -51.5t22.5 -26.5l137 27q-11 8 -16 16.5t-6 19t1.5 24t5.5 30.5l22 108q15 80 30.5 131.5t31 82.5t32.5 43.5t37 14.5q34 3 40.5 -28t-3.5 -83l-62 -312q-5 -26 -3 -45t22 -29l135 25q-15 12 -17 31.5
t4 53.5l43 200l47 8q2 -30 16.5 -41.5t45.5 -11.5q17 0 41.5 4t56.5 13z" />
    <glyph glyph-name="uni1232" unicode="&#x1232;" horiz-adv-x="730" 
d="M678 -9q-13 20 -17.5 50t0.5 56q2 9 5 16t6 12q-6 6 -31 6q-44 -2 -78.5 -21t-43.5 -65l-37 -7q-7 0 -9.5 6t-2 16t2.5 23t5 27l50 231q9 51 6.5 80.5t-15.5 46t-35 24t-53 13.5l23 87q4 22 -1 28t-15 10l-135 -28q15 -10 12 -27q-2 -5 -5.5 -21.5t-15.5 -59.5
q-58 -26 -93.5 -49.5t-55.5 -56.5q-6 -9 -15 -38.5t-19.5 -71.5t-22.5 -94t-22 -106q-6 -33 -1 -51.5t22 -26.5l137 27q-11 8 -16 16.5t-6 19t1.5 24t5.5 30.5l22 108q15 80 30.5 131.5t31 82.5t32.5 43.5t37 14.5q34 3 40.5 -28t-3.5 -83l-62 -312q-5 -26 -3 -45t22 -29
l162 28q3 -30 17 -42.5t45 -12.5q17 0 41.5 5t56.5 13z" />
    <glyph glyph-name="uni1233" unicode="&#x1233;" horiz-adv-x="535" 
d="M490 25l-135 -25q-20 10 -22 29t3 45l62 312q10 52 3.5 83t-40.5 28q-39 -4 -69.5 -58t-52.5 -167q-3 -14 -5 -28.5t-1.5 -28t4.5 -25.5t14 -21l-137 -26q-17 8 -22.5 25.5t1.5 50.5q5 26 11.5 52t13.5 49t14 41t12 27q20 33 55.5 56.5t93.5 49.5q12 43 15 59.5t5 21.5
q3 17 -11 27l135 28q9 -4 14.5 -10t1.5 -28l-23 -87q30 -6 52.5 -13.5t35 -24t15 -46t-6.5 -80.5l-49 -231q-6 -34 -4 -53.5t17 -31.5z" />
    <glyph glyph-name="uni1234" unicode="&#x1234;" horiz-adv-x="672" 
d="M649 139q4 22 -0.5 36t-15 21.5t-25.5 9.5t-32 0q-23 -2 -37 -3t-22.5 -1.5t-13.5 -1.5t-10 -1l29 142q9 51 7.5 80.5t-13.5 46t-33.5 24t-52.5 13.5l23 87q4 22 -1 28t-15 10l-135 -28q15 -10 12 -27q-2 -5 -5.5 -21.5t-15.5 -59.5q-58 -26 -93.5 -49.5t-55.5 -56.5
q-6 -9 -12.5 -26.5t-13.5 -40t-13.5 -47.5t-10.5 -49l-29 -147q-6 -33 -1 -51.5t22 -26.5l137 27q-11 8 -16 16.5t-6 19t1.5 24t5.5 30.5l22 108q15 80 30.5 131.5t31 82.5t32.5 43.5t37 14.5q34 3 40.5 -28t-3.5 -83l-62 -312q-5 -26 -3 -45t22 -29l108 9q13 0 30 -4.5
t43 -2.5q26 1 43.5 5.5t30 18.5t21.5 41t18 72zM553 134q-7 -36 -12 -58.5t-11 -34.5t-14.5 -16.5t-20.5 -4.5q-8 0 -15 2.5t-11.5 9t-5.5 17t3 26.5l23 108q13 1 23 1h14q20 -3 26 -15t1 -35z" />
    <glyph glyph-name="uni1235" unicode="&#x1235;" horiz-adv-x="537" 
d="M492 24l-135 -25q-20 10 -22 29t3 45l62 313q10 51 0 80t-46 21q-19 -5 -34.5 -16t-29 -35t-26 -64t-24.5 -103l-30 -153q-3 -17 -5.5 -30.5t-1.5 -24t6 -19t16 -15.5l-137 -28q-17 8 -23 26.5t1 50.5l29 148q4 24 10.5 49t13.5 47.5t14 40t13 26.5q20 33 55 60t93 53
l-15 71q-4 6 -10 13t-19 7l121 40q17 3 23.5 -8.5t12.5 -25.5l25 -92q30 -6 52.5 -14t35 -24.5t15 -46t-6.5 -79.5l-49 -232q-7 -34 -4.5 -53.5t17.5 -31.5z" />
    <glyph glyph-name="uni1236" unicode="&#x1236;" horiz-adv-x="537" 
d="M527 204l-135 -26q-20 11 -22 30t3 45l27 133q10 51 3 82t-41 28q-20 -2 -36.5 -14.5t-32.5 -43.5t-31 -82.5t-30 -131.5l-22 -108q-3 -17 -5.5 -30.5t-1.5 -24t6 -19t16 -15.5l-137 -28q-17 8 -23 26.5t1 50.5l29 148q5 30 10.5 54t10.5 41q5 18 12 34.5t18 33.5
q20 33 55.5 56.5t93.5 49.5q12 43 15 59.5t5 21.5q3 18 -11 28l135 27q9 -4 14.5 -10t1.5 -28l-23 -86q30 -6 52.5 -14t35 -24.5t15 -46t-6.5 -79.5l-14 -52q-7 -34 -4.5 -54t17.5 -31z" />
    <glyph glyph-name="uni1238" unicode="&#x1238;" horiz-adv-x="615" 
d="M551 390l-59 -267q-2 -8 -3 -20.5t0 -26t5 -26t12 -19.5l-137 -28q-20 10 -23.5 27t3.5 50l65 304q11 60 10.5 86t-26.5 25q-15 0 -29.5 -10.5t-29 -39t-30 -80t-31.5 -133.5l-21 -109q-3 -13 -4.5 -27t-0.5 -27.5t7 -24.5t18 -17l-138 -27q-23 10 -27 29t3 51l29 152
q10 52 22 91.5t32.5 71t53 56.5t83.5 48l21 81l-39 -2q-5 -18 -20 -32t-33 -19q-21 -7 -53 -7.5t-60 1.5q22 14 32.5 35t17.5 44q9 37 -17 61q37 4 64.5 5.5t45 -4.5t24.5 -21.5t4 -45.5l216 10q11 43 44 57t102 8q-19 -21 -25 -51q-13 -55 8 -92q-6 0 -15 -1t-19.5 -2
t-19.5 -1.5t-15 0.5q-32 3 -48.5 16.5t-14.5 48.5l-49 -3l-19 -74q26 -2 45 -8t30 -19.5t13.5 -36t-4.5 -57.5z" />
    <glyph glyph-name="uni1239" unicode="&#x1239;" horiz-adv-x="731" 
d="M728 244q-13 20 -17.5 50t0.5 56q4 18 11 28q-9 7 -30 7q-22 -2 -42.5 -7t-37 -15t-28 -26t-15.5 -39l-35 -6l22 98q7 35 4 57.5t-14 36t-30 19.5t-44 8l19 74l49 3q-2 -34 14 -48t48 -17q6 -1 15.5 -0.5t19.5 1.5t19 2t15 1q-10 19 -12 42.5t5 49.5q8 34 25 51
q-69 7 -102.5 -7.5t-44.5 -57.5l-219 -10q3 29 -4 45t-25 22t-45.5 4.5t-64.5 -5.5q26 -24 17 -61q-6 -23 -17 -44t-33 -35q28 -2 60 -1t53 7q18 5 33 19.5t20 31.5l43 2l-21 -81q-51 -23 -83 -48t-52.5 -56.5t-32.5 -71t-22 -91.5l-29 -152q-7 -32 -3 -51t27 -29l134 30
q-13 6 -17.5 18.5t-4.5 27.5t3 30.5t5 28.5l18 97q16 82 31.5 133.5t30 80t29 39t29.5 10.5q26 1 27 -25t-10 -86l-65 -304q-7 -33 -3.5 -50.5t23.5 -26.5l137 28q-8 7 -12 19.5t-5 26t-0.5 26t2.5 20.5l33 150l39 7q3 -29 16.5 -41t45.5 -12q33 0 98 17z" />
    <glyph glyph-name="uni123A" unicode="&#x123a;" horiz-adv-x="746" 
d="M695 -4q-12 19 -16.5 49t0.5 56q2 10 4.5 17t6.5 13q-8 5 -32 5q-44 -2 -78 -21.5t-43 -65.5l-38 -6q-7 0 -9 9.5t-1.5 22.5t3 26t3.5 19l56 270q7 35 4.5 57.5t-13.5 36t-30 19.5t-45 8l19 74l49 3q-2 -34 14.5 -48t48.5 -17q6 -1 15.5 -0.5t19 1.5l19 2t15.5 1
q-20 39 -8 92q7 32 25 51q-69 7 -102 -7.5t-44 -57.5l-215 -10q3 29 -4 45t-24.5 22t-45 4.5t-64.5 -5.5q11 -11 16 -27t0 -34q-5 -23 -16.5 -44t-33.5 -35q29 -2 61 -1t52 7q19 5 34 19.5t20 31.5l38 2l-21 -81q-51 -23 -83 -48t-53 -56.5t-33 -71t-22 -91.5l-29 -152
q-7 -32 -3 -51t27 -29l138 27q-13 6 -18.5 17t-7 24.5t0.5 28t5 26.5l21 109q16 82 31.5 133.5t30 80t29 39t29.5 10.5q26 1 26.5 -25t-10.5 -86l-61 -306q-6 -33 -3.5 -51t22.5 -27l163 33q2 -31 16.5 -42.5t46.5 -11.5q17 0 41 4t56 13z" />
    <glyph glyph-name="uni123B" unicode="&#x123b;" horiz-adv-x="620" 
d="M555 386l-58 -266q-1 -7 -2 -19.5t-0.5 -26.5t4.5 -26.5t12 -19.5l-137 -28q-20 9 -23 27t3 51l63 300q12 61 11.5 87t-26.5 25q-15 0 -29 -5t-27.5 -21.5t-25.5 -47t-23 -81.5l-18 -88q-8 -38 -2.5 -57t18.5 -27l-137 -31q-14 5 -20 25.5t-1 44.5l17 84q6 33 18 63
t33.5 56t54 48.5t79.5 41.5l21 81l-44 -3q-5 -17 -19.5 -31t-32.5 -19q-21 -7 -53 -7.5t-61 1.5q22 13 33.5 34t16.5 44q5 18 0.5 34t-15.5 27q36 5 63.5 6.5t45 -4.5t24.5 -22t4 -45l220 10q11 43 44 57.5t102 7.5q-18 -20 -24 -51q-7 -26 -4.5 -49.5t12.5 -42.5
q-6 0 -15.5 -1t-19.5 -2t-19.5 -1.5t-15.5 0.5q-32 2 -48.5 16t-14.5 47l-49 -2l-19 -74q26 -2 45 -7.5t30 -19t13.5 -36t-4.5 -57.5z" />
    <glyph glyph-name="uni123C" unicode="&#x123c;" horiz-adv-x="694" 
d="M672 142q4 22 -0.5 36t-15 21.5t-25.5 9.5t-32 0q-23 -1 -37 -2t-23 -2t-14 -1.5t-10 -0.5l37 187q7 35 5 57.5t-12.5 36t-28.5 19.5t-44 8l19 74l49 3q-2 -34 14.5 -48t48.5 -17q6 -1 15 -0.5t19 1.5t19.5 2t15.5 1q-22 39 -8 92q7 32 25 51q-69 7 -102.5 -7.5
t-44.5 -57.5l-219 -10q3 29 -4 45t-24.5 22t-45 4.5t-64.5 -5.5q11 -11 16 -27t0 -34q-6 -23 -17 -44t-33 -35q28 -2 60.5 -1t52.5 7q19 5 33.5 19.5t19.5 31.5l44 2l-21 -81q-51 -23 -83 -48t-53 -56.5t-33 -71t-22 -91.5l-29 -152q-7 -32 -3 -51t27 -29l138 27
q-13 6 -19 17t-7 24.5t1 28t5 26.5l21 109q16 82 31.5 133.5t30 80t29 39t29.5 10.5q26 1 26.5 -25t-10.5 -86l-21 -111h-1l-38 -194q-5 -27 -3 -46t22 -29l107 8q13 0 30.5 -4t43.5 -3t43.5 6t30 19t21.5 40.5t18 71.5zM576 138q-7 -36 -12 -58.5t-11 -35t-14.5 -16.5
t-20.5 -4q-16 0 -26.5 11.5t-3.5 43.5l23 107q13 1 23 1h14q21 -2 27 -14t1 -35z" />
    <glyph glyph-name="uni123D" unicode="&#x123d;" horiz-adv-x="621" 
d="M587 390l-60 -267q-2 -8 -2.5 -20.5t0.5 -26t5 -26t12 -19.5l-137 -28q-20 9 -23.5 26.5t3.5 50.5l65 304q11 60 10 86t-27 25q-15 0 -29.5 -10.5t-29 -39t-30 -80t-31.5 -133.5l-21 -109q-3 -12 -5 -26.5t-0.5 -28t7 -24.5t18.5 -17l-137 -27q-23 10 -27 29t3 51l29 152
q10 52 22 91.5t32.5 71t53 56.5t82.5 48l-16 82l-36 -2q-5 -17 -20 -31.5t-33 -19.5q-21 -6 -53.5 -7t-60.5 1q22 14 33 35t17 44q5 17 0.5 33.5t-15.5 27.5q36 4 63.5 5.5t45 -4.5t24.5 -22t4 -45l220 10q11 43 44.5 57.5t102.5 7.5q-18 -20 -24 -51q-16 -53 8 -92
q-6 0 -15.5 -1t-20 -2t-19.5 -1.5t-15 0.5q-32 2 -48.5 16t-14.5 48l-57 -2l19 -75q25 -2 44 -8t30 -19.5t14 -36t-4 -57.5z" />
    <glyph glyph-name="uni123E" unicode="&#x123e;" horiz-adv-x="616" 
d="M552 390l-22 -94q-2 -8 -3 -21t0 -26.5t4.5 -26t11.5 -19.5l-137 -28q-20 10 -23.5 27t3.5 50l29 132q11 60 10.5 86t-26.5 25q-15 0 -29.5 -10.5t-29 -39t-30 -80t-31.5 -133.5l-21 -109q-3 -12 -5 -26.5t-1 -28t7 -24.5t19 -17l-138 -27q-23 10 -27 29t3 51l29 152
q10 52 22 91.5t33 71t53 56.5t83 48l21 81l-40 -2q-5 -17 -19.5 -31.5t-33.5 -19.5q-20 -6 -52 -7t-61 1q22 14 33.5 35t16.5 44q5 18 0 34t-16 27q37 4 64.5 5.5t45 -4.5t24.5 -22t4 -45l215 10q11 43 44.5 57.5t102.5 7.5q-18 -19 -25 -51q-14 -53 8 -92q-6 0 -15.5 -1
t-19.5 -2t-19 -1.5t-15 0.5q-32 3 -48.5 17t-14.5 48l-49 -3l-19 -74q26 -2 45 -8t30 -19.5t13.5 -36t-4.5 -57.5z" />
    <glyph glyph-name="uni1240" unicode="&#x1240;" horiz-adv-x="608" 
d="M333 457q-5 -1 -10.5 -1.5t-10.5 -1.5q-32 -5 -52.5 -35.5t-30.5 -78.5q-8 -42 4 -56t34 -14h20zM523 377q2 11 4 26t-0.5 28.5t-11.5 23.5t-30 10l-17 -1l-44 -181l22 3q16 2 27.5 6.5t20 14.5t15.5 26.5t14 43.5zM630 369q-6 -30 -23 -49t-38.5 -29.5t-45.5 -15
t-44 -5.5l-59 -5l-42 -175q-5 -28 -1 -38.5t19 -23.5l-140 -28q-15 12 -19.5 22t0.5 40q1 6 3 15t6.5 28.5t13 54t23.5 92.5l-93 -9q-16 -1 -31.5 4t-26.5 16.5t-16.5 29.5t-0.5 43q8 37 26.5 62t44 41t55.5 23t62 9l34 2l18 79q3 15 2 28t-19 22l137 27q15 -7 19.5 -19.5
t0.5 -34.5l-23 -95l35 2q147 12 125 -103z" />
    <glyph glyph-name="uni1241" unicode="&#x1241;" horiz-adv-x="608" 
d="M573 108q-11 17 -13.5 43.5t3.5 49.5q2 8 4.5 14t5.5 11q-3 2 -10 4.5t-17 2.5q-36 0 -65.5 -15.5t-39.5 -56.5l-48 -7l27 111l59 5q19 1 43 5.5t46 15t39 29.5t23 49l2 10q22 115 -126 103l-35 -2l24 95q7 41 -20 54l-138 -27q18 -9 19 -22t-2 -28l-18 -79l-33 -2
q-32 -2 -62 -9t-55.5 -23t-44 -41t-26.5 -62q-5 -25 0 -43t16 -29.5t27 -16.5t32 -4l92 9q-15 -58 -23.5 -92.5t-13 -54t-6.5 -28.5t-3 -15q-5 -30 -0.5 -40t20.5 -22l139 28q-15 13 -19 23.5t1 38.5l12 49l51 7q0 -27 12 -38t38 -12q27 -2 83 12zM332 457l-46 -187h-20
q-21 0 -33 14t-4 56q10 48 30 78.5t52 35.5zM523 377q-7 -27 -14 -43.5t-16 -26.5t-20.5 -14.5t-27.5 -6.5l-22 -3l45 181l16 1q21 0 30.5 -10t12 -23.5t0.5 -28.5t-4 -26z" />
    <glyph glyph-name="uni1242" unicode="&#x1242;" horiz-adv-x="630" 
d="M579 -4q-12 19 -16.5 49t0.5 56q2 10 4.5 17t6.5 13q-8 5 -32 5q-44 -2 -78 -21.5t-43 -65.5l-37 -7q-5 0 -7 5t-2.5 12.5t0.5 16t2 14.5l43 175l59 5q19 1 43 5.5t46 15t39 29.5t23 49l2 10q22 115 -125 103l-36 -2l24 95q4 22 -0.5 34.5t-19.5 19.5l-138 -27
q19 -9 19.5 -22t-2.5 -28l-16 -79l-35 -2q-32 -2 -62 -9t-55.5 -23t-44 -41t-26.5 -62q-5 -25 0 -43t16.5 -29.5t27 -16.5t31.5 -4l92 9q-15 -58 -23.5 -92.5t-13 -54t-6.5 -28.5t-3 -15q-5 -30 -0.5 -40t19.5 -22l164 33q2 -31 16.5 -42.5t46.5 -11.5q17 0 41 4t56 13z
M334 457l-48 -187h-20q-21 0 -33 14t-4 56q10 48 30 78.5t52 35.5q5 1 11.5 1.5t11.5 1.5zM523 377q-7 -27 -14 -43.5t-16 -26.5t-20.5 -14.5t-27.5 -6.5l-21 -3l43 181l17 1q21 0 30.5 -10t12 -23.5t0.5 -28.5t-4 -26z" />
    <glyph glyph-name="uni1243" unicode="&#x1243;" horiz-adv-x="675" 
d="M697 368l1 10q22 114 -124 104l-35 -3l23 95q7 41 -20 54l-137 -26q17 -10 18.5 -22.5t-1.5 -28.5l-18 -79l-34 -2q-31 -2 -61.5 -9.5t-56 -23t-44.5 -40.5t-26 -62q-5 -25 0 -43t16.5 -29.5t27 -16.5t31.5 -3l93 8q-12 -49 -21.5 -83.5t-22.5 -57t-31.5 -34t-49.5 -13.5
l-137 -9q-4 -3 -7 -5.5t-4 -6.5q-2 -8 1 -19t1 -19q-2 -11 -12 -28.5t-29 -35.5q11 -8 27 -13t29 -5q38 0 74.5 33t55.5 90q41 0 68.5 2.5t47 7.5t34 14t31.5 23q16 12 26.5 25t19 32t17 46.5t19.5 69.5l59 4q20 1 44 5.5t45.5 15t38.5 29.5t23 49zM400 456l-46 -187h-20
q-21 0 -33.5 14t-4.5 56q9 48 30 78.5t53 35.5zM591 376q-7 -27 -14.5 -43.5t-16.5 -26.5t-20.5 -14.5t-27.5 -6.5l-21 -3l44 181l17 1q21 1 31 -8t12.5 -23t0 -30t-4.5 -27z" />
    <glyph glyph-name="uni1244" unicode="&#x1244;" horiz-adv-x="608" 
d="M541 130q6 31 -13 50.5t-54 16.5l-73 -6l19 74l59 5q19 1 43 5.5t46 15t39 29.5t23 49q13 66 -17.5 92.5t-105.5 20.5l-35 -2l23 95q4 22 -0.5 34.5t-19.5 19.5l-138 -27q19 -9 20 -22t-2 -28l-19 -79l-34 -4q-32 -2 -62 -9t-55 -22t-43.5 -40t-26.5 -62q-5 -25 0 -43
t16.5 -29.5t27 -16.5t31.5 -4l92 9l-49 -190q-6 -30 1 -41t21 -21l107 10q11 0 32 -4.5t46 -2.5q16 1 31 5.5t28 18t23.5 38t18.5 65.5zM333 457l-47 -187h-20q-21 0 -33 14t-4 56q10 48 30.5 78.5t52.5 35.5zM523 377q-7 -27 -14 -43.5t-16 -26.5t-20.5 -14.5t-26.5 -6.5
l-22 -3l42 181l18 1q20 0 29.5 -10t12.5 -23.5t1 -28.5t-4 -26zM454 124q-7 -36 -11.5 -56.5t-10 -30.5t-12.5 -12.5t-18 -2.5q-23 0 -27 21t2 47l20 83l33 2q20 -2 24.5 -15t-0.5 -36z" />
    <glyph glyph-name="uni1245" unicode="&#x1245;" horiz-adv-x="608" 
d="M213 694q10 -26 12.5 -38.5t-1.5 -29.5q-2 -7 -10 -21t-13 -23q-1 -11 6 -18l147 11q3 -8 2.5 -15.5t-2.5 -16.5l-18 -70l-33 -2q-32 -2 -62 -9t-55.5 -23t-44 -41t-26.5 -62q-5 -25 0 -43t16.5 -29.5t27 -16.5t31.5 -4l92 9q-15 -58 -23.5 -92.5t-13 -54t-6.5 -28.5
t-3 -15q-5 -30 0 -40t20 -22l139 28q-15 13 -19 23.5t1 38.5l43 175l59 5q19 1 43 5.5t46 15t39 29.5t23 49l2 10q22 115 -125 103l-35 -2l21 85q5 23 0 35t-20 19q-37 -10 -62.5 -15.5t-42 -8t-24.5 -3t-9 -0.5q14 61 3.5 85t-47.5 29q-15 2 -32.5 -1t-45.5 -11zM332 457
l-46 -187h-20q-21 0 -33 14t-4 56q10 48 30.5 78.5t52.5 35.5zM523 377q-7 -27 -14 -43.5t-16 -26.5t-20.5 -14.5t-26.5 -6.5l-22 -3l44 181l17 1q20 0 29.5 -10t12 -23.5t0.5 -28.5t-4 -26z" />
    <glyph glyph-name="uni1246" unicode="&#x1246;" horiz-adv-x="608" 
d="M619 315l2 10q11 58 -19.5 83.5t-105.5 20.5l-34 -3l10 43q1 3 9 11.5t20 15.5q16 8 30 16t25.5 18.5t19.5 25.5t12 36q7 34 0.5 54t-23 30.5t-41.5 13t-56 2.5t-60.5 -9t-53.5 -24.5t-40.5 -37.5t-21.5 -49q-5 -28 -2 -44t19 -31q11 -14 20.5 -25.5t5.5 -31.5l-5 -21
l-38 -2q-32 -2 -62 -8t-55 -20.5t-43.5 -38.5t-25.5 -61q-5 -25 0 -43t16.5 -29.5t27 -16.5t31.5 -3l93 9q-15 -59 -21.5 -86t-9.5 -38t-3 -13q0 -1 -1 -7q-5 -30 -0.5 -40t20.5 -22l139 28q-15 13 -19 23.5t1 38.5l31 129l59 4q20 1 43.5 4.5t45 12.5t38 27t22.5 48z
M448 494q-6 0 -15 5.5t-16.5 16t-11 26t-0.5 35.5q8 41 25 69t34 28q23 0 34.5 -24t5.5 -57q-10 -55 -26 -77t-30 -22zM324 403l-47 -180l-19 -3q-22 0 -34 15.5t-4 57.5q18 98 82 107zM513 323q-7 -27 -14 -42.5t-15.5 -24t-20 -12t-27.5 -5.5l-21 -3l43 174l17 1
q20 0 29.5 -10t12 -23.5t0.5 -28.5t-4 -26z" />
    <glyph glyph-name="uni1260" unicode="&#x1260;" horiz-adv-x="530" 
d="M485 27l-137 -27q-20 13 -23 33t1 46l1 2l88 413q14 66 6.5 91t-44.5 25q-18 0 -34.5 -16t-30.5 -43t-25 -63.5t-19 -77.5l-56 -289q-8 -37 -8.5 -61t21.5 -38l-138 -23q-20 4 -24 24.5t2 51.5l57 281q28 146 101 210q36 32 89.5 48t119.5 16q34 0 59.5 -8t40 -30
t16.5 -61t-11 -100l-67 -305l-5.5 -33t-1.5 -27.5t6 -22t16 -16.5z" />
    <glyph glyph-name="uni1261" unicode="&#x1261;" horiz-adv-x="714" 
d="M725 312q-13 20 -17.5 50.5t0.5 55.5q5 20 11 29q-6 6 -31 6q-44 -2 -78.5 -21.5t-43.5 -65.5l-46 -9l17 73q13 61 11 100t-16.5 61t-40 30t-59.5 8q-66 0 -119.5 -16t-89.5 -48q-73 -64 -101 -210l-58 -281q-6 -31 -1.5 -51t24.5 -25l138 23q-22 15 -21.5 38.5t7.5 60.5
l57 289q8 42 19.5 78.5t25.5 63.5t30.5 43t33.5 16q37 0 44.5 -25.5t-6.5 -91.5l-88 -413l-1 -2q-5 -26 -1.5 -46t23.5 -33l137 28q-11 6 -16 15.5t-6 21.5t1.5 27.5t5.5 33.5l47 214l48 10q2 -30 16.5 -41.5t45.5 -11.5q37 0 98 16z" />
    <glyph glyph-name="uni1262" unicode="&#x1262;" horiz-adv-x="725" 
d="M674 -4q-12 20 -16.5 50t0.5 56q2 10 5 17t6 12q-8 6 -30 6q-45 -2 -79.5 -21.5t-43.5 -65.5l-40 -8q-8 -1 -11 6.5t-2.5 20.5t3 28.5t5.5 29.5l65 305q13 61 11.5 100t-16 61t-40 30t-59.5 8q-66 0 -119.5 -16t-90.5 -48q-71 -62 -101 -210l-56 -281q-6 -32 -2 -52
t23 -24l139 23q-11 7 -16 16.5t-6 21.5t1.5 27.5t6.5 33.5l56 289q8 41 19 77.5t25 63.5t30.5 43t34.5 16q37 0 44.5 -25t-5.5 -91l-90 -416q-4 -26 -1 -45.5t23 -32.5l169 33q2 -31 15.5 -42.5t45.5 -11.5q17 0 41.5 4t55.5 12z" />
    <glyph glyph-name="uni1263" unicode="&#x1263;" horiz-adv-x="531" 
d="M487 32l-145 -32q-21 13 -25.5 36t0.5 54l87 370q15 75 8 109.5t-42 34.5q-30 0 -53 -40.5t-40 -133.5l-29 -147q-9 -48 -8 -72t18 -36l-137 -18q-20 8 -24.5 32.5t2.5 57.5l31 161q22 112 95 165t202 53q34 0 60 -7.5t41.5 -27.5t19.5 -55.5t-7 -91.5
q-19 -81 -31 -134.5t-20 -87.5t-12 -51.5t-6 -26.5t-3 -13t-2 -11q-2 -13 -4 -24.5t-1 -22.5t6.5 -21.5t18.5 -19.5z" />
    <glyph glyph-name="uni1264" unicode="&#x1264;" horiz-adv-x="662" 
d="M640 143q4 22 -0.5 36t-15.5 21.5t-26 9.5t-32 0q-23 -2 -36 -2.5t-21 -1.5l-12 -1.5t-9 -0.5l49 226q13 61 11 100t-16.5 61t-40 30t-59.5 8q-66 0 -119.5 -16t-89.5 -48q-73 -64 -101 -210l-58 -281q-6 -31 -1.5 -51t24.5 -25l138 23q-22 15 -21.5 38.5t7.5 60.5
l57 289q8 42 19 78.5t25 63.5t30.5 43t34.5 16q37 0 44.5 -25.5t-6.5 -91.5l-87 -404q-5 -26 -2.5 -51.5t22.5 -38.5q26 2 54 3t55 2q12 0 26.5 -4t40.5 -3t44 7t31 22t22.5 44t18.5 73zM543 139q-7 -36 -12.5 -60t-12 -38t-15 -19.5t-20.5 -5.5q-6 0 -9 1.5t-8 4.5
q-8 17 -4.5 46.5t10.5 66.5l12 52q14 1 21 1h12q20 -3 25.5 -15t0.5 -34z" />
    <glyph glyph-name="uni1265" unicode="&#x1265;" horiz-adv-x="723" 
d="M678 28q-11 7 -16 16.5t-6 22t1.5 27.5t6.5 33l66 305q13 61 11.5 100t-16 61t-40 30t-59.5 8q-66 0 -119.5 -16t-90.5 -48q-67 -59 -97 -190l-190 -21q-4 -5 -7 -9.5t-3 -10.5q3 -8 3.5 -21.5t1.5 -18.5q0 -17 -7.5 -33t-24.5 -45q25 -5 41.5 -4.5t33.5 5.5
q37 11 60 46.5t31 84.5l58 8l-1 -1l-57 -281q-6 -32 -2 -52t24 -24l138 23q-22 14 -21.5 38t8.5 61l56 289q8 41 19 77.5t25 63.5t30.5 43t34.5 16q37 0 44.5 -25t-6.5 -91l-88 -413l-1 -3q-4 -26 -1 -45.5t23 -32.5z" />
    <glyph glyph-name="uni1266" unicode="&#x1266;" horiz-adv-x="520" 
d="M509 200l-139 -28q-17 14 -17 38t6 50l45 201q15 78 11.5 112t-38.5 34q-67 0 -106 -199l-54 -278q-6 -31 -4.5 -58t20.5 -44l-143 -28q-23 15 -25 40t5 58l51 257q18 94 59 150.5t89 82.5t87 33t71 7q70 0 100 -37.5t12 -129.5q-9 -40 -15.5 -69t-11.5 -49t-8 -33
t-5 -20q-7 -29 -6.5 -50.5t16.5 -39.5z" />
    <glyph glyph-name="uni1270" unicode="&#x1270;" horiz-adv-x="676" 
d="M690 327q-37 -16 -66 -16q-38 2 -59 36.5t-19 82.5l-66 -8l-87 -322q-4 -21 -4 -41t19 -38l-129 -21q-14 13 -18.5 35.5t3.5 60.5l89 316l-72 -6q-9 -29 -24.5 -53.5t-34 -42t-38.5 -27t-38 -9.5q-12 1 -22 5t-17 13q19 20 28 36.5t13 29.5q1 6 -0.5 21.5t0.5 23.5
q2 9 12 10l200 17l23 94q5 24 5 46q0 23 -14 31l142 27q8 -8 9 -17.5t-3 -21.5l-37 -146l200 19q9 -1 8 -9q-1 -4 -4 -12t-6.5 -16.5t-6 -16l-3.5 -10.5q-7 -31 17 -71z" />
    <glyph glyph-name="uni1271" unicode="&#x1271;" horiz-adv-x="676" 
d="M690 327q-24 40 -17 71l3.5 10.5t6 16t6.5 16.5t4 12q1 8 -8 9l-200 -19l37 146q4 12 3 21.5t-9 17.5l-142 -27q14 -8 14 -31q0 -22 -5 -46l-23 -94l-200 -17q-10 -1 -12 -10q-2 -8 -0.5 -23.5t0.5 -21.5q-4 -13 -13 -29.5t-28 -36.5q7 -9 17 -13t22 -5q18 0 38.5 9.5
t39 27t33.5 42t24 53.5l72 6l-89 -316q-8 -38 -3.5 -60.5t18.5 -35.5l129 21q-19 18 -19 38t4 41l19 72l45 5q2 -20 14 -37t43 -17q17 0 39.5 4t52.5 10q-11 19 -13 46.5t4 50.5q6 17 13 26q-7 5 -28 7q-57 -1 -88 -21t-33 -52l-43 -4l62 232l66 8q-2 -48 19 -82.5t60 -36.5
q28 0 65 16z" />
    <glyph glyph-name="uni1272" unicode="&#x1272;" horiz-adv-x="676" 
d="M690 327q-14 21 -17.5 38t0.5 33l3.5 10.5t6 16t6.5 16.5t4 12q1 8 -8 9l-201 -19l38 146q4 12 3 21.5t-10 17.5l-142 -27q15 -8 15 -31q0 -22 -5 -46l-23 -94l-200 -17q-10 -1 -12 -10q-2 -8 -0.5 -23.5t0.5 -21.5q-4 -13 -13 -29.5t-28 -36.5q7 -9 17 -13t22 -5
q18 0 38 9.5t38.5 27t34 42t24.5 53.5l72 6l-89 -316q-8 -38 -4 -60.5t19 -35.5l159 27q2 -30 16.5 -42t45.5 -12q33 0 98 17q-13 20 -17 50t1 56q3 17 10 28q-6 7 -31 7q-44 -3 -78 -22t-43 -65l-40 -7q-7 0 -9.5 6.5t-2.5 15.5q0 10 1.5 21t3.5 20l87 322l66 8
q-2 -24 3 -45.5t15.5 -37.5t25.5 -25.5t34 -10.5q29 0 66 16z" />
    <glyph glyph-name="uni1273" unicode="&#x1273;" horiz-adv-x="727" 
d="M741 327q-24 40 -17 71q1 3 4 10.5t6 16t6 16.5t4 12q1 8 -8 9l-200 -19l38 146q3 12 2 21.5t-9 17.5l-142 -27q14 -8 14.5 -30.5t-4.5 -46.5l-24 -94l-200 -17q-10 -1 -12 -10q-2 -8 -0.5 -23.5t0.5 -21.5q-4 -13 -13 -29.5t-28 -36.5q14 -16 39 -18q18 0 38.5 9.5
t39 27t33.5 42t24 53.5l72 6l-36 -143q-14 -50 -31 -82t-35.5 -50.5t-37 -26.5t-33.5 -9l-134 -6q-9 -1 -10 -7q-1 -11 0 -24t-1 -22q-3 -14 -12.5 -31.5t-28.5 -37.5q19 -18 46 -18q38 0 74.5 32t55.5 92q60 3 103.5 15t75 34.5t54 56t39.5 80.5l38 157l67 8
q-2 -24 3 -45.5t15 -37.5t25 -25.5t35 -10.5q28 0 65 16z" />
    <glyph glyph-name="uni1274" unicode="&#x1274;" horiz-adv-x="676" 
d="M690 327q-13 21 -16.5 38t0.5 33l3.5 10.5t6 16t6.5 16.5t4 12q1 7 -8 9l-201 -19l38 146q8 25 -7 39l-142 -27q15 -8 15 -31q0 -22 -5 -46l-24 -94l-200 -17q-10 -2 -12 -10t0 -23.5t1 -21.5q-4 -13 -13.5 -29.5t-28.5 -36.5q14 -16 40 -18q18 0 38 9.5t38.5 27t33.5 42
t24 53.5l73 6l-90 -316q-8 -38 -3.5 -60.5t18.5 -35.5q29 2 57 4t57 4q12 0 26.5 -4.5t40.5 -2.5q26 1 44 5.5t30.5 18.5t21.5 41t18 72q4 22 -0.5 36t-15.5 21.5t-26 9.5t-32 0l-79 -7l59 224l67 8q-2 -24 3 -45.5t15.5 -37.5t25.5 -25.5t34 -10.5q30 0 65 16zM477 133
q-7 -36 -12 -58.5t-11 -34.5t-14 -16.5t-20 -4.5q-22 0 -27 18t-2 37l26 108q14 1 22 1h12q20 -4 25.5 -15.5t0.5 -34.5z" />
    <glyph glyph-name="uni1275" unicode="&#x1275;" horiz-adv-x="676" 
d="M683 291q-25 39 -17 70l3.5 10.5t6 16t6.5 16t4 11.5q1 8 -8 10l-200 -19l36 137q3 12 2 21.5t-9 17.5l-151 -26q2 32 0 52t-9 32t-19 17t-30 7q-14 2 -31.5 -1.5t-44.5 -12.5q10 -26 12.5 -38.5t-1.5 -29.5q-2 -8 -8.5 -21.5t-11.5 -21.5q-2 -8 0 -12t5 -8l159 24
q4 -13 2.5 -30.5t-4.5 -34.5l-22 -84l-200 -18q-10 -1 -12 -10q-2 -8 -0.5 -23.5t-0.5 -21.5q-3 -14 -12 -29.5t-28 -36.5q13 -15 39 -17q18 0 38.5 9.5t39 27t33.5 41.5t24 53l72 6l-82 -288q-8 -38 -3.5 -60.5t18.5 -35.5l129 21q-19 18 -19 38t5 41l79 295l66 8
q-2 -49 19 -83.5t60 -36.5q28 0 65 17z" />
    <glyph glyph-name="uni1276" unicode="&#x1276;" horiz-adv-x="676" 
d="M680 277q-13 21 -16.5 38t0.5 33q0 3 3 10.5t6 16t6 16t4 11.5q1 9 -8 10l-200 -19l12 45q8 25 15.5 34t18.5 14q14 6 29.5 13t29.5 17.5t24.5 26.5t15.5 39q6 29 -1.5 47t-25 27.5t-42 13t-53.5 3.5q-26 0 -55 -7t-55.5 -21.5t-46 -37t-25.5 -52.5q-3 -14 -3 -24
t2.5 -18t7.5 -15.5t13 -17.5q11 -13 18.5 -32.5t2.5 -35.5l-7 -32l-199 -17q-10 -1 -12 -10q-2 -8 -1 -23.5t0 -21.5q-4 -14 -13 -30t-28 -36q17 -17 40 -18q18 0 38 9.5t38.5 27t33.5 41.5t24 53l72 7l-73 -266q-8 -38 -3.5 -60.5t18.5 -35.5l129 21q-19 18 -19 38t4 41
l71 272l67 8q-2 -24 3 -45.5t15 -37.5t25.5 -25.5t35.5 -10.5q31 0 64 16zM531 573q-8 -38 -24.5 -67t-39.5 -29q-9 0 -15.5 10.5t-11 25.5t-6.5 30t0 23q9 47 25.5 68t34.5 21q7 0 15.5 -5.5t14.5 -16t8.5 -26t-1.5 -34.5z" />
    <glyph glyph-name="uni1278" unicode="&#x1278;" horiz-adv-x="648" 
d="M657 305q-22 44 -12 72q1 3 4.5 9t7.5 13t7.5 13t4.5 10q1 8 -8 10l-188 -10l38 151h51q-2 -34 15.5 -46.5t49.5 -14.5q6 -1 15 -0.5t19.5 1.5t19.5 2t15 1q-22 41 -8 90q6 31 25 50q-35 2 -60.5 0t-43 -9.5t-28.5 -20.5t-16 -34l-235 -9q3 30 -4 45.5t-24.5 21.5
t-44 4.5t-62.5 -6.5q11 -12 15.5 -27.5t-1.5 -32.5q-6 -23 -16 -44.5t-31 -33.5q27 -2 58.5 -1.5t51.5 7.5q19 6 34 19.5t20 30.5l53 2l-39 -151l-180 -9q-9 0 -11 -9q-2 -8 1.5 -19.5t2.5 -16.5q-5 -14 -15 -29.5t-30 -35.5q18 -18 40 -19q18 -2 37 5.5t36.5 23t33 38
t25.5 51.5l53 2l-79 -303q-8 -38 -4 -60.5t19 -35.5l138 22q-19 18 -19 38t5 41l74 302l54 4q-4 -50 15 -81t57 -33q15 -2 31 1.5t33 10.5z" />
    <glyph glyph-name="uni1279" unicode="&#x1279;" horiz-adv-x="648" 
d="M657 305q-23 43 -13 72q1 3 4.5 9t7.5 13t7.5 13t4.5 10q1 9 -8 10l-187 -10l37 151h52q-2 -34 15 -46.5t49 -14.5q6 -1 15.5 -0.5t19.5 1.5t19 2t15 1q-21 40 -8 90q6 31 25 50q-35 2 -60.5 0t-43 -9.5t-28.5 -20.5t-16 -34l-234 -9q3 30 -4.5 45.5t-24.5 21.5t-44 4.5
t-63 -6.5q11 -12 15.5 -27.5t-0.5 -32.5q-7 -23 -17 -44.5t-31 -33.5q28 -2 59.5 -1.5t51.5 7.5q18 6 33 19.5t20 30.5l53 2l-39 -151l-180 -9q-9 0 -11 -9q-2 -8 1.5 -19.5t2.5 -16.5q-4 -14 -14 -29.5t-30 -35.5q16 -18 39 -19q18 -2 37 5.5t37 23t33 38t25 51.5l54 2
l-80 -303q-8 -38 -3.5 -60.5t18.5 -35.5l138 22q-18 18 -18 38t5 41l15 64l45 3q-1 -32 15.5 -42.5t43.5 -10.5q19 0 61 6q4 1 9 1t11 1q-12 17 -17.5 38.5t-0.5 44.5q2 11 8 21.5t14 17.5q-36 1 -62.5 -2.5t-43.5 -9.5q-29 -13 -37 -51l-42 -2l54 223l54 4q-4 -50 15 -81
t57 -33q15 -2 31.5 1.5t33.5 10.5z" />
    <glyph glyph-name="uni127A" unicode="&#x127a;" horiz-adv-x="648" 
d="M657 305q-23 43 -13 72q1 3 4.5 9t7.5 13t7.5 13t4.5 10q1 9 -8 10l-187 -10l37 151h52q-2 -34 15 -46.5t49 -14.5q6 -1 15.5 -0.5t19.5 1.5t19 2t15 1q-21 40 -8 90q6 31 25 50q-35 2 -60.5 0t-43 -9.5t-28.5 -20.5t-16 -34l-234 -9q3 30 -4.5 45.5t-24.5 21.5t-44 4.5
t-63 -6.5q11 -12 15.5 -27.5t-0.5 -32.5q-7 -23 -17 -44.5t-31 -33.5q28 -2 59.5 -1.5t51.5 7.5q18 6 33 19.5t20 30.5l53 2l-39 -151l-180 -9q-9 0 -11 -9q-2 -8 1.5 -19.5t2.5 -16.5q-4 -14 -14 -29.5t-30 -35.5q16 -18 39 -19q18 -2 37 5.5t37 23t33 38t25 51.5l54 2
l-80 -303q-8 -38 -3.5 -60.5t18.5 -35.5l167 25q2 -31 18.5 -41t43.5 -8q10 1 25 3.5t36 6.5q6 1 22 3q-13 15 -19.5 36.5t-3.5 42.5q2 12 7.5 22.5t13.5 17.5q-36 0 -63 -4.5t-44 -12.5q-29 -13 -34 -52l-36 -5q-6 0 -9 7.5t-3.5 18t1 22t3.5 19.5l73 302l54 4
q-4 -50 15 -81t57 -33q15 -2 31.5 1.5t33.5 10.5z" />
    <glyph glyph-name="uni127B" unicode="&#x127b;" horiz-adv-x="714" 
d="M723 303q-12 23 -15 40t2 32q1 4 4.5 10t7.5 12.5t7.5 13t4.5 10.5q1 9 -8 9l-187 -9l37 153h51q-2 -34 15 -47t49 -15q6 0 15 0.5t19.5 1.5t19.5 2t15 1q-10 20 -13 42t5 48q6 31 25 50q-35 2 -60.5 0t-43 -9.5t-28.5 -20.5t-16 -34l-234 -9q3 30 -4.5 45.5t-24.5 21.5
t-44 4.5t-63 -6.5q11 -12 15.5 -27.5t-1.5 -33.5q-5 -22 -15.5 -43.5t-31.5 -33.5q27 -2 58.5 -1.5t51.5 7.5q19 6 34 19.5t20 30.5l54 2l-37 -154l-181 -8q-10 -1 -12 -10q-2 -8 2 -19t2 -17q-4 -14 -14 -29.5t-30 -35.5q14 -17 39 -19q18 -2 37 5.5t37 23t33.5 38
t25.5 51.5l55 2q-23 -106 -42.5 -167.5t-40 -94t-42.5 -41.5t-49 -10l-134 -6q-10 0 -12 -9v-4t1 -8q3 -18 0 -30q-2 -13 -11 -29t-28 -36q9 -8 21 -12t25 -4q38 0 73.5 29.5t55.5 84.5q75 5 126 27.5t84 60.5q15 18 27.5 36.5t25.5 46t25.5 68t27.5 102.5l53 4
q-5 -49 13.5 -80t58.5 -34q14 -2 30 2t34 10z" />
    <glyph glyph-name="uni127C" unicode="&#x127c;" horiz-adv-x="648" 
d="M657 305q-12 23 -15 40t2 32q1 3 4.5 9t7.5 13t7.5 13t4.5 10q1 9 -8 10l-187 -10l37 151h52q-2 -34 15 -46.5t49 -14.5q6 -1 15.5 -0.5t19.5 1.5t19 2t15 1q-21 40 -8 90q6 31 25 50q-69 4 -103.5 -9.5t-44.5 -54.5l-234 -9q3 30 -4.5 45.5t-24.5 21.5t-44 4.5t-63 -6.5
q11 -12 15.5 -27.5t-0.5 -32.5q-7 -23 -17 -44.5t-31 -33.5q28 -2 59.5 -1.5t51.5 7.5q18 6 33 19.5t20 30.5l53 2l-39 -151l-179 -9q-9 0 -11 -9q-2 -8 1 -19.5t2 -16.5q-4 -14 -14 -29.5t-30 -35.5q16 -18 39 -19q18 -2 37 5.5t37 23t33.5 38t25.5 51.5l53 2l-80 -303
q-8 -38 -3.5 -60.5t18.5 -35.5q29 2 58 3.5t58 3.5q12 0 29.5 -4.5t43.5 -2.5q25 1 42.5 5.5t29.5 17t20 36.5t16 66q4 21 -0.5 34.5t-14.5 20.5t-25 8.5t-31 -0.5q-22 -2 -36 -2.5t-22.5 -1.5t-13.5 -1.5t-10 -0.5l55 221l54 4q-5 -50 14 -81t57 -33q15 -2 31.5 1.5
t33.5 10.5zM471 122q-6 -33 -11 -53.5t-11 -32t-13.5 -15.5t-19.5 -4q-15 0 -21 9.5t-7.5 22.5t1 27.5t4.5 24.5l15 66q14 1 23 1h14q19 -3 24.5 -14t1.5 -32z" />
    <glyph glyph-name="uni127D" unicode="&#x127d;" horiz-adv-x="740" 
d="M738 246q-13 22 -15.5 39.5t2.5 32.5q0 3 3.5 9t7.5 12.5l8 13t5 10.5q1 8 -8 10l-187 -10l29 112q4 17 -18 17l-116 -12q-16 0 -15 11l21 79l57 4q2 -24 18 -34.5t45 -10.5q10 0 22.5 1.5t35.5 4.5q12 2 19 3t11 2q-14 14 -19.5 34t-0.5 43q4 23 22 44q-41 0 -68 -3
t-44.5 -10.5t-27 -21t-13.5 -33.5l-199 -15q3 18 4.5 27.5t1.5 15.5t-1.5 10t-2.5 10q-6 22 -46 31q-40 0 -58.5 -5t-34.5 -18q32 -17 24 -50q-2 -10 -3.5 -17t-4.5 -12t-9 -10.5t-17 -12.5l170 14l-23 -86q-1 -7 4 -13.5t14 -6.5l81 12q18 0 24.5 -5.5t4.5 -17.5l-21 -86
l-180 -9q-11 -2 -12 -9q-2 -9 1.5 -20t2.5 -17q-3 -13 -13.5 -28.5t-30.5 -35.5q16 -19 40 -19q18 -2 37 5.5t37 23t33 38t25 51.5l53 2l-63 -244q-8 -38 -3.5 -60.5t18.5 -35.5l138 22q-18 18 -18 38t5 41l57 243l54 4q-4 -50 14.5 -81t56.5 -33q15 -2 31.5 1.5t34.5 10.5z
" />
    <glyph glyph-name="uni127E" unicode="&#x127e;" horiz-adv-x="648" 
d="M643 233q-13 19 -16 33.5t1 28.5q1 3 4 8t7 11t7.5 11.5t4.5 8.5q1 7 -9 8l-186 -8l13 46q0 2 12.5 9t27.5 15t28.5 15t15.5 9q14 11 24.5 25t13.5 33q3 14 4 23t0.5 15t-2.5 10t-4 9l-2 1q0 1 -1 2q35 10 56 19.5t32.5 19t16 20t6.5 22.5q2 8 3 19t0 24l-119 -8
q11 -21 6 -45q-3 -15 -12 -27t-20 -29l-195 -15q-4 0 -14 10q2 49 -10.5 74t-54.5 25q-3 0 -13 -1.5t-21.5 -4t-21.5 -5.5t-12 -7q6 -3 8.5 -11t3.5 -16.5t0 -15.5t-1 -9q-4 -21 -41 -55q14 -5 28 -7.5t30 -2.5q23 0 36.5 3t22.5 6t15.5 6t14.5 3q6 0 9.5 -1.5t6.5 -3.5
q-17 -13 -33.5 -37.5t-21.5 -45.5q-5 -26 1.5 -41.5t20.5 -32.5q5 -7 11 -12.5t5 -8.5l-7 -26l-178 -7q-10 -1 -12 -9q-2 -7 2 -16.5t3 -14.5q-4 -11 -13.5 -24.5t-29.5 -31.5q17 -14 40 -15q18 -1 37 5.5t36.5 19.5t32 32t23.5 43l54 2l-62 -230q-6 -32 -1 -52t19 -31
l138 18q-19 17 -19.5 34t3.5 34l57 232l52 2q-3 -42 16.5 -69.5t58.5 -29.5q30 -1 64 12zM494 474q-3 -18 -7 -32.5t-10.5 -25.5t-17 -17.5t-27.5 -6.5q-13 0 -21.5 9t-13 21.5t-5.5 27.5t2 29q2 12 8.5 23t15.5 19.5t18.5 13.5t18.5 5q26 0 35.5 -17.5t3.5 -48.5z" />
    <glyph glyph-name="uni1290" unicode="&#x1290;" horiz-adv-x="409" 
d="M426 381l-152 -290q-11 -20 -12 -39.5t8 -27.5l-123 -24q-13 2 -21 12.5t-4 26.5q1 4 5 14t20 43.5t49 98.5t92 178q8 15 0.5 19t-27.5 4l-108 -9q-13 0 -14 11.5t3 22.5l41 126q4 19 1 30t-17 23l136 27q14 -7 20.5 -23t-1.5 -42l-41 -127q-4 -22 8 -22l110 8
q23 1 30.5 -10t-3.5 -30z" />
    <glyph glyph-name="uni1291" unicode="&#x1291;" horiz-adv-x="577" 
d="M565 194q-13 24 -16.5 39t0.5 32q1 6 3.5 14t7.5 18q2 6 3 8.5t1 4.5q3 11 -7 17l-178 -36l47 90q11 19 3.5 30t-30.5 10l-110 -8q-12 0 -8 22l41 127q8 26 1.5 42t-20.5 23l-136 -27q14 -12 17 -23t-1 -30l-41 -126q-4 -11 -3 -22.5t14 -11.5l108 9q20 0 27.5 -4
t-0.5 -19q-59 -113 -92 -178t-49 -98.5t-20 -43.5t-5 -14q-4 -16 4 -26.5t21 -12.5l123 24q-9 8 -8 27.5t12 39.5l95 180l52 11q-6 -62 11.5 -86t54.5 -24q16 0 34 5t44 17z" />
    <glyph glyph-name="uni1292" unicode="&#x1292;" horiz-adv-x="530" 
d="M479 -6q-12 19 -17 49.5t0 56.5q5 19 12 29q-8 5 -32 5q-44 -2 -78.5 -21t-43.5 -65l-45 -7q-10 -1 -12 13.5t10 37.5l154 289q11 19 3 30t-31 10l-110 -8q-12 0 -8 22l41 127q8 26 1.5 42t-20.5 23l-136 -27q14 -12 17 -23t-1 -30l-41 -126q-4 -11 -3 -22.5t15 -11.5
l107 9q20 0 27.5 -4t0.5 -19q-59 -113 -92.5 -178t-49.5 -98.5t-20 -43.5t-5 -14q-4 -16 4 -26.5t22 -12.5l171 31q2 -31 16.5 -42.5t46.5 -11.5q17 0 41 4t56 13z" />
    <glyph glyph-name="uni1293" unicode="&#x1293;" horiz-adv-x="535" 
d="M582 498q-19 -5 -34 -9.5t-31 -4.5q-24 0 -39.5 9.5t-24 26.5t-10 39.5t2.5 48.5q-32 0 -55.5 -6t-41 -19.5t-31.5 -35t-26 -51.5q-8 -23 -16 -52t-16 -67q-2 -10 -3 -22t3.5 -22t15.5 -16.5t33 -6.5l110 18q18 0 27.5 -6.5t4.5 -29.5q-24 -77 -37.5 -119.5t-20.5 -63
t-9.5 -25t-2.5 -5.5q-2 -13 -1 -25.5t13 -26.5l-134 -27q-11 3 -16 20t0 36l64 216q2 9 -9 16.5t-43 7.5l-107 -13q-26 0 -32 13.5t1 47.5l12 62q16 63 37 103.5t50.5 65t68 35t90.5 12.5q27 3 49.5 3.5t51.5 0.5h105q9 0 8 -8q-1 -4 -4.5 -11t-7.5 -14.5t-7.5 -14
t-3.5 -9.5q-2 -8 -2.5 -17.5t0.5 -19.5t5 -19t13 -15z" />
    <glyph glyph-name="uni1294" unicode="&#x1294;" horiz-adv-x="457" 
d="M430 116q-5 -23 -13 -42.5t-23 -33.5t-37.5 -22.5t-56.5 -8.5q-28 0 -52 3.5t-38 3.5q-11 0 -39.5 -8t-66.5 -8q-19 8 -21 25t11 38l179 330q2 11 -4.5 16t-24.5 5l-92 -9q-22 4 -16 30l45 131q5 26 -12 44l125 18q34 0 25 -45l-45 -137q-5 -21 10 -21l88 5q26 -1 38 -7
t4 -23l-103 -187q4 0 8.5 1t12 1.5t18.5 1.5t28 3q45 0 54 -23.5t-2 -80.5zM335 107q3 16 4.5 32t0.5 28.5t-5 21t-12 9.5l-21 -2l-81 -150q-2 -9 8.5 -13.5t36.5 -4.5t43.5 21t25.5 58z" />
    <glyph glyph-name="uni1295" unicode="&#x1295;" horiz-adv-x="538" 
d="M560 380l-170 -304q-16 -30 5 -49l-133 -27q-10 3 -15 15.5t-1 30.5q3 14 10 28l169 305q2 5 -1.5 9.5t-8.5 4.5l-91 -13q-12 0 -16.5 4.5t-2.5 16.5l65 152q5 20 1 33.5t-15 11.5l-45 -6q-7 -38 -19.5 -63t-29 -40t-35 -21t-37.5 -6q-25 0 -47 14q20 23 29 37.5t12 29.5
q1 8 -1.5 22t-0.5 24q1 5 12 9l263 28q30 0 43 -9t8 -37q-1 -3 -2.5 -8t-7.5 -20.5t-18.5 -46t-34.5 -83.5q-2 -10 4 -14t14 -4l68 8q17 0 25.5 -9t3.5 -23z" />
    <glyph glyph-name="uni1296" unicode="&#x1296;" horiz-adv-x="570" 
d="M624 534q-3 -13 -7.5 -28t-11 -29t-14.5 -24.5t-16 -14.5q-15 -9 -33.5 -8t-44.5 1q-12 0 -20 -1t-14 -2t-11.5 -2t-12.5 -1q-18 0 -30 3t-18 12.5t-6 27.5t6 48q1 8 3.5 19t5 23t5.5 23.5t5 20.5q-14 0 -24.5 -1t-19.5 -5.5t-18.5 -12.5t-21.5 -22q-17 -20 -32.5 -71.5
t-29.5 -126.5q-2 -8 -2.5 -16.5t4 -15.5t16 -12t34.5 -5l116 16q17 0 20 -7t0 -23l-59 -208q-8 -21 -4.5 -36t24.5 -25l-153 -31q-24 11 -16 54l60 216q3 20 -12.5 23t-38.5 0l-106 -18q-26 0 -32 13.5t2 55.5l16 60q10 42 24.5 77.5t35 63t48 47t64.5 29.5q18 5 46.5 1
t60.5 -4q29 -1 59 4t65 5q33 0 53 -2.5t29.5 -12t10.5 -28t-5 -50.5zM540 540q8 43 5.5 56.5t-17.5 13.5q-8 0 -14 -3.5t-11 -12.5t-9.5 -26t-9.5 -44q-10 -48 -7 -62t20 -14q7 0 12 3.5t10 13t10 27.5t11 48z" />
    <glyph glyph-name="uni1298" unicode="&#x1298;" horiz-adv-x="616" 
d="M667 518q-22 40 -9 88q4 28 24 49q-35 2 -60.5 0.5t-43 -9t-28 -20.5t-15.5 -34l-217 -8q3 29 -5 44t-25 21t-43.5 4t-62.5 -6q11 -11 15.5 -26.5t-1.5 -32.5q-5 -22 -15.5 -43.5t-30.5 -32.5q26 -2 58 -1t52 7q18 6 32.5 19t19.5 30l45 2l-58 -159q-4 -11 -3 -22t14 -11
l108 9q20 0 27.5 -4t-0.5 -18q-58 -110 -91 -173t-49 -96t-20 -43t-5 -14q-3 -15 5 -25.5t21 -12.5l122 23q-8 8 -7.5 27t11.5 39l151 282q11 19 3.5 29.5t-30.5 9.5l-110 -7q-12 0 -9 20l54 149l43 2q-3 -33 14 -46t49 -15q6 0 16 0.5t20 1.5t19 2t15 1z" />
    <glyph glyph-name="uni1299" unicode="&#x1299;" horiz-adv-x="729" 
d="M713 175q-13 25 -16 40t0 32q2 6 4 13.5t7 18.5q2 7 3 9l2 4q1 10 -8 18l-173 -37l52 98q11 19 3 29.5t-31 9.5l-110 -7q-11 0 -8 20l52 149l44 2q-2 -33 15 -46t49 -15q6 0 15.5 0.5t20 1.5t19.5 2t15 1q-24 39 -9 88q4 28 24 49q-35 2 -60.5 0.5t-43 -9t-28 -20.5
t-16.5 -34l-216 -8q2 29 -5.5 44t-25 21t-44 4t-62.5 -6q11 -11 15.5 -26.5t-0.5 -32.5q-6 -22 -16.5 -43.5t-30.5 -32.5q27 -2 58.5 -1t52.5 7q17 6 32 19t20 30l43 2l-56 -159q-5 -11 -4 -22t15 -11l107 9q20 0 27.5 -4t0.5 -18q-39 -73 -66 -125t-45.5 -87.5t-29 -56.5
t-15.5 -33t-6.5 -17t-2.5 -7q-3 -15 4.5 -25.5t21.5 -12.5l122 23q-8 8 -8 27t11 39l89 165l48 10q-6 -62 12 -86t55 -24q16 0 33.5 5t43.5 16z" />
    <glyph glyph-name="uni129A" unicode="&#x129a;" horiz-adv-x="686" 
d="M634 -11q-13 20 -17.5 50t0.5 56q4 18 11 28q-7 7 -31 7q-22 -2 -42 -7t-36.5 -15t-28 -26t-15.5 -39l-44 -6q-11 0 -10.5 15t11.5 37l151 282q11 19 3.5 29.5t-30.5 9.5l-110 -7q-12 0 -9 20l53 149l44 2q-2 -33 14.5 -46t48.5 -15q6 0 16 0.5t20 1.5t19 2t15 1
q-22 40 -9 88q4 28 24 49q-69 4 -103 -9t-44 -54l-217 -8q3 29 -4.5 44t-25 21t-44 4t-62.5 -6q11 -11 15.5 -26.5t-1.5 -32.5q-5 -22 -15.5 -43.5t-30.5 -32.5q26 -2 58 -1t53 7q17 6 32 19t20 30l44 2l-58 -159q-4 -11 -3 -22t15 -11l107 9q20 0 27.5 -4t-0.5 -18
q-58 -110 -91 -173t-49 -96t-20 -43t-5 -14q-3 -15 3 -26.5t23 -11.5l168 27q2 -31 16.5 -43t45.5 -12q33 0 98 17z" />
    <glyph glyph-name="uni129B" unicode="&#x129b;" horiz-adv-x="561" 
d="M623 574q-20 34 -8 80q4 24 22 45q-62 3 -92 -8.5t-39 -49.5l-192 -8q3 26 -3.5 40t-21.5 19t-39 4t-55 -5q10 -11 13.5 -24.5t-1.5 -30.5q-5 -18 -14 -37t-27 -30q23 -2 51 -1t46 6q16 5 28.5 17.5t17.5 27.5h42l-20 -75q-44 -4 -77.5 -14.5t-59 -32.5t-43.5 -56.5
t-32 -85.5l-10 -51q-5 -29 1 -41.5t31 -12.5l107 12q32 0 43 -6.5t9 -14.5l-58 -191q-5 -17 0 -32t17 -18l134 24q-13 12 -14.5 23.5t0.5 21.5q0 1 2 5t8.5 22t19 56t34.5 106q5 22 -4 27.5t-28 5.5l-110 -18q-22 0 -33 6t-15.5 15t-3.5 19.5t3 19.5q6 34 12.5 58t16.5 44
q11 26 23 44.5t29.5 29.5t43.5 16t66 5q-8 -46 8 -78t63 -32q35 0 68 16q-16 13 -18.5 31t0.5 32q0 3 3.5 8.5t7.5 12.5t7.5 13t4.5 10q1 7 -9 7l-137 -3l21 77h42q-2 -29 13 -40.5t44 -13.5q5 0 13.5 0.5t17.5 1t17 1.5t14 1z" />
    <glyph glyph-name="uni129C" unicode="&#x129c;" horiz-adv-x="625" 
d="M667 518q-22 40 -9 88q4 28 24 49q-69 4 -103 -9t-44 -54l-217 -8q3 29 -4.5 44t-25 21t-44 4t-62.5 -6q11 -11 15.5 -26.5t-1.5 -32.5q-5 -22 -15.5 -43.5t-30.5 -32.5q26 -2 58 -1t52 7q18 6 33 19t20 30l45 2l-62 -169q-5 -22 17 -28l93 8q18 0 24.5 -3.5t4.5 -14.5
l-174 -304q-13 -19 -10.5 -34.5t21.5 -23.5q38 0 66 7.5t39 7.5q15 0 38.5 -3.5t52.5 -3.5q33 0 56 7.5t37.5 21t22.5 31.5t12 39q10 52 0.5 74t-54.5 22q-35 -3 -46.5 -4t-19.5 -2l99 170q8 16 -4 22t-38 7l-88 -4q-13 0 -10 18l56 162l43 2q-2 -33 14.5 -46t48.5 -15
q6 0 16 0.5t20 1.5t19 2t15 1zM501 99q-7 -34 -24.5 -53t-42.5 -19q-26 0 -37 3.5t-9 11.5l79 139l20 1q9 0 13 -7.5t5.5 -19.5t0 -26.5t-4.5 -29.5z" />
    <glyph glyph-name="uni129D" unicode="&#x129d;" horiz-adv-x="552" 
d="M614 574l-165 -10l-12 -49l34 3q17 2 24 -7t1 -23l-59 -125q-3 -15 6 -15l73 9q13 2 20.5 0t10.5 -6.5t2.5 -9.5t-1.5 -8l-156 -260v-1q-8 -17 -9.5 -27t0.5 -27l-124 -18q-11 0 -18 13.5t-3 33.5q3 13 10 26l154 245q3 12 -26 12l-54 -6q-12 0 -17.5 2.5t-2.5 16.5
l58 131q3 12 -8 12l-57 -7q-18 -65 -53 -90.5t-75 -25.5q-12 0 -23 2t-22 7q20 23 29.5 40t12.5 31q1 5 -1.5 17t-2.5 15q1 5 4.5 6t8.5 2l158 17l14 59l-175 -11q8 8 14.5 21.5t8.5 28.5q2 14 -1 30.5t-11 33.5q14 8 28.5 11.5t28.5 5.5q21 1 36 -3t24.5 -16t13 -33
t2.5 -53l168 10q14 55 39.5 83.5t69.5 30.5q11 2 22.5 -0.5t22.5 -6.5q-11 -14 -20.5 -33t-11.5 -36q-2 -14 -0.5 -22t10.5 -26z" />
    <glyph glyph-name="uni129E" unicode="&#x129e;" horiz-adv-x="574" 
d="M613 458q5 26 4 41.5t-11.5 23.5t-30.5 10t-52 2q-24 0 -45.5 -2t-41.5 -4l22 82l55 1q-2 -29 13.5 -41t43.5 -14q5 0 13.5 1t17.5 1.5t17 1.5t14 1q-20 34 -7 79q4 25 20 44q-61 5 -90.5 -7.5t-39.5 -49.5l-208 -7q3 26 -3.5 39.5t-21.5 18.5t-39 3.5t-55 -5.5
q9 -10 13 -23t-2 -30q-4 -18 -13 -37t-28 -30q24 -2 52 -1t45 6t29.5 17t17.5 28h42l-21 -76q-16 1 -31 -2q-73 -16 -109 -62.5t-55 -118.5l-16 -60q-6 -35 0.5 -45.5t32.5 -10.5l104 14q23 3 38.5 0t13.5 -20l-53 -181q-7 -36 17 -45l152 27q-22 8 -25.5 21t3.5 30l53 173
q2 14 -1 20t-20 6l-116 -14q-23 0 -34.5 4t-16.5 10t-4.5 13t1.5 13q12 64 26.5 111.5t31.5 64.5q12 12 21 19t18 10.5t19.5 4.5t24.5 1q-5 -15 -9.5 -36.5t-6.5 -34.5q-5 -26 -4.5 -41.5t6.5 -23.5t18 -10t30 -2q14 0 23.5 2t33.5 2q26 0 45 -0.5t33 6.5q8 4 15.5 13
t13.5 20.5t10.5 24t6.5 24.5zM529 461q-5 -25 -9.5 -40t-9 -23t-9.5 -10.5t-11 -2.5q-17 0 -20.5 11.5t4.5 52.5q4 22 8 36t8.5 22t10.5 10.5t14 2.5q14 0 17.5 -11t-3.5 -48z" />
    <glyph glyph-name="uni12A0" unicode="&#x12a0;" horiz-adv-x="629" 
d="M585 29l-156 -32q-14 17 -16.5 38t-0.5 63l5 122q1 57 -0.5 88.5t-6.5 46.5t-12.5 17t-16.5 1l-22 -3q-56 -87 -88 -139.5t-48 -82t-20 -42.5t-5 -21q-2 -19 4 -33.5t21 -17.5l-142 -34q-11 11 -16 31.5t-1 38.5q2 9 5.5 20.5t12.5 30t24 46.5t39.5 68.5t59 96.5
t82.5 131l-103 -30q7 8 13 23.5t8 31.5q3 16 4.5 32.5t-1 31.5t-9.5 28t-21 21l144 29q7 -4 12.5 -16t6.5 -26l-11 -106l121 25l-84 -121l131 19q29 0 41 -21t11 -66l-3 -195q-1 -36 3.5 -59t34.5 -35z" />
    <glyph glyph-name="uni12A1" unicode="&#x12a1;" horiz-adv-x="751" 
d="M742 209q-13 25 -16.5 39.5t-0.5 31.5q2 6 4.5 14t7.5 18q2 6 3 8.5t1 4.5q3 11 -7 18l-184 -39v14q1 45 -11 66t-41 21l-131 -19l84 121l-121 -25l11 106q-1 14 -6.5 26t-12.5 16l-144 -29q14 -8 21 -21t9.5 -28t1 -31.5t-4.5 -32.5q-2 -16 -8 -31.5t-13 -23.5l103 30
q-48 -75 -82.5 -131t-59 -96.5t-39.5 -68.5t-24 -46.5t-12.5 -30t-5.5 -20.5q-4 -18 1 -38.5t16 -31.5l142 34q-15 3 -21 17.5t-4 33.5q1 8 5 21t20 42.5t48 82t88 139.5l22 3q9 1 16.5 -1t12.5 -17t6.5 -46.5t0.5 -88.5l-5 -122q-2 -42 0.5 -63t16.5 -38l156 32
q-30 12 -34.5 35t-3.5 59l2 165l49 9q-6 -62 12 -85.5t55 -23.5q16 0 33.5 5t43.5 16z" />
    <glyph glyph-name="uni12A2" unicode="&#x12a2;" horiz-adv-x="813" 
d="M762 -4q-13 19 -17.5 49t0.5 56q2 10 5 17t6 13q-8 5 -31 5q-44 -2 -78.5 -21.5t-43.5 -65.5l-32 -8q-8 0 -12.5 7.5t-7 19.5t-3 26.5t-0.5 28.5l3 195q1 45 -11 66t-41 21l-131 -19l84 121l-122 -25l11 106q-1 14 -6 26t-12 16l-145 -29q15 -8 22 -21t9 -28t0.5 -31.5
t-3.5 -32.5t-8 -31.5t-13 -23.5l102 30q-48 -75 -82.5 -131t-58.5 -96.5t-39 -68.5t-24 -46.5t-13 -30t-6 -20.5q-4 -18 1.5 -38.5t15.5 -31.5l143 34q-15 3 -21.5 17.5t-3.5 33.5q1 8 5 21t20 42.5t48 82t88 139.5l22 3q9 1 16.5 -1t12 -17t6 -46.5t0.5 -88.5l-5 -122
q-2 -42 1 -63t17 -38l172 36q2 -31 16.5 -42.5t45.5 -11.5q17 0 41.5 4t56.5 13z" />
    <glyph glyph-name="uni12A3" unicode="&#x12a3;" horiz-adv-x="626" 
d="M582 32l-156 -32q-15 17 -17 38t0 63l4 121q1 58 -0.5 89.5t-6.5 46t-12.5 17t-16.5 1.5l-23 -2q-47 -63 -75 -101.5t-43 -61t-20 -33t-6 -17.5q-2 -16 3.5 -28t14.5 -14l-130 -25q-11 8 -16.5 25t-2.5 31q3 10 10.5 27t28.5 51t61 91t107 147l-101 -29q7 7 12.5 22
t7.5 31q3 16 4 33t-1 32t-9 27.5t-22 20.5l146 29q7 -3 12 -15t6 -26l-12 -107l118 26l-83 -121l131 19q29 0 41 -21.5t10 -66.5l-3 -195q0 -35 4.5 -58t34.5 -35z" />
    <glyph glyph-name="uni12A4" unicode="&#x12a4;" horiz-adv-x="735" 
d="M703 100q4 27 4.5 47t-6.5 32t-22 17t-43 2l-91 -12l6 132q1 45 -11 66t-41 21l-131 -19l84 121l-122 -25l11 106q-1 14 -6 26t-12 16l-145 -29q15 -8 22 -21t9 -28t0.5 -31.5t-3.5 -32.5t-8 -31.5t-13 -23.5l102 30q-48 -75 -82.5 -131t-58.5 -96.5t-39 -68.5t-24 -46.5
t-13 -30t-6 -20.5q-4 -18 1.5 -38.5t15.5 -31.5l143 34q-15 3 -21.5 17.5t-3.5 33.5q1 8 5 21t20 42.5t48 82t88 139.5l22 3q9 1 16.5 -1t12 -16t6 -44.5t0.5 -85.5l-10 -179q0 -14 7.5 -27t16.5 -18q15 0 33.5 2t39.5 4.5t42.5 4.5t41.5 2q42 -1 75.5 22t39.5 63zM612 96
q-2 -34 -14.5 -51.5t-48.5 -17.5q-11 0 -11.5 15t0.5 36l5 93l40 5q9 0 15 -3t9.5 -11.5t4.5 -24.5t0 -41z" />
    <glyph glyph-name="uni12A5" unicode="&#x12a5;" horiz-adv-x="631" 
d="M586 27q-30 11 -35 31.5t-4 52.5v183q1 41 -12 59.5t-43 18.5l-130 -17l70 103l-120 -23l78 114l-99 -22q17 15 24 44q5 22 -2.5 38.5t-20.5 21.5q-14 7 -41 4t-65 -11q14 -10 14 -35q-1 -22 -12 -45.5t-27 -40.5q23 1 51 1.5t42 3.5l-73 -111l95 20
q-70 -102 -111.5 -165.5t-63 -101.5t-29 -56.5t-10.5 -30.5q-3 -17 2.5 -35.5t16.5 -27.5l142 30q-14 3 -21.5 16.5t-5.5 29.5q1 7 5 20t20 41t47 76.5t86 127.5l22 3q9 1 16.5 -1t12.5 -15.5t7.5 -42t1.5 -80.5l-4 -116q0 -38 2.5 -57t17.5 -35z" />
    <glyph glyph-name="uni12A6" unicode="&#x12a6;" horiz-adv-x="610" 
d="M582 113l-147 -27q-14 12 -17 26.5t-2 45.5l3 87q0 41 -2 66.5t-7 39t-12 17.5t-17 3l-21 -2q-57 -87 -89 -140t-48 -82.5t-20 -42.5t-5 -21q-3 -19 4 -33.5t21 -17.5l-142 -34q-11 11 -16 31.5t-2 38.5q2 9 6.5 20.5t13 30t23.5 46.5t39.5 68.5t59 96.5t82.5 131
l-102 -30q7 8 12.5 23.5t7.5 31.5q3 16 4 33t-1 32t-9 27.5t-22 20.5l146 29q7 -3 12 -15.5t6 -26.5l-12 -106l122 25l-83 -120l130 18q15 0 24.5 -7.5t15.5 -20t8.5 -28t2.5 -31.5v-96q0 -45 9 -75t24 -32z" />
    <glyph glyph-name="uni12A8" unicode="&#x12a8;" horiz-adv-x="608" 
d="M563 28l-137 -28q-20 14 -22 37t6 64l61 276q13 63 8 91.5t-40 28.5q-29 0 -51 -25t-38.5 -65t-29 -89.5t-21.5 -97.5l-23 -117q-2 -12 -3.5 -22.5t0 -19.5t7.5 -17.5t19 -15.5l-135 -28q-23 14 -25.5 37.5t5.5 65.5l24 117q5 25 12 52.5t17.5 54t25 51t33.5 44.5
l-121 -13q11 20 21 48t17 57q4 19 5.5 30t0.5 19.5t-4 16t-9 18.5l138 29q22 0 19 -16l-36 -151q20 12 39.5 22t41.5 17.5t47 12t55 4.5q47 0 77 -9.5t43 -30.5q27 -37 10 -128l-55 -247q-5 -25 -5 -44q0 -18 23 -29z" />
    <glyph glyph-name="uni12A9" unicode="&#x12a9;" horiz-adv-x="771" 
d="M771 255q-14 14 -20.5 36t-3.5 44q4 22 21 40q-72 -3 -107 -19q-29 -12 -34 -52l-38 -7l11 51q8 45 6 77t-16 51q-24 40 -120 40q-30 0 -55 -4.5t-46.5 -12t-41.5 -17.5t-40 -22l36 151q3 16 -19 16l-138 -29q6 -11 9 -18.5t4 -16t-0.5 -19.5t-5.5 -30q-7 -29 -16.5 -57
t-21.5 -48l121 13q-38 -41 -58 -96t-30 -106l-23 -117q-8 -42 -6 -65.5t25 -37.5l136 28q-13 7 -19 15.5t-7.5 17.5t0 19.5t3.5 22.5l23 117q9 48 21.5 97.5t29 89.5t38 65t50.5 25q35 0 40.5 -28.5t-7.5 -91.5l-62 -276q-8 -41 -6 -64t22 -37l137 28q-23 11 -23.5 27
t4.5 42l40 182l41 8q1 -16 6 -25t13.5 -14t19.5 -6t25 0l24 3t36 6q4 1 9 1.5t13 2.5z" />
    <glyph glyph-name="uni12AA" unicode="&#x12aa;" horiz-adv-x="781" 
d="M732 5q-14 14 -21 37t-5 45q1 11 6 21.5t12 20.5q-36 -5 -63 -11t-44 -15q-14 -7 -21.5 -20t-9.5 -33l-34 -6q-11 1 -10 21.5t5 40.5l53 242q17 92 -9 128q-26 40 -120 40q-31 0 -56 -4.5t-46.5 -12t-41 -17.5t-39.5 -22l36 151q3 16 -20 16l-138 -29q6 -11 9.5 -18.5
t4 -16t-1 -19.5t-5.5 -30q-6 -29 -16 -57t-22 -48l122 13q-19 -20 -33.5 -44.5t-25 -51t-17.5 -54t-12 -52.5l-24 -117q-8 -42 -5.5 -65.5t25.5 -37.5l135 28q-13 7 -19 15.5t-7.5 17.5t0 19.5t3.5 22.5l23 117q9 48 21.5 97.5t29 89.5t38 65t50.5 25q35 0 40.5 -28.5
t-7.5 -91.5l-61 -276q-8 -41 -6.5 -64t21.5 -37l158 33q4 -30 21.5 -39.5t45.5 -5.5q8 1 23.5 4t36.5 8q5 2 10 2.5t11 2.5z" />
    <glyph glyph-name="uni12AB" unicode="&#x12ab;" horiz-adv-x="608" 
d="M563 28l-137 -28q-20 14 -21.5 37t6.5 64l61 276q13 63 7.5 91.5t-39.5 28.5q-29 0 -49.5 -18.5t-35 -48.5t-24 -66.5t-16.5 -72.5l-12 -60q-5 -25 -2.5 -46.5t24.5 -37.5l-135 -27q-15 8 -21.5 31.5t-0.5 55.5l15 78q4 19 11.5 39t17.5 39t21.5 34.5t23.5 24.5l-122 -13
q12 20 22 48t17 57q4 19 5.5 30t0.5 19.5t-4.5 16t-9.5 18.5l138 29q23 0 20 -16l-36 -151q20 12 39.5 22t41 17.5t46.5 12t56 4.5q94 0 120 -40q27 -37 10 -128l-55 -247q-5 -25 -5 -44q0 -18 22 -29z" />
    <glyph glyph-name="uni12AC" unicode="&#x12ac;" horiz-adv-x="743" 
d="M720 137q4 22 -0.5 36t-15 21.5t-26 9.5t-31.5 0l-84 -6l37 150q17 91 -10 128q-13 21 -43 30.5t-77 9.5q-30 0 -55 -4.5t-47 -12t-41.5 -17.5t-39.5 -22l36 151q3 16 -19 16l-138 -29q6 -11 9 -18.5t4 -16t-0.5 -19.5t-5.5 -30q-7 -29 -17 -57t-21 -48l121 13
q-19 -20 -33.5 -44.5t-25 -51t-17.5 -54t-12 -52.5l-24 -117q-8 -42 -5.5 -65.5t25.5 -37.5l135 28q-13 7 -19 15.5t-7.5 17.5t0 19.5t3.5 22.5l23 117q9 48 21.5 97.5t29 89.5t38.5 65t51 25q35 0 40 -28.5t-8 -91.5l-61 -276q-8 -41 -6 -64t22 -37q33 2 53 3t31.5 2
t17 1.5t10.5 0.5q12 0 27.5 -4.5t41.5 -2.5q26 1 43.5 6t30 19t21.5 40.5t18 71.5zM623 132q-7 -36 -12.5 -58.5t-11.5 -34.5t-14 -16.5t-20 -4.5q-13 0 -19.5 5.5t-8.5 15t-1 21.5t4 25l19 96q14 1 23 1h14q20 -4 25.5 -15.5t1.5 -34.5z" />
    <glyph glyph-name="uni12AD" unicode="&#x12ad;" horiz-adv-x="581" 
d="M281 465l41 146q2 8 -4 12.5t-16 4.5l-134 -22q6 -11 6.5 -38t-4.5 -54q-3 -13 -7 -28t-9 -29.5t-10.5 -27t-10.5 -20.5l98 12l5 2q-13 -10 -27.5 -26.5t-27 -33.5t-21.5 -33.5t-11 -26.5q-3 -14 7 -14h4l62 12q-17 -9 -34 -28.5t-32.5 -45t-27.5 -53.5t-18 -54l-6 -34
q-2 -27 0 -53.5t14 -32.5l149 29q-15 4 -20 30t2 59q6 30 15 60t20.5 56.5t23.5 47.5t23 32q7 7 14.5 13.5t6.5 14.5q-1 6 -8 6h-11l-25 -4q-8 -2 -13 -2q-15 0 -12 17l2 8t3 7q14 27 31.5 51t36 41.5t38 28t37.5 10.5q21 0 30 -14.5t10.5 -36.5t-3.5 -48.5t-11 -50.5
l-69 -254q-14 -48 -11.5 -69t18.5 -32l140 29q-14 17 -13.5 37.5t5.5 43.5l73 274q20 74 -14.5 106t-123.5 32q-51 0 -98 -15t-83 -42z" />
    <glyph glyph-name="uni12AE" unicode="&#x12ae;" horiz-adv-x="608" 
d="M590 166l-133 -18q-20 8 -23 29.5t2 45.5l39 154q4 19 5 40t-2 39t-12.5 29.5t-26.5 11.5q-29 0 -51 -25t-38.5 -65t-29 -89.5t-21.5 -97.5l-23 -117q-2 -12 -3.5 -22.5t0 -19.5t7.5 -17.5t19 -15.5l-135 -28q-23 14 -25.5 37.5t5.5 65.5l24 117q5 25 12 52.5t17.5 54
t25 51t33.5 44.5l-121 -13q11 20 21 48t17 57q4 19 5.5 30t0.5 19.5t-4 16t-9 18.5l138 29q22 0 19 -16l-36 -151q20 12 39.5 22t41.5 17.5t47 12t55 4.5q47 0 77 -9.5t43 -30.5q13 -19 16 -54t-4 -63l-29 -116q-3 -17 -3 -36t20 -41z" />
    <glyph glyph-name="uni12C8" unicode="&#x12c8;" horiz-adv-x="676" 
d="M702 393q-3 -17 -6.5 -35t-8.5 -32q-20 -62 -42 -102.5t-52.5 -65t-73 -36t-104.5 -14.5l-102 -7q-75 -32 -124 -32q-59 0 -84 42t-5 129q28 126 97 203t188 90l153 8l-3 -14q17 10 38 14.5t41 4.5q22 0 42 -8t33 -26t17.5 -47t-4.5 -72zM385 475q7 37 -15 37
q-13 1 -31.5 -15t-39 -49.5t-40.5 -85t-36 -122.5q-15 -78 -15 -114q0 -35 30 -35q11 0 23 13t23 32t19.5 41t13.5 41q21 79 34 127t20 75t10 38t4 17zM585 393q12 61 3.5 94.5t-28.5 33.5q-18 0 -30 -17l-77 -277q-13 -52 -9 -74.5t30 -22.5q17 8 27.5 20t22.5 37
q14 25 29 75t32 131z" />
    <glyph glyph-name="uni12C9" unicode="&#x12c9;" horiz-adv-x="830" 
d="M791 57q-10 21 -13.5 41.5t3.5 46.5q1 4 4 11.5l6 15t5.5 14t4.5 8.5q-5 3 -12 6t-18 4q-22 1 -42.5 -2.5t-38 -12.5t-30.5 -24t-19 -39l-65 -4q19 12 32.5 28t25 38.5t21.5 50.5t22 64q4 12 8 31t7 34q8 43 3.5 72t-17.5 47t-33 26t-42 8q-20 0 -41 -4.5t-37 -13.5l2 13
l-150 -7q-59 -6 -104.5 -29.5t-80 -61.5t-59 -89.5t-41.5 -113.5q-17 -85 7.5 -127.5t82.5 -42.5q49 0 123 33q23 2 48 3t47 3q21 -1 39 1.5t32.5 6t26 6.5t20.5 3l121 7q0 -32 12.5 -45t43.5 -15q35 -3 96 9zM379 451q-2 -6 -4.5 -17t-10 -38t-20.5 -75t-34 -127
q-5 -18 -13.5 -40.5t-19.5 -42t-23 -32.5t-23 -13q-30 0 -30.5 35.5t14.5 113.5q16 71 36.5 123t40.5 85.5t38.5 49.5t31.5 16q25 0 17 -38zM575 368q-17 -81 -32.5 -130.5t-29.5 -75.5q-12 -23 -22.5 -36t-27.5 -21q-26 0 -30 23t9 75l77 276q13 19 31 19q20 0 28 -34
t-3 -96z" />
    <glyph glyph-name="uni12CA" unicode="&#x12ca;" horiz-adv-x="638" 
d="M591 18q-14 13 -22.5 35.5t-6.5 44.5q1 11 5 22t12 19q-37 -5 -63.5 -12t-42.5 -15q-29 -16 -32 -56l-37 -7q-13 0 -11.5 21.5t8.5 50.5l43 187q110 15 163 52q13 10 23.5 20.5t19.5 25t16 34t13 48.5q13 64 1 100t-55 36h-22q-13 0 -28.5 -1t-30.5 -3.5t-26 -6.5l2 7
l-119 -5q-53 -5 -96.5 -17.5t-77.5 -36.5t-57.5 -61t-36.5 -91q-16 -63 2 -99.5t65 -36.5q18 0 42.5 5.5t62.5 17.5l-53 -202q-3 -14 -5 -29t-1.5 -28t3.5 -23t11 -14l183 39q5 -30 22 -38t45 -4q19 3 60 14q5 2 10.5 3t10.5 4zM376 570l-54 -215q-8 -29 -16.5 -37t-22.5 -9
q-33 1 -36 32.5t10 85.5q12 49 25 80.5t26.5 50t26 26.5t21.5 10q25 0 20 -24zM567 503q-5 -27 -12.5 -56.5t-18.5 -54t-26 -42.5t-34 -23q-16 -3 -20 5t-3 13l60 237q10 22 28 23q20 0 27.5 -27.5t-1.5 -74.5z" />
    <glyph glyph-name="uni12CB" unicode="&#x12cb;" horiz-adv-x="639" 
d="M376 570q5 24 -20 24q-9 -2 -21.5 -10t-26 -26.5t-26.5 -50t-25 -80.5q-13 -54 -10 -85.5t36 -32.5q14 1 22.5 9t16.5 37zM684 488q-6 -29 -13 -48.5t-16 -34t-19.5 -25t-23.5 -20.5q-27 -19 -70 -31.5t-98 -20.5l-43 -192q-7 -30 -6.5 -53.5t17.5 -30.5l-151 -32
q-8 4 -11 14t-3.5 23t1.5 28t5 29l52 202q-38 -12 -62.5 -17.5t-42.5 -5.5q-47 0 -65 36.5t-2 99.5q13 54 36.5 91t57.5 61t77.5 36.5t96.5 17.5l119 5l-2 -7q11 4 27 7t32.5 4.5t31 2.5t22.5 1q43 0 55.5 -32t-2.5 -108zM573 503q9 47 -1.5 74.5t-30.5 27.5q-18 -1 -28 -23
l-59 -237q-2 -5 2 -13t20 -5q19 5 35 23t28 42.5t20.5 54t13.5 56.5z" />
    <glyph glyph-name="uni12CC" unicode="&#x12cc;" horiz-adv-x="642" 
d="M686 483q6 30 5.5 55.5t-7.5 44t-19.5 29.5t-31.5 11h-23t-31.5 -1t-33 -3t-27.5 -6l2 7l-119 -5q-53 -5 -96.5 -17.5t-77.5 -36.5t-57.5 -61t-36.5 -91q-16 -63 2 -99.5t65 -36.5q18 0 42.5 5.5t62.5 17.5l-54 -212q-7 -29 -5 -52t18 -32q55 3 79 4.5t35 2.5t19 1
q9 0 17.5 -0.5t19.5 -1t28 0.5q18 1 33.5 4.5t29 15t24.5 34.5t19 63q7 34 -12 56t-57 17l-84 -11l29 122q55 8 99 18.5t70 29.5q13 10 23.5 20.5t19.5 24.5t16.5 34t13.5 48zM376 570l-54 -215q-8 -29 -16.5 -37t-22.5 -9q-33 1 -36 32.5t10 85.5q12 49 25 80.5t26.5 50
t26 26.5t21.5 10q25 0 20 -24zM574 499q-5 -27 -14 -55.5t-21 -52.5t-28 -41.5t-35 -22.5q-16 -3 -20 5t-2 13l59 237q10 22 28 23q20 0 31 -29.5t2 -76.5zM477 129q-6 -36 -11.5 -57t-11.5 -32t-14 -14t-20 -3q-26 0 -30 20t4 56l17 72l39 5q20 -2 26 -13.5t1 -33.5z" />
    <glyph glyph-name="uni12CD" unicode="&#x12cd;" horiz-adv-x="867" 
d="M877 308q-12 15 -17.5 38.5t-1.5 46.5q5 25 21 38q-36 0 -63 -4.5t-43 -10.5t-24 -19t-12 -33l-46 -6l4 22q8 43 3.5 72.5t-17 47.5t-32 26t-41.5 8q-21 0 -42.5 -5t-37.5 -14l3 13l-151 -7q-59 -6 -104.5 -29t-80 -61t-59 -89.5t-42.5 -113.5q-16 -85 8 -128t82 -43
q49 0 123 33l101 7q62 3 104.5 14.5t73 36t52.5 65t42 102.5q2 5 3.5 11.5t3.5 14.5l49 7q1 -31 17.5 -41.5t42.5 -10.5q9 1 24.5 3.5t35.5 5.5q7 0 21 3zM381 463q-2 -6 -4.5 -17t-9.5 -38t-20 -75t-34 -127q-5 -18 -14 -40.5t-20 -41.5t-23 -32t-23 -13q-30 0 -30.5 35.5
t14.5 113.5q16 71 37 122.5t41.5 85.5t39 50t30.5 15q23 0 16 -38zM578 380q-17 -81 -32.5 -130.5t-27.5 -74.5q-12 -24 -22.5 -36.5t-27.5 -21.5q-27 0 -31.5 23t9.5 75l77 277q12 18 31 18q20 0 28 -34t-4 -96z" />
    <glyph glyph-name="uni12CE" unicode="&#x12ce;" horiz-adv-x="669" 
d="M713 486q-11 -48 -30 -81.5t-45 -55.5q-26 -23 -65.5 -31t-93.5 -8q-35 -19 -76 -46.5t-78 -57t-63.5 -56t-31.5 -42.5q-6 -11 -10 -24t-4 -20q1 -12 3 -23t6 -14l-151 -27q-10 6 -14.5 16.5t0.5 33.5q4 22 22 52t50.5 64t81 71t114.5 73q-26 -5 -48 -8.5t-37 -3.5
q-43 0 -61.5 30t-7.5 91q8 40 25.5 75.5t49.5 64.5q26 25 69.5 42.5t109.5 23.5l139 6q12 0 29.5 1t28.5 1q24 0 44.5 -5.5t33 -21.5t16 -45t-5.5 -75zM609 513q10 50 5 77t-21 27q-8 0 -17.5 -4t-12.5 -14l-76 -255q-2 -10 6 -15t22 -5q26 0 47 43.5t40 118.5q2 5 3 10.5
t4 16.5zM423 582q0 13 -3.5 19t-14.5 6q-23 0 -51.5 -41t-50.5 -113q-3 -14 -8.5 -36t-7.5 -43t2.5 -36t21.5 -15q6 0 20.5 3t18.5 13z" />
    <glyph glyph-name="uni12D8" unicode="&#x12d8;" horiz-adv-x="508" 
d="M456 22l-140 -23q-11 14 -11 35t6 51l79 305l-115 -26l-71 -278q-4 -19 -4 -33t12 -31l-137 -22q-12 13 -13.5 33t5.5 53l108 422q5 25 4 42t-12 33l134 27q17 -4 20 -17.5t-2 -42.5l-39 -164l116 24l36 143q7 38 -18 49l135 25q17 -2 21 -16t-4 -52l-117 -448
q-8 -35 -8.5 -53.5t15.5 -35.5z" />
    <glyph glyph-name="uni12D9" unicode="&#x12d9;" horiz-adv-x="706" 
d="M715 303q-13 19 -18 49t0 56q2 10 5.5 17l6.5 13q-8 5 -31 5q-44 -2 -79 -21.5t-44 -65.5l-47 -9l57 212q8 38 4 52t-21 16l-135 -25q14 -14 16.5 -24.5t-1.5 -24.5l-35 -143l-116 -24l41 164q5 29 2 42.5t-19 17.5l-135 -27q11 -16 12 -33t-4 -42l-107 -422
q-7 -33 -6 -53t14 -33l141 28q-14 13 -15 28.5t2 29.5l69 278l116 26l-78 -305q-6 -30 -5.5 -51t10.5 -35l141 28q-16 13 -16 31t8 53l56 216l51 13q2 -31 16 -42.5t46 -11.5q17 0 41.5 4t56.5 13z" />
    <glyph glyph-name="uni12DA" unicode="&#x12da;" horiz-adv-x="698" 
d="M646 -10q-12 20 -16.5 50t0.5 56q3 18 11 28q-7 7 -32 7q-44 -3 -78 -22t-43 -65l-35 -6q-14 0 -13.5 21.5t6.5 51.5l119 448q8 38 4 52t-21 16l-135 -25q25 -11 18 -49l-36 -143l-116 -24l39 164q5 29 2 42.5t-19 17.5l-135 -27q11 -16 12 -33t-4 -42l-107 -422
q-7 -33 -6 -53t14 -33l136 22q-11 17 -11.5 31t3.5 33l71 278l116 26l-80 -305q-6 -30 -5.5 -51t10.5 -35l171 28q2 -30 16.5 -42t45.5 -12q33 0 98 17z" />
    <glyph glyph-name="uni12DB" unicode="&#x12db;" horiz-adv-x="505" 
d="M453 23l-141 -23q-10 14 -10.5 35t5.5 51l79 305l-115 -26l-30 -111q-7 -28 -7 -44t11 -27l-137 -27q-21 17 -13 58l76 295q3 17 3.5 38t-10.5 37l134 26q16 -3 19 -17t-2 -42l-39 -165l116 25l38 143q2 20 -2 31.5t-18 17.5l136 25q17 -2 21 -16t-4 -52l-117 -448
q-7 -35 -8 -53.5t15 -35.5z" />
    <glyph glyph-name="uni12DC" unicode="&#x12dc;" horiz-adv-x="647" 
d="M626 149q8 45 -14 66t-56 17l-78 -1l87 328q8 38 4 52t-21 16l-135 -25q25 -11 18 -49l-36 -143l-116 -24l39 164q5 29 2 42.5t-19 17.5l-135 -27q11 -16 12 -33t-4 -42l-107 -422q-7 -33 -6 -53t14 -33l136 22q-11 17 -11.5 31t3.5 33l71 278l115 26l-79 -305
q-6 -30 -5 -52.5t15 -33.5q42 1 65.5 4.5t37.5 3.5q11 0 19 -2.5t17.5 -5t22 -3t32.5 3.5q27 3 45 12.5t30.5 27t20.5 44t16 65.5zM530 145q-2 -15 -6.5 -37t-12 -43t-19 -35.5t-27.5 -14.5q-18 0 -26.5 12.5t-6.5 26.5l40 159h30q21 -3 27 -24t1 -44z" />
    <glyph glyph-name="uni12DD" unicode="&#x12dd;" horiz-adv-x="676" 
d="M624 22q-16 17 -15.5 35.5t8.5 53.5l117 448q8 38 4 52t-21 16l-139 -25q25 -11 18 -49l-36 -143l-116 -24l39 164q5 29 2 42.5t-19 17.5l-300 -43q-4 -5 -6.5 -9.5t-2.5 -11.5q4 -6 8.5 -17.5t2.5 -20.5q-4 -17 -11 -33.5t-23 -45.5q22 -6 46 -4t46 16.5t39.5 44.5
t26.5 80l48 6q5 -12 4 -28.5t-5 -35.5l-107 -422q-7 -33 -6 -53t13 -33l137 22q-11 17 -11.5 31t3.5 33l71 278l115 26l-79 -305q-6 -30 -5.5 -51t10.5 -35z" />
    <glyph glyph-name="uni12DE" unicode="&#x12de;" horiz-adv-x="513" 
d="M495 164l-143 -27q-19 19 -10 63l47 190l-114 -26l-72 -278q-4 -19 -3.5 -33t12.5 -31l-137 -22q-12 13 -13.5 33t5.5 53l108 422q5 25 3.5 42t-12.5 33l135 27q16 -4 19 -17.5t-2 -42.5l-39 -164l117 24l36 143q6 38 -19 49l138 25q17 -2 21 -16t-1 -52l-83 -308
q-2 -12 -4.5 -24.5t-2.5 -24.5q0 -11 3 -21t11 -17z" />
    <glyph glyph-name="uni12E8" unicode="&#x12e8;" horiz-adv-x="487" 
d="M542 541q-5 -24 -10 -42.5t-12 -34t-16.5 -29t-22.5 -26.5q-27 -25 -79 -44.5t-137 -31.5q26 -20 34.5 -43t1.5 -61l-33 -123q-5 -26 -4 -44t22 -31l-141 -29q-15 10 -19 25t1 41l33 128q2 12 -1 23t-11 31q-8 19 -13.5 36t-8.5 35.5t-2.5 39.5t5.5 47q8 35 24 70t49 68
t89 56t135 25q7 1 16 1h22q49 0 68.5 -17.5t9.5 -69.5zM263 346q44 13 73 40t45 54q14 26 21.5 50t12.5 51q8 38 4.5 53.5t-23.5 15.5q-18 0 -38.5 -13.5t-33.5 -32.5q-43 -70 -55 -134q-4 -19 -5.5 -42.5t-0.5 -41.5z" />
    <glyph glyph-name="uni12E9" unicode="&#x12e9;" horiz-adv-x="536" 
d="M517 159q-13 24 -16.5 38.5t0.5 31.5q1 7 3.5 15t7.5 18q2 6 3 8t1 4q2 11 -7 19l-205 -39q1 26 -9 43.5t-31 33.5q85 13 138 32t79 45q13 13 22.5 26t16 28.5t12 34t10.5 42.5q9 52 -10 69.5t-68 17.5h-22q-9 0 -17 -1q-78 -2 -134.5 -25t-88.5 -56q-34 -33 -49.5 -68
t-23.5 -70q-5 -26 -5.5 -47t2.5 -39.5t8.5 -35.5t12.5 -36q8 -20 11.5 -31t1.5 -23l-33 -128q-5 -26 -1 -41t19 -25l141 29q-21 13 -22.5 31t3.5 44l35 132l71 13q-6 -62 11.5 -86.5t55.5 -24.5q16 0 33.5 5t43.5 16zM264 344q-2 18 -1 41.5t5 43.5q14 67 55 133
q14 20 34 33t38 14q20 0 23.5 -16t-3.5 -54q-5 -27 -12 -50.5t-23 -50.5t-45 -54t-71 -40z" />
    <glyph glyph-name="uni12EA" unicode="&#x12ea;" horiz-adv-x="647" 
d="M613 80q-8 23 -10.5 38.5t2.5 30.5q3 11 13 26q3 7 4.5 9t2.5 4q1 9 -6 18l-157 -15l39 114q6 25 -5 33l-122 -27q13 -9 14 -18t-1 -20l-20 -50l-69 -9l2 14q8 37 -1 60t-35 43q85 13 138 32t79 45q13 13 22.5 26t16 28.5t12 34t10.5 42.5q9 52 -10 69.5t-68 17.5h-22
q-9 0 -17 -1q-78 -2 -134.5 -25t-88.5 -56q-34 -33 -49.5 -68t-23.5 -70q-5 -26 -5.5 -47t2.5 -39.5t8.5 -35.5t12.5 -36q8 -20 11.5 -31t1.5 -23l-33 -128q-5 -26 -1 -41t19 -25l141 29q-21 13 -22.5 31t3.5 44l26 94l66 10l-9 -25q-4 -7 -4.5 -11.5t7.5 -4.5l141 10
q-13 -57 0.5 -80.5t47.5 -27.5q14 -2 30 0.5t41 10.5zM264 344q-2 18 -1 41.5t5 43.5q14 67 55 133q14 20 34 33t38 14q20 0 23.5 -16t-3.5 -54q-5 -27 -12 -50.5t-23 -50.5t-45 -54t-71 -40z" />
    <glyph glyph-name="uni12EB" unicode="&#x12eb;" horiz-adv-x="611" 
d="M230 357q10 49 27 92t51 81q35 38 93 64t142 31l41 3q56 0 73.5 -19.5t6.5 -76.5q-10 -51 -22.5 -83.5t-42.5 -59.5q-29 -27 -85 -47.5t-148 -34.5q2 -29 7 -61.5t9 -50.5q1 -7 4.5 -19t9 -26t12 -30t12.5 -31l-196 -88q-14 -41 -34.5 -66.5t-46 -39.5t-55.5 -19t-63 -5
q18 16 31 38.5t18 44.5q9 43 -20 68q12 16 43 28q14 6 31 9.5t31 3.5q23 0 37.5 -11t15.5 -34l66 31q-17 29 -29.5 65t-20.5 77q-15 79 2 166zM366 325q46 1 75.5 26t47.5 57q19 33 27.5 62.5t14.5 61.5q8 38 1.5 55t-24.5 17q-17 -2 -37.5 -16.5t-32.5 -31.5t-22.5 -39.5
t-19.5 -48t-16 -51t-11 -46.5q-2 -11 -2.5 -23t-0.5 -23z" />
    <glyph glyph-name="uni12EC" unicode="&#x12ec;" horiz-adv-x="621" 
d="M609 200q10 47 1.5 78t-39.5 30q-21 -2 -56 -6t-73.5 -8.5t-76 -8.5t-63.5 -7q-3 17 -12.5 29t-25.5 24q85 13 138 32t79 45q13 13 22.5 26t16 28.5t12 34t10.5 42.5q9 52 -10 69.5t-68 17.5h-22q-9 0 -17 -1q-78 -2 -134.5 -25t-88.5 -56q-34 -33 -49.5 -68t-23.5 -70
q-5 -26 -5.5 -47t2.5 -39.5t8.5 -35.5t12.5 -36q8 -20 11.5 -31t1.5 -23l-33 -128q-5 -26 -1 -41t19 -25l141 29q-21 13 -22.5 31t3.5 44l33 124q2 10 3.5 18t0.5 16l59 7q-12 -35 -17.5 -65t-5 -52.5t7 -35.5t17.5 -13q6 0 17 0.5t25.5 1t30.5 1.5l32 2q26 2 49 6t41 13.5
t30.5 26.5t18.5 46zM264 344q-2 18 -1 41.5t5 43.5q14 67 55 133q14 20 34 33t38 14q20 0 23.5 -16t-3.5 -54q-5 -27 -12 -50.5t-23 -50.5t-45 -54t-71 -40zM515 192q-4 -26 -16 -47t-32 -24q-13 -2 -20.5 4t-10.5 17t-3 25t2 29q1 9 3 23t7.5 28t14 25t22.5 14
q16 3 24.5 -2.5t11.5 -18.5t2 -31.5t-5 -41.5z" />
    <glyph glyph-name="uni12ED" unicode="&#x12ed;" horiz-adv-x="691" 
d="M253 403q7 34 23.5 70t50 67t88 53.5t136.5 31.5l43 3q97 0 79 -94q-5 -25 -10 -44.5t-12.5 -36t-17.5 -30.5t-25 -27q-29 -26 -83.5 -47t-145.5 -35q-5 -42 -1 -77.5t12 -68.5q3 -14 7 -27.5t10.5 -24t16 -17t24.5 -6.5q37 0 58.5 24.5t30.5 66.5q8 42 9 65t-15 31
l143 30q17 -15 16.5 -36.5t-5.5 -45.5q-13 -40 -30 -63.5t-40 -42.5t-58.5 -30.5t-84.5 -17.5q-25 0 -57.5 3t-53.5 6q-29 2 -53.5 10t-40.5 9l-43 -14q-5 -23 -8.5 -39.5t-8.5 -28.5t-12 -21.5t-17 -18.5q-41 -38 -86 -38q-30 0 -50 17q24 19 35 34.5t13 27.5q2 11 -2 21
q0 5 -1 8t0 5q0 6 15 11l151 49q-13 32 -17 111q-1 77 17 177zM380 328q47 10 77 34.5t48 53.5q17 29 25 56t15 62q7 37 3.5 54t-25.5 15q-19 -1 -42.5 -15.5t-37.5 -31.5q-7 -8 -14.5 -24t-15 -37t-14 -44.5t-11.5 -47.5q-2 -11 -4.5 -33.5t-3.5 -41.5z" />
    <glyph glyph-name="uni12EE" unicode="&#x12ee;" horiz-adv-x="690" 
d="M716 392q-12 23 -15 37.5t0 30.5q3 11 12 31q5 8 6 12q1 10 -7 17l-182 -31q6 20 12 50q9 52 -10 69.5t-68 17.5l-39 -1q-78 -2 -134.5 -25t-88.5 -56q-34 -33 -49.5 -68t-23.5 -70q-5 -26 -5.5 -47t2.5 -39.5t8.5 -35.5t12.5 -36q8 -20 11.5 -31t1.5 -23l-33 -128
q-5 -26 -1 -41t19 -25l141 29q-21 13 -22.5 31t3.5 44l33 124q8 37 -1 60t-35 43q85 13 138 32t79 45q16 14 27 29t16 34l54 10q-8 -60 9 -83.5t53 -25.5q15 0 32.5 4.5t43.5 15.5zM264 344q-2 18 -1 41.5t5 43.5q14 67 55 133q14 20 34 33t38 14q20 0 23.5 -16t-3.5 -54
q-5 -27 -12 -50.5t-23 -50.5t-45 -54t-71 -40z" />
    <glyph glyph-name="uni12F0" unicode="&#x12f0;" horiz-adv-x="635" 
d="M589 20q-40 -19 -73 -19q-38 0 -58 37t-16 97h-182q-29 -69 -70 -101t-82 -32q-34 0 -54 20q25 26 35.5 51t13.5 39q1 10 0 26q0 3 -0.5 5.5t0.5 4.5q2 8 11 8h156q-11 24 -18.5 56t-11.5 67t-4 70t6 65q6 31 23.5 68t50.5 68.5t85 53t127 23.5l39 1q42 0 60.5 -16.5
t16.5 -67.5q-1 -7 -2.5 -21t-2.5 -20q-6 -30 -23 -57.5t-47.5 -51t-77 -41.5t-111.5 -29q0 -17 3 -45t8.5 -55t12.5 -47.5t15 -20.5h164q10 0 7 -10q0 -5 -7 -23q-4 -11 -6.5 -15t-4.5 -10q-3 -15 0.5 -35t16.5 -43zM507 547q3 25 2 43t-16 18t-33 -16.5t-30 -34.5
q-37 -57 -49 -119q-3 -17 -3.5 -45t1.5 -52q31 7 52 25.5t35.5 44.5t23.5 60t17 73v3z" />
    <glyph glyph-name="uni12F1" unicode="&#x12f1;" horiz-adv-x="802" 
d="M777 129q-13 24 -17 38.5t0 31.5q1 10 11 33q5 10 5 12q3 11 -7 18l-173 -36l7 19q4 20 -9.5 28t-39.5 6q-5 0 -9.5 -1t-16.5 -3t-34 -5t-62 -8q-11 9 -19.5 28.5t-7.5 37.5q75 14 129.5 35t80.5 46t38.5 56t22.5 78q7 41 -23.5 63.5t-79.5 18.5l-50 -3
q-109 -4 -169.5 -57.5t-77.5 -141.5q-2 -9 -3 -23t-1.5 -31t1 -36t4.5 -38q-7 -6 -26.5 -13.5t-41.5 -14t-42 -11t-29 -4.5q-11 -1 -13 -9v-5t1 -7q1 -15 0 -25q-3 -14 -15 -32.5t-35 -41.5q21 -18 52 -18q21 0 43 9t40.5 27.5t31.5 47.5t15 68l22 10q5 -24 10 -31t18 -7
l116 10q5 1 9 1h8q19 0 24 -5t2 -15q-21 -61 -33 -96t-18 -53t-7.5 -24.5t-2.5 -9.5q-7 -37 17 -46l134 27q-14 5 -15 18t3 26l45 136l43 9q-6 -62 11.5 -85.5t55.5 -23.5q16 0 33.5 5t43.5 17zM537 543q-7 -34 -14 -59.5t-21 -52.5q-8 -13 -19 -27.5t-23.5 -27.5t-27 -22.5
t-27.5 -12.5q-2 23 0 52t6 49q2 12 8 29.5t14 35t16.5 33.5t16.5 26q13 17 30 29t28 12q25 0 13 -64z" />
    <glyph glyph-name="uni12F2" unicode="&#x12f2;" horiz-adv-x="797" 
d="M746 -4q-12 19 -16.5 49t0.5 56q2 10 4.5 17t6.5 13q-8 5 -32 5q-44 -2 -78 -21.5t-43 -65.5l-39 -8q-7 0 -8 9t4 21l58 174q4 20 -9.5 28t-39.5 6q-5 0 -9.5 -1t-16.5 -3t-34 -5t-62 -8q-11 9 -19 28.5t-8 37.5q76 14 130 35t80 46t38.5 56t22.5 78q7 41 -23 63.5
t-79 18.5l-51 -3q-109 -4 -169 -57.5t-77 -141.5q-2 -9 -3 -23t-1.5 -31t0.5 -36t4 -38q-7 -6 -26.5 -13.5t-41.5 -14t-42 -11t-29 -4.5q-12 -2 -13 -9v-5t1 -7q1 -15 0 -25q-3 -14 -14.5 -32.5t-35.5 -41.5q21 -18 52 -18q21 0 43 9t40.5 27.5t31.5 47.5t15 68l22 10
q5 -24 10 -31t18 -7l116 10q5 1 9 1h8q19 0 24 -5t2 -15q-6 -16 -16 -45t-19.5 -58.5t-16.5 -52.5t-8 -27q-7 -37 17 -46l162 33q2 -31 16.5 -42.5t46.5 -11.5q17 0 41 4t56 13zM537 543q-7 -34 -14 -59.5t-21 -52.5q-8 -13 -19 -27.5t-23.5 -27.5t-27 -22.5t-27.5 -12.5
q-2 23 0.5 52t6.5 49q2 12 8 29.5t13.5 35t16 33.5t16.5 26q13 17 30 29t28 12q25 0 13 -64z" />
    <glyph glyph-name="uni12F3" unicode="&#x12f3;" horiz-adv-x="620" 
d="M676 543q7 41 -23 63.5t-79 18.5l-51 -3q-108 -4 -168.5 -58t-77.5 -141q-2 -9 -3 -23t-1.5 -31t0.5 -36t4 -38q-7 -6 -26 -13.5t-41 -14t-42.5 -11t-29.5 -4.5q-12 -2 -13 -9v-5t1 -7q1 -15 0 -25q-3 -14 -14.5 -32.5t-35.5 -41.5q21 -18 52 -18q21 0 43 9t40.5 27.5
t31.5 47.5t15 68l21 12q6 -24 11 -32t18 -8l116 10q5 1 9 1h8q19 0 24.5 -5t1.5 -15q-21 -61 -33 -96t-18 -53t-7.5 -24.5t-2.5 -9.5q-7 -37 17 -46l134 27q-14 5 -15 18t3 26l58 174q4 20 -9.5 28t-39.5 6q-5 0 -9.5 -1t-16.5 -3t-34 -5t-62 -8q-11 9 -19 28.5t-7 37.5
q75 14 129 35t80 46t38.5 56t22.5 78zM537 543q-7 -34 -14 -59.5t-21 -52.5q-7 -13 -18 -27.5t-24 -27.5t-27.5 -22.5t-27.5 -12.5q-1 23 1 52t6 49q2 12 8 29.5t14 35t16.5 33.5t16.5 26q12 17 29 29t28 12q25 0 13 -64z" />
    <glyph glyph-name="uni12F4" unicode="&#x12f4;" horiz-adv-x="701" 
d="M666 76q6 34 3 52.5t-15 27.5t-33 11t-51 2q-12 0 -28 -1.5t-33 -4t-34 -6t-30 -6.5q-12 0 -23 13.5t-20 36t-14.5 52.5t-6.5 65q65 11 111.5 29t77 41.5t47.5 51t23 58.5q1 5 2.5 19.5t2.5 21.5q2 51 -13.5 67.5t-56.5 16.5h-25q-12 0 -20 -1q-76 -6 -128 -28t-86 -53
t-51.5 -66t-23.5 -67q-6 -31 -6.5 -66.5t3 -70t11.5 -66t20 -54.5h-155q-9 0 -11 -8q-1 -2 -0.5 -4.5t0.5 -6.5q1 -15 0 -25q-3 -15 -13.5 -40t-36.5 -50q23 -21 55 -21q41 0 82 32.5t70 101.5h159q2 -8 1.5 -14.5t-0.5 -8.5q-6 -29 -10 -54.5t-3.5 -45t7.5 -30.5t24 -11
q13 0 22.5 0.5t18.5 1.5t18.5 2t21.5 1q14 0 23 -1t17 -1.5t16.5 -1.5t21.5 -1q10 0 20.5 8.5t19.5 23.5t16.5 35t12.5 43zM509 542v-3q-8 -39 -17.5 -73t-24 -60t-35.5 -44t-51 -25q-3 23 -3 48t5 46q6 32 18 61.5t30 59.5q12 18 30.5 33.5t32.5 15.5q15 0 16.5 -17
t-1.5 -42zM575 85q-10 -48 -22 -73.5t-31 -25.5q-20 0 -22 25.5t8 73.5q7 35 17.5 54.5t29.5 19.5q10 0 15 -6t7 -16.5t1.5 -24t-3.5 -27.5z" />
    <glyph glyph-name="uni12F5" unicode="&#x12f5;" horiz-adv-x="778" 
d="M812 431q-22 45 -16 70q1 3 3.5 9t6 12.5t6 13t3.5 9.5q1 4 -1 7.5t-7 2.5l-164 -32q1 6 1.5 11.5t0.5 8.5q2 51 -17 67.5t-61 16.5l-38 -1q-75 -2 -127 -23.5t-85.5 -53t-51 -68t-23.5 -68.5q-6 -31 -6.5 -66t4 -69.5t12 -66.5t18.5 -56h-155q-9 0 -11 -8q-2 -2 0 -10
q0 -8 0.5 -14.5t-0.5 -11.5q-3 -14 -13.5 -39t-36.5 -51q22 -20 55 -20q41 0 81.5 32t69.5 101h182q-3 -60 17 -97t58 -37q32 0 72 19q-13 23 -16 42.5t0 35.5q1 6 3.5 10.5t7.5 15.5q6 18 7 22q3 10 -8 10h-163q-9 0 -16 20.5t-12.5 47.5t-8.5 55t-3 45q65 11 111.5 29
t77 41.5t47.5 52t23 60.5l36 6q-6 -56 16.5 -79.5t63.5 -24.5q9 0 25.5 6.5t31.5 16.5zM508 546v-3q-8 -39 -17.5 -73t-23.5 -60t-35 -44t-52 -25q-3 23 -2 51t4 45q6 30 17.5 60t30.5 60q12 17 30.5 33.5t32.5 16.5q15 0 16.5 -18t-1.5 -43z" />
    <glyph glyph-name="uni12F6" unicode="&#x12f6;" horiz-adv-x="583" 
d="M562 150q-9 8 -13.5 23t0.5 40q1 3 4.5 8.5t7.5 11.5t8 11.5t5 10.5q1 11 -3 18l-118 13q-20 1 -32.5 4t-21.5 8.5t-15.5 15.5t-14.5 26q146 22 200 75q25 25 37.5 54t21.5 77q9 45 -15.5 65t-78.5 20q-13 -1 -18 -1h-8q-75 0 -125 -16t-81 -41.5t-47 -58t-22 -65.5
q-4 -20 -2.5 -41t6.5 -39.5t14 -33.5t21 -24q-43 -16 -78 -41t-61 -55.5t-43.5 -66.5t-24.5 -73q-5 -23 -2 -44t17 -31l152 31q-24 11 -27 27.5t2 44.5q8 36 21 63.5t35 56.5q26 28 58 40t71 12l55 -7q-6 -33 -7.5 -55t3.5 -36.5t17 -22t33 -11.5q8 -3 28.5 -0.5t40.5 7.5z
M494 546q-5 -29 -15 -60.5t-18 -48.5q-7 -14 -18 -28t-24 -25.5t-27 -19.5t-26 -11q-5 20 -3.5 50t6.5 54q6 30 16 58t24 49t32 33.5t41 12.5q11 0 14.5 -16t-2.5 -48z" />
    <glyph glyph-name="uni1300" unicode="&#x1300;" horiz-adv-x="649" 
d="M708 562q-34 -5 -54 -6.5t-31 -1.5q-30 2 -40.5 14.5t-12.5 41.5l-38 -4l-19 -66q53 -5 82.5 -24.5t22.5 -59.5q-8 -45 -26 -75t-45 -48t-62 -26t-77 -8q-5 0 -18.5 1t-19.5 1q-2 -31 -1 -59t4.5 -50.5t9 -38t14.5 -20.5q11 -8 21.5 -9.5t17.5 -1.5q21 0 48 1.5t75 6.5
q10 0 9 -5q0 1 -2 -7q-9 -13 -11 -26q-3 -15 0.5 -32.5t16.5 -40.5q-39 -19 -74 -19q-36 0 -56.5 28.5t-18.5 77.5q-38 2 -78 6.5t-75 23.5l-24 -15q-8 -38 -21.5 -64t-31.5 -42t-39 -23t-43 -7q-19 0 -34 5.5t-26 13.5q25 23 36 41t14 31q1 5 0.5 10.5t-0.5 12.5v7q0 3 9 3
t29.5 3t43 8.5t42.5 13t27 15.5q-14 30 -21 79.5t4 107.5q10 52 26.5 86.5t37.5 55.5t45.5 32t51.5 17l22 73l-43 -4q-6 -19 -24 -29.5t-43 -14.5q-12 -2 -40.5 -3t-56.5 1q22 14 38 34t20 40q4 17 -1.5 30.5t-19.5 21.5q50 9 77.5 8t40.5 -9.5t14 -24t-2 -36.5l193 12
q4 19 12.5 32.5t24 21t41.5 10.5t66 2q-20 -18 -26 -42q-5 -24 1 -48t18 -40zM497 482q3 17 -5.5 27.5t-23.5 10.5q-17 0 -32 -15t-26.5 -37.5t-20 -48t-12.5 -47.5q-2 -14 -3 -25.5t-1 -28.5q43 0 68.5 24t38.5 74q6 18 10 34.5t7 31.5z" />
    <glyph glyph-name="uni1301" unicode="&#x1301;" horiz-adv-x="789" 
d="M755 80q-13 24 -17 36t-1 29q2 6 4 13.5t7 17.5q2 7 3 9.5t2 4.5q1 11 -8 17l-180 -39l4 16q3 17 -9.5 24.5t-38.5 5.5q-5 0 -10 -1t-17 -2.5t-34.5 -4.5t-62.5 -8q-5 4 -10 13.5t-9 20t-6 21.5t-2 19q75 12 126 26t77 38q13 11 21.5 20t14.5 19.5t10 25t9 36.5
q4 19 -2.5 34.5t-20 27t-33 17t-43.5 4.5l19 76l39 4q2 -29 12.5 -41.5t39.5 -14.5q11 0 31 1.5t54 6.5q-12 16 -17.5 40.5t-0.5 47.5q6 25 24 41q-40 1 -65.5 -1.5t-41 -10t-23.5 -20.5t-13 -32l-206 -13q3 21 2 36.5t-14 24.5t-40.5 9.5t-77.5 -8.5q15 -8 19 -22t1 -30
q-4 -20 -19.5 -40t-38.5 -34q29 -2 57.5 -1t41.5 4q25 4 42.5 14t23.5 29l56 4l-21 -76q-33 -3 -62 -18.5t-52 -40t-39 -55.5t-23 -64q-3 -17 -3 -45t8 -63q-7 -6 -24.5 -13.5t-37.5 -14t-38 -11.5t-27 -5q-11 -2 -13 -10q-1 -2 -0.5 -4.5t0.5 -6.5q2 -7 1.5 -12.5
t-1.5 -10.5q-2 -14 -8.5 -30.5t-29.5 -38.5q11 -8 18.5 -12t23.5 -4q21 0 42.5 9t39 27.5t29 46.5t13.5 65l15 9q6 -22 11 -29.5t18 -7.5l116 10q5 1 9 1h8q19 0 24 -4.5t2 -13.5q-20 -56 -31.5 -88.5t-17.5 -50t-7.5 -23.5t-2.5 -9q-3 -18 1.5 -27.5t16.5 -14.5l135 26
q-16 5 -16 17q0 11 2 23l44 129l58 13q-3 -31 -0.5 -51t10 -32t20.5 -17t32 -5q16 0 33.5 5t44.5 17zM490 437q-7 -36 -17 -60.5t-24.5 -42t-34 -29t-45.5 -21.5q-1 22 -1 35q0 14 3 33q3 12 7.5 26.5t10.5 29.5t13 28.5t15 23.5q13 17 29.5 29t27.5 12t16 -19t0 -45z" />
    <glyph glyph-name="uni1302" unicode="&#x1302;" horiz-adv-x="768" 
d="M709 -45q-14 14 -20 40t-4 48q2 23 18 41q-27 -6 -51 -8.5t-42.5 -9.5t-32 -22t-19.5 -46l-39 -7q-5 -1 -7.5 8t2.5 23l56 162q5 17 -9 24.5t-40 5.5q-5 0 -9.5 -1t-16.5 -2.5t-34.5 -4.5t-62.5 -8q-6 4 -11 13.5t-8.5 20t-6 21.5t-2.5 19q75 12 126.5 26t76.5 38
q13 11 21.5 20t14.5 19.5t10 25t9 36.5q4 19 -2 34.5t-19.5 27t-33.5 17t-44 4.5l20 76l38 4q2 -29 12.5 -41.5t40.5 -14.5q11 0 31 1.5t54 6.5q-12 16 -18 40.5t-1 47.5q4 12 10 22.5t15 18.5q-40 1 -66 -1.5t-41.5 -10t-23.5 -20.5t-13 -32l-206 -13q3 21 2 36.5
t-13.5 24.5t-40.5 9.5t-78 -8.5q15 -8 19.5 -22t1.5 -30q-4 -20 -19.5 -40t-38.5 -34q28 -2 56.5 -1t42.5 4q24 4 42 14t23 29l57 4l-21 -76q-33 -3 -62.5 -18.5t-52.5 -40t-39 -55.5t-23 -64q-3 -17 -3 -45t8 -63q-7 -6 -24.5 -13.5t-37.5 -14t-38 -11.5t-27 -5
q-11 -2 -13 -10q-1 -2 1 -11q2 -14 0 -23q-2 -14 -9 -30.5t-30 -38.5q11 -8 19 -12t24 -4q21 0 42 9t38.5 27.5t29 46.5t13.5 65l15 9q7 -22 11.5 -29.5t17.5 -7.5l117 10q5 1 8 1h8q19 0 24.5 -4.5t1.5 -13.5q-20 -56 -31.5 -88.5t-17.5 -50t-7.5 -23.5t-2.5 -9
q-3 -18 1.5 -27.5t16.5 -14.5l165 28q3 -30 23 -39t47 -6q11 1 36.5 7t45.5 10zM490 437q-7 -36 -17 -60.5t-24.5 -42t-33.5 -29t-45 -21.5q-2 22 -2 35q0 14 3 33q3 12 7.5 26.5t10.5 29.5t13 28.5t15 23.5q13 17 30 29t28 12t15.5 -19t-0.5 -45z" />
    <glyph glyph-name="uni1303" unicode="&#x1303;" horiz-adv-x="668" 
d="M725 551q-12 16 -18 40.5t-1 48.5q3 11 10 21.5t15 18.5q-40 1 -65.5 -1.5t-41.5 -10t-24 -20.5t-12 -32l-206 -13q3 21 2 36.5t-14 24t-40.5 9.5t-77.5 -8q14 -8 18.5 -22t1.5 -30q-4 -20 -20 -40t-38 -34q28 -2 57 -1t41 4q25 4 43 14t24 29l55 4l-20 -76
q-33 -3 -62.5 -18.5t-53 -40t-39.5 -55.5t-22 -64q-3 -17 -2.5 -44.5t8.5 -62.5q-7 -6 -24.5 -13.5t-37.5 -14.5t-38.5 -12t-27.5 -5q-12 -3 -12 -10q-1 -2 -1 -11q3 -12 1 -23q-2 -14 -8.5 -30.5t-30.5 -37.5q11 -9 18.5 -13t23.5 -4q21 0 42.5 9t39 27.5t29.5 46.5t14 65
l15 9q5 -22 10.5 -29t18.5 -7l116 9q5 1 9 1h8q19 0 24 -4.5t2 -12.5q-20 -57 -31.5 -89.5t-17.5 -50t-7.5 -23.5t-2.5 -9q-6 -33 18 -42l135 26q-16 5 -16.5 16.5t2.5 23.5l56 163q6 35 -49 30q-5 0 -9.5 -0.5t-16.5 -2.5t-34.5 -5t-62.5 -7q-5 4 -10 13t-9 19.5t-6 21.5
t-2 19q75 13 126 26.5t77 37.5q13 11 21.5 20t14 19.5t9.5 25t9 36.5q3 19 -3 34.5t-19.5 27t-33 17t-42.5 4.5l19 76l37 4q2 -29 13 -41.5t41 -14.5q11 0 31 1.5t54 6.5zM491 436q-7 -36 -17 -60.5t-24.5 -42t-34 -29t-45.5 -21.5q-1 22 -1.5 35.5t3.5 32.5q2 12 7 26.5
t11 29.5t13 28.5t14 24.5q14 17 30.5 28.5t27.5 11.5t16 -19t0 -45z" />
    <glyph glyph-name="uni1304" unicode="&#x1304;" horiz-adv-x="668" 
d="M628 52q6 30 2.5 46t-15.5 24t-33 10t-51 3q-12 0 -27.5 -2t-32.5 -4.5t-33.5 -6t-28.5 -6.5q-7 1 -12.5 3t-7.5 4q-16 14 -21 59.5t-1 105.5q5 0 19 -1t20 -1q42 0 77 7.5t61.5 26t44.5 48.5t26 75q7 40 -22 59t-83 24l19 67l38 3q2 -29 13 -41t40 -14q11 0 31.5 1.5
t54.5 6.5q-12 16 -18 40t-1 47q3 13 10 23.5t15 17.5q-40 1 -66 -1.5t-41.5 -10t-24 -20.5t-12.5 -32l-192 -12q3 21 2 36t-14 23.5t-41 9.5t-77 -8q14 -7 18.5 -21t1.5 -31q-5 -20 -20.5 -39.5t-38.5 -35.5q29 -1 57.5 -0.5t41.5 4.5q25 4 42.5 14t23.5 29l43 4l-21 -73
q-27 -6 -51.5 -16.5t-45.5 -31.5t-37.5 -55.5t-26.5 -87.5q-11 -57 -4.5 -107t20.5 -79q-7 -8 -27 -15.5t-42.5 -13t-42.5 -8.5t-29 -3q-10 0 -10 -3q0 -4 1 -7v-13t-1 -10q-2 -13 -13.5 -31t-36.5 -41q11 -8 26 -14t33 -6q22 0 43.5 7t39.5 23t31.5 42.5t21.5 64.5l25 14
q23 -12 46.5 -15.5t48.5 -6.5q11 -1 14.5 -0.5t6.5 -0.5q2 -6 1.5 -11.5t-1.5 -8.5q-5 -26 -8.5 -48.5t-2.5 -39t8.5 -26.5t24.5 -10q13 0 22 0.5t17.5 1.5t18 1.5t21.5 0.5q14 0 23 -0.5t16.5 -1.5t16 -1.5t21.5 -0.5q20 0 39 28.5t27 68.5zM494 468q-6 -30 -17 -65
q-24 -99 -107 -99q1 17 1.5 29t3.5 26q4 22 11 47.5t17.5 48t26 37.5t36.5 15q22 0 27 -10.5t1 -28.5zM537 59q-8 -42 -19 -64.5t-30 -22.5t-22.5 22.5t4.5 64.5q7 32 17 49t30 17q19 0 22 -20t-2 -46z" />
    <glyph glyph-name="uni1305" unicode="&#x1305;" horiz-adv-x="761" 
d="M773 319q-10 26 -13 38.5t1 29.5q2 6 5.5 13.5t8.5 17.5l6 12q3 13 -6 20l-170 -21l4 21q4 20 -2 34.5t-20 24.5t-35 16t-47 8l19 67l37 3q2 -29 13 -41t41 -14q11 0 31 1.5t54 6.5q-12 16 -18 40t-1 48q3 12 10 22.5t15 17.5q-40 1 -65.5 -1.5t-41.5 -10t-24 -20.5
t-12 -32l-187 -12q5 25 4 40.5t-14 23t-41.5 6.5t-78.5 -9q14 -7 19 -21t2 -31q-4 -20 -20 -39.5t-38 -34.5q27 -1 56 0t42 3q24 4 42.5 14.5t23.5 29.5l42 4l-20 -74q-27 -6 -52 -16.5t-46 -31.5t-37.5 -55.5t-26.5 -87.5q-11 -57 -3.5 -103.5t21.5 -76.5q-7 -8 -27 -15.5
t-42.5 -13t-43 -8.5t-28.5 -3q-9 0 -9 -3q-1 -1 -1 -7q1 -13 0 -23q-3 -13 -14 -31t-35 -41q11 -8 26 -13.5t33 -5.5q22 0 43.5 7t39.5 23t31.5 42t21.5 64l23 15q35 -19 75 -23.5t78 -6.5q-2 -49 18.5 -77.5t56.5 -28.5t75 19q-14 23 -17.5 40.5t-0.5 32.5q1 10 11 26
q3 6 3 7q1 5 -9 5q-48 -5 -75.5 -6.5t-47.5 -1.5q-7 0 -18 1.5t-22 9.5q-17 10 -24.5 55t-4.5 107q6 0 16.5 -1t16.5 -1q75 0 126 25.5t74 92.5l39 4q-6 -31 -4.5 -51t9 -33t21 -19t31.5 -8q15 -1 33 2.5t44 12.5zM488 475q-2 -14 -6.5 -31t-9.5 -34q-13 -50 -36.5 -74.5
t-66.5 -24.5q1 18 2.5 29.5t4.5 25.5q4 22 11 47.5t17.5 48t24.5 37.5t31 15q15 0 23.5 -10.5t4.5 -28.5z" />
    <glyph glyph-name="uni1306" unicode="&#x1306;" horiz-adv-x="636" 
d="M694 557q-12 16 -18 40t-1 48q3 12 10 22.5t15 17.5q-40 1 -65.5 -1.5t-41.5 -10t-24 -20.5t-12 -32l-207 -12q5 25 4 40.5t-14 23t-41.5 6.5t-78.5 -9q14 -7 19 -21t2 -31q-4 -20 -19.5 -39.5t-38.5 -34.5q28 -1 56.5 -0.5t41.5 3.5q25 4 43 14t23 30l64 4l-18 -68
q-50 -8 -84 -24.5t-56 -38t-33.5 -47t-16.5 -51.5q-3 -18 -1.5 -37t7 -36t15 -31t21.5 -21q-43 -15 -75.5 -38t-55.5 -51.5t-37.5 -61t-20.5 -66.5q-5 -21 -2 -41t18 -28l151 28q-24 10 -27.5 25t1.5 41q8 33 20.5 58t34.5 53q25 26 49.5 36.5t63.5 10.5l54 -11
q-6 -31 -7 -51t4.5 -33t17.5 -20t33 -11q8 -2 28.5 -0.5t40.5 6.5q-9 8 -14 22t0 37q1 3 4.5 8.5t7.5 11.5t8 12.5t5 11.5q1 9 -3 16l-119 10q-19 2 -31.5 5.5t-21.5 10t-15.5 16.5t-14.5 24q74 11 122.5 25.5t74.5 37.5q25 23 37 50t20 70q8 42 -16.5 60.5t-78.5 18.5
l17 67l37 3q2 -29 13 -41.5t41 -13.5q11 0 31 1.5t54 6.5zM462 455q-5 -26 -14 -56t-17 -44q-14 -26 -41 -45t-52 -26q-5 19 -4.5 44t5.5 45q5 28 14.5 53.5t23 45t31.5 31t41 11.5q11 0 15 -14.5t-2 -44.5z" />
    <glyph glyph-name="uni1308" unicode="&#x1308;" horiz-adv-x="471" 
d="M394 27l-139 -25q-14 1 -19.5 23.5t1.5 55.5q3 19 11 37l146 394q2 8 2.5 10.5t0.5 4.5q9 27 -2.5 46t-37.5 19q-23 0 -34 -16q-17 -80 -57.5 -115t-88.5 -35q-21 0 -41 14q20 26 30 45.5t13 36.5q2 8 2.5 16.5t-1.5 17.5q-2 8 0 14q1 8 13 14l260 41h6q5 1 7 1
q32 0 50 -23t8 -72q-2 -7 -3.5 -14.5t-5.5 -17.5l-130 -380q-4 -11 -6 -19.5t-3 -13.5q-4 -18 0 -31.5t18 -27.5z" />
    <glyph glyph-name="uni1309" unicode="&#x1309;" horiz-adv-x="663" 
d="M666 273q-13 24 -16.5 39t0.5 32q1 11 11 32q2 7 3 9l2 4q1 10 -8 18l-188 -39l44 130q6 19 9 31q10 50 -8 72.5t-50 22.5h-7h-6l-261 -42q-10 -4 -13 -14v-6q0 -3 1 -8q2 -8 1.5 -17t-2.5 -17q-3 -17 -13 -36.5t-30 -45.5q10 -6 19.5 -10t21.5 -4q48 0 88.5 35t57.5 115
q13 16 34 16q26 0 38 -19t3 -46q0 -2 -1 -4t-4 -10l-145 -395q-4 -8 -6.5 -17.5t-4.5 -19.5q-6 -33 -1 -55.5t19 -23.5l139 25q-14 14 -18 27.5t-1 31.5q2 9 11 33l79 232l58 12q-6 -62 11.5 -86t55.5 -24q16 0 33.5 5.5t43.5 16.5z" />
    <glyph glyph-name="uni130A" unicode="&#x130a;" horiz-adv-x="642" 
d="M591 -5q-13 19 -17.5 49.5t0.5 56.5q2 9 5 16.5t6 12.5q-8 5 -31 5q-22 -1 -42 -6t-36.5 -15t-28 -26t-15.5 -39l-50 -9q-7 -1 -9.5 5t-2.5 16t2.5 21t5.5 20l137 396q6 19 9 31q10 50 -8.5 72.5t-50.5 22.5h-6h-6l-261 -42q-10 -4 -13 -14q0 -2 -0.5 -5.5t1.5 -8.5
q2 -8 1.5 -17t-2.5 -17q-3 -17 -13.5 -36.5t-30.5 -45.5q11 -6 20.5 -10t20.5 -4q48 0 89 35t58 115q12 16 34 16q26 0 37.5 -19t2.5 -46q0 -1 -4 -14l-145 -395q-5 -8 -7.5 -17.5t-4.5 -19.5q-6 -33 -0.5 -55.5t19.5 -23.5l176 32q2 -31 16 -42.5t46 -11.5q17 0 41.5 4
t56.5 13z" />
    <glyph glyph-name="uni130B" unicode="&#x130b;" horiz-adv-x="578" 
d="M492 517q8 37 -4.5 58.5t-33.5 21.5q-25 0 -37 -16q-8 -39 -24 -66t-36.5 -43t-44 -23t-46.5 -7q-25 0 -41 12q20 26 29 41t12 31q2 8 2.5 16.5t-1.5 17.5q-2 10 0 14q2 8 12 14l259 39q5 1 11 1.5t12 0.5q48 0 61 -38.5t-4 -125.5l-39 -162q-13 -57 -44.5 -94
t-76.5 -58.5t-100 -30.5t-115 -9q-16 -41 -33.5 -67.5t-36 -42t-38.5 -21.5t-41 -6q-14 0 -24.5 5.5t-20.5 15.5q19 25 29 42t13 33t1 37q-2 6 0 9q0 5 11 14l149 5q43 0 76 10.5t57.5 38t42.5 73.5t32 116z" />
    <glyph glyph-name="uni130C" unicode="&#x130c;" horiz-adv-x="585" 
d="M558 153q2 22 -4 36.5t-17 22t-26.5 9t-31.5 -0.5l-63 -6l98 287q4 9 6 17t4 15q9 49 -8.5 72t-49.5 23q-3 0 -7 -1h-6l-261 -41q-12 -6 -13 -14v-15q3 -17 0 -33q-3 -17 -13 -37t-30 -45q19 -14 41 -14q24 0 46.5 8.5t42 26.5t34 46.5t22.5 68.5q13 16 34 16
q26 0 38.5 -19t3.5 -47l-5 -14l-152 -414q-6 -15 -8 -31t-0.5 -30t7 -24.5t14.5 -14.5q26 -1 43 0t28 2t19 2t16 1l12 -1t27.5 -1.5l31 -1t23.5 1.5q51 2 73.5 37t30.5 113zM461 149q-1 -15 -5 -37.5t-12 -43.5t-20 -36t-28 -15q-26 0 -27.5 21t6.5 50l36 111h5t8 -1
q20 -2 30.5 -14t6.5 -35z" />
    <glyph glyph-name="uni130D" unicode="&#x130d;" horiz-adv-x="586" 
d="M501 25q-14 14 -18 27.5t-1 31.5q1 5 3.5 13.5t6.5 19.5l149 424q4 20 -1.5 36t-17 27t-27 17t-31.5 6h-3t-6 -1l-169 -22q-33 -3 -59.5 -6t-46.5 -7q-26 -6 -48 -13t-39.5 -21t-30.5 -36.5t-21 -59.5q-7 -30 -6.5 -50.5t7.5 -33t19 -17.5t29 -5q18 0 37.5 4t54.5 12
q34 8 55 12.5t39 4.5q13 0 31 33.5t29 93.5q4 18 7.5 37.5t3.5 28.5q16 17 38 17q14 0 22 -15.5t3 -39.5q-1 -2 -2 -6t-5.5 -17t-14 -39t-27 -73t-43.5 -118t-64 -174q-4 -8 -6.5 -17.5t-4.5 -19.5q-6 -33 -1 -55.5t19 -23.5zM269 384q-10 -2 -15.5 5.5t-7 20t0 28.5t4.5 32
q11 51 23.5 78.5t32.5 32.5q12 3 17.5 -3.5t7 -19t-1 -30.5t-6.5 -38t-9 -39t-11.5 -33.5t-15 -23.5t-19.5 -10z" />
    <glyph glyph-name="uni130E" unicode="&#x130e;" horiz-adv-x="533" 
d="M460 25q-14 14 -17.5 27.5t-0.5 31.5l119 343q12 35 8.5 58.5t-18.5 36t-39.5 16t-55.5 -2.5l27 111q2 15 -5 20.5t-18 5.5l-136 -27q13 -12 18.5 -22t1.5 -24l-20 -88l-150 -23q-12 -6 -13 -13q0 -2 -0.5 -5t1.5 -7q3 -15 0 -30q-2 -14 -11.5 -30t-29.5 -39
q22 -16 50 -16q38 0 73.5 36.5t55.5 102.5l90 13q31 0 42.5 -19t-1.5 -51l-117 -314q-4 -8 -6.5 -17.5t-4.5 -19.5q-6 -32 -1 -55t19 -24z" />
    <glyph glyph-name="uni1320" unicode="&#x1320;" horiz-adv-x="797" 
d="M753 29l-136 -28q-11 8 -15.5 18.5t-4.5 24.5t3 31t7 38l46 203q7 32 9 56.5t-4 50.5q-5 28 -26 49.5t-62 21.5q-20 -77 -35 -136.5t-25.5 -103t-17 -73t-10.5 -47.5q-7 -32 -9 -62.5t14 -43.5l-124 -28q-13 8 -19 22.5t-6.5 31t2 34t5.5 32.5l90 370q-29 1 -62.5 -26.5
t-65 -76t-58 -113.5t-40.5 -140q-2 -11 -4.5 -26t-2 -30.5t4.5 -28t16 -16.5l-139 -32q-11 8 -15.5 19.5t-5 26.5t2.5 32t6 35q11 56 34 112.5t57.5 106.5t78.5 89t97 59q67 25 121.5 31t113.5 6v-9q43 13 85 13q72 0 111 -43q41 -40 27 -114l-58 -252q-6 -31 -6 -52
q0 -20 20 -32z" />
    <glyph glyph-name="uni1321" unicode="&#x1321;" horiz-adv-x="985" 
d="M984 254q-13 20 -17.5 50t0.5 56q2 9 5 16.5t7 12.5q-8 5 -31 5q-22 -1 -42.5 -5.5t-37 -15t-28 -26.5t-15.5 -39l-43 -7l14 63q14 74 -27 114q-39 43 -111 43q-20 0 -41.5 -3t-42.5 -10l-2 9q-30 0 -57.5 -1t-55.5 -5t-57.5 -11.5t-62.5 -19.5q-53 -20 -97 -59
t-78.5 -89t-57.5 -106.5t-34 -112.5q-4 -18 -6.5 -35t-2.5 -32t4.5 -26.5t15.5 -19.5l139 32q-11 4 -15.5 16.5t-4.5 27.5q0 16 2.5 31t4.5 26q13 74 39.5 139.5t58 114t65.5 76.5t63 27l-91 -371q-3 -15 -5.5 -32.5t-1.5 -34t7 -31t19 -22.5l123 28q-15 13 -14 43.5t9 62.5
q4 18 11 47.5t17.5 73.5t25 103t34.5 136q41 0 62 -21.5t26 -49.5q5 -26 3 -50.5t-8 -56.5l-46 -203q-8 -42 -10 -69t21 -43l134 28q-20 12 -19.5 32.5t6.5 51.5l39 170l48 9q2 -30 16 -42t45 -12q33 0 98 17z" />
    <glyph glyph-name="uni1322" unicode="&#x1322;" horiz-adv-x="991" 
d="M940 -3q-12 20 -16.5 50t0.5 56q2 10 4.5 17t7.5 12q-9 6 -32 6q-44 -2 -78.5 -21.5t-43.5 -65.5l-34 -6q-10 0 -13.5 17t4.5 50l58 252q14 74 -27 114q-39 43 -111 43q-43 0 -85 -13l-1 9q-59 0 -113 -6t-121 -31q-53 -20 -97 -59t-78.5 -89t-57.5 -106.5t-34 -112.5
q-4 -18 -6.5 -35t-2.5 -32t5 -26.5t16 -19.5l139 32q-12 4 -16.5 16.5t-4.5 27.5q0 16 2.5 31t4.5 26q14 74 40 139.5t58 114t65.5 76.5t62.5 27l-90 -371q-3 -15 -5.5 -32.5t-2 -34t6.5 -31t19 -22.5l124 28q-16 13 -14.5 43.5t9.5 62.5q4 18 10.5 47.5t17 73.5t25.5 103
t35 136q41 0 62 -21.5t26 -49.5q5 -26 3 -50.5t-8 -56.5l-46 -203q-4 -21 -7 -38t-3 -31t4.5 -24.5t15.5 -18.5l164 34q2 -30 16 -41.5t45 -11.5q37 0 98 16z" />
    <glyph glyph-name="uni1323" unicode="&#x1323;" horiz-adv-x="782" 
d="M737 27l-134 -27q-22 15 -20.5 42t9.5 67l62 287q6 32 8.5 56t-2.5 50q-3 13 -8 26.5t-14 24t-23 17t-34 6.5q-33 -111 -48.5 -172.5t-21.5 -86.5q-5 -23 -5 -45t18 -31l-125 -21q-14 6 -20.5 16.5t-9 22.5t-1 24.5t4.5 23.5l76 267q-29 0 -60 -20t-58.5 -55t-49 -82.5
t-31.5 -102.5q-2 -7 -3.5 -18t-0.5 -22.5t6 -20.5t17 -13l-139 -22q-23 12 -24.5 34t3.5 49q7 40 27 81t50.5 77t71.5 64.5t92 43.5q32 9 61 14.5t57 8t56.5 3.5t58.5 1l1 -6q22 5 39 7.5t37 2.5q70 0 111 -42q40 -42 27 -111l-74 -336q-5 -29 -6 -49.5t19 -32.5z" />
    <glyph glyph-name="uni1324" unicode="&#x1324;" horiz-adv-x="939" 
d="M916 137q4 22 -0.5 36t-15.5 21.5t-26 9.5t-32 0q-23 -2 -37 -3t-23 -1q-8 0 -13 1t-9 3l38 164q14 72 -27 114q-40 43 -111 43q-21 0 -42 -3.5t-43 -9.5l-1 8q-30 0 -57.5 -1t-55.5 -5t-58 -11t-63 -20q-53 -20 -97 -59t-78.5 -88.5t-57.5 -106.5t-34 -113
q-4 -18 -6.5 -35t-2.5 -32q0 -14 5 -25.5t16 -19.5l139 31q-12 5 -16.5 17.5t-4.5 27.5t2.5 30.5t4.5 26.5q14 74 40 139.5t57.5 114t65.5 76t63 26.5l-90 -370q-4 -15 -6.5 -32.5t-1.5 -34t7 -31t19 -22.5l124 28q-8 6 -11.5 17.5t-3 25.5t3 30.5t6.5 32.5q4 18 10.5 47.5
t17 73t25.5 103t35 136.5q41 0 62 -22t26 -49q5 -26 3 -51t-8 -57l-46 -202q-4 -21 -7 -38t-3 -31t4.5 -24.5t15.5 -18.5l111 3q12 0 29.5 -4.5t43.5 -2.5q26 1 44 6t30.5 19t21.5 40.5t18 71.5zM819 132q-7 -36 -12.5 -58.5t-11.5 -34.5t-14 -16.5t-20 -4.5q-17 0 -27 11.5
t-3 43.5l23 108q14 1 24 1h14q20 -4 25.5 -15.5t1.5 -34.5z" />
    <glyph glyph-name="uni1325" unicode="&#x1325;" horiz-adv-x="718" 
d="M742 379l-132 -29q-8 5 -12.5 17t1.5 39l14 73q7 36 2.5 60t-16.5 38.5t-29.5 20.5t-35.5 6l-53 -199l40 6l-68 -299q-7 -34 -6.5 -51t19.5 -30l-146 -31q-9 8 -12.5 23t-3.5 31q0 17 3 32.5t6 25.5l72 260l-40 -6l65 236q-26 -3 -49 -20t-41 -41.5t-31.5 -54
t-19.5 -56.5q-4 -20 -4.5 -36t17.5 -27l-139 -26q-17 14 -17 32t3 33q5 28 22 62t51 65t87.5 55t131.5 32l118 9v-10q29 5 51 8t39 3q34 0 57 -10t36.5 -28t17 -42.5t-1.5 -52.5q-3 -14 -6.5 -32t-4.5 -35.5t2 -31.5t13 -19z" />
    <glyph glyph-name="uni1326" unicode="&#x1326;" horiz-adv-x="795" 
d="M788 222l-135 -23q-11 7 -16 15.5t-6 20t1 25t5 29.5l41 164q5 25 6 44.5t-5 41.5q-7 21 -28.5 38.5t-62.5 17.5q-17 -62 -29.5 -109.5t-21.5 -82.5t-14.5 -59t-9.5 -38q-5 -26 -5.5 -50t16.5 -35l-123 -23q-13 7 -19.5 18.5t-8 25t0 27.5t4.5 26l77 297q-29 1 -63 -27.5
t-66 -78.5t-58.5 -116.5t-40.5 -141.5q0 -3 -3.5 -22t-8 -41t-8 -42t-4.5 -24q-2 -21 1 -40.5t18 -26.5l-139 -32q-11 8 -15.5 19.5t-4.5 26.5t2.5 32t6.5 35q1 4 4.5 23.5t8 41.5t8.5 41.5t5 23.5q9 51 32.5 102.5t57.5 96.5t77.5 80.5t92.5 53.5q33 13 62.5 20.5
t57.5 11.5t55.5 5t57.5 1l1 -8q21 6 42 8.5t41 2.5q73 0 112 -35q21 -17 29 -43t3 -48l-48 -202q-5 -23 -4 -40t21 -27z" />
    <glyph glyph-name="uni1328" unicode="&#x1328;" horiz-adv-x="1073" 
d="M1045 116q8 43 -5 66t-45 21l-95 -10q19 100 17 159t-31 90t-89.5 40t-157.5 9l-1 12q-109 0 -203.5 -23.5t-169 -72t-124.5 -122.5t-69 -174q-3 -15 -4.5 -35t0 -37t7.5 -29t19 -12q16 0 27.5 1t21 2.5t19 2.5t21.5 1q18 1 42.5 -2t45.5 1q18 0 34 4t29.5 16t24.5 35
t19 62q8 45 -7 68t-43 21l-101 -7q11 54 38 102.5t64.5 85t82.5 58t91 21.5l-97 -411q-6 -24 -2 -39t17 -24q37 0 63 6.5t52 5.5q35 -2 52 -1.5t29 2.5q24 0 42 9t30.5 24t20.5 34.5t12 39.5q8 41 -7 65t-44 22l-100 -6l66 279q41 0 70.5 -4t47 -17.5t24.5 -40t4.5 -72
t-14 -113t-30.5 -162.5q-1 -7 -1 -19q0 -11 3.5 -22.5t11 -19.5t21.5 -8q19 2 31.5 4t22.5 3.5t19 2t23 0.5q2 0 15 -0.5t31 0t26 1.5q35 0 63.5 25t39.5 82zM632 114q-9 -46 -24.5 -67.5t-35.5 -21.5q-8 0 -15 3.5t-11 11t-4.5 20t4.5 31.5l19 85l34 2q20 2 30 -15t3 -49z
M278 102q-7 -35 -19.5 -56.5t-38.5 -21.5q-14 0 -21.5 14.5t-5.5 34.5q4 29 12.5 61t17.5 49l21 2q23 2 32.5 -18.5t1.5 -64.5zM959 101q-5 -24 -11 -38t-13.5 -21.5t-16 -10t-18.5 -3.5q-8 -2 -13.5 2.5t-7.5 15t-1.5 25t3.5 31.5q5 28 9 48.5t6 23.5l25 1q23 0 34.5 -17
t3.5 -57z" />
    <glyph glyph-name="uni1329" unicode="&#x1329;" horiz-adv-x="1118" 
d="M1121 273q-14 25 -17 40t0 32l4.5 13.5t6.5 18.5q3 7 3.5 9t1.5 4q1 10 -7 18l-195 -41q-4 42 -21 68.5t-50.5 41t-84 19.5t-121.5 5v11q-109 0 -204.5 -25t-170 -74.5t-125 -124.5t-69.5 -175q-3 -16 -4.5 -35.5t0 -37t8 -29t18.5 -11.5q16 0 27.5 1t21 2.5t19 2.5
t21.5 1q19 1 43 -2t46 0q17 0 33 4t30 16.5t25 35.5t19 62q8 45 -7 68t-44 21l-99 -7q10 54 37.5 104t65 87.5t82.5 60t92 22.5l-99 -418q-5 -24 -1.5 -39t16.5 -24q37 0 63 6.5t52 5.5q35 -2 52 -1.5t28 2.5q25 0 43 9t30.5 24t20 34t11.5 39q8 42 -7 66t-42 22l-102 -7
l67 284q42 0 71 -4t46.5 -18.5t24.5 -41.5t4.5 -72.5t-14.5 -113.5t-31 -163q-1 -7 -1 -19q0 -11 3.5 -22.5t11.5 -19.5t22 -8q19 2 31.5 4t22 3.5t19 2t22.5 0.5q2 0 15 -0.5t31.5 0t26.5 1.5q34 0 63 24.5t40 81.5q8 44 -5.5 67t-44.5 21l-95 -10q18 94 18 155l58 12
q-7 -62 11 -86t56 -24q15 0 32.5 5t44.5 16zM278 104q-7 -35 -19.5 -56t-38.5 -21q-13 0 -20.5 14t-5.5 34q3 29 11.5 60.5t18.5 48.5l21 3q23 2 32 -19t1 -64zM633 116q-9 -46 -25 -67.5t-36 -21.5q-16 0 -25.5 14t-0.5 52l20 85l34 3q20 2 29.5 -15.5t3.5 -49.5zM959 102
q-5 -24 -11 -38t-13.5 -21t-15.5 -9.5t-17 -3.5q-17 -5 -22.5 17t1.5 57q5 27 9.5 48t6.5 23l24 2q23 0 34.5 -17t3.5 -58z" />
    <glyph glyph-name="uni132A" unicode="&#x132a;" horiz-adv-x="1129" 
d="M1077 -10q-12 20 -16.5 50t0.5 56q3 18 11 28q-7 7 -32 7q-44 -3 -78 -22t-43 -65l-29 -5q-10 -1 -11.5 12.5t1 33.5t7.5 44.5t10 45.5q22 108 22 172t-29.5 98.5t-90 45t-158.5 10.5v11q-109 0 -204.5 -25t-170 -74.5t-125 -124.5t-69.5 -175q-3 -16 -4.5 -35.5t0 -37
t8 -29t18.5 -11.5q16 0 27.5 1t21 2.5t19 2.5t21.5 1q19 1 43.5 -2t45.5 0q17 0 33 4t30 16.5t25 35.5t19 62q8 45 -6.5 68t-43.5 21l-100 -7q10 54 37.5 103.5t65 87t82.5 60t92 22.5l-99 -417q-5 -24 -1.5 -39t16.5 -24q37 0 63 6.5t52 5.5q35 -2 52 -1.5t28 2.5
q25 0 43 9t30.5 24t20 34t11.5 39q8 42 -7 66t-42 22l-102 -7l67 284q41 0 70 -4t47 -17.5t25 -39t5.5 -68.5t-12 -107t-28.5 -153q-8 -40 -1 -67.5t25 -25.5l149 27q2 -30 16 -42t46 -12q34 0 97 17zM278 104q-7 -35 -19.5 -56t-38.5 -21q-13 0 -20 14t-5 34
q2 29 10.5 60.5t18.5 48.5l21 3q23 2 32 -19t1 -64zM633 116q-9 -46 -25 -67.5t-36 -21.5q-16 0 -25.5 14t-0.5 52l21 85l33 3q20 2 29.5 -15.5t3.5 -49.5z" />
    <glyph glyph-name="uni132B" unicode="&#x132b;" horiz-adv-x="1055" 
d="M1028 117q8 44 -5 67t-44 21l-96 -10q19 100 21 177.5t-23 130.5t-81.5 80.5t-154.5 27.5l-1 12q-101 0 -192 -22.5t-162.5 -65t-119 -103t-62.5 -136.5q-3 -16 -5 -35.5t0 -37t8.5 -29t18.5 -11.5q16 0 26 1t18.5 2.5t17 2.5t20.5 1q18 1 42.5 -2t45.5 0q18 0 34 4
t29.5 16.5t24 35.5t18.5 61q9 44 -6 67.5t-43 21.5l-102 -7q11 44 39.5 81.5t65 65t76 43t74.5 15.5l-85 -349q-11 -46 14 -62q37 0 63.5 6t51.5 5q36 -1 53 -1t29 2q24 0 42 9t30.5 24t20 34.5t11.5 39.5q8 42 -6.5 65.5t-43.5 21.5l-100 -7l52 215q63 0 94 -28.5
t37.5 -91.5t-8 -163t-43.5 -243q-1 -7 -1 -19q0 -11 3.5 -22.5t11 -19.5t21.5 -8q19 2 31.5 4t22.5 3.5t19 2t23 0.5q2 0 15 -0.5t31 0t26 1.5q35 0 63.5 24.5t39.5 81.5zM651 298q-9 -46 -25 -67.5t-35 -21.5q-17 0 -26.5 14t-0.5 51l20 87l34 2q20 1 29.5 -16t3.5 -49z
M307 287q-7 -35 -20 -57t-39 -22q-14 0 -19.5 15t-3.5 35q3 29 10.5 60.5t15.5 47.5l22 3q22 2 32 -18.5t2 -63.5zM942 102q-5 -24 -11 -38t-13.5 -21t-16 -9.5t-17.5 -3.5q-8 -2 -13.5 2.5t-8 15t-2 25t3.5 31.5q5 27 9 48t6 23l25 2q23 0 34.5 -17t3.5 -58z" />
    <glyph glyph-name="uni132C" unicode="&#x132c;" horiz-adv-x="1129" 
d="M1142 325q8 39 2 64t-29 23q-13 -2 -38 -4t-54 -4.5t-58.5 -5.5t-51.5 -5q-8 32 -27 52t-52 30.5t-81 14t-113 3.5l-1 12q-109 0 -204 -23.5t-169 -72t-124.5 -122.5t-69.5 -174q-3 -16 -4.5 -35.5t0 -37t8 -29t18.5 -11.5q16 0 27.5 1t21 2.5t19 2.5t21.5 1
q19 1 43.5 -2t45.5 0q17 0 33 4t30 16.5t25 35.5t19 62q8 45 -6.5 68t-43.5 21l-100 -7q10 54 37 102.5t64.5 85t82.5 58t92 21.5l-98 -411q-5 -24 -1.5 -39t16.5 -24q37 0 63 6.5t52 5.5q35 -2 52 -1.5t28 2.5q25 0 43 9t30.5 24t20 34t11.5 39q8 42 -7 66t-42 22l-102 -7
l66 280q42 0 71 -4t47 -17.5t25 -40t4.5 -72t-14 -113t-30.5 -162.5q-1 -7 -1 -19q0 -11 3 -22.5t11 -19.5t22 -8q19 2 31.5 4t22 3.5t19 2t23.5 0.5q2 0 15 -0.5t31 0t26 1.5q34 0 63 24.5t40 81.5q8 44 -5.5 67t-43.5 21l-96 -10q11 60 15.5 105.5t-0.5 77.5l44 4
q-10 -27 -14.5 -51.5t-4 -42.5t5.5 -28t14 -10q8 0 30.5 1t46.5 3q20 1 37 4t30.5 10.5t23 21t13.5 35.5zM278 104q-7 -35 -19.5 -56t-38.5 -21q-13 0 -20 14t-5 34q2 29 10.5 60.5t18.5 48.5l21 3q23 2 32 -19t1 -64zM633 116q-9 -46 -25 -67.5t-36 -21.5q-16 0 -25.5 14
t-0.5 52l21 85l33 3q20 2 29.5 -15.5t3.5 -49.5zM959 102q-5 -24 -11 -38t-13.5 -21t-15.5 -9.5t-17 -3.5q-17 -5 -22.5 17t1.5 57q5 27 9.5 48t6.5 23l25 2q23 0 34 -17t3 -58zM1072 320q-4 -20 -12.5 -37t-24.5 -19q-9 -2 -14.5 2.5t-7.5 13.5t-2 20q0 12 2 23q0 8 2 18.5
t5.5 21t10 18t16.5 9.5q24 5 28 -14t-3 -56z" />
    <glyph glyph-name="uni132D" unicode="&#x132d;" horiz-adv-x="981" 
d="M1006 388q8 43 -5 66t-44 21l-100 -10q4 45 -5 74t-34.5 45.5t-69.5 22.5t-110 6l-2 11q-95 8 -183 -9t-158 -52t-116 -86.5t-58 -112.5q-3 -15 -4.5 -35t0 -37t7.5 -29t19 -12q16 0 24 0.5t14 0.5t12.5 0.5t18.5 0.5q18 1 42.5 -2t45.5 0q18 0 34 4t29.5 16.5t24.5 35.5
t19 62q8 44 -7 67.5t-43 21.5l-100 -7q6 29 27.5 54.5t54 45t74 31t86.5 11.5l-58 -230q-3 -13 4 -11l46 12l-77 -301q-10 -47 15 -63q37 0 65 6t54 5q35 -1 52.5 -0.5t28.5 1.5q24 0 42 9t30.5 24t20 34.5t11.5 39.5q8 42 -6.5 65.5t-42.5 21.5l-101 -6l46 194q2 5 -2 7
t-10 1l-39 -6l53 203q40 0 61.5 -12t28.5 -41.5t1.5 -78.5t-19.5 -123q-2 -7 -2 -19t3.5 -23t11.5 -19.5t22 -8.5q19 2 31 3.5t21 2t18 0.5h23q2 0 15 -0.5t31 -0.5t26 1q35 0 63.5 25t39.5 83zM645 117q-9 -46 -25 -67t-36 -21q-16 0 -25.5 14t-1.5 51l21 87l34 2
q20 1 29.5 -16t3.5 -50zM307 350q-7 -35 -19.5 -56.5t-38.5 -21.5q-14 0 -21.5 14.5t-5.5 34.5q4 29 12.5 60.5t17.5 48.5l21 2q23 3 32.5 -17.5t1.5 -64.5zM919 372q-5 -24 -11 -38t-13.5 -21t-16.5 -9.5t-18 -3.5q-17 -4 -22 17.5t2 56.5q1 11 3 23.5t4 23t4 17.5t3 8
l25 2q23 0 35.5 -17.5t4.5 -58.5z" />
    <glyph glyph-name="uni132E" unicode="&#x132e;" horiz-adv-x="1039" 
d="M1046 297q8 44 -5 67t-44 21l-98 -11q4 86 -12.5 133t-51 68.5t-85.5 25t-117 3.5l-1 9q-134 0 -230.5 -39t-163 -106.5t-106.5 -158.5t-60 -196q-3 -16 -4.5 -35.5t0 -37t7.5 -29t19 -11.5q16 0 27.5 1t21 2.5t18.5 2.5t21 1q20 1 44 -2t45 0q18 0 34 4t29.5 16.5
t24.5 35.5t19 62q8 45 -6.5 68t-43.5 21l-100 -7q7 36 22.5 77.5t36.5 82t47 78t53 66.5t55 46t54 17l-78 -331q-7 -25 -3 -39.5t16 -24.5q37 0 63.5 7t52.5 6q35 -2 52.5 -1.5t28.5 2.5q24 0 42 9t30.5 24t20.5 34t12 39q8 42 -7 66t-43 22l-101 -8l47 206q51 0 83.5 -14
t47 -51.5t11 -102.5t-23.5 -166q-1 -8 -1 -20q0 -11 3 -22t11 -19t22 -8q19 2 30.5 4t20 3.5t16.5 2t22 0.5q2 0 15 -0.5t31 0t26 1.5q35 0 63.5 24t39.5 82zM644 296q-9 -46 -25.5 -68t-35.5 -22q-8 0 -15 3.5t-11 11t-4.5 20t4.5 31.5l20 86l33 2q20 2 30 -15t4 -49z
M278 104q-7 -35 -19.5 -56t-38.5 -21q-14 0 -21 14t-5 34q3 29 11.5 60.5t17.5 48.5l21 3q23 2 32.5 -19t1.5 -64zM959 282q-5 -24 -11 -38t-12.5 -21.5t-14.5 -10t-17 -3.5q-17 -4 -22.5 18t1.5 57q5 26 8.5 47.5t5.5 23.5l25 2q23 0 34 -17t3 -58z" />
    <glyph glyph-name="uni1338" unicode="&#x1338;" horiz-adv-x="559" 
d="M513 23l-140 -22q-8 6 -10.5 17.5t-2.5 25.5q0 15 1.5 31.5t3.5 31.5l13 105q2 23 -7.5 40t-27.5 17q-5 0 -17.5 -6.5t-30.5 -23.5t-39 -48t-42 -79q-5 -10 -7 -19l-4 -18q-5 -21 -0.5 -31t14.5 -21l-138 -23q-8 4 -12.5 11t-6 15t-1 16t1.5 15q13 66 67.5 143.5
t168.5 164.5l-100 -13q-33 -4 -43.5 23.5t0.5 81.5q5 26 16 50t25.5 42.5t31.5 31t35 15.5l175 30q16 3 31 3q37 0 57 -21.5t10 -73.5q-9 -47 -26.5 -79t-41.5 -58t-54 -51.5t-65 -59.5l94 14q37 5 53.5 -20t9.5 -78l-12 -107q-1 -9 -1.5 -19t1 -20t6 -18.5t14.5 -14.5z
M295 379q23 0 48 24t48 78q8 17 11.5 31t5.5 25q5 27 -2.5 42.5t-33.5 15.5q-11 0 -24 -9t-26 -25t-24 -36.5t-18 -43.5q-13 -42 -9 -71.5t24 -30.5z" />
    <glyph glyph-name="uni1339" unicode="&#x1339;" horiz-adv-x="721" 
d="M696 127q-13 25 -17 39.5t-1 31.5q3 12 12 33q2 6 3.5 8t1.5 4q3 11 -7 18l-181 -38q3 26 -1 42.5t-13 24.5t-22 10t-29 0l-94 -14q35 34 65 59.5t54 51.5t41.5 58t26.5 79q10 52 -10 73.5t-57 21.5q-15 0 -31 -3l-175 -30q-18 -3 -35 -15.5t-32 -31t-26 -42.5t-16 -50
q-11 -54 0 -81.5t43 -23.5l100 13q-113 -87 -167.5 -164.5t-67.5 -143.5q-2 -14 -0.5 -31.5t18.5 -25.5l138 23q-10 11 -14.5 21t0.5 31q2 9 3.5 18t6.5 19q21 48 42.5 79t39.5 48t30.5 23.5t17.5 6.5q18 0 27.5 -17t7.5 -40l-13 -105q-2 -15 -3.5 -31.5t-1.5 -31.5
q0 -14 2.5 -25.5t10.5 -17.5l140 22q-10 6 -14.5 14.5t-6 18.5t-1 20t1.5 19l12 111l47 9q-6 -62 11.5 -85.5t55.5 -23.5q16 0 33.5 5t43.5 16zM294 379q-19 1 -23 30.5t8 71.5q7 23 18.5 43.5t24 36.5t25.5 25t25 9q26 0 33.5 -15.5t2.5 -42.5q-2 -11 -5.5 -25t-11.5 -31
q-23 -54 -48.5 -78t-48.5 -24z" />
    <glyph glyph-name="uni133A" unicode="&#x133a;" horiz-adv-x="747" 
d="M695 -9q-13 20 -17 50t1 56q3 18 11 28q-4 4 -12.5 5t-19.5 1q-44 -2 -78 -21t-43 -65l-34 -5q-6 -1 -8.5 5t-3 15t0 19t1.5 16l12 107q7 53 -9.5 78t-54.5 20l-94 -14q35 34 65.5 59.5t54.5 51.5t41.5 58t26.5 79q10 52 -10.5 73.5t-57.5 21.5q-15 0 -31 -3l-175 -30
q-18 -3 -35 -15.5t-31.5 -31t-25.5 -42.5t-16 -50q-11 -54 -0.5 -81.5t43.5 -23.5l100 13q-114 -87 -168 -164.5t-67 -143.5q-1 -7 -1.5 -15t1 -16t5.5 -15t12 -11l138 23q-9 11 -14 21t0 31l4 18t7 19q21 48 42 79t39 48t30.5 23.5t17.5 6.5q18 0 28 -17t7 -40l-13 -105
q-2 -15 -3.5 -31.5t-1 -31.5t5 -27t13.5 -17l157 28q3 -30 17 -42.5t45 -12.5q17 0 41.5 5t56.5 13zM294 379q-20 1 -24 30.5t9 71.5q7 23 18 43.5t24 36.5t26 25t25 9q26 0 33.5 -15.5t2.5 -42.5q-2 -11 -6 -25t-12 -31q-23 -54 -48 -78t-48 -24z" />
    <glyph glyph-name="uni133B" unicode="&#x133b;" horiz-adv-x="559" 
d="M513 22l-140 -22q-8 6 -10.5 17.5t-2.5 25.5q0 15 1.5 31.5t3.5 31.5l13 105q2 24 -7.5 40.5t-27.5 16.5q-12 0 -28 -8.5t-33 -23.5t-33.5 -35t-30.5 -42q-12 -19 -10.5 -38t16.5 -27l-135 -28q-6 2 -9.5 9t-5 16t-1.5 19t2 17q5 28 25 59.5t49.5 63t67.5 61t79 53.5
l-100 -13q-32 -4 -43 24t0 81q5 26 16 50t26 43t32 31t35 15l174 30q18 3 32 3q38 0 57.5 -21t9.5 -73q-9 -48 -26.5 -80t-41.5 -58t-54 -51.5t-66 -59.5l95 14q36 5 52.5 -20t9.5 -78l-11 -107q-1 -9 -1.5 -19t1 -20t6 -18.5t14.5 -14.5zM294 378q23 0 48.5 24t48.5 78
q8 17 11.5 30.5t5.5 24.5q5 28 -3 43.5t-34 15.5q-11 0 -24 -9t-25.5 -25t-24 -36.5t-18.5 -43.5q-13 -42 -8.5 -71.5t23.5 -30.5z" />
    <glyph glyph-name="uni133C" unicode="&#x133c;" horiz-adv-x="681" 
d="M647 85q4 27 4 47t-6.5 32t-22 17t-42.5 2l-82 -13l6 66q2 16 -2.5 28.5t-13.5 21t-21 12.5t-25 2l-94 -14q35 34 65 59.5t54 51.5t41.5 58t26.5 79q10 52 -10 73.5t-57 21.5q-15 0 -31 -3l-175 -30q-18 -3 -35 -15.5t-32 -31t-26 -42.5t-16 -50q-11 -54 0 -81.5
t43 -23.5l100 13q-113 -87 -167.5 -164.5t-67.5 -143.5q-2 -14 -0.5 -31.5t18.5 -25.5l138 23q-10 11 -14.5 21t0.5 31q2 9 3.5 18t6.5 19q21 48 42.5 79t39.5 48t30.5 23.5t17.5 6.5q18 0 27.5 -17t7.5 -40l-13 -105q-2 -15 -3.5 -31.5t-1.5 -31.5q0 -14 2.5 -25.5
t10.5 -17.5q29 0 46.5 1t28 2t16.5 1.5t12 0.5q15 0 26.5 -3t27.5 -3q21 0 40.5 5.5t35.5 16.5t27 27t14 36zM294 379q-19 1 -23 30.5t8 71.5q7 23 18.5 43.5t24 36.5t25.5 25t25 9q26 0 33.5 -15.5t2.5 -42.5q-2 -11 -5.5 -25t-11.5 -31q-23 -54 -48.5 -78t-48.5 -24z
M555 81q-2 -29 -10.5 -46t-32.5 -22q-16 -2 -24 6.5t-6 22.5l14 114l30 5q17 0 24 -14.5t5 -65.5z" />
    <glyph glyph-name="uni133D" unicode="&#x133d;" horiz-adv-x="683" 
d="M712 405q-22 45 -16 69q0 3 3 9t6 12.5l6 13t4 9.5q2 10 -9 9l-181 -33q3 9 5.5 19t4.5 21q10 52 -10 73.5t-57 21.5q-15 0 -31 -3l-175 -30q-18 -3 -35 -15.5t-31.5 -31t-25.5 -42.5t-16 -50q-11 -54 -0.5 -81.5t43.5 -23.5l100 13q-114 -87 -168.5 -164.5t-67.5 -143.5
q-1 -7 -1.5 -15t1 -16t6 -15t12.5 -11l138 23q-10 11 -14.5 21t0.5 31l4 18t7 19q21 48 42 79t39 48t30.5 23.5t17.5 6.5q18 0 27.5 -17t7.5 -40l-13 -105q-2 -15 -3.5 -31.5t-1.5 -31.5q0 -14 2.5 -25.5t10.5 -17.5l140 22q-10 6 -14.5 14.5t-6 18.5t-1 20t1.5 19l12 107
q7 53 -9.5 78t-53.5 20l-94 -14q29 28 55 50t47.5 43t38.5 43.5t29 52.5l56 11q-5 -57 17 -80.5t64 -24.5q8 0 25 7t32 17zM295 379q-20 1 -24 30.5t9 71.5q7 23 18 43.5t24 36.5t26 25t24 9q26 0 33.5 -15.5t2.5 -42.5q-2 -11 -5.5 -25t-11.5 -31q-23 -54 -48 -78t-48 -24z
" />
    <glyph glyph-name="uni133E" unicode="&#x133e;" horiz-adv-x="567" 
d="M535 91l-149 -25q-15 8 -16 28.5t1 41.5l6 76q2 26 -7 41.5t-27 15.5q-9 0 -25 -12.5t-34.5 -33.5t-37 -49.5t-33.5 -61.5q-13 -29 -11.5 -54.5t15.5 -34.5l-139 -23q-8 4 -12 11t-5.5 15t-1 16t1.5 15q13 66 67 143.5t168 164.5l-100 -13q-32 -4 -43 23.5t0 81.5
q5 26 16 50t25.5 42.5t32 31t34.5 15.5l176 30q16 3 30 3q37 0 57.5 -21.5t10.5 -73.5q-6 -32 -26 -67t-46.5 -68.5t-57 -63t-57.5 -49.5l95 18q34 5 53 -12t17 -55l-3 -88q-2 -24 4.5 -39t20.5 -19zM294 379q23 0 48 24t48 78q8 17 12 31t6 25q5 27 -2.5 42.5t-33.5 15.5
q-12 0 -25 -9t-25.5 -25t-24 -36.5t-18.5 -43.5q-13 -42 -9 -71.5t24 -30.5z" />
    <glyph glyph-name="uni1348" unicode="&#x1348;" horiz-adv-x="693" 
d="M650 36q-38 -14 -64.5 -20.5t-46.5 -6.5q-11 0 -22.5 4t-20.5 12t-14.5 19.5t-4.5 26.5q-13 0 -32.5 -2t-35.5 -5q-9 -1 -19 -3.5t-21 -4.5q-14 -3 -35.5 -8t-49 -11.5t-59 -14.5t-63.5 -18q-16 -4 -29 -4q-17 0 -28 5.5t-21 12.5q-11 10 -14.5 36.5t2.5 56.5
q13 68 60.5 135t132.5 145l11 10q46 42 81.5 79.5t43.5 75.5q6 31 -10 48l149 28q15 -6 18 -16t0 -24q-8 -41 -31 -79.5t-56 -76.5q-17 -20 -34.5 -38t-35.5 -36q-17 -17 -40.5 -39t-51.5 -48l106 21q13 3 21.5 -6.5t12.5 -26t4.5 -37.5t-3.5 -40q-9 -52 -35 -100l62 6
q2 26 17.5 44.5t37.5 30t46 17t43 5.5t25 -3q-10 -18 -14 -36q-6 -30 -1 -62t19 -52zM311 155q7 34 8.5 54t-1 31t-9.5 14.5t-17 3.5q-13 -11 -25.5 -26t-23 -31.5t-18.5 -33t-11 -31.5q-3 -18 -4 -34t2.5 -28t12 -18.5t24.5 -6.5q18 0 36 30.5t26 75.5z" />
    <glyph glyph-name="uni1349" unicode="&#x1349;" horiz-adv-x="648" 
d="M637 201q-37 -5 -59 -8.5t-41 -0.5q-23 5 -37 17.5t-13 38.5l-73 -7l-81 -160q-9 -19 -8 -36t12 -24l-141 -26q-14 5 -14 26q0 22 14 48l84 162l-87 -7q-30 -2 -48 4.5t-27 19t-10 29.5t3 35q7 39 29.5 67.5t52.5 52.5t63 46t62 47q20 16 22 33q4 16 4 25t-8 19l134 26
q15 -4 18 -14.5t0 -27.5q-3 -16 -12.5 -34t-28 -39.5t-46 -49t-66.5 -61.5l95 4q14 0 24 -6t14.5 -15t4.5 -20t-5 -21l-43 -82l64 5q4 18 11.5 32t24.5 23.5t45.5 14t74.5 4.5h11q-6 -8 -11 -17.5t-7 -15.5q-11 -26 -11 -57q0 -30 10 -50zM348 370q2 5 -4 9.5t-15 4.5
q-20 0 -43.5 -19.5t-35.5 -46.5q-6 -11 -8 -19t-3 -13q-3 -16 2 -26t28 -10l22 1z" />
    <glyph glyph-name="uni134A" unicode="&#x134a;" horiz-adv-x="665" 
d="M664 251q5 25 5 41q0 17 -4 28t-10 17t-13 10l-136 -36q6 -6 11.5 -11t8 -14t2 -23t-4.5 -37q-5 -28 -13.5 -53t-19 -44.5t-21 -31t-20.5 -11.5h-35q13 24 22 49.5t14 50.5q4 19 3.5 40t-4.5 37.5t-12.5 26t-21.5 6.5l-106 -21q28 26 51.5 48t40.5 39q18 18 35.5 36
t34.5 38q33 38 56 76.5t31 79.5q3 14 0 24t-18 16l-149 -28q16 -17 10 -48q-8 -38 -43.5 -75.5t-81.5 -79.5l-11 -10q-85 -78 -132.5 -145t-60.5 -135q-6 -30 -2.5 -56.5t13.5 -36.5q11 -7 22 -12.5t28 -5.5q13 0 29 4q32 10 63 18t58.5 14.5t49.5 11.5t36 8q11 2 21 4.5
t19 3.5q8 2 18.5 2.5t20.5 0.5q49 0 86.5 14.5t63.5 39t42 58t24 72.5zM310 155q-8 -45 -25.5 -75.5t-35.5 -30.5q-16 0 -24.5 6.5t-12 18.5t-2.5 28t4 34q3 15 10.5 31.5t18 33t23.5 31.5t26 26q10 0 16.5 -3.5t9 -14.5t1 -31t-8.5 -54z" />
    <glyph glyph-name="uni134B" unicode="&#x134b;" horiz-adv-x="663" 
d="M642 150q-10 26 -12 41t3 32q3 7 6 15t8 16q4 6 4.5 8t2.5 4q2 6 0 11t-5 10l-202 -20l24 82q11 39 -12 50.5t-68 9.5l-56 -1q39 34 67 61t46.5 49t28 40t12.5 34q3 17 -0.5 27t-18.5 14l-133 -26q8 -9 8 -19q0 -9 -3 -24q-4 -15 -23 -34q-13 -11 -37.5 -29t-51 -37.5
t-50 -38t-34.5 -28.5q-9 -10 -19 -33t-15 -46q-4 -18 -3 -35t9.5 -30t26.5 -19.5t49 -4.5l112 7l-52 -180q-6 -17 -3 -32.5t16 -23.5l137 27q-11 6 -12.5 19.5t1.5 27.5l47 172l72 7q-14 -62 1.5 -86.5t51.5 -29.5q15 -2 32.5 1.5t44.5 11.5zM349 375l-36 -116
q-1 -2 -8.5 -3t-15.5 -1q-23 0 -38 10t-11 26q1 5 3 13t7 19q12 27 35.5 46.5t44.5 19.5q9 0 15 -4.5t4 -9.5z" />
    <glyph glyph-name="uni134C" unicode="&#x134c;" horiz-adv-x="774" 
d="M739 86q5 34 -2.5 53.5t-25 28t-44.5 9t-62 -1.5q-45 -2 -75 -16.5t-46 -27.5q-11 -11 -15.5 -19.5t-15.5 -10.5l-37 -11q13 24 21.5 48.5t13.5 50.5q4 19 3.5 39.5t-5 37t-13 26t-21.5 6.5l-105 -20q29 26 51.5 47.5t40.5 38.5q17 18 34.5 36t34.5 38q33 39 56.5 77.5
t31.5 79.5q2 14 -0.5 24t-18.5 15l-148 -27q16 -18 9 -49q-7 -38 -42.5 -75t-80.5 -79l-13 -11q-84 -77 -131.5 -144t-61.5 -135q-4 -20 1 -45t15 -42q8 -12 33 -19.5t53 -7.5q8 0 26.5 2.5t38.5 7.5l214 69q-5 -31 -7.5 -56.5t-1 -43.5t9.5 -28t26 -9q15 1 25.5 2t20 2.5
t20.5 2.5t26 3q16 1 27 1t20.5 -0.5t19.5 -1t24 -0.5q13 1 25 13t22.5 31t18 43t10.5 48zM312 158q-5 -22 -12 -41.5t-15 -34t-17.5 -23t-18.5 -8.5q-16 0 -24.5 7t-11.5 19t-2 28t5 34q3 14 10.5 31t18 33.5t23 31.5t26.5 25q10 0 16.5 -3.5t9 -14t0.5 -30.5t-8 -54z
M630 70q-8 -50 -21 -76t-36 -28q-23 -1 -27 24t4 75q3 19 7.5 36.5t10.5 31t14.5 22t20.5 9.5q12 0 18.5 -8.5t9 -22t2 -30.5t-2.5 -33z" />
    <glyph glyph-name="uni134D" unicode="&#x134d;" horiz-adv-x="646" 
d="M622 132q-11 26 -13 41.5t3 32.5q2 5 5.5 13t8.5 19q4 6 5 8.5t2 4.5q3 11 -7 17l-189 -17l25 90q7 27 1.5 38.5t-23.5 16.5l-157 -5l-1 -11q0 -2 8 -4.5t17 -8t15 -14.5t2 -24l-24 -86q-20 1 -32.5 3t-19 9t-7.5 20.5t4 36.5l16 84q6 29 19 58t30.5 54.5t37.5 45
t41 28.5q20 10 51 16t76 6q-15 -63 -1 -89.5t50 -32.5q15 -3 32 -0.5t45 10.5q-9 26 -10.5 42t4.5 33q2 6 5.5 13.5t9.5 16.5q4 6 5 8.5t3 4.5q2 12 -5 19l-171 -10v-1q-92 0 -157.5 -22.5t-107.5 -57.5q-13 -11 -27 -26t-27.5 -35.5t-24 -45t-16.5 -53.5l-15 -78
q-7 -37 17 -62t66 -23l103 4l-42 -164q-5 -17 0.5 -33.5t18.5 -21.5l140 27q-12 9 -16 27t1 37l36 141l58 5q-14 -62 1.5 -88t51.5 -31q16 -2 33.5 1.5t45.5 12.5z" />
    <glyph glyph-name="uni134E" unicode="&#x134e;" horiz-adv-x="665" 
d="M616 4q-13 20 -16.5 50t4.5 60q3 10 7 19.5t10 18.5l-29 1q-64 5 -100 -20.5t-43 -71.5l-66 -10q11 30 20.5 60.5t12.5 45.5q5 25 8 50.5t-1 45t-17.5 30.5t-42.5 7l-123 -17l7 38q16 84 32 140.5t34 90.5t39.5 49t50.5 15l-19 -96q-8 -41 -6.5 -64.5t10 -35.5t22 -15.5
t29.5 -3.5q25 0 39 0.5t32 0.5q24 0 45.5 1.5t39.5 6.5q13 5 26 11t24 19t20.5 34.5t16.5 56.5q6 33 4.5 53.5t-8 31.5t-17 15.5t-22.5 5.5q-16 2 -37 -0.5t-47 -2.5h-117q-64 0 -116 -12t-92.5 -46.5t-70 -95.5t-48.5 -159l-27 -140q-11 -54 -10.5 -89t10.5 -54t30 -25
t49 -1l286 42q-1 -28 14.5 -43.5t40.5 -17.5q19 -2 44.5 3.5t67.5 17.5zM577 524q-8 -40 -16 -63t-16.5 -34t-16 -14t-14.5 -3q-8 0 -15 2.5t-10.5 14t-3 34t8.5 62.5q6 29 13 46t14.5 25.5t15 10.5t15.5 2q7 0 13.5 -2t11 -10.5t5.5 -25t-5 -45.5zM286 161
q-7 -38 -12.5 -62.5t-12 -39.5t-15 -22t-22.5 -10q-26 -6 -23 26t17 109q6 28 11 46t11 28.5t13.5 15t17.5 4.5q20 0 23 -19.5t-8 -75.5z" />
    <glyph glyph-name="uni1350" unicode="&#x1350;" horiz-adv-x="672" 
d="M719 499q-17 -8 -32.5 -12.5t-30.5 -4.5q-40 0 -62 30.5t-20 83.5l-62 -5l-122 -483q-5 -23 0 -44.5t21 -40.5l-142 -23q-14 14 -18 37.5t4 67.5l120 475l-64 -5q-9 -30 -23 -52t-31.5 -36t-36.5 -20.5t-37 -6.5q-28 0 -41 13q19 19 28 33.5t12 27.5q2 13 -1 28
q-2 7 0 12q2 8 11 12l518 39q10 -6 7 -16q0 -3 -2 -7.5t-4 -9.5q-4 -9 -6 -15.5t-3 -12.5q-3 -15 0 -31t17 -34z" />
    <glyph glyph-name="uni1351" unicode="&#x1351;" horiz-adv-x="672" 
d="M719 499q-14 18 -17.5 34t-0.5 31q1 6 3.5 12.5t6.5 15.5q2 5 4 9.5t2 7.5q3 10 -7 16l-518 -39q-9 -4 -11 -12q-2 -5 0 -12q3 -15 1 -28q-3 -13 -12 -27.5t-28 -33.5q13 -13 40 -13q19 0 38 6.5t36.5 20.5t31.5 36t23 52l64 5l-120 -475q-8 -44 -4 -67.5t18 -37.5
l143 23q-17 19 -21.5 40.5t0.5 44.5l38 154l67 11q2 -29 16.5 -41t45.5 -12q17 0 41.5 4t56.5 13q-13 20 -17.5 50t0.5 56q2 9 5 16t6 12q-8 6 -31 6q-44 -2 -78.5 -21t-43.5 -65l-63 -9l78 309l62 5q-2 -53 20 -83.5t62 -30.5q27 0 63 17z" />
    <glyph glyph-name="uni1352" unicode="&#x1352;" horiz-adv-x="672" 
d="M719 499q-14 18 -17.5 34t-0.5 31q1 6 3.5 12.5t5.5 15.5q7 12 7 17q3 9 -7 16l-519 -39q-9 -4 -11 -12q-2 -3 0 -12q2 -8 2 -15t-1 -13q-3 -13 -11.5 -27.5t-27.5 -33.5q13 -13 40 -13q38 0 74.5 27t53.5 88l65 5l-121 -475q-8 -44 -3.5 -67.5t18.5 -37.5l175 31
q2 -31 16 -42.5t46 -11.5q17 0 41 4t56 13q-12 19 -17 49.5t0 56.5q5 19 12 29q-8 5 -32 5q-44 -2 -78.5 -21t-43.5 -65l-42 -8q-7 0 -10 7.5t-4 18.5t-0.5 22.5t2.5 19.5l122 483l61 5q-2 -53 20.5 -83.5t61.5 -30.5q28 0 64 17z" />
    <glyph glyph-name="uni1353" unicode="&#x1353;" horiz-adv-x="731" 
d="M779 502q-14 18 -18 34t-1 30q3 12 10 29q3 5 4.5 9.5t2.5 6.5q2 10 -7 17l-519 -39q-10 -5 -12 -12v-5q0 -2 2 -7q3 -17 0 -28q-2 -13 -11.5 -28t-28.5 -34q16 -13 41 -13q38 0 74.5 27.5t53.5 88.5l64 5l-79 -322q-13 -51 -28.5 -86t-32 -56.5t-34.5 -31t-35 -9.5
l-133 -7q-10 -4 -12 -13q0 -8 1.5 -20.5t-0.5 -20.5q-2 -14 -11.5 -30.5t-29.5 -37.5q20 -17 46 -17q38 0 73.5 31t55.5 91q46 0 81.5 9.5t63.5 25t49 35t38 40.5q9 13 21 40.5t20 56.5l83 333l62 5q-2 -54 20 -84.5t61 -30.5q29 0 65 18z" />
    <glyph glyph-name="uni1354" unicode="&#x1354;" horiz-adv-x="672" 
d="M719 500q-14 18 -17.5 34t-0.5 31q1 5 3.5 12t6.5 16q5 9 7 17q2 10 -7 16l-519 -38q-11 -7 -12 -13q-1 -2 1 -12q3 -18 1 -29q-2 -12 -11.5 -27t-28.5 -33q14 -14 40 -14q19 0 38 6.5t36.5 21t31.5 36.5t23 52l64 5l-123 -495q-6 -30 -5.5 -52.5t15.5 -33.5
q42 1 68.5 4.5t40.5 3.5q11 0 19 -2.5t17 -5t21 -3t32 3.5q27 3 45.5 12.5t31 27t20.5 44t16 65.5q9 44 -13.5 65.5t-56.5 17.5l-78 -1l87 360l62 5q-2 -53 20 -84t62 -31q14 0 30 5t33 13zM477 146q-2 -15 -6 -37t-11.5 -43t-19.5 -35.5t-28 -14.5q-18 0 -25.5 12.5
t-4.5 26.5l38 159h13q12 0 16 -1q10 -1 16.5 -7.5t10 -16t3.5 -21.5q0 -11 -2 -22z" />
    <glyph glyph-name="uni1355" unicode="&#x1355;" horiz-adv-x="672" 
d="M719 501q-17 -8 -33 -13t-31 -5q-39 0 -61 30.5t-20 84.5l-62 -5l-58 -186l42 10q5 3 6.5 -1t-0.5 -12l-87 -296q-5 -23 -0.5 -44.5t21.5 -40.5l-142 -23q-14 14 -18.5 37.5t3.5 67.5l86 276l-46 -10q-6 -2 -3 15l59 196l-64 -5q-9 -30 -23 -52t-31 -36.5t-36 -21
t-38 -6.5q-25 0 -41 14q19 18 28.5 33t11.5 27q2 6 1.5 13.5t-1.5 15.5q-3 9 -2 12q2 7 12 12l519 39q9 -6 7 -17q-1 -2 -2.5 -6.5t-4.5 -9.5q-4 -9 -6.5 -16t-3.5 -13q-3 -14 0.5 -30t17.5 -34z" />
    <glyph glyph-name="uni1356" unicode="&#x1356;" horiz-adv-x="733" 
d="M781 505q-14 17 -17 32.5t-1 29.5q2 6 3.5 12.5t6.5 15.5l6 15q2 12 -7 16l-509 -36q-5 -2 -8 -5.5t-3 -5.5q-1 -4 0 -13q3 -14 1 -26q-2 -13 -11 -27t-28 -32q14 -14 41 -14q38 0 74 26.5t53 85.5l64 5l-60 -217q-11 -32 -36.5 -59t-69.5 -45q-44 -19 -81 -40
t-65.5 -46.5t-47 -55t-24.5 -65.5q-3 -17 1.5 -33t13.5 -21l137 26q-13 13 -15.5 27t1.5 33q5 19 13.5 34.5t23 29.5t36.5 28.5t53 31.5q28 15 59 30t57.5 32t46 36.5t25.5 44.5l70 240l51 4q-2 -51 20.5 -80.5t62.5 -29.5q31 0 63 16z" />
    <glyph glyph-name="uni1210" unicode="&#x1210;" horiz-adv-x="750" 
d="M706 29l-139 -29q-11 7 -15 32t4 54l40 169q10 53 1 79t-50 26q-13 0 -31 -3l-66 -271q-5 -17 -0.5 -33.5t17.5 -23.5l-146 -31q-9 9 -11 34.5t5 53.5l63 261q-38 -4 -65 -21.5t-47 -50t-34.5 -79.5t-26.5 -110q-4 -20 0 -35.5t14 -23.5l-136 -27q-12 8 -16.5 33t0.5 53
q14 72 37.5 120.5t61 79.5t91 48.5t127.5 28.5l41 177q4 19 0 31.5t-18 26.5l148 26q10 -5 14.5 -18t-2.5 -40l-47 -191q41 5 68.5 7t45.5 2q37 0 59 -9t32.5 -28t9.5 -49t-11 -71l-32 -141q-5 -22 -1.5 -31.5t15.5 -25.5z" />
    <glyph glyph-name="uni1211" unicode="&#x1211;" horiz-adv-x="943" 
d="M922 148q-13 25 -17 39.5t0 31.5q1 11 11 32q2 6 3.5 8.5t1.5 4.5q2 6 -0.5 10t-6.5 8l-186 -39q15 74 -4.5 107.5t-89.5 33.5q-34 0 -113 -9l47 191q7 27 2.5 40t-14.5 18l-148 -26q14 -14 18 -26.5t0 -31.5l-42 -177q-74 -11 -127.5 -28.5t-91 -48.5t-61 -79.5
t-37.5 -120.5q-5 -28 -0.5 -53t17.5 -33l136 27q-10 8 -14.5 23.5t-0.5 35.5q12 63 26.5 110t35 79.5t47.5 50t65 21.5l-63 -261q-7 -28 -5 -53.5t11 -34.5l145 31q-12 7 -16.5 23.5t0.5 33.5l66 271q18 3 31 3q41 0 50 -26t-1 -79l-41 -169q-7 -29 -3.5 -54t14.5 -32
l139 29q-12 16 -15.5 25.5t1.5 31.5l32 139l54 11q-7 -62 10.5 -86t55.5 -24q16 0 33.5 5.5t44.5 16.5z" />
    <glyph glyph-name="uni1212" unicode="&#x1212;" horiz-adv-x="941" 
d="M891 -2q-13 20 -18 50t0 56q5 19 12 29q-8 6 -31 6q-44 -2 -78.5 -21.5t-43.5 -65.5l-27 -7q-10 -2 -13.5 10t0.5 31l32 141q10 41 11 71t-9.5 49t-32.5 28t-59 9q-34 0 -113 -9l47 191q6 27 1.5 40t-14.5 18l-147 -26q13 -14 17.5 -26.5t0.5 -31.5l-42 -177
q-74 -11 -127.5 -28.5t-91 -48.5t-61 -79.5t-37.5 -120.5q-5 -28 -0.5 -53t16.5 -33l136 27q-10 8 -14 23.5t0 35.5q12 63 26.5 110t35 79.5t47.5 50t64 21.5l-63 -261q-6 -28 -4.5 -53.5t10.5 -34.5l146 31q-13 7 -17.5 23.5t0.5 33.5l67 271q16 3 30 3q41 0 50 -26t-1 -79
l-40 -169q-7 -28 -1.5 -53t20.5 -33l156 35q2 -30 16.5 -41.5t45.5 -11.5q35 0 98 16z" />
    <glyph glyph-name="uni1213" unicode="&#x1213;" horiz-adv-x="750" 
d="M706 29l-139 -29q-11 7 -15 32t4 54l40 169q10 53 1 79t-50 26q-13 0 -31 -3l-51 -190q-4 -17 0.5 -33.5t16.5 -23.5l-145 -30q-9 9 -11.5 34.5t4.5 52.5l48 180q-38 -4 -64.5 -19t-45 -39.5t-30.5 -57.5t-19 -72q-4 -20 0 -35.5t14 -23.5l-141 -28q-12 9 -14 34t3 52
q14 75 85 128.5t218 76.5l41 177q4 19 0 31.5t-18 26.5l148 26q10 -5 14.5 -18t-2.5 -40l-47 -191q41 5 68.5 7t45.5 2q37 0 59 -9t32.5 -28t9.5 -49t-11 -71l-32 -141q-5 -22 -1.5 -31.5t15.5 -25.5z" />
    <glyph glyph-name="uni1214" unicode="&#x1214;" horiz-adv-x="896" 
d="M869 137q2 30 -18 49.5t-56 17.5l-78 -6l7 29q10 41 10.5 71t-9.5 49t-32.5 28t-59.5 9q-32 0 -113 -9l47 191q7 27 2.5 40t-14.5 18l-148 -26q14 -14 18 -26.5t0 -31.5l-41 -177q-74 -11 -127.5 -28.5t-91 -48.5t-61 -79.5t-37.5 -120.5q-5 -28 -0.5 -53t16.5 -33
l136 27q-10 8 -14.5 23.5t-0.5 35.5q12 63 26.5 110t35 79.5t47.5 50t65 21.5l-63 -261q-7 -28 -5 -53.5t11 -34.5l146 31q-13 7 -17.5 23.5t0.5 33.5l66 271q18 3 31 3q41 0 50 -26t-1 -79l-40 -169q-7 -28 -1 -53t20 -33l106 7q12 0 30 -4.5t44 -2.5q18 1 36.5 5.5t34 19
t27 41t16.5 71.5zM765 102q-3 -26 -10 -42t-15 -25.5t-16 -13t-15 -3.5q-19 0 -23.5 15.5t0.5 37.5l27 110l33 3q20 -2 22.5 -19.5t-3.5 -62.5z" />
    <glyph glyph-name="uni1215" unicode="&#x1215;" horiz-adv-x="750" 
d="M706 29q-12 16 -15.5 25.5t1.5 31.5l32 141q10 41 11 71t-9.5 49t-32.5 28t-59 9q-34 0 -113 -9l37 144q9 36 1 49t-22 11l-144 -22q1 20 0 38.5t-7.5 33t-18.5 23.5t-32 10q-15 2 -32.5 -1t-43.5 -13q9 -26 12 -38.5t-1 -29.5q-2 -8 -9 -21t-12 -22q-2 -8 0 -12t5 -8
l150 24q11 2 15.5 -5t2.5 -17l-38 -156q-74 -11 -127.5 -28.5t-91 -48.5t-61 -79.5t-37.5 -120.5q-5 -28 -0.5 -53t17.5 -33l136 27q-10 8 -14.5 23.5t-0.5 35.5q12 63 26.5 110t35 79.5t47.5 50t65 21.5l-63 -261q-7 -28 -5 -53.5t11 -34.5l145 31q-12 7 -16.5 23.5
t0.5 33.5l66 271q18 3 31 3q41 0 50 -26t-1 -79l-41 -169q-7 -29 -3.5 -54t14.5 -32z" />
    <glyph glyph-name="uni1216" unicode="&#x1216;" horiz-adv-x="750" 
d="M724 124l-138 -28q-6 3 -9.5 13t-5 23.5t0 29t4.5 30.5l22 73q16 54 3 74.5t-54 20.5q-13 0 -31 -3l-39 -167q-5 -17 -1 -37.5t16 -28.5l-148 -30q-9 9 -11 34.5t4 53.5l41 165q-37 -4 -64 -21.5t-47.5 -50t-35 -79.5t-26.5 -110q-4 -20 0 -35.5t14 -23.5l-136 -27
q-12 8 -16.5 33t0.5 53q14 72 37.5 120.5t61 79.5t91 48.5t127.5 28.5l42 177q4 19 -0.5 31.5t-17.5 26.5l147 26q10 -5 14.5 -18t-1.5 -40l-48 -191q79 9 114 9q73 0 92.5 -37t0.5 -101l-14 -53q-5 -22 -3 -37t14 -32z" />
    <glyph glyph-name="uni1220" unicode="&#x1220;" horiz-adv-x="761" 
d="M791 412q-12 -60 -39 -100t-62 -64.5t-73.5 -34.5t-72.5 -10q-23 0 -39.5 4t-26.5 10q-18 -23 -46.5 -39t-57.5 -26q-18 -6 -50 -12.5t-67.5 -13t-68 -12.5t-50.5 -10q-34 -8 -47 17t4 70l74 203q11 27 6 40.5t-16 24.5l138 29q18 -3 25 -19t-1 -36l-73 -202
q-13 -36 -8 -62t21 -26q13 1 28 8t30 22t29.5 39t26.5 61l47 144q2 7 4.5 16.5t1.5 19t-6 17.5t-18 13l136 29q20 -2 27 -23.5t-1 -47.5l-52 -157q-9 -26 -2.5 -45t25.5 -19q17 0 34.5 15t33 40.5t27.5 59t20 71.5q5 25 6.5 41.5t0 27.5t-6 17.5t-12.5 11.5l132 26
q8 -4 14.5 -10t9.5 -18.5t2.5 -33.5t-7.5 -56z" />
    </font>
</defs>
</svg>
