<?xml version="1.0" standalone="no"?>
<!DOCTYPE svg PUBLIC "-//W3C//DTD SVG 1.1//EN" "http://www.w3.org/Graphics/SVG/1.1/DTD/svg11.dtd" >
<svg>
<metadata>
Created by FontForge 20110222 at Thu Mar  1 08:30:40 2012
 By Stefan Warting
Copyleft 2002, 2003, 2005 Free Software Foundation.
</metadata>
<defs>
<font id="FreeSerifItalic" horiz-adv-x="1024" >
  <font-face 
    font-family="FreeSerif"
    font-weight="400"
    font-style="italic"
    font-stretch="normal"
    units-per-em="2048"
    panose-1="2 2 6 3 5 4 5 9 3 4"
    ascent="1638"
    descent="-410"
    x-height="877"
    cap-height="1337"
    bbox="-1380 -897 3426 2298"
    underline-thickness="102"
    underline-position="-153"
    slope="-15.5"
    unicode-range="U+0020-FFFD"
  />
<missing-glyph horiz-adv-x="886" 
d="M68 0v1365h682v-1365h-682zM136 68h546v1229h-546v-1229z" />
    <glyph glyph-name="IJ" unicode="IJ" horiz-adv-x="1447" 
d="M-16 0v33q84 15 109 34q30 23 52 100q2 8 5 17l251 906q23 78 23 127q0 45 -31 62q-29 15 -112 26v32h505v-32q-85 -15 -111 -35q-30 -23 -52 -98q-2 -9 -5 -19l-251 -907q-23 -80 -23 -129q0 -44 27 -59q26 -15 112 -25v-33h-499zM1545 1337v-32q-85 -12 -111 -33
q-29 -22 -51 -99q-3 -9 -6 -20l-211 -760q-35 -124 -58 -177q-111 -253 -342 -253q-134 0 -200 75q-39 45 -39 105q0 71 50 100q20 11 44 11q49 0 80 -43q18 -25 18 -53l-2 -48v-1q0 -82 72 -82q56 0 84 63q8 20 16 47l268 953q25 84 25 131q0 43 -34 60q-32 15 -124 24v32
h521z" />
    <glyph glyph-name="ij" unicode="ij" horiz-adv-x="1132" 
d="M1077 1227q0 -55 -45 -87q-25 -18 -55 -18q-64 0 -89 58q-9 22 -9 49q0 64 44 95q23 15 52 15q54 0 85 -52q17 -29 17 -60zM541 1227q0 -55 -45 -87q-25 -18 -56 -18q-63 0 -88 56q-10 23 -10 51q0 63 44 94q22 16 52 16q55 0 86 -52q17 -29 17 -60zM991 899l-213 -842
q-67 -264 -167 -377q-91 -104 -218 -104q-93 0 -136 56q-24 31 -24 75q0 41 40 66q21 14 44 14q44 0 69 -35q13 -18 13 -39q0 -22 -18 -47q-8 -11 -8 -20q0 -23 41 -23q109 0 188 345l6 26l129 518l-114 -190q-191 -300 -343 -339q-24 -6 -47 -6q-94 0 -109 81q-3 18 -3 40
q0 84 72 322q68 224 79 291q4 29 4 49q0 53 -64 58q-9 1 -22 1h-36v29q150 18 307 55l6 -4q-187 -729 -188 -762q0 -45 36 -50q4 -1 9 -1q71 0 209 183q127 170 209 350q49 107 49 155q0 47 -103 47l-50 -2h-1v33q92 5 304 43q26 5 44 8z" />
    <glyph glyph-name="ff" unicode="ff" horiz-adv-x="1077" 
d="M1386 1255q0 -45 -41 -69q-20 -12 -42 -12q-52 0 -71 44q-7 15 -7 33q0 21 15 49q5 11 5 19q0 24 -47 24q-159 0 -243 -437q0 -1 -5 -29h221l-12 -66h-223l-148 -655q-129 -569 -400 -580h-11q-73 0 -122 42q-38 33 -38 79q0 48 34 75q18 13 40 13q43 0 68 -35
q14 -19 14 -41q0 -16 -13 -38q-6 -10 -6 -19q0 -24 28 -32q5 -1 11 -1q129 0 198 317q1 6 3 15l180 860h-344l-147 -655q-117 -523 -359 -575q-26 -5 -53 -5q-82 0 -128 48q-32 33 -32 79q0 48 38 71q17 11 38 11q44 0 68 -37q12 -18 12 -39q0 -13 -14 -39q-5 -10 -5 -18
q0 -27 41 -27h9q108 0 173 252q9 34 17 74l119 584l35 186q13 53 28 90h-178l14 66h179q75 259 181 379q123 139 314 139q96 0 156 -46q38 -29 47 -71q79 98 196 110q13 1 27 1q89 0 142 -48q38 -34 38 -86zM903 1165q-61 0 -81 49q-7 15 -7 35q0 29 19 50q8 10 8 18
q0 33 -72 33q-161 0 -252 -226q-25 -60 -70 -227q-4 -11 -6 -20h351q59 192 110 288z" />
    <glyph glyph-name="fi" unicode="fi" 
d="M-133 -293q0 -15 -13 -37q-6 -10 -6 -18q8 -25 41 -27q103 0 165 195q26 80 70 309q5 27 9 47q118 586 137 635h-178l14 66h179q75 244 163 358q124 160 326 160q119 0 178 -63q33 -35 33 -81q0 -57 -47 -78q-18 -8 -39 -8q-54 0 -76 46q-8 18 -8 40q0 27 21 53q6 8 6 13
q0 27 -53 32q-8 1 -17 1q-119 0 -190 -103q-54 -80 -118 -295q-9 -30 -22 -75h308q70 0 175 14q17 2 27 2l11 -6q0 -34 -112 -430q-93 -325 -93 -361q0 -14 16 -19q3 -1 6 -1q41 0 160 141l33 -18q-117 -161 -199 -199q-35 -16 -72 -16q-63 0 -88 52q-10 22 -10 48
q0 66 126 515q50 179 50 192q0 20 -32 20h-318l-147 -655q-107 -470 -315 -560q-47 -20 -97 -20q-91 0 -136 57q-24 31 -24 70q0 49 39 72q17 10 37 10q45 0 69 -38q11 -19 11 -40z" />
    <glyph glyph-name="fl" unicode="fl" 
d="M604 84q0 76 85 406q62 239 79 321h-340l-141 -635q-98 -443 -289 -558q-60 -36 -127 -36q-91 0 -136 57q-24 31 -24 70q0 48 38 72q17 10 36 10q47 0 71 -38q11 -18 11 -38q0 -14 -15 -43q-4 -8 -4 -12q0 -27 43 -27q67 0 113 82q71 125 158 572q22 112 47 254l57 270
h-182l12 66h187q93 312 245 433q109 87 256 87q37 0 151 -19q27 -4 38 -4q6 0 60 19q13 4 18 4q10 0 10 -19q0 -5 -301 -1261l-2 -21q0 -18 17 -21q3 -1 5 -1q31 0 102 76q23 25 58 65l33 -18q-110 -151 -179 -191q-42 -24 -92 -24q-64 0 -88 54q-10 21 -10 48zM840 1245
q0 15 19 48q5 9 5 14q0 21 -38 36q-24 9 -50 9q-162 0 -258 -230q-36 -85 -65 -204l-11 -41h342l74 294q4 14 -9 42q-9 18 -9 32z" />
    <glyph glyph-name="ffi" unicode="ffi" horiz-adv-x="1529" 
d="M1468 887q0 -61 -87 -337q-95 -301 -111 -392q-6 -37 -6 -60q0 -21 24 -22q43 0 158 141l33 -18q-95 -130 -164 -178q-54 -37 -105 -37q-69 0 -92 59q-8 20 -8 45q0 80 149 595q18 65 25 89q4 12 4 16q0 23 -35 23h-317l-148 -655q-123 -550 -384 -579q-13 -1 -27 -1
q-82 0 -128 48q-32 33 -32 79q0 48 38 71q17 11 38 11q44 0 68 -37q12 -18 12 -39q0 -13 -14 -39q-5 -10 -5 -18q0 -27 41 -27h8q122 0 191 326l119 584l35 185q12 54 28 91h-346l-147 -655q-117 -523 -359 -575q-26 -5 -53 -5q-82 0 -128 48q-32 33 -32 79q0 48 38 71
q17 11 38 11q44 0 68 -37q12 -18 12 -39q0 -13 -14 -39q-5 -10 -5 -18q0 -27 41 -27h9q108 0 173 252q9 34 17 74l119 584l35 186q13 53 28 90h-178l14 66h179q75 259 181 379q123 139 314 139q94 0 155 -46q43 -32 48 -81q118 127 303 127q93 0 154 -45q51 -38 51 -97
t-48 -81q-17 -7 -38 -7q-53 0 -75 45q-9 17 -9 39q0 29 19 50q8 10 8 18q0 33 -72 33q-161 0 -252 -226q-25 -60 -70 -227q-4 -11 -6 -20h307q26 0 147 12q32 3 56 4zM905 1165q-63 0 -83 48q-7 16 -7 36q0 29 19 50q8 10 8 18q0 33 -72 33q-161 0 -252 -226
q-25 -60 -70 -227q-4 -11 -6 -20h349q50 180 114 288z" />
    <glyph glyph-name="ffl" unicode="ffl" horiz-adv-x="1531" 
d="M1266 98q0 -24 24 -24q37 0 151 133q5 5 7 8l33 -18q-97 -138 -174 -185q-50 -30 -99 -30q-67 0 -89 61q-7 21 -7 45q0 111 85 417q66 241 79 306h-340l-141 -635q-92 -421 -269 -546q-67 -48 -145 -48q-88 0 -133 49q-29 31 -29 76q0 52 39 75q17 9 37 9q41 0 67 -35
q13 -18 13 -39q0 -14 -14 -40q-5 -10 -5 -17q0 -27 43 -27h9q65 0 106 78q43 83 103 361l140 661q8 39 17 78h-344l-147 -655q-117 -523 -359 -575q-26 -5 -53 -5q-82 0 -128 48q-32 33 -32 79q0 48 38 71q17 11 38 11q44 0 68 -37q12 -18 12 -39q0 -13 -14 -39
q-5 -10 -5 -18q0 -27 41 -27h9q108 0 173 252q9 34 17 74l119 584l35 186q13 53 28 90h-178l14 66h179q75 259 181 379q123 139 314 139q94 0 155 -45q48 -36 50 -90q124 132 308 137h12q25 0 109 -16q39 -7 65 -7q12 0 50 16q18 7 30 7q10 0 10 -21q0 -27 -49 -216
q-89 -342 -172 -697l-63 -240q-19 -84 -19 -125zM1372 1305q0 35 -62 45q-13 2 -24 2q-183 0 -284 -294q-21 -59 -52 -181h342q43 149 68 274q6 27 6 35q0 3 -12 34q-6 15 -6 25q0 15 19 47q5 9 5 13zM911 1167l-12 -2q-53 0 -75 45q-9 17 -9 39q0 29 19 50q8 10 8 18
q0 33 -72 33q-161 0 -252 -226q-25 -60 -70 -227q-4 -11 -6 -20h349q48 173 120 290z" />
    <glyph glyph-name="uniFB06" unicode="st" horiz-adv-x="1361" 
d="M1165 1008h-20q-100 0 -211 99q-9 9 -102 101t-158 113q-29 10 -58 10q-100 0 -168 -75q-59 -65 -59 -152q0 -106 96 -177q80 -59 179 -59q37 0 57 37h29l-41 -284h-33q-14 156 -102 211q-39 24 -91 24q-86 0 -105 -79q-5 -18 -5 -40q0 -58 78 -165l94 -126
q78 -113 78 -194q0 -156 -122 -229q-77 -46 -184 -46q-33 0 -114 23q-55 16 -88 16q-28 0 -47 -39l-2 -4h-33l41 326h32q34 -218 142 -265q32 -14 71 -14q91 0 130 79q18 39 18 87q0 63 -82 180l-93 133q-69 106 -69 177q0 125 96 187q51 33 121 38q-83 74 -91 183
q-1 10 -1 20q0 114 83 193q78 75 185 75q100 0 207 -95q9 -8 100 -98q95 -93 164 -116q35 -12 70 -12q48 0 85 41q22 24 34 26h2q13 3 16 -14q0 -26 -59 -227h164l-10 -66h-172l-159 -595q-24 -93 -24 -103q0 -30 26 -34q4 -1 7 -1q41 0 157 153q5 6 7 9l26 -15
q-79 -120 -128 -168q-80 -80 -162 -80q-60 0 -87 40q-12 18 -12 42q0 22 38 156l9 33l148 563h-152l-2 11v1q5 22 40 40l79 39q69 40 137 106z" />
    <glyph glyph-name=".notdef" horiz-adv-x="886" 
d="M68 0v1365h682v-1365h-682zM136 68h546v1229h-546v-1229z" />
    <glyph glyph-name=".null" horiz-adv-x="0" 
 />
    <glyph glyph-name="nonmarkingreturn" horiz-adv-x="682" 
 />
    <glyph glyph-name="space" unicode=" " horiz-adv-x="512" 
 />
    <glyph glyph-name="exclam" unicode="!" horiz-adv-x="681" 
d="M246 371q44 205 135 682q40 207 67 259q25 49 73 53q7 1 16 1q75 0 81 -91v-13q0 -62 -28 -132l-139 -326q-79 -195 -170 -442zM186 195q56 0 90 -48q21 -29 21 -63q0 -54 -48 -87q-29 -20 -65 -20q-58 0 -88 50q-16 27 -16 61q0 51 45 85q28 22 61 22z" />
    <glyph glyph-name="quotedbl" unicode="&#x22;" horiz-adv-x="860" 
d="M662 862q22 280 31 337q19 120 67 150q24 15 59 15q41 0 59 -33q7 -12 7 -26q0 -49 -180 -443h-43zM295 862q22 284 34 349q20 113 68 140q23 13 58 13q38 0 56 -32q7 -13 7 -27q0 -53 -180 -443h-43z" />
    <glyph glyph-name="numbersign" unicode="#" 
d="M952 547l-22 -111h-215l-162 -436h-127l164 436h-266l-162 -436h-127l164 436h-195l23 111h215l110 293h-196l22 110h215l164 434h125l-164 -434h266l164 434h125l-164 -434h197l-23 -110h-215l-110 -293h194zM743 840h-266l-110 -293h266z" />
    <glyph glyph-name="dollar" unicode="$" 
d="M528 674q-159 113 -220 202q-56 84 -56 175q0 128 97 216q26 24 57 42q76 45 161 54q47 5 131 5l35 129h70l-33 -139q152 -36 248 -105l-57 -233l-31 4q-4 141 -66 205q-38 39 -108 67l-115 -485q174 -135 231 -213q55 -77 60 -183v-26q0 -323 -379 -379q-53 -7 -113 -10
l-43 -182h-71l45 186q-193 38 -308 133l56 252l33 6q18 -174 75 -243q49 -60 160 -86zM688 1313q-218 0 -263 -127q-13 -37 -13 -84q0 -84 57 -148q36 -41 109 -94zM592 627l-139 -576q325 25 325 281q0 92 -45 156q-38 54 -141 139z" />
    <glyph glyph-name="percent" unicode="%" horiz-adv-x="1705" 
d="M1618 539q0 -151 -76 -298q-87 -166 -223 -219q-55 -22 -115 -22q-154 0 -215 124q-31 64 -31 155q0 151 106 290q97 127 228 172q54 19 107 19q136 0 191 -100q28 -51 28 -121zM1239 61q115 0 212 135q85 117 109 261q7 39 7 73q0 82 -59 131q-38 33 -87 33
q-122 0 -217 -182q-65 -126 -86 -258q-4 -28 -4 -47q0 -146 125 -146zM825 1108q0 -124 -74 -263q-85 -159 -211 -221q-65 -32 -134 -32q-110 0 -181 86q-63 75 -63 180q0 162 107 305q97 130 232 175q54 18 107 18q76 0 130 -35l10 -8l36 -33q38 -35 142 -35q144 0 247 70
q40 27 82 69h82l-790 -1411h-96l716 1282q-92 -50 -165 -58q-28 -3 -64 -3q-76 0 -127 20q2 -6 2 -12q12 -52 12 -94zM754 1229q-72 19 -112 53q-14 12 -26 12q-75 0 -160 -113q-91 -121 -126 -276q-13 -60 -13 -114q0 -87 65 -117q25 -12 56 -12q106 0 202 109
q99 113 125 268q7 43 7 85q0 47 -18 105z" />
    <glyph glyph-name="ampersand" unicode="&#x26;" horiz-adv-x="1593" 
d="M1200 1171q0 -181 -352 -358q77 -330 178 -485q126 151 150 219q12 32 12 65q0 41 -35 54q-22 9 -68 12v39h379v-35q-70 -7 -99 -27q-32 -22 -96 -112q-179 -253 -178 -251l-26 -36q86 -144 172 -178q36 -15 78 -15q56 0 123 47q9 7 20 15l23 -23q-96 -109 -191 -131
q-34 -8 -73 -8q-118 0 -210 84q-34 31 -71 78q-180 -115 -265 -142q-61 -20 -143 -20q-198 0 -298 114q-74 84 -74 210q0 241 344 409q26 13 178 78l-14 164v4q0 199 103 318q90 104 224 104q104 0 165 -72q44 -52 44 -121zM682 707q-188 -71 -277 -202q-57 -83 -57 -169
q0 -121 85 -199q73 -67 177 -67q144 0 273 103q7 5 14 11q-104 130 -215 523zM840 877q138 87 181 154q38 59 38 151q0 95 -56 112q-16 4 -36 4q-135 0 -138 -254v-12q0 -80 11 -155z" />
    <glyph glyph-name="quotesingle" unicode="'" horiz-adv-x="438" 
d="M270 862q23 280 32 336q19 120 67 151q23 15 59 15q41 0 59 -33q7 -12 7 -26q0 -50 -181 -443h-43z" />
    <glyph glyph-name="parenleft" unicode="(" horiz-adv-x="681" 
d="M289 -371q-128 234 -170 415q-33 145 -33 325q0 466 354 833q46 48 171 162q4 3 7 6l27 -31q-136 -142 -202 -263q-32 -59 -62 -134q-112 -270 -144 -586q-10 -95 -10 -182q0 -204 49 -378q19 -68 50 -154z" />
    <glyph glyph-name="parenright" unicode=")" horiz-adv-x="681" 
d="M389 1370q138 -246 179 -467q24 -131 24 -280q0 -351 -202 -639q-118 -168 -331 -353l-26 31q135 141 200 257q23 42 46 93q105 225 150 536q22 147 22 275q0 295 -99 533l-2 4z" />
    <glyph glyph-name="asterisk" unicode="*" 
d="M709 1284q0 -29 -27 -113q-29 -89 -29 -147v-55q94 64 184 160q47 49 68 58q12 5 25 5q51 0 71 -42q7 -15 7 -34q0 -48 -41 -66q-11 -6 -94 -26q-111 -28 -201 -84l76 -39q41 -22 142 -42q80 -17 102 -40q16 -17 16 -45q0 -47 -40 -70q-17 -10 -38 -10q-30 0 -80 51
q-75 76 -75 77q-59 55 -122 91q3 -135 40 -237q18 -48 18 -72q0 -52 -43 -74q-17 -8 -37 -8q-45 0 -64 42q-8 16 -8 36q0 24 28 104q31 90 31 150q0 25 -4 59q-6 -6 -45 -29q-65 -38 -133 -124q-52 -64 -102 -64q-41 0 -62 39q-10 17 -10 37q0 47 44 66q13 5 102 28
q109 27 194 78l-24 14q-70 45 -187 66q-77 14 -99 28q-30 20 -30 66q0 45 39 65q15 7 33 7q40 0 73 -35l61 -69q59 -61 148 -111q0 116 -36 230q-17 54 -17 77q0 66 51 79q10 3 21 3q48 0 67 -43q7 -17 7 -37z" />
    <glyph glyph-name="plus" unicode="+" horiz-adv-x="1382" 
d="M625 586v450h135v-450h448v-135h-448v-451h-135v451h-449v135h449z" />
    <glyph glyph-name="comma" unicode="," horiz-adv-x="512" 
d="M145 -47q0 27 -36 61q-38 36 -48 58q-8 18 -8 39q0 56 50 83q25 13 55 13q61 0 96 -60q22 -38 22 -86q0 -143 -183 -273q-38 -27 -83 -52l-18 35q145 97 152 172q1 5 1 10z" />
    <glyph glyph-name="hyphen" unicode="-" horiz-adv-x="681" 
d="M578 522l-27 -129h-451l29 129h449z" />
    <glyph glyph-name="period" unicode="." horiz-adv-x="512" 
d="M168 205q57 0 93 -49q22 -31 22 -68q0 -57 -51 -91q-31 -20 -68 -20q-55 0 -89 48q-20 29 -20 63q0 62 50 97q29 20 63 20z" />
    <glyph glyph-name="slash" unicode="/" horiz-adv-x="569" 
d="M641 1364h150l-775 -1401h-149z" />
    <glyph glyph-name="zero" unicode="0" 
d="M1018 866q0 -207 -97 -429q-105 -241 -268 -361q-123 -90 -258 -90q-153 0 -244 131q-85 123 -85 319q0 287 132 545q112 221 275 329q112 74 225 74q164 0 249 -163q71 -135 71 -355zM403 43q147 0 269 234q112 214 161 523q23 146 23 269q0 193 -103 243q-31 15 -69 15
q-165 0 -294 -297q-100 -228 -146 -536q-17 -111 -17 -175q0 -187 91 -250q37 -26 85 -26z" />
    <glyph glyph-name="one" unicode="1" 
d="M100 0v29q144 12 187 42q30 22 43 68l282 1008q15 50 15 70q0 45 -44 59q-13 4 -28 4h-6l-117 -4v31l43 8l346 67l6 2q11 0 11 -14q0 -16 -13 -59l-293 -1063l-33 -128q-3 -15 -3 -24q0 -55 96 -63q21 -2 47 -2h33v-31h-572z" />
    <glyph glyph-name="two" unicode="2" 
d="M164 1057q131 327 430 327q139 0 235 -99q97 -101 97 -249q0 -104 -68 -207q-63 -95 -237 -270l-394 -393v-10h389q96 0 140 37q32 27 63 92l35 -15l-102 -270h-727v35l430 459q267 284 292 451q3 20 3 40q0 116 -85 189q-71 61 -171 61q-146 0 -241 -123
q-24 -31 -46 -70z" />
    <glyph glyph-name="three" unicode="3" 
d="M287 772q324 54 432 184q57 68 57 156q0 104 -75 155q-46 31 -107 31q-124 0 -225 -132q-2 -3 -4 -5l-33 10q67 132 197 186q67 27 139 27q134 0 217 -86q69 -72 69 -174q0 -103 -64 -165q-66 -64 -255 -138v-6q153 -70 186 -208q10 -44 10 -97q0 -182 -117 -324
q-129 -156 -342 -191q-54 -9 -112 -9q-181 0 -220 79q-9 19 -9 41q0 73 77 79q6 1 13 1q50 0 120 -50q68 -47 93 -58q33 -15 65 -15q110 0 187 90q82 95 82 246q0 227 -147 299q-84 41 -234 41v33z" />
    <glyph glyph-name="four" unicode="4" 
d="M928 494l-29 -134h-205l-94 -360h-162l101 365h-537l41 137l854 882h84l-248 -890h195zM567 494l197 659h-8l-623 -651v-8h434z" />
    <glyph glyph-name="five" unicode="5" 
d="M717 496q0 227 -201 320q-71 33 -228 67q-12 2 -20 4v31l213 446h525l-48 -145h-471l-79 -181q172 -43 248 -92q34 -22 67 -53q135 -129 135 -320q0 -208 -135 -369q-129 -154 -327 -201q-73 -17 -148 -17q-151 0 -200 65q-17 23 -17 51q0 55 47 75q17 7 37 7
q39 0 101 -44q66 -47 97 -58q27 -10 54 -10q123 0 224 106q102 107 122 258q4 30 4 60z" />
    <glyph glyph-name="six" unicode="6" 
d="M1067 1405v-33q-192 -23 -386 -176q-172 -135 -273 -319l8 -5q91 43 182 43q157 0 255 -107q93 -101 93 -253q0 -204 -121 -363q-110 -147 -273 -191q-57 -15 -116 -15q-180 0 -283 131q-92 116 -92 301q0 273 168 518q102 148 250 258q155 113 309 159q110 33 279 52z
M416 39q176 0 275 222q60 136 72 289q1 18 1 32q0 147 -93 216q-58 44 -141 44q-114 0 -187 -90q-16 -20 -32 -45q-59 -102 -84 -275q-10 -66 -10 -125q0 -176 97 -240q44 -28 102 -28z" />
    <glyph glyph-name="seven" unicode="7" 
d="M1100 1343l-795 -1359h-143l751 1224l-4 6h-454q-101 0 -162 -41q-47 -30 -111 -106l-28 18l165 279h768z" />
    <glyph glyph-name="eight" unicode="8" 
d="M469 -14q-200 0 -314 112q-94 93 -94 232q0 198 217 326q79 47 183 81q-127 141 -159 228q-19 52 -19 112q0 146 114 232q100 75 254 75q171 0 274 -95q85 -78 85 -193q0 -128 -109 -208q-77 -56 -227 -106q163 -169 208 -284q27 -68 27 -144q0 -152 -117 -256
q-122 -108 -310 -112h-13zM506 705q-142 -55 -225 -159q-80 -101 -80 -229q0 -136 91 -218q75 -68 185 -68q128 0 209 91q70 80 70 195q0 76 -28 127q-32 60 -169 205q-22 24 -53 56zM637 817l68 33q149 77 163 214q2 15 2 32q0 129 -84 196q-56 45 -135 45q-125 0 -179 -98
q-30 -56 -30 -133q0 -69 45 -131q39 -54 150 -158z" />
    <glyph glyph-name="nine" unicode="9" 
d="M47 -35v37q274 59 493 289q118 125 171 240q6 14 10 26l-8 4q-133 -84 -236 -91q-14 -1 -28 -1q-140 0 -227 110q-81 102 -81 257q0 183 116 338q105 141 255 190q63 20 125 20q173 0 275 -130q96 -122 96 -316q0 -268 -160 -505q-90 -132 -217 -232q-149 -117 -304 -170
q-110 -37 -280 -66zM651 1331q-183 0 -273 -216q-50 -122 -56 -253v-14q0 -192 104 -258q43 -27 100 -27q101 0 185 62q16 12 30 26q57 55 91 215q22 100 22 195q0 177 -99 241q-44 29 -104 29z" />
    <glyph glyph-name="colon" unicode=":" horiz-adv-x="681" 
d="M217 205q59 0 93 -50q20 -31 20 -67q0 -59 -51 -92q-29 -19 -66 -19q-56 0 -90 48q-21 29 -21 63q0 61 50 96q29 21 65 21zM420 903q61 0 95 -51q20 -29 20 -66q0 -59 -51 -91q-30 -19 -66 -19q-60 0 -93 49q-18 28 -18 61q0 65 51 99q28 18 62 18z" />
    <glyph glyph-name="semicolon" unicode=";" horiz-adv-x="681" 
d="M209 -47q0 27 -36 61q-38 36 -48 58q-8 18 -8 39q0 55 49 82q25 14 55 14q63 0 98 -61q21 -37 21 -85q0 -143 -183 -273q-38 -27 -83 -52l-19 35q146 97 153 172q1 5 1 10zM420 903q61 0 95 -51q20 -29 20 -66q0 -59 -51 -91q-30 -19 -66 -19q-60 0 -93 49q-18 28 -18 61
q0 65 51 99q28 18 62 18z" />
    <glyph glyph-name="less" unicode="&#x3c;" horiz-adv-x="1382" 
d="M1212 -20l-1040 471v135l1040 471v-148l-860 -391l860 -391v-147z" />
    <glyph glyph-name="equal" unicode="=" horiz-adv-x="1382" 
d="M1208 791v-136h-1032v136h1032zM1208 381v-135h-1032v135h1032z" />
    <glyph glyph-name="greater" unicode="&#x3e;" horiz-adv-x="1382" 
d="M172 -20v147l860 391l-860 391v148l1040 -471v-135z" />
    <glyph glyph-name="question" unicode="?" 
d="M508 1217q0 -20 19 -62q12 -26 12 -45q0 -45 -43 -64q-18 -8 -39 -8q-58 0 -75 58q-5 19 -5 41q0 108 95 171q78 52 192 52q160 0 244 -96q59 -69 59 -168q0 -120 -111 -231q-34 -34 -151 -128q-126 -102 -180 -177q-49 -68 -68 -144l-15 -60l-34 4q25 147 58 217
q36 73 148 200q11 12 23 26q129 144 161 234q17 50 17 104q0 127 -95 163q-30 11 -69 11q-104 0 -134 -59q-9 -17 -9 -39zM377 190q56 0 89 -47q19 -28 19 -61q0 -51 -45 -85q-28 -22 -61 -22q-61 0 -92 50q-17 26 -17 57q0 58 47 90q27 18 60 18z" />
    <glyph glyph-name="at" unicode="@" horiz-adv-x="1884" 
d="M657 512q0 142 74 282q85 159 217 210q52 20 109 20q64 0 97 -33q21 -21 48 -71l21 75h141l-133 -516q-6 -21 -6 -43q8 -81 75 -86q117 0 197 136q65 112 71 244q1 11 1 22q0 192 -131 343q-125 145 -314 189q-68 16 -139 16q-224 0 -380 -152q-154 -150 -186 -394
q-7 -55 -7 -113q0 -241 145 -405q140 -158 364 -187q45 -6 91 -6q145 0 291 54q46 17 102 42l25 -59q-196 -91 -323 -109q-55 -8 -120 -8q-264 0 -466 148q-184 134 -249 345q-30 95 -30 197q0 245 153 435q143 179 369 245q107 31 221 31q246 0 430 -136q168 -125 218 -317
q18 -69 18 -141q0 -184 -100 -326q-91 -127 -218 -155q-30 -6 -59 -6q-97 0 -150 68q-26 35 -32 79q-98 -122 -215 -142q-19 -3 -37 -3q-86 0 -140 78q-43 63 -43 149zM1167 819q0 91 -63 111q-12 4 -25 4q-66 0 -141 -70q-103 -97 -128 -243q-7 -38 -7 -78q0 -124 70 -160
q23 -12 51 -12q86 0 159 131q68 122 82 268q2 26 2 49z" />
    <glyph glyph-name="A" unicode="A" horiz-adv-x="1251" 
d="M1155 33v-33h-504v33q110 10 138 36q22 21 22 72q0 16 -4 54l-41 268h-451l-116 -232q-37 -74 -40 -107q-1 -9 -1 -20q0 -39 22 -52q22 -12 99 -19v-33h-383v33q53 10 84 40q44 41 150 221q14 22 30 50l594 1024h53l192 -1159q19 -107 40 -135q22 -30 84 -38q13 -1 32 -3
zM358 537h398l-90 532z" />
    <glyph glyph-name="B" unicode="B" horiz-adv-x="1251" 
d="M846 719q128 -54 182 -109q76 -77 76 -200q0 -174 -140 -287q-156 -121 -403 -123h-577v33q84 15 109 34q30 23 52 100q2 8 5 17l251 906q23 75 23 131q0 45 -36 62q-32 14 -122 22v32h529q290 0 376 -160q33 -61 33 -141q0 -236 -332 -311zM487 678q-41 -162 -116 -412
q-21 -71 -21 -119q0 -75 103 -85q13 -1 28 -1q220 0 327 129q75 91 75 228q0 125 -77 197q-26 24 -58 38q-60 25 -261 25zM641 1219l-133 -476q231 0 324 42q15 6 28 14q122 68 135 221q2 17 2 35q0 173 -140 210q-42 11 -99 11q-79 0 -101 -24q-10 -12 -16 -33z" />
    <glyph glyph-name="C" unicode="C" horiz-adv-x="1366" 
d="M967 1364q83 0 237 -35q64 -14 86 -14q51 0 72 34q3 5 6 11h43l-76 -408l-37 6q-30 332 -313 332q-184 0 -329 -126q-17 -15 -33 -31q-162 -168 -226 -414q-32 -122 -32 -244q0 -247 141 -354q87 -66 217 -66q148 0 273 78q85 54 198 164l35 -29q-179 -209 -354 -271
q-95 -34 -205 -34q-224 0 -372 137q-145 134 -161 348q-2 25 -2 50q0 258 155 484q138 202 350 304q160 78 327 78z" />
    <glyph glyph-name="D" unicode="D" horiz-adv-x="1478" 
d="M1434 786q0 -272 -174 -476q-175 -205 -472 -277q-135 -33 -286 -33h-518v33q84 15 109 34q30 23 52 100q2 8 5 17l251 906q23 78 23 131q0 43 -36 60q-32 15 -122 24v32h570q277 0 440 -153q158 -150 158 -398zM1206 836q0 250 -154 361q-108 79 -286 79q-88 0 -112 -30
q-8 -11 -13 -29l-248 -885q-45 -158 -45 -195q0 -58 70 -71q26 -5 63 -5q294 0 488 176q190 173 228 465q9 65 9 134z" />
    <glyph glyph-name="E" unicode="E" horiz-adv-x="1236" 
d="M510 68q265 0 393 68q81 43 162 144q19 25 51 68l33 -16l-127 -332h-1038v33q85 15 112 38q28 24 52 105l2 8l251 906q19 68 23 131q0 43 -36 60q-32 15 -122 24v32h1018l-63 -313l-43 4q4 70 4 92q0 77 -49 108q-60 37 -267 41q-35 1 -78 1q-104 0 -128 -17
q-14 -11 -21 -36l-135 -478q142 4 162 4q122 6 163 25q43 20 79 86q15 28 40 84l37 -8l-139 -475l-41 10q14 63 14 106q0 57 -35 77q-34 18 -122 18h-17q-52 0 -160 6q-38 -146 -117 -411q-22 -74 -22 -124q0 -52 84 -64q32 -5 80 -5z" />
    <glyph glyph-name="F" unicode="F" horiz-adv-x="1251" 
d="M813 571q0 65 -38 83q-27 12 -120 12q-52 0 -166 6l-127 -457q-18 -67 -18 -92q0 -54 48 -73q34 -13 108 -17v-33h-516v33q84 12 110 32q29 22 52 99q3 9 6 20l251 906q23 75 23 131q0 44 -28 59q-29 15 -130 25v32h1020l-65 -313l-43 4q6 64 6 88q0 78 -49 109
q-60 39 -266 44q-45 1 -103 1q-89 0 -112 -28q-8 -10 -13 -25l-135 -478q216 3 274 15q67 14 105 64q21 28 63 112l37 -10l-156 -480l-34 11q16 84 16 120z" />
    <glyph glyph-name="G" unicode="G" horiz-adv-x="1478" 
d="M932 1364q116 0 259 -45q78 -25 105 -25q66 0 110 53q7 8 13 17l31 -8l-100 -404l-37 6q-26 236 -206 308q-70 28 -159 28q-295 0 -466 -294q-108 -186 -141 -431q-9 -63 -9 -110q0 -258 172 -361q97 -59 241 -59q174 0 236 100q21 35 46 128q5 18 9 30q57 197 58 254
q0 54 -101 63q-3 0 -59 7v32h545v-32q-105 -7 -142 -38q-35 -28 -57 -110l-100 -383q-209 -116 -436 -126q-24 -1 -50 -1q-253 0 -416 147q-146 130 -168 329q-4 32 -4 65q0 256 155 481q138 200 348 302q158 77 323 77z" />
    <glyph glyph-name="H" unicode="H" horiz-adv-x="1478" 
d="M1571 1337v-32q-86 -15 -112 -36q-29 -24 -52 -100l-4 -16l-270 -985q-7 -22 -7 -49q0 -45 34 -62q31 -15 126 -24v-33h-559v33q114 12 156 52q32 31 51 99l133 484h-584l-135 -500q-6 -21 -6 -45q0 -46 28 -62q27 -16 117 -28v-33h-503v33q84 15 109 34q30 23 52 100
q2 8 5 17l251 906q23 78 23 127q0 46 -35 63q-31 16 -123 25v32h559v-32q-118 -9 -166 -66q-26 -31 -41 -86l-110 -399h584l94 336q22 80 22 127q0 45 -30 62q-28 15 -113 26v32h506z" />
    <glyph glyph-name="I" unicode="I" horiz-adv-x="694" 
d="M-16 0v33q84 15 109 34q30 23 52 100q2 8 5 17l251 906q23 78 23 127q0 45 -31 62q-29 15 -112 26v32h505v-32q-85 -15 -111 -35q-30 -23 -52 -98q-2 -9 -5 -19l-251 -907q-23 -80 -23 -129q0 -44 27 -59q26 -15 112 -25v-33h-499z" />
    <glyph glyph-name="J" unicode="J" horiz-adv-x="909" 
d="M1006 1337v-32q-85 -12 -111 -33q-29 -22 -51 -99q-3 -9 -6 -20l-211 -760q-35 -124 -58 -177q-111 -253 -342 -253q-134 0 -200 75q-39 45 -39 105q0 71 50 100q20 11 44 11q49 0 80 -43q18 -25 18 -53l-2 -48v-1q0 -82 72 -82q56 0 84 63q8 20 16 47l268 953
q25 84 25 131q0 43 -34 60q-32 15 -124 24v32h521z" />
    <glyph glyph-name="K" unicode="K" horiz-adv-x="1335" 
d="M1448 1337v-32q-72 -13 -154 -74l-614 -463l356 -621q40 -66 66 -84q28 -20 112 -28q9 -1 21 -2v-33h-563v33q39 6 59 6q90 13 94 53q0 63 -77 195l-248 426l-140 -510q-16 -55 -16 -80q0 -47 23 -62q25 -17 125 -28v-33h-508v33q86 13 111 32q27 21 49 93q4 11 8 26
l251 906q23 78 23 127q0 46 -35 63q-31 16 -123 25v32h559v-32q-123 -9 -171 -75q-22 -30 -35 -77l-109 -397l311 217q220 153 279 246q16 25 16 41q0 32 -69 38l-56 7v32h455z" />
    <glyph glyph-name="L" unicode="L" horiz-adv-x="1138" 
d="M553 74q217 0 314 38q98 39 169 145q32 48 68 122l41 -12l-119 -367h-1042v33q84 15 109 34q30 23 52 100q2 8 5 17l251 906q23 78 23 127q0 46 -35 63q-31 16 -123 25v32h559v-32q-118 -9 -166 -66q-26 -31 -41 -86l-251 -907q-21 -74 -21 -103q0 -43 54 -57
q46 -12 153 -12z" />
    <glyph glyph-name="M" unicode="M" horiz-adv-x="1695" 
d="M1788 1337v-32q-86 -14 -111 -33q-27 -21 -49 -91q-3 -12 -8 -28l-252 -907q-22 -78 -22 -125q0 -46 23 -61q26 -18 134 -27v-33h-559v33q112 12 154 52q33 31 53 101l264 963l-772 -1149h-35l-125 1118l-241 -887q-18 -56 -19 -108q0 -57 65 -77q31 -9 81 -13v-33h-406
v33q74 8 109 48q41 45 87 202q3 8 5 16l217 762q5 20 36 122q9 30 9 46q0 55 -102 71q-22 3 -50 5v32h371l113 -1009l688 1009h342z" />
    <glyph glyph-name="N" unicode="N" horiz-adv-x="1345" 
d="M1206 1094l20 68q3 19 3 38q0 59 -33 79q-29 18 -111 26v32h408v-32q-77 -17 -104 -39q-35 -30 -68 -129q-13 -41 -41 -138l-295 -1030h-37l-471 1127l-233 -865q-19 -63 -19 -110q0 -54 55 -73q31 -11 89 -15v-33h-406v33q72 10 102 37q37 34 76 156q13 41 33 110
l244 854q-33 72 -87 95q-33 15 -89 20v32h329l426 -1022z" />
    <glyph glyph-name="O" unicode="O" horiz-adv-x="1478" 
d="M123 453q0 277 183 522q145 195 352 303q165 86 313 86q186 0 315 -123q128 -121 144 -308q2 -24 2 -48q0 -208 -121 -428q-126 -230 -327 -364q-195 -130 -415 -130q-188 0 -312 128q-126 130 -134 338v24zM604 31q200 0 367 222q139 186 207 452q39 152 39 280
q0 179 -106 261q-66 50 -159 50q-207 0 -367 -212q-11 -15 -22 -31q-109 -159 -177 -393q-48 -164 -48 -283q0 -240 138 -316q55 -30 128 -30z" />
    <glyph glyph-name="P" unicode="P" horiz-adv-x="1234" 
d="M1223 1032q0 -153 -104 -259q-144 -148 -451 -148q-121 0 -189 16l-108 -395q-25 -88 -25 -119q0 -49 16 -63q19 -16 111 -29l12 -2v-33h-501v33q84 12 110 32q29 22 52 99q3 9 6 20l241 871q35 119 35 164q0 44 -37 62q-31 14 -108 24v32h508q298 0 393 -155
q39 -64 39 -150zM1012 1032q0 150 -93 205q-66 39 -182 39q-65 0 -84 -33q-6 -10 -10 -24l-145 -508q67 -11 106 -11q239 0 333 100q75 80 75 232z" />
    <glyph glyph-name="Q" unicode="Q" horiz-adv-x="1478" 
d="M123 453q0 276 186 524q145 192 350 301q162 86 304 86q195 0 326 -125q130 -123 142 -316q1 -18 1 -36q0 -253 -153 -489q-139 -215 -357 -337q-115 -63 -228 -81q-50 -8 -123 -13l-110 -117h51l13 3h1q26 0 220 -46q185 -43 245 -43q136 0 227 57q55 34 119 101l31 -22
q-112 -155 -282 -229q-105 -46 -207 -46q-100 0 -296 51q-155 41 -206 41q-122 0 -236 -63l-20 31q138 96 227 172q29 25 135 118q-107 25 -166 67q-10 8 -22 17q-143 111 -168 318q-4 37 -4 76zM600 35q210 0 379 231q138 188 203 453q35 144 35 264q0 185 -109 266
q-65 47 -156 47q-207 0 -367 -212q-11 -15 -22 -31q-110 -158 -178 -394q-47 -163 -47 -284q0 -218 121 -300q59 -40 141 -40z" />
    <glyph glyph-name="R" unicode="R" horiz-adv-x="1261" 
d="M1214 1042q0 -277 -385 -356l-18 -4l190 -502q36 -97 87 -126q31 -18 83 -21v-33h-303l-252 664l-133 10l-114 -428q-25 -95 -25 -119q0 -49 20 -64q22 -18 119 -30v-33h-499v33q84 13 110 34q29 23 52 103q2 6 4 14l251 906q25 92 25 129q0 51 -54 69q-14 4 -91 17v32
h507q303 0 392 -158q34 -59 34 -137zM641 1219l-133 -469q60 -11 104 -11q349 0 383 252q4 27 4 56q0 229 -254 229q-72 0 -93 -32q-7 -10 -11 -25z" />
    <glyph glyph-name="S" unicode="S" 
d="M633 1364q89 0 193 -34q52 -17 75 -17q47 0 70 25q10 10 22 28h47l-82 -408l-36 7q-7 181 -63 255q-59 76 -185 76q-138 0 -195 -93q-30 -49 -30 -116q0 -69 25 -113q28 -50 153 -177q11 -12 24 -25q151 -152 195 -238q37 -71 37 -161q0 -168 -111 -284t-278 -125
q-12 -1 -25 -1q-80 0 -207 45q-83 29 -112 29q-55 0 -75 -59q-2 -4 -3 -9h-37l69 457l41 -4q-4 -28 -4 -47q0 -153 93 -252q85 -88 206 -88q119 0 197 87q68 77 68 185q0 109 -109 232q-22 25 -131 133q-118 117 -160 200q-37 74 -37 150q0 156 110 253q101 89 255 89z" />
    <glyph glyph-name="T" unicode="T" horiz-adv-x="1138" 
d="M1296 1337l-90 -333l-35 4q7 48 7 92q0 128 -120 157q-39 9 -93 9h-113l-285 -1020q-24 -93 -24 -121q0 -54 34 -71q22 -11 72 -15l78 -6v-33h-594v33q121 9 167 54q33 32 50 97l295 1082h-43q-187 0 -267 -36q-73 -34 -129 -127q-22 -35 -48 -89l-37 8l86 315h1089z" />
    <glyph glyph-name="U" unicode="U" horiz-adv-x="1478" 
d="M1305 1210q0 61 -63 81q-28 8 -83 14v32h408v-32q-76 -17 -102 -39q-36 -29 -69 -128q-14 -42 -42 -139l-170 -583q-102 -348 -352 -428q-80 -25 -177 -25q-202 0 -329 102q-117 95 -117 236q0 115 88 434l109 393q14 61 14 93q0 43 -26 58q-28 16 -134 26v32h559v-32
q-128 -14 -173 -79q-20 -30 -43 -115q-5 -19 -9 -32q-201 -694 -201 -790q0 -121 98 -189q77 -53 189 -53q292 0 416 370q12 35 50 181q4 15 7 25q152 537 152 587z" />
    <glyph glyph-name="V" unicode="V" horiz-adv-x="1251" 
d="M1409 1337v-32q-60 -3 -105 -67q-5 -7 -10 -15l-764 -1260h-38l-175 1065q-30 178 -48 218q-18 38 -58 49q-16 5 -55 10v32h493v-32q-111 -13 -138 -41q-19 -20 -19 -64q0 -20 2 -31l135 -907l422 729q106 185 106 244q0 42 -66 59q-25 6 -63 11v32h381z" />
    <glyph glyph-name="W" unicode="W" horiz-adv-x="1705" 
d="M1855 1337v-32q-63 -21 -91 -50q-25 -27 -62 -98l-621 -1194h-41l-102 930h-10l-455 -930h-39l-127 1059q-21 163 -21 162q-13 70 -49 94q-29 19 -92 27v32h484v-32q-102 -12 -128 -38q-22 -21 -22 -75q0 -18 2 -29l90 -831l353 712l-19 142q-10 73 -36 94t-117 25v32
h487v-32q-96 -9 -121 -44q-18 -24 -18 -77l84 -852l383 753q43 89 43 138q0 45 -28 60q-26 14 -105 22v32h378z" />
    <glyph glyph-name="X" unicode="X" horiz-adv-x="1251" 
d="M1341 1337v-32q-93 -31 -174 -108q-36 -34 -82 -87l-346 -397l209 -529q35 -85 65 -110q31 -26 117 -37q13 -2 31 -4v-33h-559v33q113 8 137 26q19 15 19 54q0 43 -23 100l-137 338l-309 -352q-43 -49 -43 -97t50 -61q29 -8 83 -8v-33h-438v33q79 16 149 78
q56 49 212 232q163 189 259 298l-217 539q-30 72 -67 95q-35 22 -121 30v32h540v-32q-109 -15 -132 -43q-13 -15 -13 -41q0 -44 31 -115l120 -301l297 342q41 47 41 84q0 39 -32 54q-25 11 -93 20v32h426z" />
    <glyph glyph-name="Y" unicode="Y" horiz-adv-x="1138" 
d="M569 115q0 -48 40 -63q31 -12 143 -19v-33h-592v33q116 7 161 50q33 31 54 101l125 434l-158 551q-25 79 -43 99q-20 22 -84 33q-11 1 -29 4v32h490v-32q-111 -12 -134 -33q-14 -13 -14 -41q0 -33 41 -177q62 -215 97 -343l77 94q285 332 306 420q2 9 2 16q0 41 -59 54
q-24 5 -83 10v32h387v-32q-55 -26 -86 -59q-19 -19 -57 -66l-448 -553l-60 -207l-62 -218q-14 -58 -14 -87z" />
    <glyph glyph-name="Z" unicode="Z" horiz-adv-x="1138" 
d="M618 1264q-276 0 -370 -126q-20 -26 -51 -96l-7 -14l-38 10l94 299h995v-28l-989 -1235h330q249 0 354 64q65 40 117 134q13 23 41 78l39 -6l-111 -344h-1034v29l981 1235h-351z" />
    <glyph glyph-name="bracketleft" unicode="[" horiz-adv-x="796" 
d="M786 1303h-127q-64 0 -84 -38q-7 -14 -12 -34l-327 -1389q-9 -32 -9 -43q0 -57 101 -57h114l-14 -55h-385l403 1671h355z" />
    <glyph glyph-name="backslash" unicode="\" horiz-adv-x="569" 
d="M-84 1364h147l590 -1401h-145z" />
    <glyph glyph-name="bracketright" unicode="]" horiz-adv-x="796" 
d="M39 -258h127q57 0 75 25q11 16 19 49l330 1388q8 33 8 43q0 56 -100 56h-117l14 55h387l-403 -1671h-354z" />
    <glyph glyph-name="asciicircum" unicode="^" horiz-adv-x="864" 
d="M139 616h-139l371 748h123l370 -748h-139l-293 592z" />
    <glyph glyph-name="underscore" unicode="_" 
d="M1024 -256h-1024v102h1024v-102z" />
    <glyph glyph-name="grave" unicode="`" horiz-adv-x="681" 
d="M573 1008l-286 217q-39 29 -39 65q0 42 37 62q16 8 34 8q43 0 80 -47l238 -305h-64z" />
    <glyph glyph-name="a" unicode="a" 
d="M786 84q25 0 107 83l57 58l25 -20q-127 -156 -186 -195q-45 -30 -99 -30q-69 0 -80 54q-2 13 -2 29q0 49 25 148l22 88q-141 -200 -230 -264q-79 -58 -181 -58q-134 0 -185 106q-24 51 -24 122q0 186 124 379q107 166 254 254q108 65 208 65q114 0 152 -85q7 -16 11 -34
l23 99l6 6l125 14l14 -6q-3 -12 -12 -43q-149 -545 -179 -716q-3 -20 -3 -27q0 -20 20 -26q4 -1 8 -1zM748 733q0 80 -63 111q-27 14 -62 14q-143 0 -270 -207q-90 -149 -131 -322q-15 -61 -15 -98q0 -103 64 -139q24 -14 55 -14q111 0 228 150q111 140 165 324
q29 100 29 181z" />
    <glyph glyph-name="b" unicode="b" 
d="M225 1317v35q161 19 314 47l10 -10l-213 -795q131 203 240 267q71 42 155 42q116 0 184 -85q54 -66 54 -161q0 -183 -131 -367q-117 -164 -283 -250q-121 -63 -236 -63q-98 0 -197 45q-75 34 -75 64v8l279 1026q32 116 32 142q0 32 -18 41q-20 11 -115 14zM317 25
q179 0 324 206q97 139 139 302q15 57 15 94q0 114 -72 157q-31 19 -72 19q-150 0 -277 -226q-94 -165 -136 -366q-15 -72 -15 -117q0 -69 94 -69z" />
    <glyph glyph-name="c" unicode="c" horiz-adv-x="909" 
d="M645 860q-163 0 -280 -169q-95 -137 -120 -317q-7 -47 -7 -89q0 -155 92 -210q40 -24 94 -24q104 0 203 80q41 33 90 86l33 -20q-127 -161 -260 -202q-59 -18 -128 -18q-185 0 -260 132q-41 72 -41 176q0 194 127 364q116 155 285 219q90 35 182 35q111 0 174 -66
q41 -43 41 -100q0 -53 -46 -80q-24 -14 -52 -14q-61 0 -76 51q-4 12 -4 27q0 20 22 70q9 19 9 28q0 31 -51 39q-13 2 -27 2z" />
    <glyph glyph-name="d" unicode="d" 
d="M948 227l25 -20q-148 -207 -271 -231q-14 -3 -28 -3q-57 0 -78 51q-8 19 -8 42q0 57 25 177q0 2 1 5q-117 -173 -207 -228q-70 -43 -161 -43q-129 0 -184 100q-31 56 -31 134q0 174 125 364q109 165 257 257q114 71 216 71q82 0 113 -57q12 -24 20 -62l90 336
q31 115 31 144q0 32 -20 41q-21 9 -107 12v35q162 15 313 47l10 -10q-136 -538 -202 -762q-106 -352 -131 -484q-3 -15 -3 -20q0 -29 24 -39q7 -2 13 -2q30 0 66 34q30 28 102 111zM729 739q0 117 -100 117q-108 0 -225 -144q-111 -138 -165 -319q-30 -100 -30 -182t57 -118
q27 -17 62 -17q106 0 214 133q112 139 162 335q25 101 25 195z" />
    <glyph glyph-name="e" unicode="e" horiz-adv-x="909" 
d="M733 223l25 -24q-136 -155 -304 -204q-62 -18 -120 -18q-134 0 -211 95q-60 76 -60 186q0 177 128 353q114 158 275 238q110 54 214 54q111 0 149 -74q15 -28 15 -65q0 -128 -139 -232q-148 -110 -386 -143l-57 -8q-20 -83 -20 -127q0 -107 81 -156q47 -28 111 -28
q80 0 161 50q53 33 138 103zM276 426q327 79 410 252q23 49 23 98q0 54 -41 74q-14 6 -31 6q-80 0 -179 -105q-95 -101 -147 -235z" />
    <glyph glyph-name="f" unicode="f" horiz-adv-x="569" 
d="M-145 -293q0 -16 -13 -37q-6 -10 -6 -18q0 -25 28 -31q6 -2 13 -2q131 0 199 332l180 860h-184l14 66h188q70 227 138 333q112 179 280 179q96 0 147 -58q29 -34 29 -76q0 -46 -42 -70q-21 -11 -44 -11q-52 0 -69 47q-6 15 -6 34q0 17 16 50q4 9 4 14q0 20 -35 23
q-5 1 -10 1q-105 0 -173 -172q-42 -107 -77 -294h221l-12 -66h-223l-148 -655q-97 -437 -288 -547q-57 -33 -121 -33q-85 0 -133 53q-29 32 -29 72q0 51 40 74q16 10 36 10q45 0 69 -38q11 -19 11 -40z" />
    <glyph glyph-name="g" unicode="g" 
d="M608 903q110 0 194 -54q31 -20 40 -20h125v-79h-103q19 -60 19 -115q0 -105 -96 -201t-223 -119q-30 -6 -60 -6q-23 0 -71 7q-4 1 -7 1q-24 0 -53 -38q-21 -27 -21 -46q0 -33 70 -60l163 -56q153 -60 190 -160q13 -37 13 -80q0 -138 -125 -221q-117 -78 -305 -78
q-189 0 -282 91q-60 59 -60 143q0 67 38 113q42 50 202 155q-55 41 -55 80q0 47 62 101q33 29 95 71q-114 52 -145 128q-16 39 -16 93q0 135 107 235q110 103 271 114q16 1 33 1zM303 57q-9 0 -52 -30q-117 -91 -122 -195q0 -130 115 -182q60 -27 145 -27q139 0 219 72
q58 51 58 121q0 100 -141 164q-44 20 -193 67q-10 3 -19 6q-8 4 -10 4zM479 352q104 0 176 124q61 104 66 222v15q0 145 -115 145q-94 0 -168 -96q-79 -112 -82 -256q0 -113 73 -144q22 -10 50 -10z" />
    <glyph glyph-name="h" unicode="h" 
d="M918 766q0 -67 -95 -382q-71 -237 -71 -269q0 -25 21 -35q5 -2 11 -2q28 0 65 38q31 33 103 124l27 -25q-109 -157 -185 -203q-51 -30 -114 -30q-68 0 -85 55q-5 14 -5 31q0 36 41 188l112 424q15 55 15 68q0 29 -31 44q-13 7 -27 7q-63 0 -173 -110q-78 -78 -144 -179
q-67 -103 -104 -209q-31 -89 -86 -301h-154l276 1049q45 161 49 192q1 12 1 23q0 23 -32 42q-18 11 -34 11q-5 0 -18 -4h-54v30q163 20 322 56l10 -10l-246 -918q214 332 368 407q51 25 101 25q80 0 117 -62q19 -32 19 -75z" />
    <glyph glyph-name="i" unicode="i" horiz-adv-x="569" 
d="M287 74q46 0 162 152q3 3 6 7l26 -22q-112 -166 -193 -210q-44 -24 -93 -24q-86 0 -94 98q-1 9 -1 19q0 57 45 223l99 363q18 62 18 90q0 31 -24 39q-23 8 -105 10v33q93 7 292 44q17 3 36 7l6 -4l-193 -704q-20 -73 -20 -91q0 -17 20 -27q6 -3 13 -3zM438 1339
q53 0 84 -49q19 -29 19 -63q0 -56 -46 -87q-25 -18 -55 -18q-64 0 -88 57q-10 23 -10 52q0 63 47 94q22 14 49 14z" />
    <glyph glyph-name="j" unicode="j" horiz-adv-x="569" 
d="M223 819h-73v33q79 3 348 51l6 -4l-213 -842q-102 -404 -299 -468q-40 -13 -84 -13q-92 0 -138 57q-24 30 -24 68q0 52 42 76q18 10 40 10q51 0 74 -40q10 -16 10 -36q0 -22 -18 -45q-9 -11 -9 -20q0 -23 37 -23q61 0 104 81q42 79 95 290l147 598q33 126 33 164
q0 62 -78 63zM463 1339q51 0 83 -48q19 -30 19 -64q0 -56 -46 -87q-25 -18 -54 -18q-64 0 -88 57q-10 23 -10 52q0 65 48 95q22 13 48 13z" />
    <glyph glyph-name="k" unicode="k" horiz-adv-x="909" 
d="M483 528q143 -324 153 -344q40 -84 69 -96q9 -4 20 -4q36 0 72 53q9 14 20 33l31 53l31 -22q-85 -157 -144 -198q-37 -26 -84 -26q-55 0 -110 79q-76 108 -174 378l-86 -65l-99 -369h-153l260 989l61 239q4 19 6 32q-2 43 -79 49q-18 2 -41 2h-19v32q155 19 320 56
l10 -10l-246 -936q115 79 242 191q139 122 139 163q0 30 -59 36q-10 1 -21 1h-33v33h375v-33q-69 -4 -140 -50q-85 -55 -321 -266z" />
    <glyph glyph-name="l" unicode="l" horiz-adv-x="569" 
d="M270 66q33 0 65 30q27 26 132 156l27 -19q-115 -168 -188 -218q-56 -38 -124 -38q-87 0 -98 89q-2 13 -2 26q0 16 10 53l281 1082q8 24 8 37q0 45 -127 47h-12v32q155 19 319 56l10 -10l-309 -1186q-7 -15 -19 -78q-3 -16 -3 -23q0 -36 30 -36z" />
    <glyph glyph-name="m" unicode="m" horiz-adv-x="1478" 
d="M1237 78q28 0 68 40q29 29 106 122l31 -25q-104 -145 -183 -195q-60 -38 -122 -38q-82 0 -82 94q0 25 26 135l119 471q14 52 14 72q0 27 -24 39q-8 4 -16 4q-68 0 -183 -130q-40 -45 -80 -100q-86 -120 -135 -252q-38 -103 -92 -315h-154q195 724 195 745q0 52 -41 52
q-71 0 -190 -135q-59 -66 -117 -154q-62 -94 -106 -216q-33 -92 -93 -292h-153q25 100 79 293q121 425 121 469q0 45 -80 45h-51v33q169 30 328 63l6 -4l-119 -428q222 349 377 415q41 17 80 17q71 0 102 -59q15 -28 15 -64q0 -60 -82 -311q107 170 180 256q153 178 274 178
q68 0 102 -57q19 -32 19 -72q0 -33 -6 -57l-139 -514q-21 -86 -21 -92q0 -31 27 -33z" />
    <glyph glyph-name="n" unicode="n" 
d="M942 240l29 -27q-117 -155 -177 -197q-48 -34 -110 -34q-75 0 -91 61q-5 20 -5 49q0 30 33 154l90 338q28 110 28 155q0 53 -40 59q-4 1 -9 1q-113 0 -303 -291q-70 -108 -104 -196q-31 -79 -101 -312h-153l196 717q4 20 4 35q0 35 -34 45q-28 9 -97 10v33q152 27 332 63
l6 -4l-137 -446q196 304 322 395q75 55 149 55q82 0 118 -60q17 -28 17 -65q0 -52 -18 -116l-117 -422q-29 -115 -29 -129q0 -21 21 -30q6 -3 12 -3q39 0 118 99q3 4 7 9z" />
    <glyph glyph-name="o" unicode="o" 
d="M958 616q0 -153 -103 -319q-105 -169 -261 -255q-116 -65 -238 -65q-169 0 -249 110q-52 72 -52 177q0 192 129 367q116 159 284 230q99 42 198 42q146 0 228 -98q64 -77 64 -189zM387 20q133 0 247 170q99 147 137 340q15 75 15 138q0 120 -69 169q-33 23 -76 23
q-124 0 -240 -154q-107 -142 -153 -334q-21 -88 -21 -165q0 -111 72 -161q38 -26 88 -26z" />
    <glyph glyph-name="p" unicode="p" 
d="M180 831q-6 0 -18 -4h-47l-4 31l315 45l4 2q1 -2 2 -2q4 0 8 -8l-65 -223q115 161 223 207q58 24 127 24q138 0 200 -105q36 -62 36 -151q0 -189 -128 -372q-113 -163 -274 -244q-108 -54 -213 -54q-66 0 -135 35q-65 -239 -75 -330q-1 -6 -1 -10q0 -43 54 -55
q29 -6 77 -6v-31h-420v33q68 2 94 29q30 29 59 144l93 371l10 36q146 547 146 579q0 26 -35 48q-18 11 -33 11zM776 639q0 132 -71 164q-26 12 -64 12q-89 0 -175 -88q-60 -61 -93 -145q-67 -169 -114 -374q-19 -84 -19 -116q0 -48 51 -68q21 -8 47 -8q157 0 284 176
q102 141 140 323q14 68 14 124z" />
    <glyph glyph-name="q" unicode="q" 
d="M801 -391v-37h-494v33q112 8 147 33q30 21 46 75l182 600q-145 -207 -237 -275q-82 -61 -185 -61q-121 0 -176 98q-33 58 -33 140q0 177 126 366q110 164 259 254q113 68 215 68q82 0 122 -53q19 -27 36 -74l31 96h149l-336 -1181q-4 -16 -4 -23v-2q0 -52 100 -57h17h35z
M342 86q107 0 228 146q115 138 174 316q34 103 34 185q0 67 -53 104q-30 21 -68 21q-104 0 -224 -138q-114 -132 -172 -300q-34 -98 -34 -176q0 -106 62 -144q23 -14 53 -14z" />
    <glyph glyph-name="r" unicode="r" horiz-adv-x="796" 
d="M750 696q-51 0 -71 38q-14 27 -18 30q-7 6 -18 6q-52 0 -150 -161q-5 -8 -10 -17q-81 -134 -131 -272q-37 -100 -104 -320h-156l166 598q34 133 33 168q0 49 -56 56q-8 1 -16 1q-20 0 -69 -10v35q-4 -1 317 55l6 -4l-108 -444l28 73q31 79 112 188q141 179 243 187
q61 0 85 -54q11 -23 11 -52q0 -80 -63 -97q-14 -4 -31 -4z" />
    <glyph glyph-name="s" unicode="s" horiz-adv-x="796" 
d="M328 -23q-40 0 -128 24q-54 15 -85 15q-25 0 -42 -30q-4 -6 -7 -13h-33l41 326h32q37 -217 135 -264q33 -15 74 -15q87 0 129 69q23 39 23 89q0 81 -78 187l-95 125q-71 102 -71 188q0 123 95 185q63 40 153 40q41 0 130 -24q39 -11 58 -11q39 0 59 32q1 2 3 5h29
l-41 -284h-33q-29 220 -168 234q-10 1 -21 1q-80 0 -105 -63q-9 -21 -9 -48q0 -65 76 -170l95 -126q79 -115 79 -205q0 -127 -96 -203q-80 -64 -199 -64z" />
    <glyph glyph-name="t" unicode="t" horiz-adv-x="569" 
d="M606 877l-10 -66h-172l-180 -682q-2 -6 -2 -10q5 -36 30 -41q30 0 78 54q30 33 88 108l27 -15q-115 -169 -186 -216q-49 -32 -105 -32q-60 0 -87 41q-11 17 -11 37q0 25 42 173q4 14 5 20l147 563h-151q-2 6 -2 12q0 23 33 39l84 40q117 63 221 198q13 18 30 18t17 -20
q0 -6 -2 -11l-58 -210h164z" />
    <glyph glyph-name="u" unicode="u" 
d="M242 770q0 35 -46 44q-25 5 -77 5v29q129 15 307 55l6 -4l-186 -743q-2 -6 -2 -19q0 -40 30 -49q6 -2 13 -2q90 0 252 243q18 27 36 56q76 120 115 209q30 71 111 291h151l-161 -613q-39 -147 -39 -159q0 -35 22 -35q30 0 76 49q32 34 94 113l29 -19q-112 -159 -168 -202
q-48 -37 -115 -37q-75 0 -93 63q-5 16 -5 35q0 62 92 403q-188 -315 -295 -418q-92 -87 -194 -88q-109 0 -109 113q0 52 51 252l76 291q29 111 29 137z" />
    <glyph glyph-name="v" unicode="v" horiz-adv-x="909" 
d="M768 682q0 26 -34 58q-37 35 -46 59q-6 16 -6 35q0 51 48 65q13 4 28 4q57 0 92 -50q22 -32 22 -71q0 -86 -70 -221q-25 -48 -54 -90q-231 -322 -372 -454q-57 -54 -79 -54q-14 0 -17 32q-1 14 -1 40q0 161 -32 457q-7 67 -14 112q-23 154 -52 192q-23 31 -77 31
q-38 0 -61 -2v27q94 15 226 46q23 5 42 5q37 0 76 -316q26 -214 37 -444l63 66q129 133 219 299q62 115 62 174z" />
    <glyph glyph-name="w" unicode="w" horiz-adv-x="1366" 
d="M104 829l-29 -2h-1h-41v27q48 8 53 8q83 13 173 37q15 4 28 4q47 0 86 -418q13 -145 16 -227l393 623q14 20 27 20q12 0 14 -14q1 -5 2 -15l66 -720q246 306 304 417q34 66 34 115q0 31 -38 68q-36 36 -44 53q-6 14 -6 29q0 54 54 66q12 3 26 3q62 0 92 -51
q14 -24 14 -55q0 -131 -218 -446q-143 -207 -265 -335q-50 -53 -62 -53q-13 0 -17 16q-3 12 -5 46l-60 653l-182 -320l-176 -321q-44 -74 -68 -74q-15 0 -20 25q-3 19 -6 71l-8 181q-11 252 -49 459q-3 20 -7 36q-12 71 -41 86q-15 8 -39 8z" />
    <glyph glyph-name="x" unicode="x" horiz-adv-x="909" 
d="M684 90q22 0 43 24l93 110q2 1 3 3l29 -16q-105 -163 -163 -205q-40 -29 -87 -29q-58 0 -85 45q-18 30 -34 93l-61 245q-203 -280 -276 -343q-51 -39 -99 -40q-71 0 -94 50q-8 16 -8 36q0 45 38 65q14 7 31 7q24 0 72 -24q30 -15 47 -15q36 0 105 99l168 239l-60 252
q-25 106 -46 126q-14 15 -46 15q-20 0 -115 -22l-8 31l23 8q180 59 239 59q45 0 68 -47q19 -37 39 -133l22 -113q132 204 211 259q48 34 98 34q55 0 76 -42q8 -16 8 -34q0 -51 -42 -68q-13 -5 -29 -5q-20 0 -62 21q-26 13 -43 13q-49 0 -162 -183q-18 -30 -38 -64
q0 -52 80 -359l2 -8q26 -79 63 -84z" />
    <glyph glyph-name="y" unicode="y" horiz-adv-x="909" 
d="M31 854q231 43 282 48q5 0 11 1q22 0 87 -190q66 -193 89 -328l41 -238q231 383 248 507q2 13 2 24q0 35 -41 62q-42 28 -48 34q-22 22 -22 53q0 51 45 69q16 7 35 7q58 0 92 -48q20 -29 20 -64q0 -126 -150 -418q-154 -299 -341 -533q-210 -253 -326 -262q-62 0 -91 45
q-13 20 -13 45q0 48 42 71q17 9 38 9q26 0 80 -36q32 -21 45 -21q41 0 132 105q93 106 123 184q9 22 9 36q0 48 -58 299q-14 63 -26 109q-69 259 -110 330q-35 60 -90 70q-17 3 -42 3q-28 0 -63 -8v35z" />
    <glyph glyph-name="z" unicode="z" horiz-adv-x="796" 
d="M551 -166q-76 0 -195 69q-113 66 -122 71q-72 36 -125 36q-50 0 -95 -37l-18 19l635 762h-299q-77 0 -109 -27q-27 -23 -57 -94l-33 8l64 236h581v-23l-594 -704q137 -31 219 -130l71 -94q43 -49 101 -49q48 0 55 25q1 3 1 6q0 6 -16 42q-13 28 -13 50q0 43 41 58
q13 5 29 5q50 0 66 -44q5 -13 5 -29q0 -67 -66 -115q-56 -41 -126 -41z" />
    <glyph glyph-name="braceleft" unicode="{" horiz-adv-x="819" 
d="M104 -203q0 62 66 296q66 236 70 302v11q0 59 -47 89q-22 14 -60 27q104 28 148 81q38 47 67 153l98 364q48 162 130 224q84 63 258 63l-7 -23q-106 -27 -156 -94q-39 -53 -67 -160l-92 -344q-38 -143 -99 -199q-45 -42 -132 -65q94 -42 109 -101q3 -13 3 -28
q0 -49 -73 -324q-62 -231 -62 -274q0 -79 55 -113q21 -12 54 -22l-7 -22q-174 6 -225 61q-31 34 -31 98z" />
    <glyph glyph-name="bar" unicode="|" horiz-adv-x="563" 
d="M215 -37v1401h135v-1401h-135z" />
    <glyph glyph-name="braceright" unicode="}" horiz-adv-x="819" 
d="M426 651q0 52 77 340q58 219 58 256q0 85 -61 119q-20 10 -47 18l6 23q177 -6 227 -66q29 -34 29 -94q0 -59 -65 -290q-67 -249 -70 -318q0 -59 45 -89q22 -14 61 -28q-104 -28 -148 -82q-38 -46 -67 -151l-98 -365q-48 -164 -133 -225q-83 -61 -254 -61l6 22
q106 27 155 93q39 53 68 161l92 344q37 142 95 197q47 44 137 67q-98 43 -111 105q-2 11 -2 24z" />
    <glyph glyph-name="asciitilde" unicode="~" horiz-adv-x="1107" 
d="M334 655q104 0 212 -58l96 -51q64 -30 124 -30q61 0 104 44q21 21 48 61l110 -66q-89 -123 -161 -156q-40 -18 -91 -18q-104 0 -212 58l-96 51q-64 30 -124 30q-62 0 -104 -43q-21 -21 -47 -61l-111 65q89 123 161 156q40 18 91 18z" />
    <glyph glyph-name="nonbreakingspace" unicode="&#xa0;" horiz-adv-x="512" 
 />
    <glyph glyph-name="exclamdown" unicode="&#xa1;" horiz-adv-x="796" 
d="M494 575q-46 -206 -134 -666q-41 -214 -69 -270q-35 -56 -88 -59q-82 0 -82 105q0 66 34 151l139 321q79 191 165 427zM553 971q60 0 89 -53q15 -26 15 -60q0 -50 -45 -83q-29 -21 -61 -21q-56 0 -90 48q-21 28 -21 62q0 54 48 87q30 20 65 20z" />
    <glyph glyph-name="cent" unicode="&#xa2;" 
d="M379 -14q-156 33 -203 177q-18 55 -18 124q0 171 103 330q118 182 316 253q59 21 123 31l86 246h62l-86 -246q154 -12 194 -105q11 -27 11 -59q0 -55 -48 -81q-23 -13 -51 -13q-61 0 -76 51q-4 12 -4 27q0 20 22 70q9 19 9 28q0 38 -71 41l-281 -801q21 -8 49 -8
q103 0 195 71q45 35 102 95l33 -20q-129 -161 -259 -202q-57 -18 -122 -18q-14 0 -25 3l-96 -273h-63zM684 854q-205 -59 -297 -300q-51 -139 -53 -269q0 -131 76 -197l4 -4z" />
    <glyph glyph-name="sterling" unicode="&#xa3;" 
d="M979 1133q-51 0 -66 49l-17 81q-17 50 -73 50q-71 0 -113 -68q-55 -88 -116 -396q-10 -50 -21 -110h252l-14 -86h-258q-46 -197 -82 -287q-19 -47 -68 -153q207 -78 328 -78q80 0 154 49l8 6l20 15l23 -19q-61 -152 -207 -188q-40 -10 -84 -10q-93 0 -175 46
q-48 27 -120 83q-76 -95 -130 -117q-29 -12 -66 -12q-81 0 -117 62q-17 30 -17 69q0 75 76 114q50 25 117 25q32 0 82 -13q12 -3 33 -9l51 417h-232l19 86h225q74 416 266 562q93 71 211 71q109 0 162 -67q29 -38 29 -88q0 -83 -80 -84zM299 150q-62 44 -94 49q-12 2 -29 2
q-72 0 -99 -49q-11 -19 -11 -43q0 -45 43 -66q21 -10 45 -10q67 0 115 63q19 24 30 54z" />
    <glyph glyph-name="currency" unicode="&#xa4;" 
d="M-45 211l201 197q-77 111 -83 231q-1 13 -1 27q0 139 78 249q3 5 6 9l-201 200l102 99l197 -197q116 75 240 80h20q143 0 256 -80l201 197l98 -99l-197 -200q77 -116 80 -245v-11q0 -127 -64 -235q-8 -12 -16 -25l197 -197l-98 -102l-201 200q-118 -84 -256 -84
q-133 0 -260 84l-197 -200zM518 975q-129 0 -219 -90q-88 -89 -88 -215q0 -132 91 -224q88 -90 212 -90q125 0 213 92q86 91 86 220q0 127 -88 218q-87 89 -207 89z" />
    <glyph glyph-name="yen" unicode="&#xa5;" 
d="M989 1241q0 41 -58 54q-24 5 -83 10v32h387v-32q-60 -26 -92 -58q-21 -20 -58 -67l-370 -459h309l-25 -82h-348l-12 -16l-49 -168h368l-24 -82h-369q-60 -190 -63 -243v-13q0 -50 40 -65q30 -12 148 -19v-33h-584l9 33q128 8 179 65q28 32 44 86l55 189h-338l25 82h336
l47 163l-6 21h-334l24 82h287l-129 448q-24 76 -45 97q-24 23 -100 34l-35 5v32h489v-32q-114 -11 -137 -30q-16 -13 -16 -44q0 -44 80 -316l59 -204q389 443 389 530z" />
    <glyph glyph-name="brokenbar" unicode="&#xa6;" horiz-adv-x="563" 
d="M215 -37v563h135v-563h-135zM215 801v563h135v-563h-135z" />
    <glyph glyph-name="section" unicode="&#xa7;" 
d="M319 -84q0 -58 -43 -85q-31 -19 -34 -21q-9 -10 -9 -23q0 -36 57 -59q41 -17 89 -17q114 0 172 75q37 46 37 110q0 66 -54 139q-20 26 -49 59l-155 178q-146 164 -146 314q0 111 73 187q62 65 144 65q51 0 109 -23l4 6q-106 130 -128 214q-9 34 -9 73q0 121 97 194
q83 62 204 62q140 0 215 -78q51 -52 51 -125q0 -79 -61 -104q-20 -8 -45 -8q-61 0 -85 49q-10 19 -10 43q0 39 40 75q27 24 29 36q1 2 1 5q0 34 -52 53q-32 11 -71 11q-120 0 -166 -82q-22 -38 -22 -88q0 -86 53 -147l252 -308q84 -103 84 -233q0 -135 -89 -207
q-63 -51 -153 -51q-33 0 -67 14l-4 -6q97 -124 116 -180q13 -36 13 -84q0 -123 -97 -204q-91 -77 -223 -77q-130 0 -212 76q-66 61 -66 145t67 108q21 7 47 7q74 0 92 -58q4 -14 4 -30zM772 393q0 89 -88 214q-82 116 -172 165q-42 23 -76 23q-69 0 -109 -56
q-26 -35 -26 -80q0 -90 94 -220q83 -115 170 -166q42 -25 74 -25q63 0 104 57q29 39 29 88z" />
    <glyph glyph-name="dieresis" unicode="&#xa8;" horiz-adv-x="681" 
d="M322 1241q48 0 79 -44q19 -27 19 -56q0 -56 -47 -85q-25 -16 -54 -16q-55 0 -84 47q-16 25 -16 56q0 52 46 81q26 17 57 17zM731 1241q48 0 79 -44q19 -27 19 -56q0 -56 -47 -85q-24 -16 -53 -16q-55 0 -84 47q-16 25 -16 56q0 53 46 82q26 16 56 16z" />
    <glyph glyph-name="copyright" unicode="&#xa9;" horiz-adv-x="1556" 
d="M838 1071q106 0 189 -31q56 -22 56 -49v-141h-32q-31 180 -217 180q-196 0 -259 -177q-26 -74 -26 -175q0 -237 138 -321q63 -38 151 -38q127 0 199 95q25 32 46 78h33l-31 -140q-7 -41 -144 -63q-65 -10 -126 -10q-214 0 -330 124q-94 102 -94 259q0 181 125 295
q124 114 322 114zM778 1364q249 0 437 -152q176 -143 234 -369q24 -93 24 -192q0 -235 -145 -421q-135 -173 -343 -237q-99 -30 -203 -30q-243 0 -431 147q-176 137 -238 351q-29 98 -29 201q0 242 145 431q135 176 345 241q99 30 204 30zM780 1278q-199 0 -359 -134
q-152 -127 -203 -320q-21 -80 -21 -162q0 -213 130 -382q120 -156 301 -209q75 -22 152 -22q197 0 357 133q150 124 201 312q22 78 22 159q0 225 -132 397q-121 160 -306 209q-70 19 -142 19z" />
    <glyph glyph-name="ordfeminine" unicode="&#xaa;" horiz-adv-x="565" 
d="M629 915q4 0 57 56q9 8 16 16l15 -20q-91 -102 -129 -122q-25 -14 -56 -14q-50 0 -61 38q-2 7 -2 16q0 36 26 101q3 10 9 24q-86 -120 -149 -154q-45 -25 -109 -25q-105 0 -143 73q-17 31 -17 71q0 122 97 243q91 112 205 151q44 15 85 15q107 0 121 -71l14 61l4 4l109 4
q-96 -335 -111 -415l-6 -31q-2 -6 -2 -16q0 -11 8 -13q4 0 19 8zM551 1270q0 65 -37 76q-5 2 -12 2q-65 0 -147 -95q-84 -98 -111 -207q-8 -34 -8 -63q0 -44 30 -70q14 -12 29 -12q90 0 174 142q62 103 79 197q3 18 3 30z" />
    <glyph glyph-name="guillemotleft" unicode="&#xab;" 
d="M414 76q-22 0 -225 260q-65 84 -80 106v19l73 55q106 82 187 152q180 157 196 157q12 0 15 -16q0 -37 -124 -165l-180 -183q-8 -9 -16 -17l41 -82q120 -222 127 -272q0 -13 -14 -14zM745 76q-22 0 -236 275q-55 71 -69 91v19l74 55q110 85 186 152q181 157 197 157
q11 0 14 -16q0 -37 -125 -166l-181 -186q-7 -6 -13 -13l41 -82q120 -222 127 -272q0 -14 -15 -14z" />
    <glyph glyph-name="logicalnot" unicode="&#xac;" horiz-adv-x="1382" 
d="M1073 221v434h-897v136h1032v-570h-135z" />
    <glyph glyph-name="softhyphen" unicode="&#xad;" horiz-adv-x="681" 
d="M578 522l-27 -129h-451l29 129h449z" />
    <glyph glyph-name="registered" unicode="&#xae;" horiz-adv-x="1556" 
d="M1024 299q-32 0 -62 40q-10 13 -94 149q-45 73 -90 141h-96v-201q0 -61 9 -74q10 -15 63 -21q8 -1 26 -3v-31h-327v31q69 7 82 17q15 11 16 57v24v490q0 61 -9 74q-10 15 -63 21q-8 1 -26 3v31h358q140 0 200 -83q33 -44 33 -104q0 -146 -161 -211l116 -160
q95 -127 154 -172v-18h-129zM682 1008v-342h86q108 0 133 116q6 29 6 66q0 141 -112 158q-14 2 -29 2h-84zM778 1364q249 0 437 -152q176 -143 234 -369q24 -93 24 -192q0 -235 -145 -421q-135 -173 -343 -237q-99 -30 -203 -30q-243 0 -431 147q-176 137 -238 351
q-29 98 -29 201q0 242 145 431q135 176 345 241q99 30 204 30zM780 1278q-199 0 -359 -134q-152 -127 -203 -320q-21 -80 -21 -162q0 -213 130 -382q120 -156 301 -209q75 -22 152 -22q197 0 357 133q150 124 201 312q22 78 22 159q0 225 -132 397q-121 160 -306 209
q-70 19 -142 19z" />
    <glyph glyph-name="macron" unicode="&#xaf;" horiz-adv-x="681" 
d="M842 1194l-23 -104h-616l22 104h617z" />
    <glyph glyph-name="degree" unicode="&#xb0;" horiz-adv-x="819" 
d="M500 1384q127 0 213 -90q80 -84 80 -202q0 -129 -92 -214q-84 -79 -205 -79q-122 0 -207 88q-82 86 -82 205q0 126 90 212q84 80 203 80zM500 1315q-94 0 -158 -75q-55 -64 -55 -148q0 -98 71 -166q61 -58 140 -58q95 0 160 75q55 64 55 149q0 97 -72 165q-62 58 -141 58
z" />
    <glyph glyph-name="plusminus" unicode="&#xb1;" horiz-adv-x="1382" 
d="M176 0v135h1032v-135h-1032zM625 713v450h135v-450h448v-135h-448v-328h-135v328h-449v135h449z" />
    <glyph glyph-name="twosuperior" unicode="&#xb2;" horiz-adv-x="614" 
d="M160 1188q73 173 236 193q20 3 40 3q103 0 171 -71q57 -59 57 -135q0 -53 -33 -99q-34 -49 -170 -180l-234 -225l4 -10h222q71 0 101 28q16 14 32 41l22 -16l-67 -162h-473v37l272 266q190 184 190 285q0 68 -62 109q-43 28 -97 28q-83 0 -147 -65q-18 -18 -38 -44z" />
    <glyph glyph-name="threesuperior" unicode="&#xb3;" horiz-adv-x="614" 
d="M487 803q0 160 -143 190q-38 8 -88 8v19q301 54 301 192q0 63 -50 93q-23 14 -52 14q-58 0 -113 -43q-17 -12 -37 -31l-20 15q47 88 147 115q33 9 68 9q100 0 157 -62q37 -40 37 -93q0 -68 -60 -111q-46 -32 -147 -67l51 -26q78 -48 78 -155q0 -145 -111 -235
q-106 -86 -267 -86q-135 0 -149 66q-1 7 -1 14q0 34 33 50q13 7 29 7q26 0 75 -35q58 -37 90 -39q87 0 137 72q35 51 35 119z" />
    <glyph glyph-name="acute" unicode="&#xb4;" horiz-adv-x="681" 
d="M369 1012l331 327q24 21 52 21q44 0 64 -39q9 -16 9 -35q0 -37 -34 -57l-351 -217h-71z" />
    <glyph glyph-name="mu" unicode="&#xb5;" 
d="M150 37l4 -170v-2q0 -182 -69 -257q-34 -36 -77 -36q-69 0 -69 92q0 82 42 172q53 112 56 118q31 74 49 157l174 766h180l-137 -582q-6 -21 -6 -62q0 -90 69 -125q31 -16 72 -16q123 0 227 116q12 14 23 28l150 641h180l-160 -689q-12 -45 -12 -69q0 -58 53 -58
q42 0 101 43q7 5 14 11q-10 -29 -57 -69q-78 -66 -169 -66q-116 0 -116 120q0 25 8 64q-143 -166 -281 -182q-17 -2 -34 -2q-127 0 -185 100q-15 24 -26 55q-4 -86 -4 -98z" />
    <glyph glyph-name="paragraph" unicode="&#xb6;" horiz-adv-x="1071" 
d="M188 825q0 235 133 369q140 143 414 143h527l-13 -43q-115 -7 -147 -26q-29 -16 -45 -71q-3 -9 -6 -21l-320 -1199q-31 -92 -31 -133q0 -30 57 -42q18 -4 44 -7q5 0 47 -4l-10 -43h-303l409 1546h-119l-409 -1546h-303l10 43q120 10 151 27q30 9 111 314l117 448
q-314 12 -314 245zM684 1294q-167 -11 -263 -181q-69 -122 -75 -264v-18q0 -147 110 -192q30 -12 66 -16z" />
    <glyph glyph-name="periodcentered" unicode="&#xb7;" horiz-adv-x="512" 
d="M256 635q57 0 93 -49q22 -31 22 -68q0 -55 -50 -89q-30 -21 -67 -21q-56 0 -90 48q-21 28 -21 62q0 60 49 96q29 21 64 21z" />
    <glyph glyph-name="cedilla" unicode="&#xb8;" horiz-adv-x="681" 
d="M43 -197l123 197h78l-90 -135q30 6 51 6q106 0 149 -68q19 -31 19 -71q0 -87 -86 -138q-66 -38 -158 -38q-76 0 -182 40q-4 1 -8 3l34 59q84 -31 140 -31q90 0 105 62q3 10 3 22q0 57 -48 80q-21 10 -46 10t-66 -14z" />
    <glyph glyph-name="onesuperior" unicode="&#xb9;" horiz-adv-x="614" 
d="M303 1339l239 42q8 1 17 1q2 0 6 2h6q7 0 11 -10q0 -11 -9 -33l-176 -561q-39 -127 -39 -151q0 -27 32 -35q21 -5 69 -6v-33h-371v33q100 10 121 31q8 8 12 20l185 584q10 30 10 43q0 27 -23 34q-10 3 -20 0h-70v39z" />
    <glyph glyph-name="ordmasculine" unicode="&#xba;" horiz-adv-x="634" 
d="M543 1384q108 0 164 -70q34 -44 34 -102q0 -123 -101 -234q-97 -107 -227 -138q-39 -9 -77 -9q-118 0 -171 75q-28 41 -28 95q0 129 102 241q98 108 233 135q36 7 71 7zM592 1243q0 96 -70 96q-72 0 -142 -94q-76 -101 -90 -226q-3 -23 -3 -44q0 -69 49 -89q13 -5 29 -5
q85 0 155 118q61 104 71 218q1 13 1 26z" />
    <glyph glyph-name="guillemotright" unicode="&#xbb;" 
d="M610 825q24 0 246 -287q50 -66 59 -79v-19q-200 -154 -256 -203l-4 -4q-180 -157 -196 -157q-12 0 -15 16q0 39 127 168l161 163q18 18 32 34l-41 82q-115 212 -126 267q-1 3 -1 5q0 13 14 14zM279 825q24 0 261 -308q36 -47 44 -58v-19q-199 -152 -251 -198l-9 -9
q-180 -157 -197 -157q-11 0 -14 16q0 39 128 169l161 164q16 17 30 32l-41 82q-115 212 -126 267q-1 3 -1 5q0 14 15 14z" />
    <glyph glyph-name="onequarter" unicode="&#xbc;" horiz-adv-x="1536" 
d="M1458 301l-18 -88h-119l-61 -213h-130l66 215h-344l27 86l555 530h73l-161 -530h112zM1337 682l-387 -381h264zM1329 1384l-932 -1404h-104l932 1404h104zM438 588v-33h-370v33q99 10 120 31q9 7 13 20l184 584q10 30 10 43q0 41 -51 34h-61v39l143 25q110 20 123 20
q10 0 10 -10q0 -16 -6 -33l-176 -561q-39 -122 -39 -151q0 -27 31 -35q21 -5 69 -6z" />
    <glyph glyph-name="onehalf" unicode="&#xbd;" horiz-adv-x="1536" 
d="M1300 1384l-931 -1404h-105l932 1404h104zM285 1339l234 42q10 1 22 1q2 0 6 2h4q10 0 10 -10q0 -13 -6 -33l-176 -561q-39 -125 -39 -151q0 -27 31 -35q21 -5 69 -6v-33h-370v33q100 10 121 31q8 8 12 20l184 584q10 30 10 41q0 43 -42 37q-3 0 -7 -1h-63v39zM1030 633
q75 177 242 196q18 2 37 2q100 0 169 -72q56 -59 56 -136q0 -53 -33 -99q-34 -49 -170 -180l-233 -225l4 -10h221q71 0 101 27q15 14 32 42l23 -16l-68 -162h-473v37l272 266q191 188 191 285q0 67 -62 108q-43 29 -98 29q-84 0 -147 -66q-18 -18 -37 -43z" />
    <glyph glyph-name="threequarters" unicode="&#xbe;" horiz-adv-x="1536" 
d="M1458 301l-18 -88h-119l-61 -213h-130l66 215h-344l27 86l555 530h73l-161 -530h112zM1337 682l-387 -381h264zM1331 1384l-932 -1404h-104l932 1404h104zM446 803q0 160 -143 190q-38 8 -88 8v19q301 54 301 192q0 63 -50 93q-23 14 -52 14q-58 0 -113 -43
q-17 -12 -37 -31l-20 15q47 88 147 115q33 9 68 9q100 0 157 -62q37 -40 37 -93q0 -68 -60 -111q-46 -32 -147 -67l51 -26q78 -48 78 -155q0 -145 -111 -235q-106 -86 -267 -86q-135 0 -149 66q-1 7 -1 14q0 34 33 50q13 7 29 7q26 0 75 -35q58 -37 90 -39q87 0 137 72
q35 51 35 119z" />
    <glyph glyph-name="questiondown" unicode="&#xbf;" 
d="M516 -276q0 18 -19 60q-12 27 -12 46q0 46 44 65q17 7 38 7q58 0 75 -58q5 -19 5 -41q0 -108 -96 -171q-78 -52 -193 -52q-161 0 -243 98q-58 67 -58 166q0 120 111 231q34 34 151 128q126 102 180 177q49 68 68 144l15 60l34 -4q-26 -149 -59 -217q-36 -74 -148 -201
q-10 -12 -22 -25q-128 -143 -160 -233q-18 -50 -18 -107q0 -130 100 -163q28 -9 64 -9q105 0 134 60q9 18 9 39zM643 969q61 0 92 -49q17 -26 17 -58q0 -61 -50 -92q-26 -16 -57 -16q-56 0 -89 47q-19 28 -19 61q0 53 45 86q28 21 61 21z" />
    <glyph glyph-name="Agrave" unicode="&#xc0;" horiz-adv-x="1251" 
d="M1155 33v-33h-504v33q110 10 138 36q22 21 22 72q0 16 -4 54l-41 268h-451l-116 -232q-37 -74 -40 -107q-1 -9 -1 -20q0 -39 22 -52q22 -12 99 -19v-33h-383v33q53 10 84 40q44 41 150 221q14 22 30 50l594 1024h53l192 -1159q19 -107 40 -135q22 -30 84 -38q13 -1 32 -3
zM358 537h398l-90 532zM878 1442l-286 217q-39 29 -39 65q0 42 37 62q16 8 34 8q43 0 80 -47l238 -305h-64z" />
    <glyph glyph-name="Aacute" unicode="&#xc1;" horiz-adv-x="1251" 
d="M1155 33v-33h-504v33q110 10 138 36q22 21 22 72q0 16 -4 54l-41 268h-451l-116 -232q-37 -74 -40 -107q-1 -9 -1 -20q0 -39 22 -52q22 -12 99 -19v-33h-383v33q53 10 84 40q44 41 150 221q14 22 30 50l594 1024h53l192 -1159q19 -107 40 -135q22 -30 84 -38q13 -1 32 -3
zM358 537h398l-90 532zM654 1446l331 327q24 21 52 21q44 0 64 -39q9 -16 9 -35q0 -37 -34 -57l-351 -217h-71z" />
    <glyph glyph-name="Acircumflex" unicode="&#xc2;" horiz-adv-x="1251" 
d="M1155 33v-33h-504v33q110 10 138 36q22 21 22 72q0 16 -4 54l-41 268h-451l-116 -232q-37 -74 -40 -107q-1 -9 -1 -20q0 -39 22 -52q22 -12 99 -19v-33h-383v33q53 10 84 40q44 41 150 221q14 22 30 50l594 1024h53l192 -1159q19 -107 40 -135q22 -30 84 -38q13 -1 32 -3
zM358 537h398l-90 532zM903 1788l180 -346h-73l-168 213l-281 -213h-80l322 346h100z" />
    <glyph glyph-name="Atilde" unicode="&#xc3;" horiz-adv-x="1251" 
d="M1155 33v-33h-504v33q110 10 138 36q22 21 22 72q0 16 -4 54l-41 268h-451l-116 -232q-37 -74 -40 -107q-1 -9 -1 -20q0 -39 22 -52q22 -12 99 -19v-33h-383v33q53 10 84 40q44 41 150 221q14 22 30 50l594 1024h53l192 -1159q19 -107 40 -135q22 -30 84 -38q13 -1 32 -3
zM358 537h398l-90 532zM695 1710q58 0 175 -49q96 -39 128 -39q57 0 83 42q11 18 21 48h57q-36 -176 -148 -207q-22 -6 -46 -6q-32 0 -159 47q-115 43 -152 43q-71 0 -102 -87q-1 -4 -3 -9h-59q40 153 112 195q38 22 93 22z" />
    <glyph glyph-name="Adieresis" unicode="&#xc4;" horiz-adv-x="1251" 
d="M1155 33v-33h-504v33q110 10 138 36q22 21 22 72q0 16 -4 54l-41 268h-451l-116 -232q-37 -74 -40 -107q-1 -9 -1 -20q0 -39 22 -52q22 -12 99 -19v-33h-383v33q53 10 84 40q44 41 150 221q14 22 30 50l594 1024h53l192 -1159q19 -107 40 -135q22 -30 84 -38q13 -1 32 -3
zM358 537h398l-90 532zM607 1675q48 0 79 -44q19 -27 19 -56q0 -56 -47 -85q-25 -16 -54 -16q-55 0 -84 47q-16 25 -16 56q0 52 46 81q26 17 57 17zM1016 1675q48 0 79 -44q19 -27 19 -56q0 -56 -47 -85q-24 -16 -53 -16q-55 0 -84 47q-16 25 -16 56q0 53 46 82q26 16 56 16
z" />
    <glyph glyph-name="Aring" unicode="&#xc5;" horiz-adv-x="1251" 
d="M1155 33v-33h-504v33q110 10 138 36q22 21 22 72q0 16 -4 54l-41 268h-451l-116 -232q-37 -74 -40 -107q-1 -9 -1 -20q0 -39 22 -52q22 -12 99 -19v-33h-383v33q53 10 84 40q44 41 150 221q14 22 30 50l594 1024h53l192 -1159q19 -107 40 -135q22 -30 84 -38q13 -1 32 -3
zM358 537h398l-90 532zM794 1851q94 0 156 -71q51 -58 51 -134q0 -90 -70 -152q-58 -51 -135 -51q-96 0 -157 72q-48 57 -48 133q0 92 71 153q58 50 132 50zM794 1781q-64 0 -105 -53q-28 -36 -28 -80q0 -71 57 -111q34 -24 76 -24q74 0 114 57q23 33 23 76q0 68 -56 109
q-36 26 -81 26z" />
    <glyph glyph-name="AE" unicode="&#xc6;" horiz-adv-x="1820" 
d="M453 479l-124 -154q-132 -171 -132 -229q0 -32 30 -44q26 -11 101 -19v-33h-383v33q42 10 80 48q29 29 92 107l755 953q59 73 64 91q2 7 2 17q0 41 -55 51q-10 2 -23 3q-9 0 -53 4v30h1059l-68 -313l-35 4q2 27 2 74q0 86 -38 118q-48 40 -208 47q-58 3 -147 3
q-79 0 -101 -18q-17 -14 -30 -58l-125 -455q208 1 271 18q66 18 105 74q21 31 56 107l37 -8l-141 -475l-35 8q12 73 12 106q0 59 -38 79q-45 24 -203 24h-82q-143 -511 -146 -545q0 -55 89 -59h16h61q219 0 330 49q104 46 201 170q20 26 43 59l37 -10l-132 -336h-1019v33
q99 10 125 28q23 17 38 70l101 348h-389zM510 555h354l195 700z" />
    <glyph glyph-name="Ccedilla" unicode="&#xc7;" horiz-adv-x="1366" 
d="M967 1364q83 0 237 -35q64 -14 86 -14q51 0 72 34q3 5 6 11h43l-76 -408l-37 6q-30 332 -313 332q-184 0 -329 -126q-17 -15 -33 -31q-162 -168 -226 -414q-32 -122 -32 -244q0 -247 141 -354q87 -66 217 -66q148 0 273 78q85 54 198 164l35 -29q-179 -209 -354 -271
q-95 -34 -205 -34q-54 0 -103 8l-71 -106q30 6 51 6q106 0 149 -68q19 -31 19 -71q0 -87 -86 -138q-66 -38 -158 -38q-76 0 -182 40q-4 1 -8 3l34 59q81 -31 140 -31q90 0 105 62q3 10 3 22q0 57 -48 80q-21 10 -46 10t-66 -14l-18 16l115 185q-187 54 -286 215
q-79 129 -79 295q0 258 155 484q138 202 350 304q160 78 327 78z" />
    <glyph glyph-name="Egrave" unicode="&#xc8;" horiz-adv-x="1251" 
d="M510 68q265 0 393 68q81 43 162 144q19 25 51 68l33 -16l-127 -332h-1038v33q85 15 112 38q28 24 52 105l2 8l251 906q19 68 23 131q0 43 -36 60q-32 15 -122 24v32h1018l-63 -313l-43 4q4 70 4 92q0 77 -49 108q-60 37 -267 41q-35 1 -78 1q-104 0 -128 -17
q-14 -11 -21 -36l-135 -478q142 4 162 4q122 6 163 25q43 20 79 86q15 28 40 84l37 -8l-139 -475l-41 10q14 63 14 106q0 57 -35 77q-34 18 -122 18h-17q-52 0 -160 6q-38 -146 -117 -411q-22 -74 -22 -124q0 -52 84 -64q32 -5 80 -5zM864 1442l-286 217q-39 29 -39 65
q0 42 37 62q16 8 34 8q43 0 80 -47l238 -305h-64z" />
    <glyph glyph-name="Eacute" unicode="&#xc9;" horiz-adv-x="1251" 
d="M510 68q265 0 393 68q81 43 162 144q19 25 51 68l33 -16l-127 -332h-1038v33q85 15 112 38q28 24 52 105l2 8l251 906q19 68 23 131q0 43 -36 60q-32 15 -122 24v32h1018l-63 -313l-43 4q4 70 4 92q0 77 -49 108q-60 37 -267 41q-35 1 -78 1q-104 0 -128 -17
q-14 -11 -21 -36l-135 -478q142 4 162 4q122 6 163 25q43 20 79 86q15 28 40 84l37 -8l-139 -475l-41 10q14 63 14 106q0 57 -35 77q-34 18 -122 18h-17q-52 0 -160 6q-38 -146 -117 -411q-22 -74 -22 -124q0 -52 84 -64q32 -5 80 -5zM682 1446l331 327q24 21 52 21
q44 0 64 -39q9 -16 9 -35q0 -37 -34 -57l-351 -217h-71z" />
    <glyph glyph-name="Ecircumflex" unicode="&#xca;" horiz-adv-x="1251" 
d="M510 68q265 0 393 68q81 43 162 144q19 25 51 68l33 -16l-127 -332h-1038v33q85 15 112 38q28 24 52 105l2 8l251 906q19 68 23 131q0 43 -36 60q-32 15 -122 24v32h1018l-63 -313l-43 4q4 70 4 92q0 77 -49 108q-60 37 -267 41q-35 1 -78 1q-104 0 -128 -17
q-14 -11 -21 -36l-135 -478q142 4 162 4q122 6 163 25q43 20 79 86q15 28 40 84l37 -8l-139 -475l-41 10q14 63 14 106q0 57 -35 77q-34 18 -122 18h-17q-52 0 -160 6q-38 -146 -117 -411q-22 -74 -22 -124q0 -52 84 -64q32 -5 80 -5zM950 1788l180 -346h-73l-168 213
l-281 -213h-80l322 346h100z" />
    <glyph glyph-name="Edieresis" unicode="&#xcb;" horiz-adv-x="1251" 
d="M510 68q265 0 393 68q81 43 162 144q19 25 51 68l33 -16l-127 -332h-1038v33q85 15 112 38q28 24 52 105l2 8l251 906q19 68 23 131q0 43 -36 60q-32 15 -122 24v32h1018l-63 -313l-43 4q4 70 4 92q0 77 -49 108q-60 37 -267 41q-35 1 -78 1q-104 0 -128 -17
q-14 -11 -21 -36l-135 -478q142 4 162 4q122 6 163 25q43 20 79 86q15 28 40 84l37 -8l-139 -475l-41 10q14 63 14 106q0 57 -35 77q-34 18 -122 18h-17q-52 0 -160 6q-38 -146 -117 -411q-22 -74 -22 -124q0 -52 84 -64q32 -5 80 -5zM635 1675q48 0 79 -44q19 -27 19 -56
q0 -56 -47 -85q-25 -16 -54 -16q-55 0 -84 47q-16 25 -16 56q0 52 46 81q26 17 57 17zM1044 1675q48 0 79 -44q19 -27 19 -56q0 -56 -47 -85q-24 -16 -53 -16q-55 0 -84 47q-16 25 -16 56q0 53 46 82q26 16 56 16z" />
    <glyph glyph-name="Igrave" unicode="&#xcc;" horiz-adv-x="681" 
d="M-16 0v33q84 15 109 34q30 23 52 100q2 8 5 17l251 906q23 78 23 127q0 45 -31 62q-29 15 -112 26v32h505v-32q-85 -15 -111 -35q-30 -23 -52 -98q-2 -9 -5 -19l-251 -907q-23 -80 -23 -129q0 -44 27 -59q26 -15 112 -25v-33h-499zM657 1442l-286 217q-39 29 -39 65
q0 42 37 62q16 8 34 8q43 0 80 -47l238 -305h-64z" />
    <glyph glyph-name="Iacute" unicode="&#xcd;" horiz-adv-x="681" 
d="M-16 0v33q84 15 109 34q30 23 52 100q2 8 5 17l251 906q23 78 23 127q0 45 -31 62q-29 15 -112 26v32h505v-32q-85 -15 -111 -35q-30 -23 -52 -98q-2 -9 -5 -19l-251 -907q-23 -80 -23 -129q0 -44 27 -59q26 -15 112 -25v-33h-499zM369 1446l331 327q24 21 52 21
q44 0 64 -39q9 -16 9 -35q0 -37 -34 -57l-351 -217h-71z" />
    <glyph glyph-name="Icircumflex" unicode="&#xce;" horiz-adv-x="681" 
d="M-16 0v33q84 15 109 34q30 23 52 100q2 8 5 17l251 906q23 78 23 127q0 45 -31 62q-29 15 -112 26v32h505v-32q-85 -15 -111 -35q-30 -23 -52 -98q-2 -9 -5 -19l-251 -907q-23 -80 -23 -129q0 -44 27 -59q26 -15 112 -25v-33h-499zM690 1788l180 -346h-73l-168 213
l-281 -213h-80l322 346h100z" />
    <glyph glyph-name="Idieresis" unicode="&#xcf;" horiz-adv-x="681" 
d="M-16 0v33q84 15 109 34q30 23 52 100q2 8 5 17l251 906q23 78 23 127q0 45 -31 62q-29 15 -112 26v32h505v-32q-85 -15 -111 -35q-30 -23 -52 -98q-2 -9 -5 -19l-251 -907q-23 -80 -23 -129q0 -44 27 -59q26 -15 112 -25v-33h-499zM383 1675q48 0 79 -44q19 -27 19 -56
q0 -56 -47 -85q-25 -16 -54 -16q-55 0 -84 47q-16 25 -16 56q0 52 46 81q26 17 57 17zM792 1675q48 0 79 -44q19 -27 19 -56q0 -56 -47 -85q-24 -16 -53 -16q-55 0 -84 47q-16 25 -16 56q0 53 46 82q26 16 56 16z" />
    <glyph glyph-name="Eth" unicode="&#xd0;" horiz-adv-x="1478" 
d="M1434 786q0 -272 -174 -476q-175 -205 -472 -277q-135 -33 -286 -33h-518v33q84 15 111 37q29 23 52 103q1 5 3 11l133 484h-185l25 86h184l94 336q23 75 23 131q0 43 -34 60q-32 15 -124 24v32h570q277 0 440 -153q158 -150 158 -398zM1206 836q0 228 -131 344
q-110 96 -303 96q-93 0 -117 -31q-9 -11 -14 -28l-129 -463h313l-24 -86h-314l-94 -336q-45 -157 -45 -195q0 -58 70 -71q26 -5 63 -5q294 0 488 176q190 173 228 465q9 65 9 134z" />
    <glyph glyph-name="Ntilde" unicode="&#xd1;" horiz-adv-x="1366" 
d="M1206 1094l20 68q3 19 3 38q0 59 -33 79q-29 18 -111 26v32h408v-32q-77 -17 -104 -39q-35 -30 -68 -129q-13 -41 -41 -138l-295 -1030h-37l-471 1127l-233 -865q-19 -63 -19 -110q0 -54 55 -73q31 -11 89 -15v-33h-406v33q72 10 102 37q37 34 76 156q13 41 33 110
l244 854q-33 72 -87 95q-33 15 -89 20v32h329l426 -1022zM799 1710q58 0 175 -49q96 -39 128 -39q57 0 83 42q11 18 21 48h57q-36 -176 -148 -207q-22 -6 -46 -6q-32 0 -159 47q-115 43 -152 43q-71 0 -102 -87q-1 -4 -3 -9h-59q40 153 112 195q38 22 93 22z" />
    <glyph glyph-name="Ograve" unicode="&#xd2;" horiz-adv-x="1478" 
d="M123 453q0 277 183 522q145 195 352 303q165 86 313 86q186 0 315 -123q128 -121 144 -308q2 -24 2 -48q0 -208 -121 -428q-126 -230 -327 -364q-195 -130 -415 -130q-188 0 -312 128q-126 130 -134 338v24zM604 31q200 0 367 222q139 186 207 452q39 152 39 280
q0 179 -106 261q-66 50 -159 50q-207 0 -367 -212q-11 -15 -22 -31q-109 -159 -177 -393q-48 -164 -48 -283q0 -240 138 -316q55 -30 128 -30zM1032 1442l-286 217q-39 29 -39 65q0 42 37 62q16 8 34 8q43 0 80 -47l238 -305h-64z" />
    <glyph glyph-name="Oacute" unicode="&#xd3;" horiz-adv-x="1478" 
d="M123 453q0 277 183 522q145 195 352 303q165 86 313 86q186 0 315 -123q128 -121 144 -308q2 -24 2 -48q0 -208 -121 -428q-126 -230 -327 -364q-195 -130 -415 -130q-188 0 -312 128q-126 130 -134 338v24zM604 31q200 0 367 222q139 186 207 452q39 152 39 280
q0 179 -106 261q-66 50 -159 50q-207 0 -367 -212q-11 -15 -22 -31q-109 -159 -177 -393q-48 -164 -48 -283q0 -240 138 -316q55 -30 128 -30zM797 1446l331 327q24 21 52 21q44 0 64 -39q9 -16 9 -35q0 -37 -34 -57l-351 -217h-71z" />
    <glyph glyph-name="Ocircumflex" unicode="&#xd4;" horiz-adv-x="1478" 
d="M123 453q0 277 183 522q145 195 352 303q165 86 313 86q186 0 315 -123q128 -121 144 -308q2 -24 2 -48q0 -208 -121 -428q-126 -230 -327 -364q-195 -130 -415 -130q-188 0 -312 128q-126 130 -134 338v24zM604 31q200 0 367 222q139 186 207 452q39 152 39 280
q0 179 -106 261q-66 50 -159 50q-207 0 -367 -212q-11 -15 -22 -31q-109 -159 -177 -393q-48 -164 -48 -283q0 -240 138 -316q55 -30 128 -30zM1061 1788l180 -346h-73l-168 213l-281 -213h-80l322 346h100z" />
    <glyph glyph-name="Otilde" unicode="&#xd5;" horiz-adv-x="1478" 
d="M123 453q0 277 183 522q145 195 352 303q165 86 313 86q186 0 315 -123q128 -121 144 -308q2 -24 2 -48q0 -208 -121 -428q-126 -230 -327 -364q-195 -130 -415 -130q-188 0 -312 128q-126 130 -134 338v24zM604 31q200 0 367 222q139 186 207 452q39 152 39 280
q0 179 -106 261q-66 50 -159 50q-207 0 -367 -212q-11 -15 -22 -31q-109 -159 -177 -393q-48 -164 -48 -283q0 -240 138 -316q55 -30 128 -30zM830 1710q58 0 175 -49q96 -39 128 -39q57 0 83 42q11 18 21 48h57q-36 -176 -148 -207q-22 -6 -46 -6q-32 0 -159 47
q-115 43 -152 43q-71 0 -102 -87q-1 -4 -3 -9h-59q40 153 112 195q38 22 93 22z" />
    <glyph glyph-name="Odieresis" unicode="&#xd6;" horiz-adv-x="1478" 
d="M123 453q0 277 183 522q145 195 352 303q165 86 313 86q186 0 315 -123q128 -121 144 -308q2 -24 2 -48q0 -208 -121 -428q-126 -230 -327 -364q-195 -130 -415 -130q-188 0 -312 128q-126 130 -134 338v24zM604 31q200 0 367 222q139 186 207 452q39 152 39 280
q0 179 -106 261q-66 50 -159 50q-207 0 -367 -212q-11 -15 -22 -31q-109 -159 -177 -393q-48 -164 -48 -283q0 -240 138 -316q55 -30 128 -30zM766 1675q48 0 79 -44q19 -27 19 -56q0 -56 -47 -85q-25 -16 -54 -16q-55 0 -84 47q-16 25 -16 56q0 52 46 81q26 17 57 17z
M1175 1675q48 0 79 -44q19 -27 19 -56q0 -56 -47 -85q-24 -16 -53 -16q-55 0 -84 47q-16 25 -16 56q0 53 46 82q26 16 56 16z" />
    <glyph glyph-name="multiply" unicode="&#xd7;" horiz-adv-x="1382" 
d="M592 518l-402 402l99 98l401 -404l404 404l98 -98l-404 -402l404 -403l-98 -99l-404 404l-401 -404l-99 99z" />
    <glyph glyph-name="Oslash" unicode="&#xd8;" horiz-adv-x="1478" 
d="M123 455q0 276 187 524q145 191 348 299q161 86 300 86q112 0 216 -45l106 160h90l-131 -197q105 -82 150 -182q43 -96 43 -217q0 -254 -156 -492q-136 -208 -340 -325q-179 -103 -361 -103q-84 0 -192 43l-152 -221h-90l176 260q-156 113 -186 299q-8 51 -8 111z
M950 1296q-200 0 -368 -222q-138 -183 -206 -443q-38 -148 -38 -271q0 -113 51 -208l729 1091q-73 53 -168 53zM1167 1176l-727 -1086q62 -59 164 -59q219 0 385 239q114 166 182 409q46 166 46 294q0 112 -50 203z" />
    <glyph glyph-name="Ugrave" unicode="&#xd9;" horiz-adv-x="1478" 
d="M1305 1210q0 61 -63 81q-28 8 -83 14v32h408v-32q-76 -17 -102 -39q-36 -29 -69 -128q-14 -42 -42 -139l-170 -583q-102 -348 -352 -428q-80 -25 -177 -25q-202 0 -329 102q-117 95 -117 236q0 115 88 434l109 393q14 61 14 93q0 43 -26 58q-28 16 -134 26v32h559v-32
q-128 -14 -173 -79q-20 -30 -43 -115q-5 -19 -9 -32q-201 -694 -201 -790q0 -121 98 -189q77 -53 189 -53q292 0 416 370q12 35 50 181q4 15 7 25q152 537 152 587zM1046 1442l-286 217q-39 29 -39 65q0 42 37 62q16 8 34 8q43 0 80 -47l238 -305h-64z" />
    <glyph glyph-name="Uacute" unicode="&#xda;" horiz-adv-x="1478" 
d="M1305 1210q0 61 -63 81q-28 8 -83 14v32h408v-32q-76 -17 -102 -39q-36 -29 -69 -128q-14 -42 -42 -139l-170 -583q-102 -348 -352 -428q-80 -25 -177 -25q-202 0 -329 102q-117 95 -117 236q0 115 88 434l109 393q14 61 14 93q0 43 -26 58q-28 16 -134 26v32h559v-32
q-128 -14 -173 -79q-20 -30 -43 -115q-5 -19 -9 -32q-201 -694 -201 -790q0 -121 98 -189q77 -53 189 -53q292 0 416 370q12 35 50 181q4 15 7 25q152 537 152 587zM836 1446l331 327q24 21 52 21q44 0 64 -39q9 -16 9 -35q0 -37 -34 -57l-351 -217h-71z" />
    <glyph glyph-name="Ucircumflex" unicode="&#xdb;" horiz-adv-x="1478" 
d="M1305 1210q0 61 -63 81q-28 8 -83 14v32h408v-32q-76 -17 -102 -39q-36 -29 -69 -128q-14 -42 -42 -139l-170 -583q-102 -348 -352 -428q-80 -25 -177 -25q-202 0 -329 102q-117 95 -117 236q0 115 88 434l109 393q14 61 14 93q0 43 -26 58q-28 16 -134 26v32h559v-32
q-128 -14 -173 -79q-20 -30 -43 -115q-5 -19 -9 -32q-201 -694 -201 -790q0 -121 98 -189q77 -53 189 -53q292 0 416 370q12 35 50 181q4 15 7 25q152 537 152 587zM1081 1788l180 -346h-73l-168 213l-281 -213h-80l322 346h100z" />
    <glyph glyph-name="Udieresis" unicode="&#xdc;" horiz-adv-x="1478" 
d="M1305 1210q0 61 -63 81q-28 8 -83 14v32h408v-32q-76 -17 -102 -39q-36 -29 -69 -128q-14 -42 -42 -139l-170 -583q-102 -348 -352 -428q-80 -25 -177 -25q-202 0 -329 102q-117 95 -117 236q0 115 88 434l109 393q14 61 14 93q0 43 -26 58q-28 16 -134 26v32h559v-32
q-128 -14 -173 -79q-20 -30 -43 -115q-5 -19 -9 -32q-201 -694 -201 -790q0 -121 98 -189q77 -53 189 -53q292 0 416 370q12 35 50 181q4 15 7 25q152 537 152 587zM807 1675q48 0 79 -44q19 -27 19 -56q0 -56 -47 -85q-25 -16 -54 -16q-55 0 -84 47q-16 25 -16 56
q0 52 46 81q26 17 57 17zM1216 1675q48 0 79 -44q19 -27 19 -56q0 -56 -47 -85q-24 -16 -53 -16q-55 0 -84 47q-16 25 -16 56q0 53 46 82q26 16 56 16z" />
    <glyph glyph-name="Yacute" unicode="&#xdd;" horiz-adv-x="1138" 
d="M569 115q0 -48 40 -63q31 -12 143 -19v-33h-592v33q116 7 161 50q33 31 54 101l125 434l-158 551q-25 79 -43 99q-20 22 -84 33q-11 1 -29 4v32h490v-32q-111 -12 -134 -33q-14 -13 -14 -41q0 -33 41 -177q62 -215 97 -343l77 94q285 332 306 420q2 9 2 16q0 41 -59 54
q-24 5 -83 10v32h387v-32q-55 -26 -86 -59q-19 -19 -57 -66l-448 -553l-60 -207l-62 -218q-14 -58 -14 -87zM641 1446l331 327q24 21 52 21q44 0 64 -39q9 -16 9 -35q0 -37 -34 -57l-351 -217h-71z" />
    <glyph glyph-name="Thorn" unicode="&#xde;" horiz-adv-x="1251" 
d="M1165 756q0 -152 -104 -259q-145 -149 -457 -149q-113 0 -182 21l-35 -123q-25 -94 -25 -119q0 -49 17 -63q19 -16 113 -30q5 0 10 -1v-33h-502v33q84 12 111 32q28 22 51 99q3 9 6 20l242 871q34 123 34 164q0 44 -34 61q-29 14 -111 25v32h487v-32q-82 -11 -107 -43
q-13 -16 -20 -43l-41 -158h115q297 0 392 -154q40 -64 40 -151zM954 754q0 152 -95 207q-65 38 -179 38q-66 0 -86 -37q-5 -9 -8 -22l-146 -508q62 -10 107 -10q236 0 330 97q77 80 77 235z" />
    <glyph glyph-name="germandbls" unicode="&#xdf;" 
d="M1010 1122q0 -125 -97 -209q-79 -67 -237 -127v-6q179 -22 235 -174q19 -53 19 -106q0 -152 -85 -297q-91 -155 -230 -208q-59 -22 -121 -22q-99 0 -142 64q-22 31 -22 72q0 62 48 87q19 9 42 9q54 0 72 -48q6 -15 6 -34q0 -24 -19 -61q-6 -11 -6 -17q0 -16 23 -24
q7 -3 14 -3q124 0 194 231q42 139 48 273v15q0 213 -166 219q-49 2 -53 23q-1 3 -1 7q0 23 21 26q6 1 14 1q132 0 210 114q69 100 69 255q0 135 -93 157q-16 4 -34 4q-179 0 -297 -446l-227 -872q-73 -277 -216 -389q-77 -60 -163 -60q-101 0 -142 63q-18 28 -18 64
q0 64 50 81q14 5 30 5q53 0 74 -41q8 -15 8 -33q0 -21 -19 -56q-6 -11 -6 -17q0 -17 37 -17q78 0 127 86q46 82 90 281l148 653q107 474 272 638q108 108 258 108q146 0 226 -95q59 -71 59 -174z" />
    <glyph glyph-name="agrave" unicode="&#xe0;" 
d="M786 84q25 0 107 83l57 58l25 -20q-127 -156 -186 -195q-45 -30 -99 -30q-69 0 -80 54q-2 13 -2 29q0 49 25 148l22 88q-141 -200 -230 -264q-79 -58 -181 -58q-134 0 -185 106q-24 51 -24 122q0 186 124 379q107 166 254 254q108 65 208 65q114 0 152 -85q7 -16 11 -34
l23 99l6 6l125 14l14 -6q-3 -12 -12 -43q-149 -545 -179 -716q-3 -20 -3 -27q0 -20 20 -26q4 -1 8 -1zM748 733q0 80 -63 111q-27 14 -62 14q-143 0 -270 -207q-90 -149 -131 -322q-15 -61 -15 -98q0 -103 64 -139q24 -14 55 -14q111 0 228 150q111 140 165 324
q29 100 29 181zM743 1008l-286 217q-39 29 -39 65q0 42 37 62q16 8 34 8q43 0 80 -47l238 -305h-64z" />
    <glyph glyph-name="aacute" unicode="&#xe1;" 
d="M786 84q25 0 107 83l57 58l25 -20q-127 -156 -186 -195q-45 -30 -99 -30q-69 0 -80 54q-2 13 -2 29q0 49 25 148l22 88q-141 -200 -230 -264q-79 -58 -181 -58q-134 0 -185 106q-24 51 -24 122q0 186 124 379q107 166 254 254q108 65 208 65q114 0 152 -85q7 -16 11 -34
l23 99l6 6l125 14l14 -6q-3 -12 -12 -43q-149 -545 -179 -716q-3 -20 -3 -27q0 -20 20 -26q4 -1 8 -1zM748 733q0 80 -63 111q-27 14 -62 14q-143 0 -270 -207q-90 -149 -131 -322q-15 -61 -15 -98q0 -103 64 -139q24 -14 55 -14q111 0 228 150q111 140 165 324
q29 100 29 181zM541 1012l331 327q24 21 52 21q44 0 64 -39q9 -16 9 -35q0 -37 -34 -57l-351 -217h-71z" />
    <glyph glyph-name="acircumflex" unicode="&#xe2;" 
d="M786 84q25 0 107 83l57 58l25 -20q-127 -156 -186 -195q-45 -30 -99 -30q-69 0 -80 54q-2 13 -2 29q0 49 25 148l22 88q-141 -200 -230 -264q-79 -58 -181 -58q-134 0 -185 106q-24 51 -24 122q0 186 124 379q107 166 254 254q108 65 208 65q114 0 152 -85q7 -16 11 -34
l23 99l6 6l125 14l14 -6q-3 -12 -12 -43q-149 -545 -179 -716q-3 -20 -3 -27q0 -20 20 -26q4 -1 8 -1zM748 733q0 80 -63 111q-27 14 -62 14q-143 0 -270 -207q-90 -149 -131 -322q-15 -61 -15 -98q0 -103 64 -139q24 -14 55 -14q111 0 228 150q111 140 165 324
q29 100 29 181zM780 1354l180 -346h-73l-168 213l-281 -213h-80l322 346h100z" />
    <glyph glyph-name="atilde" unicode="&#xe3;" 
d="M786 84q25 0 107 83l57 58l25 -20q-127 -156 -186 -195q-45 -30 -99 -30q-69 0 -80 54q-2 13 -2 29q0 49 25 148l22 88q-141 -200 -230 -264q-79 -58 -181 -58q-134 0 -185 106q-24 51 -24 122q0 186 124 379q107 166 254 254q108 65 208 65q114 0 152 -85q7 -16 11 -34
l23 99l6 6l125 14l14 -6q-3 -12 -12 -43q-149 -545 -179 -716q-3 -20 -3 -27q0 -20 20 -26q4 -1 8 -1zM748 733q0 80 -63 111q-27 14 -62 14q-143 0 -270 -207q-90 -149 -131 -322q-15 -61 -15 -98q0 -103 64 -139q24 -14 55 -14q111 0 228 150q111 140 165 324
q29 100 29 181zM582 1276q58 0 175 -49q96 -39 128 -39q57 0 83 42q11 18 21 48h57q-36 -176 -148 -207q-22 -6 -46 -6q-32 0 -159 47q-115 43 -152 43q-71 0 -102 -87q-1 -4 -3 -9h-59q40 153 112 195q38 22 93 22z" />
    <glyph glyph-name="adieresis" unicode="&#xe4;" 
d="M786 84q25 0 107 83l57 58l25 -20q-127 -156 -186 -195q-45 -30 -99 -30q-69 0 -80 54q-2 13 -2 29q0 49 25 148l22 88q-141 -200 -230 -264q-79 -58 -181 -58q-134 0 -185 106q-24 51 -24 122q0 186 124 379q107 166 254 254q108 65 208 65q114 0 152 -85q7 -16 11 -34
l23 99l6 6l125 14l14 -6q-3 -12 -12 -43q-149 -545 -179 -716q-3 -20 -3 -27q0 -20 20 -26q4 -1 8 -1zM748 733q0 80 -63 111q-27 14 -62 14q-143 0 -270 -207q-90 -149 -131 -322q-15 -61 -15 -98q0 -103 64 -139q24 -14 55 -14q111 0 228 150q111 140 165 324
q29 100 29 181zM494 1241q48 0 79 -44q19 -27 19 -56q0 -56 -47 -85q-25 -16 -54 -16q-55 0 -84 47q-16 25 -16 56q0 52 46 81q26 17 57 17zM903 1241q48 0 79 -44q19 -27 19 -56q0 -56 -47 -85q-24 -16 -53 -16q-55 0 -84 47q-16 25 -16 56q0 53 46 82q26 16 56 16z" />
    <glyph glyph-name="aring" unicode="&#xe5;" 
d="M786 84q25 0 107 83l57 58l25 -20q-127 -156 -186 -195q-45 -30 -99 -30q-69 0 -80 54q-2 13 -2 29q0 49 25 148l22 88q-141 -200 -230 -264q-79 -58 -181 -58q-134 0 -185 106q-24 51 -24 122q0 186 124 379q107 166 254 254q108 65 208 65q114 0 152 -85q7 -16 11 -34
l23 99l6 6l125 14l14 -6q-3 -12 -12 -43q-149 -545 -179 -716q-3 -20 -3 -27q0 -20 20 -26q4 -1 8 -1zM748 733q0 80 -63 111q-27 14 -62 14q-143 0 -270 -207q-90 -149 -131 -322q-15 -61 -15 -98q0 -103 64 -139q24 -14 55 -14q111 0 228 150q111 140 165 324
q29 100 29 181zM690 1448q94 0 156 -71q51 -58 51 -134q0 -90 -70 -152q-58 -51 -135 -51q-96 0 -157 72q-48 57 -48 133q0 92 71 153q58 50 132 50zM690 1378q-64 0 -105 -53q-28 -36 -28 -80q0 -71 57 -111q34 -24 76 -24q74 0 114 57q23 33 23 76q0 68 -56 109
q-36 26 -81 26z" />
    <glyph glyph-name="ae" unicode="&#xe6;" horiz-adv-x="1366" 
d="M1204 231l21 -24q-119 -143 -266 -202q-71 -28 -134 -28q-110 0 -172 89q-47 66 -47 161q0 33 12 82q-145 -212 -239 -279q-73 -53 -160 -53q-90 0 -139 74q-33 50 -33 119q0 185 122 387q107 177 250 273q107 73 202 73q69 0 102 -40q17 -20 33 -56l39 88l145 4
l-45 -127q110 108 199 126q25 5 51 5q108 0 149 -72q17 -31 17 -71q0 -159 -250 -264q-77 -32 -275 -90q-16 -77 -16 -125q9 -200 143 -207q100 0 214 90q36 28 77 67zM717 758q0 70 -54 95q-20 9 -45 9q-93 0 -201 -143q-108 -145 -163 -335q-31 -108 -31 -196
q0 -89 51 -105q9 -3 19 -3q100 0 217 147q112 144 172 331q35 112 35 200zM799 457q212 62 299 144q78 74 78 175q0 74 -72 76q-143 0 -252 -252q-27 -60 -53 -143z" />
    <glyph glyph-name="ccedilla" unicode="&#xe7;" horiz-adv-x="909" 
d="M647 860q-206 0 -321 -231q-70 -140 -86 -302q-2 -24 -2 -42q0 -155 92 -210q40 -24 94 -24q104 0 203 80q41 33 90 86l33 -20q-121 -155 -247 -198q-64 -22 -143 -22h-16l-76 -112q32 6 51 6q108 0 149 -69q19 -31 19 -70q0 -88 -86 -138q-65 -38 -157 -38
q-77 0 -182 39q-4 2 -9 4l35 59q80 -31 139 -31q92 0 107 63q2 10 2 21q0 57 -48 80q-21 10 -46 10t-66 -14l-18 16l114 185q-168 39 -203 209q-8 41 -8 88q0 194 127 364q116 155 285 219q90 35 182 35q111 0 174 -66q41 -43 41 -100q0 -53 -46 -80q-24 -14 -52 -14
q-61 0 -76 51q-4 12 -4 27q0 20 22 70q9 19 9 28q0 30 -48 39q-13 2 -28 2z" />
    <glyph glyph-name="egrave" unicode="&#xe8;" horiz-adv-x="909" 
d="M733 223l25 -24q-136 -155 -304 -204q-62 -18 -120 -18q-134 0 -211 95q-60 76 -60 186q0 177 128 353q114 158 275 238q110 54 214 54q111 0 149 -74q15 -28 15 -65q0 -128 -139 -232q-148 -110 -386 -143l-57 -8q-20 -83 -20 -127q0 -107 81 -156q47 -28 111 -28
q80 0 161 50q53 33 138 103zM276 426q327 79 410 252q23 49 23 98q0 54 -41 74q-14 6 -31 6q-80 0 -179 -105q-95 -101 -147 -235zM686 1008l-286 217q-39 29 -39 65q0 42 37 62q16 8 34 8q43 0 80 -47l238 -305h-64z" />
    <glyph glyph-name="eacute" unicode="&#xe9;" horiz-adv-x="909" 
d="M733 223l25 -24q-136 -155 -304 -204q-62 -18 -120 -18q-134 0 -211 95q-60 76 -60 186q0 177 128 353q114 158 275 238q110 54 214 54q111 0 149 -74q15 -28 15 -65q0 -128 -139 -232q-148 -110 -386 -143l-57 -8q-20 -83 -20 -127q0 -107 81 -156q47 -28 111 -28
q80 0 161 50q53 33 138 103zM276 426q327 79 410 252q23 49 23 98q0 54 -41 74q-14 6 -31 6q-80 0 -179 -105q-95 -101 -147 -235zM484 1012l331 327q24 21 52 21q44 0 64 -39q9 -16 9 -35q0 -37 -34 -57l-351 -217h-71z" />
    <glyph glyph-name="ecircumflex" unicode="&#xea;" horiz-adv-x="909" 
d="M733 223l25 -24q-136 -155 -304 -204q-62 -18 -120 -18q-134 0 -211 95q-60 76 -60 186q0 177 128 353q114 158 275 238q110 54 214 54q111 0 149 -74q15 -28 15 -65q0 -128 -139 -232q-148 -110 -386 -143l-57 -8q-20 -83 -20 -127q0 -107 81 -156q47 -28 111 -28
q80 0 161 50q53 33 138 103zM276 426q327 79 410 252q23 49 23 98q0 54 -41 74q-14 6 -31 6q-80 0 -179 -105q-95 -101 -147 -235zM723 1354l180 -346h-73l-168 213l-281 -213h-80l322 346h100z" />
    <glyph glyph-name="edieresis" unicode="&#xeb;" horiz-adv-x="909" 
d="M733 223l25 -24q-136 -155 -304 -204q-62 -18 -120 -18q-134 0 -211 95q-60 76 -60 186q0 177 128 353q114 158 275 238q110 54 214 54q111 0 149 -74q15 -28 15 -65q0 -128 -139 -232q-148 -110 -386 -143l-57 -8q-20 -83 -20 -127q0 -107 81 -156q47 -28 111 -28
q80 0 161 50q53 33 138 103zM276 426q327 79 410 252q23 49 23 98q0 54 -41 74q-14 6 -31 6q-80 0 -179 -105q-95 -101 -147 -235zM416 1241q48 0 79 -44q19 -27 19 -56q0 -56 -47 -85q-25 -16 -54 -16q-55 0 -84 47q-16 25 -16 56q0 52 46 81q26 17 57 17zM825 1241
q48 0 79 -44q19 -27 19 -56q0 -56 -47 -85q-24 -16 -53 -16q-55 0 -84 47q-16 25 -16 56q0 53 46 82q26 16 56 16z" />
    <glyph glyph-name="igrave" unicode="&#xec;" horiz-adv-x="569" 
d="M287 74q46 0 162 152q3 3 6 7l26 -22q-112 -166 -193 -210q-44 -24 -93 -24q-86 0 -94 98q-1 9 -1 19q0 57 45 223l99 363q18 62 18 90q0 31 -24 39q-23 8 -105 10v33q93 7 292 44q17 3 36 7l6 -4l-180 -659q-32 -116 -33 -136q0 -17 20 -27q6 -3 13 -3zM518 1008
l-286 217q-39 29 -39 65q0 42 37 62q16 8 34 8q43 0 80 -47l238 -305h-64z" />
    <glyph glyph-name="iacute" unicode="&#xed;" horiz-adv-x="569" 
d="M287 74q46 0 162 152q3 3 6 7l26 -22q-112 -166 -193 -210q-44 -24 -93 -24q-86 0 -94 98q-1 9 -1 19q0 57 45 223l99 363q18 62 18 90q0 31 -24 39q-23 8 -105 10v33q93 7 292 44q17 3 36 7l6 -4l-180 -659q-32 -116 -33 -136q0 -17 20 -27q6 -3 13 -3zM273 1012
l331 327q24 21 52 21q44 0 64 -39q9 -16 9 -35q0 -37 -34 -57l-351 -217h-71z" />
    <glyph glyph-name="icircumflex" unicode="&#xee;" horiz-adv-x="569" 
d="M287 74q46 0 162 152q3 3 6 7l26 -22q-112 -166 -193 -210q-44 -24 -93 -24q-86 0 -94 98q-1 9 -1 19q0 57 45 223l99 363q18 62 18 90q0 31 -24 39q-23 8 -105 10v33q93 7 292 44q17 3 36 7l6 -4l-180 -659q-32 -116 -33 -136q0 -17 20 -27q6 -3 13 -3zM491 1354
l180 -346h-73l-168 213l-281 -213h-80l322 346h100z" />
    <glyph glyph-name="idieresis" unicode="&#xef;" horiz-adv-x="569" 
d="M287 74q46 0 162 152q3 3 6 7l26 -22q-112 -166 -193 -210q-44 -24 -93 -24q-86 0 -94 98q-1 9 -1 19q0 57 45 223l99 363q18 62 18 90q0 31 -24 39q-23 8 -105 10v33q93 7 292 44q17 3 36 7l6 -4l-180 -659q-32 -116 -33 -136q0 -17 20 -27q6 -3 13 -3zM216 1241
q48 0 79 -44q19 -27 19 -56q0 -56 -47 -85q-25 -16 -54 -16q-55 0 -84 47q-16 25 -16 56q0 52 46 81q26 17 57 17zM625 1241q48 0 79 -44q19 -27 19 -56q0 -56 -47 -85q-24 -16 -53 -16q-55 0 -84 47q-16 25 -16 56q0 53 46 82q26 16 56 16z" />
    <glyph glyph-name="eth" unicode="&#xf0;" 
d="M664 1161l-240 -104l-68 59l252 111q-86 81 -179 123q-15 7 -32 14l72 35q135 -31 250 -125l203 88l65 -57l-207 -93q133 -158 164 -328q12 -68 12 -149q0 -253 -130 -461q-114 -182 -282 -256q-92 -41 -188 -41q-169 0 -249 110q-52 72 -52 177q0 182 124 359
q109 157 263 232q99 48 193 48q118 0 172 -100l4 2q-28 198 -143 351q-2 2 -4 5zM387 20q133 0 247 170q99 147 137 340q15 75 15 138q0 120 -69 169q-33 23 -76 23q-124 0 -240 -155q-107 -143 -153 -334q-21 -88 -21 -164q0 -108 70 -159q38 -28 90 -28z" />
    <glyph glyph-name="ntilde" unicode="&#xf1;" 
d="M942 240l29 -27q-117 -155 -177 -197q-48 -34 -110 -34q-75 0 -91 61q-5 20 -5 49q0 30 33 154l90 338q28 110 28 155q0 53 -40 59q-4 1 -9 1q-113 0 -303 -291q-70 -108 -104 -196q-31 -79 -101 -312h-153l196 717q4 20 4 35q0 35 -34 45q-28 9 -97 10v33q152 27 332 63
l6 -4l-137 -446q196 304 322 395q75 55 149 55q82 0 118 -60q17 -28 17 -65q0 -52 -18 -116l-117 -422q-29 -115 -29 -129q0 -21 21 -30q6 -3 12 -3q39 0 118 99q3 4 7 9zM512 1276q58 0 175 -49q96 -39 128 -39q57 0 83 42q11 18 21 48h57q-36 -176 -148 -207
q-22 -6 -46 -6q-32 0 -159 47q-115 43 -152 43q-71 0 -102 -87q-1 -4 -3 -9h-59q40 153 112 195q38 22 93 22z" />
    <glyph glyph-name="ograve" unicode="&#xf2;" 
d="M958 616q0 -153 -103 -319q-105 -169 -261 -255q-116 -65 -238 -65q-169 0 -249 110q-52 72 -52 177q0 192 129 367q116 159 284 230q99 42 198 42q146 0 228 -98q64 -77 64 -189zM387 20q133 0 247 170q99 147 137 340q15 75 15 138q0 120 -69 169q-33 23 -76 23
q-124 0 -240 -154q-107 -142 -153 -334q-21 -88 -21 -165q0 -111 72 -161q38 -26 88 -26zM743 1008l-286 217q-39 29 -39 65q0 42 37 62q16 8 34 8q43 0 80 -47l238 -305h-64z" />
    <glyph glyph-name="oacute" unicode="&#xf3;" 
d="M958 616q0 -153 -103 -319q-105 -169 -261 -255q-116 -65 -238 -65q-169 0 -249 110q-52 72 -52 177q0 192 129 367q116 159 284 230q99 42 198 42q146 0 228 -98q64 -77 64 -189zM387 20q133 0 247 170q99 147 137 340q15 75 15 138q0 120 -69 169q-33 23 -76 23
q-124 0 -240 -154q-107 -142 -153 -334q-21 -88 -21 -165q0 -111 72 -161q38 -26 88 -26zM541 1012l331 327q24 21 52 21q44 0 64 -39q9 -16 9 -35q0 -37 -34 -57l-351 -217h-71z" />
    <glyph glyph-name="ocircumflex" unicode="&#xf4;" 
d="M958 616q0 -153 -103 -319q-105 -169 -261 -255q-116 -65 -238 -65q-169 0 -249 110q-52 72 -52 177q0 192 129 367q116 159 284 230q99 42 198 42q146 0 228 -98q64 -77 64 -189zM387 20q133 0 247 170q99 147 137 340q15 75 15 138q0 120 -69 169q-33 23 -76 23
q-124 0 -240 -154q-107 -142 -153 -334q-21 -88 -21 -165q0 -111 72 -161q38 -26 88 -26zM758 1354l180 -346h-73l-168 213l-281 -213h-80l322 346h100z" />
    <glyph glyph-name="otilde" unicode="&#xf5;" 
d="M958 616q0 -153 -103 -319q-105 -169 -261 -255q-116 -65 -238 -65q-169 0 -249 110q-52 72 -52 177q0 192 129 367q116 159 284 230q99 42 198 42q146 0 228 -98q64 -77 64 -189zM387 20q133 0 247 170q99 147 137 340q15 75 15 138q0 120 -69 169q-33 23 -76 23
q-124 0 -240 -154q-107 -142 -153 -334q-21 -88 -21 -165q0 -111 72 -161q38 -26 88 -26zM551 1276q58 0 175 -49q96 -39 128 -39q57 0 83 42q11 18 21 48h57q-36 -176 -148 -207q-22 -6 -46 -6q-32 0 -159 47q-115 43 -152 43q-71 0 -102 -87q-1 -4 -3 -9h-59
q40 153 112 195q38 22 93 22z" />
    <glyph glyph-name="odieresis" unicode="&#xf6;" 
d="M958 616q0 -153 -103 -319q-105 -169 -261 -255q-116 -65 -238 -65q-169 0 -249 110q-52 72 -52 177q0 192 129 367q116 159 284 230q99 42 198 42q146 0 228 -98q64 -77 64 -189zM387 20q133 0 247 170q99 147 137 340q15 75 15 138q0 120 -69 169q-33 23 -76 23
q-124 0 -240 -154q-107 -142 -153 -334q-21 -88 -21 -165q0 -111 72 -161q38 -26 88 -26zM494 1241q48 0 79 -44q19 -27 19 -56q0 -56 -47 -85q-25 -16 -54 -16q-55 0 -84 47q-16 25 -16 56q0 52 46 81q26 17 57 17zM903 1241q48 0 79 -44q19 -27 19 -56q0 -56 -47 -85
q-24 -16 -53 -16q-55 0 -84 47q-16 25 -16 56q0 53 46 82q26 16 56 16z" />
    <glyph glyph-name="divide" unicode="&#xf7;" horiz-adv-x="1382" 
d="M1208 451h-1032v135h1032v-135zM692 205q58 0 93 -49q22 -31 22 -68q0 -58 -51 -91q-30 -20 -68 -20q-53 0 -87 47q-21 29 -21 64q0 61 50 97q28 20 62 20zM692 1059q58 0 93 -49q22 -31 22 -68q0 -55 -49 -90q-31 -21 -68 -21q-56 0 -90 48q-20 29 -20 63q0 61 50 97
q28 20 62 20z" />
    <glyph glyph-name="oslash" unicode="&#xf8;" 
d="M254 -8q-181 57 -196 244q-1 14 -1 30q0 185 128 360q114 157 276 231q102 46 201 46q18 0 32 -2l113 234h70l-119 -244q161 -46 195 -204q8 -37 8 -77q0 -157 -110 -325q-107 -163 -263 -247q-114 -61 -228 -61q-28 0 -41 5l-124 -258h-72zM651 860q-137 0 -257 -167
q-105 -146 -147 -341q-18 -83 -18 -153q0 -82 58 -140l385 797q-20 4 -21 4zM387 20q131 0 245 163q101 146 140 340q16 77 16 143q0 102 -57 165l-389 -802q24 -9 45 -9z" />
    <glyph glyph-name="ugrave" unicode="&#xf9;" 
d="M242 770q0 35 -46 44q-25 5 -77 5v29q129 15 307 55l6 -4l-186 -743q-2 -6 -2 -19q0 -40 30 -49q6 -2 13 -2q90 0 252 243q18 27 36 56q76 120 115 209q30 71 111 291h151l-161 -613q-39 -147 -39 -159q0 -35 22 -35q30 0 76 49q32 34 94 113l29 -19q-112 -159 -168 -202
q-48 -37 -115 -37q-75 0 -93 63q-5 16 -5 35q0 62 92 403q-188 -315 -295 -418q-92 -87 -194 -88q-109 0 -109 113q0 52 51 252l76 291q29 111 29 137zM743 1008l-286 217q-39 29 -39 65q0 42 37 62q16 8 34 8q43 0 80 -47l238 -305h-64z" />
    <glyph glyph-name="uacute" unicode="&#xfa;" 
d="M242 770q0 35 -46 44q-25 5 -77 5v29q129 15 307 55l6 -4l-186 -743q-2 -6 -2 -19q0 -40 30 -49q6 -2 13 -2q90 0 252 243q18 27 36 56q76 120 115 209q30 71 111 291h151l-161 -613q-39 -147 -39 -159q0 -35 22 -35q30 0 76 49q32 34 94 113l29 -19q-112 -159 -168 -202
q-48 -37 -115 -37q-75 0 -93 63q-5 16 -5 35q0 62 92 403q-188 -315 -295 -418q-92 -87 -194 -88q-109 0 -109 113q0 52 51 252l76 291q29 111 29 137zM521 1012l331 327q24 21 52 21q44 0 64 -39q9 -16 9 -35q0 -37 -34 -57l-351 -217h-71z" />
    <glyph glyph-name="ucircumflex" unicode="&#xfb;" 
d="M242 770q0 35 -46 44q-25 5 -77 5v29q129 15 307 55l6 -4l-186 -743q-2 -6 -2 -19q0 -40 30 -49q6 -2 13 -2q90 0 252 243q18 27 36 56q76 120 115 209q30 71 111 291h151l-161 -613q-39 -147 -39 -159q0 -35 22 -35q30 0 76 49q32 34 94 113l29 -19q-112 -159 -168 -202
q-48 -37 -115 -37q-75 0 -93 63q-5 16 -5 35q0 62 92 403q-188 -315 -295 -418q-92 -87 -194 -88q-109 0 -109 113q0 52 51 252l76 291q29 111 29 137zM729 1354l180 -346h-73l-168 213l-281 -213h-80l322 346h100z" />
    <glyph glyph-name="udieresis" unicode="&#xfc;" 
d="M242 770q0 35 -46 44q-25 5 -77 5v29q129 15 307 55l6 -4l-186 -743q-2 -6 -2 -19q0 -40 30 -49q6 -2 13 -2q90 0 252 243q18 27 36 56q76 120 115 209q30 71 111 291h151l-161 -613q-39 -147 -39 -159q0 -35 22 -35q30 0 76 49q32 34 94 113l29 -19q-112 -159 -168 -202
q-48 -37 -115 -37q-75 0 -93 63q-5 16 -5 35q0 62 92 403q-188 -315 -295 -418q-92 -87 -194 -88q-109 0 -109 113q0 52 51 252l76 291q29 111 29 137zM474 1241q48 0 79 -44q19 -27 19 -56q0 -56 -47 -85q-25 -16 -54 -16q-55 0 -84 47q-16 25 -16 56q0 52 46 81
q26 17 57 17zM883 1241q48 0 79 -44q19 -27 19 -56q0 -56 -47 -85q-24 -16 -53 -16q-55 0 -84 47q-16 25 -16 56q0 53 46 82q26 16 56 16z" />
    <glyph glyph-name="yacute" unicode="&#xfd;" horiz-adv-x="909" 
d="M31 854q231 43 282 48q5 0 11 1q22 0 87 -190q66 -193 89 -328l41 -238q231 383 248 507q2 13 2 24q0 35 -41 62q-42 28 -48 34q-22 22 -22 53q0 51 45 69q16 7 35 7q58 0 92 -48q20 -29 20 -64q0 -126 -150 -418q-154 -299 -341 -533q-210 -253 -326 -262q-62 0 -91 45
q-13 20 -13 45q0 48 42 71q17 9 38 9q26 0 80 -36q32 -21 45 -21q41 0 132 105q93 106 123 184q9 22 9 36q0 48 -58 299q-14 63 -26 109q-69 259 -110 330q-35 60 -90 70q-17 3 -42 3q-28 0 -63 -8v35zM486 1012l331 327q24 21 52 21q44 0 64 -39q9 -16 9 -35q0 -37 -34 -57
l-351 -217h-71z" />
    <glyph glyph-name="thorn" unicode="&#xfe;" 
d="M266 -389v-31h-420v33q73 2 101 35q21 24 37 86l383 1440q18 60 18 88q0 32 -18 41q-20 11 -115 14v35q165 19 311 47l10 -10q-172 -658 -184 -696q-1 -4 -2 -7l4 -4q139 221 332 221q146 0 206 -113q32 -60 32 -145q0 -188 -128 -371q-113 -162 -274 -243
q-108 -54 -213 -54q-66 0 -135 35q-74 -285 -76 -338q0 -44 50 -56q29 -7 81 -7zM340 16q145 0 270 160q107 138 149 322q17 75 17 141q0 176 -127 176q-105 0 -193 -97q-52 -57 -83 -136q-67 -169 -114 -374q-19 -84 -19 -116q0 -48 51 -68q22 -8 49 -8z" />
    <glyph glyph-name="ydieresis" unicode="&#xff;" horiz-adv-x="909" 
d="M31 854q231 43 282 48q5 0 11 1q22 0 87 -190q66 -193 89 -328l41 -238q231 383 248 507q2 13 2 24q0 35 -41 62q-42 28 -48 34q-22 22 -22 53q0 51 45 69q16 7 35 7q58 0 92 -48q20 -29 20 -64q0 -126 -150 -418q-154 -299 -341 -533q-210 -253 -326 -262q-62 0 -91 45
q-13 20 -13 45q0 48 42 71q17 9 38 9q26 0 80 -36q32 -21 45 -21q41 0 132 105q93 106 123 184q9 22 9 36q0 48 -58 299q-14 63 -26 109q-69 259 -110 330q-35 60 -90 70q-17 3 -42 3q-28 0 -63 -8v35zM396 1241q48 0 79 -44q19 -27 19 -56q0 -56 -47 -85q-25 -16 -54 -16
q-55 0 -84 47q-16 25 -16 56q0 52 46 81q26 17 57 17zM805 1241q48 0 79 -44q19 -27 19 -56q0 -56 -47 -85q-24 -16 -53 -16q-55 0 -84 47q-16 25 -16 56q0 53 46 82q26 16 56 16z" />
    <glyph glyph-name="Amacron" unicode="&#x100;" horiz-adv-x="1251" 
d="M1155 33v-33h-504v33q110 10 138 36q22 21 22 72q0 16 -4 54l-41 268h-451l-116 -232q-37 -74 -40 -107q-1 -9 -1 -20q0 -39 22 -52q22 -12 99 -19v-33h-383v33q53 10 84 40q44 41 150 221q14 22 30 50l594 1024h53l192 -1159q19 -107 40 -135q22 -30 84 -38q13 -1 32 -3
zM358 537h398l-90 532zM1129 1628l-23 -104h-616l22 104h617z" />
    <glyph glyph-name="amacron" unicode="&#x101;" 
d="M786 84q25 0 107 83l57 58l25 -20q-127 -156 -186 -195q-45 -30 -99 -30q-69 0 -80 54q-2 13 -2 29q0 49 25 148l22 88q-141 -200 -230 -264q-79 -58 -181 -58q-134 0 -185 106q-24 51 -24 122q0 186 124 379q107 166 254 254q108 65 208 65q114 0 152 -85q7 -16 11 -34
l23 99l6 6l125 14l14 -6q-3 -12 -12 -43q-149 -545 -179 -716q-3 -20 -3 -27q0 -20 20 -26q4 -1 8 -1zM748 733q0 80 -63 111q-27 14 -62 14q-143 0 -270 -207q-90 -149 -131 -322q-15 -61 -15 -98q0 -103 64 -139q24 -14 55 -14q111 0 228 150q111 140 165 324
q29 100 29 181zM1014 1194l-23 -104h-616l22 104h617z" />
    <glyph glyph-name="Abreve" unicode="&#x102;" horiz-adv-x="1251" 
d="M1155 33v-33h-504v33q110 10 138 36q22 21 22 72q0 16 -4 54l-41 268h-451l-116 -232q-37 -74 -40 -107q-1 -9 -1 -20q0 -39 22 -52q22 -12 99 -19v-33h-383v33q53 10 84 40q44 41 150 221q14 22 30 50l594 1024h53l192 -1159q19 -107 40 -135q22 -30 84 -38q13 -1 32 -3
zM358 537h398l-90 532zM1141 1765q-35 -166 -144 -254q-87 -69 -206 -69q-206 0 -252 184q-14 58 -14 139h59q11 -137 118 -183q45 -20 103 -20q147 0 234 124q25 35 43 79h59z" />
    <glyph glyph-name="abreve" unicode="&#x103;" 
d="M786 84q25 0 107 83l57 58l25 -20q-127 -156 -186 -195q-45 -30 -99 -30q-69 0 -80 54q-2 13 -2 29q0 49 25 148l22 88q-141 -200 -230 -264q-79 -58 -181 -58q-134 0 -185 106q-24 51 -24 122q0 186 124 379q107 166 254 254q108 65 208 65q114 0 152 -85q7 -16 11 -34
l23 99l6 6l125 14l14 -6q-3 -12 -12 -43q-149 -545 -179 -716q-3 -20 -3 -27q0 -20 20 -26q4 -1 8 -1zM748 733q0 80 -63 111q-27 14 -62 14q-143 0 -270 -207q-90 -149 -131 -322q-15 -61 -15 -98q0 -103 64 -139q24 -14 55 -14q111 0 228 150q111 140 165 324
q29 100 29 181zM1028 1331q-35 -166 -144 -254q-87 -69 -206 -69q-206 0 -252 184q-14 58 -14 139h59q11 -137 118 -183q45 -20 103 -20q147 0 234 124q25 35 43 79h59z" />
    <glyph glyph-name="Aogonek" unicode="&#x104;" horiz-adv-x="1251" 
d="M766 463h-451l-116 -232q-37 -74 -40 -107q-1 -9 -1 -20q0 -39 22 -52q22 -12 99 -19v-33h-383v33q53 10 84 40q44 41 150 221q14 22 30 50l594 1024h53l192 -1159q19 -107 40 -135q22 -30 84 -38q13 -1 32 -3v-33q-33 -34 -33 -100q0 -87 73 -110q22 -7 48 -7
q91 0 170 65l35 -36q-108 -158 -256 -158q-89 0 -148 69q-47 55 -47 127q0 61 33 114q10 16 25 36h-404v33q110 10 138 36q22 21 22 72q0 16 -4 54zM358 537h398l-90 532z" />
    <glyph glyph-name="aogonek" unicode="&#x105;" 
d="M786 84q25 0 107 83l57 58l25 -20q-130 -161 -207 -209l-6 -4q-49 -27 -59 -60q-5 -15 -5 -38q0 -74 64 -101q25 -10 57 -10q91 0 170 65l35 -36q-108 -158 -256 -158q-88 0 -147 68q-48 55 -48 126q0 75 54 152q-19 20 -19 63q0 49 25 148l22 88q-141 -200 -230 -264
q-79 -58 -181 -58q-134 0 -185 106q-24 51 -24 122q0 186 124 379q107 166 254 254q108 65 208 65q114 0 152 -85q7 -16 11 -34l23 99l6 6l125 14l14 -6q-3 -12 -12 -43q-149 -545 -179 -716q-3 -20 -3 -27q0 -20 20 -26q4 -1 8 -1zM748 733q0 80 -63 111q-27 14 -62 14
q-143 0 -270 -207q-90 -149 -131 -322q-15 -61 -15 -98q0 -103 64 -139q24 -14 55 -14q111 0 228 150q111 140 165 324q29 100 29 181z" />
    <glyph glyph-name="Cacute" unicode="&#x106;" horiz-adv-x="1366" 
d="M967 1364q83 0 237 -35q64 -14 86 -14q51 0 72 34q3 5 6 11h43l-76 -408l-37 6q-30 332 -313 332q-184 0 -329 -126q-17 -15 -33 -31q-162 -168 -226 -414q-32 -122 -32 -244q0 -247 141 -354q87 -66 217 -66q148 0 273 78q85 54 198 164l35 -29q-179 -209 -354 -271
q-95 -34 -205 -34q-224 0 -372 137q-145 134 -161 348q-2 25 -2 50q0 258 155 484q138 202 350 304q160 78 327 78zM854 1446l331 327q24 21 52 21q44 0 64 -39q9 -16 9 -35q0 -37 -34 -57l-351 -217h-71z" />
    <glyph glyph-name="cacute" unicode="&#x107;" horiz-adv-x="909" 
d="M645 860q-163 0 -280 -169q-95 -137 -120 -317q-7 -47 -7 -89q0 -155 92 -210q40 -24 94 -24q104 0 203 80q41 33 90 86l33 -20q-127 -161 -260 -202q-59 -18 -128 -18q-185 0 -260 132q-41 72 -41 176q0 194 127 364q116 155 285 219q90 35 182 35q111 0 174 -66
q41 -43 41 -100q0 -53 -46 -80q-24 -14 -52 -14q-61 0 -76 51q-4 12 -4 27q0 20 22 70q9 19 9 28q0 31 -51 39q-13 2 -27 2zM482 1012l331 327q24 21 52 21q44 0 64 -39q9 -16 9 -35q0 -37 -34 -57l-351 -217h-71z" />
    <glyph glyph-name="Ccircumflex" unicode="&#x108;" horiz-adv-x="1366" 
d="M967 1364q83 0 237 -35q64 -14 86 -14q51 0 72 34q3 5 6 11h43l-76 -408l-37 6q-30 332 -313 332q-184 0 -329 -126q-17 -15 -33 -31q-162 -168 -226 -414q-32 -122 -32 -244q0 -247 141 -354q87 -66 217 -66q148 0 273 78q85 54 198 164l35 -29q-179 -209 -354 -271
q-95 -34 -205 -34q-224 0 -372 137q-145 134 -161 348q-2 25 -2 50q0 258 155 484q138 202 350 304q160 78 327 78zM1095 1786l180 -346h-73l-168 213l-281 -213h-80l322 346h100z" />
    <glyph glyph-name="ccircumflex" unicode="&#x109;" horiz-adv-x="909" 
d="M645 860q-163 0 -280 -169q-95 -137 -120 -317q-7 -47 -7 -89q0 -155 92 -210q40 -24 94 -24q104 0 203 80q41 33 90 86l33 -20q-127 -161 -260 -202q-59 -18 -128 -18q-185 0 -260 132q-41 72 -41 176q0 194 127 364q116 155 285 219q90 35 182 35q111 0 174 -66
q41 -43 41 -100q0 -53 -46 -80q-24 -14 -52 -14q-61 0 -76 51q-4 12 -4 27q0 20 22 70q9 19 9 28q0 31 -51 39q-13 2 -27 2zM739 1352l180 -346h-73l-168 213l-281 -213h-80l322 346h100z" />
    <glyph glyph-name="Cdotaccent" unicode="&#x10a;" horiz-adv-x="1366" 
d="M967 1364q83 0 237 -35q64 -14 86 -14q51 0 72 34q3 5 6 11h43l-76 -408l-37 6q-30 332 -313 332q-184 0 -329 -126q-17 -15 -33 -31q-162 -168 -226 -414q-32 -122 -32 -244q0 -247 141 -354q87 -66 217 -66q148 0 273 78q85 54 198 164l35 -29q-179 -209 -354 -271
q-95 -34 -205 -34q-224 0 -372 137q-145 134 -161 348q-2 25 -2 50q0 258 155 484q138 202 350 304q160 78 327 78zM1005 1640q49 0 80 -44q19 -27 19 -56q0 -56 -47 -85q-25 -16 -54 -16q-55 0 -84 47q-16 25 -16 56q0 53 46 82q26 16 56 16z" />
    <glyph glyph-name="cdotaccent" unicode="&#x10b;" horiz-adv-x="909" 
d="M645 860q-163 0 -280 -169q-95 -137 -120 -317q-7 -47 -7 -89q0 -155 92 -210q40 -24 94 -24q104 0 203 80q41 33 90 86l33 -20q-127 -161 -260 -202q-59 -18 -128 -18q-185 0 -260 132q-41 72 -41 176q0 194 127 364q116 155 285 219q90 35 182 35q111 0 174 -66
q41 -43 41 -100q0 -53 -46 -80q-24 -14 -52 -14q-61 0 -76 51q-4 12 -4 27q0 20 22 70q9 19 9 28q0 31 -51 39q-13 2 -27 2zM649 1206q49 0 80 -44q19 -27 19 -56q0 -56 -47 -85q-25 -16 -54 -16q-55 0 -84 47q-16 25 -16 56q0 53 46 82q26 16 56 16z" />
    <glyph glyph-name="Ccaron" unicode="&#x10c;" horiz-adv-x="1366" 
d="M967 1364q83 0 237 -35q64 -14 86 -14q51 0 72 34q3 5 6 11h43l-76 -408l-37 6q-30 332 -313 332q-184 0 -329 -126q-17 -15 -33 -31q-162 -168 -226 -414q-32 -122 -32 -244q0 -247 141 -354q87 -66 217 -66q148 0 273 78q85 54 198 164l35 -29q-179 -209 -354 -271
q-95 -34 -205 -34q-224 0 -372 137q-145 134 -161 348q-2 25 -2 50q0 258 155 484q138 202 350 304q160 78 327 78zM1357 1788l-333 -346h-95l-196 346h76l184 -215l291 215h73z" />
    <glyph glyph-name="ccaron" unicode="&#x10d;" horiz-adv-x="909" 
d="M645 860q-163 0 -280 -169q-95 -137 -120 -317q-7 -47 -7 -89q0 -155 92 -210q40 -24 94 -24q104 0 203 80q41 33 90 86l33 -20q-127 -161 -260 -202q-59 -18 -128 -18q-185 0 -260 132q-41 72 -41 176q0 194 127 364q116 155 285 219q90 35 182 35q111 0 174 -66
q41 -43 41 -100q0 -53 -46 -80q-24 -14 -52 -14q-61 0 -76 51q-4 12 -4 27q0 20 22 70q9 19 9 28q0 31 -51 39q-13 2 -27 2zM991 1354l-333 -346h-95l-196 346h76l184 -215l291 215h73z" />
    <glyph glyph-name="Dcaron" unicode="&#x10e;" horiz-adv-x="1478" 
d="M1434 786q0 -272 -174 -476q-175 -205 -472 -277q-135 -33 -286 -33h-518v33q84 15 109 34q30 23 52 100q2 8 5 17l251 906q23 78 23 131q0 43 -36 60q-32 15 -122 24v32h570q277 0 440 -153q158 -150 158 -398zM1206 836q0 250 -154 361q-108 79 -286 79q-88 0 -112 -30
q-8 -11 -13 -29l-248 -885q-45 -158 -45 -195q0 -58 70 -71q26 -5 63 -5q294 0 488 176q190 173 228 465q9 65 9 134zM1271 1788l-333 -346h-95l-196 346h76l184 -215l291 215h73z" />
    <glyph glyph-name="dcaron" unicode="&#x10f;" 
d="M948 227l25 -20q-148 -207 -271 -231q-14 -3 -28 -3q-57 0 -78 51q-8 19 -8 42q0 57 25 177q0 2 1 5q-117 -173 -207 -228q-70 -43 -161 -43q-129 0 -184 100q-31 56 -31 134q0 174 125 364q109 165 257 257q114 71 216 71q82 0 113 -57q12 -24 20 -62l90 336
q31 115 31 144q0 32 -20 41q-21 9 -107 12v35q162 15 313 47l10 -10q-136 -538 -202 -762q-106 -352 -131 -484q-3 -15 -3 -20q0 -29 24 -39q7 -2 13 -2q30 0 66 34q30 28 102 111zM729 739q0 117 -100 117q-108 0 -225 -144q-111 -138 -165 -319q-30 -100 -30 -182t57 -118
q27 -17 62 -17q106 0 214 133q112 139 162 335q25 101 25 195zM1182 1110q0 27 -36 61q-38 36 -48 58q-8 18 -8 39q0 55 49 82q25 14 55 14q63 0 97 -60q22 -38 22 -85q0 -146 -187 -277q-36 -25 -79 -49l-19 35q146 97 153 172q1 5 1 10z" />
    <glyph glyph-name="Dcroat" unicode="&#x110;" horiz-adv-x="1478" 
d="M1434 786q0 -272 -174 -476q-175 -205 -472 -277q-135 -33 -286 -33h-518v33q84 15 111 37q29 23 52 103q1 5 3 11l133 484h-185l25 86h184l94 336q23 75 23 131q0 43 -34 60q-32 15 -124 24v32h570q277 0 440 -153q158 -150 158 -398zM1206 836q0 228 -131 344
q-110 96 -303 96q-93 0 -117 -31q-9 -11 -14 -28l-129 -463h313l-24 -86h-314l-94 -336q-45 -157 -45 -195q0 -58 70 -71q26 -5 63 -5q294 0 488 176q190 173 228 465q9 65 9 134z" />
    <glyph glyph-name="dcroat" unicode="&#x111;" 
d="M850 1114h-340l16 72h344q13 46 13 76q0 33 -20 42q-21 10 -107 13v35q162 15 313 47l10 -10l-53 -203h117l-17 -72h-118q-83 -324 -131 -487q-104 -343 -131 -481q-3 -17 -3 -23q0 -29 24 -39q7 -2 13 -2q30 0 66 34q30 28 102 111l25 -20q-148 -207 -271 -231
q-14 -3 -28 -3q-57 0 -78 51q-8 19 -8 42q0 57 25 177q0 2 1 5q-117 -173 -207 -228q-70 -43 -161 -43q-129 0 -184 100q-31 56 -31 134q0 174 125 364q109 165 257 257q114 71 216 71q82 0 113 -57q12 -24 20 -62zM637 856h-8q-80 0 -166 -78q-9 -8 -17 -16
q-121 -129 -190 -318q-47 -129 -47 -233q0 -82 57 -118q27 -17 62 -17q106 0 214 133q112 139 162 335q25 101 25 195q0 111 -92 117z" />
    <glyph glyph-name="Emacron" unicode="&#x112;" horiz-adv-x="1251" 
d="M510 68q265 0 393 68q81 43 162 144q19 25 51 68l33 -16l-127 -332h-1038v33q85 15 112 38q28 24 52 105l2 8l251 906q19 68 23 131q0 43 -36 60q-32 15 -122 24v32h1018l-63 -313l-43 4q4 70 4 92q0 77 -49 108q-60 37 -267 41q-35 1 -78 1q-104 0 -128 -17
q-14 -11 -21 -36l-135 -478q142 4 162 4q122 6 163 25q43 20 79 86q15 28 40 84l37 -8l-139 -475l-41 10q14 63 14 106q0 57 -35 77q-34 18 -122 18h-17q-52 0 -160 6q-38 -146 -117 -411q-22 -74 -22 -124q0 -52 84 -64q32 -5 80 -5zM1194 1628l-23 -104h-616l22 104h617z
" />
    <glyph glyph-name="emacron" unicode="&#x113;" horiz-adv-x="909" 
d="M733 223l25 -24q-136 -155 -304 -204q-62 -18 -120 -18q-134 0 -211 95q-60 76 -60 186q0 177 128 353q114 158 275 238q110 54 214 54q111 0 149 -74q15 -28 15 -65q0 -128 -139 -232q-148 -110 -386 -143l-57 -8q-20 -83 -20 -127q0 -107 81 -156q47 -28 111 -28
q80 0 161 50q53 33 138 103zM276 426q327 79 410 252q23 49 23 98q0 54 -41 74q-14 6 -31 6q-80 0 -179 -105q-95 -101 -147 -235zM957 1194l-23 -104h-616l22 104h617z" />
    <glyph glyph-name="Ebreve" unicode="&#x114;" horiz-adv-x="1251" 
d="M510 68q265 0 393 68q81 43 162 144q19 25 51 68l33 -16l-127 -332h-1038v33q85 15 112 38q28 24 52 105l2 8l251 906q19 68 23 131q0 43 -36 60q-32 15 -122 24v32h1018l-63 -313l-43 4q4 70 4 92q0 77 -49 108q-60 37 -267 41q-35 1 -78 1q-104 0 -128 -17
q-14 -11 -21 -36l-135 -478q142 4 162 4q122 6 163 25q43 20 79 86q15 28 40 84l37 -8l-139 -475l-41 10q14 63 14 106q0 57 -35 77q-34 18 -122 18h-17q-52 0 -160 6q-38 -146 -117 -411q-22 -74 -22 -124q0 -52 84 -64q32 -5 80 -5zM1274 1763q-35 -166 -144 -254
q-87 -69 -206 -69q-206 0 -252 184q-14 58 -14 139h59q11 -137 118 -183q45 -20 103 -20q147 0 234 124q25 35 43 79h59z" />
    <glyph glyph-name="ebreve" unicode="&#x115;" horiz-adv-x="909" 
d="M733 223l25 -24q-136 -155 -304 -204q-62 -18 -120 -18q-134 0 -211 95q-60 76 -60 186q0 177 128 353q114 158 275 238q110 54 214 54q111 0 149 -74q15 -28 15 -65q0 -128 -139 -232q-148 -110 -386 -143l-57 -8q-20 -83 -20 -127q0 -107 81 -156q47 -28 111 -28
q80 0 161 50q53 33 138 103zM276 426q327 79 410 252q23 49 23 98q0 54 -41 74q-14 6 -31 6q-80 0 -179 -105q-95 -101 -147 -235zM1024 1329q-35 -166 -144 -254q-87 -69 -206 -69q-206 0 -252 184q-14 58 -14 139h59q11 -137 118 -183q45 -20 103 -20q147 0 234 124
q25 35 43 79h59z" />
    <glyph glyph-name="Edotaccent" unicode="&#x116;" horiz-adv-x="1251" 
d="M510 68q265 0 393 68q81 43 162 144q19 25 51 68l33 -16l-127 -332h-1038v33q85 15 112 38q28 24 52 105l2 8l251 906q19 68 23 131q0 43 -36 60q-32 15 -122 24v32h1018l-63 -313l-43 4q4 70 4 92q0 77 -49 108q-60 37 -267 41q-35 1 -78 1q-104 0 -128 -17
q-14 -11 -21 -36l-135 -478q142 4 162 4q122 6 163 25q43 20 79 86q15 28 40 84l37 -8l-139 -475l-41 10q14 63 14 106q0 57 -35 77q-34 18 -122 18h-17q-52 0 -160 6q-38 -146 -117 -411q-22 -74 -22 -124q0 -52 84 -64q32 -5 80 -5zM878 1675q49 0 80 -44q19 -27 19 -56
q0 -56 -47 -85q-25 -16 -54 -16q-55 0 -84 47q-16 25 -16 56q0 53 46 82q26 16 56 16z" />
    <glyph glyph-name="edotaccent" unicode="&#x117;" horiz-adv-x="909" 
d="M733 223l25 -24q-136 -155 -304 -204q-62 -18 -120 -18q-134 0 -211 95q-60 76 -60 186q0 177 128 353q114 158 275 238q110 54 214 54q111 0 149 -74q15 -28 15 -65q0 -128 -139 -232q-148 -110 -386 -143l-57 -8q-20 -83 -20 -127q0 -107 81 -156q47 -28 111 -28
q80 0 161 50q53 33 138 103zM276 426q327 79 410 252q23 49 23 98q0 54 -41 74q-14 6 -31 6q-80 0 -179 -105q-95 -101 -147 -235zM639 1241q49 0 80 -44q19 -27 19 -56q0 -56 -47 -85q-25 -16 -54 -16q-55 0 -84 47q-16 25 -16 56q0 53 46 82q26 16 56 16z" />
    <glyph glyph-name="Eogonek" unicode="&#x118;" horiz-adv-x="1251" 
d="M524 68q265 0 393 68q81 43 162 144q19 25 51 68l33 -16l-127 -332q-28 -73 -28 -115q0 -59 56 -87q28 -15 64 -15q91 0 170 65l35 -36q-107 -158 -256 -158q-91 0 -149 71q-45 55 -45 128q0 66 40 124q8 11 17 23h-942v33q85 15 112 38q28 24 51 104q2 4 3 9l252 906
q19 73 22 131q0 43 -35 60q-32 15 -122 24v32h1017l-63 -313l-43 4q4 70 4 92q0 77 -49 108q-61 38 -267 41q-35 1 -77 1q-104 0 -128 -17q-15 -10 -22 -36l-135 -478q144 4 162 4q123 6 164 25q44 21 79 87q15 28 40 83l36 -8l-139 -475l-41 10q15 67 15 106q0 58 -36 77
q-35 18 -122 18h-17q-53 0 -159 6q-38 -145 -118 -410q-22 -75 -22 -125q0 -54 90 -65q31 -4 74 -4z" />
    <glyph glyph-name="eogonek" unicode="&#x119;" horiz-adv-x="909" 
d="M758 199l-103 -120q-65 -83 -70 -169q-1 -10 -1 -19q0 -67 59 -95q28 -13 62 -13q90 0 169 65l35 -36q-107 -158 -256 -158q-88 0 -147 68q-47 54 -47 124q0 90 65 168q6 7 13 15q-104 -52 -201 -52q-137 0 -213 97q-60 75 -60 184q0 177 128 353q114 158 275 238
q110 54 214 54q111 0 149 -74q15 -28 15 -65q0 -128 -139 -232q-148 -110 -386 -143l-57 -8q-20 -83 -20 -127q0 -107 81 -156q47 -28 111 -28q80 0 161 50q53 33 138 103zM276 426q327 79 410 252q23 49 23 98q0 54 -41 74q-14 6 -31 6q-80 0 -179 -105q-95 -101 -147 -235
z" />
    <glyph glyph-name="Ecaron" unicode="&#x11a;" horiz-adv-x="1251" 
d="M510 68q265 0 393 68q81 43 162 144q19 25 51 68l33 -16l-127 -332h-1038v33q85 15 112 38q28 24 52 105l2 8l251 906q19 68 23 131q0 43 -36 60q-32 15 -122 24v32h1018l-63 -313l-43 4q4 70 4 92q0 77 -49 108q-60 37 -267 41q-35 1 -78 1q-104 0 -128 -17
q-14 -11 -21 -36l-135 -478q142 4 162 4q122 6 163 25q43 20 79 86q15 28 40 84l37 -8l-139 -475l-41 10q14 63 14 106q0 57 -35 77q-34 18 -122 18h-17q-52 0 -160 6q-38 -146 -117 -411q-22 -74 -22 -124q0 -52 84 -64q32 -5 80 -5zM1224 1788l-333 -346h-95l-196 346h76
l184 -215l291 215h73z" />
    <glyph glyph-name="ecaron" unicode="&#x11b;" horiz-adv-x="909" 
d="M733 223l25 -24q-136 -155 -304 -204q-62 -18 -120 -18q-134 0 -211 95q-60 76 -60 186q0 177 128 353q114 158 275 238q110 54 214 54q111 0 149 -74q15 -28 15 -65q0 -128 -139 -232q-148 -110 -386 -143l-57 -8q-20 -83 -20 -127q0 -107 81 -156q47 -28 111 -28
q80 0 161 50q53 33 138 103zM276 426q327 79 410 252q23 49 23 98q0 54 -41 74q-14 6 -31 6q-80 0 -179 -105q-95 -101 -147 -235zM987 1354l-333 -346h-95l-196 346h76l184 -215l291 215h73z" />
    <glyph glyph-name="Gcircumflex" unicode="&#x11c;" horiz-adv-x="1478" 
d="M932 1364q116 0 259 -45q78 -25 105 -25q66 0 110 53q7 8 13 17l31 -8l-100 -404l-37 6q-26 236 -206 308q-70 28 -159 28q-295 0 -466 -294q-108 -186 -141 -431q-9 -63 -9 -110q0 -258 172 -361q97 -59 241 -59q174 0 236 100q21 35 46 128q5 18 9 30q57 197 58 254
q0 54 -101 63q-3 0 -59 7v32h545v-32q-105 -7 -142 -38q-35 -28 -57 -110l-100 -383q-209 -116 -436 -126q-24 -1 -50 -1q-253 0 -416 147q-146 130 -168 329q-4 32 -4 65q0 256 155 481q138 200 348 302q158 77 323 77zM1157 1786l180 -346h-73l-168 213l-281 -213h-80
l322 346h100z" />
    <glyph glyph-name="gcircumflex" unicode="&#x11d;" 
d="M608 903q110 0 194 -54q31 -20 40 -20h125v-79h-103q19 -60 19 -115q0 -105 -96 -201t-223 -119q-30 -6 -60 -6q-23 0 -71 7q-4 1 -7 1q-24 0 -53 -38q-21 -27 -21 -46q0 -33 70 -60l163 -56q153 -60 190 -160q13 -37 13 -80q0 -138 -125 -221q-117 -78 -305 -78
q-189 0 -282 91q-60 59 -60 143q0 67 38 113q42 50 202 155q-55 41 -55 80q0 47 62 101q33 29 95 71q-114 52 -145 128q-16 39 -16 93q0 135 107 235q110 103 271 114q16 1 33 1zM303 57q-9 0 -52 -30q-117 -91 -122 -195q0 -130 115 -182q60 -27 145 -27q139 0 219 72
q58 51 58 121q0 100 -141 164q-44 20 -193 67q-10 3 -19 6q-8 4 -10 4zM479 352q104 0 176 124q61 104 66 222v15q0 145 -115 145q-94 0 -168 -96q-79 -112 -82 -256q0 -113 73 -144q22 -10 50 -10zM833 1352l180 -346h-73l-168 213l-281 -213h-80l322 346h100z" />
    <glyph glyph-name="Gbreve" unicode="&#x11e;" horiz-adv-x="1478" 
d="M932 1364q116 0 259 -45q78 -25 105 -25q66 0 110 53q7 8 13 17l31 -8l-100 -404l-37 6q-26 236 -206 308q-70 28 -159 28q-295 0 -466 -294q-108 -186 -141 -431q-9 -63 -9 -110q0 -258 172 -361q97 -59 241 -59q174 0 236 100q21 35 46 128q5 18 9 30q57 197 58 254
q0 54 -101 63q-3 0 -59 7v32h545v-32q-105 -7 -142 -38q-35 -28 -57 -110l-100 -383q-209 -116 -436 -126q-24 -1 -50 -1q-253 0 -416 147q-146 130 -168 329q-4 32 -4 65q0 256 155 481q138 200 348 302q158 77 323 77zM1337 1765q-35 -166 -144 -254q-87 -69 -206 -69
q-206 0 -252 184q-14 58 -14 139h59q11 -137 118 -183q45 -20 103 -20q147 0 234 124q25 35 43 79h59z" />
    <glyph glyph-name="gbreve" unicode="&#x11f;" 
d="M608 903q110 0 194 -54q31 -20 40 -20h125v-79h-103q19 -60 19 -115q0 -105 -96 -201t-223 -119q-30 -6 -60 -6q-23 0 -71 7q-4 1 -7 1q-24 0 -53 -38q-21 -27 -21 -46q0 -33 70 -60l163 -56q153 -60 190 -160q13 -37 13 -80q0 -138 -125 -221q-117 -78 -305 -78
q-189 0 -282 91q-60 59 -60 143q0 67 38 113q42 50 202 155q-55 41 -55 80q0 47 62 101q33 29 95 71q-114 52 -145 128q-16 39 -16 93q0 135 107 235q110 103 271 114q16 1 33 1zM303 57q-9 0 -52 -30q-117 -91 -122 -195q0 -130 115 -182q60 -27 145 -27q139 0 219 72
q58 51 58 121q0 100 -141 164q-44 20 -193 67q-10 3 -19 6q-8 4 -10 4zM479 352q104 0 176 124q61 104 66 222v15q0 145 -115 145q-94 0 -168 -96q-79 -112 -82 -256q0 -113 73 -144q22 -10 50 -10zM1028 1331q-35 -166 -144 -254q-87 -69 -206 -69q-206 0 -252 184
q-14 58 -14 139h59q11 -137 118 -183q45 -20 103 -20q147 0 234 124q25 35 43 79h59z" />
    <glyph glyph-name="Gdotaccent" unicode="&#x120;" horiz-adv-x="1478" 
d="M932 1364q116 0 259 -45q78 -25 105 -25q66 0 110 53q7 8 13 17l31 -8l-100 -404l-37 6q-26 236 -206 308q-70 28 -159 28q-295 0 -466 -294q-108 -186 -141 -431q-9 -63 -9 -110q0 -258 172 -361q97 -59 241 -59q174 0 236 100q21 35 46 128q5 18 9 30q57 197 58 254
q0 54 -101 63q-3 0 -59 7v32h545v-32q-105 -7 -142 -38q-35 -28 -57 -110l-100 -383q-209 -116 -436 -126q-24 -1 -50 -1q-253 0 -416 147q-146 130 -168 329q-4 32 -4 65q0 256 155 481q138 200 348 302q158 77 323 77zM1067 1640q49 0 80 -44q19 -27 19 -56q0 -56 -47 -85
q-25 -16 -54 -16q-55 0 -84 47q-16 25 -16 56q0 53 46 82q26 16 56 16z" />
    <glyph glyph-name="gdotaccent" unicode="&#x121;" 
d="M608 903q110 0 194 -54q31 -20 40 -20h125v-79h-103q19 -60 19 -115q0 -105 -96 -201t-223 -119q-30 -6 -60 -6q-23 0 -71 7q-4 1 -7 1q-24 0 -53 -38q-21 -27 -21 -46q0 -33 70 -60l163 -56q153 -60 190 -160q13 -37 13 -80q0 -138 -125 -221q-117 -78 -305 -78
q-189 0 -282 91q-60 59 -60 143q0 67 38 113q42 50 202 155q-55 41 -55 80q0 47 62 101q33 29 95 71q-114 52 -145 128q-16 39 -16 93q0 135 107 235q110 103 271 114q16 1 33 1zM303 57q-9 0 -52 -30q-117 -91 -122 -195q0 -130 115 -182q60 -27 145 -27q139 0 219 72
q58 51 58 121q0 100 -141 164q-44 20 -193 67q-10 3 -19 6q-8 4 -10 4zM479 352q104 0 176 124q61 104 66 222v15q0 145 -115 145q-94 0 -168 -96q-79 -112 -82 -256q0 -113 73 -144q22 -10 50 -10zM743 1206q49 0 80 -44q19 -27 19 -56q0 -56 -47 -85q-25 -16 -54 -16
q-55 0 -84 47q-16 25 -16 56q0 53 46 82q26 16 56 16z" />
    <glyph glyph-name="Gcommaaccent" unicode="&#x122;" horiz-adv-x="1478" 
d="M932 1364q116 0 259 -45q78 -25 105 -25q66 0 110 53q7 8 13 17l31 -8l-100 -404l-37 6q-26 236 -206 308q-70 28 -159 28q-295 0 -466 -294q-108 -186 -141 -431q-9 -63 -9 -110q0 -258 172 -361q97 -59 241 -59q174 0 236 100q21 35 46 128q5 18 9 30q57 197 58 254
q0 54 -101 63q-3 0 -59 7v32h545v-32q-105 -7 -142 -38q-35 -28 -57 -110l-100 -383q-209 -116 -436 -126q-24 -1 -50 -1q-253 0 -416 147q-146 130 -168 329q-4 32 -4 65q0 256 155 481q138 200 348 302q158 77 323 77zM565 -336q0 27 -36 61q-38 36 -47 57q-9 18 -9 40
q0 56 50 83q25 13 55 13q62 0 96 -60q22 -37 22 -85q0 -146 -187 -277q-36 -25 -79 -49l-18 35q138 94 151 164q2 9 2 18z" />
    <glyph glyph-name="gcommaaccent" unicode="&#x123;" 
d="M682 1229q0 -27 36 -61q38 -36 47 -57q9 -18 9 -40q0 -55 -49 -82q-25 -14 -55 -14q-64 0 -98 61q-21 37 -21 84q0 146 187 277q36 25 79 49l19 -35q-139 -93 -152 -164q-2 -9 -2 -18zM608 903q110 0 194 -54q31 -20 40 -20h125v-79h-103q19 -60 19 -115q0 -105 -96 -201
t-223 -119q-30 -6 -60 -6q-23 0 -71 7q-4 1 -7 1q-24 0 -53 -38q-21 -27 -21 -46q0 -33 70 -60l163 -56q153 -60 190 -160q13 -37 13 -80q0 -138 -125 -221q-117 -78 -305 -78q-189 0 -282 91q-60 59 -60 143q0 67 38 113q42 50 202 155q-55 41 -55 80q0 47 62 101
q33 29 95 71q-114 52 -145 128q-16 39 -16 93q0 135 107 235q110 103 271 114q16 1 33 1zM303 57q-9 0 -52 -30q-117 -91 -122 -195q0 -130 115 -182q60 -27 145 -27q139 0 219 72q58 51 58 121q0 100 -141 164q-44 20 -193 67q-10 3 -19 6q-8 4 -10 4zM479 352
q104 0 176 124q61 104 66 222v15q0 145 -115 145q-94 0 -168 -96q-79 -112 -82 -256q0 -113 73 -144q22 -10 50 -10z" />
    <glyph glyph-name="Hcircumflex" unicode="&#x124;" horiz-adv-x="1478" 
d="M1571 1337v-32q-86 -15 -112 -36q-29 -24 -52 -100l-4 -16l-270 -985q-7 -22 -7 -49q0 -45 34 -62q31 -15 126 -24v-33h-559v33q114 12 156 52q32 31 51 99l133 484h-584l-135 -500q-6 -21 -6 -45q0 -46 28 -62q27 -16 117 -28v-33h-503v33q84 15 109 34q30 23 52 100
q2 8 5 17l251 906q23 78 23 127q0 46 -35 63q-31 16 -123 25v32h559v-32q-118 -9 -166 -66q-26 -31 -41 -86l-110 -399h584l94 336q22 80 22 127q0 45 -30 62q-28 15 -113 26v32h506zM1112 1786l180 -346h-73l-168 213l-281 -213h-80l322 346h100z" />
    <glyph glyph-name="hcircumflex" unicode="&#x125;" 
d="M918 766q0 -67 -95 -382q-71 -237 -71 -269q0 -25 21 -35q5 -2 11 -2q28 0 65 38q31 33 103 124l27 -25q-109 -157 -185 -203q-51 -30 -114 -30q-68 0 -85 55q-5 14 -5 31q0 36 41 188l112 424q15 55 15 68q0 29 -31 44q-13 7 -27 7q-63 0 -173 -110q-78 -78 -144 -179
q-67 -103 -104 -209q-31 -89 -86 -301h-154l276 1049q45 161 49 192q1 12 1 23q0 23 -32 42q-18 11 -34 11q-5 0 -18 -4h-54v30q163 20 322 56l10 -10l-246 -918q214 332 368 407q51 25 101 25q80 0 117 -62q19 -32 19 -75zM714 1848l180 -346h-73l-168 213l-281 -213h-80
l322 346h100z" />
    <glyph glyph-name="Hbar" unicode="&#x126;" horiz-adv-x="1478" 
d="M1182 1077q26 80 26 140q0 45 -30 62q-28 15 -113 26v32h506v-32q-85 -15 -111 -36q-29 -23 -52 -99q-2 -8 -5 -17l-21 -76h103l-25 -104h-106l-221 -805q-7 -22 -7 -49q0 -45 34 -62q31 -15 126 -24v-33h-559v33q114 12 156 52q32 31 51 99l133 484h-584l-135 -500
q-6 -21 -6 -45q0 -46 28 -62q27 -16 117 -28v-33h-503v33q84 15 109 34q30 23 52 100q2 8 5 17l219 789h-111l27 104h112q26 76 27 140q0 46 -35 63q-31 16 -123 25v32h559v-32q-116 -8 -163 -64q-27 -31 -44 -88l-20 -76h584zM1153 973h-584l-61 -219h584z" />
    <glyph glyph-name="hbar" unicode="&#x127;" 
d="M299 1317q-5 0 -18 -4h-54v30q163 20 322 56l10 -10l-55 -203h352l-16 -72h-355l-172 -643q214 332 368 407q51 25 101 25q80 0 117 -62q19 -32 19 -75q0 -67 -95 -382q-71 -237 -71 -269q0 -25 21 -35q5 -2 11 -2q28 0 65 38q31 33 103 124l27 -25q-109 -157 -185 -203
q-51 -30 -114 -30q-68 0 -85 55q-5 14 -5 31q0 36 41 188l112 424q15 55 15 68q0 29 -31 44q-13 7 -27 7q-63 0 -173 -110q-78 -78 -144 -179q-67 -103 -104 -209q-31 -89 -86 -301h-154l293 1114h-109l17 72h112q13 54 13 78q0 23 -32 42q-18 11 -34 11z" />
    <glyph glyph-name="Itilde" unicode="&#x128;" horiz-adv-x="681" 
d="M-16 0v33q84 15 109 34q30 23 52 100q2 8 5 17l251 906q23 78 23 127q0 45 -31 62q-29 15 -112 26v32h505v-32q-85 -15 -111 -35q-30 -23 -52 -98q-2 -9 -5 -19l-251 -907q-23 -80 -23 -129q0 -44 27 -59q26 -15 112 -25v-33h-499zM498 1657q58 0 175 -49q96 -39 128 -39
q57 0 83 42q11 18 21 48h57q-36 -176 -148 -207q-22 -6 -46 -6q-32 0 -159 47q-115 43 -152 43q-71 0 -102 -87q-1 -4 -3 -9h-59q40 153 112 195q38 22 93 22z" />
    <glyph glyph-name="itilde" unicode="&#x129;" horiz-adv-x="569" 
d="M287 74q46 0 162 152q3 3 6 7l26 -22q-112 -166 -193 -210q-44 -24 -93 -24q-86 0 -94 98q-1 9 -1 19q0 57 45 223l99 363q18 62 18 90q0 31 -24 39q-23 8 -105 10v33q93 7 292 44q17 3 36 7l6 -4l-180 -659q-32 -116 -33 -136q0 -17 20 -27q6 -3 13 -3zM340 1223
q58 0 175 -49q96 -39 128 -39q57 0 83 42q11 18 21 48h57q-36 -176 -148 -207q-22 -6 -46 -6q-32 0 -159 47q-115 43 -152 43q-71 0 -102 -87q-1 -4 -3 -9h-59q40 153 112 195q38 22 93 22z" />
    <glyph glyph-name="Imacron" unicode="&#x12a;" horiz-adv-x="681" 
d="M-16 0v33q84 15 109 34q30 23 52 100q2 8 5 17l251 906q23 78 23 127q0 45 -31 62q-29 15 -112 26v32h505v-32q-85 -15 -111 -35q-30 -23 -52 -98q-2 -9 -5 -19l-251 -907q-23 -80 -23 -129q0 -44 27 -59q26 -15 112 -25v-33h-499zM901 1628l-23 -104h-616l22 104h617z
" />
    <glyph glyph-name="imacron" unicode="&#x12b;" horiz-adv-x="569" 
d="M287 74q46 0 162 152q3 3 6 7l26 -22q-112 -166 -193 -210q-44 -24 -93 -24q-86 0 -94 98q-1 9 -1 19q0 57 45 223l99 363q18 62 18 90q0 31 -24 39q-23 8 -105 10v33q93 7 292 44q17 3 36 7l6 -4l-180 -659q-32 -116 -33 -136q0 -17 20 -27q6 -3 13 -3zM787 1194
l-23 -104h-616l22 104h617z" />
    <glyph glyph-name="Ibreve" unicode="&#x12c;" horiz-adv-x="681" 
d="M-16 0v33q84 15 109 34q30 23 52 100q2 8 5 17l251 906q23 78 23 127q0 45 -31 62q-29 15 -112 26v32h505v-32q-85 -15 -111 -35q-30 -23 -52 -98q-2 -9 -5 -19l-251 -907q-23 -80 -23 -129q0 -44 27 -59q26 -15 112 -25v-33h-499zM993 1763q-35 -166 -144 -254
q-87 -69 -206 -69q-206 0 -252 184q-14 58 -14 139h59q11 -137 118 -183q45 -20 103 -20q147 0 234 124q25 35 43 79h59z" />
    <glyph glyph-name="ibreve" unicode="&#x12d;" horiz-adv-x="569" 
d="M287 74q46 0 162 152q3 3 6 7l26 -22q-112 -166 -193 -210q-44 -24 -93 -24q-86 0 -94 98q-1 9 -1 19q0 57 45 223l99 363q18 62 18 90q0 31 -24 39q-23 8 -105 10v33q93 7 292 44q17 3 36 7l6 -4l-180 -659q-32 -116 -33 -136q0 -17 20 -27q6 -3 13 -3zM838 1329
q-35 -166 -144 -254q-87 -69 -206 -69q-206 0 -252 184q-14 58 -14 139h59q11 -137 118 -183q45 -20 103 -20q147 0 234 124q25 35 43 79h59z" />
    <glyph glyph-name="Iogonek" unicode="&#x12e;" horiz-adv-x="681" 
d="M281 1337h505v-32q-85 -15 -111 -35q-30 -23 -52 -98q-2 -9 -5 -19l-251 -907q-23 -80 -23 -129q0 -44 27 -59q26 -15 112 -25v-33q-32 -42 -32 -100q0 -87 73 -110q21 -7 47 -7q91 0 170 65l35 -36q-107 -158 -256 -158q-89 0 -147 69q-47 55 -47 127q0 59 30 111
q10 17 25 39h-397v33q84 15 109 34q30 23 52 100q2 8 5 17l251 906q23 78 23 127q0 45 -31 62q-29 15 -112 26v32z" />
    <glyph glyph-name="iogonek" unicode="&#x12f;" horiz-adv-x="569" 
d="M287 74q46 0 162 152q3 3 6 7l26 -22q-88 -133 -180 -207q-37 -31 -46 -45q-11 -21 -11 -61q0 -84 72 -108q22 -7 49 -7q89 0 170 65l34 -36q-105 -158 -256 -158q-91 0 -149 71q-45 55 -45 128q0 61 34 113q5 8 11 16q-57 20 -63 90q-1 10 -1 22q0 57 45 223l99 363
q18 62 18 90q0 31 -24 39q-23 8 -105 10v33q93 7 292 44q17 3 36 7l6 -4l-180 -659l-2 -4v-5l-11 -36q-20 -56 -20 -91q0 -17 20 -27q6 -3 13 -3zM438 1339q53 0 84 -49q19 -29 19 -63q0 -56 -46 -87q-25 -18 -55 -18q-64 0 -88 57q-10 23 -10 52q0 63 47 94q22 14 49 14z
" />
    <glyph glyph-name="Idotaccent" unicode="&#x130;" horiz-adv-x="681" 
d="M-16 0v33q84 15 109 34q30 23 52 100q2 8 5 17l251 906q23 78 23 127q0 45 -31 62q-29 15 -112 26v32h505v-32q-85 -15 -111 -35q-30 -23 -52 -98q-2 -9 -5 -19l-251 -907q-23 -80 -23 -129q0 -44 27 -59q26 -15 112 -25v-33h-499zM608 1675q49 0 80 -44q19 -27 19 -56
q0 -56 -47 -85q-25 -16 -54 -16q-55 0 -84 47q-16 25 -16 56q0 53 46 82q26 16 56 16z" />
    <glyph glyph-name="dotlessi" unicode="&#x131;" horiz-adv-x="569" 
d="M287 74q46 0 162 152q3 3 6 7l26 -22q-112 -166 -193 -210q-44 -24 -93 -24q-86 0 -94 98q-1 9 -1 19q0 57 45 223l99 363q18 62 18 90q0 31 -24 39q-23 8 -105 10v33q93 7 292 44q17 3 36 7l6 -4l-180 -659q-32 -116 -33 -136q0 -17 20 -27q6 -3 13 -3z" />
    <glyph glyph-name="Jcircumflex" unicode="&#x134;" horiz-adv-x="909" 
d="M1006 1337v-32q-85 -12 -111 -33q-29 -22 -51 -99q-3 -9 -6 -20l-211 -760q-35 -124 -58 -177q-111 -253 -342 -253q-134 0 -200 75q-39 45 -39 105q0 71 50 100q20 11 44 11q49 0 80 -43q18 -25 18 -53l-2 -48v-1q0 -82 72 -82q56 0 84 63q8 20 16 47l268 953
q25 84 25 131q0 43 -34 60q-32 15 -124 24v32h521zM817 1786l180 -346h-73l-168 213l-281 -213h-80l322 346h100z" />
    <glyph glyph-name="jcircumflex" unicode="&#x135;" horiz-adv-x="569" 
d="M518 1372l180 -346h-73l-168 213l-281 -213h-80l322 346h100zM223 819h-73v33q79 3 348 51l6 -4l-213 -842q-102 -404 -299 -468q-40 -13 -84 -13q-92 0 -138 57q-24 30 -24 68q0 52 42 76q18 10 40 10q51 0 74 -40q10 -16 10 -36q0 -22 -18 -45q-9 -11 -9 -20
q0 -23 37 -23q61 0 104 81q42 79 95 290l147 598q33 126 33 164q0 62 -78 63z" />
    <glyph glyph-name="Kcommaaccent" unicode="&#x136;" horiz-adv-x="1366" 
d="M1479 1337v-32q-74 -14 -154 -74l-614 -463l356 -621q40 -67 66 -84q29 -20 115 -28q8 -1 18 -2v-33h-564v33q40 6 60 6q91 8 94 53q0 61 -78 195l-248 426l-139 -510q-16 -55 -16 -80q0 -47 23 -62q25 -17 124 -28v-33h-508v33q86 13 111 32q27 21 49 91q3 12 8 28
l252 906q23 78 23 127q0 46 -35 63q-31 16 -123 25v32h559v-32q-121 -9 -170 -72q-23 -31 -37 -80l-108 -397l311 217q223 156 280 248q15 23 15 39q0 32 -70 38l-55 7v32h455zM510 -336q0 27 -36 61q-38 36 -47 57q-9 18 -9 40q0 55 49 82q25 14 55 14q64 0 98 -61
q21 -37 21 -84q0 -146 -187 -277q-36 -25 -79 -49l-19 35q139 93 152 164q2 9 2 18z" />
    <glyph glyph-name="kcommaaccent" unicode="&#x137;" horiz-adv-x="909" 
d="M483 528q143 -324 153 -344q40 -84 69 -96q9 -4 20 -4q36 0 72 53q9 14 20 33l31 53l31 -22q-85 -157 -144 -198q-37 -26 -84 -26q-55 0 -110 79q-76 108 -174 378l-86 -65l-99 -369h-153l260 989l61 239q4 19 6 32q-2 43 -79 49q-18 2 -41 2h-19v32q155 19 320 56
l10 -10l-246 -936q115 79 242 191q139 122 139 163q0 30 -59 36q-10 1 -21 1h-33v33h375v-33q-69 -4 -140 -50q-85 -55 -321 -266zM281 -336q0 27 -36 61q-38 36 -48 57q-9 18 -9 40q0 56 50 83q25 13 55 13q62 0 97 -60q22 -37 22 -85q0 -145 -187 -276q-37 -26 -80 -50
l-18 35q138 94 152 163q2 9 2 19z" />
    <glyph glyph-name="kgreenlandic" unicode="&#x138;" horiz-adv-x="909" 
d="M944 844q-112 -5 -343 -209l-118 -107l78 -192q108 -252 162 -252q46 0 100 94l25 45l31 -22q-62 -118 -106 -164q-58 -60 -122 -60q-98 0 -221 290q-35 82 -63 167l-86 -65l-99 -369h-153l174 664q28 103 30 129q0 58 -139 51v33q168 19 320 55l10 -10l-121 -461l4 -4
q214 164 294 241q81 77 81 107q0 41 -101 39h-12v33h375v-33z" />
    <glyph glyph-name="Lacute" unicode="&#x139;" horiz-adv-x="1138" 
d="M553 74q217 0 314 38q98 39 169 145q32 48 68 122l41 -12l-119 -367h-1042v33q84 15 109 34q30 23 52 100q2 8 5 17l251 906q23 78 23 127q0 46 -35 63q-31 16 -123 25v32h559v-32q-118 -9 -166 -66q-26 -31 -41 -86l-251 -907q-21 -74 -21 -103q0 -43 54 -57
q46 -12 153 -12zM598 1446l331 327q24 21 52 21q44 0 64 -39q9 -16 9 -35q0 -37 -34 -57l-351 -217h-71z" />
    <glyph glyph-name="lacute" unicode="&#x13a;" horiz-adv-x="569" 
d="M270 66q33 0 65 30q27 26 132 156l27 -19q-115 -168 -188 -218q-56 -38 -124 -38q-87 0 -98 89q-2 13 -2 26q0 16 10 53l281 1082q8 24 8 37q0 45 -127 47h-12v32q155 19 319 56l10 -10l-309 -1186q-7 -15 -19 -78q-3 -16 -3 -23q0 -36 30 -36zM314 1446l331 327
q24 21 52 21q44 0 64 -39q9 -16 9 -35q0 -37 -34 -57l-351 -217h-71z" />
    <glyph glyph-name="Lcommaaccent" unicode="&#x13b;" horiz-adv-x="1138" 
d="M553 74q217 0 314 38q98 39 169 145q32 48 68 122l41 -12l-119 -367h-1042v33q84 15 109 34q30 23 52 100q2 8 5 17l251 906q23 78 23 127q0 46 -35 63q-31 16 -123 25v32h559v-32q-118 -9 -166 -66q-26 -31 -41 -86l-251 -907q-21 -74 -21 -103q0 -43 54 -57
q46 -12 153 -12zM395 -336q0 27 -36 61q-38 36 -47 57q-9 18 -9 40q0 56 50 83q25 13 55 13q62 0 96 -60q22 -37 22 -85q0 -146 -187 -277q-36 -25 -79 -49l-18 35q138 94 151 164q2 9 2 18z" />
    <glyph glyph-name="lcommaaccent" unicode="&#x13c;" horiz-adv-x="569" 
d="M270 66q33 0 65 30q27 26 132 156l27 -19q-115 -168 -188 -218q-56 -38 -124 -38q-87 0 -98 89q-2 13 -2 26q0 16 10 53l281 1082q8 24 8 37q0 45 -127 47h-12v32q155 19 319 56l10 -10l-309 -1186q-7 -15 -19 -78q-3 -16 -3 -23q0 -36 30 -36zM111 -336q0 27 -36 61
q-38 36 -48 57q-9 18 -9 40q0 56 50 83q25 13 55 13q62 0 97 -60q22 -37 22 -85q0 -145 -187 -276q-37 -26 -80 -50l-18 35q138 94 152 163q2 9 2 19z" />
    <glyph glyph-name="Lcaron" unicode="&#x13d;" horiz-adv-x="1138" 
d="M553 74q217 0 314 38q98 39 169 145q32 48 68 122l41 -12l-119 -367h-1042v33q84 15 109 34q30 23 52 100q2 8 5 17l251 906q23 78 23 127q0 46 -35 63q-31 16 -123 25v32h559v-32q-118 -9 -166 -66q-26 -31 -41 -86l-251 -907q-21 -74 -21 -103q0 -43 54 -57
q46 -12 153 -12zM1090 1108q0 27 -36 61q-39 36 -49 58q-8 18 -8 39q0 56 50 83q25 13 55 13q61 0 96 -59q23 -38 23 -86q0 -145 -187 -276q-37 -26 -80 -50l-18 35q144 96 153 170q1 6 1 12z" />
    <glyph glyph-name="lcaron" unicode="&#x13e;" horiz-adv-x="569" 
d="M270 66q33 0 65 30q27 26 132 156l27 -19q-115 -168 -188 -218q-56 -38 -124 -38q-87 0 -98 89q-2 13 -2 26q0 16 10 53l281 1082q8 24 8 37q0 45 -127 47h-12v32q155 19 319 56l10 -10l-309 -1186q-7 -15 -19 -78q-3 -16 -3 -23q0 -36 30 -36zM678 1110q0 27 -36 61
q-38 36 -48 58q-8 18 -8 39q0 55 49 82q25 14 55 14q63 0 97 -60q22 -38 22 -85q0 -146 -187 -277q-36 -25 -79 -49l-19 35q146 97 153 172q1 5 1 10z" />
    <glyph glyph-name="Ldot" unicode="&#x13f;" horiz-adv-x="1138" 
d="M553 74q217 0 314 38q98 39 169 145q32 48 68 122l41 -12l-119 -367h-1042v33q84 15 109 34q30 23 52 100q2 8 5 17l251 906q23 78 23 127q0 46 -35 63q-31 16 -123 25v32h559v-32q-118 -9 -166 -66q-26 -31 -41 -86l-251 -907q-21 -74 -21 -103q0 -43 54 -57
q46 -12 153 -12zM653 782q57 0 93 -49q22 -31 22 -68q0 -55 -50 -89q-30 -21 -67 -21q-56 0 -90 48q-21 28 -21 62q0 60 49 96q29 21 64 21z" />
    <glyph glyph-name="ldot" unicode="&#x140;" horiz-adv-x="1081" 
d="M270 66q33 0 65 30q27 26 132 156l27 -19q-115 -168 -188 -218q-56 -38 -124 -38q-87 0 -98 89q-2 13 -2 26q0 16 10 53l281 1082q8 24 8 37q0 45 -127 47h-12v32q155 19 319 56l10 -10l-309 -1186q-7 -15 -19 -78q-3 -16 -3 -23q0 -36 30 -36zM825 635q57 0 93 -49
q22 -31 22 -68q0 -55 -50 -89q-30 -21 -67 -21q-56 0 -90 48q-21 28 -21 62q0 60 49 96q29 21 64 21z" />
    <glyph glyph-name="Lslash" unicode="&#x141;" horiz-adv-x="1138" 
d="M559 74q213 0 308 37q99 39 170 147q32 48 67 121l41 -12l-119 -367h-1042v33q84 15 109 34q30 23 52 100q2 8 5 17l110 398l-203 -121l27 98l203 121l114 410q23 78 23 127q0 46 -35 63q-31 16 -123 25v32h559v-32q-118 -9 -166 -66q-26 -31 -41 -86l-100 -358l293 174
l-29 -101l-290 -170l-70 -252q-78 -269 -78 -303q0 -42 55 -57q47 -12 160 -12z" />
    <glyph glyph-name="lslash" unicode="&#x142;" horiz-adv-x="569" 
d="M272 66q54 0 154 132q40 52 41 54l27 -19q-114 -167 -185 -217q-56 -39 -125 -39q-100 0 -100 115q0 58 88 369q37 128 51 182l-147 -74l24 95l148 73q133 499 133 525q0 40 -87 47q-23 2 -52 2v32q155 19 319 56l10 -10l-143 -549l201 102l-25 -94l-201 -103l-141 -542
v-4q-4 -4 -4 -17q-16 -62 -16 -80q0 -36 30 -36z" />
    <glyph glyph-name="Nacute" unicode="&#x143;" horiz-adv-x="1366" 
d="M1206 1094l20 68q3 19 3 38q0 59 -33 79q-29 18 -111 26v32h408v-32q-77 -17 -104 -39q-35 -30 -68 -129q-13 -41 -41 -138l-295 -1030h-37l-471 1127l-233 -865q-19 -63 -19 -110q0 -54 55 -73q31 -11 89 -15v-33h-406v33q72 10 102 37q37 34 76 156q13 41 33 110
l244 854q-33 72 -87 95q-33 15 -89 20v32h329l426 -1022zM797 1446l331 327q24 21 52 21q44 0 64 -39q9 -16 9 -35q0 -37 -34 -57l-351 -217h-71z" />
    <glyph glyph-name="nacute" unicode="&#x144;" 
d="M942 240l29 -27q-117 -155 -177 -197q-48 -34 -110 -34q-75 0 -91 61q-5 20 -5 49q0 30 33 154l90 338q28 110 28 155q0 53 -40 59q-4 1 -9 1q-113 0 -303 -291q-70 -108 -104 -196q-31 -79 -101 -312h-153l196 717q4 20 4 35q0 35 -34 45q-28 9 -97 10v33q152 27 332 63
l6 -4l-137 -446q196 304 322 395q75 55 149 55q82 0 118 -60q17 -28 17 -65q0 -52 -18 -116l-117 -422q-29 -115 -29 -129q0 -21 21 -30q6 -3 12 -3q39 0 118 99q3 4 7 9zM541 1012l331 327q24 21 52 21q44 0 64 -39q9 -16 9 -35q0 -37 -34 -57l-351 -217h-71z" />
    <glyph glyph-name="Ncommaaccent" unicode="&#x145;" horiz-adv-x="1366" 
d="M1202 1094l20 68q3 19 3 38q0 59 -33 79q-29 18 -111 26v32h408v-32q-77 -17 -104 -39q-35 -30 -68 -129q-13 -41 -41 -138l-295 -1030h-37l-471 1127l-233 -865q-19 -63 -19 -110q0 -54 55 -73q31 -11 89 -15v-33h-406v33q72 10 102 37q37 34 76 156q13 41 33 110
l244 854q-33 72 -87 95q-33 15 -89 20v32h329l426 -1022zM510 -336q0 27 -36 61q-38 36 -47 57q-9 18 -9 40q0 55 49 82q25 14 55 14q64 0 98 -61q21 -37 21 -84q0 -146 -187 -277q-36 -25 -79 -49l-19 35q139 93 152 164q2 9 2 18z" />
    <glyph glyph-name="ncommaaccent" unicode="&#x146;" 
d="M942 240l29 -27q-117 -155 -177 -197q-48 -34 -110 -34q-75 0 -91 61q-5 20 -5 49q0 35 33 154l90 338q28 110 28 155q0 53 -40 59q-4 1 -9 1q-113 0 -303 -291q-70 -108 -104 -196q-31 -79 -101 -312h-153l196 717q4 20 4 35q0 35 -34 45q-28 9 -97 10v33q152 27 332 63
l6 -4l-137 -446q196 304 322 395q75 55 149 55q82 0 118 -60q17 -28 17 -65q0 -52 -18 -116l-117 -422q-29 -115 -29 -129q0 -21 21 -30q6 -3 12 -3q39 0 118 99q3 4 7 9zM338 -336q0 27 -36 61q-38 36 -47 57q-9 18 -9 40q0 55 49 82q25 14 55 14q64 0 98 -61
q21 -37 21 -84q0 -146 -187 -277q-36 -25 -79 -49l-19 35q139 93 152 164q2 9 2 18z" />
    <glyph glyph-name="Ncaron" unicode="&#x147;" horiz-adv-x="1366" 
d="M1206 1094l20 68q3 19 3 38q0 59 -33 79q-29 18 -111 26v32h408v-32q-77 -17 -104 -39q-35 -30 -68 -129q-13 -41 -41 -138l-295 -1030h-37l-471 1127l-233 -865q-19 -63 -19 -110q0 -54 55 -73q31 -11 89 -15v-33h-406v33q72 10 102 37q37 34 76 156q13 41 33 110
l244 854q-33 72 -87 95q-33 15 -89 20v32h329l426 -1022zM1300 1788l-333 -346h-95l-196 346h76l184 -215l291 215h73z" />
    <glyph glyph-name="ncaron" unicode="&#x148;" 
d="M942 240l29 -27q-117 -155 -177 -197q-48 -34 -110 -34q-75 0 -91 61q-5 20 -5 49q0 30 33 154l90 338q28 110 28 155q0 53 -40 59q-4 1 -9 1q-113 0 -303 -291q-70 -108 -104 -196q-31 -79 -101 -312h-153l196 717q4 20 4 35q0 35 -34 45q-28 9 -97 10v33q152 27 332 63
l6 -4l-137 -446q196 304 322 395q75 55 149 55q82 0 118 -60q17 -28 17 -65q0 -52 -18 -116l-117 -422q-29 -115 -29 -129q0 -21 21 -30q6 -3 12 -3q39 0 118 99q3 4 7 9zM1044 1354l-333 -346h-95l-196 346h76l184 -215l291 215h73z" />
    <glyph glyph-name="napostrophe" unicode="&#x149;" 
d="M942 240l29 -27q-117 -155 -177 -197q-48 -34 -110 -34q-75 0 -91 61q-5 20 -5 49q0 30 33 154l90 338q28 110 28 155q0 53 -40 59q-4 1 -9 1q-113 0 -303 -291q-70 -108 -104 -196q-31 -79 -101 -312h-153l196 717q4 20 4 35q0 35 -34 45q-28 9 -97 10v33q152 27 332 63
l6 -4l-137 -446q196 304 322 395q75 55 149 55q82 0 118 -60q17 -28 17 -65q0 -52 -18 -116l-117 -422q-29 -115 -29 -129q0 -21 21 -30q6 -3 12 -3q39 0 118 99q3 4 7 9z" />
    <glyph glyph-name="Eng" unicode="&#x14a;" horiz-adv-x="1366" 
d="M1489 1305q-107 -22 -151 -106q-20 -37 -48 -148q-8 -31 -14 -52l-270 -942q-63 -216 -129 -319q-103 -162 -256 -162q-93 0 -136 56q-24 31 -24 75q0 41 40 66q21 14 44 14q44 0 69 -35q13 -18 13 -39q0 -22 -19 -47q-8 -11 -8 -20q0 -23 41 -23q123 0 232 316
q17 50 36 114l-432 1030h-8l-229 -852q-19 -72 -19 -106q0 -73 98 -88q17 -2 46 -4v-33h-406v33q106 15 153 113q18 38 49 155q5 20 9 35l244 854q-36 79 -104 102q-29 10 -72 13v32h329l422 -1013h6l207 770l20 75q3 15 3 27q0 75 -57 95q-25 9 -87 14v32h408v-32z" />
    <glyph glyph-name="eng" unicode="&#x14b;" 
d="M887 662l-166 -605q-86 -313 -202 -415q-75 -66 -181 -66q-92 0 -138 57q-24 30 -24 68q0 52 42 76q18 10 40 10q51 0 74 -40q10 -16 10 -36q0 -22 -18 -45q-9 -11 -9 -20q0 -23 37 -23q59 0 102 84q39 75 97 287l160 590q28 108 28 155q0 53 -40 59q-4 1 -9 1
q-113 0 -303 -291q-70 -108 -104 -196q-31 -79 -101 -312h-153l196 717q4 20 4 35q0 35 -34 45q-28 9 -97 10v33q152 27 332 63l6 -4l-137 -446q196 304 322 395q75 55 149 55q82 0 118 -60q17 -28 17 -65q0 -52 -18 -116z" />
    <glyph glyph-name="Omacron" unicode="&#x14c;" horiz-adv-x="1478" 
d="M123 453q0 277 183 522q145 195 352 303q165 86 313 86q186 0 315 -123q128 -121 144 -308q2 -24 2 -48q0 -208 -121 -428q-126 -230 -327 -364q-195 -130 -415 -130q-188 0 -312 128q-126 130 -134 338v24zM604 31q200 0 367 222q139 186 207 452q39 152 39 280
q0 179 -106 261q-66 50 -159 50q-207 0 -367 -212q-11 -15 -22 -31q-109 -159 -177 -393q-48 -164 -48 -283q0 -240 138 -316q55 -30 128 -30zM1323 1628l-23 -104h-616l22 104h617z" />
    <glyph glyph-name="omacron" unicode="&#x14d;" 
d="M958 616q0 -153 -103 -319q-105 -169 -261 -255q-116 -65 -238 -65q-169 0 -249 110q-52 72 -52 177q0 192 129 367q116 159 284 230q99 42 198 42q146 0 228 -98q64 -77 64 -189zM387 20q133 0 247 170q99 147 137 340q15 75 15 138q0 120 -69 169q-33 23 -76 23
q-124 0 -240 -154q-107 -142 -153 -334q-21 -88 -21 -165q0 -111 72 -161q38 -26 88 -26zM1014 1194l-23 -104h-616l22 104h617z" />
    <glyph glyph-name="Obreve" unicode="&#x14e;" horiz-adv-x="1478" 
d="M123 453q0 277 183 522q145 195 352 303q165 86 313 86q186 0 315 -123q128 -121 144 -308q2 -24 2 -48q0 -208 -121 -428q-126 -230 -327 -364q-195 -130 -415 -130q-188 0 -312 128q-126 130 -134 338v24zM604 31q200 0 367 222q139 186 207 452q39 152 39 280
q0 179 -106 261q-66 50 -159 50q-207 0 -367 -212q-11 -15 -22 -31q-109 -159 -177 -393q-48 -164 -48 -283q0 -240 138 -316q55 -30 128 -30zM1393 1763q-35 -166 -144 -254q-87 -69 -206 -69q-206 0 -252 184q-14 58 -14 139h59q11 -137 118 -183q45 -20 103 -20
q147 0 234 124q25 35 43 79h59z" />
    <glyph glyph-name="obreve" unicode="&#x14f;" 
d="M958 616q0 -153 -103 -319q-105 -169 -261 -255q-116 -65 -238 -65q-169 0 -249 110q-52 72 -52 177q0 192 129 367q116 159 284 230q99 42 198 42q146 0 228 -98q64 -77 64 -189zM387 20q133 0 247 170q99 147 137 340q15 75 15 138q0 120 -69 169q-33 23 -76 23
q-124 0 -240 -154q-107 -142 -153 -334q-21 -88 -21 -165q0 -111 72 -161q38 -26 88 -26zM1063 1329q-35 -166 -144 -254q-87 -69 -206 -69q-206 0 -252 184q-14 58 -14 139h59q11 -137 118 -183q45 -20 103 -20q147 0 234 124q25 35 43 79h59z" />
    <glyph glyph-name="Ohungarumlaut" unicode="&#x150;" horiz-adv-x="1478" 
d="M123 453q0 277 183 522q145 195 352 303q165 86 313 86q186 0 315 -123q128 -121 144 -308q2 -24 2 -48q0 -208 -121 -428q-126 -230 -327 -364q-195 -130 -415 -130q-188 0 -312 128q-126 130 -134 338v24zM604 31q200 0 367 222q139 186 207 452q39 152 39 280
q0 179 -106 261q-66 50 -159 50q-207 0 -367 -212q-11 -15 -22 -31q-109 -159 -177 -393q-48 -164 -48 -283q0 -240 138 -316q55 -30 128 -30zM589 1446l332 327q24 21 51 21q44 0 65 -39q9 -16 9 -35q0 -37 -35 -57l-350 -217h-72zM938 1446l331 327q24 21 52 21
q44 0 64 -39q9 -16 9 -35q0 -37 -34 -57l-351 -217h-71z" />
    <glyph glyph-name="ohungarumlaut" unicode="&#x151;" 
d="M958 616q0 -153 -103 -319q-105 -169 -261 -255q-116 -65 -238 -65q-169 0 -249 110q-52 72 -52 177q0 192 129 367q116 159 284 230q99 42 198 42q146 0 228 -98q64 -77 64 -189zM387 20q133 0 247 170q99 147 137 340q15 75 15 138q0 120 -69 169q-33 23 -76 23
q-124 0 -240 -154q-107 -142 -153 -334q-21 -88 -21 -165q0 -111 72 -161q38 -26 88 -26zM362 1012l332 327q24 21 51 21q44 0 65 -39q9 -16 9 -35q0 -37 -35 -57l-350 -217h-72zM711 1012l331 327q24 21 52 21q44 0 64 -39q9 -16 9 -35q0 -37 -34 -57l-351 -217h-71z" />
    <glyph glyph-name="OE" unicode="&#x152;" horiz-adv-x="1933" 
d="M907 1364q53 0 233 -21q55 -6 79 -6h755l-63 -307h-33q0 125 -21 167q-27 54 -117 67q-42 6 -108 6h-196q-47 0 -65 -36q-6 -12 -11 -30l-131 -465h24q193 0 252 17q62 17 100 74q20 30 54 104l37 -8l-135 -471l-41 4l12 73v13q0 68 -32 91q-35 24 -163 30l-127 6
l-106 -389l-26 -105q-5 -24 -5 -37q0 -48 46 -62q34 -11 108 -11q217 0 333 54q110 51 216 187q16 20 32 43l33 -12l-133 -340h-709q-66 0 -311 -12q-73 -4 -123 -4q-188 0 -318 122q-128 120 -145 306q-2 24 -2 49q0 273 154 510q134 208 338 313q154 80 315 80zM918 1298
q-203 0 -365 -202q-140 -174 -200 -429q-31 -131 -31 -253q0 -345 263 -364q15 -1 31 -1q134 0 203 80q58 69 112 253q3 12 7 26l149 548q40 146 41 168v13q0 83 -79 129q-55 32 -131 32z" />
    <glyph glyph-name="oe" unicode="&#x153;" horiz-adv-x="1366" 
d="M1214 215l23 -22q-180 -180 -330 -211q-36 -7 -73 -7q-138 0 -213 140q-107 -105 -198 -128q-38 -10 -85 -10q-138 0 -223 95q-74 83 -74 204q0 173 121 347q107 154 254 230q96 50 186 50q124 0 192 -92q24 -32 37 -72q131 118 217 148q49 16 109 16q117 0 153 -78
q13 -27 13 -61q0 -145 -196 -254q-120 -67 -243 -90q-15 -3 -26 -4q-55 -5 -69 -26q-3 -5 -5 -11q-18 -67 -20 -146q0 -96 66 -144q38 -28 88 -28q69 0 150 49q52 33 146 105zM348 18q139 0 244 246q74 174 103 380q7 49 7 77q0 89 -63 122q-25 13 -57 13q-112 0 -216 -155
q-99 -147 -138 -343q-17 -82 -17 -153q0 -123 70 -168q30 -19 67 -19zM803 440q164 53 202 74q18 10 42 27q105 78 133 178q8 27 8 53q0 61 -46 76q-11 4 -24 4q-69 0 -143 -77q-102 -107 -172 -335z" />
    <glyph glyph-name="Racute" unicode="&#x154;" horiz-adv-x="1251" 
d="M1214 1042q0 -277 -385 -356l-18 -4l190 -502q36 -97 87 -126q31 -18 83 -21v-33h-303l-252 664l-133 10l-114 -428q-25 -95 -25 -119q0 -49 20 -64q22 -18 119 -30v-33h-499v33q84 13 110 34q29 23 52 103q2 6 4 14l251 906q25 92 25 129q0 51 -54 69q-14 4 -91 17v32
h507q303 0 392 -158q34 -59 34 -137zM641 1219l-133 -469q60 -11 104 -11q349 0 383 252q4 27 4 56q0 229 -254 229q-72 0 -93 -32q-7 -10 -11 -25zM664 1446l331 327q24 21 52 21q44 0 64 -39q9 -16 9 -35q0 -37 -34 -57l-351 -217h-71z" />
    <glyph glyph-name="racute" unicode="&#x155;" horiz-adv-x="796" 
d="M750 696q-51 0 -71 38q-14 27 -18 30q-7 6 -18 6q-52 0 -150 -161q-5 -8 -10 -17q-81 -134 -131 -272q-37 -100 -104 -320h-156l166 598q34 133 33 168q0 49 -56 56q-8 1 -16 1q-20 0 -69 -10v35q-4 -1 317 55l6 -4l-108 -444l28 73q31 79 112 188q141 179 243 187
q61 0 85 -54q11 -23 11 -52q0 -80 -63 -97q-14 -4 -31 -4zM426 1012l331 327q24 21 52 21q44 0 64 -39q9 -16 9 -35q0 -37 -34 -57l-351 -217h-71z" />
    <glyph glyph-name="Rcommaaccent" unicode="&#x156;" horiz-adv-x="1251" 
d="M1204 1042q0 -277 -385 -356l-18 -4l190 -502q36 -97 87 -126q31 -18 83 -21v-33h-303l-252 664l-133 10l-115 -428q-24 -96 -24 -119q0 -49 20 -64q22 -18 119 -30v-33h-500v33q84 13 110 34q29 23 52 101l4 16l252 906q25 92 25 129q0 51 -53 69q-15 4 -93 17v32h508
q303 0 392 -158q34 -59 34 -137zM631 1219l-133 -469q60 -11 104 -11q349 0 383 252q4 27 4 56q0 229 -254 229q-72 0 -93 -32q-7 -10 -11 -25zM453 -336q0 27 -36 61q-38 36 -48 57q-9 18 -9 40q0 56 50 83q25 13 55 13q62 0 97 -60q22 -37 22 -85q0 -145 -187 -276
q-37 -26 -80 -50l-18 35q139 93 152 164q2 9 2 18z" />
    <glyph glyph-name="rcommaaccent" unicode="&#x157;" horiz-adv-x="796" 
d="M750 696q-51 0 -71 38q-14 27 -18 30q-7 6 -18 6q-52 0 -150 -161q-5 -8 -10 -17q-81 -134 -131 -272q-37 -100 -104 -320h-156l166 598q33 146 33 168q0 49 -56 56q-8 1 -16 1q-20 0 -69 -10v35q-4 -1 317 55l6 -4l-108 -444l28 73q31 79 112 188q141 179 243 187
q61 0 85 -54q11 -23 11 -52q0 -80 -63 -97q-14 -4 -31 -4zM225 -336q0 27 -36 61q-38 36 -47 57q-9 18 -9 40q0 56 50 83q25 13 55 13q62 0 96 -60q22 -37 22 -85q0 -146 -187 -277q-36 -25 -79 -49l-18 35q138 94 151 164q2 9 2 18z" />
    <glyph glyph-name="Rcaron" unicode="&#x158;" horiz-adv-x="1251" 
d="M1214 1042q0 -277 -385 -356l-18 -4l190 -502q36 -97 87 -126q31 -18 83 -21v-33h-303l-252 664l-133 10l-114 -428q-25 -95 -25 -119q0 -49 20 -64q22 -18 119 -30v-33h-499v33q84 13 110 34q29 23 52 103q2 6 4 14l251 906q25 92 25 129q0 51 -54 69q-14 4 -91 17v32
h507q303 0 392 -158q34 -59 34 -137zM641 1219l-133 -469q60 -11 104 -11q349 0 383 252q4 27 4 56q0 229 -254 229q-72 0 -93 -32q-7 -10 -11 -25zM1167 1788l-333 -346h-95l-196 346h76l184 -215l291 215h73z" />
    <glyph glyph-name="rcaron" unicode="&#x159;" horiz-adv-x="796" 
d="M750 696q-51 0 -71 38q-14 27 -18 30q-7 6 -18 6q-52 0 -150 -161q-5 -8 -10 -17q-81 -134 -131 -272q-37 -100 -104 -320h-156l166 598q34 133 33 168q0 49 -56 56q-8 1 -16 1q-20 0 -69 -10v35q-4 -1 317 55l6 -4l-108 -444l28 73q31 79 112 188q141 179 243 187
q61 0 85 -54q11 -23 11 -52q0 -80 -63 -97q-14 -4 -31 -4zM929 1354l-333 -346h-95l-196 346h76l184 -215l291 215h73z" />
    <glyph glyph-name="Sacute" unicode="&#x15a;" 
d="M633 1364q89 0 193 -34q52 -17 75 -17q47 0 70 25q10 10 22 28h47l-82 -408l-36 7q-7 181 -63 255q-59 76 -185 76q-138 0 -195 -93q-30 -49 -30 -116q0 -69 25 -113q28 -50 153 -177q11 -12 24 -25q151 -152 195 -238q37 -71 37 -161q0 -168 -111 -284t-278 -125
q-12 -1 -25 -1q-80 0 -207 45q-83 29 -112 29q-55 0 -75 -59q-2 -4 -3 -9h-37l69 457l41 -4q-4 -28 -4 -47q0 -153 93 -252q85 -88 206 -88q119 0 197 87q68 77 68 185q0 109 -109 232q-22 25 -131 133q-118 117 -160 200q-37 74 -37 150q0 156 110 253q101 89 255 89z
M541 1446l331 327q24 21 52 21q44 0 64 -39q9 -16 9 -35q0 -37 -34 -57l-351 -217h-71z" />
    <glyph glyph-name="sacute" unicode="&#x15b;" horiz-adv-x="796" 
d="M328 -23q-40 0 -128 24q-54 15 -85 15q-25 0 -42 -30q-4 -6 -7 -13h-33l41 326h32q37 -217 135 -264q33 -15 74 -15q87 0 129 69q23 39 23 89q0 81 -78 187l-95 125q-71 102 -71 188q0 123 95 185q63 40 153 40q41 0 130 -24q39 -11 58 -11q39 0 59 32q1 2 3 5h29
l-41 -284h-33q-29 220 -168 234q-10 1 -21 1q-80 0 -105 -63q-9 -21 -9 -48q0 -65 76 -170l95 -126q79 -115 79 -205q0 -127 -96 -203q-80 -64 -199 -64zM426 1012l331 327q24 21 52 21q44 0 64 -39q9 -16 9 -35q0 -37 -34 -57l-351 -217h-71z" />
    <glyph glyph-name="Scircumflex" unicode="&#x15c;" 
d="M633 1364q89 0 193 -34q52 -17 75 -17q47 0 70 25q10 10 22 28h47l-82 -408l-36 7q-7 181 -63 255q-59 76 -185 76q-138 0 -195 -93q-30 -49 -30 -116q0 -69 25 -113q28 -50 153 -177q11 -12 24 -25q151 -152 195 -238q37 -71 37 -161q0 -168 -111 -284t-278 -125
q-12 -1 -25 -1q-80 0 -207 45q-83 29 -112 29q-55 0 -75 -59q-2 -4 -3 -9h-37l69 457l41 -4q-4 -28 -4 -47q0 -153 93 -252q85 -88 206 -88q119 0 197 87q68 77 68 185q0 109 -109 232q-22 25 -131 133q-118 117 -160 200q-37 74 -37 150q0 156 110 253q101 89 255 89z
M903 1786l180 -346h-73l-168 213l-281 -213h-80l322 346h100z" />
    <glyph glyph-name="scircumflex" unicode="&#x15d;" horiz-adv-x="796" 
d="M328 -23q-40 0 -128 24q-54 15 -85 15q-25 0 -42 -30q-4 -6 -7 -13h-33l41 326h32q37 -217 135 -264q33 -15 74 -15q87 0 129 69q23 39 23 89q0 81 -78 187l-95 125q-71 102 -71 188q0 123 95 185q63 40 153 40q41 0 130 -24q39 -11 58 -11q39 0 59 32q1 2 3 5h29
l-41 -284h-33q-29 220 -168 234q-10 1 -21 1q-80 0 -105 -63q-9 -21 -9 -48q0 -65 76 -170l95 -126q79 -115 79 -205q0 -127 -96 -203q-80 -64 -199 -64zM674 1352l180 -346h-73l-168 213l-281 -213h-80l322 346h100z" />
    <glyph glyph-name="Scedilla" unicode="&#x15e;" 
d="M633 1364q89 0 193 -34q52 -17 75 -17q47 0 70 25q10 10 22 28h47l-82 -408l-36 7q-7 181 -63 255q-59 76 -185 76q-138 0 -195 -93q-30 -49 -30 -116q0 -69 25 -113q28 -50 153 -177q11 -12 24 -25q151 -152 195 -238q37 -71 37 -161q0 -170 -112 -286
q-111 -116 -280 -124h-22q-21 0 -74 6l-69 -104q30 6 51 6q106 0 149 -68q19 -31 19 -71q0 -87 -86 -138q-66 -38 -158 -38q-74 0 -173 37q-8 3 -17 6l34 59q81 -31 140 -31q90 0 105 62q3 10 3 22q0 55 -48 79q-21 11 -46 11q-28 0 -66 -14l-18 16l113 183q-137 45 -141 46
q-22 5 -37 5q-55 0 -75 -59q-2 -4 -3 -9h-37l69 457l41 -4q-4 -28 -4 -47q0 -153 93 -252q85 -88 206 -88q119 0 197 87q68 77 68 185q0 109 -109 232q-22 25 -131 133q-118 117 -160 200q-37 74 -37 150q0 156 110 253q101 89 255 89z" />
    <glyph glyph-name="scedilla" unicode="&#x15f;" horiz-adv-x="796" 
d="M373 745q0 -65 76 -170l95 -126q79 -115 79 -205q0 -128 -97 -204q-81 -63 -200 -63q-21 0 -37 3l-78 -115q30 6 51 6q108 0 149 -69q19 -31 19 -70q0 -87 -85 -138q-66 -38 -159 -38q-76 0 -182 40q-4 1 -8 3l35 59q82 -31 139 -31q92 0 107 63q2 10 2 21q0 57 -49 80
q-21 10 -46 10q-26 0 -65 -14l-19 16l121 193q-76 20 -106 20q-25 0 -42 -30q-4 -6 -7 -13h-33l41 326h32q37 -217 135 -264q33 -15 74 -15q87 0 129 69q23 39 23 89q0 81 -78 187l-95 125q-71 102 -71 188q0 123 95 185q63 40 153 40q41 0 130 -24q39 -11 58 -11
q39 0 59 32q1 2 3 5h29l-41 -284h-33q-29 220 -168 234q-10 1 -21 1q-80 0 -105 -63q-9 -21 -9 -48z" />
    <glyph glyph-name="Scaron" unicode="&#x160;" 
d="M633 1364q89 0 193 -34q52 -17 75 -17q47 0 70 25q10 10 22 28h47l-82 -408l-36 7q-7 181 -63 255q-59 76 -185 76q-138 0 -195 -93q-30 -49 -30 -116q0 -69 25 -113q28 -50 153 -177q11 -12 24 -25q151 -152 195 -238q37 -71 37 -161q0 -168 -111 -284t-278 -125
q-12 -1 -25 -1q-80 0 -207 45q-83 29 -112 29q-55 0 -75 -59q-2 -4 -3 -9h-37l69 457l41 -4q-4 -28 -4 -47q0 -153 93 -252q85 -88 206 -88q119 0 197 87q68 77 68 185q0 109 -109 232q-22 25 -131 133q-118 117 -160 200q-37 74 -37 150q0 156 110 253q101 89 255 89z
M1065 1788l-333 -346h-95l-196 346h76l184 -215l291 215h73z" />
    <glyph glyph-name="scaron" unicode="&#x161;" horiz-adv-x="796" 
d="M328 -23q-40 0 -128 24q-54 15 -85 15q-25 0 -42 -30q-4 -6 -7 -13h-33l41 326h32q37 -217 135 -264q33 -15 74 -15q87 0 129 69q23 39 23 89q0 81 -78 187l-95 125q-71 102 -71 188q0 123 95 185q63 40 153 40q41 0 130 -24q39 -11 58 -11q39 0 59 32q1 2 3 5h29
l-41 -284h-33q-29 220 -168 234q-10 1 -21 1q-80 0 -105 -63q-9 -21 -9 -48q0 -65 76 -170l95 -126q79 -115 79 -205q0 -127 -96 -203q-80 -64 -199 -64zM929 1354l-333 -346h-95l-196 346h76l184 -215l291 215h73z" />
    <glyph glyph-name="uni0162" unicode="&#x162;" horiz-adv-x="1138" 
d="M387 0l-123 -197l19 -16q39 14 65 14q60 0 84 -47q10 -20 10 -43q0 -67 -73 -81q-16 -3 -35 -3q-57 0 -139 31l-35 -59q115 -42 190 -43q131 0 200 71q44 45 44 105q0 83 -75 120q-40 19 -93 19q-21 0 -51 -6l90 135h262v33l-78 6q-77 6 -95 35q-11 17 -11 51
q0 28 24 121l285 1020h113q173 0 205 -104q8 -27 8 -62q0 -44 -7 -92l35 -4l90 333h-1089l-86 -315l37 -8q64 133 123 182q68 56 202 66q49 4 119 4h43l-295 -1082q-27 -88 -81 -119q-44 -25 -136 -32v-33h254z" />
    <glyph glyph-name="uni0163" unicode="&#x163;" horiz-adv-x="569" 
d="M215 -20q74 18 161 124q38 47 89 121l-27 15q-101 -130 -136 -152q-15 -10 -30 -10q-25 0 -29 31q-1 5 -1 10q0 4 2 10l180 682h172l10 66h-164l58 210q2 5 2 11q0 20 -17 20q-12 0 -66 -59q-96 -105 -154 -144q-43 -30 -83 -41q-57 -18 -63 -39q-2 -5 -2 -12q0 -6 2 -12
h151l-147 -563l-41 -154q-6 -26 -6 -39q0 -46 48 -67q8 -4 17 -6l-127 -201l19 -17q38 15 65 15q61 0 85 -48q10 -19 10 -42q0 -71 -80 -82q-14 -2 -29 -2q-56 0 -139 30l-35 -59q115 -42 190 -43q130 0 200 71q44 45 44 105q0 84 -76 120q-39 19 -92 19q-21 0 -51 -6z" />
    <glyph glyph-name="Tcaron" unicode="&#x164;" horiz-adv-x="1138" 
d="M1296 1337l-90 -333l-35 4q7 48 7 92q0 128 -120 157q-39 9 -93 9h-113l-285 -1020q-24 -93 -24 -121q0 -54 34 -71q22 -11 72 -15l78 -6v-33h-594v33q121 9 167 54q33 32 50 97l295 1082h-43q-187 0 -267 -36q-73 -34 -129 -127q-22 -35 -48 -89l-37 8l86 315h1089z
M1163 1788l-333 -346h-95l-196 346h76l184 -215l291 215h73z" />
    <glyph glyph-name="tcaron" unicode="&#x165;" horiz-adv-x="569" 
d="M606 877l-10 -66h-172l-180 -682q-2 -6 -2 -10q5 -36 30 -41q30 0 78 54q30 33 88 108l27 -15q-115 -169 -186 -216q-49 -32 -105 -32q-60 0 -87 41q-11 17 -11 37q0 25 42 173q4 14 5 20l147 563h-151q-2 6 -2 12q0 23 33 39l84 40q117 63 221 198q13 18 30 18t17 -20
q0 -6 -2 -11l-58 -210h164zM643 1110q0 27 -36 61q-38 36 -48 58q-8 18 -8 39q0 55 49 82q25 14 55 14q63 0 97 -60q22 -38 22 -85q0 -146 -187 -277q-36 -25 -79 -49l-19 35q146 97 153 172q1 5 1 10z" />
    <glyph glyph-name="Tbar" unicode="&#x166;" horiz-adv-x="1138" 
d="M207 1337h1089l-90 -333l-35 4q7 48 7 92q0 128 -120 157q-39 9 -93 9h-113l-145 -525h200l-22 -104h-209l-109 -391q-24 -93 -24 -121q0 -54 34 -71q22 -11 72 -15l78 -6v-33h-594v33q121 9 167 54q33 32 50 97l123 453h-205l23 104h211l143 525h-43q-187 0 -267 -36
q-73 -34 -129 -127q-22 -35 -48 -89l-37 8z" />
    <glyph glyph-name="tbar" unicode="&#x167;" horiz-adv-x="569" 
d="M442 877h164l-10 -66h-172l-57 -217h186l-25 -105h-188l-96 -360q-2 -6 -2 -10q5 -36 30 -41q30 0 78 54q30 33 88 108l27 -15q-115 -169 -186 -216q-49 -32 -105 -32q-60 0 -87 41q-11 17 -11 37q0 25 42 173q4 14 5 20l63 241h-159l24 105h162l57 217h-151q-2 6 -2 12
q0 23 33 39l84 40q117 63 221 198q13 18 30 18t17 -20q0 -6 -2 -11z" />
    <glyph glyph-name="Utilde" unicode="&#x168;" horiz-adv-x="1478" 
d="M1305 1210q0 61 -63 81q-28 8 -83 14v32h408v-32q-76 -17 -102 -39q-36 -29 -69 -128q-14 -42 -42 -139l-170 -583q-102 -348 -352 -428q-80 -25 -177 -25q-202 0 -329 102q-117 95 -117 236q0 115 88 434l109 393q14 61 14 93q0 43 -26 58q-28 16 -134 26v32h559v-32
q-128 -14 -173 -79q-20 -30 -43 -115q-5 -19 -9 -32q-201 -694 -201 -790q0 -121 98 -189q77 -53 189 -53q292 0 416 370q12 35 50 181q4 15 7 25q152 537 152 587zM848 1657q58 0 175 -49q96 -39 128 -39q57 0 83 42q11 18 21 48h57q-36 -176 -148 -207q-22 -6 -46 -6
q-32 0 -159 47q-115 43 -152 43q-71 0 -102 -87q-1 -4 -3 -9h-59q40 153 112 195q38 22 93 22z" />
    <glyph glyph-name="utilde" unicode="&#x169;" 
d="M242 770q0 35 -46 44q-25 5 -77 5v29q129 15 307 55l6 -4l-186 -743q-2 -6 -2 -19q0 -40 30 -49q6 -2 13 -2q90 0 252 243q18 27 36 56q76 120 115 209q30 71 111 291h151l-161 -613q-39 -147 -39 -159q0 -35 22 -35q30 0 76 49q32 34 94 113l29 -19q-112 -159 -168 -202
q-48 -37 -115 -37q-75 0 -93 63q-5 16 -5 35q0 62 92 403q-188 -315 -295 -418q-92 -87 -194 -88q-109 0 -109 113q0 52 51 252l76 291q29 111 29 137zM578 1223q58 0 175 -49q96 -39 128 -39q57 0 83 42q11 18 21 48h57q-36 -176 -148 -207q-22 -6 -46 -6q-32 0 -159 47
q-115 43 -152 43q-71 0 -102 -87q-1 -4 -3 -9h-59q40 153 112 195q38 22 93 22z" />
    <glyph glyph-name="Umacron" unicode="&#x16a;" horiz-adv-x="1478" 
d="M1305 1210q0 61 -63 81q-28 8 -83 14v32h408v-32q-76 -17 -102 -39q-36 -29 -69 -128q-14 -42 -42 -139l-170 -583q-102 -348 -352 -428q-80 -25 -177 -25q-202 0 -329 102q-117 95 -117 236q0 115 88 434l109 393q14 61 14 93q0 43 -26 58q-28 16 -134 26v32h559v-32
q-128 -14 -173 -79q-20 -30 -43 -115q-5 -19 -9 -32q-201 -694 -201 -790q0 -121 98 -189q77 -53 189 -53q292 0 416 370q12 35 50 181q4 15 7 25q152 537 152 587zM1323 1628l-23 -104h-616l22 104h617z" />
    <glyph glyph-name="umacron" unicode="&#x16b;" 
d="M242 770q0 35 -46 44q-25 5 -77 5v29q129 15 307 55l6 -4l-186 -743q-2 -6 -2 -19q0 -40 30 -49q6 -2 13 -2q90 0 252 243q18 27 36 56q76 120 115 209q30 71 111 291h151l-161 -613q-39 -147 -39 -159q0 -35 22 -35q30 0 76 49q32 34 94 113l29 -19q-112 -159 -168 -202
q-48 -37 -115 -37q-75 0 -93 63q-5 16 -5 35q0 62 92 403q-188 -315 -295 -418q-92 -87 -194 -88q-109 0 -109 113q0 52 51 252l76 291q29 111 29 137zM1014 1194l-23 -104h-616l22 104h617z" />
    <glyph glyph-name="Ubreve" unicode="&#x16c;" horiz-adv-x="1478" 
d="M1305 1210q0 61 -63 81q-28 8 -83 14v32h408v-32q-76 -17 -102 -39q-36 -29 -69 -128q-14 -42 -42 -139l-170 -583q-102 -348 -352 -428q-80 -25 -177 -25q-202 0 -329 102q-117 95 -117 236q0 115 88 434l109 393q14 61 14 93q0 43 -26 58q-28 16 -134 26v32h559v-32
q-128 -14 -173 -79q-20 -30 -43 -115q-5 -19 -9 -32q-201 -694 -201 -790q0 -121 98 -189q77 -53 189 -53q292 0 416 370q12 35 50 181q4 15 7 25q152 537 152 587zM1345 1763q-35 -166 -144 -254q-87 -69 -206 -69q-206 0 -252 184q-14 58 -14 139h59q11 -137 118 -183
q45 -20 103 -20q147 0 234 124q25 35 43 79h59z" />
    <glyph glyph-name="ubreve" unicode="&#x16d;" 
d="M242 770q0 35 -46 44q-25 5 -77 5v29q129 15 307 55l6 -4l-186 -743q-2 -6 -2 -19q0 -40 30 -49q6 -2 13 -2q90 0 252 243q18 27 36 56q76 120 115 209q30 71 111 291h151l-161 -613q-39 -147 -39 -159q0 -35 22 -35q30 0 76 49q32 34 94 113l29 -19q-112 -159 -168 -202
q-48 -37 -115 -37q-75 0 -93 63q-5 16 -5 35q0 62 92 403q-188 -315 -295 -418q-92 -87 -194 -88q-109 0 -109 113q0 52 51 252l76 291q29 111 29 137zM1075 1329q-35 -166 -144 -254q-87 -69 -206 -69q-206 0 -252 184q-14 58 -14 139h59q11 -137 118 -183q45 -20 103 -20
q147 0 234 124q25 35 43 79h59z" />
    <glyph glyph-name="Uring" unicode="&#x16e;" horiz-adv-x="1478" 
d="M1305 1210q0 61 -63 81q-28 8 -83 14v32h408v-32q-76 -17 -102 -39q-36 -29 -69 -128q-14 -42 -42 -139l-170 -583q-102 -348 -352 -428q-80 -25 -177 -25q-202 0 -329 102q-117 95 -117 236q0 115 88 434l109 393q14 61 14 93q0 43 -26 58q-28 16 -134 26v32h559v-32
q-128 -14 -173 -79q-20 -30 -43 -115q-5 -19 -9 -32q-201 -694 -201 -790q0 -121 98 -189q77 -53 189 -53q292 0 416 370q12 35 50 181q4 15 7 25q152 537 152 587zM999 1882q94 0 156 -71q51 -58 51 -134q0 -90 -70 -152q-58 -51 -135 -51q-96 0 -157 72q-48 57 -48 133
q0 92 71 153q58 50 132 50zM999 1812q-64 0 -105 -53q-28 -36 -28 -80q0 -71 57 -111q34 -24 76 -24q74 0 114 57q23 33 23 76q0 68 -56 109q-36 26 -81 26z" />
    <glyph glyph-name="uring" unicode="&#x16f;" 
d="M242 770q0 35 -46 44q-25 5 -77 5v29q129 15 307 55l6 -4l-186 -743q-2 -6 -2 -19q0 -40 30 -49q6 -2 13 -2q90 0 252 243q18 27 36 56q76 120 115 209q30 71 111 291h151l-161 -613q-39 -147 -39 -159q0 -35 22 -35q30 0 76 49q32 34 94 113l29 -19q-112 -159 -168 -202
q-48 -37 -115 -37q-75 0 -93 63q-5 16 -5 35q0 62 92 403q-188 -315 -295 -418q-92 -87 -194 -88q-109 0 -109 113q0 52 51 252l76 291q29 111 29 137zM690 1448q94 0 156 -71q51 -58 51 -134q0 -90 -70 -152q-58 -51 -135 -51q-96 0 -157 72q-48 57 -48 133q0 92 71 153
q58 50 132 50zM690 1378q-64 0 -105 -53q-28 -36 -28 -80q0 -71 57 -111q34 -24 76 -24q74 0 114 57q23 33 23 76q0 68 -56 109q-36 26 -81 26z" />
    <glyph glyph-name="Uhungarumlaut" unicode="&#x170;" horiz-adv-x="1478" 
d="M1305 1210q0 61 -63 81q-28 8 -83 14v32h408v-32q-76 -17 -102 -39q-36 -29 -69 -128q-14 -42 -42 -139l-170 -583q-102 -348 -352 -428q-80 -25 -177 -25q-202 0 -329 102q-117 95 -117 236q0 115 88 434l109 393q14 61 14 93q0 43 -26 58q-28 16 -134 26v32h559v-32
q-128 -14 -173 -79q-20 -30 -43 -115q-5 -19 -9 -32q-201 -694 -201 -790q0 -121 98 -189q77 -53 189 -53q292 0 416 370q12 35 50 181q4 15 7 25q152 537 152 587zM671 1446l332 327q24 21 51 21q44 0 65 -39q9 -16 9 -35q0 -37 -35 -57l-350 -217h-72zM1020 1446l331 327
q24 21 52 21q44 0 64 -39q9 -16 9 -35q0 -37 -34 -57l-351 -217h-71z" />
    <glyph glyph-name="uhungarumlaut" unicode="&#x171;" 
d="M242 770q0 35 -46 44q-25 5 -77 5v29q129 15 307 55l6 -4l-186 -743q-2 -6 -2 -19q0 -40 30 -49q6 -2 13 -2q90 0 252 243q18 27 36 56q76 120 115 209q30 71 111 291h151l-161 -613q-39 -147 -39 -159q0 -35 22 -35q30 0 76 49q32 34 94 113l29 -19q-112 -159 -168 -202
q-48 -37 -115 -37q-75 0 -93 63q-5 16 -5 35q0 62 92 403q-188 -315 -295 -418q-92 -87 -194 -88q-109 0 -109 113q0 52 51 252l76 291q29 111 29 137zM362 1012l332 327q24 21 51 21q44 0 65 -39q9 -16 9 -35q0 -37 -35 -57l-350 -217h-72zM711 1012l331 327q24 21 52 21
q44 0 64 -39q9 -16 9 -35q0 -37 -34 -57l-351 -217h-71z" />
    <glyph glyph-name="Uogonek" unicode="&#x172;" horiz-adv-x="1478" 
d="M1305 1210q0 61 -63 81q-28 8 -83 14v32h408v-32q-76 -17 -102 -39q-36 -29 -69 -128q-14 -42 -42 -139l-170 -583q-35 -113 -130 -288q-71 -130 -85 -182q-8 -28 -8 -52q0 -74 63 -100q25 -11 57 -11q91 0 170 65l35 -36q-108 -158 -256 -158q-88 0 -147 68
q-47 54 -47 124q0 89 65 167q3 3 6 7q-114 -57 -254 -57q-200 0 -326 102q-118 94 -118 236q0 115 88 434l109 393q14 61 14 93q0 43 -26 58q-28 16 -134 26v32h559v-32q-128 -14 -173 -79q-20 -30 -43 -115q-5 -19 -9 -32q-201 -694 -201 -790q0 -121 98 -189
q77 -53 189 -53q292 0 416 370q12 35 50 181q4 15 7 25q152 537 152 587z" />
    <glyph glyph-name="uogonek" unicode="&#x173;" 
d="M242 770q0 35 -46 44q-25 5 -77 5v29q129 15 307 55l6 -4l-186 -743q-2 -6 -2 -19q0 -40 30 -49q6 -2 13 -2q90 0 252 243q18 27 36 56q76 120 115 209q30 71 111 291h151l-161 -613q-39 -147 -39 -159q0 -35 22 -35q30 0 76 49q32 34 94 113l29 -19q-105 -148 -149 -187
q-21 -18 -46 -32q-60 -33 -72 -60q-8 -16 -8 -46q0 -77 65 -103q25 -10 56 -10q91 0 170 65l35 -36q-106 -158 -256 -158q-88 0 -147 68q-48 55 -48 126q0 76 54 150q-35 27 -35 82q0 62 92 403q-188 -315 -295 -418q-92 -87 -194 -88q-109 0 -109 113q0 52 51 252l76 291
q29 111 29 137z" />
    <glyph glyph-name="Wcircumflex" unicode="&#x174;" horiz-adv-x="1705" 
d="M1855 1337v-32q-63 -21 -91 -50q-25 -27 -62 -98l-621 -1194h-41l-102 930h-10l-455 -930h-39l-127 1059q-21 163 -21 162q-13 70 -49 94q-29 19 -92 27v32h484v-32q-102 -12 -128 -38q-22 -21 -22 -75q0 -18 2 -29l90 -831l353 712l-19 142q-10 73 -36 94t-117 25v32
h487v-32q-96 -9 -121 -44q-18 -24 -18 -77l84 -852l383 753q43 89 43 138q0 45 -28 60q-26 14 -105 22v32h378zM1155 1786l180 -346h-73l-168 213l-281 -213h-80l322 346h100z" />
    <glyph glyph-name="wcircumflex" unicode="&#x175;" horiz-adv-x="1366" 
d="M104 829l-29 -2h-1h-41v27q48 8 53 8q83 13 173 37q15 4 28 4q47 0 86 -418q13 -145 16 -227l393 623q14 20 27 20q12 0 14 -14q1 -5 2 -15l66 -720q246 306 304 417q34 66 34 115q0 31 -38 68q-36 36 -44 53q-6 14 -6 29q0 54 54 66q12 3 26 3q62 0 92 -51
q14 -24 14 -55q0 -131 -218 -446q-143 -207 -265 -335q-50 -53 -62 -53q-13 0 -17 16q-3 12 -5 46l-60 653l-182 -320l-176 -321q-44 -74 -68 -74q-15 0 -20 25q-3 19 -6 71l-8 181q-11 252 -49 459q-3 20 -7 36q-12 71 -41 86q-15 8 -39 8zM852 1352l180 -346h-73l-168 213
l-281 -213h-80l322 346h100z" />
    <glyph glyph-name="Ycircumflex" unicode="&#x176;" horiz-adv-x="1138" 
d="M569 115q0 -48 40 -63q31 -12 143 -19v-33h-592v33q116 7 161 50q33 31 54 101l125 434l-158 551q-25 79 -43 99q-20 22 -84 33q-11 1 -29 4v32h490v-32q-111 -12 -134 -33q-14 -13 -14 -41q0 -33 41 -177q62 -215 97 -343l77 94q285 332 306 420q2 9 2 16q0 41 -59 54
q-24 5 -83 10v32h387v-32q-55 -26 -86 -59q-19 -19 -57 -66l-448 -553l-60 -207l-62 -218q-14 -58 -14 -87zM895 1786l180 -346h-73l-168 213l-281 -213h-80l322 346h100z" />
    <glyph glyph-name="ycircumflex" unicode="&#x177;" horiz-adv-x="909" 
d="M31 854q231 43 282 48q5 0 11 1q22 0 87 -190q66 -193 89 -328l41 -238q231 383 248 507q2 13 2 24q0 35 -41 62q-42 28 -48 34q-22 22 -22 53q0 51 45 69q16 7 35 7q58 0 92 -48q20 -29 20 -64q0 -126 -150 -418q-154 -299 -341 -533q-210 -253 -326 -262q-62 0 -91 45
q-13 20 -13 45q0 48 42 71q17 9 38 9q26 0 80 -36q32 -21 45 -21q41 0 132 105q93 106 123 184q9 22 9 36q0 48 -58 299q-14 63 -26 109q-69 259 -110 330q-35 60 -90 70q-17 3 -42 3q-28 0 -63 -8v35zM624 1352l180 -346h-73l-168 213l-281 -213h-80l322 346h100z" />
    <glyph glyph-name="Ydieresis" unicode="&#x178;" horiz-adv-x="1138" 
d="M569 115q0 -48 40 -63q31 -12 143 -19v-33h-592v33q116 7 161 50q33 31 54 101l125 434l-158 551q-25 79 -43 99q-20 22 -84 33q-11 1 -29 4v32h490v-32q-111 -12 -134 -33q-14 -13 -14 -41q0 -33 41 -177q62 -215 97 -343l77 94q285 332 306 420q2 9 2 16q0 41 -59 54
q-24 5 -83 10v32h387v-32q-55 -26 -86 -59q-19 -19 -57 -66l-448 -553l-60 -207l-62 -218q-14 -58 -14 -87zM590 1675q48 0 79 -44q19 -27 19 -56q0 -56 -47 -85q-25 -16 -54 -16q-55 0 -84 47q-16 25 -16 56q0 52 46 81q26 17 57 17zM999 1675q48 0 79 -44q19 -27 19 -56
q0 -56 -47 -85q-24 -16 -53 -16q-55 0 -84 47q-16 25 -16 56q0 53 46 82q26 16 56 16z" />
    <glyph glyph-name="Zacute" unicode="&#x179;" horiz-adv-x="1138" 
d="M618 1264q-276 0 -370 -126q-20 -26 -51 -96l-7 -14l-38 10l94 299h995v-28l-989 -1235h330q249 0 354 64q65 40 117 134q13 23 41 78l39 -6l-111 -344h-1034v29l981 1235h-351zM598 1446l331 327q24 21 52 21q44 0 64 -39q9 -16 9 -35q0 -37 -34 -57l-351 -217h-71z" />
    <glyph glyph-name="zacute" unicode="&#x17a;" horiz-adv-x="796" 
d="M551 -166q-76 0 -195 69q-113 66 -122 71q-72 36 -125 36q-50 0 -95 -37l-18 19l635 762h-299q-77 0 -109 -27q-27 -23 -57 -94l-33 8l64 236h581v-23l-594 -704q137 -31 219 -130l71 -94q43 -49 101 -49q48 0 55 25q1 3 1 6q0 6 -16 42q-13 28 -13 50q0 43 41 58
q13 5 29 5q50 0 66 -44q5 -13 5 -29q0 -67 -66 -115q-56 -41 -126 -41zM426 1012l331 327q24 21 52 21q44 0 64 -39q9 -16 9 -35q0 -37 -34 -57l-351 -217h-71z" />
    <glyph glyph-name="Zdotaccent" unicode="&#x17b;" horiz-adv-x="1138" 
d="M618 1264q-276 0 -370 -126q-20 -26 -51 -96l-7 -14l-38 10l94 299h995v-28l-989 -1235h330q249 0 354 64q65 40 117 134q13 23 41 78l39 -6l-111 -344h-1034v29l981 1235h-351zM753 1675q49 0 80 -44q19 -27 19 -56q0 -56 -47 -85q-25 -16 -54 -16q-55 0 -84 47
q-16 25 -16 56q0 53 46 82q26 16 56 16z" />
    <glyph glyph-name="zdotaccent" unicode="&#x17c;" horiz-adv-x="796" 
d="M551 -166q-76 0 -195 69q-113 66 -122 71q-72 36 -125 36q-50 0 -95 -37l-18 19l635 762h-299q-77 0 -109 -27q-27 -23 -57 -94l-33 8l64 236h581v-23l-594 -704q137 -31 219 -130l71 -94q43 -49 101 -49q48 0 55 25q1 3 1 6q0 6 -16 42q-13 28 -13 50q0 43 41 58
q13 5 29 5q50 0 66 -44q5 -13 5 -29q0 -67 -66 -115q-56 -41 -126 -41zM583 1241q49 0 80 -44q19 -27 19 -56q0 -56 -47 -85q-25 -16 -54 -16q-55 0 -84 47q-16 25 -16 56q0 53 46 82q26 16 56 16z" />
    <glyph glyph-name="Zcaron" unicode="&#x17d;" horiz-adv-x="1138" 
d="M618 1264q-276 0 -370 -126q-20 -26 -51 -96l-7 -14l-38 10l94 299h995v-28l-989 -1235h330q249 0 354 64q65 40 117 134q13 23 41 78l39 -6l-111 -344h-1034v29l981 1235h-351zM1120 1788l-333 -346h-95l-196 346h76l184 -215l291 215h73z" />
    <glyph glyph-name="zcaron" unicode="&#x17e;" horiz-adv-x="796" 
d="M551 -166q-76 0 -195 69q-113 66 -122 71q-72 36 -125 36q-50 0 -95 -37l-18 19l635 762h-299q-77 0 -109 -27q-27 -23 -57 -94l-33 8l64 236h581v-23l-594 -704q137 -31 219 -130l71 -94q43 -49 101 -49q48 0 55 25q1 3 1 6q0 6 -16 42q-13 28 -13 50q0 43 41 58
q13 5 29 5q50 0 66 -44q5 -13 5 -29q0 -67 -66 -115q-56 -41 -126 -41zM888 1354l-333 -346h-95l-196 346h76l184 -215l291 215h73z" />
    <glyph glyph-name="longs" unicode="&#x17f;" horiz-adv-x="569" 
d="M-145 -293q0 -16 -13 -37q-6 -10 -6 -18q0 -25 28 -31q6 -2 13 -2q131 0 199 332l180 860h-184l14 66h188q70 227 138 333q112 179 280 179q96 0 147 -58q29 -34 29 -76q0 -46 -42 -70q-21 -11 -44 -11q-52 0 -69 47q-6 15 -6 34q0 17 16 50q4 9 4 14q0 20 -35 23
q-5 1 -10 1q-86 0 -146 -122q-50 -104 -104 -344l-162 -721q-97 -437 -288 -547q-57 -33 -121 -33q-85 0 -133 53q-29 32 -29 72q0 51 40 74q16 10 36 10q45 0 69 -38q11 -19 11 -40z" />
    <glyph glyph-name="uni0180" unicode="&#x180;" 
d="M969 655q0 -179 -128 -360q-117 -167 -284 -254q-124 -64 -244 -64q-47 0 -140 28q-133 39 -126 89l256 946h-176l25 86h176l26 95q4 20 4 36q0 56 -76 60h-57v35q184 21 314 47l10 -10l-68 -263h170l-24 -86h-168l-119 -432l4 -2q121 191 235 256q71 41 146 41
q128 0 196 -92q48 -64 48 -156zM795 629q0 123 -82 161q-29 13 -68 13q-132 0 -255 -202q-99 -162 -146 -364q-21 -87 -21 -145q0 -67 96 -67q143 0 280 154q116 130 169 298q27 84 27 152z" />
    <glyph glyph-name="uni0181" unicode="&#x181;" horiz-adv-x="1599" 
d="M1552 1032q0 -215 -283 -295q-33 -9 -69 -16v-4q136 -59 189 -121q63 -72 63 -188q0 -203 -184 -316q-145 -89 -347 -92h-12h-577v33q85 15 113 40q30 27 53 111l258 930q18 74 18 100q0 43 -44 48h-44q-88 0 -192 -46q-131 -59 -149 -144q-3 -13 -3 -25q0 -27 36 -64
q36 -38 42 -61q2 -8 2 -17q0 -48 -45 -83q-29 -23 -60 -23q-64 0 -74 82q-1 12 -1 24q0 209 181 328q146 97 350 104h26h344q278 0 369 -148q40 -65 40 -157zM1346 1063q0 194 -192 211q-18 2 -38 2q-71 0 -94 -13q-24 -14 -33 -44l-133 -476l66 -2q424 -8 424 322z
M1231 426q0 175 -139 225q-70 25 -230 27h-26l-117 -421q-21 -82 -21 -103q0 -93 127 -93q237 0 341 140q65 89 65 225z" />
    <glyph glyph-name="uni0182" unicode="&#x182;" horiz-adv-x="1396" 
d="M1462 1337l-76 -293h-51q4 50 4 66q0 88 -45 118q-46 31 -196 32h-15h-278q-48 0 -65 -22q-9 -14 -19 -48l-98 -359h194q211 0 291 -18q99 -22 158 -90q43 -50 43 -139q0 -160 -92 -315q-60 -101 -136 -156q-117 -85 -311 -107q-51 -6 -102 -6h-684v39q127 4 175 35
t78 125q3 11 7 24l248 891q18 64 18 100q0 49 -43 66q-32 12 -121 18l-2 39h1118zM600 750l-166 -590q-6 -20 -6 -33q0 -37 46 -46q24 -5 67 -5q334 0 458 209q60 101 60 233q0 120 -65 169q-71 53 -277 61q-51 2 -117 2z" />
    <glyph glyph-name="uni0183" unicode="&#x183;" 
d="M317 25q179 0 324 206q97 139 139 302q15 57 15 94q0 114 -72 157q-31 19 -72 19q-150 0 -277 -226q-94 -165 -136 -366q-15 -72 -15 -117q0 -69 94 -69zM223 1303v34h785l-78 -235l-39 -8q14 80 -5 101q-18 19 -87 19h-297l-166 -620q131 203 240 267q71 42 155 42
q116 0 184 -85q54 -66 54 -161q0 -183 -131 -367q-117 -164 -283 -250q-121 -63 -236 -63q-98 0 -197 45q-75 34 -75 64v8l277 1012q32 116 32 141q0 33 -18 42q-21 10 -115 14z" />
    <glyph glyph-name="uni0184" unicode="&#x184;" horiz-adv-x="1251" 
d="M1106 408q0 -203 -184 -316q-145 -89 -347 -92h-12h-575v33q85 15 112 40q29 26 52 111l157 572l-32 166q-5 37 -5 65q0 18 158 169q180 173 224 191q3 1 5 1q13 0 13 -15q0 -30 -155 -561q-7 -25 -9 -33l129 2q323 0 426 -165q43 -70 43 -168zM885 426q0 175 -139 225
q-69 25 -230 27h-27l-103 -367q-34 -130 -34 -157q0 -93 127 -93q237 0 341 140q65 89 65 225z" />
    <glyph glyph-name="uni0185" unicode="&#x185;" 
d="M969 655q0 -179 -128 -360q-117 -167 -284 -254q-124 -64 -244 -64q-49 0 -142 28q-131 40 -124 89l182 674l-84 254q-4 13 -4 16q0 19 150 163q176 169 229 195q7 3 10 3q15 0 15 -17q0 -25 -29 -116q-5 -17 -8 -27l-168 -631l4 -2q121 191 235 256q71 41 146 41
q128 0 196 -92q48 -64 48 -156zM795 629q0 123 -82 161q-29 13 -68 13q-132 0 -255 -202q-99 -162 -146 -364q-21 -87 -21 -145q0 -67 96 -67q143 0 280 154q116 130 169 298q27 84 27 152z" />
    <glyph glyph-name="uni0186" unicode="&#x186;" horiz-adv-x="1366" 
d="M434 -29q-138 0 -277 47q-64 21 -85 21q-60 0 -97 -58l-6 -10h-43l97 463h47q16 -381 346 -381q226 0 401 171q170 166 238 440q32 128 32 241q0 293 -228 367q-69 22 -154 22q-190 0 -379 -117q-61 -37 -129 -90l-29 37q193 191 456 243q84 17 169 17q206 0 347 -97
q185 -128 185 -392q0 -330 -211 -582q-160 -191 -392 -283q-149 -59 -288 -59z" />
    <glyph glyph-name="uni0187" unicode="&#x187;" horiz-adv-x="1773" 
d="M1831 1178q-42 0 -76 48q-32 47 -35 50q-22 24 -49 24q-183 0 -256 -329q-6 -30 -14 -72q-5 -27 -31 -36q-7 -3 -14 -3q-38 0 -31 65l4 40q0 151 -115 244q-100 81 -241 81q-265 0 -430 -218q-134 -177 -166 -437q-8 -65 -8 -129q0 -229 131 -349q106 -96 278 -96
q221 0 432 154q33 24 68 53l31 -37q-120 -139 -328 -211q-140 -49 -272 -49q-265 0 -421 145q-157 145 -157 396q0 290 162 514q152 209 395 292q133 46 279 46q159 0 279 -89q97 -71 132 -179q114 274 379 274q98 0 145 -40q27 -24 27 -58q0 -48 -45 -77q-25 -17 -53 -17z
" />
    <glyph glyph-name="uni0188" unicode="&#x188;" horiz-adv-x="1439" 
d="M1313 963q-42 0 -72 48l-29 48q-21 26 -49 26q-164 0 -265 -265q-15 -39 -28 -83q-28 -94 -96 -94q-59 0 -77 46q-5 13 -5 30q0 26 20 65q11 20 11 35q-8 38 -78 41q-158 0 -276 -165q-95 -132 -123 -303q-8 -48 -8 -91q0 -188 110 -235q33 -15 76 -15q139 0 283 155
q5 5 10 11l33 -20q-125 -157 -256 -200q-61 -20 -129 -20q-238 0 -290 204q-14 54 -14 120q0 176 121 341q113 153 276 221q94 40 189 40q125 0 184 -67q83 168 171 239q101 80 253 80q102 0 143 -43q19 -21 19 -49q0 -48 -46 -81q-28 -19 -58 -19z" />
    <glyph glyph-name="uni0189" unicode="&#x189;" horiz-adv-x="1478" 
d="M1434 786q0 -272 -174 -476q-175 -205 -472 -277q-135 -33 -286 -33h-518v33q84 15 111 37q29 23 52 103q1 5 3 11l133 484h-185l25 86h184l94 336q23 75 23 131q0 43 -34 60q-32 15 -124 24v32h570q277 0 440 -153q158 -150 158 -398zM1206 836q0 228 -131 344
q-110 96 -303 96q-93 0 -117 -31q-9 -11 -14 -28l-129 -463h313l-24 -86h-314l-94 -336q-45 -157 -45 -195q0 -58 70 -71q26 -5 63 -5q294 0 488 176q190 173 228 465q9 65 9 134z" />
    <glyph glyph-name="uni018A" unicode="&#x18a;" horiz-adv-x="1826" 
d="M1782 793q0 -326 -226 -539q-191 -181 -490 -235q-106 -19 -216 -19h-518v33q85 15 113 40q30 27 53 111l258 930q18 74 18 100q0 43 -44 48h-44q-88 0 -192 -46q-131 -59 -149 -144q-3 -13 -3 -25q0 -27 36 -64q36 -38 42 -61q2 -8 2 -17q0 -48 -45 -83q-29 -23 -60 -23
q-64 0 -74 82q-1 12 -1 24q0 209 181 328q146 97 350 104h26h385q256 0 418 -135q176 -145 180 -399v-10zM1554 817q0 349 -255 433q-78 26 -177 26q-74 0 -100 -15q-25 -14 -33 -44l-248 -885q-41 -146 -44 -179q-1 -7 -1 -12q0 -69 87 -78q18 -2 59 -2q285 0 477 178
q175 162 221 419q14 77 14 159z" />
    <glyph glyph-name="uni018B" unicode="&#x18b;" horiz-adv-x="1396" 
d="M828 1260q-153 0 -215 -26q-69 -28 -124 -115q-19 -31 -42 -75h-51l100 293h1118l-25 -39q-122 -8 -165 -33q-46 -27 -77 -109q-7 -18 -14 -42l-288 -891q-21 -68 -21 -100q0 -53 52 -70q36 -11 118 -14l-23 -39h-684q-370 0 -387 241q-1 11 -1 23q0 102 51 227
q64 159 173 232q120 81 271 99q76 9 243 9h195l117 359q9 28 9 43q0 22 -27 26q-9 1 -24 1h-279zM1005 750q-266 0 -383 -42q-111 -40 -187 -147q-14 -19 -28 -43q-80 -133 -80 -236q0 -171 233 -200q45 -6 100 -6q112 0 142 47q9 13 15 37z" />
    <glyph glyph-name="uni018C" unicode="&#x18c;" 
d="M948 227l25 -20q-148 -207 -271 -231q-14 -3 -28 -3q-57 0 -78 51q-8 19 -8 42q0 57 25 177q0 2 1 5q-117 -173 -207 -228q-70 -43 -161 -43q-129 0 -184 100q-31 56 -31 134q0 174 125 364q109 165 257 257q114 71 216 71q82 0 113 -57q12 -24 20 -62l63 234
q31 110 31 143q0 34 -27 44q-24 9 -100 9h-147q-77 0 -108 -26q-28 -22 -58 -94l-33 8l63 235h607l10 -10q-135 -524 -186 -700q-117 -396 -133 -494q-1 -7 -1 -10q0 -29 24 -39q7 -2 13 -2q30 0 66 34q30 28 102 111zM729 739q0 117 -100 117q-108 0 -225 -144
q-111 -138 -165 -319q-30 -100 -30 -182t57 -118q27 -17 62 -17q106 0 214 133q112 139 162 335q25 101 25 195z" />
    <glyph glyph-name="uni018D" unicode="&#x18d;" horiz-adv-x="1093" 
d="M708 903q185 0 281 -111q71 -83 71 -210q0 -173 -119 -320q-114 -140 -282 -188q-69 -20 -139 -20q-57 0 -119 16l-4 -4q18 -14 124 -81q118 -76 156 -138q25 -41 25 -86q0 -108 -92 -184q-87 -72 -197 -72q-124 0 -201 88q-55 64 -63 151h53q16 -101 94 -155
q53 -37 121 -37q69 0 122 43q46 36 46 84q0 45 -83 110l-164 121q-165 130 -210 269q-20 60 -20 126q0 189 123 351q119 157 298 217q88 30 179 30zM307 332q0 -179 135 -213q29 -8 65 -8q188 0 287 177q76 133 76 308q0 205 -137 242q-28 8 -62 8q-160 0 -266 -169
q-80 -130 -95 -293q-3 -27 -3 -52z" />
    <glyph glyph-name="uni018E" unicode="&#x18e;" horiz-adv-x="1251" 
d="M1415 1305q-86 -16 -113 -39q-29 -24 -53 -105l-2 -8l-272 -969q-14 -46 -14 -82q0 -46 55 -61q9 -2 39 -8l-17 -33h-1038l57 332l41 16q30 -176 132 -234q71 -42 229 -45q30 -1 112 -1q121 0 169 52q8 8 14 17q18 27 149 511q4 18 6 24l-197 -1q-111 -6 -164 -61
q-47 -47 -73 -145l-45 -10l123 475l41 8q-6 -87 -6 -86l2 -27q5 -93 250 -88l88 2l117 420q18 70 18 80q-4 34 -139 31q-184 0 -231 -6q-112 -13 -179 -81q-51 -52 -100 -155l-43 -4l108 313h936v-32z" />
    <glyph glyph-name="uni018F" unicode="&#x18f;" horiz-adv-x="1478" 
d="M1413 930q0 -224 -154 -463q-139 -216 -344 -355q-218 -147 -428 -147q-155 0 -220 88q-36 50 -36 123q0 232 256 392q187 118 442 162q50 9 97 13l137 13q23 81 23 162q0 164 -96 249q-72 64 -183 64q-219 0 -508 -236l-37 37q88 122 262 221q192 110 352 115h13
q224 0 338 -149q86 -114 86 -289zM1143 688q-397 -78 -587 -294q-40 -45 -69 -95q-51 -99 -51 -137q0 -82 56 -113q23 -12 53 -12q179 0 380 268q128 171 211 365q3 9 7 18z" />
    <glyph glyph-name="uni0190" unicode="&#x190;" horiz-adv-x="1060" 
d="M406 983q0 87 40 181q78 180 257 193q13 1 26 1q252 0 252 -279l-2 -58v-1h35l102 418h-39q-27 -62 -80 -62q-17 0 -89 24q-116 38 -228 38q-95 0 -209 -50q-196 -84 -261 -254q-30 -76 -30 -167q0 -184 205 -236q-199 -23 -320 -176q-92 -117 -101 -253q-1 -12 -1 -23
q0 -148 122 -233q111 -77 288 -77q285 0 504 277l-25 18q-192 -198 -403 -198q-199 0 -227 157q-5 28 -5 60q0 183 125 298q129 119 340 119h45l16 68q-280 0 -327 144q-10 32 -10 71z" />
    <glyph glyph-name="uni0191" unicode="&#x191;" horiz-adv-x="1251" 
d="M1321 1337l-66 -313l-43 4l7 86q0 134 -184 154q-41 4 -178 2h-15h-82q-71 -5 -84 -53l-135 -478l192 1q97 5 151 52q50 42 99 138l37 -10l-156 -480l-35 11q17 72 17 118q0 89 -128 102q-29 2 -153 0q-26 0 -43 1l-90 -322l-71 -269q-90 -311 -227 -426
q-93 -79 -214 -79q-89 0 -134 53q-28 32 -28 78q0 41 40 66q21 14 44 14q44 0 69 -35q13 -18 13 -39q0 -22 -18 -47q-8 -11 -8 -20q0 -23 41 -23q101 0 179 311l15 60l303 1096q23 92 23 127q0 66 -75 81q-11 2 -83 7v32h1020z" />
    <glyph glyph-name="florin" unicode="&#x192;" horiz-adv-x="569" 
d="M868 1255q0 -45 -42 -69q-20 -12 -42 -12q-50 0 -70 42q-7 16 -7 35q0 21 15 49q5 11 5 19q0 24 -47 24q-159 0 -243 -437q0 -1 -5 -29h221l-12 -66h-223l-148 -655q-129 -569 -400 -580h-11q-73 0 -122 42q-38 33 -38 79q0 48 34 75q18 13 40 13q43 0 68 -35
q14 -19 14 -41q0 -16 -13 -38q-6 -10 -6 -19q0 -24 28 -32q5 -1 11 -1q129 0 198 317q1 6 3 15l180 860h-184l14 66h188q68 222 135 329q114 183 279 183q89 0 142 -48q38 -34 38 -86z" />
    <glyph glyph-name="uni0193" unicode="&#x193;" horiz-adv-x="1767" 
d="M1812 1182q-42 0 -76 48q-33 49 -32 48q-23 27 -51 27q-177 0 -251 -307q-9 -36 -20 -95q-6 -28 -32 -37q-6 -2 -13 -2q-38 0 -31 61q5 45 5 44q0 156 -123 248q-103 77 -248 77q-244 0 -412 -224q-133 -177 -179 -432q-17 -96 -17 -185q0 -239 157 -345q101 -69 256 -69
q133 0 216 70q38 34 94 240q39 144 39 196q0 60 -107 72l-53 4v32h545v-32q-98 -7 -134 -33q-42 -29 -65 -115l-100 -383q-149 -94 -361 -120q-58 -7 -112 -7q-223 0 -387 115q-174 121 -207 325q-7 43 -7 89q0 255 147 481q136 208 349 312q160 79 334 79q171 0 294 -84
q98 -67 132 -172q100 234 318 262q29 4 59 4q96 0 144 -40q28 -23 28 -58q0 -48 -46 -78q-25 -16 -53 -16z" />
    <glyph glyph-name="uni0194" unicode="&#x194;" horiz-adv-x="1251" 
d="M1409 1339l-12 -39q-101 -19 -260 -169q-12 -11 -39 -37l-422 -406l75 -185q42 -115 42 -194q0 -151 -121 -254q-107 -92 -254 -101q-13 -1 -27 -1q-129 0 -183 83q-28 45 -28 107q0 157 156 319q39 40 162 148l-232 584q-19 49 -82 85q-30 17 -57 21l12 39h545l-12 -39
q-153 -9 -163 -154q-1 -10 -1 -20q0 -30 129 -344q4 -10 6 -16l361 344q70 68 71 125q0 54 -80 64q-12 1 -24 1l12 39h426zM621 240q0 83 -86 279l-7 16l-113 -106q-137 -138 -145 -250v-15q0 -87 78 -114q26 -9 58 -9q95 0 159 64q56 56 56 135z" />
    <glyph glyph-name="uni0195" unicode="&#x195;" horiz-adv-x="1490" 
d="M858 -18q-177 0 -224 84q-20 35 -20 86q0 85 67 288q62 190 72 250q5 30 5 53q0 40 -38 53q-10 3 -22 3q-84 0 -239 -188q-44 -53 -76 -101q-86 -128 -148 -353q1 4 -42 -157h-154l270 1026q56 201 56 234q0 63 -128 52q-2 0 -10 -1v32q168 20 322 56l10 -10l-242 -900
l5 -4q146 236 286 345q93 73 170 73q111 0 134 -97q6 -23 6 -50q0 -81 -62 -263q-59 -170 -69 -227q-5 -31 -5 -55q0 -85 71 -129q42 -27 97 -27q111 0 236 155q105 131 158 286q26 75 26 127q0 60 -53 104l-44 37q-22 22 -22 47q0 48 37 79q22 19 49 19q86 0 107 -102
q6 -26 6 -57q0 -183 -96 -380q-103 -210 -260 -313q-113 -75 -236 -75z" />
    <glyph glyph-name="uni0196" unicode="&#x196;" horiz-adv-x="569" 
d="M571 1389l-309 -1186q-19 -81 -20 -97q0 -40 30 -40q56 0 167 148q27 37 28 38l27 -19q-77 -116 -119 -160q-91 -96 -193 -96q-84 0 -96 86q-2 18 -2 41q0 47 190 744q37 133 45 166q28 84 55 204q7 32 7 42q0 58 -139 51v32q176 22 319 56z" />
    <glyph glyph-name="uni0197" unicode="&#x197;" horiz-adv-x="681" 
d="M786 1305q-85 -16 -113 -39q-30 -25 -53 -107l-2 -6l-124 -448h188l-27 -91h-186l-81 -264q-44 -157 -44 -235q0 -61 78 -75q6 -1 61 -7v-33h-499v33q85 15 113 40q28 26 53 111l118 430h-182l27 91h182l85 282q44 158 44 230q0 62 -74 79q-14 3 -69 9v32h505v-32z" />
    <glyph glyph-name="uni0198" unicode="&#x198;" horiz-adv-x="1622" 
d="M1661 1032q-51 0 -64 41q-4 11 -4 23q0 22 18 80q11 33 11 55q0 50 -61 65q-17 4 -35 4q-116 0 -275 -118l-540 -414l356 -621q41 -71 76 -90q27 -14 112 -23l11 -1v-33h-564v33l80 8q74 12 74 53q0 92 -308 589q-4 7 -5 9l-17 2l-104 -354q-47 -172 -47 -213
q0 -66 59 -83q11 -3 88 -11v-33h-508v33q87 15 114 37q28 23 50 100l4 14l252 906q23 77 23 127q0 67 -92 82q-12 2 -66 6v32h559v-32q-112 -12 -159 -60q-32 -34 -48 -92l-104 -385l12 -2l555 414q210 155 351 178q27 4 53 4q89 0 165 -61q82 -66 82 -154q0 -56 -43 -92
q-28 -23 -61 -23z" />
    <glyph glyph-name="uni0199" unicode="&#x199;" horiz-adv-x="909" 
d="M944 844q-112 -5 -343 -209l-118 -107l78 -192q108 -252 162 -252q46 0 100 94l25 45l31 -22q-62 -118 -106 -164q-58 -60 -122 -60q-98 0 -221 290q-35 82 -63 167l-86 -65l-99 -369h-153l231 877q137 512 414 512q89 0 142 -48q38 -34 38 -86q0 -45 -42 -69
q-20 -12 -42 -12q-51 0 -71 42q-7 16 -7 35q0 22 15 48q6 11 6 20q0 24 -47 24q-135 0 -215 -319l-148 -563l4 -4q214 164 294 241q81 77 81 107q0 41 -101 39h-12v33h375v-33z" />
    <glyph glyph-name="uni019A" unicode="&#x19a;" horiz-adv-x="569" 
d="M571 1389l-188 -721h168l-14 -84h-175l-92 -327q-28 -110 -28 -151q0 -40 30 -40q56 0 167 148q27 37 28 38l27 -19q-77 -116 -119 -160q-91 -96 -193 -96q-84 0 -96 86q-2 18 -2 41q0 33 123 480h-166l14 84h174q152 543 152 592q0 58 -139 51v32q176 22 319 56z" />
    <glyph glyph-name="uni019B" unicode="&#x19b;" horiz-adv-x="983" 
d="M973 258q-22 -123 -43 -171q-46 -107 -142 -107q-100 0 -126 133q-6 29 -13 110l-37 473h-4l-383 -696h-174l529 938l-11 102l-315 -192l16 88l291 178q-15 135 -103 142q-6 1 -12 1q-75 0 -122 -110h-37q35 233 170 254q13 2 26 2q98 0 127 -143q5 -21 15 -107l311 193
l-14 -89l-289 -180l74 -715q11 -98 17 -122q25 -103 95 -103q55 0 94 66q16 27 21 55h39z" />
    <glyph glyph-name="uni019C" unicode="&#x19c;" horiz-adv-x="1843" 
d="M1966 1315q-101 -5 -142 -56q-27 -32 -48 -106q-158 -516 -239 -841q-34 -137 -34 -169q0 -56 106 -56l42 1v-37q-151 -23 -387 -71l-9 4l129 460q-42 -108 -152 -241q-142 -173 -263 -213q-31 -10 -58 -10q-93 0 -135 65q-24 36 -24 84q0 54 71 275q8 24 13 38
q-158 -260 -309 -380q-102 -82 -187 -82q-90 0 -119 86q-10 30 -10 67q0 95 198 770q60 205 72 250q13 54 13 76q0 84 -156 86h-14v37h524v-37q-92 -7 -131 -66q-20 -31 -39 -96q-183 -633 -220 -774q-50 -186 -50 -217q0 -51 27 -61q9 -3 22 -3q57 0 207 189q65 83 96 133
q94 150 174 409q-4 -12 49 166l43 132q16 59 16 102q0 69 -84 83q-17 3 -36 3v37h475v-37q-94 -7 -133 -69q-19 -31 -37 -93q-273 -912 -273 -991q0 -52 29 -61q9 -3 21 -3q90 0 255 245l54 81q115 171 195 458q13 48 30 113l42 151q11 47 11 83q0 71 -90 84q-16 2 -33 2v37
h498v-37z" />
    <glyph glyph-name="uni019D" unicode="&#x19d;" horiz-adv-x="1595" 
d="M1716 1305q-107 -22 -151 -106q-20 -37 -48 -148q-8 -31 -14 -52l-295 -1030h-37l-466 1114h-9l-278 -1028q-76 -275 -185 -387q-91 -92 -210 -92q-93 0 -136 56q-24 31 -24 75q0 41 40 66q21 14 44 14q44 0 69 -35q13 -18 13 -39q0 -22 -19 -47q-8 -11 -8 -20
q0 -23 41 -23q85 0 181 163q63 107 87 196l330 1208q-36 79 -104 102q-29 10 -72 13v32h330l422 -1013h6l207 770l19 74q3 15 3 28q0 75 -56 95q-24 9 -87 14v32h407v-32z" />
    <glyph glyph-name="uni019E" unicode="&#x19e;" 
d="M905 768q0 -58 -91 -387q-9 -32 -13 -47q-74 -253 -142 -521q-24 -93 -24 -106q0 -30 26 -34q3 -1 7 -1q45 0 153 142l15 20l28 -27q-74 -100 -95 -123q-95 -108 -189 -108q-78 0 -94 64q-5 22 -5 57q0 51 155 609q5 16 7 24q68 252 71 264q25 104 25 139q0 66 -51 66
q-104 0 -274 -250q-13 -20 -27 -41q-90 -140 -166 -380q-8 -26 -39 -128h-153l151 538q49 183 49 216q-5 53 -131 53v33q156 28 332 63l6 -4l-131 -428l4 -4q172 273 301 372q84 64 154 64q116 0 137 -95q4 -18 4 -40z" />
    <glyph glyph-name="uni019F" unicode="&#x19f;" horiz-adv-x="1478" 
d="M1432 866q0 -233 -147 -462q-134 -208 -335 -328q-187 -113 -379 -113q-211 0 -335 152q-112 139 -113 350q0 211 140 437q129 209 319 336q188 126 374 126q226 0 356 -147q120 -136 120 -351zM1217 967q0 230 -139 301q-55 28 -130 28q-239 0 -416 -291
q-68 -111 -118 -251h774q29 125 29 213zM1165 668h-778q-49 -172 -49 -297q0 -203 106 -289q63 -51 160 -51q243 0 418 294q89 149 143 343z" />
    <glyph glyph-name="Ohorn" unicode="&#x1a0;" horiz-adv-x="1908" 
d="M1516 989q-60 0 -99 19q15 -88 15 -142q0 -233 -147 -462q-134 -208 -335 -328q-187 -113 -379 -113q-211 0 -335 152q-112 139 -113 350q0 211 140 437q129 209 319 336q188 126 374 126q205 0 331 -127q50 -50 95 -127q37 -63 146 -63q73 0 139 44q68 45 68 107
q0 21 -46 29q-68 11 -78 14q-50 17 -50 62q0 73 67 123q50 36 107 36q88 0 116 -74q11 -27 11 -61q0 -121 -95 -222q-90 -95 -209 -113q-21 -3 -42 -3zM1217 967q0 230 -139 301q-55 28 -130 28q-210 0 -379 -235q-134 -186 -198 -445q-33 -136 -33 -245q0 -203 106 -289
q63 -51 160 -51q211 0 381 237q134 189 198 451q34 138 34 248z" />
    <glyph glyph-name="ohorn" unicode="&#x1a1;" 
d="M1018 682q-34 0 -72 10q12 -34 12 -92q0 -162 -120 -331q-110 -156 -263 -236q-108 -56 -210 -56q-197 0 -272 131q-38 68 -38 164q0 174 121 345q111 158 271 235q106 51 210 51q123 0 197 -64l67 -63q46 -37 107 -37q68 0 135 42q72 45 72 106q0 26 -48 34l-70 12
q-54 15 -54 60q0 76 68 126q49 36 106 36q90 0 118 -76q9 -25 9 -57q0 -121 -95 -223q-90 -96 -209 -114q-21 -3 -42 -3zM786 664q0 112 -58 165q-34 31 -85 31q-145 0 -266 -188q-96 -149 -135 -336q-15 -71 -15 -125q0 -111 68 -161q39 -30 96 -30q144 0 259 193
q91 151 125 339q11 63 11 112z" />
    <glyph glyph-name="uni01A2" unicode="&#x1a2;" horiz-adv-x="1859" 
d="M1972 1219q0 -95 -198 -770q-60 -205 -72 -250q-12 -50 -12 -76q0 -84 153 -86h17v-37h-525v37q93 5 133 69q19 31 37 93l186 645q85 307 85 346q0 50 -27 60q-10 3 -23 3q-57 0 -213 -197q-57 -73 -86 -118q5 -42 5 -72q0 -233 -147 -462q-134 -208 -335 -328
q-187 -113 -379 -113q-211 0 -335 152q-112 139 -113 350q0 211 140 437q129 209 319 336q188 126 374 126q204 0 334 -125q94 -90 125 -227q174 260 326 334q54 26 102 26q89 0 118 -84q11 -31 11 -69zM1217 967q0 230 -139 301q-55 28 -130 28q-210 0 -379 -235
q-134 -186 -198 -445q-33 -136 -33 -245q0 -203 106 -289q63 -51 160 -51q211 0 381 237q134 189 198 451q34 138 34 248z" />
    <glyph glyph-name="uni01A3" unicode="&#x1a3;" horiz-adv-x="1478" 
d="M1372 768q0 -58 -91 -387q-9 -32 -13 -47q-74 -253 -142 -521q-24 -93 -24 -106q0 -30 26 -34q3 -1 7 -1q45 0 153 142l15 20l28 -27q-74 -100 -95 -123q-95 -108 -189 -108q-78 0 -94 64q-5 22 -5 57q0 51 155 609q5 16 7 24l72 271q24 99 24 132q0 66 -51 66
q-83 0 -201 -152q4 -14 4 -47q0 -162 -120 -331q-110 -156 -263 -236q-108 -56 -210 -56q-197 0 -272 131q-38 68 -38 164q0 174 121 345q111 158 271 235q106 51 210 51q193 0 266 -143q13 -25 21 -55q126 147 218 184q36 14 69 14q116 0 137 -95q4 -18 4 -40zM786 664
q0 112 -58 165q-34 31 -85 31q-145 0 -266 -188q-96 -149 -135 -336q-15 -71 -15 -125q0 -111 68 -161q39 -30 96 -30q144 0 259 193q91 151 125 339q11 63 11 112z" />
    <glyph glyph-name="uni01A4" unicode="&#x1a4;" horiz-adv-x="1581" 
d="M1569 1026q0 -201 -180 -311q-148 -89 -347 -90q-145 0 -217 16l-95 -321q-38 -140 -38 -199q0 -62 60 -77q8 -2 79 -11v-33h-501v33q86 13 113 37q29 24 52 105q2 4 3 9l258 930q18 74 18 100q0 43 -44 48h-44q-88 0 -192 -46q-131 -59 -149 -144q-3 -13 -3 -25
q0 -27 36 -64q36 -38 42 -61q2 -8 2 -17q0 -48 -45 -83q-29 -23 -60 -23q-64 0 -74 82q-1 12 -1 24q0 209 181 328q146 97 350 104h26h348q272 0 372 -138q50 -70 50 -173zM1358 1038q0 163 -115 212q-62 26 -172 26q-62 0 -80 -49l-2 -8l-145 -508q80 -11 82 -11h10
q223 0 319 75q103 80 103 263z" />
    <glyph glyph-name="uni01A5" unicode="&#x1a5;" 
d="M961 635q0 -168 -117 -344q-110 -164 -266 -250q-115 -64 -228 -64q-71 0 -139 35l-56 -203q-20 -82 -20 -133q0 -62 103 -65h28v-31h-420v33q78 0 107 42q15 22 31 79l301 1143q137 512 413 512q89 0 142 -47q39 -35 39 -87q0 -45 -42 -69q-20 -12 -42 -12q-51 0 -71 42
q-7 16 -7 35q0 22 14 48q6 11 6 20q0 24 -47 24q-121 0 -203 -278q-3 -10 -12 -41l-96 -338l4 -4q139 203 306 220q14 1 28 1q184 0 230 -160q14 -48 14 -108zM776 641q0 129 -68 161q-28 13 -67 13q-108 0 -202 -120q-41 -53 -66 -113q-51 -128 -101 -321
q-32 -122 -32 -169q0 -54 63 -71q18 -5 39 -5q156 0 282 178q101 142 138 325q14 67 14 122z" />
    <glyph glyph-name="uni01A6" unicode="&#x1a6;" horiz-adv-x="1251" 
d="M956 -377q-138 0 -214 66q-60 52 -60 135q0 58 35 176q33 112 33 172q0 116 -97 152q-34 13 -141 27q-59 8 -90 18l-45 -145q-15 -59 -15 -103q0 -62 60 -77q8 -2 80 -11v-33h-502v33q86 13 114 37q28 23 51 103q1 5 3 11l242 871q32 132 34 157q0 64 -69 81q-9 2 -76 12
v32h487v-32q-92 -14 -121 -63q-15 -26 -32 -112q-8 -41 -15 -69q198 0 289 -18q224 -46 253 -231q5 -29 5 -62q0 -178 -149 -292q-105 -80 -250 -102q162 -74 162 -229q0 -52 -20 -205q-11 -85 -11 -139q0 -85 39 -106q17 -9 41 -9q83 0 147 108l49 88q13 19 23 19
q21 0 21 -16q0 -78 -82 -156q-76 -73 -156 -86q-12 -2 -23 -2zM954 760q0 165 -117 214q-62 25 -169 25q-60 0 -78 -47l-4 -12l-146 -508q78 -10 92 -10q221 0 317 73q105 80 105 265z" />
    <glyph glyph-name="uni01A7" unicode="&#x1a7;" 
d="M266 213q0 -118 94 -160q40 -18 93 -18q124 0 250 101q118 94 162 216q14 36 18 70l45 4l-94 -457h-37l2 17q2 42 -42 50q-8 1 -16 1q-50 0 -159 -36q-117 -38 -181 -38q-165 0 -244 100q-53 67 -53 168q0 193 175 363q70 68 237 190q156 112 214 173q101 105 101 210
q0 93 -93 120q-29 9 -64 9q-197 0 -307 -184q-36 -60 -68 -147l-37 -7l62 408h47q9 -45 49 -52q9 -1 20 -1q33 0 132 26q99 25 167 25q131 0 203 -77q55 -59 55 -148q0 -163 -162 -318q-65 -62 -230 -182q-163 -119 -227 -187q-112 -118 -112 -239z" />
    <glyph glyph-name="uni01A8" unicode="&#x1a8;" horiz-adv-x="796" 
d="M678 299l-51 -326h-33q-4 43 -37 43q-35 0 -122 -23q-57 -16 -93 -16q-132 0 -197 71q-43 47 -43 118q0 125 127 262q24 26 132 129q104 98 132 159q15 34 15 66q0 74 -82 74q-136 0 -223 -155q-21 -37 -37 -80h-33l39 284h29q9 -37 47 -37q32 0 117 21q53 14 88 14
q146 0 181 -96q9 -27 9 -59q0 -107 -115 -236q-18 -20 -126 -129q-109 -110 -139 -180q-17 -40 -17 -78q0 -87 76 -102q14 -3 30 -3q146 0 253 198q18 34 40 81h33z" />
    <glyph glyph-name="uni01A9" unicode="&#x1a9;" horiz-adv-x="1345" 
d="M1409 1337l-63 -358h-35q2 14 2 41q0 134 -110 206q-78 50 -183 50h-344q-42 0 -65 -19q-11 -9 -11 -20q0 -35 342 -446q42 -51 62 -74l-699 -541h641q90 0 154 74q43 49 53 112h39l-90 -362h-1155l868 672l-530 665h1124z" />
    <glyph glyph-name="uni01AA" unicode="&#x1aa;" horiz-adv-x="876" 
d="M770 1092q0 -192 -81 -467q-10 -34 -52 -168q-89 -285 -104 -341q-60 -218 -60 -323q0 -83 39 -126q23 -24 55 -25l19 10q5 8 15 53q10 43 41 52q11 3 26 3q45 0 70 -42q12 -21 12 -44q0 -55 -58 -83q-30 -15 -63 -15q-142 0 -216 145q-51 100 -51 224q0 190 140 601
l96 277q-58 -24 -121 -24q-127 0 -213 90q-80 84 -80 203q0 126 90 212q84 80 203 80q127 0 213 -90q80 -84 80 -202zM690 1092q0 96 -69 163q-61 60 -144 60q-96 0 -160 -78q-53 -64 -53 -145q0 -96 68 -163q62 -61 145 -61q97 0 161 78q52 64 52 146z" />
    <glyph glyph-name="uni01AB" unicode="&#x1ab;" horiz-adv-x="569" 
d="M606 877l-10 -66h-172l-165 -620q-17 -70 -17 -78q0 -28 24 -34q4 -1 8 -1q44 0 164 162l27 -15q-65 -205 -120 -299q-113 -192 -312 -214q-28 -3 -58 -3q-95 0 -138 40q-23 21 -23 52q0 49 46 82q28 19 58 19q42 0 72 -48l29 -48q21 -27 49 -27q100 0 196 123
q70 89 94 180q-90 -105 -184 -105q-60 0 -86 41q-12 18 -12 41q0 22 38 156l9 33l147 563h-151l-2 11v1q10 32 60 52q43 16 50 20q74 37 172 139q32 33 52 60q15 22 27 24h7q14 3 17 -14q0 -32 -57 -217q-2 -6 -3 -10h164z" />
    <glyph glyph-name="uni01AC" unicode="&#x1ac;" horiz-adv-x="1138" 
d="M1296 1337l-90 -333l-35 4q7 36 7 79q0 135 -106 167q-49 15 -176 13q-28 -1 -44 -1l-285 -1020q-22 -81 -24 -105v-12q0 -72 70 -88q16 -3 100 -7q8 -1 14 -1v-33h-594v33q106 9 150 40q46 34 67 111l254 930q18 76 19 100q0 43 -43 48h-45q-89 0 -192 -46
q-131 -58 -150 -143q-3 -13 -3 -26q0 -27 36 -64q36 -38 42 -61q2 -8 2 -17q0 -48 -45 -83q-28 -23 -59 -23q-66 0 -75 83q-1 11 -1 23q0 209 181 328q146 97 350 104h26h649z" />
    <glyph glyph-name="uni01AD" unicode="&#x1ad;" horiz-adv-x="569" 
d="M887 1255q0 -45 -42 -69q-20 -12 -42 -12q-51 0 -71 42q-7 16 -7 35q0 23 15 50q5 10 5 18q0 23 -47 24q-131 0 -224 -342l-32 -124h164l-10 -66h-172l-165 -620q-17 -70 -17 -78q0 -28 24 -34q4 -1 8 -1q44 0 164 162l27 -15q-78 -117 -124 -164q-83 -84 -167 -84
q-60 0 -86 41q-12 18 -12 41q0 22 38 156l9 33l147 563h-151l-2 11v1q6 23 91 69q83 44 101 60q75 262 215 372q83 65 183 65q88 0 140 -47q40 -35 40 -87z" />
    <glyph glyph-name="uni01AE" unicode="&#x1ae;" horiz-adv-x="1138" 
d="M1296 1337l-90 -333l-35 4q7 36 7 79q0 135 -106 167q-49 15 -176 13q-28 -1 -44 -1l-334 -1190q-45 -163 -52 -200q-13 -64 -13 -112q0 -82 43 -109q13 -8 30 -9l17 10q5 15 2 39q0 41 40 59q15 6 31 6q52 0 76 -42q10 -18 10 -40q0 -58 -54 -87q-27 -15 -58 -15
q-134 0 -213 141q-60 109 -60 238q0 128 45 287l283 1024q-174 0 -236 -13q-105 -22 -173 -107q-39 -50 -78 -132l-37 8l86 315h1089z" />
    <glyph glyph-name="Uhorn" unicode="&#x1af;" horiz-adv-x="1941" 
d="M1556 987q-98 0 -155 63q-13 15 -23 33l-194 -667q-86 -291 -270 -392q-112 -61 -269 -61q-166 0 -289 81q-147 97 -147 265q0 133 121 548q33 114 39 136l41 158q10 45 10 66q0 64 -69 79q-8 2 -85 8q-3 1 -6 1v32h559v-32q-103 -11 -144 -47q-39 -33 -63 -113
q-107 -342 -179 -636q-40 -165 -40 -214q0 -142 117 -208q71 -40 168 -40q242 0 364 241q42 82 76 206q187 651 187 706q0 77 -76 96q-25 6 -70 9v32h338v-32q-38 -18 -66 -63q-18 -27 -18 -48q0 -85 68 -127q37 -23 86 -23q65 0 133 41q74 45 74 105q0 27 -48 36l-71 12
q-53 15 -53 60q0 77 68 126q48 36 106 36q90 0 118 -76q9 -25 9 -57q0 -121 -94 -222q-90 -97 -210 -115q-22 -3 -43 -3z" />
    <glyph glyph-name="uhorn" unicode="&#x1b0;" horiz-adv-x="1476" 
d="M1096 682q-103 0 -159 68q-8 11 -15 22l-131 -500q-33 -118 -37 -137q-2 -15 -2 -24q0 -33 24 -33q48 0 168 162l29 -19q-71 -103 -89 -124q-94 -115 -196 -115q-96 0 -96 106q0 74 82 357q3 11 6 20h-6q-102 -172 -147 -236q-177 -252 -328 -252q-94 0 -110 80
q-3 18 -3 41q0 84 73 322q68 223 79 291q4 28 4 49q0 54 -64 59h-59v29q153 18 307 55l6 -4l-161 -634q-27 -114 -27 -128q0 -45 36 -50q4 -1 9 -1q89 0 272 277l14 22q92 139 184 386q3 8 42 114h149q2 -87 73 -126q36 -20 83 -20q68 0 135 42q72 45 72 106q0 26 -48 34
l-70 12q-54 15 -54 60q0 76 68 126q49 36 106 36q90 0 118 -76q9 -25 9 -57q0 -121 -95 -223q-90 -96 -209 -114q-21 -3 -42 -3z" />
    <glyph glyph-name="uni01B1" unicode="&#x1b1;" horiz-adv-x="1529" 
d="M1642 1337l-55 -315h-41l2 18q4 59 -40 95q-28 22 -64 22h-320l-20 -117q182 0 303 -122q117 -117 126 -294q1 -13 1 -26q0 -312 -247 -486q-199 -140 -503 -157q-36 -2 -73 -2q-264 0 -423 106q-167 111 -167 318q0 205 124 384q118 170 296 240q98 39 202 39l21 117
h-332q-72 0 -114 -69q-20 -32 -25 -70h-41l55 319h561l-61 -346q-203 -55 -332 -215q-135 -167 -135 -381q0 -179 111 -288q103 -101 266 -101q206 0 370 132q154 123 206 309q22 77 22 157q0 173 -120 287q-72 69 -175 100l61 346h561z" />
    <glyph glyph-name="uni01B2" unicode="&#x1b2;" horiz-adv-x="1546" 
d="M592 -29q-366 0 -395 273q-2 22 -2 47q0 93 30 203l170 639q17 68 17 98q0 71 -93 83q-17 2 -59 3l10 39h394l-240 -899q-27 -108 -27 -168q0 -228 277 -228q214 0 410 163q171 141 260 347q65 148 65 289q0 179 -104 228q-33 16 -122 27q-76 11 -100 36t-24 72
q0 59 58 95q34 21 73 21q127 0 219 -148q73 -117 87 -254q3 -23 3 -44q0 -279 -164 -517q-147 -215 -378 -323q-176 -82 -365 -82z" />
    <glyph glyph-name="uni01B3" unicode="&#x1b3;" horiz-adv-x="1302" 
d="M1460 1305q-62 -31 -114 -90q-9 -11 -29 -35l-449 -553l-97 -328q-38 -137 -38 -178q0 -71 88 -83q6 -1 90 -5h4v-33h-591v33q105 9 147 39q45 33 68 112l125 434l-111 388q-93 317 -221 317q-25 0 -35 -47l-16 -72q-21 -69 -84 -69q-58 0 -82 52q-9 20 -9 44
q0 97 119 130q46 13 99 13q236 0 359 -223q59 -106 117 -328q25 -97 29 -112l209 250q176 218 176 274q0 55 -84 65l-57 5v32h387v-32z" />
    <glyph glyph-name="uni01B4" unicode="&#x1b4;" horiz-adv-x="1124" 
d="M1204 748q0 -46 -42 -70q-20 -12 -42 -12q-51 0 -71 42q-7 16 -7 35q0 22 15 48q6 11 6 20q0 25 -47 25q-95 0 -157 -162q-5 -13 -11 -31q-54 -146 -202 -402q-229 -399 -411 -567q-105 -96 -180 -96q-66 0 -93 47q-11 20 -11 45q0 46 40 68q18 10 38 10q33 0 77 -33
q32 -24 48 -24q42 0 136 106q92 103 122 177q8 20 8 32q0 101 -93 449q-17 60 -28 98l-35 119q-45 131 -128 151q-17 4 -36 4q-40 0 -69 -8v35l201 41q53 8 94 8q10 0 22 -31q102 -212 149 -470q2 -9 3 -17l41 -238q129 209 301 601l4 8q35 80 109 111q34 14 69 14
q89 0 142 -47q38 -35 38 -86z" />
    <glyph glyph-name="uni01B5" unicode="&#x1b5;" horiz-adv-x="1138" 
d="M1241 1309l-444 -555h149l-24 -86h-195l-475 -594h330q190 0 274 28q107 35 181 145q29 43 57 103l39 -6l-111 -344h-1034v29l508 639h-152l14 86h205l406 510h-351q-170 0 -248 -33q-87 -38 -152 -150q-14 -24 -28 -53l-38 10l94 299h995v-28z" />
    <glyph glyph-name="uni01B6" unicode="&#x1b6;" horiz-adv-x="796" 
d="M778 854l-295 -350h191l-15 -84h-247l-228 -270q123 -26 214 -129l81 -95q46 -49 94 -49q58 0 58 33q0 7 -16 42q-13 26 -13 48q0 46 46 59q12 4 26 4q47 0 64 -44q5 -15 5 -31q0 -75 -79 -122q-54 -32 -113 -32q-76 0 -192 68q-113 66 -119 69q-76 39 -134 39
q-49 0 -92 -37l-18 19l356 428h-188l14 84h244l209 250h-299q-83 0 -117 -34q-24 -24 -49 -87l-33 8l64 236h581v-23z" />
    <glyph glyph-name="uni01B7" unicode="&#x1b7;" horiz-adv-x="1138" 
d="M356 61q163 0 272 119t115 298v18q0 111 -92 149q-61 25 -172 25l451 630h-301q-178 0 -310 -242q-25 -48 -51 -110h-51l162 436h813l-438 -604q150 0 193 -140q14 -46 14 -103q0 -161 -103 -311q-109 -160 -278 -223q-87 -32 -181 -32q-250 0 -396 135q-59 54 -93 125
l45 37q119 -152 264 -191q62 -16 137 -16z" />
    <glyph glyph-name="uni01B8" unicode="&#x1b8;" horiz-adv-x="1138" 
d="M401 780q-152 0 -271 -146q-97 -118 -126 -268q-8 -44 -8 -83q0 -161 113 -246q87 -66 217 -66q267 0 496 153q71 48 132 107l-28 37q-216 -164 -396 -197q-56 -10 -116 -10q-110 0 -173 63q-51 50 -51 130q0 39 11 82q48 176 126 248q93 86 291 86l-114 630h301
q157 0 177 -191q3 -25 3 -54q0 -61 -8 -107h51l72 436h-813z" />
    <glyph glyph-name="uni01B9" unicode="&#x1b9;" horiz-adv-x="796" 
d="M-41 -207q0 79 52 188q93 194 281 287q78 38 169 56l-127 430h299q78 0 95 -31q9 -16 9 -43q0 -11 -4 -47l37 8l64 236h-582l-12 -23l131 -424q-253 -52 -405 -247q-104 -133 -123 -278q-3 -24 -3 -46q0 -150 123 -228q92 -59 232 -59q210 0 286 101q25 33 25 61
q0 39 -66 39q-45 0 -144 -51q-106 -55 -152 -66q-24 -6 -46 -6q-119 0 -136 108q-3 17 -3 35z" />
    <glyph glyph-name="uni01BA" unicode="&#x1ba;" horiz-adv-x="796" 
d="M778 813l-407 -330l4 -4q40 13 96 13q120 0 182 -70q43 -48 43 -119q0 -141 -149 -244q-53 -36 -200 -108q-132 -65 -177 -110q-43 -45 -43 -97q0 -61 56 -101q36 -26 77 -26q106 0 150 69l39 71q21 30 57 30q42 0 63 -37q9 -17 9 -35q0 -71 -149 -112q-84 -23 -150 -23
q-134 0 -211 65q-62 53 -62 138q0 135 138 233q43 30 172 97q116 60 152 104q28 34 28 74q0 52 -73 80q-37 14 -71 14q-109 0 -231 -92l-17 35l527 426h-299q-82 0 -117 -35q-25 -24 -49 -86l-33 8l64 236h581v-64z" />
    <glyph glyph-name="uni01BB" unicode="&#x1bb;" 
d="M1098 723l-17 -90h-262q-119 -124 -374 -342q-109 -93 -156 -135h489q90 0 149 55q23 21 70 80l25 -10l-162 -281h-799l5 25l317 274q226 201 322 334h-193l16 90h240q96 149 96 278q0 161 -129 212q-51 20 -119 20q-142 0 -248 -129q-37 -45 -92 -137l-40 10
q86 233 256 338q112 69 249 69q142 0 231 -91q81 -83 81 -208q0 -179 -154 -362h199z" />
    <glyph glyph-name="uni01BC" unicode="&#x1bc;" horiz-adv-x="1259" 
d="M1309 1337l-70 -293h-51q2 21 2 60q0 121 -106 148q-45 11 -168 8h-35q-50 0 -66 -21q-9 -14 -18 -49l-88 -338h116q160 0 264 -90q103 -90 103 -234q0 -193 -149 -348q-130 -136 -316 -186q-67 -18 -133 -21q-31 -2 -90 -2q-235 0 -384 140q-59 55 -112 137l74 53
q104 -165 273 -212q59 -17 122 -17q158 0 296 101q137 100 178 246q14 51 14 103q0 189 -190 235q-79 19 -256 17h-40l74 259q29 112 29 173q0 69 -76 85q-20 4 -70 7l10 39h863z" />
    <glyph glyph-name="uni01BD" unicode="&#x1bd;" horiz-adv-x="899" 
d="M911 907l-47 -145h-471l-80 -180q309 -63 408 -272q43 -90 43 -204q0 -227 -166 -374q-145 -128 -361 -152q-40 -4 -81 -4q-120 0 -176 46q-33 28 -33 69q0 55 44 76q17 8 38 8q43 0 104 -45q63 -45 90 -56q30 -12 60 -12q137 0 237 104q94 98 102 232q1 11 1 22
q0 206 -128 299q-80 57 -260 98q-25 5 -61 13v31l213 446h524z" />
    <glyph glyph-name="uni01BE" unicode="&#x1be;" horiz-adv-x="796" 
d="M623 252q0 -156 -122 -229q-77 -46 -184 -46q-33 0 -114 23q-55 16 -88 16q-28 0 -47 -39l-2 -4h-33l41 326h32q34 -218 142 -265q32 -14 71 -14q91 0 130 79q18 39 18 87q0 63 -82 180l-93 133q-69 106 -69 177q0 37 24 124q2 6 3 11h-152l-2 11v1q10 32 61 52
q43 16 50 20q36 19 171 159q63 65 68 64q14 3 17 -14q0 -32 -57 -217q-2 -6 -3 -10h164l-10 -66h-172q-12 -37 -12 -74q0 -58 78 -165l94 -126q78 -113 78 -194z" />
    <glyph glyph-name="uni01BF" unicode="&#x1bf;" 
d="M961 635q0 -325 -323 -565q-196 -145 -470 -232l-27 -109q-6 -30 -6 -53q0 -63 112 -65h19v-31h-420v33q80 0 109 44q15 23 29 77l208 777q56 220 56 257q0 69 -133 57l-4 33l317 45q6 0 8 -10q0 -17 -54 -197q-2 -6 -3 -10l4 -4q139 203 306 220q14 1 28 1
q184 0 230 -160q14 -48 14 -108zM776 641q0 129 -68 161q-28 13 -67 13q-108 0 -202 -120q-41 -53 -66 -113q-69 -170 -148 -508q-37 -159 -45 -191q251 86 412 274q184 214 184 484z" />
    <glyph glyph-name="uni01C0" unicode="&#x1c0;" horiz-adv-x="563" 
d="M276 -221h-102l369 1478h102z" />
    <glyph glyph-name="uni01C1" unicode="&#x1c1;" 
d="M542 -221h-102l369 1478h102zM276 -221h-102l369 1478h102z" />
    <glyph glyph-name="uni01C2" unicode="&#x1c2;" horiz-adv-x="1228" 
d="M1196 770l-27 -102h-467l-73 -299h467l-27 -103h-467l-121 -487h-102l121 487h-467l26 103h467l74 299h-467l27 102h467l121 487h102l-121 -487h467z" />
    <glyph glyph-name="uni01C3" unicode="&#x1c3;" horiz-adv-x="681" 
d="M246 371q44 205 135 682q40 207 67 259q25 49 73 53q7 1 16 1q75 0 81 -91v-13q0 -62 -28 -132l-139 -326q-79 -195 -170 -442zM186 195q56 0 90 -48q21 -29 21 -63q0 -54 -48 -87q-29 -20 -65 -20q-58 0 -88 50q-16 27 -16 61q0 51 45 85q28 22 61 22z" />
    <glyph glyph-name="uni01C4" unicode="&#x1c4;" horiz-adv-x="2617" 
d="M2097 1264q-276 0 -370 -126q-20 -26 -51 -96l-7 -14l-38 10l94 299h995v-28l-989 -1235h330q249 0 354 64q65 40 117 134q13 23 41 78l39 -6l-111 -344h-1034v29l981 1235h-351zM2599 1788l-333 -346h-95l-196 346h76l184 -215l291 215h73zM1434 786q0 -272 -174 -476
q-175 -205 -472 -277q-135 -33 -286 -33h-518v33q84 15 109 34q30 23 52 100q2 8 5 17l251 906q23 78 23 131q0 43 -36 60q-32 15 -122 24v32h570q277 0 440 -153q158 -150 158 -398zM1206 836q0 250 -154 361q-108 79 -286 79q-88 0 -112 -30q-8 -11 -13 -29l-248 -885
q-45 -158 -45 -195q0 -58 70 -71q26 -5 63 -5q294 0 488 176q190 173 228 465q9 65 9 134z" />
    <glyph glyph-name="uni01C5" unicode="&#x1c5;" horiz-adv-x="2275" 
d="M2030 -166q-76 0 -195 69q-113 66 -122 71q-72 36 -125 36q-50 0 -95 -37l-18 19l635 762h-299q-77 0 -109 -27q-27 -23 -57 -94l-33 8l64 236h581v-23l-594 -704q137 -31 219 -130l71 -94q43 -49 101 -49q48 0 55 25q1 3 1 6q0 6 -16 42q-13 28 -13 50q0 43 41 58
q13 5 29 5q50 0 66 -44q5 -13 5 -29q0 -67 -66 -115q-56 -41 -126 -41zM2367 1354l-333 -346h-95l-196 346h76l184 -215l291 215h73zM1434 786q0 -272 -174 -476q-175 -205 -472 -277q-135 -33 -286 -33h-518v33q84 15 109 34q30 23 52 100q2 8 5 17l251 906q23 78 23 131
q0 43 -36 60q-32 15 -122 24v32h570q277 0 440 -153q158 -150 158 -398zM1206 836q0 250 -154 361q-108 79 -286 79q-88 0 -112 -30q-8 -11 -13 -29l-248 -885q-45 -158 -45 -195q0 -58 70 -71q26 -5 63 -5q294 0 488 176q190 173 228 465q9 65 9 134z" />
    <glyph glyph-name="uni01C6" unicode="&#x1c6;" horiz-adv-x="1820" 
d="M1575 -166q-76 0 -195 69q-113 66 -122 71q-72 36 -125 36q-50 0 -95 -37l-18 19l635 762h-299q-77 0 -109 -27q-27 -23 -57 -94l-33 8l64 236h581v-23l-594 -704q137 -31 219 -130l71 -94q43 -49 101 -49q48 0 55 25q1 3 1 6q0 6 -16 42q-13 28 -13 50q0 43 41 58
q13 5 29 5q50 0 66 -44q5 -13 5 -29q0 -67 -66 -115q-56 -41 -126 -41zM1912 1354l-333 -346h-95l-196 346h76l184 -215l291 215h73zM948 227l25 -20q-148 -207 -271 -231q-14 -3 -28 -3q-57 0 -78 51q-8 19 -8 42q0 57 25 177q0 2 1 5q-117 -173 -207 -228
q-70 -43 -161 -43q-129 0 -184 100q-31 56 -31 134q0 174 125 364q109 165 257 257q114 71 216 71q82 0 113 -57q12 -24 20 -62l90 336q31 115 31 144q0 32 -20 41q-21 9 -107 12v35q162 15 313 47l10 -10q-136 -538 -202 -762q-106 -352 -131 -484q-3 -15 -3 -20
q0 -29 24 -39q7 -2 13 -2q30 0 66 34q30 28 102 111zM729 739q0 117 -100 117q-108 0 -225 -144q-111 -138 -165 -319q-30 -100 -30 -182t57 -118q27 -17 62 -17q106 0 214 133q112 139 162 335q25 101 25 195z" />
    <glyph glyph-name="uni01C7" unicode="&#x1c7;" horiz-adv-x="2048" 
d="M2145 1337v-32q-85 -12 -111 -33q-29 -22 -51 -99q-3 -9 -6 -20l-211 -760q-35 -124 -58 -177q-111 -253 -342 -253q-134 0 -200 75q-39 45 -39 105q0 71 50 100q20 11 44 11q49 0 80 -43q18 -25 18 -53l-2 -48v-1q0 -82 72 -82q56 0 84 63q8 20 16 47l268 953
q25 84 25 131q0 43 -34 60q-32 15 -124 24v32h521zM553 74q217 0 314 38q98 39 169 145q32 48 68 122l41 -12l-119 -367h-1042v33q84 15 109 34q30 23 52 100q2 8 5 17l251 906q23 78 23 127q0 46 -35 63q-31 16 -123 25v32h559v-32q-118 -9 -166 -66q-26 -31 -41 -86
l-251 -907q-21 -74 -21 -103q0 -43 54 -57q46 -12 153 -12z" />
    <glyph glyph-name="uni01C8" unicode="&#x1c8;" horiz-adv-x="1708" 
d="M1362 819h-73v33q79 3 348 51l6 -4l-213 -842q-102 -404 -299 -468q-40 -13 -84 -13q-92 0 -138 57q-24 30 -24 68q0 52 42 76q18 10 40 10q51 0 74 -40q10 -16 10 -36q0 -22 -18 -45q-9 -11 -9 -20q0 -23 37 -23q61 0 104 81q42 79 95 290l147 598q33 126 33 164
q0 62 -78 63zM1602 1339q51 0 83 -48q19 -30 19 -64q0 -56 -46 -87q-25 -18 -54 -18q-64 0 -88 57q-10 23 -10 52q0 65 48 95q22 13 48 13zM553 74q217 0 314 38q98 39 169 145q32 48 68 122l41 -12l-119 -367h-1042v33q84 15 109 34q30 23 52 100q2 8 5 17l251 906
q23 78 23 127q0 46 -35 63q-31 16 -123 25v32h559v-32q-118 -9 -166 -66q-26 -31 -41 -86l-251 -907q-21 -74 -21 -103q0 -43 54 -57q46 -12 153 -12z" />
    <glyph glyph-name="uni01C9" unicode="&#x1c9;" horiz-adv-x="1138" 
d="M792 819h-73v33q79 3 348 51l6 -4l-213 -842q-102 -404 -299 -468q-40 -13 -84 -13q-92 0 -138 57q-24 30 -24 68q0 52 42 76q18 10 40 10q51 0 74 -40q10 -16 10 -36q0 -22 -18 -45q-9 -11 -9 -20q0 -23 37 -23q61 0 104 81q42 79 95 290l147 598q33 126 33 164
q0 62 -78 63zM1032 1339q51 0 83 -48q19 -30 19 -64q0 -56 -46 -87q-25 -18 -54 -18q-64 0 -88 57q-10 23 -10 52q0 65 48 95q22 13 48 13zM270 66q33 0 65 30q27 26 132 156l27 -19q-115 -168 -188 -218q-56 -38 -124 -38q-87 0 -98 89q-2 13 -2 26q0 16 10 53l281 1082
q8 24 8 37q0 45 -127 47h-12v32q155 19 319 56l10 -10l-309 -1186q-7 -15 -19 -78q-3 -16 -3 -23q0 -36 30 -36z" />
    </font>
</defs>
</svg>
