<?xml version="1.0" standalone="no"?>
<!DOCTYPE svg PUBLIC "-//W3C//DTD SVG 1.1//EN" "http://www.w3.org/Graphics/SVG/1.1/DTD/svg11.dtd" >
<svg>
<metadata>
Created by FontForge 20110222 at Thu Mar  1 08:40:08 2012
 By Stefan Warting
(c) by Feedel, P. O. Box 88-1332, Los Angeles, CA 90009, Tel. 
</metadata>
<defs>
<font id="GeezNewA" horiz-adv-x="548" >
  <font-face 
    font-family="GeezNewA"
    font-weight="400"
    font-stretch="normal"
    units-per-em="1000"
    panose-1="0 0 4 0 0 0 0 0 0 0"
    ascent="800"
    descent="-200"
    bbox="-692 -178 1313.11 897"
    underline-thickness="20"
    underline-position="-123"
    unicode-range="U+F020-F0FF"
  />
<missing-glyph horiz-adv-x="500" 
d="M63 0v800h375v-800h-375zM125 63h250v675h-250v-675z" />
    <glyph glyph-name=".notdef" horiz-adv-x="500" 
d="M63 0v800h375v-800h-375zM125 63h250v675h-250v-675z" />
    <glyph glyph-name=".null" horiz-adv-x="0" 
 />
    <glyph glyph-name="nonmarkingreturn" horiz-adv-x="375" 
 />
    <glyph glyph-name="space" unicode="&#xf020;" horiz-adv-x="375" 
 />
    <glyph glyph-name="exclam" unicode="&#xf021;" horiz-adv-x="266" 
d="M138 5q-22 -1 -35 12.5t-13 33.5q0 42 43 44q22 1 35 -12.5t13 -33.5q0 -42 -43 -44zM80 602q1 21 16.5 34.5t36.5 13.5t36.5 -13.5t16.5 -34.5l-28 -427h-40z" />
    <glyph glyph-name="quotedbl" unicode="&#xf022;" horiz-adv-x="321" 
d="M90 531l131 24q24 -28 24 -60q0 -34 -24 -63l-131 -24q32 29 32 63q0 32 -32 60zM90 219l131 24q24 -28 24 -60q0 -34 -24 -63l-131 -24q32 29 32 63q0 32 -32 60z" />
    <glyph glyph-name="numbersign" unicode="&#xf023;" horiz-adv-x="204" 
d="M-191 283h175q2 22 44 37q38 15 81 15q29 0 44 -8q-15 -35 -15 -67q0 -37 23 -80q-31 -5 -59 -5q-56 0 -87 22t-31 58q0 7 1 13h-182z" />
    <glyph glyph-name="dollar" unicode="&#xf024;" 
d="M251 414v224q-101 -11 -108 -96q-4 -42 33 -77q22 -21 75 -51zM289 285v-234q123 13 123 102q0 37 -43 76q-18 15 -80 56zM251 735h38v-60q59 -4 109 -28q38 -19 54 -41q1 -134 0 -131h-21q0 160 -135 164h-7v-247l3 -2q132 -88 141 -96q69 -56 69 -111q0 -83 -69 -133
q-58 -42 -144 -49v-74h-38v73q-65 2 -114 26q-22 10 -83 54v146h22q0 -91 60 -138q47 -37 115 -39v261q-96 61 -127 89q-67 60 -67 121q0 66 63 110q55 38 131 44v61z" />
    <glyph glyph-name="percent" unicode="&#xf025;" horiz-adv-x="27" 
d="M-437 203h175q2 21 44 37q38 14 81 14q28 0 44 -7q-15 -36 -15 -67q0 -38 23 -80q-31 -6 -59 -6q-56 0 -87 22.5t-31 58.5q0 6 1 13h-182z" />
    <glyph glyph-name="ampersand" unicode="&#xf026;" horiz-adv-x="225" 
d="M-179 14h165q2 22 44 37q38 14 81 14q29 0 44 -7q-15 -35 -15 -67q0 -37 23 -80q-31 -6 -59 -6q-56 0 -87 22.5t-31 58.5q0 6 1 13h-172z" />
    <glyph glyph-name="quotesingle" unicode="&#xf027;" horiz-adv-x="226" 
d="M70 641q-3 18 12 31t34 13q19 1 30.5 -15t9.5 -29l-33 -196h-19z" />
    <glyph glyph-name="parenleft" unicode="&#xf028;" horiz-adv-x="335" 
d="M305 661q-99 -84 -134 -169q-39 -93 -37 -261q3 -158 55 -254q28 -52 115 -139l-12 -16q-103 63 -171 176q-71 116 -71 233q0 295 245 446z" />
    <glyph glyph-name="parenright" unicode="&#xf029;" horiz-adv-x="335" 
d="M30 661q99 -84 134 -169q39 -93 36 -261q-2 -158 -55 -254q-28 -52 -114 -139l11 -16q104 63 173.5 177.5t69.5 231.5q0 295 -245 446z" />
    <glyph glyph-name="asterisk" unicode="&#xf02a;" horiz-adv-x="31" 
d="M-404 15h175q2 22 44 37q38 14 81 14q29 0 44 -7q-15 -35 -15 -67q0 -37 23 -80q-31 -6 -59 -6q-56 0 -87 22.5t-31 58.5q0 6 1 13h-182z" />
    <glyph glyph-name="plus" unicode="&#xf02b;" horiz-adv-x="212" 
d="M-156 181l157 20q15 2 28 2q58 0 87 -34q24 -28 24 -72q1 -97 -100 -97h-228l-1 17h74q132 0 132 81q0 38 -42 59q-36 18 -73 13l-56 -8z" />
    <glyph glyph-name="comma" unicode="&#xf02c;" horiz-adv-x="23" 
d="M-404 183l138 18q15 2 29 2q57 0 86 -34q23 -28 24 -72q1 -97 -100 -97h-167v18l12 -1q12 -1 24 -1q108 0 108 82q0 34 -34 55q-29 18 -65 18q-9 0 -16 -1l-39 -7v20z" />
    <glyph glyph-name="hyphen" unicode="&#xf02d;" horiz-adv-x="460" 
d="M60 348h340v-38h-340v38z" />
    <glyph glyph-name="period" unicode="&#xf02e;" horiz-adv-x="331" 
d="M79 78q0 32 23 54.5t54 22.5q32 0 54.5 -22.5t22.5 -54.5q0 -31 -22.5 -54t-54.5 -23q-31 0 -54 23t-23 54z" />
    <glyph glyph-name="slash" unicode="&#xf02f;" horiz-adv-x="298" 
d="M241 682h61l-251 -789h-63z" />
    <glyph glyph-name="zero" unicode="&#xf030;" 
d="M475 346q0 -141 -44 -233q-59 -128 -190 -128q-122 0 -177 132q-39 94 -39 233q0 131 53 221q62 105 174 105q110 0 171 -109q52 -93 52 -221zM380 347q0 303 -127 303q-132 0 -132 -300q0 -342 130 -338q79 3 108 102q21 71 21 233z" />
    <glyph glyph-name="one" unicode="&#xf031;" 
d="M394 0h-275v14q55 3 75 17t20 53v443q0 61 -32 61q-10 0 -24 -5q-23 -8 -47 -17v14l188 96v-592q0 -47 31 -60q12 -5 64 -10v-14z" />
    <glyph glyph-name="two" unicode="&#xf032;" 
d="M504 136l-56 -136h-390v13l186 194q56 58 90 129.5t34 129.5q0 59 -37.5 97.5t-97.5 38.5q-31 0 -60 -11q-73 -27 -90 -117l-23 5q13 95 78 148q59 49 136 49q30 0 59 -9q44 -13 81 -57q40 -49 40 -105q0 -77 -52 -158q-31 -47 -96 -116q-47 -48 -148 -154h230
q42 0 61 13q15 10 42 52z" />
    <glyph glyph-name="three" unicode="&#xf033;" 
d="M426 165q-22 -115 -165 -166q-36 -13 -101 -13q-116 0 -116 53q0 37 39 37q21 0 36 -8q27 -17 55 -34q23 -13 48 -13q8 0 17 1q64 7 98 61q29 46 23 94q-10 82 -46 113q-45 40 -161 41v13q76 20 136 80q30 31 30 83q0 43 -23 72q-27 34 -76 38q-99 7 -160 -105l-15 5
q36 99 99 135q43 24 114 24q54 0 97.5 -38t43.5 -92q0 -77 -93 -145q125 -48 125 -184q0 -26 -5 -52z" />
    <glyph glyph-name="four" unicode="&#xf034;" 
d="M472 167h-103v-174h-76v174h-281v63l312 445h45v-445h103v-63zM293 231v340l-240 -340h240z" />
    <glyph glyph-name="five" unicode="&#xf035;" 
d="M438 680l-47 -98h-209l-42 -84q130 -22 188 -60q90 -60 97 -191q5 -101 -54 -173q-62 -76 -169 -86q-20 -2 -40 -2q-110 0 -128 40q-4 9 -4 17q0 16 12 27.5t28 13.5q37 4 76 -29t70 -33q73 0 110 63q31 51 30 125q-1 90 -89 146q-75 48 -179 54q-23 1 -23 11q0 4 8 21
l1 2l101 218h189q47 0 67 27z" />
    <glyph glyph-name="six" unicode="&#xf036;" 
d="M470 233q0 -118 -67 -187q-58 -61 -139 -61q-108 0 -171 89q-57 80 -57 201q0 177 118 290q113 108 291 117l5 -18q-97 -12 -181 -79q-100 -80 -118 -200q66 48 151 42q86 -5 134 -82q34 -57 34 -112zM287 14q44 1 70 50q23 45 23 112q0 77 -29 134q-33 64 -87 71
q-29 3 -69 -8q-52 -14 -58 -43q-10 -45 -10 -92q0 -94 37 -155q42 -71 123 -69z" />
    <glyph glyph-name="seven" unicode="&#xf037;" 
d="M453 662l-218 -677h-64l199 604h-203q-78 -2 -107 -47l-23 -37l-17 11l58 146h375z" />
    <glyph glyph-name="eight" unicode="&#xf038;" 
d="M442 149q0 -66 -57 -114.5t-135 -48.5q-84 0 -137 41q-60 46 -60 128q0 87 131 177q-75 69 -86 82q-37 46 -39 99q-2 72 55 119q54 44 128 44q90 0 137 -44q42 -39 42 -105q0 -88 -133 -156q80 -59 110 -98q44 -55 44 -124zM352 544q-1 36 -23 66q-30 40 -86 40
q-59 0 -88 -38q-21 -28 -21 -62q0 -54 46 -100q21 -22 79 -60q97 61 93 154zM367 122q9 91 -157 189q-81 -52 -81 -148q0 -68 33.5 -110t89.5 -42q103 0 115 111z" />
    <glyph glyph-name="nine" unicode="&#xf039;" 
d="M458 389q-1 -169 -144 -309q-48 -47 -109 -70q-56 -22 -146 -33l-2 21q61 12 93 27q38 16 83 53q42 35 83 106q36 66 42 107q-34 -21 -54 -31q-41 -20 -69 -23q-11 -1 -22 -1q-75 0 -127 52q-56 56 -56 149q0 102 54 167q57 69 155 72q102 2 164 -86q56 -81 55 -201z
M360 329q3 33 3 70q0 240 -122 249q-118 9 -118 -186q0 -84 36.5 -133.5t91.5 -49.5t109 50z" />
    <glyph glyph-name="colon" unicode="&#xf03a;" horiz-adv-x="330" 
d="M115 367q48 14 81 14q85 0 83 -101q-1 -55 -42 -75q-20 -10 -94 -19q-79 -31 -101 -31q-30 0 -46 24q-11 16 -22 56q-6 20 3 89q-11 0 -116 -20l-2 16zM171 258q0 35 -15 65.5t-36 30.5q-34 0 -34 -53q0 -16 5 -47q3 -17 13 -32q13 -21 31 -21q36 0 36 57z" />
    <glyph glyph-name="semicolon" unicode="&#xf03b;" horiz-adv-x="117" 
d="M116 10q-17 -39 -17 -74q0 -52 33 -84q-5 0 -34 -2q-22 -2 -37 -2q-106 0 -106 97q0 21 4 46h-222q2 -11 2 -21q0 -58 -50 -92q-40 -27 -87 -27q-16 0 -25 4q1 6 17 39q14 30 14 52q0 33 -27 64h535z" />
    <glyph glyph-name="less" unicode="&#xf03c;" horiz-adv-x="31" 
d="M-95 16q-17 -39 -17 -74q0 -52 33 -84q-5 0 -33 -2q-23 -2 -38 -2q-106 0 -106 97q0 21 4 46h-280q2 -11 2 -21q0 -58 -50 -92q-40 -27 -87 -27q-15 0 -25 4q1 6 17 39q15 30 15 52q0 33 -28 64h593z" />
    <glyph glyph-name="equal" unicode="&#xf03d;" horiz-adv-x="287" 
d="M-110 489q35 28 35 104q0 44 -11 91h150q20 0 20 -48q0 -51 -20 -138h170q-30 -29 -30 -60q0 -24 18 -51q13 -19 25 -37q-32 -3 -59 -3q-137 0 -137 93q0 16 3 36h-156z" />
    <glyph glyph-name="greater" unicode="&#xf03e;" horiz-adv-x="352" 
d="M-99 378h157q12 48 12 49q7 26 7 42q0 28 -20 37l139 8q39 3 39 -23q0 -8 -4 -24q-6 -20 -7 -25l-13 -68h163q-15 -27 -15 -53q0 -45 44 -89q-27 -5 -55 -5q-148 0 -156 134h-292z" />
    <glyph glyph-name="question" unicode="&#xf03f;" horiz-adv-x="512" 
d="M427 519q0 -71 -89 -180q-37 -45 -53 -76q-22 -43 -29 -98h-17q-4 89 44 179q51 95 51 175q0 70 -45 106q-28 22 -64 22q-57 0 -85 -37q-13 -18 -6 -35q4 -12 22 -32q13 -15 13 -34t-14 -29t-30 -10q-49 0 -46 77q3 52 52 90.5t116 38.5q95 -2 144 -61q36 -44 36 -96z
M189 43q0 24 17 40.5t41 16.5q23 0 40 -16.5t17 -40.5t-17 -40.5t-40 -16.5q-24 0 -41 16.5t-17 40.5z" />
    <glyph glyph-name="at" unicode="&#xf040;" horiz-adv-x="440" 
d="M-155 404h173q35 43 35 88q0 24 -9 50h70h77q41 -4 35 -28q-9 -35 -32 -94q-16 -40 -16 -64q0 -27 18 -33q8 -3 53 -3h164q0 -13 -2.5 -37.5t-2.5 -36.5q0 -45 30 -71q-18 -4 -40 -4q-67 0 -112 28q-56 35 -48 101l-146 -8q-48 -3 -64.5 8t-16.5 35q0 -12 4 49h-173z" />
    <glyph glyph-name="A" unicode="&#xf041;" horiz-adv-x="587" 
d="M546 439q13 -228 -121 -350q-109 -99 -256 -92q-129 6 -129 140q0 50 16.5 149t16.5 149q0 54 -20 82l57 20q39 14 59 14q40 0 40 -66q0 -27 -14 -163q-16 -164 -16 -189q0 -44 12.5 -69t45.5 -43q7 -3 15 -3q21 0 45.5 18t38.5 47q30 60 49 180q15 104 15 191
q0 126 -31 150l68 17q34 8 49 8q31 0 42.5 -37t17.5 -153z" />
    <glyph glyph-name="B" unicode="&#xf042;" horiz-adv-x="811" 
d="M506 349q-8 -124 -77 -218q-75 -104 -191 -123q-30 -5 -79 -3q-119 6 -119 129q0 46 15 137.5t15 137.5q0 49 -18 75l53 18q35 12 54 12q37 0 37 -60q0 -24 -13 -150q-15 -151 -15 -174q0 -73 54 -103q5 -3 13 -3q19 0 42 17t36 43q27 55 44 166q15 96 15 176
q0 116 -29 138l63 15q31 8 44 8q29 0 39.5 -34.5t16.5 -140.5q1 -22 1 -43q122 32 244 63q-6 -21 -6 -48q0 -56 26 -104q-32 -21 -75 -21q-44 0 -70 24q-31 29 -29 86z" />
    <glyph glyph-name="C" unicode="&#xf043;" horiz-adv-x="640" 
d="M600 -48q-66 -22 -98 -22q-52 0 -72 20q-6 7 -28 53q-4 2 -41 2q-10 0 -76.5 -9.5t-78.5 -9.5q-35 0 -54 23q-17 18 -17 46q0 14 51 142q43 107 86 215q-6 6 -13 6q14 -1 -24 -1q-10 0 -54.5 -18.5t-58.5 -18.5q-16 0 -33.5 9t-20.5 23.5t-3 42.5q0 12 1 37.5t1 38.5
q0 73 -27 94q1 0 84 21q30 7 49 7q38 0 38 -34q0 -13 -7.5 -51.5t-7.5 -61.5q0 -40 18 -68q4 -2 44 -2q37 0 79 87q35 75 34 99q2 7 -5.5 24.5t-15.5 24.5l91 18q22 5 37 5q38 0 38 -38q0 -60 -61 -190q-56 -114 -113 -227q-61 -127 -61 -178q0 -46 61 -46q40 0 65 9
q33 38 56 48q34 17 108 17q0 -3 -4.5 -18.5t-4.5 -27.5q0 -35 38 -91z" />
    <glyph glyph-name="D" unicode="&#xf044;" horiz-adv-x="520" 
d="M412 713q13 4 24 4q44 0 44 -63q0 -55 -32 -149q-27 -78 -64 -148.5t-74 -139.5q-48 -98 -48 -148q0 -46 40 -54l-85 -18q-15 -3 -28 -3q-45 0 -55 32q-5 16 -5 36q0 59 49 166l82 170q-12 1 -24 1q-29 0 -73.5 -9.5t-59.5 -9.5q-31 0 -46 25q-10 17 -10 42q0 22 10 67.5
t10 65.5q0 38 -27 56l72 21q36 11 55 11q35 0 35 -42q0 -19 -7 -57q-5 -23 -10 -47q-7 -32 -7 -52q0 -49 40 -51l50 -3q67 131 67 211q0 39 -18 59z" />
    <glyph glyph-name="E" unicode="&#xf045;" horiz-adv-x="618" 
d="M194 -6q-41 0 -49 2q-25 5 -38 27q-9 16 -9 35q0 34 38 104l139 254q-9 1 -19 1q-33 0 -86.5 -16.5t-70.5 -16.5q-26 0 -38.5 20t-12.5 49q0 20 8 63t8 62q0 39 -24 58l72 21q34 10 53 10q36 0 36 -44q0 -20 -6 -54q-7 -39 -7 -64q0 -73 51 -71l52 2q83 133 83 196
q0 29 -21 37l116 20q9 2 17 2q39 0 39 -42q0 -61 -121 -280l-119 -216q-43 -77 -43 -106q0 -27 39 -23l52 15q95 27 95 99q0 46 -31 55l97 29q19 6 34 6q54 0 50 -88q-2 -48 -71 -78q-277 -74 -313 -68z" />
    <glyph glyph-name="F" unicode="&#xf046;" horiz-adv-x="580" 
d="M540 435q8 -411 -292 -434q-36 -3 -56 -3q-87 0 -109 43q-18 35 -18 84q0 37 12 104q17 93 20 114l-55 -4q20 72 20 120q0 50 -22 70l91 24q17 5 29 5q33 0 33 -45q0 1 -16 -141q52 10 59 7q-45 -227 -45 -250q0 -104 73 -105q44 -1 79 53t46 138q17 131 17 201
q0 136 -48 171l84 22q26 7 41 7q35 0 46 -39q9 -34 11 -142z" />
    <glyph glyph-name="G" unicode="&#xf047;" horiz-adv-x="799" 
d="M648 673q13 3 25 3q40 0 63 -25t23 -60q0 -20 -7 -39q-34 -92 -231 -125q0 -188 -59 -296q-71 -127 -219 -127q-22 0 -46 3q-132 16 -132 205q0 40 6.5 117.5t6.5 107.5q0 84 -38 97q89 30 128 30q22 0 36 -7q11 -6 13 -53v-80q0 -75 -7 -171.5t-7 -119.5q0 -84 52 -96
q19 -4 33 -4q46 0 61 52q7 25 20 153q11 109 11 208q0 149 -29 161zM614 542q2 30 2 45q0 42 -26 42q-12 0 -63 -12q-12 -3 -9 -170q89 11 96 95z" />
    <glyph glyph-name="H" unicode="&#xf048;" horiz-adv-x="620" 
d="M312 665q7 2 13 2q22 0 35 -34q17 -50 26 -60q27 -31 53 -61q21 -27 45 -87q22 -56 28 -165q8 -141 12 -164q13 -78 56 -95q-49 -7 -86 -5q-80 -5 -96.5 29t-17.5 101v45q0 94 -15 181q-7 39 -12 54q-12 30 -35 37q-11 3 -51 -52q-34 -48 -49 -79q-38 -79 -38 -162
q0 -85 41 -150q-110 -3 -113 1q-36 0 -47 9q-21 19 -21 90q0 120 57 255q66 157 165 196q-19 28 -51 85q1 0 50.5 15t50.5 14z" />
    <glyph glyph-name="I" unicode="&#xf049;" horiz-adv-x="563" 
d="M281 674q9 3 16 3q26 0 41 -44q19 -54 25 -60q44 -42 63 -79q31 -61 39 -168q2 -30 -2 -94q-4 -76 -4 -103q0 -99 37 -126l-62 -4q-4 0 -21 -2.5t-26 -2.5q-63 0 -63 97q0 30 4.5 105.5t4.5 112.5q0 135 -48 151q-27 -2 -58 -47t-38 -98q-5 -40 -5 -57q0 -48 27 -52
l-86 -2q-4 0 -15 -1h-16q-54 0 -54 61q0 17 3 38q25 168 193 259l-51 78z" />
    <glyph glyph-name="J" unicode="&#xf04a;" horiz-adv-x="777" 
d="M316 641q29 6 59 -38q35 -54 46 -60q73 -38 126 -129q23 -40 66 -144q23 -62 47.5 -123.5t76.5 -104.5l-70 -33q-24 -11 -34 -11q-15 0 -41 11q-38 17 -86 181q-69 237 -142 257q-21 6 -74 -49q-66 -69 -103 -181q79 43 142 43q65 0 80 -52q4 -12 4 -23q0 -49 -71 -85
q-19 -9 -110 -39q-13 -4 -71 -36q-47 -25 -71 -25q-21 0 -33 16q-17 23 -17 81q0 114 85 259q79 134 152 175q-20 27 -63 69q31 16 102 41zM205 82q11 -6 22 -6q23 0 37.5 25t14.5 56q0 27 -12 44t-35 13q-24 -5 -37.5 -28t-13.5 -51q0 -41 24 -53z" />
    <glyph glyph-name="K" unicode="&#xf04b;" horiz-adv-x="862" 
d="M373 323q-88 -4 -136 -64.5t-51 -158.5q-2 -61 18 -91l-131 -9q-33 -2 -33 49q0 11 2 36q7 123 89 188q60 47 154 61q46 4 93 7l13 229q-3 22 -17.5 34t-14.5 9q0 1 5 2l108 18q11 2 20 2q43 0 38 -62l-17 -206q87 20 135 20q146 0 134 -160q-3 -30 -3 -56
q0 -121 43 -153l-130 -15q-26 -3 -36 18.5t-10 97.5q0 27 2 65q2 81 -28 123q-28 39 -77 39q-15 0 -31 -4l-27 -245q0 -42 6.5 -54.5t14.5 -24.5l-135 -15q-30 -3 -30 40q0 5 8 72z" />
    <glyph glyph-name="L" unicode="&#xf04c;" horiz-adv-x="836" 
d="M439 629q29 3 45 3q47 0 47 -36q0 -11 -3 -29l-30 -208q92 21 138 21q71 0 100.5 -40t29.5 -113q0 -19 -2.5 -58t-2.5 -57q0 -76 35 -115q-25 -1 -116 -3q-38 -1 -47 10q-19 23 -19 114q0 53 6 136q3 49 -28 73q-25 18 -63 18q-26 0 -36 -7l-22 -160q-2 -8 -2 -15
q0 -14 12 -26t13 -15l-119 -7q-46 -3 -46 39q0 12 3 31l23 146q-70 -3 -121 -52q-47 -44 -47 -97q0 -27 14 -50l-127 -6q-34 -2 -34 34t32 79q36 47 88 68q103 41 200 40l13 108q12 101 12 103q0 41 -22 64z" />
    <glyph glyph-name="M" unicode="&#xf04d;" horiz-adv-x="839" 
d="M283 665q94 4 94 -81q0 -17 -4 -41q25 0 96 14q31 4 33 4q26 0 26 -34q0 -17 -4.5 -40t-21.5 -135q12 0 64 5q63 6 91 8q50 3 74.5 -26t34.5 -102q5 -30 5 -69v-23q-1 -15 -1 -22q0 -71 29 -111q-82 -21 -105 -21q-10 0 -17 4l-14 7q-27 10 -27 91q0 11 1 36v37
q0 79 -17 116q-24 53 -87 53q-16 0 -35 -3q-26 -101 -33 -246q-1 -37 22 -74l-67 -11q-34 -6 -47 -6q-46 0 -40 54q26 208 38 262q-73 5 -127 -49q-63 -64 -63 -184q0 -30 10 -45.5t10 -19.5q-7 -4 -85 -10q-35 -4 -34 -4q-46 0 -42 70q7 124 84 188q56 47 147 61
q50 3 100 7l18 145q4 30 -9 52.5t-45 22.5q-73 -24 -129 -24q22 26 22 66q0 38 -15 66q20 5 70 12z" />
    <glyph glyph-name="N" unicode="&#xf04e;" horiz-adv-x="813" 
d="M441 621q18 5 30 5q44 0 44 -70q0 -14 -2 -31q-5 -42 -10 -86t-5 -83q10 0 59.5 8.5t79.5 8.5q73 0 88 -47q8 -25 18 -124q6 -67 30 -72l-104 -22q-10 -2 -18 -2q-41 0 -41 67q0 8 1 25v26q0 30 -4 50q-15 66 -116 60q-19 -83 -16 -129q2 -28 15 -75l-61 -15
q-25 -6 -42 -6q-47 0 -47 51q0 16 4 36q3 26 18 122q-51 0 -82 -17q-27 -16 -56 -56q-53 -74 -53 -160q0 -48 22 -70l-91 -9q-42 -4 -55 27q-7 16 -7 53q0 142 141 214q44 22 185 49q16 114 16 167q0 47 0 46q-2 26 -14 38z" />
    <glyph glyph-name="O" unicode="&#xf04f;" horiz-adv-x="1018" 
d="M854 595q11 2 22 2q102 0 102 -118q0 -21 -3 -45q-9 -68 -45 -120q-29 -41 -85 -41q-8 0 -28 1t-31 1q-27 0 -77 -9t-74 -9q-49 0 -57 38q-10 45 8 106l43 144q1 4 1 9q0 25 -28 25q-24 0 -34 -28l-103 -206q-28 -57 -46 -78q-30 -37 -69 -37q-14 0 -53 2q-35 1 -44 1
q-15 -1 -68 -6q-42 -5 -64 -5q-55 0 -67 24q-14 28 -14 62q0 82 72 171q60 74 139 99q51 16 147 16q128 0 203 7l82 7q17 0 40 -5.5t41 -3.5v-13zM759 556q-42 -213 -42 -224q0 -44 25 -44q5 0 22.5 4.5t37.5 43.5t27 82.5t7 73.5q0 70 -42 70q-11 0 -35 -6zM201 379
q-18 -41 -18 -70q0 -50 42 -50q48 0 80 60l135 253q2 0 -16 2.5t-34 2.5q-33 0 -53 -11q-70 -42 -136 -187z" />
    <glyph glyph-name="P" unicode="&#xf050;" horiz-adv-x="1230" 
d="M934 423q65 1 64 -1q21 52 142 52q25 0 36 -3q-12 -29 -12 -59q0 -47 26 -86q-36 -11 -73 -11q-106 0 -123 97l-62 -2q-8 -33 -56 -93q-32 -39 -76 -43q-52 -3 -105 -6l-45 -9q-29 -6 -46 -6q-60 0 -62 71q5 79 7 204q-1 27 -32 27q-33 0 -39 -32l-41 -199
q-10 -48 -38 -81q-31 -36 -72 -39q-44 -1 -104 -4q-24 -3 -73 -16q-39 -10 -56 -10q-54 0 -54 92q0 94 63 187q52 79 124 100q39 12 142 12q127 0 166 6q23 4 45 8q38 2 108 10v-20l104 22q11 2 21 2q53 0 88.5 -48.5t31.5 -109.5zM690 555q-2 -16 -13 -183q-6 -84 29 -84
q5 0 15 2t13 2q27 2 41 65q10 45 10 90q0 111 -68 111q-10 0 -27 -3zM196 380q-15 -51 -15 -89q0 -71 44 -71q22 0 42.5 21t26.5 54l48 247q-8 3 -16 3q-34 0 -67 -38q-39 -45 -63 -127z" />
    <glyph glyph-name="Q" unicode="&#xf051;" horiz-adv-x="1088" 
d="M938 -77q-26 0 -52.5 25.5t-27.5 50.5l-192 -1q-69 -1 -69 48q0 21 14 58q11 27 21 53l107 244q-13 13 -36 13q-3 0 -38.5 -6t-58.5 -6q-43 0 -58 20t-15 55q0 11 14 95q5 32 5 36q0 27 -24 28q-23 1 -34 -10q-6 -10 -12 -18t-9 -27l-4 -28q-20 -87 -46 -150
q-14 -35 -70 -45q-26 -4 -91 -4q-33 0 -81 -18q-31 -11 -54 -11q-29 0 -60 21q-27 19 -27 89q0 72 61 131q55 54 130 70q72 14 140 14q85 0 331 4l1 -15q35 9 101 20q26 3 46 3q48 0 68 -23q16 -19 20 -62q4 -50 -58 -202q-24 -56 -84 -185q-50 -107 -50 -136q0 -34 34 -38
q83 1 83 3q6 19 28.5 36.5t42.5 17.5h110q-21 -33 -21 -66q0 -48 25 -84h-110zM783 616q-31 14 -48 14q-20 0 -44 -15q-1 -9 -6.5 -65t-5.5 -57q0 -59 48 -64q24 0 33 7q2 0 28 78q9 24 9 55q0 41 -14 47zM223 567q-49 -90 -49 -158q0 -46 36 -45q65 2 106 122q21 62 31 142
q-16 3 -29 3q-60 0 -95 -64z" />
    <glyph glyph-name="R" unicode="&#xf052;" horiz-adv-x="916" 
d="M701 399q-42 14 -50 14q-23 0 -56 -5.5t-43 -5.5q-27 0 -43 21t-16 59q0 22 6.5 62t6.5 53q0 30 -20 32q-43 5 -55 -19q-7 -31 -14 -61l-12 -74q-8 -42 -24 -73q-28 -52 -134 -52h-16q-22 0 -30.5 -1.5t-46.5 -15.5q-33 -13 -53 -13q-33 0 -51 29q-10 16 -10 55
q0 82 52 148.5t132 79.5q34 6 82 5h78l258 9v-13q7 0 52.5 10t51.5 10q23 5 43 5q79 0 86 -85q6 -69 -45 -201l-78 -203q-36 -95 -36 -122q0 -31 31 -50h-75q-63 0 -60 -1q-28 4 -32 26q-3 16 -3 33q0 51 26 114zM732 514q5 19 5 43q0 49 -17 57q-20 9 -43 9q-21 0 -38 -6
l-10 -120q0 -68 38 -73q34 0 43 6q7 23 22 84zM203 367q67 0 99 255q-6 2 -15 2q-43 0 -68 -49q-52 -101 -52 -163q0 -45 36 -45z" />
    <glyph glyph-name="S" unicode="&#xf053;" horiz-adv-x="1062" 
d="M922 206q15 2 28 2q49 0 64 -28q8 -16 8 -66q0 -48 -37 -76q-31 -23 -76 -26l-214 -13q-78 -5 -78 48q0 18 32 115l100 243q-13 13 -40 13q-9 0 -44.5 -6.5t-58.5 -6.5q-43 0 -58 20.5t-15 54.5q0 11 14 96q5 31 5 35q0 27 -24 28q-23 1 -34 -10q-6 -9 -12 -17.5
t-9 -27.5l-4 -28q-20 -86 -46 -150q-14 -35 -70 -44q-26 -5 -91 -4q-33 0 -81 -18q-31 -12 -54 -12q-29 0 -60 21q-27 19 -27 89q0 72 61 131q55 55 130 70q72 15 140 15q85 0 331 3l1 -15q35 10 101 20q26 4 46 4q48 0 68 -24q16 -19 20 -62q4 -50 -58 -201
q-23 -57 -77 -186zM803 24q10 0 41 13q35 18 35 77q0 60 -39 67q-11 0 -20 -2q-21 -6 -28 -19q-24 -50 -24 -92q0 -48 35 -44zM783 620q-31 14 -48 14q-20 0 -44 -16q-1 -8 -6 -66q-6 -54 -6 -56q0 -58 48 -64q24 0 33 7q2 0 28 78q9 25 9 56q0 40 -14 47zM223 570
q-49 -90 -49 -157q0 -47 36 -45q65 1 106 121q21 62 31 142q-16 4 -29 4q-60 0 -95 -65z" />
    <glyph glyph-name="T" unicode="&#xf054;" horiz-adv-x="925" 
d="M734 640q19 6 38 6q48 0 80 -39q29 -37 33 -88q3 -56 -29 -91q-39 -41 -119 -41q-13 0 -26 1q-4 0 -43.5 -8.5t-61.5 -8.5q-19 0 -28 6q-20 12 -27 19q-13 11 -15 23q-9 48 -15 126q-5 55 -10 59q-20 15 -31 15q-13 0 -32 -10q-4 -143 -7 -182q-6 -70 -24 -117
q-10 -24 -110 -138q-92 -104 -92 -140q0 -17 16 -24l-94 -8q-38 -3 -41 -3q-33 0 -39 24q-2 7 -2 15q0 41 54 105q28 33 102 103q54 52 54 63q0 4 -3 5q-77 -11 -122 -11q-42 0 -60 9q-40 20 -40 77q0 74 50 140q42 57 121 82q43 14 115 18q58 3 116 5q69 5 194 5
q12 -27 18 -21q21 5 80 24zM284 333q9 22 25 92q5 48 2 182q-39 0 -55 -6q-46 -18 -62 -81q-20 -75 -20 -114q0 -75 80 -75q13 0 30 2zM695 402q56 8 56 76q0 20 -4 46q-15 84 -64 84q-6 0 -13.5 -1t-25.5 -12q1 -200 51 -193z" />
    <glyph glyph-name="U" unicode="&#xf055;" horiz-adv-x="917" 
d="M746 665q11 2 21 2q51 0 82 -51q28 -45 28 -109q0 -85 -45 -121q-35 -29 -59 -29q-4 0 -13 1t-15 1q-11 0 -24 -3q-8 -2 -58 -25q-42 -19 -66 -19q-19 0 -32 11q-28 26 -32 81l-15 214q-34 -2 -42.5 -9t-13.5 -33l-72 -432q-9 -54 -9 -73q0 -38 24 -65l-66 -13
q-24 -5 -39 -5q-28 0 -42 16q-19 21 -7 99l34 217q-40 -9 -81 -18.5t-68 -9.5q-30 0 -58 11q-38 15 -38 72q0 62 36 121q44 70 120 97q52 19 165 27q40 6 123 15q45 3 139 10l2 -10q43 11 121 30zM650 492q7 -68 10 -77q11 -44 46 -44q10 0 21 3q36 11 36 76
q0 58 -24.5 117.5t-52.5 60.5q-14 0 -29 -1q-19 -2 -21 -11q0 -3 7 -63.5zM196 482q-15 -46 -15 -87q0 -60 37 -61q21 -1 43 -2q21 0 28 7q9 46 44 260q-4 0 -22 1q-14 1 -22 0q-12 -1 -21 -5q-41 -20 -72 -113z" />
    <glyph glyph-name="V" unicode="&#xf056;" horiz-adv-x="1000" 
d="M913 20q-14 -23 -14 -49q0 -20 10 -48.5t10 -34.5q-21 -9 -45 -9q-53 0 -97.5 39t-46.5 82l-254 2q-16 -37 -46 -69q-48 -51 -108 -51q-26 0 -53 10q41 53 41 112q0 8 -1 15q225 0 225 1q-1 8 -1 18q0 62 45 164l86 196q-9 3 -15.5 9.5t-12.5 6.5q-22 0 -55.5 -5
t-44.5 -5q-29 0 -45 22q-19 26 -14 79q6 42 13 83q3 40 -19 42q-42 5 -55 -19q-7 -30 -14 -61q0 -3 -11 -72q-7 -41 -23 -71q-17 -33 -90 -37q-46 -1 -92 -1q-9 -2 -39.5 -15.5t-47.5 -13.5q-28 0 -46 28q-20 32 -20 71q0 18 5 33q25 79 43 104q37 51 125 76q26 8 60 8
q19 0 55 -3t51 -3q230 1 256 -1l-1 -19q8 0 44 9.5t42 9.5q24 5 44 5q87 0 94 -84q6 -63 -51 -202q-45 -106 -91 -212q-32 -81 -33 -140q80 -1 237 0zM703 514q8 23 8 50q0 42 -16 49q-21 10 -41 10q-14 0 -24 -5l-16 -120q0 -68 38 -73q6 0 10.5 -0.5t6.5 0.5t8 5
q8 23 26 84zM196 391q67 0 92 240q-5 2 -12 2q-43 0 -72 -57q-42 -83 -42 -141q0 -44 34 -44z" />
    <glyph glyph-name="W" unicode="&#xf057;" horiz-adv-x="861" 
d="M97 511l113 21q20 4 31 4q27 0 27 -30q0 -23 -20 -113q-3 -11 -31 -86q-23 -61 -23 -93q0 -40 35 -51q10 -3 20 -3q70 0 120 159q26 85 26 133q0 50 -26 71l131 26q9 2 17 2q36 0 36 -43q0 -7 -1 -20q-4 -42 -26 -160q52 -63 85 -61q41 3 58 48q11 29 17 104
q5 66 -21 101l95 19q10 2 18 2q51 0 50 -115q-2 -135 -104 -147q-27 -3 -84 -23q-51 -18 -90 -18q-29 0 -62 8q-24 -31 -37 -43q-22 -20 -58 -37q-51 -23 -88 -22q-63 1 -76.5 -1t-56.5 -11q-32 -7 -50 -7q-42 0 -60 37q-15 30 -15 58q0 29 17.5 73t35.5 89q19 52 19 74
q0 30 -22 55z" />
    <glyph glyph-name="X" unicode="&#xf058;" horiz-adv-x="765" 
d="M681 602q73 8 73 -60q0 -34 -18 -90l-83 -263q-30 -95 -27 -131q3 -34 24 -55l-61 -2q-79 -3 -85 4q-17 20 -17 58q0 44 23 117l61 196q-69 5 -120 44q-64 -80 -189 -80q-6 0 -54 3q-10 1 -47.5 -9.5t-57.5 -10.5q-24 0 -39 11q-24 19 -24 47q0 22 21 74.5t21 81.5
q0 20 -8 38l72 10q16 2 28 2q57 0 57 -43q0 -12 -5 -30q-2 -6 -23 -64q-15 -40 -15 -59q0 -30 31 -31q52 -2 86 34q41 44 41 134q0 27 -4 58h58q58 0 70 -4q16 -5 16 -32q0 -8 -2 -32q-2 -29 -3 -48q-1 -22 39 -49q33 -22 60 -29l36 128q3 33 -5 51q-2 4 -16 21z" />
    <glyph glyph-name="Y" unicode="&#xf059;" horiz-adv-x="1085" 
d="M833 317q39 0 67 46q25 43 25 96q0 52 -26 79h86q45 0 52.5 -7.5t7.5 -46.5q0 -69 -40 -119q-57 -72 -183 -72q-66 0 -114 40q-100 -75 -216 -75q-55 0 -114 27l-119 -142q-74 -88 -74 -119q0 -12 9 -18l-95 -6q-59 -4 -59 28q0 43 68 127l204 252q46 57 46 91
q0 17 -12 29q4 0 95 9q58 6 59 -35q1 -47 -19 -81q-25 -34 -49 -68q4 -70 73 -72q26 -1 54 20q32 23 53 64q27 51 27 103q0 37 -14 60h76q41 0 53 -4q24 -7 24 -33q0 -6 -1 -14q-10 -58 -22 -88q2 -28 20 -47q21 -24 58 -24z" />
    <glyph glyph-name="Z" unicode="&#xf05a;" horiz-adv-x="782" 
d="M654 611q21 4 37 4q47 0 50 -47q7 -81 -51 -144q-51 -57 -146 -60q-66 -2 -58 -2q-34 0 -56 14l-155 -219q-59 -84 -59 -103q0 -14 14 -28l-63 -14q-55 -12 -69 -11q-33 4 -33 30q0 32 55 113l123 179q-9 4 -22 4q-18 0 -63 -12.5t-65 -12.5q-30 0 -44 21q-9 14 -9 36
q0 26 18 83.5t18 79.5t-11 34l104 16q14 2 24 2q37 0 37 -27q0 -15 -19 -61q-36 -89 -36 -108q0 -32 38 -30l46 3q28 39 73 108q31 52 31 67q0 19 -16 40l87 20q42 10 59 -5q14 -11 14 -30q0 -18 -21 -65.5t-18 -67.5q3 -15 17 -27q19 -17 46 -14q40 4 62 50q18 40 16 94
q-1 47 -20 76z" />
    <glyph glyph-name="bracketleft" unicode="&#xf05b;" horiz-adv-x="604" 
d="M316 62l47 22q24 86 123 86q11 0 28.5 -1t21.5 -1q-17 -31 -17 -62q0 -50 45 -83q-60 -24 -109 -24q-61 0 -75 44h-58q-89 -41 -141 -41q-51 0 -88 30q-55 47 -55 112q0 74 68 150q44 36 137 116q119 105 119 174q0 24 -17 41l92 12q18 2 31 2q28 0 34 -13q2 -3 2 -29
q2 -90 -175 -235q-51 -42 -93 -100q-55 -75 -55 -130q0 -20 7 -36q20 -47 73 -47q28 0 55 13z" />
    <glyph glyph-name="backslash" unicode="&#xf05c;" horiz-adv-x="714" 
d="M407 623q20 -17 20 -35q0 -30 -61 -76q-56 -44 -113 -87q-60 -55 -60 -104q0 -14 4 -27q8 -26 67 -26q78 0 382 44q-4 -23 -4 -44q0 -74 46 -108q-39 -12 -76 -12q-61 0 -98 32t-30 90q-7 0 -87 -8q-5 -37 -19 -131q-9 -58 -9 -81q0 -48 44 -54q-170 0 -176.5 11t-6.5 49
q0 70 20 192q-31 -12 -85 -12q-125 0 -125 86q0 11 2 23q10 56 71 97q53 30 107.5 61t54.5 66q0 24 -21 54h153z" />
    <glyph glyph-name="bracketright" unicode="&#xf05d;" horiz-adv-x="608" 
d="M429 639q29 8 50 8q44 0 44 -37q0 -31 -32 -84q-25 -42 -111 -118q-96 -87 -129 -128q-62 -77 -59 -149q4 -89 71 -89q19 0 43 7q37 10 70 42q40 37 40 79q0 31 -25 62l68 24q28 10 50 10q59 0 59 -62q0 -14 -3 -30q-8 -44 -63 -74q-40 -22 -150 -57q-130 -41 -185 -41
q-117 0 -126 121q-1 13 -1 24q0 57 34.5 105t134.5 128q53 42 103 100q65 74 65 111q0 21 -22 28z" />
    <glyph glyph-name="asciicircum" unicode="&#xf05e;" horiz-adv-x="827" 
d="M520 621q3 -12 3 -24q0 -61 -81 -143l-126 -116q-119 -125 -119 -224q0 -81 80 -81q26 0 57 10q-8 143 98 198q80 42 327 68q-6 -13 -6 -31q0 -45 34 -104q-31 -7 -61 -7q-114 0 -114 88q0 10 2 21q-82 -8 -108 -57q-21 -38 -21 -143l-150 -52q-98 -31 -160 -31
q-135 0 -135 146q0 67 87 152q80 71 161 141q86 81 86 137q0 22 -11 43l68 21q15 5 42 5q43 0 47 -17z" />
    <glyph glyph-name="underscore" unicode="&#xf05f;" horiz-adv-x="731" 
d="M437 631q20 5 34 5q34 0 34 -30v-8q-1 -6 -1 -7q-2 -69 -190 -241q-45 -41 -79 -95q-45 -69 -45 -123q0 -23 8 -42q17 -38 76 -38q22 0 44 5q-15 68 -15 86q0 37 27 64q23 23 65 32q18 3 83 9q20 2 73 14q47 10 70 10q57 0 66 -55q4 -20 4 -37q0 -60 -42 -90
q-30 -21 -82 -27q-31 -3 -62 -5q-94 -21 -103 -21q-12 0 -58 3q-23 1 -85 -19t-95 -20q-41 0 -71 25q-53 45 -53 106q0 68 66 156q12 15 100 92.5t122 122.5q51 69 16 105zM509 73q47 5 47 74q0 38 -18.5 67t-49.5 24q-50 -8 -50 -74q0 -38 19 -65q21 -30 52 -26z" />
    <glyph glyph-name="grave" unicode="&#xf060;" horiz-adv-x="669" 
d="M418 638l174 12q-1 -11 -1 -22q0 -68 38 -128q-114 0 -144 10q-55 18 -55 85q0 13 2 27q-104 -2 -157 -62q-48 -53 -70 -169t-22 -199q0 -85 23 -104q33 -27 77 -27q38 0 84 20q27 102 183 94q-21 -32 -21 -66q0 -50 41 -92q-63 -25 -88 -25q-17 0 -35.5 5.5t-54.5 35.5
q-29 26 -53 23q-16 -2 -90 -16q-61 -12 -96 -12q-73 0 -97 48q-16 32 -16 98q0 84 28 238q23 130 136 182q71 34 214 44z" />
    <glyph glyph-name="a" unicode="&#xf061;" horiz-adv-x="757" 
d="M533 650q29 3 53 3q86 0 115 -40q16 -23 16 -72q-1 -51 -33 -76q-23 -18 -71 -25l-72 -10q-9 -2 -54 -17q-34 -11 -55 -11q-15 0 -27 5q-68 26 -68 111q0 21 5 44q-81 8 -116 -77q-21 -51 -33 -177q-6 -58 -6 -99q0 -115 41 -148q20 -16 57 -16q61 0 94 27q1 1 25 40
q12 20 39 30q35 12 115 16q-20 -31 -20 -63q0 -50 43 -90q-47 -15 -82 -15q-42 0 -80 28t-62 25q-20 -2 -98 -19q-66 -15 -102 -15q-86 0 -104 73q-13 52 -13 144q0 179 47 242q82 111 223 111h9.5h8.5q15 0 18 3q25 32 38 38q35 18 149 30zM552 446q37 10 37 91
q0 40 -12 69.5t-32 29.5q-5 0 -10 -2q-57 -21 -57 -99q0 -37 16 -64t44 -27q6 0 14 2z" />
    <glyph glyph-name="b" unicode="&#xf062;" horiz-adv-x="857" 
d="M552 550q2 -10 2 -20q0 -60 -68 -120q-62 -46 -125 -92q-67 -50 -112.5 -109.5t-50.5 -106.5q-8 -79 62 -79q32 0 74 20q10 175 270 178l164 2q-7 -15 -7 -34q0 -43 29 -95q-29 -7 -58 -7q-116 0 -116 91q0 10 1 21q-76 -1 -100.5 -31.5t-45.5 -144.5l-171 -15
q-19 -2 -80 -11q-49 -8 -75 -8q-109 0 -105 135q2 70 98 148q88 63 176 127q94 70 94 120q0 14 -7 28l-213 -2q19 43 19 77q0 43 -26 63q68 3 100 -13q51 -26 73 -108h288q11 72 51 96q35 20 124 19l-24 -40q-14 -28 -14 -54q0 -18 7 -37z" />
    <glyph glyph-name="c" unicode="&#xf063;" horiz-adv-x="589" 
d="M376 551q78 0 117 -43q34 -39 32 -107l-9 -308q-1 -53 33 -93h-107q-42 0 -51 11q-14 15 -14 81q0 30 2 90l8 211q3 61 -25 96.5t-69 35.5q-64 0 -93 -66q-19 -44 -24 -131q-2 -37 -2 -270q0 -21 11 -36q8 -11 16 -23q-17 -1 -35 -1q-48 -1 -53 -1q-53 0 -64 29
q-10 26 -9 148q1 66 3 97q3 59 13 109q23 113 191 166v102q-3 29 -18 45q14 0 73 1q45 1 55 -3q15 -6 18 -36q1 -16 1 -104z" />
    <glyph glyph-name="d" unicode="&#xf064;" horiz-adv-x="597" 
d="M340 692q26 3 32 -30q3 -17 3 -115q81 -13 112 -53q28 -36 28 -111q0 -27 -3 -65q-1 -3 -15 -222q-5 -69 29 -88l-82 -5q-50 -3 -63 10q-17 17 -13 81q7 112 16 305q0 54 -24 86.5t-64 33.5q-48 2 -78 -35q-28 -33 -35 -90q-5 -40 -8 -93q-8 -88 32 -106l-115 -13
q-42 -5 -49 26q-1 3 -2 85q-1 50 21 101t61 84q51 44 118 62q0 54 -1 107q-1 19 -27 33z" />
    <glyph glyph-name="e" unicode="&#xf065;" horiz-adv-x="586" 
d="M306 697q12 -84 63 -121l94 -52q53 -36 67 -118q2 -11 2 -27q0 -31 -12 -124t-12 -139q0 -91 38 -116q-6 -3 -86 -2q-59 -1 -74.5 5.5t-15.5 37.5q0 8 1.5 38.5t1.5 54.5q0 28 10 111.5t10 127.5q0 129 -74 152q-13 4 -25 4q-60 0 -93 -93q-31 -85 -31 -219
q0 -106 20 -209l-70 -7q-26 -3 -36 -3q-30 0 -38 28q-6 25 -6 127q0 180 29 254q41 105 166 130q-84 103 -76 159q4 1 147 1z" />
    <glyph glyph-name="f" unicode="&#xf066;" horiz-adv-x="599" 
d="M316 692q12 0 31 2q16 1 23 1q19 0 26.5 -9.5t7.5 -38.5q0 -26 -8 -101q26 -9 53.5 -19t43.5 -25q56 -52 47 -156l-6 -73q-2 -25 -2 -43q0 -40 11 -51q8 -7 16 -13l-78 -9q-37 -4 -41 -4q-49 0 -49 73q0 15 1 33q4 38 7 133q2 48 -17 81q-22 38 -69 43q-66 7 -96 -68
q-12 -31 -26 -122q-9 -62 -9 -196q0 -48 3 -66q5 -32 24 -61l-89 -9q-16 -2 -25 -2q-47 0 -51 41q-4 51 -4 108q0 145 30 235q25 73 70 106q21 16 110 54q14 61 14 104q0 39 -13 50z" />
    <glyph glyph-name="g" unicode="&#xf067;" horiz-adv-x="753" 
d="M721 -108q-27 -2 -46 -2q-57 0 -83 23q-24 19 -53 86h-295q-19 -52 -59 -84q-44 -35 -98 -35q-23 0 -47 7q46 92 44 135l213 -1q17 10 21 42q13 121 52 348q5 28 5 49q0 43 -18 60q-12 11 -39 15q-44 6 -62.5 -25.5t-34.5 -139.5q-10 -72 -10 -138q0 -76 14 -89l-68 -9
q-25 -3 -38 -3q-50 0 -50 55q0 10 1 24l29 251q4 39 10 52q8 18 29 23q116 -1 121 33l5 107h144q-2 -31 -8 -114q0 -27 20 -33q7 -2 57 -2q29 0 38 -4.5t9 -22.5q0 -8 -1 -21l-56 -453l232 1q-3 -16 -3 -31q0 -27 9 -56z" />
    <glyph glyph-name="h" unicode="&#xf068;" horiz-adv-x="600" 
d="M577 794q-18 -34 -18 -74q0 -47 23 -89q-21 -6 -43 -6q-42 0 -75.5 18t-37.5 38l-45 -11l-2 -128q7 -3 54 -14q40 -9 53 -20q36 -31 36 -97q0 -43 -8.5 -130t-8.5 -132q0 -128 30 -144l-82 -11q-11 -2 -19 -2q-59 0 -59 109q0 22 2 50q0 5 11 123q7 74 7 123
q0 118 -63 125q-66 8 -104 -97q-26 -73 -31 -255q-4 -144 28 -159l-57 -8q-29 -4 -44 -4q-37 0 -47 28q-10 25 -9 111q1 145 12 201q13 73 56 119t117 72v127q-30 -2 -65 -6q-14 -35 -62 -58q-41 -18 -80 -18q-17 0 -26 4q20 32 20 70q0 39 -20 74q41 13 72 13q42 0 70 -25
q1 -2 36 -45q88 15 227 34q1 26 27 55q36 41 96 41q14 0 29 -2z" />
    <glyph glyph-name="i" unicode="&#xf069;" horiz-adv-x="625" 
d="M619 773q-18 -24 -18 -61q0 -58 30 -86q-20 -3 -40 -3q-98 0 -114 50l-76 -7v-137q108 11 108 -145q0 -40 -8.5 -129.5t-8.5 -129.5q0 -94 36 -125q-84 -3 -86 -3q-52 0 -64 17q-17 24 -17 88q0 47 12.5 161.5t12.5 160.5q0 96 -40 99q-26 2 -60.5 -30t-47.5 -74
q-21 -66 -21 -138q0 -81 26 -93l-70 -4q-20 -1 -22 -1q-24 0 -35 17q-14 23 -14 84q0 119 70 184q41 39 98 58v131q-32 -1 -54 -1q-27 -74 -129 -74q-5 0 -43 2q24 24 24 67q0 61 -28 79q40 6 67 6q43 0 67 -16q21 -14 37 -47l253 17q25 87 113 87q18 0 42 -4z" />
    <glyph glyph-name="j" unicode="&#xf06a;" horiz-adv-x="733" 
d="M687 760q-21 -31 -21 -67q0 -44 27 -84q-4 0 -27.5 -1.5t-40.5 -1.5q-99 0 -122 51l-67 1q11 -27 23 -46q23 -38 68 -83q88 -14 104 -89q8 -35 -11 -155q-21 -138 -21 -187q0 -80 34 -98q-38 0 -97 -4q-36 -2 -50 7q-24 15 -22 66q2 62 22 192q19 123 19 167q0 60 -25 73
q-12 6 -25 6q-38 0 -72 -57q-25 -41 -29 -67q-31 -190 -31 -255q0 -107 49 -126l-70 -3q-33 -1 -41 -1q-48 0 -59.5 34t-8.5 170q2 111 44 186q28 53 81 94q56 45 58 47q-79 79 -88 129q-51 -3 -64 -1q-25 -64 -141 -64q-11 0 -43 1q23 60 23 104q0 41 -23 54
q101 -3 120 -10q26 -9 70 -65q266 5 260 2q25 87 121 87q17 0 43.5 -3t32.5 -3z" />
    <glyph glyph-name="k" unicode="&#xf06b;" horiz-adv-x="685" 
d="M645 770q-35 -37 -35 -78q0 -43 35 -78q-17 -2 -33 -2q-89 0 -132 57l-69 -1l-9 -137q78 -12 96 -57q9 -23 9 -60q0 -30 -8 -92.5t-8 -85.5q0 -51 25 -59q-89 -10 -103 -10q-31 0 -37 14q-12 29 -12 70q0 37 13 109t13 97q0 64 -56 63q-87 -1 -121 -241q-12 -85 -12 -156
q0 -106 30 -123q-15 0 -42.5 -1.5t-39.5 -1.5q-53 0 -70 24q-12 18 -12 73q0 71 13.5 168.5t28.5 131.5q23 54 64 85q24 17 94 49q18 131 15 136l-72 -1q-37 -72 -122 -72q-23 0 -48 6q26 43 26 87q0 32 -16 59q8 1 35 4q22 2 35 2q67 0 95 -69l255 8q38 92 127 92
q25 0 48 -10z" />
    <glyph glyph-name="l" unicode="&#xf06c;" horiz-adv-x="834" 
d="M798 -109q-26 -11 -54 -11q-99 0 -143 117h-297q-17 -56 -66 -93t-100 -37q-31 0 -54 14q40 44 40 91q0 20 -7 42q188 -2 260 0q24 149 59 451q5 64 -30 81q-12 5 -54 5q-32 0 -50 -64l-24 -118q-24 -106 -21 -164q3 -38 24 -57l-85 -14q-25 -4 -41 -4q-44 0 -44 48
q0 16 4 51q6 53 11 106q13 105 28 173q9 38 17 42l34 2q14 -1 30 -1q83 0 83 34l-1 75h-262q0 10 5 38.5t5 44.5q0 34 -17 60q26 3 46 3q60 0 88.5 -28t32.5 -98h363q18 64 41 86q42 39 146 39q-38 -77 -38 -117q0 -17 7 -28l-268 -1l-3 -94q3 -25 87 -25q30 0 39 2
q-17 -206 -53 -433q-5 -34 -5 -55q0 -39 19 -39l224 1q-2 -20 -2 -35q0 -44 26 -90z" />
    <glyph glyph-name="m" unicode="&#xf06d;" horiz-adv-x="778" 
d="M474 508q69 12 116 12q71 0 96 -30q18 -21 17 -71q-2 -78 -91 -115q-59 -25 -172 -35q-4 -59 -12 -142q-6 -58 -6 -76q0 -23 6.5 -33t24.5 -20h-105q-37 0 -43 2q-20 10 -18 56q5 26 21 186q-72 -10 -117 -10q-129 0 -120 90q10 102 129 140q40 12 137 20q3 34 12 93
q8 45 8 63q0 32 -18 48q63 24 98 24q52 0 52 -64q0 -2 -15 -138zM446 286q57 -2 84 21.5t33 86.5q1 14 1 26q0 65 -52 65q-14 0 -44 -4zM212 304q5 -27 40 -35q11 -2 60 -5l20 202q-36 0 -66 -16q-59 -29 -59 -103q0 -20 5 -43z" />
    <glyph glyph-name="n" unicode="&#xf06e;" horiz-adv-x="826" 
d="M458 713q11 3 21 3q46 0 59 -65q6 -32 6 -132q56 29 119 29q100 0 119 -77q4 -17 4 -33q0 -123 -242 -146q7 -85 -52 -134q-36 -31 -110 -53q-73 -18 -202 -56q0 -78 -29 -104q-32 -26 -129 -26q2 12 12 43q7 25 7 43q0 23 -10 49q78 -1 233 39q150 39 139 174
q-123 -9 -139 -9q-61 0 -90 21q-33 25 -33 86q0 119 261 130q2 84 -3 122q-8 45 -31 70q26 9 90 26zM545 321q50 -2 81 31q27 29 27 71q0 35 -21 60.5t-60 25.5q-13 0 -27 -4v-184zM284 352q-1 -56 67 -56q12 0 52 3v168q-117 4 -119 -115z" />
    <glyph glyph-name="o" unicode="&#xf06f;" horiz-adv-x="703" 
d="M290 675q39 7 97 20q11 3 20 3q39 0 39 -67q0 -34 -11 -136q43 21 110 21q120 0 118 -88q-2 -70 -59 -108q-41 -27 -113 -38l-80 -12q-5 -35 -10 -71q-9 -66 -9 -106q0 -72 29 -67q-66 -30 -127 -30q-22 0 -28 8q-14 17 -14 55q0 34 20 191q-67 -15 -115 -15
q-108 0 -116 78q-16 146 259 165q5 66 13 165q-4 6 -25 16q-4 4 -9 4q-3 0 -22 -7q-23 -9 -48 -13q-39 -6 -92 -4q28 31 28 65q0 38 -27 62q59 22 101 22q77 0 77 -70q0 -19 -6 -43zM414 291q61 10 82.5 30t27.5 76q4 41 -12.5 65t-49.5 24q-13 0 -28 -4zM179 332
q-4 -46 33 -56q31 -3 63 -6l21 188q-63 -1 -90 -34q-23 -29 -27 -92z" />
    <glyph glyph-name="p" unicode="&#xf070;" horiz-adv-x="716" 
d="M456 722q69 -1 107.5 -26.5t32.5 -73.5q-11 -91 -156 -155l5 -25q62 7 101 7q130 0 130 -83q0 -16 -5 -36q-14 -62 -84.5 -99t-180.5 -37q-18 -96 -18 -122q0 -35 29 -46q-71 -24 -109 -24q-45 0 -60 30q-3 4 3 63t13 94q-17 -1 -69 -9q-47 -8 -72 -8q-82 0 -95 70
q-3 18 -3 33q0 80 108 124q55 22 158 37q3 7 3 14q0 13 -25.5 53.5t-23.5 80.5q3 59 66 99t145 39zM424 703q-26 2 -43 -39q-15 -33 -13 -53q7 -59 52 -108q21 13 35 50.5t14 75.5q0 71 -45 74zM168 287q2 -56 33 -70q14 -7 67 -7l35 204q-46 -3 -88 -38q-49 -39 -47 -89z
M412 221q64 6 92 31t34 81q10 81 -66 81q-13 0 -28 -3z" />
    <glyph glyph-name="q" unicode="&#xf071;" horiz-adv-x="13" 
d="M302 687q-14 -36 -66 -59q-45 -20 -86 -20q-16 0 -25 4q20 32 20 69q0 40 -20 75q43 13 74 13q42 0 68 -24q4 -3 36 -43l287 17q2 26 27 55q36 41 96 41q14 0 29 -2q-18 -35 -18 -74q0 -47 23 -89q-20 -6 -41 -6q-42 0 -76.5 19.5t-38.5 39.5z" />
    <glyph glyph-name="r" unicode="&#xf072;" horiz-adv-x="852" 
d="M429 675q39 7 97 13q10 1 17 1q43 0 43 -60q0 -29 -12 -134q43 21 110 21q120 0 118 -88q-2 -70 -59 -108q-41 -27 -113 -38l-80 -12q-5 -35 -10 -71q-9 -66 -9 -106q0 -72 29 -67q-66 -30 -126 -30q-22 0 -29 8q-13 17 -13 55q0 34 19 191q-67 -15 -114 -15
q-108 0 -117 78q-16 146 259 165q5 66 13 165q-4 6 -25 16q-4 4 -9 4q-3 0 -22 -7q-22 -9 -48 -13q-39 -6 -92 -4q28 30 28 65q0 38 -27 62q0 1 -26 2q-27 2 -32 0q-15 -36 -67 -59q-44 -20 -85 -20q-17 0 -25 4q20 33 20 70q0 40 -20 74q42 13 74 13q41 0 68 -23
q4 -4 36 -44l287 17q1 26 27 56q36 41 96 41q14 0 29 -3q-18 -34 -18 -73q0 -47 23 -90q-20 -6 -41 -6q-42 0 -78 21q-33 18 -37 38l-87 -4q34 -16 34 -62q0 -19 -6 -43zM553 291q61 10 82.5 30t27.5 76q4 41 -12 65t-49 24q-14 0 -29 -4zM318 332q-3 -46 33 -56
q31 -3 63 -6l21 188q-62 -1 -89 -34q-23 -29 -28 -92z" />
    <glyph glyph-name="s" unicode="&#xf073;" horiz-adv-x="860" 
d="M648 61q41 11 41 86q0 60 -31 60q-3 0 -8 -1q-23 -8 -30 -39q-3 -12 -3 -48q0 -59 22 -59q4 0 9 1zM431 185l219 47q37 8 65 8q108 0 105 -116q-1 -62 -54 -78q-31 -10 -148 -10q-21 -9 -42.5 -18.5t-40.5 -9.5q-30 0 -40 27q-7 20 -7 77v53q-5 0 -57 -10v30zM474 508
q69 12 116 12q71 0 96 -30q18 -21 17 -71q-2 -78 -91 -115q-59 -25 -172 -35q-4 -59 -12 -142q-6 -58 -6 -76q0 -23 6.5 -33t24.5 -20h-105q-37 0 -43 2q-20 10 -18 56q5 26 21 186q-72 -10 -117 -10q-129 0 -120 90q10 102 129 140q40 12 137 20q3 34 12 93q8 45 8 63
q0 32 -18 48q63 24 98 24q52 0 52 -64q0 -2 -15 -138zM446 286q57 -2 84 21.5t33 86.5q1 14 1 26q0 65 -52 65q-14 0 -44 -4zM212 304q5 -27 40 -35q11 -2 60 -5l20 202q-36 0 -66 -16q-59 -29 -59 -103q0 -20 5 -43z" />
    <glyph glyph-name="t" unicode="&#xf074;" horiz-adv-x="1138" 
d="M474 508q69 12 116 12q71 0 96 -30q18 -21 17 -71q0 -5 -1 -15l39 1q35 28 35 78q0 29 -11 57h150q20 0 20 -33q0 -35 -20 -93h170q-30 -30 -30 -61q0 -23 18 -51q12 -18 25 -36q-34 -4 -61 -4q-135 0 -135 90q0 16 3 36h-207q-29 -99 -258 -119q-4 -59 -12 -142
q-6 -58 -6 -76q0 -23 6.5 -33t24.5 -20h-105q-37 0 -43 2q-20 10 -18 56q5 26 21 186q-72 -10 -117 -10q-129 0 -120 90q10 102 129 140q40 12 137 20q3 34 12 93q8 45 8 63q0 32 -18 48q63 24 98 24q52 0 52 -64q0 -2 -15 -138zM446 286q57 -2 84 21.5t33 86.5q1 14 1 26
q0 65 -52 65q-14 0 -44 -4zM212 304q5 -27 40 -35q11 -2 60 -5l20 202q-36 0 -66 -16q-59 -29 -59 -103q0 -20 5 -43z" />
    <glyph glyph-name="u" unicode="&#xf075;" horiz-adv-x="703" 
d="M392 710q18 3 31 3q34 0 34 -32q0 -4 -4 -41q-3 -33 -1 -58q68 10 93 10q116 0 118 -118q2 -151 -248 -182l-11 -114l90 -11q71 -9 65 -76q-3 -24 -3 -36q0 -45 26 -83l-88 -21q-17 -4 -28 -4q-38 0 -36 60q0 11 2 43q2 29 2 44q0 50 -19 62h-84q-67 -2 -76 -14
q1 -52 -42.5 -94t-100.5 -42q-14 0 -26 3q21 35 21 79q0 27 -8 53q116 6 171 37q3 43 13 123q-15 -1 -44 -9t-42 -9q-58 -4 -93 18q-47 29 -42 99q5 97 106 144q66 32 152 36q3 51 3 67q0 20 -5 27q-9 10 -17 21zM197 402q-1 -88 53 -88q18 0 36 10q11 84 29 227
q-50 -1 -81 -33q-37 -39 -37 -116zM451 556l-30 -244q55 19 69 37q21 27 33 116q3 27 -10 56q-16 37 -47 37q-7 0 -15 -2z" />
    <glyph glyph-name="v" unicode="&#xf076;" horiz-adv-x="578" 
d="M239 667q53 18 101 18q77 0 121 -45q49 -49 45 -142l-12 -307q-1 -45 -1 -68q0 -57 9 -80t36 -32q-2 0 -89 -19q-32 -7 -46 -7q-28 0 -39 28t-11 109q0 30 1 72l12 318q3 73 -27 109q-25 29 -67 26q-54 -4 -80 -109q-22 -87 -22 -226q0 -168 24 -263q8 -29 33 -32
l-61 -20q-24 -8 -42 -8q-43 0 -63.5 47.5t-20.5 156.5q0 126 4 168q13 135 41 189q41 78 154 117z" />
    <glyph glyph-name="w" unicode="&#xf077;" horiz-adv-x="576" 
d="M260 672q57 11 99 11q79 0 114 -39.5t32 -126.5l-16 -416q5 -57 6 -61q3 -16 23 -29l-95 -9q-34 -3 -48 7q-18 14 -24 60l16 456q-8 136 -104 129q-42 -3 -69 -56.5t-26 -134.5q-1 -65 0 -167q2 -70 42 -97l-98 -11q-13 -1 -22 -1q-28 0 -39 15.5t-11 58.5q-3 32 1 120
q1 104 44 175q55 94 175 116z" />
    <glyph glyph-name="x" unicode="&#xf078;" horiz-adv-x="820" 
d="M303 439l-78 -24q2 -15 2 -28q0 -75 -72 -109q-53 -25 -115 -20q16 20 31 41.5t15 41.5q0 29 -27 66l245 53q19 82 38 109q46 65 167 93q54 12 97 12q161 0 151 -167l-15 -261q-4 -64 -4 -106q0 -119 42 -135q-2 0 -96 -3q-51 -2 -67.5 16t-16.5 80q0 30 4 94l18 312
q5 83 -24 117q-23 27 -73 27q-92 0 -95 -253q0 -37 -2 -135q-1 -69 -1 -101q0 -82 7 -115t29 -44l-86 -1q-50 -1 -66.5 10t-19.5 54q-1 14 -1 132q0 27 6 121q7 99 7 123z" />
    <glyph glyph-name="y" unicode="&#xf079;" horiz-adv-x="584" 
d="M296 665q40 8 73 8q90 0 129 -59q33 -50 27 -133l-16 -222q-3 -43 8 -61q5 -7 27 -20q-13 -3 -99 -12q-25 -3 -35 -3q-43 0 -43 53q0 10 2 22l17 192q4 55 4 83q0 124 -78 133q-42 4 -70 -43.5t-33 -131.5l-24 -363q-4 -58 8 -81q3 -6 26 -23l-84 -7q-17 -1 -28 -1
q-35 0 -51 16q-19 21 -15 74l15 241q11 179 76 256q49 58 164 82z" />
    <glyph glyph-name="z" unicode="&#xf07a;" horiz-adv-x="807" 
d="M432 669q10 1 19 1q52 0 52 -58q0 -20 -8.5 -73.5t-8.5 -80.5l255 24q-7 -30 -7 -56q0 -14 3 -25q6 -24 35 -60q-57 -12 -80 -12q-89 0 -91 119q-109 -12 -122 -11q-39 -271 -39 -344q0 -42 10 -58q8 -12 29 -18l-112 -17q-12 -2 -21 -2q-25 0 -35.5 18t-10.5 65
q0 68 35 340l-105 -14q-15 -136 -150 -136q-19 0 -40 3q8 14 14 27q14 30 15 50q2 25 -11 69l285 21q20 151 20 157q0 34 -31 57z" />
    <glyph glyph-name="braceleft" unicode="&#xf07b;" horiz-adv-x="951" 
d="M534 681q44 4 56.5 -8.5t12.5 -58.5q0 -12 -1.5 -59.5t-1.5 -84.5l299 13q-15 -26 -15 -58q0 -47 27 -95q-24 -2 -44 -2q-125 0 -125 89q0 14 3 32h-145q0 -128 -15 -188q-22 -86 -83 -118q-54 -28 -105 -34q-109 -13 -162 -24q3 -19 3 -35q0 -129 -198 -129q31 57 31 90
q0 31 -26 76q167 4 230 18q35 8 104 44q52 27 71 92q17 58 17 189q-40 0 -126 -6q-14 -68 -17 -76q-11 -34 -40 -48q-34 -16 -106 -16q-21 0 -45 1q43 44 43 105q0 25 -7 46l298 17q0 73 1 150q1 30 -21 57q-3 4 -3 7q0 6 24 9q33 3 66 5z" />
    <glyph glyph-name="bar" unicode="&#xf07c;" horiz-adv-x="818" 
d="M363 664q110 1 128 -3q34 -8 34 -45q0 -9 -24 -162l268 18q-18 -38 -18 -75q0 -42 27 -67q-40 -13 -75 -13q-95 0 -95 86q0 16 4 35q-19 0 -57.5 -3t-55.5 -3l-48 -340q-1 -34 -1 -38q4 -23 25 -44l-99 -9q-29 -3 -36 -3q-36 0 -36 48q0 30 11 101l42 269h-119
q-17 -147 -148 -148q-23 0 -50 6q43 49 43 111q0 21 -6 42q192 20 282 15q7 59 26 197q-36 18 -48 18q5 0 -35 -11.5t-119 -10.5q14 30 14 70q0 33 -11 67q48 11 83 11q95 0 95 -81q0 -40 -1 -38z" />
    <glyph glyph-name="braceright" unicode="&#xf07d;" horiz-adv-x="777" 
d="M435 711q17 4 35 4q50 0 85.5 -27t35.5 -72q0 -17 -5 -35q-21 -70 -147 -115l11 -70q61 10 271 34q-20 -32 -20 -65q0 -48 36 -86q-47 -10 -82 -10q-51 0 -75 23q-17 17 -20 49q0 24 -1 47q-49 -2 -113 -11q-33 -281 -33 -288q0 -46 37 -67l-105 -19q-18 -3 -29 -3
q-42 0 -42 68q0 43 38 339l-95 -14q-28 -136 -136 -136q-19 0 -41 5q31 53 31 91q0 23 -12 36l253 36q-58 81 -58 142q0 106 181 144zM423 493q50 55 50 119q0 42 -22 63.5t-54 4.5q-35 -19 -35 -62q0 -64 61 -125z" />
    <glyph glyph-name="asciitilde" unicode="&#xf07e;" horiz-adv-x="850" 
d="M777 -4q-20 -27 -20 -55t22 -61q15 -21 31 -43q-30 -4 -56 -4q-155 0 -158 140h-366q12 -117 -130 -117q-21 0 -60 4q32 50 32 82q0 29 -23 56l278 2q11 94 52 421l-108 -11q-16 -147 -184 -139q8 14 14 26q14 31 15 51q1 23 -11 64q102 13 276 26q18 153 18 157
q0 28 -20 42q45 13 94 20q10 1 18 1q50 0 50 -62q0 -18 -5.5 -65.5t-5.5 -72.5l243 21q-7 -30 -7 -56q0 -14 3 -25q6 -24 35 -60q-57 -12 -80 -12q-89 0 -91 119q-86 -9 -110 -8q-11 -78 -51 -435q-57 -3 305 -6z" />
    <glyph glyph-name="DEL" unicode="&#xf07f;" horiz-adv-x="0" 
 />
    <glyph glyph-name="Adieresis" unicode="&#xf080;" horiz-adv-x="788" 
d="M452 468q251 30 278 30q-14 -24 -14 -53q0 -47 32 -94q-37 -12 -70 -12q-50 0 -79.5 27.5t-29.5 72.5q0 11 2 23l-123 -14q-42 -433 -36 -322q0 -94 39 -111l-93 -18q-12 -2 -24 -2q-72 0 -63 89l35 352l-86 -13q6 -64 -47 -108q-47 -39 -105 -39q-15 0 -28 3
q25 33 25 79q0 35 -13 68l262 27l23 198l-69 -9q-8 -84 -189 -84q18 45 18 88q0 37 -15 62q37 15 72 15q41 0 71 -18t40 -45l264 30q16 59 81 89q47 22 96 22q-6 -22 -6 -44q0 -59 36 -103q-37 -27 -87 -27q-38 0 -75 15q-32 14 -45 30l-54 -3z" />
    <glyph glyph-name="Aring" unicode="&#xf081;" horiz-adv-x="811" 
d="M744 725q-8 -24 -8 -47q0 -47 35 -79q-12 -9 -43 -18q-36 -10 -69 -10q-75 0 -93 52l-55 -13l-17 -188q0 2 246 29q-10 -35 -10 -63q0 -45 29 -83q-46 -9 -76 -9q-97 0 -97 83q0 16 4 35l-101 -12l-12 -140q-17 -96 -66 -128q-62 -39 -195 -74q4 -20 4 -37q0 -63 -61 -85
q-34 -12 -119 -14q33 23 33 90q0 20 -3 37q49 7 89 18q96 26 134 69q61 71 60 254l-103 -15q-9 -73 -28 -99q-37 -52 -142 -52q30 43 30 98q0 23 -6 49l253 40l14 180l-61 -8q-7 -50 -72 -74q-48 -18 -111 -18q25 25 25 65q0 52 -34 74q37 24 89 24q77 0 104 -52l255 40
q25 84 136 84q12 0 42 -3z" />
    <glyph glyph-name="Ccedilla" unicode="&#xf082;" horiz-adv-x="837" 
d="M235 702q191 0 261 18q17 35 67 58q45 19 92 19q19 0 33 -4q-21 -24 -21 -57q0 -35 21 -70q-44 -12 -86 -12q-73 0 -99 39q-7 2 -33 -2q-21 -3 -29 5q-12 -48 -18 -112h58q43 0 56.5 -4.5t13.5 -24.5q0 3 -21 -126q199 9 249 9q-19 -32 -19 -64q0 -47 37 -82
q-22 -2 -40 -2q-126 0 -126 91q0 14 2 29h-107l-52 -321q-4 -25 -4 -42q0 -34 22 -47q-66 -16 -99 -16q-49 0 -59 28q-7 19 8 104l51 291q-20 -1 -85 -5q3 -6 3 -14q0 -38 -40 -75q-45 -42 -106 -42q-17 0 -34 3q28 35 28 92q0 25 -6 51l245 9q4 27 22 142h-107
q-26 0 -26 35q0 17 7 47q7 34 7 40q-16 -3 -71 -3q-47 -18 -82 -22q-40 -1 -80 -3q22 43 22 92q0 20 -4 36q31 9 59 9q95 0 90 -97z" />
    <glyph glyph-name="Eacute" unicode="&#xf083;" horiz-adv-x="788" 
d="M402 502q52 57 52 121q0 30 -12.5 48.5t-33.5 18.5q-12 0 -26 -7q-32 -17 -32 -57q0 -55 52 -124zM552 718q18 8 39 43q26 40 26 76q0 9 -2 17h92q29 0 37 -17q4 -9 4 -44q0 -28 -54.5 -56t-107.5 -28q-9 0 -17 1l-4 -6q24 -29 24 -62q0 -60 -74 -123q-62 -53 -94 -56
l11 -64l253 34q-21 -34 -21 -70q0 -46 31 -84q-46 -10 -80 -10q-52 0 -74 24q-16 17 -18 51v47q-41 -4 -96 -14q-6 -51 -24 -190q-10 -75 -10 -101q0 -44 36 -64l-105 -19q-20 -4 -32 -4q-41 0 -41 64q0 32 40 344l-95 -14q-10 -127 -128 -127q-13 0 -28 2q34 63 34 106
q0 23 -12 36l229 15q-59 82 -59 165q0 55 31 91l-143 -3q21 40 21 74q0 25 -14 57q41 5 71 5q91 0 91 -54q0 -17 -9 -50q0 -4 6 -6t6 -6q21 13 81 22q56 8 109 8q57 0 70 -10z" />
    <glyph glyph-name="Ntilde" unicode="&#xf084;" horiz-adv-x="874" 
d="M834 585q-19 -26 -19 -54q0 -17 8 -41q9 -32 10 -38q-71 -3 -111 14q-32 14 -52 44q-14 26 -29 53h-54l-32 -181q235 -6 235 0q-17 -46 -17 -71t16 -62q-82 0 -114 15q-50 23 -57 95h-73l-66 -362q92 0 243 9q-2 -73 -2 -72q1 -40 13 -70q-57 0 -113 29q-67 35 -69 86
l-304 -1q-20 -55 -57 -83q-52 -40 -150 -40q14 26 24 70.5t8 68.5q3 1 251 0l73 356h-73q-53 -80 -94 -99q-34 -16 -131 -16q47 57 47 134l258 6q0 -3 31 181h-83q-10 -43 -53 -78q-58 -49 -143 -42q20 29 26.5 56.5t3.5 81.5z" />
    <glyph glyph-name="Odieresis" unicode="&#xf085;" horiz-adv-x="679" 
d="M358 532l11 53q9 45 -22 74l81 5q23 1 37 1q51 0 51 -31q0 -8 -2 -20l-22 -149h78q56 0 53 0q16 -2 16 -24q0 -20 -28 -156l-29 -142q-8 -41 -8 -71q0 -29 7.5 -47.5t7.5 -14.5l-22 -2l-76 -7q-26 -2 -27 -2q-48 0 -48 66q0 34 12 87l59 252q3 15 3 24q0 23 -33 24
q-19 1 -52 0q-49 0 -47 0q-14 1 -14 14q0 8 10 53h-117q-2 -61 -41 -97q-43 -41 -125 -41q-24 0 -51 4q28 35 32 41q19 32 19 68q0 18 -4 36z" />
    <glyph glyph-name="Udieresis" unicode="&#xf086;" horiz-adv-x="692" 
d="M428 654q16 3 26 3q36 0 41 -45q1 -6 2 -159h58q58 0 72 -9q24 -14 25 -74q1 -88 -29 -140q-27 -47 -121 -82q-83 -32 -297 -81q0 -81 -28.5 -114.5t-100.5 -33.5q-16 0 -36 2q25 56 25 99q0 35 -15 53q301 28 389 98q64 51 64 153q0 48 -12 114l-86 -12q-25 -4 -35 -4
q-18 0 -21 15v53l-104 -6q0 -74 -43.5 -112.5t-119.5 -38.5q-16 0 -33 2q51 65 51 119q0 19 -7 35l251 22q2 57 2 68q0 42 -25 56z" />
    <glyph glyph-name="aacute" unicode="&#xf087;" horiz-adv-x="635" 
d="M311 592l3 36q2 18 -20 34l91 12q21 3 35 3q46 0 46 -39q0 -6 -2 -15l-20 -158l77 -4h56q18 -2 18 -29q0 -29 -26 -144l-32 -142q-10 -45 -10 -78q0 -31 9 -50.5t9 -15.5q0 1 -33 -2l-67 -6q-27 -2 -35 -2q-46 0 -46 52q0 37 18 111l55 225q5 31 5 45q0 23 -21 29
l-126 -1l14 119q-52 -10 -87 -47q-42 -44 -42 -111q0 -10 1 -21l-141 -25q-6 75 55 138q74 77 216 86z" />
    <glyph glyph-name="agrave" unicode="&#xf088;" horiz-adv-x="999" 
d="M763 499q29 0 50 41q20 38 20 82q0 63 -41 66q-32 -3 -52 -33t-20 -69q0 -61 43 -87zM310 472q24 118 125 166q72 34 194 34q8 2 68 23q35 12 86 12q106 0 135 -16q41 -23 41 -107q0 -48 -33 -70q-24 -17 -73 -21q-38 -2 -77 -4q-15 -2 -50.5 -13t-53.5 -11q-14 0 -27 5
q-49 19 -49 88q0 23 12 99q-80 0 -122 -71q-34 -58 -34 -141q0 -42 9 -73q10 -34 55 -34q17 0 57 6.5t60 6.5q45 0 66 -26q18 -22 18 -58q0 -28 -17 -95t-17 -98q0 -42 21 -68q-12 0 -50.5 -5t-57.5 -5q-52 0 -60 29q-7 23 -7 49q0 36 18 97t18 84q0 35 -24 59q-5 5 -21 5
q-10 0 -47.5 -4.5t-59.5 -4.5q-115 0 -109 112q0 5 1.5 15.5t1.5 16.5l-82 -12q8 -18 8 -39q0 -32 -18 -64q-25 -45 -111 -45q-14 0 -36 1.5t-28 1.5q31 41 31 77q0 29 -30 69z" />
    <glyph glyph-name="acircumflex" unicode="&#xf089;" horiz-adv-x="685" 
d="M386 699q66 0 66 -56q0 -22 -11 -68q-15 -62 -18 -82q14 -3 72 0q43 0 48 -1q25 -6 29 -36q1 -7 -37.5 -116t-32.5 -157h49q79 0 79 -71q0 -18 -5.5 -54.5t-5.5 -50.5q0 -36 26 -42l-70 -6q-19 -2 -32 -2q-64 0 -64 58q0 13 3 32q2 15 11 56q6 31 6 45q0 27 -20 36
q-12 9 -95 9q-157 0 -158 -15q-4 -70 -60 -106q-51 -32 -126 -26q35 84 30 139l272 32l81 267h-155l16 63q-37 2 -54 -1q-7 -67 -60 -101q-42 -27 -95 -27q-20 0 -33 4q16 26 32 53.5t16 58.5q0 17 -4 36q78 1 205 1q11 66 11 87q0 22 -21 41h105z" />
    <glyph glyph-name="adieresis" unicode="&#xf08a;" horiz-adv-x="447" 
d="M119 45q0 29 60.5 165.5t60.5 175.5q0 24 -25 37q-20 11 -45 11q-15 0 -45 -5t-45 -5q-40 0 -40 32q0 29 13 85t13 84q0 18 -10 25.5t-10 12.5q0 23 156 23q26 0 26 -15q0 -13 -21 -69t-21 -93q0 -41 23 -56q18 -12 60 -12q13 0 39 6.5t39 6.5q24 0 42 -17t18 -40
q0 -35 -64.5 -175t-64.5 -172q0 -9 10 -18q15 -13 17 -15q-63 -24 -124 -24q-24 0 -43 14t-19 38z" />
    <glyph glyph-name="atilde" unicode="&#xf08b;" horiz-adv-x="651" 
d="M157 674q40 0 49 -23q14 -33 7 -73q-9 -61 -9 -62q0 -24 11 -45q98 21 122 21q58 0 58 -58q0 -32 -16 -85l-3 -10h66q34 16 137 16q-5 -64 32 -128q-8 0 -37.5 -8t-42.5 -8q-63 0 -84 34q-8 13 -19 71l-58 2l-64 -209q-7 -23 -7 -44q0 -42 27 -63q-25 0 -94 -1
q-5 0 -18 -1t-20 -1q-49 0 -49 43q0 16 6 39l70 250q19 68 19 93q0 37 -32 34q-88 -25 -116 -25q-38 0 -32 41q12 85 12 109q0 35 -32 77q19 0 59.5 7t57.5 7z" />
    <glyph glyph-name="aring" unicode="&#xf08c;" horiz-adv-x="566" 
d="M526 -41q-34 -31 -96 -31q-50 0 -71 30q-10 13 -27 68l-40 1q-11 0 -58.5 -14t-56.5 -13.5t-24.5 -1t-21.5 -1.5q-36 0 -36 35q0 11 72 191.5t72 192.5q0 32 -32 32q-8 0 -66 -13.5t-78 -13.5q-14 0 -17 5q-1 2 -1 6q0 5 9.5 51.5t9.5 77.5q0 52 -24 81l95 19q26 5 42 5
q38 0 38 -37q0 -12 -7.5 -65t-7.5 -94q14 -5 30 -5q23 0 68 15t68 15q49 0 49 -43q0 -24 -16 -63q-38 -95 -132 -312q-2 -6 -2 -11q0 -19 31 -22q-4 1 46 1q37 47 80 56q39 4 78 7q-10 -31 -10 -57q0 -46 36 -92z" />
    <glyph glyph-name="ccedilla" unicode="&#xf08d;" horiz-adv-x="668" 
d="M292 673h314q-21 -21 -21 -71q0 -56 33 -85q-24 -6 -50 -6q-55 0 -91 24q-41 26 -41 74q0 20 7 43q-19 3 -38 3q-91 0 -152 -62.5t-61 -161.5q0 -26 5 -54q8 -45 67 -45q17 0 56 5t57 5q77 0 77 -66q0 -27 -21.5 -101t-21.5 -109q0 -39 20 -62q-8 0 -41 -3t-52 -3
q-67 0 -81 30q-1 4 -1 11q0 16 18.5 100t18.5 123q0 26 -7 40q-9 20 -37 20q-16 0 -60.5 -11t-66.5 -11q-49 0 -65.5 42t-16.5 85q0 97 74.5 169t177.5 77z" />
    <glyph glyph-name="eacute" unicode="&#xf08e;" horiz-adv-x="527" 
d="M487 152q0 -27 -17 -61q-25 -49 -70 -59q-114 -25 -257 -33q-88 -6 -88 61q0 44 39 121q29 53 57 105q67 131 67 146q0 14 -19 14q-14 0 -48 -7q-46 -10 -48 -11q-21 -3 -28 -3q-24 0 -24 32q0 11 2 28q5 36 5 69q0 62 -18 95l93 10q22 3 33 3q34 0 38 -30q0 -2 2 -122
q0 -49 24 -49q5 0 16 3l71 19q13 4 25 4q42 0 42 -39q0 -6 -2 -12q-7 -20 -112 -233l143 19q9 1 16 1q58 0 58 -71zM348 133q0 3 1.5 11t1.5 13q0 25 -36 25q-8 0 -19.5 2t-15.5 2q-14 0 -25 -13q-14 -25 -27 -50q-18 -38 -18 -60q0 -19 12 -28l64 1q21 0 42 40q20 35 20 57
z" />
    <glyph glyph-name="egrave" unicode="&#xf08f;" horiz-adv-x="610" 
d="M315 671q68 0 95 -6q73 -16 73 -70q0 -14 -5 -31q-1 -3 -31 -66q-25 -52 -23 -71h89q57 0 57 -31q0 -14 -11 -36l-115 -222q-37 -72 -37 -97q0 -21 13 -41l-112 -1q-3 0 -14 -1t-18 -1q-39 0 -39 28q0 15 11 39l145 303q14 30 9 50h-157l70 119q16 39 16 64q0 50 -56 50
q-20 0 -43 -7q-11 -76 -35 -108q-46 -63 -157 -55q3 8 24 51q9 20 9 36q0 21 -14 65q137 39 256 39z" />
    <glyph glyph-name="ecircumflex" unicode="&#xf090;" horiz-adv-x="735" 
d="M499 499q29 0 51 41q20 38 20 82q0 63 -42 66q-32 -3 -52 -33t-20 -69q0 -61 43 -87zM519 707q106 0 136 -16q40 -23 40 -107q0 -48 -32 -70q-25 -17 -73 -21l-78 -4q-15 -2 -52 -13q-33 -11 -52 -11q-14 0 -27 5q-48 19 -48 88q0 23 11 99q-80 0 -122 -71
q-34 -58 -34 -141q0 -42 9 -73q10 -34 56 -34q16 0 56.5 6.5t60.5 6.5q45 0 65 -26q18 -22 18 -58q0 -28 -16.5 -95t-16.5 -98q0 -42 20 -68q-12 0 -50 -5t-58 -5q-51 0 -60 29q-6 23 -6 49q0 36 17.5 97t17.5 84q0 35 -24 59q-5 5 -20 5q-11 0 -48.5 -4.5t-59.5 -4.5
q-115 0 -109 112q9 149 116 208q74 42 209 42q9 2 68 23q35 12 86 12z" />
    <glyph glyph-name="edieresis" unicode="&#xf091;" horiz-adv-x="659" 
d="M619 619q-22 -43 -22 -91q0 -44 22 -66q-77 0 -116 18q-64 31 -57 117q-21 5 -39 5q-79 0 -128 -84q-40 -67 -40 -133q0 -49 8 -69q16 -37 68 -40q15 2 54 9q29 6 42 6q42 0 42 -54q0 -59 -44 -218h175q-11 -74 9 -129q-93 -3 -138 40q-25 24 -39 72h-181
q-20 -74 -79 -97q-34 -13 -116 -13q24 21 29 56t10 71q52 -1 171 0q17 11 35 82q17 64 17 92q-1 75 -57 75q-10 0 -32 -2.5t-33 -2.5q-93 0 -93 94q0 109 78 181t198 81q-6 0 66 0h123h67z" />
    <glyph glyph-name="iacute" unicode="&#xf092;" horiz-adv-x="815" 
d="M706 743q-10 -24 -10 -50q0 -51 35 -94q-62 -19 -107 -18q-74 0 -89 51q-5 2 -18 2q-49 0 -89 -11q5 -25 5 -59q0 -77 -23 -127q141 11 131 11q53 0 53 -27q0 -25 -61.5 -167t-61.5 -205q0 -31 12 -50q-4 0 -50 -1q-40 -1 -61 0q-30 0 -32 4q-10 17 -10 44q0 52 52 181
t52 163q0 23 -14 31q-49 -17 -84 -17q-59 0 -56 32q2 25 12 72q8 40 8 64q0 23 -6 47q-25 0 -83 -7q2 -22 -34 -51q-42 -32 -93 -32q-22 0 -44 7q13 29 13 68q0 41 -13 81q39 12 71 12q77 0 101 -66l316 26l26 48q32 42 105 42q22 0 47 -4z" />
    <glyph glyph-name="igrave" unicode="&#xf093;" horiz-adv-x="756" 
d="M691 807q-13 -30 -13 -58q0 -52 38 -88q-63 -19 -90 -19q-62 0 -119 62q-8 3 -69 -4q-6 -3 -8 -42q-4 -57 -7 -75l217 -11q-6 -23 -6 -46q0 -57 29 -105q-35 -8 -64 -8q-64 0 -95 35q-26 29 -26 75q0 16 3 32q-84 14 -116 14q-86 0 -128 -62q-13 -19 -24 -57
q-12 -42 -12 -75q0 -51 31 -54q25 -2 75 10q55 13 81 13t49.5 -9.5t23.5 -52.5q0 -29 -17 -107t-17 -110q0 -50 30 -64l-84 -1q-9 0 -24.5 -1t-21.5 -1q-26 0 -38 10.5t-12 40.5q0 12 2 27.5t21 89.5q17 66 17 96q0 28 -12 39q-9 8 -30 8q-16 0 -61.5 -7.5t-69.5 -7.5
q-72 0 -84 60q-4 19 -4 36q0 78 67 128q62 46 162 55q3 43 9 120q-41 -4 -62 -4q-13 -82 -189 -82q25 20 25 61q0 45 -28 101q32 15 63 15q47 0 88 -34q28 -24 36 -43q270 18 271 20q59 83 148 83q12 0 27.5 -1.5t17.5 -1.5z" />
    <glyph glyph-name="icircumflex" unicode="&#xf094;" horiz-adv-x="652" 
d="M602 762q-5 -20 -5 -40q0 -35 15 -70l-228 -1v-78l51 6q38 4 38 -33q0 -25 -17 -69l-48 -127l92 17q38 7 54 7q28 0 28 -20q0 -17 -17 -55l-72 -162q-23 -53 -23 -83q0 -18 7 -39l-84 -12q-12 -2 -22 -2q-54 0 -54 38q0 13 7 28q5 11 19 42l68 159q8 26 8 32q0 31 -18 37
q-4 1 -51 2q-22 -7 -41 -7q-22 0 -34 9q3 18 15 45q18 36 21 43q14 37 14 63q0 50 -44 50q-17 0 -41.5 -8t-22.5 -11q-4 -49 -34 -81q-38 -42 -112 -42q-15 0 -31 2q30 46 30 87q0 13 -3 22q74 9 114 21q79 22 86 59q2 1 2 57h-225q13 36 13 52q0 18 -9 47q29 10 54 10
q44 0 69 -31q20 -25 23 -62q5 -3 258 -1q0 102 110 102q18 0 40 -3z" />
    <glyph glyph-name="idieresis" unicode="&#xf095;" horiz-adv-x="815" 
d="M544 598q65 19 114 19q123 0 117 -115q-4 -85 -139 -85q-17 0 -34 2q-68 -7 -87 -7q-34 0 -55 8q-34 13 -34 53q0 49 43 112q-116 3 -154 -24q-52 -36 -67 -166q-9 -77 77 -77q6 0 118 16q52 7 52 -57q0 -26 -11.5 -95t-11.5 -101q0 -43 16 -64q-15 0 -64 -7
q-6 -1 -31 -6q-21 -4 -32 -4q-44 0 -39 58q4 44 18 113q12 60 12 80q0 49 -56 49q-17 0 -51 -5t-51 -5q-100 0 -99 105q1 78 69 140q54 48 112 61l4 103l-47 -2q-33 -70 -163 -70q-14 0 -26 1q18 23 18 50q0 25 -22 70q66 16 97 16q29 0 50 -13q13 -8 47 -39l282 24
q14 49 81 60q15 3 88 3q-3 -9 -7 -18.5t-4 -19.5q0 -27 33 -74q-52 -22 -105 -22q-73 0 -91 54l-92 -11l-4 -104q58 9 129 -6zM596 431q25 0 42 32t17 68q0 58 -39 61q-27 -2 -41.5 -29t-14.5 -61q0 -65 36 -71z" />
    <glyph glyph-name="ntilde" unicode="&#xf096;" horiz-adv-x="609" 
d="M229 531l131 24q24 -28 24 -60q0 -34 -24 -62l-131 -25q32 29 32 63q0 32 -32 60zM60 313l479 36v-20l-479 -36v20zM229 219l131 24q24 -28 24 -60q0 -34 -24 -63l-131 -24q32 29 32 63q0 32 -32 60z" />
    <glyph glyph-name="oacute" unicode="&#xf097;" horiz-adv-x="406" 
d="M148 503l131 25q24 -29 24 -61q0 -34 -24 -63l-131 -24q32 29 32 63q0 32 -32 60zM101 572l230 36v-21l-230 -37v22zM148 288l131 24q24 -28 24 -61q0 -34 -24 -63l-131 -24q32 29 32 63q0 32 -32 61zM101 95l230 37v-20l-230 -37v20z" />
    <glyph glyph-name="ograve" unicode="&#xf098;" horiz-adv-x="651" 
d="M611 754q-36 -66 -36 -96q0 -21 11 -38q-48 -2 -178 -4l-6 -79q23 -6 73 -9q47 -3 47 -1q-8 -35 -8 -70q0 -46 15 -79q-146 9 -143 127q-49 16 -80 13q-58 -6 -92 -79q-25 -56 -25 -115q0 -33 17.5 -57.5t44.5 -26.5q22 -3 53 19q46 34 66 43q15 7 27 7q42 0 42 -84
q0 -44 -12 -114q-8 -43 -16 -85q2 -3 80 0q76 3 100 6q-6 -27 -6 -58q0 -50 17 -82q-80 0 -108 23q-9 8 -64 88q0 -2 -84 -7q-42 -1 -84 -3q-17 -25 -34 -49q-21 -27 -53 -40q-41 -17 -116 -19q32 60 29 128q36 0 110 5q67 4 69 5q26 63 26 142q0 51 -31 51
q-9 0 -56.5 -26.5t-71.5 -24.5q-50 2 -76 60q-18 39 -18 71q0 103 64 165q54 54 144 70q4 8 4 30v31q1 10 4 18q0 2 -89 1q-85 -2 -97 -3q20 30 20 69q0 31 -12 70q87 0 122 -31q25 -23 33 -81q6 -1 204 0q20 67 54 95q31 25 86 25q16 0 34 -1z" />
    <glyph glyph-name="ocircumflex" unicode="&#xf099;" horiz-adv-x="677" 
d="M301 504l144 15q-2 -3 -115 -176l118 22q30 6 41 6q58 0 82 -88q8 -28 17 -98l14 -114q9 -61 35 -71l-100 -12q-9 -1 -16 -1q-32 0 -44 29q-9 23 -19 108q-15 130 -43 170q-19 26 -57 26q-19 0 -45 -6q-88 -136 -99 -222q-2 -13 -2 -24q0 -27 21 -59l-91 -12
q-25 -3 -41 -3q-61 0 -61 45q0 79 110 253q2 3 139 197l-82 -10q-9 -1 -15 -1q-36 0 -41 48q1 -10 1 127q0 28 -16 34l68 8q51 9 78 4q15 -3 18 -23q1 -5 1 -40v-132z" />
    <glyph glyph-name="odieresis" unicode="&#xf09a;" horiz-adv-x="698" 
d="M250 514q-13 0 -28 -2.5t-18 -2.5q-12 0 -15.5 18t-4.5 84q-1 53 -17 76q-13 19 -13 23q2 9 105 19l61 3v-202l140 1l-124 -157q26 2 82 12q48 9 70 9t36 -6q55 -24 68 -110q5 -78 11 -155q9 -84 55 -102l-83 -21q-20 -5 -36 -5q-65 0 -75 81q-6 80 -12 161
q-18 101 -86 110q-32 4 -55 -19q-14 -14 -50 -71l-34 -52q-17 -31 -17 -54q0 -26 21 -49l-92 -5q-37 -2 -39 -2q-60 0 -60 51q0 63 169 257q36 37 94 109z" />
    <glyph glyph-name="otilde" unicode="&#xf09b;" horiz-adv-x="657" 
d="M152 708q69 0 63 0q31 -1 40 -10q15 -15 15 -40q0 -37 -23 -66h137l-81 -113q97 0 114 4l-107 -152q23 0 64 6t59 6q44 0 72 -28t43 -110l22 -134q16 -66 47 -70h-88q-52 0 -62 2q-31 8 -36 41q-6 48 -11 95q-11 77 -29 120q-25 59 -65 59q-37 0 -75 -78
q-51 -104 -51 -165q0 -57 44 -76q-59 0 -105 1q-71 1 -76 2q-22 8 -23 53q-1 65 80 196q78 128 164 208h-137l80 109h-166q26 24 26 64q0 35 -22 76h87z" />
    <glyph glyph-name="uacute" unicode="&#xf09c;" horiz-adv-x="629" 
d="M305 478q47 3 116 8q-12 -24 -56 -92q-16 -27 -32 -55q12 1 48 6.5t56 5.5q47 0 72 -25q48 -47 48 -139v-20q1 -64 32 -78l-64 -15q-18 -4 -34 -4q-71 0 -71 75q0 88 -7 117q-15 52 -65 52q-12 0 -27 -3q-21 -4 -73 -111q-48 -102 -50 -126q-2 -43 1 -49q7 -7 13 -14
l-107 -14q-9 -1 -17 -1q-52 0 -48 74q3 53 121 207l137 178h-94q-33 0 -33 67q0 7 1 47q1 33 0 57q0 8 -15.5 22t-28.5 16h178z" />
    <glyph glyph-name="ugrave" unicode="&#xf09d;" horiz-adv-x="843" 
d="M276 0zM365 112zM458 516l143 19q-2 -3 -124 -175l119 20l51 8q51 0 75 -76q35 -111 33 -222q0 -57 48 -72l-90 -20q-32 -7 -46 -7q-44 0 -53 76q-7 62 -27 184q-11 44 -25 61q-20 25 -61 25q-15 0 -33 -3q-92 -144 -103 -222q-2 -15 -2 -28q0 -31 14 -44q1 -1 29 -17
l-130 -23q-32 -6 -44 -6q-40 0 -44 42q-7 73 79 217q72 118 172 249l-89 -13q-13 -2 -18 -2q-15 0 -20.5 12.5t-5.5 50.5v115h-232q0 8 2 19.5t2 17.5q0 29 -38 93q24 2 43 2q78 0 108 -32q15 -16 31 -74h320q17 119 163 119q20 0 41 -3q-45 -55 -45 -98q0 -22 12 -42h-255
v-151z" />
    <glyph glyph-name="ucircumflex" unicode="&#xf09e;" horiz-adv-x="598" 
d="M222 728l-19 -211q56 51 174 51q64 0 109 -21q51 -25 63 -72q8 -28 8 -62q0 -16 -8 -88l-20 -197q-2 -26 -2 -44q0 -35 10 -51q11 -12 21 -24l-92 -10q-10 -1 -20 -1q-58 0 -58 65q0 14 5 74l22 250q5 51 5 72q0 90 -69 93q-70 2 -110 -110q-35 -96 -35 -228
q0 -144 37 -192l-100 -20q-38 -9 -57 39q-18 43 -18 120q0 106 28 207q30 108 70 129v13l-113 -4l12 165q0 62 -25 81q28 3 85 11q37 5 56 5q26 0 34.5 -9t6.5 -31z" />
    <glyph glyph-name="udieresis" unicode="&#xf09f;" horiz-adv-x="594" 
d="M167 756q51 7 51 -56q0 -27 -12 -93t-13 -93q76 41 165 41q112 0 169 -68q27 -32 27 -96q0 -46 -19 -151t-19 -149q0 -66 29 -95q-136 0 -92 -1q-64 2 -73 20q-13 28 -13 51q0 37 45 286q6 35 6 66q0 109 -64 114q-66 5 -111 -69q-41 -67 -41 -153q0 -71 32 -107
q-3 -2 -80 -9q-15 -2 -27 -2q-64 0 -64 61q0 148 97 233l1 21l-121 1q32 112 32 173q0 45 -20 50q34 9 115 25z" />
    <glyph glyph-name="degree" unicode="&#xf0a1;" horiz-adv-x="644" 
d="M116 745q8 0 22 1t21 1q30 0 43 -18q16 -23 16 -87q0 -53 -11 -141q19 19 80 36q68 19 132 19q116 0 157 -63q28 -44 28 -98q0 -45 -30 -145.5t-30 -155.5q0 -51 18 -96q-10 0 -42 -1.5t-50 -1.5q-58 0 -66.5 16t-8.5 43q0 44 39.5 175.5t39.5 190.5q0 47 -18 77
q-21 36 -64 36q-44 0 -87 -39q-48 -43 -72 -116q62 0 71 -3q-31 -60 -63 -153q-39 -115 -39 -176q0 -33 12 -47q-126 0 -83 -1q-64 2 -71 16q-9 20 -9 46q0 53 42 151q49 116 53 133q-30 -6 -70 -6q0 36 19 67q22 36 80 83q-107 -3 -129 0q16 76 16 134q0 73 -22 104
q22 9 76 19z" />
    <glyph glyph-name="cent" unicode="&#xf0a2;" horiz-adv-x="621" 
d="M227 727l-1 -228q57 41 164 41q101 0 145 -54q32 -40 32 -96q0 -26 -9 -76t-9 -72q0 -50 32 -79q-3 0 -85 -3q-35 -1 -33 -1q-30 0 -42 13q-16 18 -13 66q2 29 15 103q12 68 12 99q0 65 -42 78q-18 6 -35 6q-91 0 -122 -185q-22 -132 -22 -196q0 -80 22 -143
q-56 0 -54 -2q-61 -1 -75 7q-22 13 -23 69q-4 159 23 267q27 112 81 139q-53 -1 -112 -1q-1 193 -1 199q-4 38 -35 48q5 0 80 1h107z" />
    <glyph glyph-name="sterling" unicode="&#xf0a3;" horiz-adv-x="741" 
d="M395 377q3 25 3 49q0 136 -72 137q-55 1 -88 -51q-31 -47 -32 -116l-1 -76h-127v54q0 58 32 98q9 12 52 47l-1 9l-121 1q32 112 32 173q0 45 -20 50q25 6 62 15q25 6 53 10q11 2 20 2q44 0 44 -47q0 -16 -5 -39l-33 -158q47 41 133 43q211 4 211 -168q0 -16 -2 -34
l-15 -141l90 -11q72 -9 65 -76q-7 -74 26 -125l-88 -21q-14 -3 -25 -3q-44 0 -42 65q0 11 3 43q2 29 2 44q0 50 -20 62h-83q-67 -2 -77 -14q1 -50 -51.5 -91.5t-113.5 -41.5q-15 0 -28 3q22 35 22 79q0 27 -9 53q143 8 189 34z" />
    <glyph glyph-name="section" unicode="&#xf0a4;" horiz-adv-x="803" 
d="M424 488q76 45 184 45q107 0 139 -63q16 -31 16 -80q0 -48 -21.5 -154.5t-21.5 -150.5q0 -56 23 -86l-95 -1q-44 0 -52 4q-14 7 -14 41q0 19 4 64q1 11 22 147q17 115 17 173q0 81 -31 82q-100 3 -142 -194q-21 -99 -21 -202q0 -98 24 -113l-58 -8q-55 -9 -77 1
q-40 17 -40 115q0 101 37 211q38 115 85 140l-129 6l20 181l-70 -4q-8 -74 -153 -74q-17 0 -30 1q17 39 17 80q0 42 -17 81q34 7 68 7q110 0 116 -74l275 30q15 82 140 82q26 0 50 -4q-20 -47 -20 -63q0 -22 32 -78q-87 -14 -104 -14q-66 0 -100 60l-57 -12z" />
    <glyph glyph-name="bullet" unicode="&#xf0a5;" horiz-adv-x="802" 
d="M682 766q-20 -46 -20 -69q0 -10 20 -68q-30 -15 -67 -15q-68 0 -121 46l-58 -6l-17 -179q26 20 83 36.5t99 16.5q85 0 116 -22q45 -33 45 -133q0 -49 -10 -118q-24 -167 -24 -192q0 -43 13 -64l-112 -3q-42 -1 -42 78q0 50 19 154q31 166 31 199q0 80 -50 79
q-75 -2 -116 -108q-33 -86 -33 -142q0 -36 15 -51l-109 -21q-5 -1 -10 -1q-36 0 -36 62q0 15 2 36q6 60 30 104q20 35 64 80l-122 -9l19 182l-60 -3q-8 -42 -88 -63q-60 -16 -100 -12q17 59 17 76q0 26 -20 71q43 17 81 17q83 0 111 -68l252 23q37 90 160 90q21 0 38 -3z
" />
    <glyph glyph-name="paragraph" unicode="&#xf0a6;" horiz-adv-x="818" 
d="M438 506q16 16 66.5 28.5t105.5 12.5q108 0 140 -48q28 -43 28 -99q0 -42 -24.5 -140t-24.5 -152q0 -55 19 -104l-93 -4q-25 -1 -23 -1q-49 0 -49 65q0 37 13 96q17 74 34 147q21 94 21 145q0 80 -50 80q-15 0 -33.5 -6t-37.5 -10q-24 -9 -45 -32q-27 -31 -54 -94
q19 0 53 -1q-19 -37 -33.5 -117.5t-14.5 -152.5q0 -86 22 -112l-92 -7q-72 -6 -78 89q-4 72 13.5 155.5t42.5 111.5q-15 -3 -58 -3q29 78 126 141q-111 -7 -120 -1q22 44 22 98q0 39 -10 72q6 1 6 2q0 3 -78 3q-25 -67 -136 -67q-12 0 -31 1t-25 1q22 40 22 84q0 35 -16 66
q36 6 65 6q64 0 93 -30q14 -22 28 -45q110 8 297 18q7 95 149 95q17 0 31 -2q-15 -28 -15 -64q0 -44 24 -86q-51 -18 -91 -18q-74 0 -98 60l-79 -12q8 -98 -12 -169z" />
    <glyph glyph-name="germandbls" unicode="&#xf0a7;" horiz-adv-x="806" 
d="M697 759q-17 -50 -17 -59q0 -16 17 -76q-58 -12 -80 -12q-78 0 -107 62l-63 -8l-19 -178q56 23 63 25q46 15 95 15q104 0 141 -26q42 -30 39 -120q-1 -37 -9.5 -85.5t-8.5 -67.5q0 -33 16 -65q-93 -16 -101 -16q-2 0 -7 -1h-10q-40 0 -40 65q0 29 21.5 121t21.5 119
q0 24 -20 39.5t-48 15.5q-70 0 -124 -147q-48 -133 -48 -269q0 -52 9 -86q-38 -5 -96 -5q-44 0 -52 14q-6 11 -6 80q0 120 34 206q32 81 109 172l-133 -1q3 68 14 184l-56 -5q-56 -69 -139 -69q-18 0 -53 5q25 49 25 79q0 19 -18 64q43 14 80 14q88 0 106 -78l277 27
q29 74 122 74q29 0 65 -7z" />
    <glyph glyph-name="registered" unicode="&#xf0a8;" horiz-adv-x="756" 
d="M608 630q62 0 87 -56q21 -46 21 -141q0 -171 -89 -242q-24 -19 -81 -27q-27 -3 -120 -8q-47 -8 -81 -4q-47 -16 -95 -32q-67 -20 -98 -15q-67 11 -89.5 43t-22.5 112q0 139 43 210q40 67 142 109t246 42l-2 -19q108 28 139 28zM177 260q0 -122 61 -122q39 0 58 39l34 404
q-81 12 -123 -126q-30 -97 -30 -195zM437 231q0 -30 7 -42q10 -17 38 -17q33 0 57 33q22 29 32 76t10 145q0 87 -3 103q-12 63 -65 63q-19 0 -45 -9z" />
    <glyph glyph-name="copyright" unicode="&#xf0a9;" horiz-adv-x="952" 
d="M437 238q0 -62 60 -62t83 111q19 90 19 167q0 8 1 27t1 29q0 76 -55 76q-22 0 -54 -11zM177 267q0 -118 61 -118q39 0 58 35l65 404q-89 11 -143 -127q-41 -104 -41 -194zM632 180h103q2 21 44 37q38 14 81 14q29 0 44 -7q-15 -36 -15 -67q0 -38 23 -80q-31 -6 -59 -6
q-56 0 -87 22.5t-31 58.5q0 6 1 13h-133q-28 -10 -109 -8q-17 -4 -74 -2q-52 1 -75 4q-42 -14 -85 -27q-59 -17 -93 -17q-73 0 -103 41q-24 34 -24 111q0 138 43 210q40 67 142 109q77 32 279 32l-2 -24q52 11 137 24q67 1 86 -51q11 -32 11 -137q0 -73 -24 -138
q-28 -78 -80 -112z" />
    <glyph glyph-name="trademark" unicode="&#xf0aa;" horiz-adv-x="717" 
d="M391 647q68 15 121 15q90 0 135 -42q38 -36 38 -96q0 -23 -6 -47q-18 -72 -80 -117q-57 -40 -122 -40q-36 0 -65 13q-30 -225 -30 -276q0 -28 17 -49l-131 -11q-28 -2 -28 49q0 16 3 38l33 237q-52 -19 -100 -19q-61 0 -97 31q-39 33 -39 92q0 29 9 62q45 162 290 162
q25 0 52 -2zM418 353q12 -2 23 -2q52 0 77 46q17 32 25 98q2 18 2 35q0 110 -71 110q-8 0 -17 -2q-11 -70 -39 -285zM281 348q6 47 35 278q-48 3 -82 -41q-32 -40 -43 -105q-6 -38 -6 -66q0 -78 48 -78q12 0 48 12z" />
    <glyph glyph-name="acute" unicode="&#xf0ab;" horiz-adv-x="1010" 
d="M716 427q0 -60 -18 -116q-24 -70 -71 -108q-25 -20 -81 -27q-26 -4 -120 -8q-23 -4 -81 -4q-48 -16 -96 -33q-67 -20 -97 -15q-67 10 -89.5 42.5t-22.5 112.5q0 138 43 210q40 67 142 109t246 42l-2 -19q108 29 139 29q61 0 87 -56q21 -47 21 -141v-3l62 3q32 49 72 63
q25 9 91 11q-2 -19 -2 -41q0 -76 31 -103q-12 0 -45.5 -8.5t-53.5 -8.5q-61 0 -95 71zM177 271q0 -121 61 -121q39 0 58 39l34 403q-81 12 -123 -127q-30 -96 -30 -194zM437 243q-5 -59 45 -59q33 0 56.5 31t32.5 76t9 146q0 87 -3 103q-12 63 -64 63q-20 0 -46 -9z" />
    <glyph glyph-name="dieresis" unicode="&#xf0ac;" horiz-adv-x="804" 
d="M347 663l154 14l1 -12l89 11q14 2 28 2q145 0 145 -142q0 -26 -6 -57q-15 -88 -89 -128q-57 -31 -140 -31q-37 0 -71 6q-149 -109 -191 -147q-79 -71 -79 -122q0 -24 15 -46l-122 -11q-41 19 -41 51q0 47 90 127q56 50 190 146q-73 -6 -99 -6q-118 0 -129 73q-2 18 -2 35
q0 91 61 154q69 71 196 83zM232 468q-5 -24 -5 -45q0 -81 71 -81q20 0 44 8l27 299q-94 -1 -137 -181zM474 342q56 -31 104 43q44 68 44 156q0 111 -78 111q-18 0 -40 -7z" />
    <glyph glyph-name="notequal" unicode="&#xf0ad;" horiz-adv-x="560" 
d="M355 638q19 5 35 5q68 0 101 -74q29 -62 29 -167q0 -147 -43 -252q-21 -51 -72 -66q-54 -13 -109 -25q-20 -6 -73 -37q-43 -24 -72 -24q-14 0 -28 4q-35 11 -59 58.5t-24 105.5q0 212 15 282q18 86 119 134q50 24 181 56zM185 301q-5 -44 -5 -81q0 -155 78 -155
q45 0 69 45q18 34 27 98q6 47 11 93q10 60 10 117q0 83 -20.5 136t-58.5 53q-50 0 -76 -64q-20 -47 -27 -132z" />
    <glyph glyph-name="AE" unicode="&#xf0ae;" horiz-adv-x="580" 
d="M275 664q15 3 29 6q28 5 52 5q79 0 111 -52q16 -25 16 -57q0 -41 -28.5 -103.5t-28.5 -70.5q0 -5 3 -7q16 -13 52 -13q11 0 31 1.5t28 1.5q29 0 29 -23q0 -28 -61 -147.5t-61 -161.5q0 -36 34 -41q-160 -5 -180 6q-8 8 -8 22q0 24 36 103q52 111 103 222q-20 19 -28 17
q-171 -38 -227 -38q-143 0 -137 131q5 96 74 151q65 50 161 48zM180 484q-11 -49 -11 -72q0 -48 41 -48q53 0 95 70q39 66 39 135q0 85 -63 85q-62 0 -101 -170z" />
    <glyph glyph-name="Oslash" unicode="&#xf0af;" horiz-adv-x="537" 
d="M295 694q43 2 61 -14q14 -14 14 -48q0 -15 -4.5 -61.5t-4.5 -77.5q68 2 104 -48q32 -44 32 -118q0 -112 -59 -202q-27 -40 -145 -83.5t-190 -41.5q-31 1 -47 45q-16 40 -16 103q0 132 53 218q25 41 72.5 75t58.5 50q15 23 15 90q0 58 -14 113h70zM184 228q-9 -52 -9 -95
q0 -108 53 -104q52 4 93 106q39 96 39 198q0 144 -78 140q-43 -2 -72 -105q-10 -37 -26 -140z" />
    <glyph glyph-name="infinity" unicode="&#xf0b0;" horiz-adv-x="561" 
d="M400 703q20 9 37 9q40 0 63 -47q21 -43 21 -106q0 -76 -28 -122q-25 -41 -98 -77q-98 -48 -111 -57q-37 -27 -71.5 -99.5t-34.5 -131.5q0 -53 32 -72q-6 0 -31.5 -1t-42.5 -1q-74 0 -85 18t-11 42q0 59 47 125q52 73 132 112q-32 26 -55 74q-25 54 -25 110t26.5 104.5
t72.5 61.5q105 30 162 58zM325 354q69 51 69 186q0 60 -17.5 96.5t-45.5 23.5q-60 -27 -60 -150q0 -59 15.5 -106.5t38.5 -49.5z" />
    <glyph glyph-name="plusminus" unicode="&#xf0b1;" horiz-adv-x="541" 
d="M426 612q14 1 24 1q28 0 39.5 -11.5t11.5 -41.5q0 -28 -15 -124q-20 -136 -31 -227q-13 -116 -13 -143q0 -32 22 -70q-1 2 -72 0q-53 0 -64 3q-25 8 -24 40q2 47 44 348q-34 0 -139 -11q-35 -284 -35 -325q0 -39 22 -50l-81 -6q-25 -2 -35 -2q-23 0 -31.5 8t-8.5 30
q0 19 9 85q13 90 19 156q21 209 21 229q0 56 -34 74l113 1q10 2 17 2q36 0 36 -51q0 -14 -3 -55q-4 -45 -5 -72q46 3 139 13q16 144 16 143q0 42 -25 49z" />
    <glyph glyph-name="lessequal" unicode="&#xf0b2;" horiz-adv-x="522" 
d="M439 309q-10 -293 13 -308l-94 -2q-50 -1 -50 56q0 8 1 26t1 26q0 103 10 293l-127 -35q-3 -44 -3 -84q0 -82 14 -99l-83 -19q-17 -4 -26 -4q-18 0 -23.5 16t-5.5 62q0 4 2 120q0 12 1.5 40t1.5 43q0 67 -31 103l79 19q15 4 26 4q44 0 45 -61q0 -23 2 -61.5t2 -53.5
l128 33q8 104 -14 175l78 15q7 1 14 1q51 0 51 -104q0 -32 -5 -98q-6 -74 -7 -103z" />
    <glyph glyph-name="greaterequal" unicode="&#xf0b3;" horiz-adv-x="717" 
d="M617 622q10 2 18 2q42 0 42 -63q0 -10 -25 -249q-27 -254 -27 -261q0 -41 23 -52q-12 -2 -66 0q-66 3 -70 4q-19 6 -19 41q0 22 7 80q10 90 29 273q-35 0 -129 -25q-34 -242 -34 -300q0 -59 31 -73q-22 -3 -64 0q-70 0 -78 3q-23 7 -23 48q0 21 28 242q15 121 15 166
q0 47 -13.5 68t-46.5 21q-13 0 -32 -4q7 -52 -26 -89.5t-84 -37.5q-15 0 -30 4q16 16 16 42q0 31 -19 62q37 10 112 27q96 23 128 23q25 0 47 -6q81 -22 81 -169q45 8 125 24q13 86 13 127q0 29 -7 42q-7 8 -13 16q2 0 91 14z" />
    <glyph glyph-name="yen" unicode="&#xf0b4;" horiz-adv-x="517" 
d="M399 633q13 2 24 2q54 0 54 -71q0 -14 -13 -140q-14 -136 -14 -165q0 -41 14 -65q-1 2 -81 0q-32 0 -39 2q-26 6 -25 35q2 59 9 183q-43 -8 -125 -20q-33 -270 -33 -321q0 -46 23 -57l-78 -15q-23 -4 -36 -4q-39 0 -39 51q0 23 7 85q11 94 15 139q10 110 10 189
q0 99 -17 114l86 16q10 2 17 2q51 0 51 -104q0 -31 -4 -76l129 18q8 78 8 107q0 60 -26 82z" />
    <glyph glyph-name="mu" unicode="&#xf0b5;" horiz-adv-x="1037" 
d="M963 627q-3 -21 -3 -39q0 -67 37 -92q-59 -11 -94 -11q-91 0 -91 86q0 14 2 31q-54 -1 -81 -40t-37 -160l-25 -306q-6 -71 28 -85l-53 -12q-44 -10 -71 -10q-14 0 -24 10q-18 16 -13 72l28 337l-122 -15l-30 -339q8 -35 19 -37l-64 -18q-29 -8 -43 -8q-20 0 -33 14t-6 93
l37 410q-6 46 -34 64q-13 8 -29 8q-22 0 -45 -14q2 -13 2 -25q0 -105 -152 -105q-14 0 -26 1q29 43 29 93q0 22 -5 39q33 4 148 19q72 10 106 10q55 0 87 -22q47 -33 47 -113q0 -23 -3 -51l122 16q9 114 94 163q52 30 298 36z" />
    <glyph glyph-name="partialdiff" unicode="&#xf0b6;" horiz-adv-x="1034" 
d="M964 638q-3 -19 -3 -35q0 -73 43 -97q-56 -15 -95 -15q-94 0 -94 84q0 14 3 31l-40 -10q-24 -8 -34 -24q-19 -29 -25 -74q-1 -9 -6 -84l-22 -355q4 -34 27 -47l-78 -19q-16 -4 -30 -4q-48 0 -51 47l20 370q-33 -9 -123 -31q-11 -114 -11 -148q0 -10 1 -11q3 -26 20 -34
l-57 -17q-27 -8 -46 -8q-47 0 -53 44l17 255q-10 98 -74 98q-12 0 -26 -3q-9 -92 -52 -120q-35 -22 -135 -22q31 40 31 84q0 26 -11 50q73 12 147 24t116 12q53 0 82 -17q62 -37 54 -166l122 30q5 105 60.5 145.5t198.5 54.5z" />
    <glyph glyph-name="summation" unicode="&#xf0b7;" horiz-adv-x="1013" 
d="M193 682q10 -1 215 -1q3 118 132 118q11 0 20 -1q-17 -49 -17 -79q0 -26 9 -52l-195 1v-119q19 -7 37 -15q24 -11 37.5 -44t13.5 -81q0 -37 -6 -100l114 11q7 78 13 107q17 77 60.5 106.5t105.5 37.5q20 3 129 8l92 4q-11 -24 -11 -51q0 -58 31 -76q-40 -15 -76 -15
q-109 0 -103 113q-50 6 -74 -34q-20 -35 -33 -178q-15 -167 -22 -279q2 -40 19 -54l-74 -15q-31 -6 -43 -6q-25 2 -30 22.5t-2 62.5l16 227l-114 -13l-21 -229q-2 -23 1 -30t17 -21l-50 -11q-26 -6 -53 -6q-34 0 -42 12q-5 7 -4 31q2 61 32 382q1 13 1 24q0 67 -35 89
q-11 7 -56 7q-3 -72 -42.5 -109t-101.5 -37q-16 0 -33 2q22 44 22 77q0 21 -6 60l172 26q0 66 -1 112h-182q11 27 11 53q0 41 -26 75q19 1 27 1q115 0 126 -113z" />
    <glyph glyph-name="product" unicode="&#xf0b8;" horiz-adv-x="1001" 
d="M429 396l120 12l10 45q16 73 76 101q50 25 151 24l156 -1q-9 -31 -9 -58q0 -47 28 -61q-50 -22 -82 -22q-24 0 -48 12q-41 21 -41 67q0 19 6 44q-44 2 -67.5 -19t-47.5 -106l-29 -204q-6 -42 22 -61l-76 -12q-42 -7 -65 5q-17 8 -16 46l28 179l-120 -13l-44 -305
q-1 -31 -1 -33q1 -2 14 -23l-60 -10q-23 -1 -60 -4q-13 -3 -20.5 14t-6.5 47l50 334q10 64 10 96q0 33 -10 53q-12 26 -72 23q-9 -63 -48 -97q-35 -31 -86 -31q-25 0 -51 8q40 77 40 118q0 8 -2 14l138 3q144 3 179 -22q41 -29 41 -95q0 -29 -7 -68z" />
    <glyph glyph-name="pi" unicode="&#xf0b9;" horiz-adv-x="525" 
d="M268 657q43 4 77 4q79 0 112 -27q28 -22 28 -69q0 -23 -7 -62q-12 -70 -71 -103q-44 -24 -117 -28q-50 -1 -101 -2q-3 -10 -3 -18q0 -18 19 -42q22 -29 28 -50q10 -31 10 -69q0 -26 -5.5 -71.5t-5.5 -65.5q0 -32 10 -53h-80q-47 0 -59.5 5t-12.5 25q0 6 1 21q2 20 2 30
l5 102q4 71 -13 98q-45 71 -45 138q0 45 14 95q32 121 214 142zM177 391q79 11 135 84q48 63 48 122q0 52 -41 42q-54 -14 -99 -84t-45 -142q0 -11 2 -22z" />
    <glyph glyph-name="integral" unicode="&#xf0ba;" horiz-adv-x="607" 
d="M179 395q65 17 118 91q49 68 49 122t-57 39q-48 -12 -82 -70t-34 -128q0 -28 6 -54zM231 277q285 13 283 15q-2 -11 -2 -22q0 -57 55 -109q-59 -14 -105 -14q-125 0 -121 107l-100 -1q10 -27 10 -73l1 -180h-141l1 165q0 65 -20 105q-28 55 -34 72q-18 47 -18 97
q0 37 9 78q21 99 176 139q72 19 124 19q121 0 121 -99q0 -17 -4 -36q-22 -115 -106 -147q-47 -19 -185 -19q-1 -23 20 -49q30 -37 36 -48z" />
    <glyph glyph-name="ordfeminine" unicode="&#xf0bb;" horiz-adv-x="782" 
d="M733 14q-27 -4 -50 -4q-132 0 -132 105q0 10 1 21h-119q-35 0 -44 4q-18 9 -18 42q-46 -1 -105 -1q-1 -18 -5 -54q-3 -32 -3 -48q0 -44 23 -77q-7 -1 -96 -5q-44 -2 -56.5 3.5t-12.5 27.5q0 5 1 23t1 31q-3 75 -1 110q1 23 -13 53q-12 24 -24 48.5t-24 50.5
q-16 42 -16 88q0 39 12 81q13 46 66 86t128 61q66 17 114 17q124 0 124 -110q0 -17 -4 -38q-23 -128 -142 -154q-53 -13 -152 -8q-3 -28 28 -64q39 -45 44 -57.5t7 -44.5h109l6 56q1 9 1 16q0 25 -25 46l94 11q10 1 19 1q56 0 56 -51q0 -10 -2 -22l-9 -54q-3 -13 -3 -23
q0 -22 18 -27h37h176q-30 -32 -30 -72q0 -33 21 -68zM290 639q-49 -26 -79 -105q-28 -73 -25 -143q8 -2 22 0q87 29 133 133q20 44 20 79q0 47 -34 47q-16 0 -37 -11z" />
    <glyph glyph-name="ordmasculine" unicode="&#xf0bc;" horiz-adv-x="697" 
d="M536 648q56 0 88.5 -28t32.5 -78q0 -39 -20 -85q-46 -109 -272 -109q9 -80 39 -173q28 -85 28 -82q-105 -21 -147 -36q-27 -12 -55 -24q7 -49 -45 -86q-48 -34 -109 -34q-19 0 -36 5q32 36 32 78q0 34 -24 65q33 26 76 26q53 0 100 -36l70 31q-6 28 -46 150
q-31 93 -31 155q0 46 15 89q32 90 98 130q71 42 206 42zM362 371q65 14 119 90q50 69 50 124q0 54 -57 35q-58 -20 -85 -78t-27 -171z" />
    <glyph glyph-name="Omega" unicode="&#xf0bd;" horiz-adv-x="754" 
d="M230 702q42 10 81 10q71 0 115.5 -32.5t44.5 -85.5q0 -10 -2 -21q-17 -98 -100 -131q-49 -19 -183 -26q-2 -17 21 -57q29 -50 36 -73q8 -27 8 -63q0 -24 -4.5 -69.5t-4.5 -67.5q0 -54 23 -86q-145 -10 -154 4t-3 68q10 82 10 114q0 55 -14 101q-19 39 -37 77
q-27 56 -27 112q0 40 12 85q28 104 178 141zM182 428q62 23 115 102q51 75 51 128q0 54 -62 30q-46 -18 -78 -76.5t-32 -127.5q0 -29 6 -56zM521 161q27 4 43 33q15 26 15 57q0 50 -33 47q-59 -5 -66 -69q-3 -32 5 -50q11 -21 36 -18zM227 326l145 1q19 0 47.5 1.5t41.5 1.5
q49 0 108 -16q101 -5 131 -49q16 -22 13 -73q-4 -79 -81 -79q-47 0 -106 28q-38 -4 -65 -4q-76 0 -111 32q-13 11 -13 41q0 40 20 98q-5 0 -135 -1q8 56 5 19z" />
    <glyph glyph-name="ae" unicode="&#xf0be;" horiz-adv-x="784" 
d="M336 368q96 15 137 125q22 61 22 95q0 47 -44 42q-118 -12 -118 -196q0 -13 3 -66zM632 516q-34 -189 -297 -175q1 -76 24 -150q31 -93 82 -113q21 -9 45 -9q46 0 80.5 29t34.5 80q0 31 -14 67h87q49 0 59.5 -8t10.5 -52q0 -69 -75 -108q-63 -33 -143 -33q-43 0 -97.5 14
t-88.5 35l-114 -1q-1 -46 -22 -86q-44 -83 -164 -83q36 56 36 111q0 28 -12 49l183 32q-59 161 -59 273q0 234 250 267q24 3 45 3q73 0 113 -35q38 -31 38 -83q0 -12 -2 -24z" />
    <glyph glyph-name="oslash" unicode="&#xf0bf;" horiz-adv-x="693" 
d="M243 687q24 5 48 5q67 0 114 -35t47 -91q0 -40 -27 -84q198 3 228 0q-22 -24 -22 -58q0 -36 22 -73q-36 -4 -60 -4q-59 0 -84 23q-28 25 -24 87q-46 -1 -72 -1q-14 -29 -63 -49q-29 -12 -84 -26q-45 -10 -48 -15q25 -46 25 -178v-55q0 -120 26 -133q-14 0 -40.5 -1
t-37.5 -1q-66 0 -78 29t-12 65q0 13 2 43.5t2 47.5q0 37 -8 71q-13 58 -39 127q-18 47 -18 81q0 21 4 51q14 89 80 132q39 25 119 42zM196 400q48 19 84 91q33 67 33 124q0 52 -32 53q-49 1 -76 -39.5t-27 -108.5q0 -56 18 -120z" />
    <glyph glyph-name="questiondown" unicode="&#xf0c0;" horiz-adv-x="753" 
d="M404 659q24 4 47 4q130 0 130 -93q0 -12 -2 -25q-32 -174 -273 -165l58 -130q23 -47 58.5 -62t126.5 -15q36 0 98 2q-6 -17 -6 -36q0 -63 60 -126q-55 -14 -90 -14q-53 0 -81 34q-31 37 -39 123q-6 3 -191 3q-65 0 -65 -12q0 -2 1 -6t1 -7q2 -134 -144 -134q-25 0 -53 3
q43 34 43 91q0 25 -9 51q61 12 164 30q5 3 7 13q-85 144 -85 258q0 27 6 51q19 83 86 120q48 27 152 42zM302 408q63 8 105 66q37 52 37 107q0 33 -17 49.5t-49 4.5q-58 -21 -72 -99q-4 -23 -4 -128z" />
    <glyph glyph-name="exclamdown" unicode="&#xf0c1;" horiz-adv-x="900" 
d="M819 282q-1 -7 -1 -16q0 -63 42 -125q-39 -22 -90 -22q-97 0 -113 114h-73q-4 -13 -36 -90q-21 -53 -21 -79q0 -36 37 -44l-117 -20q-14 -2 -25 -2q-51 0 -51 46q0 34 35 115t35 111q0 26 -29 26q-14 0 -57 -16t-68 -16q-43 0 -73 38l-28 -18q2 -15 2 -30q0 -70 -40 -116
t-108 -46q14 34 14 74q0 11 -9 70q46 14 162 86q-46 81 -46 161q0 146 176 185q52 11 91 11q119 0 119 -105q0 -69 -62 -122.5t-157 -69.5q21 -40 33 -54q16 -19 37 -19q16 0 41 12l54 18q31 10 50 10q30 0 45 -25q13 -20 2 -73q6 0 85 9q93 11 144 22zM322 403q46 21 70 71
q20 42 20 90q0 25 -6 43t-26.5 31.5t-33.5 9.5q-63 -18 -63 -94q0 -59 39 -151z" />
    <glyph glyph-name="logicalnot" unicode="&#xf0c2;" horiz-adv-x="842" 
d="M611 3q12 36 56 54q34 15 78 15q50 0 51 -12q-22 -36 -22 -70q0 -40 28 -69q-2 -8 -27 -16t-55 -8q-102 0 -114 89l-155 -8q-84 -5 -84 30q0 17 16 52q5 13 54 108q33 65 33 83q0 6 -3 9q-11 11 -30 11q-12 0 -45 -7.5t-53 -7.5q-50 0 -84 43l-30 -18q1 -11 1 -22
q0 -62 -43 -102.5t-106 -40.5q-19 0 -37 4q39 40 39 85q0 28 -15 57l188 57q-28 47 -28 146q0 39 8 67q33 117 200 128q19 1 36 1q83 0 118 -31q31 -28 28 -86q-4 -69 -68.5 -117.5t-158.5 -64.5q4 -69 58 -69q18 0 55 5.5t55 5.5q75 0 75 -40q0 -7 -2 -16q-11 -38 -60 -126
q-41 -77 -41 -100q0 -22 29 -22zM381 400q36 18 61 55q20 30 44 92q5 13 5 33q0 66 -47 63q-84 -5 -84 -125q0 -69 21 -118z" />
    <glyph glyph-name="radical" unicode="&#xf0c3;" horiz-adv-x="644" 
d="M347 668q52 11 91 11q119 0 119 -105q0 -69 -62 -122.5t-157 -69.5q21 -39 31 -52q15 -18 34 -18q17 0 43 13q24 9 50 18t44 9q34 0 57 -37q7 -11 7 -28q0 -30 -32.5 -116t-32.5 -120q0 -38 30 -52l-112 1q-76 1 -76 46q0 31 35 112.5t35 111.5q0 26 -29 26
q-14 0 -57 -16t-68 -16q-43 0 -73 38l-28 -18q2 -15 2 -30q0 -70 -40 -116t-108 -46q14 34 14 74q0 11 -9 70q46 14 162 86q-46 81 -46 161q0 146 176 185zM332 403q46 21 70 71q20 42 20 90q0 25 -6 43t-26.5 31.5t-33.5 9.5q-63 -18 -63 -94q0 -59 39 -151z" />
    <glyph glyph-name="florin" unicode="&#xf0c4;" horiz-adv-x="894" 
d="M854 76q0 -36 -15 -60q-17 -29 -41 -41q-38 -20 -109 -15q-13 0 -47 -6.5t-45 -6.5q-78 0 -79 105q0 28 6 64t5 38q-43 12 -119 22q-63 8 -88 8q-34 0 -60 -7l-43 -16q-6 -149 -124 -149q-33 0 -66 13q25 46 28 123q50 13 166 35q0 3 8.5 8t8.5 18q-22 39 -44 77
q-35 76 -35 163q0 112 102 171q83 47 196 47q42 0 82 -24q46 -29 46 -70q0 -80 -80 -139q-72 -53 -151 -53q-15 0 -28 2q-3 -3 -7 -6q1 2 1 -18q0 -30 56 -101q59 -74 92 -74l248 -1q136 0 136 -107zM445 587q7 52 -43 52q-49 0 -78 -69q-21 -50 -21 -92q0 -52 16 -68
q50 0 86 57q31 49 40 120zM729 91q0 38 -2 45q-6 28 -33 29q-50 1 -50 -114q0 -36 2 -44q6 -31 32 -28q26 4 40 46q11 31 11 66z" />
    <glyph glyph-name="approxequal" unicode="&#xf0c5;" horiz-adv-x="877" 
d="M303 420q62 7 102 64q35 50 35 105q0 35 -16 52q-19 18 -51 6q-72 -26 -72 -149q0 -15 1 -41.5t1 -36.5zM573 526q237 -3 234 0q-6 -13 -6 -30q0 -41 36 -114q-24 -4 -52 -4q-134 0 -134 93q0 14 3 30h-97q1 -42 -92 -82q-89 -38 -156 -35q30 -66 60 -133q28 -56 56 -78
q33 -26 89 -27l123 -2q0 -62 4 -80q9 -34 44 -64q-129 0 -161.5 19.5t-51.5 109.5h-213l-41 -24q-3 -55 -37 -77q-40 -26 -141 -26q19 23 19 74q0 19 -3 41l167 27l36 15q-104 178 -104 302q0 101 82 163q69 52 178 63q16 2 30 2q131 0 131 -127q0 -17 -3 -36z" />
    <glyph glyph-name="Delta" unicode="&#xf0c6;" horiz-adv-x="810" 
d="M442 663q20 3 38 3q58 0 93 -28.5t30 -80.5q-7 -85 -70 -128q-45 -31 -153 -55q14 -73 105 -88q33 -5 257 -5q-18 -41 -18 -75q0 -57 46 -84q-54 -11 -94 -11q-58 0 -87 24q-22 18 -32 56l-14 66q-25 16 -112 16q-29 0 -66 -2q-33 -2 -34 -2q-32 3 -82 -47
q-59 -58 -59 -129q0 -39 19 -78q-70 -12 -96 -12q-70 0 -73 47q-10 158 206 259q-52 97 -52 160q0 16 2 31q17 93 111 133q36 15 135 30zM361 396q49 19 83 80q31 55 31 106q0 36 -18 50q-20 15 -58 -4q-31 -15 -48.5 -52.5t-17.5 -81.5q0 -59 28 -98z" />
    <glyph glyph-name="guillemotleft" unicode="&#xf0c7;" horiz-adv-x="444" 
d="M166 483q-2 -50 -63 -50q-52 0 -73 55q-5 12 -5 30q0 51 38 96q17 20 42 39q9 9 33 25l12 -19q-31 -16 -57.5 -52t-26.5 -57q0 -10 7 -12q15 3 47 3q47 -9 46 -58zM398 483q-1 -50 -62 -50q-52 0 -74 55q-4 12 -4 30q0 51 37 96q17 20 43 39q8 9 33 25l12 -19
q-31 -16 -58 -52t-27 -57q0 -10 8 -12q14 3 46 3q48 -9 46 -58z" />
    <glyph glyph-name="guillemotright" unicode="&#xf0c8;" horiz-adv-x="444" 
d="M277 625q2 51 63 51q51 0 73 -55q5 -12 5 -31q0 -51 -38 -95q-17 -21 -42 -39q-9 -10 -33 -25l-12 18q31 17 57.5 52.5t26.5 56.5q0 10 -7 13q-15 -3 -47 -3q-48 8 -46 57zM45 625q1 51 62 51q52 0 74 -55q4 -12 4 -31q0 -51 -37 -95q-18 -21 -43 -39q-8 -10 -33 -25
l-12 18q31 17 58 52.5t27 56.5q0 10 -8 13q-14 -3 -46 -3q-48 8 -46 57z" />
    <glyph glyph-name="ellipsis" unicode="&#xf0c9;" horiz-adv-x="36" 
d="M378 815h79q25 0 25 -25v-138q-3 0 -11 1q-14 1 -25 1q-70 0 -108 -27v163q0 9 14 17t26 8z" />
    <glyph glyph-name="nonbreakingspace" unicode="&#xf0ca;" horiz-adv-x="793" 
d="M313 427q16 -5 31 -5q49 0 79 50q27 45 27 101q0 81 -48 81q-10 0 -20 -4q-71 -25 -71 -143q0 -15 1 -42t1 -38zM327 662q0 4 4.5 52t3.5 50q-25 0 -77 -3q-29 -76 -142 -76q-30 0 -56 5q38 37 38 83q0 35 -26 69q54 6 81 6q88 0 103 -68q236 20 284 20q-4 30 27 55
q37 30 107 30q21 0 44 -3q-10 -28 -10 -54q0 -52 35 -87q-54 -16 -98 -16q-84 0 -109 57l-63 -8l-13 -97q53 3 90 -24q41 -31 41 -87q0 -15 -3 -31q-28 -154 -177 -154q-48 0 -101 16q22 -149 50 -192q38 -60 144 -57q49 2 164 5q-2 -14 -2 -28q0 -76 54 -121q-15 0 -50 -3
q-31 -3 -47 -3q-49 0 -74 23q-32 29 -39 103q-7 4 -90 10q-79 5 -114 5q-12 0 -35.5 7.5t-30.5 7.5q-14 0 -32.5 -12t-18.5 -26q8 -21 8 -43q0 -42 -26 -69q-29 -30 -81 -30q-23 0 -50 7q23 18 23 59q0 29 -13 65q38 7 69 17q74 24 106 62q-17 30 -35 101q-20 83 -20 156
q0 42 7 76q26 114 150 145z" />
    <glyph glyph-name="Agrave" unicode="&#xf0cb;" horiz-adv-x="849" 
d="M809 125q-28 -15 -68 -15q-63 1 -85 38q-12 20 -16 71q-14 0 -74 -3q-9 -21 -43 -148q-4 -12 -4 -23q0 -25 17 -37l-83 -12q-50 0 -59 3q-22 6 -22 33q0 18 9 52q48 178 50 178q-23 1 -66 -5q-46 -7 -67 -7q-47 0 -83 21q-9 -5 -18 -11t-9 -12q0 -5 4 -10q19 -35 19 -63
q0 -40 -37 -63q-31 -19 -76 -19q-27 0 -48 8q24 63 24 78q0 18 -9 32q23 7 46 17q53 23 92 57q-44 131 -44 174q0 72 39 114q32 35 106 64l22 92h-96q-15 -36 -83 -53q-48 -12 -107 -12q28 50 28 92q0 31 -15 53q26 15 66 15q43 0 73 -17q37 -20 40 -59l315 8q18 52 80 68
q30 8 107 8q-17 -24 -17 -61q0 -40 19 -77q-60 -23 -100 -23q-39 0 -61 24l-28 43h-78l-19 -101q7 1 14 1q43 0 75 -32t29 -74q-7 -88 -66 -135q-50 -40 -116 -40q-25 0 -45 7q-7 7 -7 -15q0 -41 35 -55q24 -10 54 -6q93 12 119 12q36 0 36 -22q0 1 -6 -43q3 -3 222 17
q-4 -18 -4 -44q0 -58 19 -83zM427 560q0 23 -14.5 44t-36.5 21q-40 0 -63 -68q-17 -49 -17 -86q0 -19 10 -42t22 -28q32 -5 67 60q32 59 32 99z" />
    <glyph glyph-name="Atilde" unicode="&#xf0cc;" horiz-adv-x="823" 
d="M441 -7q-35 0 -47 7q-16 8 -16 32q0 21 12 64q51 136 47 169q-18 1 -52 -1q-39 -3 -54 -3q-62 0 -105 25q0 -1 -18 -9q-11 -5 -11 -12q0 -5 5 -12q16 -31 16 -56q0 -41 -39 -65q-33 -20 -80 -20q-37 0 -59 14q26 30 26 70q0 21 -9 37q28 6 53 15q61 22 97 56
q-34 68 -34 173q0 125 159 185l11 89l-80 -1q-12 -27 -52 -45t-86 -18q-38 0 -65 14q35 42 35 83q0 32 -22 64q49 14 91 9q34 -4 63 -22q40 -24 43 -62q108 1 306 3q13 36 58 54q37 15 84 15q41 0 60 -10q-25 -33 -25 -76t30 -65q-45 -20 -87 -20q-49 0 -84 26
q-31 23 -33 48l-83 2l-22 -97q44 7 83 -33.5t32 -84.5q-25 -166 -162 -166q-44 0 -83 17q-6 -9 -6 -19q0 -28 41 -53q37 -23 61 -19q55 8 87 8q63 0 63 -38q0 -14 -7 -38q-1 -1 -35 -90q-26 -68 -26 -85q0 -24 27 -25l34 2q18 59 120 59q56 0 67 -16q-26 -32 -26 -68
q0 -40 36 -66q-20 -17 -68 -17q-47 0 -85 19q-44 22 -53 62zM440 537q5 18 5 38q0 63 -49 63q-70 0 -83 -147q-1 -12 -1 -22q0 -33 10 -49q7 -14 16 -12q72 7 102 129z" />
    <glyph glyph-name="Otilde" unicode="&#xf0cd;" horiz-adv-x="710" 
d="M301 747l-61 -1q-28 -69 -115 -69q-25 0 -58 6q20 44 20 82t-18 61q46 6 75 6q49 0 68 -20q15 -22 31 -44l247 8q21 46 34 59q29 28 92 28q22 0 49 -3q-20 -28 -20 -64q0 -50 25 -72q-54 -19 -92 -19q-62 0 -84 55l-54 -7l-10 -101q55 4 87.5 -22t32.5 -74q0 -42 -25 -93
q-47 -95 -156 -95q-31 0 -61 9q6 -30 27 -55q24 -28 51 -26q36 2 84 10q43 7 56 7q47 0 47 -46q0 -25 -25 -100.5t-25 -109.5q0 -39 25 -56h-116q-64 0 -64 39q0 7 9 47q3 12 32 103q21 62 17 89q-95 -20 -151 -20q-33 0 -54 7l-24 10l-20 -16q26 -51 26 -88q0 -79 -119 -79
q-20 0 -44 2q16 72 16 86t-2 30q50 16 59 20q37 19 66 58q6 9 6 20t-23 61t-23 94q0 36 14 76q25 72 134 106zM302 401q46 11 76 64q25 48 25 102q0 37 -13.5 58.5t-39.5 17.5q-35 -6 -55 -57q-17 -43 -17 -99q0 -78 24 -86z" />
    <glyph glyph-name="OE" unicode="&#xf0ce;" horiz-adv-x="811" 
d="M771 43q1 -93 -146 -93q-16 0 -45.5 1t-40.5 1q-51 -5 -77 27q-21 27 -21 71q0 49 20 68l-125 6q-73 9 -109 49q-1 -1 -35 -23q-2 -6 -2 -12q0 -12 10 -33t10 -30q0 -44 -34 -66q-27 -18 -68 -18q-37 0 -58 12q16 19 16 52v50q42 18 84 35q52 26 61 58q-77 160 -77 258
q0 130 149 185q5 46 12 94q-64 3 -74 0q-55 -61 -124 -61q-29 0 -57 12q0 7 9.5 34.5t9.5 46.5q0 29 -18 55q50 14 81 14q82 0 106 -82l284 6q26 87 129 87q33 0 55 -10q-13 -26 -13 -60q0 -48 22 -70q-63 -24 -92 -24q-48 0 -95 56l-80 -2l-11 -83q119 -11 110 -120
q-8 -87 -63 -131q-45 -35 -111 -35q-33 0 -63 10q16 -54 33 -95q38 -99 71 -122q30 -21 102 -25q-21 1 84 1q10 0 33 2t35 2q111 0 113 -98zM396 562q0 30 -3 41q-10 30 -43 30q-35 0 -54 -48q-16 -40 -16 -99q0 -50 11 -78q42 -2 73.5 46t31.5 108zM649 52q0 34 -8.5 46.5
t-37.5 12.5q-38 -6 -38 -92q0 -36 32 -47q26 6 40 34q12 23 12 46z" />
    <glyph glyph-name="oe" unicode="&#xf0cf;" horiz-adv-x="904" 
d="M134 843q25 2 46 2q71 0 100 -22t33 -74q38 0 159 1.5t147 1.5q-1 3 -1 6q0 24 37 51q45 33 112 33q21 0 44 -3q-16 -35 -16 -74q0 -37 13 -68q-38 -10 -71 -10q-73 0 -118 48l-85 -3l-12 -92q48 4 81 -24t33 -81q0 -26 -9 -56h220q-13 -23 -13 -51q0 -44 30 -88
q-39 -6 -68 -6q-105 0 -105 88q0 17 3 37h-69q-67 -97 -156 -97q-49 0 -107 27q0 -95 13 -144q13 -52 47 -81q39 -33 94 -39q21 -2 154 -2q-9 -24 -9 -52q0 -47 26 -84q-16 -3 -34 -3q-60 0 -106 30q-53 35 -59 100q-124 8 -127 9q-65 10 -105 49q-2 3 -6 3q-12 0 -30 -17.5
t-13 -17.5q1 0 2 1q0 -33 -1 -66q-3 -40 -23 -60q-27 -27 -91 -27q-24 0 -54 4q8 21 15 43q10 27 10 50q0 10 -2 21q36 11 66 23q73 28 106 56q-8 41 -17 82q-9 45 -9 97q0 45 6 108q7 68 54 117t107 54l17 86h-87q-60 -42 -134 -42q-34 0 -61 8q35 50 35 99q0 27 -12 49z
M361 408q8 -1 16 -1q49 0 83 51q30 46 30 101q0 71 -50 71q-7 0 -15 -2q-47 -11 -59 -93q-5 -30 -5 -127z" />
    <glyph glyph-name="endash" unicode="&#xf0d0;" horiz-adv-x="786" 
d="M724 886q-7 -26 -7 -51q0 -53 29 -92q-52 -18 -92 -18q-68 0 -103 49q-33 -2 -70 -12q1 -34 0 -97q62 -5 84 -14q43 -16 57 -61q7 -23 7 -46q0 -69 -53 -116q-56 -51 -145 -51q-26 0 -53 5q2 -60 56 -84q42 -19 130 -18q99 2 145 2q-8 -17 -8 -41q0 -65 33 -93
q-32 -9 -66 -9q-127 0 -120 115q-18 0 -74 -4q-65 -5 -84 -6q-24 -1 -50 6.5t-38 6.5q-37 -4 -75 -59q-44 -61 -44 -134q0 -33 10 -64q-22 0 -118 -1q-35 0 -35 34q0 45 29 98q56 101 193 152l-32 80q-15 45 -15 81q0 29 9 59q31 98 125 141l-2 99q-18 -1 -59 -4
q-17 -41 -71 -56q-24 -7 -105 -15q21 30 21 77q0 38 -13 77q47 11 80 11q53 0 77 -29q13 -22 26 -43q67 6 116 12q118 14 127 25l12 28q14 25 45 40q44 20 121 20zM380 413q48 0 79 49q28 45 28 100q0 40 -17.5 63.5t-51.5 18.5q-29 -5 -45 -50q-13 -38 -13 -91
q0 -73 20 -90z" />
    <glyph glyph-name="emdash" unicode="&#xf0d1;" horiz-adv-x="491" 
d="M319 643q132 -3 132 -139q0 -59 -33.5 -201t-33.5 -198q0 -77 44 -105h-93q-56 0 -72 7q-26 13 -26 61q0 46 36 207.5t36 227.5q0 95 -60 95q-19 0 -43 -9q0 -181 -123 -181q-20 0 -43 5q22 56 22 101q0 39 -18 59q47 2 136 32q96 33 139 38z" />
    <glyph glyph-name="quotedblleft" unicode="&#xf0d2;" horiz-adv-x="730" 
d="M537 581q15 3 28 3q60 0 94 -55q31 -49 31 -126q0 -100 -49 -174q-41 -63 -106 -89q-41 -17 -141 -33q-61 -9 -152 -14q0 -103 -73 -131q-32 -13 -129 -13q24 51 24 101q0 28 -7 48q114 0 218 16q172 26 209 86q26 43 43.5 107t17.5 121q0 125 -80 125q-20 0 -45 -9
q0 -79 -46 -109q-34 -23 -127 -33q22 67 22 108q0 27 -11 36q152 9 279 35z" />
    <glyph glyph-name="quotedblright" unicode="&#xf0d3;" horiz-adv-x="685" 
d="M479 627q77 5 121.5 -30t44.5 -104q0 -25 -6 -54q-14 -65 -81 -213q-60 -131 -60 -177q0 -35 24 -51l-75 2q-71 2 -74 2q-31 7 -31 43q0 10 3 24q4 25 84 211q73 171 73 244q0 79 -74 79q-17 0 -38 -4q0 -3 9.5 -39.5t9.5 -60.5q0 -27 -10 -47q-23 -43 -73 -56
q-20 -5 -105 -9q-11 -1 -48 -5q-32 -3 -50 -3q-78 0 -82 63q-5 81 24 118q23 29 75 37l96 6q72 9 243 24zM210 403q34 10 54 46q16 30 16 68q0 68 -37 68q-7 0 -13 -3q-55 -23 -55 -100q0 -30 10 -53.5t25 -25.5z" />
    <glyph glyph-name="quoteleft" unicode="&#xf0d4;" horiz-adv-x="521" 
d="M323 689q0 -29 -1 -87q0 -36 1 -49q1 -17 6 -28q3 -7 24 -7q5 0 21 1h24q72 0 81 -55q2 -11 2 -23q0 -58 -54.5 -195.5t-54.5 -183.5q0 -38 23 -56l-91 -4q-34 -1 -46 5q-18 8 -18 38q0 64 97 322q19 51 19 80q0 44 -48 44q-24 0 -115 -21q0 -82 -36 -113
q-32 -29 -117 -33q19 39 19 73q0 37 -19 60l154 41q1 79 1 192h70q51 -1 58 -1z" />
    <glyph glyph-name="quoteright" unicode="&#xf0d5;" horiz-adv-x="617" 
d="M289 649q53 6 90 6q134 0 134 -92q0 -9 -1 -20q-4 -36 -25 -79q-35 -75 -42 -93q66 0 93 -11q39 -16 39 -62q0 -15 -4 -33q-6 -31 -45 -113q-35 -72 -35 -103q0 -28 21 -43q-1 1 -85 -6q-87 -6 -87 51q0 24 15 58q25 53 49 106q25 59 25 95q0 39 -29 61q-23 17 -74 17
q-57 0 -95 -17q1 -52 -30 -91q-50 -60 -163 -55q26 36 26 80q0 30 -11 56q156 17 218 46q94 44 94 144q0 83 -74 83q-6 0 -41 -4q1 -43 -34 -84q-47 -54 -135 -54q-13 0 -27 1q30 40 30 83q0 25 -12 48z" />
    <glyph glyph-name="divide" unicode="&#xf0d6;" horiz-adv-x="889" 
d="M676 509q98 -21 128 -109q17 -50 17 -175q0 -150 2 -164q3 -43 26 -51l-79 -8q-19 -2 -33 -2q-40 0 -52 23q-7 14 -7 58q0 21 1 67.5t1 70.5q0 119 -22 176q-30 80 -109 80q-19 0 -41 -5v-332q0 -74 1 -81q3 -26 20 -42l-92 -15q-27 -4 -36 -4q-18 0 -25.5 13t-7.5 51
v402q-82 1 -136 -119q-47 -104 -47 -223q0 -89 30 -111l-89 -9q-15 -2 -26 -2q-35 0 -47.5 17t-12.5 62q0 26 5.5 100.5t61.5 165.5q62 100 186 135q53 15 215 28v-19q14 1 75 13q51 11 75 11q11 0 18 -2z" />
    <glyph glyph-name="lozenge" unicode="&#xf0d7;" horiz-adv-x="833" 
d="M154 560q60 45 133 59t240 14v-18q23 0 64 4t59 4q89 0 132 -83q11 -19 11 -54q0 -57 -40 -213t-40 -206q0 -51 27 -60q-35 -10 -98 -10q-60 0 -67 16q-10 26 -10 56q0 34 22 126q33 133 50 228q7 34 7 62q0 115 -88 115q-20 0 -37 -7q-50 -266 -50 -315q0 -34 13 -47
h-161l53 376q-80 -5 -137 -92q-55 -82 -55 -184q0 -43 11 -81h-150q-3 26 -3 53q0 171 114 257z" />
    <glyph glyph-name="ydieresis" unicode="&#xf0d8;" horiz-adv-x="755" 
d="M455 565q6 0 1 -11q98 0 91 0q48 -2 81 -21q43 -24 56 -75q3 -14 8 -85q3 -43 23 -52l-75 -1q-48 -1 -60 5q-18 10 -18 48q0 19 4 52q5 48 -24 80q-27 28 -60 28q-12 0 -21 -4l-29 -186q9 0 23 1h22q-49 -263 -49 -291q0 -37 21 -54q-4 0 -32 -2t-47 -2q-51 0 -64.5 13.5
t-13.5 43.5q0 39 50 269q-8 0 -26 1h-30l38 211q-61 0 -104 -56t-43 -126q0 -18 4 -35q-17 -4 -60 -14q-27 -6 -37 -6q-35 0 -42 34q-2 9 -2 18q0 52 57 121q79 96 358 96z" />
    <glyph glyph-name="Ydieresis" unicode="&#xf0d9;" horiz-adv-x="837" 
d="M519 566l1 -21q50 12 94 12q108 0 146 -69q23 -41 23 -94q0 -32 -10 -86t-10 -75q0 -46 34 -67q-43 -12 -100 -12q-53 0 -63 17q-8 13 -8 40q0 25 10.5 97t10.5 107q0 93 -58 106q-18 4 -32 4q-44 0 -48 -42q-24 -269 -24 -291q0 -26 6 -38q2 -4 20 -23q-36 -3 -65 -3
q-105 0 -100 36q8 52 32 350q-51 3 -97 -59q-40 -54 -58 -128q-39 -164 -39 -242q0 -69 27 -82q-71 -4 -89 -4q-62 0 -74 23q-8 17 -8 57q0 62 17 138q18 82 46 130q55 93 138 144q63 38 150 56q64 9 128 19z" />
    <glyph glyph-name="fraction" unicode="&#xf0da;" horiz-adv-x="1049" 
d="M1009 -128q-34 -6 -58 -6q-100 0 -124 131h-267q-26 -108 -127 -108q-37 0 -81 16q44 53 44 84q0 6 -1 17.5t-1 19.5h227q29 58 48 171q15 94 15 164q0 108 -81 108q-23 0 -21 1q-5 -1 -10 -7q-1 -7 -40 -193q-22 -105 -20 -176q-81 -1 -81 0q-39 0 -47 3q-21 7 -21 43
q0 10 2 23q8 65 26 151q21 107 28 149q-6 7 -9 7q-9 0 -19 -1q-71 1 -120 -81q-39 -64 -58 -164q-15 -83 -10 -123h-87q-59 0 -68 7.5t-7 49.5q4 77 46 161q55 112 146 147q112 43 280 43q22 0 63 -1t61 -1q88 0 143 -55.5t55 -138.5q0 -45 -50 -297h219q-17 -31 -17 -72
q0 -42 22 -72z" />
    <glyph glyph-name="currency" unicode="&#xf0db;" horiz-adv-x="1162" 
d="M789 21q-2 38 7 141q10 113 10 160q0 80 -20 111q-40 62 -117 62q-36 0 -104 -11q-4 -120 -17 -305q18 0 60 5.5t61 5.5q72 0 77 -61q2 -28 2 -38q0 -43 -30 -63q-40 -24 -147 -29q-15 -1 -53 -4q-31 -2 -46 -2q-58 0 -59 36q-1 28 20 459q-123 -4 -178 -80
q-45 -63 -68 -221q8 0 49 8.5t66 8.5q77 0 77 -77q0 -10 -2 -23q-9 -70 -106 -87l-126 -12q-22 -7 -39 -7q-66 0 -66 112q0 188 120 296q137 123 412 113l3 -10q68 8 115 8q153 0 216 -85q29 -39 29 -110l-10 -142q18 0 61 5t63 5q75 0 72 -61q-3 -82 -31 -105
q-34 -29 -152 -25q-6 0 -45 -5q-31 -3 -49 -3q-53 0 -55 30zM551 18q53 0 70 28q11 21 11 63q0 40 -16 49q-11 6 -30 6q-17 0 -35 -5v-141zM917 20q61 0 73.5 21.5t12.5 68.5q0 40 -19 47q-22 9 -60 1zM204 28q30 -4 46.5 17t16.5 59q0 17 -4 36q-5 24 -32 29q-8 1 -46 0
q-4 -44 -4 -71q0 -66 23 -70z" />
    <glyph glyph-name="guilsinglleft" unicode="&#xf0dc;" horiz-adv-x="1239" 
d="M925 180q18 0 61 5t63 5q75 0 72 -61q-3 -82 -31 -105q-34 -29 -152 -25q-6 0 -45 -5q-31 -3 -49 -3q-53 0 -55 30q-2 38 7 141q10 113 10 160q0 80 -20 111q-40 62 -117 62q-36 0 -104 -11q-4 -120 -17 -305q18 0 60 5.5t61 5.5q72 0 77 -61q2 -28 2 -38q0 -43 -30 -63
q-40 -24 -147 -29q-15 -1 -53 -4q-31 -2 -46 -2q-58 0 -59 36q-1 28 20 459q-123 -4 -178 -80q-45 -63 -68 -221q8 0 49 8.5t66 8.5q77 0 77 -76q0 -11 -2 -24q-9 -70 -106 -87l-126 -12q-22 -7 -39 -7q-66 0 -66 112q0 188 120 296q137 123 412 113l3 -10q70 8 120 8
q183 0 226 -108q264 24 266 22q-21 -37 -21 -76q0 -52 33 -77q-47 -14 -81 -14q-105 0 -107 122l-82 -3q6 -24 6 -59q0 -3 -10 -144zM551 18q53 0 70 28q11 21 11 63q0 40 -16 49q-11 6 -30 6q-17 0 -35 -5v-141zM917 20q61 0 73.5 21.5t12.5 68.5q0 40 -19 47q-22 9 -60 1z
M204 28q30 -4 46.5 17t16.5 59q0 17 -4 36q-5 24 -32 29q-7 1 -46 0q-4 -44 -4 -71q0 -66 23 -70z" />
    <glyph glyph-name="guilsinglright" unicode="&#xf0dd;" horiz-adv-x="1197" 
d="M1157 -120q-24 -5 -50 -5q-119 0 -119 95q0 13 2 29q-16 -2 -73 -8q-43 -5 -64 -5q-55 0 -54 31q0 19 7 119q5 88 5 140q0 117 -25 157q-40 62 -117 62q-36 0 -104 -11q-4 -120 -17 -305q18 0 60 5.5t61 5.5q72 0 77 -61q2 -28 2 -38q0 -43 -30 -63q-40 -24 -147 -29
q-15 -1 -53 -4q-31 -2 -46 -2q-58 0 -59 36q-1 28 20 459q-123 -4 -183 -88q-51 -72 -63 -213q8 0 49 8.5t66 8.5q77 0 77 -77q0 -10 -2 -23q-9 -70 -106 -87l-126 -12q-22 -7 -39 -7q-66 0 -66 112q0 188 120 296q137 123 412 113l3 -10q68 8 115 8q153 0 216 -85
q17 -23 27 -83t8 -127q0 -1 -4.5 -106l-4.5 -105l201 6q-12 -20 -12 -56q0 -56 36 -81zM621 46q11 21 11 63q0 40 -16 49q-11 6 -30 6q-17 0 -35 -5v-141q53 0 70 28zM263 140q-5 24 -32 29q-8 1 -46 0q-4 -44 -4 -71q0 -66 23 -70q30 -4 46.5 17t16.5 59q0 17 -4 36z" />
    <glyph glyph-name="fi" unicode="&#xf0de;" horiz-adv-x="1065" 
d="M167 293q72 0 72 76q0 37 -15 50q-9 7 -39 10q-8 -14 -20 -64q-2 -21 2 -72zM540 302q59 -4 71 77q4 28 -9.5 42t-42.5 12q-23 -30 -23 -101q0 -20 4 -30zM855 193l82 11q15 2 27 2q38 0 51 -22q10 -17 10 -60q0 -46 -42 -75q-38 -27 -91 -28l-85 -2v1q-11 -1 -45 -10
q-30 -8 -44 -8q-26 0 -36 7.5t-12 31.5q-2 21 73.5 204.5t73.5 235.5q-1 45 -32 73t-86 28q-19 0 -41 -4l-67 -12l-25 -110q52 11 107 11q31 0 48 -19.5t15 -50.5q-5 -69 -48 -96q-31 -18 -92 -18q-73 -1 -86 -5q-58 -16 -75 -16q-36 0 -36 41q0 18 6 44l52 221
q3 0 -15.5 1.5t-36.5 1.5q-168 0 -208 -119q2 0 48 7q27 5 48 4q46 -1 61 -25q9 -15 8 -50q-2 -117 -138 -115q-27 4 -52 4q-34 0 -50 -8q-24 -12 -41 -12q-42 0 -41 64q3 163 172 232q94 38 199 38q-3 0 92 5q89 5 104 4v-11l110 14q18 2 35 2q91 0 145 -74q30 -41 30 -99
q0 -59 -31 -136zM811 47q14 -11 29 -11q27 0 47 31q17 27 17 56q0 55 -57 54q-39 -74 -36 -130z" />
    <glyph glyph-name="fl" unicode="&#xf0df;" horiz-adv-x="1353" 
d="M937 36q52 0 70 31q14 24 12 78q-1 35 -45 35q-18 0 -37 -5v-139zM1145 420q-24 -6 -24 -59q0 -31 10 -54q12 -26 30 -26q30 0 30 55q0 34 -13 61.5t-33 22.5zM934 363l67 8q13 49 142 69q40 6 69 6q97 0 101 -84q2 -50 -31.5 -72t-113.5 -29q-43 -4 -64 -4
q-49 0 -70 19.5t-36 76.5l-61 -8q6 -60 -1 -138q15 1 57 5q35 3 54 3q81 0 87 -68q5 -63 -28 -92q-45 -39 -172 -40q-63 -13 -85 -13q-44 0 -46 31q-4 59 8 267q4 122 -21 160q-37 58 -117 58q-38 0 -116 -13l-1 -318q84 18 120 18q82 0 88 -66q5 -63 -28 -92
q-44 -38 -174 -44q-19 -1 -53 -4q-30 -3 -41 -3q-43 0 -43 35v472q-223 -8 -238 -316q8 0 48.5 7.5t64.5 7.5q84 0 84 -79q0 -11 -1 -23q-7 -59 -57 -79q-30 -12 -99 -13q-65 -1 -82 -11q-24 -14 -43 -14q-62 0 -62 127q0 186 121 295q136 124 413 133l117 4q65 2 129 -23
q69 -27 92 -72q16 -31 22 -84zM555 22q84 0 84 80q0 12 -2 27q-5 42 -44 42q-20 0 -38 -10v-139zM200 28q30 -5 48 17.5t18 61.5q0 16 -3 33q-5 24 -29 29q-7 1 -42 0q-8 2 -13.5 -20t-5.5 -50q0 -67 27 -71z" />
    <glyph glyph-name="daggerdbl" unicode="&#xf0e0;" horiz-adv-x="1099" 
d="M621 616v-10q64 13 112 13q139 0 139 -115q0 -10 -1 -23q16 1 58 10q37 8 56 8q33 0 53.5 -20t20.5 -53q0 -51 -47 -85q-57 -41 -158 -34l-31 -13t-53 -13q-58 0 -58 56q0 24 14.5 89.5t14.5 94.5q0 51 -34 63q-26 9 -89 1l-60 -225h73l-76 -219q81 28 128 28
q70 0 70 -59q0 -17 -6 -39q-23 -83 -177 -83q-34 0 -77.5 -8.5t-54.5 -8.5q-45 0 -45 43q0 25 24 100q34 109 69 218h-70l63 260q-111 -2 -166 -28q-64 -31 -115 -116q45 19 86 19q90 0 96 -76q6 -72 -63 -103q-53 -25 -128 -20q-15 1 -53 -7t-54 -8q-41 0 -42 41
q-4 323 581 322zM876 326q23 -1 44 30.5t21 63.5q0 51 -55 44q-14 -2 -25 -30.5t-11 -58.5q0 -48 26 -49zM197 287q29 4 49 35q18 28 18 61q0 59 -52 53q-18 -2 -29.5 -29t-11.5 -59q0 -54 26 -61zM561 8q27 7 46.5 31.5t14.5 47.5q-9 46 -55 41q-16 0 -28 -22.5t-12 -48.5
q0 -47 34 -49z" />
    <glyph glyph-name="periodcentered" unicode="&#xf0e1;" horiz-adv-x="1193" 
d="M451 628h159l-4 -26q6 1 125 23q73 13 114 13q124 0 124 -126q0 -14 -1 -30q27 6 53 13q39 9 63 9q69 0 69 -70q0 -15 -3 -32q-10 -64 -73 -84q-28 -8 -115 -11q-22 -1 -51.5 -9.5t-46.5 -8.5q-12 0 -25 3q-22 4 -22 54q0 22 6 79t6 84q0 32 -6 52q-12 39 -93 39
q-30 0 -125 -14l-19 -100q25 4 50 9q35 6 58 6q83 0 78 -78q-9 -129 -195 -122q-25 1 -57 -9.5t-44 -10.5t-23 5q-28 13 -28 61q0 31 20 119l32 143q-140 0 -216 -117q-66 -102 -76 -281q9 1 60 11q39 7 62 7q86 0 78 -104q-4 -49 -64 -77q-50 -23 -120 -25q-16 0 -59 -14
q-39 -12 -59 -11q-43 3 -43 124q0 175 91 322q115 184 320 184zM953 332q35 -14 60 17q21 28 21 68q0 55 -36 55q-11 0 -25 -7q-26 0 -20 -133zM590 325q24 0 42.5 29t18.5 61q0 51 -47 51q-11 0 -24 -3q-16 -71 -16 -104q0 -24 8.5 -29t17.5 -5zM192 50q31 -5 51 21t20 61
q0 29 -16 48t-47 14q-10 0 -17 -27.5t-7 -59.5q0 -51 16 -57z" />
    </font>
</defs>
</svg>
