<?xml version="1.0" standalone="no"?>
<!DOCTYPE svg PUBLIC "-//W3C//DTD SVG 1.1//EN" "http://www.w3.org/Graphics/SVG/1.1/DTD/svg11.dtd" >
<svg>
<metadata>
Created by FontForge 20110222 at Thu Mar  1 08:40:22 2012
 By Stefan Warting
Generated by Fontographer 4.0
</metadata>
<defs>
<font id="GeezNewB" horiz-adv-x="500" >
  <font-face 
    font-family="GeezNewB"
    font-weight="400"
    font-stretch="normal"
    units-per-em="1000"
    panose-1="0 0 4 0 0 0 0 0 0 0"
    ascent="800"
    descent="-200"
    bbox="6 -94 897 837"
    underline-thickness="20"
    underline-position="-123"
    unicode-range="U+F020-F0E0"
  />
<missing-glyph 
d="M63 0v800h375v-800h-375zM125 63h250v675h-250v-675z" />
    <glyph glyph-name=".notdef" 
d="M63 0v800h375v-800h-375zM125 63h250v675h-250v-675z" />
    <glyph glyph-name=".null" horiz-adv-x="0" 
 />
    <glyph glyph-name="nonmarkingreturn" 
 />
    <glyph glyph-name="space" unicode="&#xf020;" 
 />
    <glyph glyph-name="exclam" unicode="&#xf021;" horiz-adv-x="827" 
d="M583 495q0 -37 9.5 -75.5t19.5 -38.5q37 5 57 50q14 33 14 73q0 97 -42 93q-25 -3 -41.5 -31t-16.5 -71zM152 495q0 -37 9 -75.5t19 -38.5q37 5 57 50q14 33 14 73q0 97 -42 93q-24 -2 -40.5 -30.5t-16.5 -71.5zM203 321l275 32q-22 52 -18 105q6 82 81 127q60 35 138 35
q61 0 97.5 -30t36.5 -87q0 -68 -66 -107q-54 -32 -130 -36q24 -31 24 -96q0 -20 -2.5 -55.5t-2.5 -50.5q0 -17 2 -28q3 -16 30 -36l-105 -9q-56 -5 -56 49q0 14 3.5 44.5t4.5 45.5q1 31 -10 63q-1 3 -23 56l-277 -33q4 -20 4 -47q0 -19 -2.5 -55t-2.5 -50q0 -17 2 -28
q3 -16 30 -36l-105 -9q-56 -5 -56 50q0 13 3.5 43.5t4.5 45.5q2 40 -28.5 108t-26.5 126q5 82 80 126q61 36 139 36q61 0 97.5 -30t36.5 -87q0 -68 -66 -107q-54 -32 -130 -36q12 -18 18 -39zM629 753q-8 -48 15 -82q-29 -3 -45 -3q-86 0 -91 68l-227 -10q-9 -44 -44 -60
q-31 -15 -95 -13q4 13 9 27.5t5 27.5q0 14 -5 29zM133 14l447 18q-5 -19 -5 -34q0 -30 19 -59q-22 -3 -39 -3q-84 0 -90 74l-213 -4q-11 -53 -49 -70q-23 -10 -85 -12q23 39 15 90z" />
    <glyph glyph-name="numbersign" unicode="&#xf023;" horiz-adv-x="738" 
d="M524 586q20 2 38 2q137 0 137 -129q0 -14 -2 -29q-6 -61 -20 -164q-10 -69 -10 -92q0 -43 35 -54q-82 -19 -121 -19q-60 0 -60 56q0 18 14 109q25 161 25 216q0 83 -42 83q-50 0 -66 -92q-12 -89 -23 -179q-19 -103 -74 -121q-87 -29 -172 -29q-151 0 -153 100
q-2 147 35 210q42 73 154 73q-18 -29 -34 -103q-19 -80 -19 -145q0 -116 59 -116q38 0 53 99l24 190q13 74 82 105q39 17 140 29zM141 25l467 18q-14 -29 -14 -54q0 -26 18 -39q-26 -4 -46 -4q-92 0 -82 73l-194 -6q-16 -62 -83 -80l-84 -10q23 30 23 69q0 18 -5 33z
M216 724l439 13q-8 -17 -8 -37q0 -32 21 -58q-39 -6 -59 -6q-85 0 -107 73l-149 -3q-4 -28 -34 -55q-35 -32 -78 -32q-19 0 -37 6q19 29 19 62q0 20 -7 37z" />
    <glyph glyph-name="dollar" unicode="&#xf024;" horiz-adv-x="663" 
d="M351 587q10 2 17 2v0q31 0 33 -41q0 9 -5 -76q22 -18 67 -44q26 41 26 141h137q5 -37 -57 -250q-15 -51 -26 -129q-9 -67 -9 -98q0 -9 1 -9l-130 -9q-6 19 -6 49q0 101 64 282q2 1 -25 15q-36 18 -51 28q-42 -134 -254 -144q-52 -3 -83.5 22t-25.5 68q5 22 11 44
q9 35 9 63q0 25 -7 49l104 19q31 6 31 -39q0 -20 -16 -98q-8 -37 -8 -64q0 -51 29 -48q39 4 69 95q28 85 21 151zM58 17l393 15v-43q3 -24 18 -48q-36 -5 -53 -5q-69 0 -74 70l-165 -1q-17 -84 -105 -84q-16 0 -35 2q26 22 26 61q0 17 -5 33zM148 732l408 20v-42
q3 -25 18 -49q-36 -5 -53 -5q-69 0 -74 70l-180 -6q-17 -84 -105 -84q-16 0 -35 2q26 22 26 61q0 17 -5 33z" />
    <glyph glyph-name="percent" unicode="&#xf025;" horiz-adv-x="503" 
d="M33 17l379 24v-43q3 -24 18 -48q-36 -5 -53 -5q-69 0 -74 70l-151 -10q-17 -84 -105 -84q-16 0 -35 2q26 22 26 61q0 17 -5 33zM476 674q-31 -12 -61 -12q-35 0 -58 17t-24 47l-119 -10q-9 -73 -88 -73q-23 0 -45 6q18 24 18 59q0 14 -3 26q272 12 365 12q0 -55 15 -72z
M438 616q38 6 38 -44q0 -39 -26 -125q-23 -75 -47 -150q-25 -84 -25 -141q0 -28 6 -51l-105 -22q-35 -7 -35 52q0 75 48 223q-10 2 -31 2q-43 0 -117 -8q-34 8 -46 52q-7 27 -9 91.5t-8 89.5l126 12q20 2 20 -40q0 -17 -4 -50t-4 -39q0 -88 57 -88q27 0 47 60q19 55 19 114
q0 29 -6 47z" />
    <glyph glyph-name="ampersand" unicode="&#xf026;" horiz-adv-x="705" 
d="M535 582q94 2 127 -23q29 -21 26 -75q-2 -40 -29 -72t-62 -33q-78 -3 -119.5 -15t-66.5 -12q-67 0 -67 95q0 52 17 83q-85 0 -141 -114q-49 -98 -49 -204q0 -85 79 -85q22 0 54 7q32 60 86 79q40 14 107 11q-9 -29 -9 -54q0 -29 18 -77q-41 -10 -76 -10q-72 0 -116 39
l-157 -39q-53 -6 -93 30.5t-40 98.5q0 147 90 247q85 96 199 96q30 0 59 -8l54 22q36 11 109 13zM469 479q-4 -12 -4 -26q0 -26 12.5 -45.5t32.5 -19.5q24 0 41 39q4 10 21 70q3 10 3 23q0 50 -39 49q-40 -1 -67 -90zM108 11l393 18v-44q3 -26 18 -50q-31 -4 -49 -4
q-73 0 -78 72l-165 -4q-17 -84 -105 -84q-16 0 -35 2q26 22 26 61q0 17 -5 33zM195 719l375 18v-44q3 -26 18 -50q-31 -4 -49 -4q-73 0 -78 72l-147 -4q-17 -84 -105 -84q-16 0 -35 2q26 22 26 61q0 17 -5 33z" />
    <glyph glyph-name="quotesingle" unicode="&#xf027;" horiz-adv-x="1000" 
 />
    <glyph glyph-name="parenleft" unicode="&#xf028;" horiz-adv-x="463" 
d="M67 7l349 28q0 -48 24 -85q-32 -4 -50 -4q-69 0 -83 63l-115 -6q-18 -88 -113 -88q-14 0 -31 2q25 21 25 56q0 18 -6 34zM200 602q56 12 111 12q54 0 75 -16t21 -45q0 -41 -53 -134q19 0 49 2q33 1 33 -22q0 -15 -16 -53q-18 -41 -35 -82q-32 -81 -32 -119q0 -22 10 -52
l-125 -10q-35 -3 -35 31q0 23 16 70l75 218l-74 3q33 97 33 133q0 44 -48 44q-15 0 -36 -3q-6 -68 -26 -95q-33 -45 -125 -55q17 37 17 72q0 22 -8 62zM65 723l361 34q0 -85 -2 -37q1 -21 16 -44q-30 -4 -51 -4q-77 0 -84 57l-113 -8q-1 -39 -33 -63t-79 -24q-10 0 -20 1
q19 16 19 41q0 23 -14 47z" />
    <glyph glyph-name="parenright" unicode="&#xf029;" horiz-adv-x="515" 
d="M299 620q61 0 97.5 -30t36.5 -87q0 -68 -66 -107q-54 -32 -130 -36q24 -31 24 -96v0q0 -15 -4 -75q-3 -41 0.5 -58t30.5 -37l-105 -9q-56 -5 -56 50q0 13 3.5 43.5t4.5 45.5q2 40 -28.5 108t-26.5 126q5 82 80 126q61 36 139 36zM204 495q0 -37 9 -75.5t19 -38.5
q37 5 57 50q14 33 14 73q0 97 -42 93q-24 -2 -40.5 -30.5t-16.5 -71.5zM27 14l366 12q-5 -18 -5 -30q0 -21 19 -51q-28 -4 -47 -4q-76 0 -82 69l-132 -4q-11 -53 -48 -70q-23 -10 -86 -12q17 28 17 65q0 14 -2 25zM471 735q-8 -48 15 -82q-29 -3 -45 -3q-86 0 -91 68
l-140 -4q-8 -44 -44 -60q-31 -15 -95 -12q15 48 15 53q0 15 -6 30z" />
    <glyph glyph-name="asterisk" unicode="&#xf02a;" horiz-adv-x="888" 
d="M38 529l819 52q-7 -16 -7 -40q0 -43 21 -98q-57 -1 -103 19q-68 29 -62 93l-85 -9l-12 -51l-51 -336q-3 -17 14 -47l-74 -7q-67 -6 -67 35q0 6 1 13q29 155 60 381l-82 -4l-9 -66l-52 -331q0 -13 11 -24l13 -13l-70 -3q-5 0 -18.5 -1.5t-20.5 -1.5q-38 0 -38 35
q0 90 64 400l-86 -3q-22 -57 -66 -92q-50 -40 -114 -39q21 67 21 107q0 21 -7 31zM215 20l416 20q0 -35 1 -43q3 -24 19 -48q-22 -3 -39 -3q-86 0 -92 74l-188 -8q-11 -53 -45 -72q-20 -11 -87 -20q22 39 15 100zM685 745q-10 -64 9 -92q-18 -2 -33 -2q-89 0 -103 67
l-194 -10q-4 -47 -31.5 -64t-99.5 -16q13 43 13 53q0 15 -6 32z" />
    <glyph glyph-name="comma" unicode="&#xf02c;" horiz-adv-x="919" 
d="M362 311zM272 693l-60 -3q-8 -42 -88 -63q-60 -16 -100 -12q17 59 17 76q0 26 -20 71q43 17 81 17q83 0 111 -68l252 23q37 90 160 90q21 0 38 -3q-20 -46 -20 -69q0 -10 20 -68q-30 -15 -67 -15q-68 0 -121 46l-58 -6l-28 -174q47 41 133 43q211 4 211 -168
q0 -16 -2 -34l-15 -141l90 -11q72 -9 65 -76q-7 -74 26 -125l-88 -21q-14 -3 -25 -3q-44 0 -42 65q0 11 3 43q2 29 2 44q0 50 -20 62h-83q-67 -2 -77 -14q1 -50 -51.5 -91.5t-113.5 -41.5q-15 0 -28 3q22 35 22 79q0 27 -9 53q143 8 189 34l15 142q3 25 3 49q0 136 -72 137
q-55 1 -88 -51q-31 -47 -32 -116l-1 -76h-127v54q0 58 32 98q9 12 52 47l-1 9l-121 1q16 53 36 164zM1648 821z" />
    <glyph glyph-name="zero" unicode="&#xf030;" horiz-adv-x="515" 
d="M208 580h128q30 0 30 -42q0 -22 -8 -55q-19 -83 -58 -288q-3 -14 8 -51h-85q-35 0 -47.5 5.5t-12.5 25.5q0 13 5 39q3 16 40 187q21 95 23 130q1 19 -23 49zM45 20l364 12v-46q3 -27 18 -51q-17 -2 -32 -2q-91 0 -97 79l-132 -4q-16 -79 -106 -79q-18 0 -42 3
q29 25 29 67q0 12 -2 21zM471 734q-8 -50 15 -84q-29 -3 -43 -3q-80 0 -93 68h-118q-17 -42 -50 -58.5t-93 -13.5q15 48 15 53q0 15 -6 30z" />
    <glyph glyph-name="one" unicode="&#xf031;" horiz-adv-x="566" 
d="M509 734q-5 -13 -5 -26q0 -33 28 -56q-13 -9 -46 -9q-36 0 -60 14q-30 17 -29 52l-122 -6q-39 -88 -142 -84l4 43q2 25 -4 42zM338 563q10 -14 10 -31q0 -19 -15 -49q-21 -44 -23 -51q59 -4 108 -36q73 -49 73 -142q0 -112 -85 -147q-38 -15 -143 -18q-50 -14 -96 -14
q-135 0 -135 124q0 49 78 164q84 123 91 153q3 14 -5 30q-7 11 -14 21l69 13q19 4 35 4q38 0 52 -21zM61 6l382 18q0 -72 -2 -40q2 -23 18 -53q-17 -3 -33 -3q-96 0 -102 76l-142 -10q-21 -49 -66 -71q-40 -20 -86 -15q24 33 31 98zM174 165q-3 -30 26 -48q24 -15 51 -15
q47 0 76 56q25 49 25 113q0 36 -13 74q-16 48 -43 61q-113 -148 -122 -241z" />
    <glyph glyph-name="two" unicode="&#xf032;" horiz-adv-x="534" 
d="M300 625q156 -3 156 -103q0 -8 -1 -18q-9 -72 -67 -116q-53 -40 -122 -40q-40 0 -75 15q-15 -66 0 -102l119 8q15 1 26 1q39 0 56 -15q22 -20 17 -68q-5 -52 -59 -80q-47 -24 -112 -24q-94 0 -148 87q-45 72 -47 173q-3 149 64 219q64 65 193 63zM193 238q0 -48 9 -86
q13 -50 36 -49q14 1 28 25.5t12 47.5q-3 38 -20 51.5t-65 10.5zM197 478q-7 -30 -7 -57q0 -35 14 -39q22 -7 59 35q34 39 51 83q13 33 13 59q0 42 -36 46q-29 3 -55 -33t-39 -94zM49 26l364 12v-46q3 -27 18 -51q-17 -2 -32 -2q-91 0 -97 79l-132 -4q-17 -84 -116 -84
q-17 0 -36 2q37 32 31 94zM477 735q-8 -48 15 -82q-29 -3 -45 -3q-86 0 -91 68l-140 -4q-8 -44 -44 -60q-31 -15 -95 -12q15 48 15 53q0 15 -6 30z" />
    <glyph glyph-name="three" unicode="&#xf033;" horiz-adv-x="515" 
d="M458 580q-14 -28 -14 -62q0 -47 28 -76q-25 -4 -47 -4q-131 0 -126 114h-53q-18 -1 -45 -1q-9 -45 -23 -177q-16 -144 -19 -218q-1 -32 18 -54l-89 -9q-29 -3 -45 7q-22 13 -18 54q4 45 42 409zM443 740q-7 -16 -7 -36q0 -33 16 -54q-22 -5 -46 -5q-87 0 -85 68l-126 -4
q-10 -79 -132 -74q14 65 12 81zM22 22l343 13q0 -71 -2 -39q2 -23 18 -53q-15 -2 -32 -2q-101 0 -107 77l-90 -4q-12 -80 -112 -80q-16 0 -34 2q24 33 16 86z" />
    <glyph glyph-name="four" unicode="&#xf034;" horiz-adv-x="484" 
d="M271 585q189 -2 189 -184q0 -45 -10 -100q-39 -206 -245 -206q-20 0 -41 2q-143 14 -143 183q0 19 2 39q14 161 88 222q54 45 160 44zM271 570q-50 1 -77 -103q-2 -7 -23 -136q-5 -33 -5 -81q0 -124 31 -132q5 -1 11 -1q44 0 78 89q27 73 32 150q4 56 4 87q0 126 -51 127
zM443 755q-5 -13 -5 -26q0 -33 28 -56q-12 -9 -43 -9q-37 0 -62 15q-31 18 -30 54l-101 -9q-38 -85 -142 -81l4 43q2 25 -4 42zM55 6l349 15q0 -72 -2 -40q2 -23 18 -53q-17 -3 -33 -3q-96 0 -102 76l-109 -7q-21 -49 -66 -71q-40 -20 -86 -15q24 33 31 98z" />
    <glyph glyph-name="five" unicode="&#xf035;" horiz-adv-x="663" 
d="M593 457q-6 -75 47 -121q-39 -17 -74 -17q-51 0 -92 33q-17 13 -23 31q-2 6 -7 41l-112 -4q-164 -201 -160 -258q3 -40 31 -62q24 -17 58 -17q11 0 22 2l81 17q2 46 40 72q27 19 76 29q30 5 61 10q-12 -22 -12 -57q0 -69 24 -94q-46 -14 -93 -14q-72 0 -98 40l-78 -17
q-68 -17 -127 -17q-104 0 -125 57q-9 25 -9 49q0 52 67 146q50 70 76 109q47 71 70 118q4 7 4 15q0 27 -36 53h93q58 0 72 -4q21 -6 21 -29q0 -12 -5 -35q-7 -33 -48 -96q104 6 256 20zM106 2l364 12v-46q3 -27 18 -51q-17 -2 -32 -2q-91 0 -97 79l-132 -4q-17 -84 -116 -84
q-17 0 -36 2q37 32 31 94zM522 723q-8 -48 15 -82q-42 -5 -54 -5q-77 0 -82 64l-170 -4q-8 -44 -44 -60q-31 -15 -95 -12q15 48 15 53q0 15 -6 30z" />
    <glyph glyph-name="six" unicode="&#xf036;" horiz-adv-x="497" 
d="M172 573q25 6 51 12.5t60 6.5q93 0 93 -63q0 -24 -15 -59l-82 -194l102 6q41 2 65 -20t20 -63q-9 -103 -150 -103q-27 0 -75 5q-36 -10 -72 -10q-79 0 -79 58q0 21 10 49q33 76 99 229q37 85 37 114q0 27 -29 27q-6 0 -17 -3t-18 -3q-32 -111 -138 -111q17 41 17 67
q0 29 -20 56q37 27 73 27q38 0 68 -28zM239 111q29 -1 63.5 38.5t34.5 72.5q0 35 -46 35q-8 0 -17 -1q-50 -95 -50 -126q0 -18 15 -19zM43 20l364 12v-46q3 -27 18 -51q-17 -2 -32 -2q-91 0 -97 79l-132 -4q-17 -84 -116 -84q-17 0 -36 2q37 32 31 94zM453 732
q-8 -48 15 -82q-29 -3 -45 -3q-86 0 -91 68l-140 -4q-8 -44 -44 -60q-31 -15 -95 -12q15 48 15 53q0 15 -6 30z" />
    <glyph glyph-name="seven" unicode="&#xf037;" horiz-adv-x="553" 
d="M291 583q21 2 38 2v0q73 0 85 -38q10 -31 -20 -105q-1 -2 -99 -210q-23 -45 -23 -67q0 -17 15 -15l69 8q28 57 115 57q26 0 46 -7q-13 -30 -13 -64q0 -39 20 -59q-19 -13 -63 -13q-84 0 -117 66l-67 -5q-67 -5 -85 -5q-64 0 -64 36q0 22 19 62q64 132 121 254q7 15 7 30
v0q0 27 -24 40.5t-58 1.5q-27 -71 -69 -98q-37 -23 -106 -23q28 36 28 88q0 19 -4 41zM60 23l364 12v-46q3 -27 18 -51q-17 -2 -32 -2q-91 0 -97 79l-132 -4q-17 -84 -116 -84q-17 0 -36 2q37 32 31 94zM479 735q-8 -52 12 -82q-19 -2 -36 -2q-101 0 -106 73l-113 -7
q-8 -45 -39.5 -61.5t-93.5 -13.5q15 48 15 53q0 15 -6 30z" />
    <glyph glyph-name="eight" unicode="&#xf038;" horiz-adv-x="670" 
d="M641 569q-14 -17 -14 -49t14 -78q-49 -3 -89 12q-57 22 -57 72q0 11 3 22h-79l-33 -343h188q-6 -36 -6 -59q0 -39 18 -72q-49 -3 -83 7q-83 23 -77 104l-229 -12q-37 -95 -154 -95q-14 0 -25 2q20 28 24.5 42t11.5 73l195 5l36 353h-66q-12 -64 -64 -94q-38 -22 -84 -22
q-13 0 -21 2q1 5 24 72q10 29 10 58h557zM110 20l364 12v-46q3 -27 18 -51q-17 -2 -32 -2q-91 0 -97 79l-132 -4q-17 -84 -116 -84q-17 0 -36 2q37 32 31 94zM559 729q-1 -7 -1 -15q0 -34 22 -67q-29 -3 -46 -3q-91 0 -96 68l-125 -1q-8 -44 -38 -59.5t-92 -12.5
q15 48 15 53q0 15 -6 30z" />
    <glyph glyph-name="nine" unicode="&#xf039;" horiz-adv-x="546" 
d="M428 583q10 2 19 2v0q81 0 64 -138q-23 -187 -71 -257q-70 -99 -246 -97q-69 1 -91 10q-45 19 -45 87q0 18 3 39q12 74 34 251q4 46 -18 73l91 12q9 1 17 1v0q45 0 49 -45q2 -26 -13 -115l154 40q2 19 2 35q0 44 -16 68l-18 20zM228 107q51 -1 88 89q22 55 47 175
q4 20 10 60l-154 -42q-28 -145 -28 -202q0 -79 37 -80zM37 20l367 12q0 -57 24 -94q-14 -2 -28 -2q-107 0 -110 76l-132 -4q-19 -75 -121 -75q-15 0 -31 2q37 32 31 85zM468 735q-8 -48 15 -82q-20 -2 -35 -2q-85 0 -98 67l-131 -4q-8 -45 -35.5 -60t-88.5 -12q5 13 11 27.5
t6 28.5q0 13 -5 27z" />
    <glyph glyph-name="at" unicode="&#xf040;" horiz-adv-x="683" 
d="M630 623q-7 -24 -7 -46q0 -40 24 -81q-14 -5 -42 -5q-48 0 -79 19q-41 26 -37 82l-78 -6q2 -10 2 -22q0 -44 -39 -104q-14 -22 -77 -102q57 13 104 13q70 0 88 -31q13 -22 22 -134q8 -98 36 -112l-113 -13q-32 -4 -43 16q-4 8 -8 38q-7 65 -13 129q-15 73 -62 73
q-8 0 -18 -2q-31 -7 -57 -63.5t-26 -107.5q0 -48 24 -61l-110 -16q-15 -2 -24 -2q-24 0 -31 18t-7 75q0 46 59 126l106 140q57 82 53 137q-5 0 -43.5 -3t-43.5 -3q-7 -47 -39 -78q-38 -37 -97 -37q-12 0 -24 1q8 13 16 27q10 20 10 40q0 25 -17 51zM88 17l383 20v-43
q3 -24 18 -48q-36 -5 -53 -5q-69 0 -74 70l-155 -6q-17 -84 -105 -84q-16 0 -35 2q26 22 26 61q0 17 -5 33zM526 750q-9 -58 15 -94q-25 -3 -43 -3q-94 0 -99 70l-122 -6q-8 -45 -38.5 -63t-91.5 -15q15 48 15 53q0 15 -6 30z" />
    <glyph glyph-name="asciicircum" unicode="&#xf05e;" horiz-adv-x="697" 
d="M664 581q-6 -19 -6 -47q0 -36 9 -76q-135 4 -135 90q0 7 1 15h-104l-42 -112l60 -2l-67 -210l188 6q-6 -16 -6 -41q0 -40 15 -89q-11 -1 -22 -1q-53 0 -89 26q-40 30 -34 78h-245q-69 -122 -175 -122q23 65 23 101q0 16 -6 24q136 12 204 12l70 210l-63 2l34 111h-73
q-1 -37 -48 -74q-51 -40 -112 -40q0 4 12 36t12 61q0 16 -3 33zM108 27l393 15v-43q3 -24 18 -48q-20 -3 -36 -3q-79 0 -91 68l-174 -1q-11 -54 -50 -70q-26 -11 -90 -9q26 32 30 91zM157 727l411 15q-2 -59 12 -91q-50 -2 -74 5q-45 13 -59 60l-165 -1q-11 -52 -51 -68
q-16 -6 -89 -14q18 27 18 63q0 15 -3 31z" />
    <glyph glyph-name="underscore" unicode="&#xf05f;" horiz-adv-x="1000" 
 />
    <glyph glyph-name="m" unicode="&#xf06d;" horiz-adv-x="810" 
d="M648 460q5 18 5 40q0 43 -15 50q-18 9 -40 9q-18 0 -33 -6l-9 -109q0 -60 34 -65q32 0 38 5q6 21 20 76zM173 328q59 0 89 229q-6 2 -14 2q-38 0 -61 -44q-47 -91 -47 -146q0 -41 33 -41zM460 576q37 1 108 2v-10q6 0 46.5 8.5t46.5 8.5q21 5 39 5q71 0 78 -75
q6 -61 -38 -186l-62 -176q-15 -43 -15 -88q0 -47 20 -68h-68q-46 0 -51 1q-22 4 -26 25q-3 16 -3 33q0 41 18 96l67 205q-38 12 -45 12q-21 0 -50 -4.5t-39 -4.5q-24 0 -38 18.5t-14 52.5v0q0 -5 10 86q5 44 -17 46q-38 4 -49 -17q-7 -27 -13 -54q-1 -4 -11 -68
q-6 -38 -21 -66q-20 -38 -80 -44q-42 -2 -85 -3q-4 -1 -39 -14q-29 -11 -48 -11q-30 0 -47 26q-9 14 -9 50q0 75 45 133.5t121 70.5q24 4 144 4q1 0 18 1q13 1 6 119l-220 -2q16 35 16 68q0 47 -30 77q4 0 30 2q21 2 34 2v0q113 0 91 -129h253q-3 17 -3 32q0 57 42 79
q33 18 109 17q0 -2 -11 -34q-8 -26 -8 -46q0 -38 28 -70l-230 1v-111z" />
    <glyph glyph-name="daggerdbl" unicode="&#xf0e0;" horiz-adv-x="1000" 
 />
  </font>
</defs>
</svg>
